<svg xmlns="http://www.w3.org/2000/svg" xmlns:xlink="http://www.w3.org/1999/xlink" width="672" zoomAndPan="magnify" viewBox="0 0 504 359.999987" height="480" preserveAspectRatio="xMidYMid meet" version="1.0"><defs><g/></defs><g fill="#000000" fill-opacity="0.5608"><g transform="translate(8.505745, 198.543836)"><g><path d="M 2.59375 -0.703125 L 2.59375 -25.203125 C 2.59375 -25.671875 2.828125 -25.90625 3.296875 -25.90625 L 11.875 -25.90625 C 12.34375 -25.90625 12.578125 -25.671875 12.578125 -25.203125 L 12.578125 -0.703125 C 12.578125 -0.234375 12.34375 0 11.875 0 L 3.296875 0 C 2.828125 0 2.59375 -0.234375 2.59375 -0.703125 Z M 3.703125 -28.828125 L 3.703125 -28.890625 C 3.703125 -29.359375 3.441406 -29.59375 2.921875 -29.59375 C 2.453125 -29.59375 2.21875 -29.828125 2.21875 -30.296875 L 2.21875 -33.703125 C 2.21875 -34.171875 2.476562 -34.40625 3 -34.40625 C 3.46875 -34.40625 3.703125 -34.664062 3.703125 -35.1875 C 3.703125 -35.65625 3.9375 -35.890625 4.40625 -35.890625 L 10.765625 -35.890625 C 11.234375 -35.890625 11.46875 -35.628906 11.46875 -35.109375 C 11.46875 -34.640625 11.726562 -34.40625 12.25 -34.40625 C 12.71875 -34.40625 12.953125 -34.171875 12.953125 -33.703125 L 12.953125 -30.296875 C 12.953125 -29.828125 12.691406 -29.59375 12.171875 -29.59375 C 11.703125 -29.59375 11.46875 -29.335938 11.46875 -28.828125 C 11.46875 -28.359375 11.234375 -28.125 10.765625 -28.125 L 4.40625 -28.125 C 3.9375 -28.125 3.703125 -28.359375 3.703125 -28.828125 Z M 3.703125 -28.828125 "/></g></g></g><g fill="#000000" fill-opacity="0.5608"><g transform="translate(23.674132, 198.543836)"><g/></g></g><g fill="#000000" fill-opacity="0.5608"><g transform="translate(32.923144, 198.543836)"><g><path d="M 4.4375 -0.703125 L 4.4375 -1.515625 C 4.4375 -1.984375 4.203125 -2.21875 3.734375 -2.21875 L 2.921875 -2.21875 C 2.453125 -2.21875 2.21875 -2.453125 2.21875 -2.921875 L 2.21875 -9.28125 C 2.21875 -9.75 2.453125 -9.984375 2.921875 -9.984375 L 11.5 -9.984375 C 11.96875 -9.984375 12.203125 -9.75 12.203125 -9.28125 L 12.203125 -2.921875 C 12.203125 -2.453125 12.4375 -2.21875 12.90625 -2.21875 L 13.734375 -2.21875 C 14.203125 -2.21875 14.4375 -2.453125 14.4375 -2.921875 L 14.4375 -3.734375 C 14.4375 -4.203125 14.671875 -4.4375 15.140625 -4.4375 L 15.984375 -4.4375 C 16.453125 -4.4375 16.6875 -4.671875 16.6875 -5.140625 L 16.6875 -8.84375 C 16.6875 -9.3125 16.453125 -9.546875 15.984375 -9.546875 L 15.171875 -9.546875 C 14.703125 -9.546875 14.46875 -9.78125 14.46875 -10.25 L 14.46875 -11.0625 C 14.46875 -11.53125 14.234375 -11.765625 13.765625 -11.765625 L 5.140625 -11.765625 C 4.671875 -11.765625 4.4375 -12 4.4375 -12.46875 L 4.4375 -13.28125 C 4.4375 -13.75 4.203125 -13.984375 3.734375 -13.984375 L 2.921875 -13.984375 C 2.453125 -13.984375 2.21875 -14.21875 2.21875 -14.6875 L 2.21875 -22.984375 C 2.21875 -23.453125 2.453125 -23.6875 2.921875 -23.6875 L 3.484375 -23.6875 C 3.953125 -23.6875 4.1875 -23.921875 4.1875 -24.390625 L 4.1875 -25.203125 C 4.1875 -25.671875 4.421875 -25.90625 4.890625 -25.90625 L 23.34375 -25.90625 C 23.8125 -25.90625 24.046875 -25.671875 24.046875 -25.203125 L 24.046875 -24.390625 C 24.046875 -23.921875 24.28125 -23.6875 24.75 -23.6875 L 25.5625 -23.6875 C 26.03125 -23.6875 26.265625 -23.453125 26.265625 -22.984375 L 26.265625 -16.609375 C 26.265625 -16.140625 26.03125 -15.90625 25.5625 -15.90625 L 19.578125 -15.90625 C 19.109375 -15.90625 18.875 -16.140625 18.875 -16.609375 L 18.875 -17.421875 C 18.875 -17.890625 18.640625 -18.125 18.171875 -18.125 L 17.359375 -18.125 C 16.890625 -18.125 16.65625 -18.359375 16.65625 -18.828125 L 16.65625 -22.984375 C 16.65625 -23.453125 16.421875 -23.6875 15.953125 -23.6875 L 15.140625 -23.6875 C 14.671875 -23.6875 14.4375 -23.453125 14.4375 -22.984375 L 14.4375 -22.15625 C 14.4375 -21.6875 14.203125 -21.453125 13.734375 -21.453125 L 12.90625 -21.453125 C 12.4375 -21.453125 12.203125 -21.21875 12.203125 -20.75 L 12.203125 -16.90625 C 12.203125 -16.4375 12.4375 -16.203125 12.90625 -16.203125 L 13.734375 -16.203125 C 14.203125 -16.203125 14.4375 -15.96875 14.4375 -15.5 L 14.4375 -14.6875 C 14.4375 -14.21875 14.671875 -13.984375 15.140625 -13.984375 L 23.390625 -13.984375 C 23.859375 -13.984375 24.09375 -13.75 24.09375 -13.28125 L 24.09375 -12.46875 C 24.09375 -12 24.328125 -11.765625 24.796875 -11.765625 L 25.609375 -11.765625 C 26.078125 -11.765625 26.3125 -11.53125 26.3125 -11.0625 L 26.3125 -2.921875 C 26.3125 -2.453125 26.078125 -2.21875 25.609375 -2.21875 L 24.796875 -2.21875 C 24.328125 -2.21875 24.09375 -1.984375 24.09375 -1.515625 L 24.09375 -0.703125 C 24.09375 -0.234375 23.859375 0 23.390625 0 L 5.140625 0 C 4.671875 0 4.4375 -0.234375 4.4375 -0.703125 Z M 4.4375 -0.703125 "/></g></g></g><g fill="#000000" fill-opacity="0.5608"><g transform="translate(61.780071, 198.543836)"><g><path d="M 6.296875 -0.703125 L 6.296875 -1.515625 C 6.296875 -1.984375 6.0625 -2.21875 5.59375 -2.21875 L 4.765625 -2.21875 C 4.296875 -2.21875 4.0625 -2.453125 4.0625 -2.921875 L 4.0625 -23.015625 C 4.0625 -23.484375 3.828125 -23.71875 3.359375 -23.71875 L 2.1875 -23.71875 C 1.71875 -23.71875 1.484375 -23.953125 1.484375 -24.421875 L 1.484375 -25.203125 C 1.484375 -25.671875 1.71875 -25.90625 2.1875 -25.90625 L 3.359375 -25.90625 C 3.828125 -25.90625 4.0625 -26.140625 4.0625 -26.609375 L 4.0625 -31.75 C 4.0625 -32.21875 4.296875 -32.453125 4.765625 -32.453125 L 13.359375 -32.453125 C 13.828125 -32.453125 14.0625 -32.21875 14.0625 -31.75 L 14.0625 -26.609375 C 14.0625 -26.140625 14.296875 -25.90625 14.765625 -25.90625 L 18.5 -25.90625 C 18.96875 -25.90625 19.203125 -25.671875 19.203125 -25.203125 L 19.203125 -24.421875 C 19.203125 -23.953125 18.96875 -23.71875 18.5 -23.71875 L 14.765625 -23.71875 C 14.296875 -23.71875 14.0625 -23.484375 14.0625 -23.015625 L 14.0625 -2.921875 C 14.0625 -2.453125 14.296875 -2.21875 14.765625 -2.21875 L 15.578125 -2.21875 C 16.046875 -2.21875 16.28125 -2.453125 16.28125 -2.921875 L 16.28125 -6.703125 C 16.28125 -7.171875 16.515625 -7.40625 16.984375 -7.40625 L 22.984375 -7.40625 C 23.453125 -7.40625 23.6875 -7.171875 23.6875 -6.703125 L 23.6875 -2.921875 C 23.6875 -2.453125 23.453125 -2.21875 22.984375 -2.21875 L 21.046875 -2.21875 C 20.578125 -2.21875 20.34375 -1.984375 20.34375 -1.515625 L 20.34375 -0.703125 C 20.34375 -0.234375 20.109375 0 19.640625 0 L 7 0 C 6.53125 0 6.296875 -0.234375 6.296875 -0.703125 Z M 6.296875 -0.703125 "/></g></g></g><g fill="#000000" fill-opacity="0.5608"><g transform="translate(85.827516, 198.543836)"><g><path d="M 2.59375 -0.703125 L 2.59375 -25.203125 C 2.59375 -25.671875 2.828125 -25.90625 3.296875 -25.90625 L 11.875 -25.90625 C 12.34375 -25.90625 12.578125 -25.671875 12.578125 -25.203125 L 12.578125 -0.703125 C 12.578125 -0.234375 12.34375 0 11.875 0 L 3.296875 0 C 2.828125 0 2.59375 -0.234375 2.59375 -0.703125 Z M 3.703125 -28.828125 L 3.703125 -28.890625 C 3.703125 -29.359375 3.441406 -29.59375 2.921875 -29.59375 C 2.453125 -29.59375 2.21875 -29.828125 2.21875 -30.296875 L 2.21875 -33.703125 C 2.21875 -34.171875 2.476562 -34.40625 3 -34.40625 C 3.46875 -34.40625 3.703125 -34.664062 3.703125 -35.1875 C 3.703125 -35.65625 3.9375 -35.890625 4.40625 -35.890625 L 10.765625 -35.890625 C 11.234375 -35.890625 11.46875 -35.628906 11.46875 -35.109375 C 11.46875 -34.640625 11.726562 -34.40625 12.25 -34.40625 C 12.71875 -34.40625 12.953125 -34.171875 12.953125 -33.703125 L 12.953125 -30.296875 C 12.953125 -29.828125 12.691406 -29.59375 12.171875 -29.59375 C 11.703125 -29.59375 11.46875 -29.335938 11.46875 -28.828125 C 11.46875 -28.359375 11.234375 -28.125 10.765625 -28.125 L 4.40625 -28.125 C 3.9375 -28.125 3.703125 -28.359375 3.703125 -28.828125 Z M 3.703125 -28.828125 "/></g></g></g><g fill="#000000" fill-opacity="0.5608"><g transform="translate(100.995904, 198.543836)"><g><path d="M 2.59375 -0.703125 L 2.59375 -35.03125 C 2.59375 -35.5 2.828125 -35.734375 3.296875 -35.734375 L 11.875 -35.734375 C 12.34375 -35.734375 12.578125 -35.5 12.578125 -35.03125 L 12.578125 -0.703125 C 12.578125 -0.234375 12.34375 0 11.875 0 L 3.296875 0 C 2.828125 0 2.59375 -0.234375 2.59375 -0.703125 Z M 2.59375 -0.703125 "/></g></g></g><g fill="#000000" fill-opacity="0.5608"><g transform="translate(116.164291, 198.543836)"><g><path d="M 2.59375 -0.703125 L 2.59375 -35.03125 C 2.59375 -35.5 2.828125 -35.734375 3.296875 -35.734375 L 11.875 -35.734375 C 12.34375 -35.734375 12.578125 -35.5 12.578125 -35.03125 L 12.578125 -0.703125 C 12.578125 -0.234375 12.34375 0 11.875 0 L 3.296875 0 C 2.828125 0 2.59375 -0.234375 2.59375 -0.703125 Z M 2.59375 -0.703125 "/></g></g></g><g fill="#000000" fill-opacity="0.5608"><g transform="translate(131.332678, 198.543836)"><g/></g></g><g fill="#000000" fill-opacity="0.5608"><g transform="translate(140.581689, 198.543836)"><g><path d="M 7.03125 -0.703125 L 7.03125 -1.515625 C 7.03125 -1.984375 6.796875 -2.21875 6.328125 -2.21875 L 5.515625 -2.21875 C 5.046875 -2.21875 4.8125 -2.453125 4.8125 -2.921875 L 4.8125 -3.734375 C 4.8125 -4.203125 4.578125 -4.4375 4.109375 -4.4375 L 3.296875 -4.4375 C 2.828125 -4.4375 2.59375 -4.671875 2.59375 -5.140625 L 2.59375 -20.75 C 2.59375 -21.21875 2.828125 -21.453125 3.296875 -21.453125 L 4.109375 -21.453125 C 4.578125 -21.453125 4.8125 -21.6875 4.8125 -22.15625 L 4.8125 -22.984375 C 4.8125 -23.453125 5.046875 -23.6875 5.515625 -23.6875 L 6.328125 -23.6875 C 6.796875 -23.6875 7.03125 -23.921875 7.03125 -24.390625 L 7.03125 -25.203125 C 7.03125 -25.671875 7.265625 -25.90625 7.734375 -25.90625 L 21.859375 -25.90625 C 22.328125 -25.90625 22.5625 -25.671875 22.5625 -25.203125 L 22.5625 -24.390625 C 22.5625 -23.921875 22.796875 -23.6875 23.265625 -23.6875 L 24.09375 -23.6875 C 24.5625 -23.6875 24.796875 -23.453125 24.796875 -22.984375 L 24.796875 -22.15625 C 24.796875 -21.6875 25.03125 -21.453125 25.5 -21.453125 L 26.3125 -21.453125 C 26.78125 -21.453125 27.015625 -21.21875 27.015625 -20.75 L 27.015625 -16.6875 C 27.015625 -16.21875 26.78125 -15.984375 26.3125 -15.984375 L 17.71875 -15.984375 C 17.25 -15.984375 17.015625 -16.21875 17.015625 -16.6875 L 17.015625 -22.984375 C 17.015625 -23.453125 16.78125 -23.6875 16.3125 -23.6875 L 15.5 -23.6875 C 15.03125 -23.6875 14.796875 -23.453125 14.796875 -22.984375 L 14.796875 -22.15625 C 14.796875 -21.6875 14.5625 -21.453125 14.09375 -21.453125 L 13.28125 -21.453125 C 12.8125 -21.453125 12.578125 -21.21875 12.578125 -20.75 L 12.578125 -2.921875 C 12.578125 -2.453125 12.8125 -2.21875 13.28125 -2.21875 L 14.09375 -2.21875 C 14.5625 -2.21875 14.796875 -2.453125 14.796875 -2.921875 L 14.796875 -3.734375 C 14.796875 -4.203125 15.03125 -4.4375 15.5 -4.4375 L 16.3125 -4.4375 C 16.78125 -4.4375 17.015625 -4.671875 17.015625 -5.140625 L 17.015625 -8.171875 C 17.015625 -8.640625 17.25 -8.875 17.71875 -8.875 L 26.3125 -8.875 C 26.78125 -8.875 27.015625 -8.640625 27.015625 -8.171875 L 27.015625 -5.140625 C 27.015625 -4.671875 26.78125 -4.4375 26.3125 -4.4375 L 25.5 -4.4375 C 25.03125 -4.4375 24.796875 -4.203125 24.796875 -3.734375 L 24.796875 -2.921875 C 24.796875 -2.453125 24.5625 -2.21875 24.09375 -2.21875 L 23.265625 -2.21875 C 22.796875 -2.21875 22.5625 -1.984375 22.5625 -1.515625 L 22.5625 -0.703125 C 22.5625 -0.234375 22.328125 0 21.859375 0 L 7.734375 0 C 7.265625 0 7.03125 -0.234375 7.03125 -0.703125 Z M 7.03125 -0.703125 "/></g></g></g><g fill="#000000" fill-opacity="0.5608"><g transform="translate(169.438617, 198.543836)"><g><path d="M 15.578125 -11.796875 L 12.546875 -11.796875 C 12.078125 -11.796875 11.84375 -11.5625 11.84375 -11.09375 L 11.84375 -2.921875 C 11.84375 -2.453125 12.078125 -2.21875 12.546875 -2.21875 L 13.359375 -2.21875 C 13.828125 -2.21875 14.0625 -2.453125 14.0625 -2.921875 L 14.0625 -3.734375 C 14.0625 -4.203125 14.296875 -4.4375 14.765625 -4.4375 L 15.578125 -4.4375 C 16.046875 -4.4375 16.28125 -4.671875 16.28125 -5.140625 L 16.28125 -11.09375 C 16.28125 -11.5625 16.046875 -11.796875 15.578125 -11.796875 Z M 4.0625 -0.703125 L 4.0625 -1.515625 C 4.0625 -1.984375 3.828125 -2.21875 3.359375 -2.21875 L 2.546875 -2.21875 C 2.078125 -2.21875 1.84375 -2.453125 1.84375 -2.921875 L 1.84375 -11.09375 C 1.84375 -11.5625 2.078125 -11.796875 2.546875 -11.796875 L 3.359375 -11.796875 C 3.828125 -11.796875 4.0625 -12.03125 4.0625 -12.5 L 4.0625 -13.3125 C 4.0625 -13.78125 4.296875 -14.015625 4.765625 -14.015625 L 13.359375 -14.015625 C 13.828125 -14.015625 14.0625 -14.25 14.0625 -14.71875 L 14.0625 -15.546875 C 14.0625 -16.015625 14.296875 -16.25 14.765625 -16.25 L 16.6875 -16.25 C 17.15625 -16.25 17.390625 -16.484375 17.390625 -16.953125 L 17.390625 -22.984375 C 17.390625 -23.453125 17.15625 -23.6875 16.6875 -23.6875 L 14.765625 -23.6875 C 14.296875 -23.6875 14.0625 -23.453125 14.0625 -22.984375 L 14.0625 -19.9375 C 14.0625 -19.46875 13.828125 -19.234375 13.359375 -19.234375 L 12.546875 -19.234375 C 12.078125 -19.234375 11.84375 -19 11.84375 -18.53125 L 11.84375 -16.609375 C 11.84375 -16.140625 11.609375 -15.90625 11.140625 -15.90625 L 3.65625 -15.90625 C 3.1875 -15.90625 2.953125 -16.140625 2.953125 -16.609375 L 2.953125 -22.984375 C 2.953125 -23.453125 3.1875 -23.6875 3.65625 -23.6875 L 5.03125 -23.6875 C 5.5 -23.6875 5.734375 -23.921875 5.734375 -24.390625 L 5.734375 -25.203125 C 5.734375 -25.671875 5.96875 -25.90625 6.4375 -25.90625 L 23.34375 -25.90625 C 23.8125 -25.90625 24.046875 -25.671875 24.046875 -25.203125 L 24.046875 -24.390625 C 24.046875 -23.921875 24.28125 -23.6875 24.75 -23.6875 L 25.5625 -23.6875 C 26.03125 -23.6875 26.265625 -23.453125 26.265625 -22.984375 L 26.265625 -0.703125 C 26.265625 -0.234375 26.03125 0 25.5625 0 L 19.203125 0 C 18.734375 0 18.5 -0.234375 18.5 -0.703125 L 18.5 -1.515625 C 18.5 -1.984375 18.265625 -2.21875 17.796875 -2.21875 L 16.984375 -2.21875 C 16.515625 -2.21875 16.28125 -1.984375 16.28125 -1.515625 L 16.28125 -0.703125 C 16.28125 -0.234375 16.046875 0 15.578125 0 L 4.765625 0 C 4.296875 0 4.0625 -0.234375 4.0625 -0.703125 Z M 4.0625 -0.703125 "/></g></g></g><g fill="#000000" fill-opacity="0.5608"><g transform="translate(198.295544, 198.543836)"><g><path d="M 2.59375 -0.703125 L 2.59375 -25.203125 C 2.59375 -25.671875 2.828125 -25.90625 3.296875 -25.90625 L 8.546875 -25.90625 C 9.015625 -25.90625 9.25 -25.671875 9.25 -25.203125 L 9.25 -22.15625 C 9.25 -21.6875 9.484375 -21.453125 9.953125 -21.453125 L 10.765625 -21.453125 C 11.234375 -21.453125 11.46875 -21.6875 11.46875 -22.15625 L 11.46875 -22.984375 C 11.46875 -23.453125 11.703125 -23.6875 12.171875 -23.6875 L 12.984375 -23.6875 C 13.453125 -23.6875 13.6875 -23.921875 13.6875 -24.390625 L 13.6875 -25.203125 C 13.6875 -25.671875 13.921875 -25.90625 14.390625 -25.90625 L 24.09375 -25.90625 C 24.5625 -25.90625 24.796875 -25.671875 24.796875 -25.203125 L 24.796875 -24.390625 C 24.796875 -23.921875 25.03125 -23.6875 25.5 -23.6875 L 26.3125 -23.6875 C 26.507812 -23.6875 26.609375 -23.6875 26.609375 -23.6875 C 26.609375 -23.6875 26.507812 -23.6875 26.3125 -23.6875 L 25.5 -23.6875 C 25.300781 -23.6875 25.203125 -23.6875 25.203125 -23.6875 C 25.203125 -23.6875 25.300781 -23.6875 25.5 -23.6875 L 26.3125 -23.6875 C 26.78125 -23.6875 27.015625 -23.453125 27.015625 -22.984375 L 27.015625 -0.703125 C 27.015625 -0.234375 26.78125 0 26.3125 0 L 17.71875 0 C 17.25 0 17.015625 -0.234375 17.015625 -0.703125 L 17.015625 -22.984375 C 17.015625 -23.453125 16.78125 -23.6875 16.3125 -23.6875 L 15.5 -23.6875 C 15.03125 -23.6875 14.796875 -23.453125 14.796875 -22.984375 L 14.796875 -22.15625 C 14.796875 -21.6875 14.5625 -21.453125 14.09375 -21.453125 L 13.28125 -21.453125 C 12.8125 -21.453125 12.578125 -21.21875 12.578125 -20.75 L 12.578125 -0.703125 C 12.578125 -0.234375 12.34375 0 11.875 0 L 3.296875 0 C 2.828125 0 2.59375 -0.234375 2.59375 -0.703125 Z M 2.59375 -0.703125 "/></g></g></g><g fill="#000000" fill-opacity="0.5608"><g transform="translate(227.892401, 198.543836)"><g><path d="M 4.0625 -25.375 L 4.0625 -25.453125 C 4.0625 -25.898438 3.84375 -26.125 3.40625 -26.125 C 2.863281 -26.125 2.59375 -26.394531 2.59375 -26.9375 L 2.59375 -32.34375 C 2.59375 -32.882812 2.863281 -33.15625 3.40625 -33.15625 C 3.84375 -33.15625 4.0625 -33.375 4.0625 -33.8125 L 4.0625 -33.890625 C 4.0625 -34.378906 4.3125 -34.625 4.8125 -34.625 L 10.28125 -34.625 C 10.820312 -34.625 11.09375 -34.351562 11.09375 -33.8125 C 11.09375 -33.375 11.316406 -33.15625 11.765625 -33.15625 L 11.84375 -33.15625 C 12.332031 -33.15625 12.578125 -32.90625 12.578125 -32.40625 L 12.578125 -20.015625 C 12.578125 -19.398438 12.269531 -19.09375 11.65625 -19.09375 L 10.171875 -19.09375 C 9.554688 -19.09375 9.25 -19.398438 9.25 -20.015625 L 9.25 -23.71875 C 9.25 -24.332031 8.941406 -24.640625 8.328125 -24.640625 L 4.8125 -24.640625 C 4.3125 -24.640625 4.0625 -24.882812 4.0625 -25.375 Z M 4.0625 -25.375 "/></g></g></g><g fill="#000000" fill-opacity="0.5608"><g transform="translate(243.060788, 198.543836)"><g><path d="M 6.296875 -0.703125 L 6.296875 -1.515625 C 6.296875 -1.984375 6.0625 -2.21875 5.59375 -2.21875 L 4.765625 -2.21875 C 4.296875 -2.21875 4.0625 -2.453125 4.0625 -2.921875 L 4.0625 -23.015625 C 4.0625 -23.484375 3.828125 -23.71875 3.359375 -23.71875 L 2.1875 -23.71875 C 1.71875 -23.71875 1.484375 -23.953125 1.484375 -24.421875 L 1.484375 -25.203125 C 1.484375 -25.671875 1.71875 -25.90625 2.1875 -25.90625 L 3.359375 -25.90625 C 3.828125 -25.90625 4.0625 -26.140625 4.0625 -26.609375 L 4.0625 -31.75 C 4.0625 -32.21875 4.296875 -32.453125 4.765625 -32.453125 L 13.359375 -32.453125 C 13.828125 -32.453125 14.0625 -32.21875 14.0625 -31.75 L 14.0625 -26.609375 C 14.0625 -26.140625 14.296875 -25.90625 14.765625 -25.90625 L 18.5 -25.90625 C 18.96875 -25.90625 19.203125 -25.671875 19.203125 -25.203125 L 19.203125 -24.421875 C 19.203125 -23.953125 18.96875 -23.71875 18.5 -23.71875 L 14.765625 -23.71875 C 14.296875 -23.71875 14.0625 -23.484375 14.0625 -23.015625 L 14.0625 -2.921875 C 14.0625 -2.453125 14.296875 -2.21875 14.765625 -2.21875 L 15.578125 -2.21875 C 16.046875 -2.21875 16.28125 -2.453125 16.28125 -2.921875 L 16.28125 -6.703125 C 16.28125 -7.171875 16.515625 -7.40625 16.984375 -7.40625 L 22.984375 -7.40625 C 23.453125 -7.40625 23.6875 -7.171875 23.6875 -6.703125 L 23.6875 -2.921875 C 23.6875 -2.453125 23.453125 -2.21875 22.984375 -2.21875 L 21.046875 -2.21875 C 20.578125 -2.21875 20.34375 -1.984375 20.34375 -1.515625 L 20.34375 -0.703125 C 20.34375 -0.234375 20.109375 0 19.640625 0 L 7 0 C 6.53125 0 6.296875 -0.234375 6.296875 -0.703125 Z M 6.296875 -0.703125 "/></g></g></g><g fill="#000000" fill-opacity="0.5608"><g transform="translate(267.108233, 198.543836)"><g/></g></g><g fill="#000000" fill-opacity="0.5608"><g transform="translate(276.357256, 198.543836)"><g><path d="M 4.25 -0.703125 L 4.25 -23.015625 C 4.25 -23.484375 4.015625 -23.71875 3.546875 -23.71875 L 2.375 -23.71875 C 1.90625 -23.71875 1.671875 -23.953125 1.671875 -24.421875 L 1.671875 -25.203125 C 1.671875 -25.671875 1.90625 -25.90625 2.375 -25.90625 L 3.546875 -25.90625 C 4.015625 -25.90625 4.25 -26.140625 4.25 -26.609375 L 4.25 -32.8125 C 4.25 -33.28125 4.484375 -33.515625 4.953125 -33.515625 L 5.765625 -33.515625 C 6.234375 -33.515625 6.46875 -33.75 6.46875 -34.21875 L 6.46875 -35.03125 C 6.46875 -35.5 6.703125 -35.734375 7.171875 -35.734375 L 19.828125 -35.734375 C 20.296875 -35.734375 20.53125 -35.5 20.53125 -35.03125 L 20.53125 -34.21875 C 20.53125 -33.75 20.765625 -33.515625 21.234375 -33.515625 L 23.15625 -33.515625 C 23.625 -33.515625 23.859375 -33.28125 23.859375 -32.8125 L 23.859375 -29.046875 C 23.859375 -28.578125 23.625 -28.34375 23.15625 -28.34375 L 17.171875 -28.34375 C 16.703125 -28.34375 16.46875 -28.578125 16.46875 -29.046875 L 16.46875 -32.8125 C 16.46875 -33.28125 16.234375 -33.515625 15.765625 -33.515625 L 14.953125 -33.515625 C 14.484375 -33.515625 14.25 -33.28125 14.25 -32.8125 L 14.25 -26.609375 C 14.25 -26.140625 14.484375 -25.90625 14.953125 -25.90625 L 18.6875 -25.90625 C 19.15625 -25.90625 19.390625 -25.671875 19.390625 -25.203125 L 19.390625 -24.421875 C 19.390625 -23.953125 19.15625 -23.71875 18.6875 -23.71875 L 14.953125 -23.71875 C 14.484375 -23.71875 14.25 -23.484375 14.25 -23.015625 L 14.25 -0.703125 C 14.25 -0.234375 14.015625 0 13.546875 0 L 4.953125 0 C 4.484375 0 4.25 -0.234375 4.25 -0.703125 Z M 4.25 -0.703125 "/></g></g></g><g fill="#000000" fill-opacity="0.5608"><g transform="translate(300.959626, 198.543836)"><g><path d="M 2.59375 -0.703125 L 2.59375 -25.203125 C 2.59375 -25.671875 2.828125 -25.90625 3.296875 -25.90625 L 11.875 -25.90625 C 12.34375 -25.90625 12.578125 -25.671875 12.578125 -25.203125 L 12.578125 -0.703125 C 12.578125 -0.234375 12.34375 0 11.875 0 L 3.296875 0 C 2.828125 0 2.59375 -0.234375 2.59375 -0.703125 Z M 3.703125 -28.828125 L 3.703125 -28.890625 C 3.703125 -29.359375 3.441406 -29.59375 2.921875 -29.59375 C 2.453125 -29.59375 2.21875 -29.828125 2.21875 -30.296875 L 2.21875 -33.703125 C 2.21875 -34.171875 2.476562 -34.40625 3 -34.40625 C 3.46875 -34.40625 3.703125 -34.664062 3.703125 -35.1875 C 3.703125 -35.65625 3.9375 -35.890625 4.40625 -35.890625 L 10.765625 -35.890625 C 11.234375 -35.890625 11.46875 -35.628906 11.46875 -35.109375 C 11.46875 -34.640625 11.726562 -34.40625 12.25 -34.40625 C 12.71875 -34.40625 12.953125 -34.171875 12.953125 -33.703125 L 12.953125 -30.296875 C 12.953125 -29.828125 12.691406 -29.59375 12.171875 -29.59375 C 11.703125 -29.59375 11.46875 -29.335938 11.46875 -28.828125 C 11.46875 -28.359375 11.234375 -28.125 10.765625 -28.125 L 4.40625 -28.125 C 3.9375 -28.125 3.703125 -28.359375 3.703125 -28.828125 Z M 3.703125 -28.828125 "/></g></g></g><g fill="#000000" fill-opacity="0.5608"><g transform="translate(316.128013, 198.543836)"><g><path d="M 2.59375 -0.703125 L 2.59375 -25.203125 C 2.59375 -25.671875 2.828125 -25.90625 3.296875 -25.90625 L 8.546875 -25.90625 C 9.015625 -25.90625 9.25 -25.671875 9.25 -25.203125 L 9.25 -22.15625 C 9.25 -21.6875 9.484375 -21.453125 9.953125 -21.453125 L 10.765625 -21.453125 C 11.234375 -21.453125 11.46875 -21.6875 11.46875 -22.15625 L 11.46875 -22.984375 C 11.46875 -23.453125 11.703125 -23.6875 12.171875 -23.6875 L 12.984375 -23.6875 C 13.453125 -23.6875 13.6875 -23.921875 13.6875 -24.390625 L 13.6875 -25.203125 C 13.6875 -25.671875 13.921875 -25.90625 14.390625 -25.90625 L 24.09375 -25.90625 C 24.5625 -25.90625 24.796875 -25.671875 24.796875 -25.203125 L 24.796875 -24.390625 C 24.796875 -23.921875 25.03125 -23.6875 25.5 -23.6875 L 26.3125 -23.6875 C 26.507812 -23.6875 26.609375 -23.6875 26.609375 -23.6875 C 26.609375 -23.6875 26.507812 -23.6875 26.3125 -23.6875 L 25.5 -23.6875 C 25.300781 -23.6875 25.203125 -23.6875 25.203125 -23.6875 C 25.203125 -23.6875 25.300781 -23.6875 25.5 -23.6875 L 26.3125 -23.6875 C 26.78125 -23.6875 27.015625 -23.453125 27.015625 -22.984375 L 27.015625 -0.703125 C 27.015625 -0.234375 26.78125 0 26.3125 0 L 17.71875 0 C 17.25 0 17.015625 -0.234375 17.015625 -0.703125 L 17.015625 -22.984375 C 17.015625 -23.453125 16.78125 -23.6875 16.3125 -23.6875 L 15.5 -23.6875 C 15.03125 -23.6875 14.796875 -23.453125 14.796875 -22.984375 L 14.796875 -22.15625 C 14.796875 -21.6875 14.5625 -21.453125 14.09375 -21.453125 L 13.28125 -21.453125 C 12.8125 -21.453125 12.578125 -21.21875 12.578125 -20.75 L 12.578125 -0.703125 C 12.578125 -0.234375 12.34375 0 11.875 0 L 3.296875 0 C 2.828125 0 2.59375 -0.234375 2.59375 -0.703125 Z M 2.59375 -0.703125 "/></g></g></g><g fill="#000000" fill-opacity="0.5608"><g transform="translate(345.724881, 198.543836)"><g><path d="M 14.09375 -21.421875 L 13.28125 -21.421875 C 12.8125 -21.421875 12.578125 -21.1875 12.578125 -20.71875 L 12.578125 -2.890625 C 12.578125 -2.421875 12.8125 -2.1875 13.28125 -2.1875 L 14.09375 -2.1875 C 14.5625 -2.1875 14.796875 -2.421875 14.796875 -2.890625 L 14.796875 -3.703125 C 14.796875 -4.171875 15.03125 -4.40625 15.5 -4.40625 L 16.3125 -4.40625 C 16.78125 -4.40625 17.015625 -4.640625 17.015625 -5.109375 L 17.015625 -22.9375 C 17.015625 -23.40625 16.78125 -23.640625 16.3125 -23.640625 L 15.5 -23.640625 C 15.03125 -23.640625 14.796875 -23.40625 14.796875 -22.9375 L 14.796875 -22.125 C 14.796875 -21.65625 14.5625 -21.421875 14.09375 -21.421875 Z M 7.03125 -0.671875 L 7.03125 -1.484375 C 7.03125 -1.953125 6.796875 -2.1875 6.328125 -2.1875 L 5.515625 -2.1875 C 5.046875 -2.1875 4.8125 -2.421875 4.8125 -2.890625 L 4.8125 -3.703125 C 4.8125 -4.171875 4.578125 -4.40625 4.109375 -4.40625 L 3.296875 -4.40625 C 2.828125 -4.40625 2.59375 -4.640625 2.59375 -5.109375 L 2.59375 -20.71875 C 2.59375 -21.1875 2.828125 -21.421875 3.296875 -21.421875 L 4.109375 -21.421875 C 4.578125 -21.421875 4.8125 -21.65625 4.8125 -22.125 L 4.8125 -22.9375 C 4.8125 -23.40625 5.046875 -23.640625 5.515625 -23.640625 L 6.328125 -23.640625 C 6.796875 -23.640625 7.03125 -23.875 7.03125 -24.34375 L 7.03125 -25.15625 C 7.03125 -25.625 7.265625 -25.859375 7.734375 -25.859375 L 16.3125 -25.859375 C 16.78125 -25.859375 17.015625 -26.09375 17.015625 -26.5625 L 17.015625 -35.03125 C 17.015625 -35.5 17.25 -35.734375 17.71875 -35.734375 L 26.3125 -35.734375 C 26.78125 -35.734375 27.015625 -35.5 27.015625 -35.03125 L 27.015625 -0.671875 C 27.015625 -0.203125 26.78125 0.03125 26.3125 0.03125 L 7.734375 0.03125 C 7.265625 0.03125 7.03125 -0.203125 7.03125 -0.671875 Z M 7.03125 -0.671875 "/></g></g></g><g fill="#000000" fill-opacity="0.5608"><g transform="translate(375.321726, 198.543836)"><g/></g></g><g fill="#000000" fill-opacity="0.5608"><g transform="translate(384.570749, 198.543836)"><g><path d="M 15.578125 -11.796875 L 12.546875 -11.796875 C 12.078125 -11.796875 11.84375 -11.5625 11.84375 -11.09375 L 11.84375 -2.921875 C 11.84375 -2.453125 12.078125 -2.21875 12.546875 -2.21875 L 13.359375 -2.21875 C 13.828125 -2.21875 14.0625 -2.453125 14.0625 -2.921875 L 14.0625 -3.734375 C 14.0625 -4.203125 14.296875 -4.4375 14.765625 -4.4375 L 15.578125 -4.4375 C 16.046875 -4.4375 16.28125 -4.671875 16.28125 -5.140625 L 16.28125 -11.09375 C 16.28125 -11.5625 16.046875 -11.796875 15.578125 -11.796875 Z M 4.0625 -0.703125 L 4.0625 -1.515625 C 4.0625 -1.984375 3.828125 -2.21875 3.359375 -2.21875 L 2.546875 -2.21875 C 2.078125 -2.21875 1.84375 -2.453125 1.84375 -2.921875 L 1.84375 -11.09375 C 1.84375 -11.5625 2.078125 -11.796875 2.546875 -11.796875 L 3.359375 -11.796875 C 3.828125 -11.796875 4.0625 -12.03125 4.0625 -12.5 L 4.0625 -13.3125 C 4.0625 -13.78125 4.296875 -14.015625 4.765625 -14.015625 L 13.359375 -14.015625 C 13.828125 -14.015625 14.0625 -14.25 14.0625 -14.71875 L 14.0625 -15.546875 C 14.0625 -16.015625 14.296875 -16.25 14.765625 -16.25 L 16.6875 -16.25 C 17.15625 -16.25 17.390625 -16.484375 17.390625 -16.953125 L 17.390625 -22.984375 C 17.390625 -23.453125 17.15625 -23.6875 16.6875 -23.6875 L 14.765625 -23.6875 C 14.296875 -23.6875 14.0625 -23.453125 14.0625 -22.984375 L 14.0625 -19.9375 C 14.0625 -19.46875 13.828125 -19.234375 13.359375 -19.234375 L 12.546875 -19.234375 C 12.078125 -19.234375 11.84375 -19 11.84375 -18.53125 L 11.84375 -16.609375 C 11.84375 -16.140625 11.609375 -15.90625 11.140625 -15.90625 L 3.65625 -15.90625 C 3.1875 -15.90625 2.953125 -16.140625 2.953125 -16.609375 L 2.953125 -22.984375 C 2.953125 -23.453125 3.1875 -23.6875 3.65625 -23.6875 L 5.03125 -23.6875 C 5.5 -23.6875 5.734375 -23.921875 5.734375 -24.390625 L 5.734375 -25.203125 C 5.734375 -25.671875 5.96875 -25.90625 6.4375 -25.90625 L 23.34375 -25.90625 C 23.8125 -25.90625 24.046875 -25.671875 24.046875 -25.203125 L 24.046875 -24.390625 C 24.046875 -23.921875 24.28125 -23.6875 24.75 -23.6875 L 25.5625 -23.6875 C 26.03125 -23.6875 26.265625 -23.453125 26.265625 -22.984375 L 26.265625 -0.703125 C 26.265625 -0.234375 26.03125 0 25.5625 0 L 19.203125 0 C 18.734375 0 18.5 -0.234375 18.5 -0.703125 L 18.5 -1.515625 C 18.5 -1.984375 18.265625 -2.21875 17.796875 -2.21875 L 16.984375 -2.21875 C 16.515625 -2.21875 16.28125 -1.984375 16.28125 -1.515625 L 16.28125 -0.703125 C 16.28125 -0.234375 16.046875 0 15.578125 0 L 4.765625 0 C 4.296875 0 4.0625 -0.234375 4.0625 -0.703125 Z M 4.0625 -0.703125 "/></g></g></g><g fill="#000000" fill-opacity="0.5608"><g transform="translate(413.427665, 198.543836)"><g/></g></g><g fill="#000000" fill-opacity="0.5608"><g transform="translate(422.676688, 198.543836)"><g><path d="M -2.21875 8.546875 L -2.21875 7.734375 C -2.21875 7.265625 -2.453125 7.03125 -2.921875 7.03125 L -4.84375 7.03125 C -5.3125 7.03125 -5.546875 6.796875 -5.546875 6.328125 L -5.546875 2.546875 C -5.546875 2.078125 -5.3125 1.84375 -4.84375 1.84375 L 1.140625 1.84375 C 1.609375 1.84375 1.84375 2.078125 1.84375 2.546875 L 1.84375 6.328125 C 1.84375 6.796875 2.078125 7.03125 2.546875 7.03125 L 3.359375 7.03125 C 3.828125 7.03125 4.0625 6.796875 4.0625 6.328125 L 4.0625 -25.203125 C 4.0625 -25.671875 4.296875 -25.90625 4.765625 -25.90625 L 13.359375 -25.90625 C 13.828125 -25.90625 14.0625 -25.671875 14.0625 -25.203125 L 14.0625 6.328125 C 14.0625 6.796875 13.828125 7.03125 13.359375 7.03125 L 12.546875 7.03125 C 12.078125 7.03125 11.84375 7.265625 11.84375 7.734375 L 11.84375 8.546875 C 11.84375 9.015625 11.609375 9.25 11.140625 9.25 L -1.515625 9.25 C -1.984375 9.25 -2.21875 9.015625 -2.21875 8.546875 Z M 5.1875 -28.828125 L 5.1875 -28.890625 C 5.1875 -29.359375 4.925781 -29.59375 4.40625 -29.59375 C 3.9375 -29.59375 3.703125 -29.828125 3.703125 -30.296875 L 3.703125 -33.703125 C 3.703125 -34.171875 3.960938 -34.40625 4.484375 -34.40625 C 4.953125 -34.40625 5.1875 -34.664062 5.1875 -35.1875 C 5.1875 -35.65625 5.421875 -35.890625 5.890625 -35.890625 L 12.25 -35.890625 C 12.71875 -35.890625 12.953125 -35.628906 12.953125 -35.109375 C 12.953125 -34.640625 13.210938 -34.40625 13.734375 -34.40625 C 14.203125 -34.40625 14.4375 -34.171875 14.4375 -33.703125 L 14.4375 -30.296875 C 14.4375 -29.828125 14.175781 -29.59375 13.65625 -29.59375 C 13.1875 -29.59375 12.953125 -29.335938 12.953125 -28.828125 C 12.953125 -28.359375 12.71875 -28.125 12.25 -28.125 L 5.890625 -28.125 C 5.421875 -28.125 5.1875 -28.359375 5.1875 -28.828125 Z M 5.1875 -28.828125 "/></g></g></g><g fill="#000000" fill-opacity="0.5608"><g transform="translate(440.138814, 198.543836)"><g><path d="M 7.03125 -0.703125 L 7.03125 -1.515625 C 7.03125 -1.984375 6.796875 -2.21875 6.328125 -2.21875 L 5.515625 -2.21875 C 5.046875 -2.21875 4.8125 -2.453125 4.8125 -2.921875 L 4.8125 -3.734375 C 4.8125 -4.203125 4.578125 -4.4375 4.109375 -4.4375 L 3.296875 -4.4375 C 2.828125 -4.4375 2.59375 -4.671875 2.59375 -5.140625 L 2.59375 -20.75 C 2.59375 -21.21875 2.828125 -21.453125 3.296875 -21.453125 L 4.109375 -21.453125 C 4.578125 -21.453125 4.8125 -21.6875 4.8125 -22.15625 L 4.8125 -22.984375 C 4.8125 -23.453125 5.046875 -23.6875 5.515625 -23.6875 L 6.328125 -23.6875 C 6.796875 -23.6875 7.03125 -23.921875 7.03125 -24.390625 L 7.03125 -25.203125 C 7.03125 -25.671875 7.265625 -25.90625 7.734375 -25.90625 L 21.859375 -25.90625 C 22.328125 -25.90625 22.5625 -25.671875 22.5625 -25.203125 L 22.5625 -24.390625 C 22.5625 -23.921875 22.796875 -23.6875 23.265625 -23.6875 L 24.09375 -23.6875 C 24.5625 -23.6875 24.796875 -23.453125 24.796875 -22.984375 L 24.796875 -22.15625 C 24.796875 -21.6875 25.03125 -21.453125 25.5 -21.453125 L 26.3125 -21.453125 C 26.78125 -21.453125 27.015625 -21.21875 27.015625 -20.75 L 27.015625 -5.140625 C 27.015625 -4.671875 26.78125 -4.4375 26.3125 -4.4375 L 25.5 -4.4375 C 25.03125 -4.4375 24.796875 -4.203125 24.796875 -3.734375 L 24.796875 -2.921875 C 24.796875 -2.453125 24.5625 -2.21875 24.09375 -2.21875 L 23.265625 -2.21875 C 22.796875 -2.21875 22.5625 -1.984375 22.5625 -1.515625 L 22.5625 -0.703125 C 22.5625 -0.234375 22.328125 0 21.859375 0 L 7.734375 0 C 7.265625 0 7.03125 -0.234375 7.03125 -0.703125 Z M 15.5 -4.4375 L 16.3125 -4.4375 C 16.78125 -4.4375 17.015625 -4.671875 17.015625 -5.140625 L 17.015625 -22.984375 C 17.015625 -23.453125 16.78125 -23.6875 16.3125 -23.6875 L 15.5 -23.6875 C 15.03125 -23.6875 14.796875 -23.453125 14.796875 -22.984375 L 14.796875 -22.15625 C 14.796875 -21.6875 14.5625 -21.453125 14.09375 -21.453125 L 13.28125 -21.453125 C 12.8125 -21.453125 12.578125 -21.21875 12.578125 -20.75 L 12.578125 -2.921875 C 12.578125 -2.453125 12.8125 -2.21875 13.28125 -2.21875 L 14.09375 -2.21875 C 14.5625 -2.21875 14.796875 -2.453125 14.796875 -2.921875 L 14.796875 -3.734375 C 14.796875 -4.203125 15.03125 -4.4375 15.5 -4.4375 Z M 15.5 -4.4375 "/></g></g></g><g fill="#000000" fill-opacity="0.5608"><g transform="translate(469.735659, 198.543836)"><g><path d="M 14.09375 -21.453125 L 13.28125 -21.453125 C 12.8125 -21.453125 12.578125 -21.21875 12.578125 -20.75 L 12.578125 -2.921875 C 12.578125 -2.453125 12.8125 -2.21875 13.28125 -2.21875 L 14.09375 -2.21875 C 14.5625 -2.21875 14.796875 -2.453125 14.796875 -2.921875 L 14.796875 -3.734375 C 14.796875 -4.203125 15.03125 -4.4375 15.5 -4.4375 L 16.3125 -4.4375 C 16.78125 -4.4375 17.015625 -4.671875 17.015625 -5.140625 L 17.015625 -22.984375 C 17.015625 -23.453125 16.78125 -23.6875 16.3125 -23.6875 L 15.5 -23.6875 C 15.03125 -23.6875 14.796875 -23.453125 14.796875 -22.984375 L 14.796875 -22.15625 C 14.796875 -21.6875 14.5625 -21.453125 14.09375 -21.453125 Z M 2.59375 -0.703125 L 2.59375 -34.453125 C 2.59375 -34.921875 2.828125 -35.15625 3.296875 -35.15625 L 11.875 -35.15625 C 12.34375 -35.15625 12.578125 -34.921875 12.578125 -34.453125 L 12.578125 -26.609375 C 12.578125 -26.140625 12.8125 -25.90625 13.28125 -25.90625 L 21.859375 -25.90625 C 22.328125 -25.90625 22.5625 -25.671875 22.5625 -25.203125 L 22.5625 -24.390625 C 22.5625 -23.921875 22.796875 -23.6875 23.265625 -23.6875 L 24.09375 -23.6875 C 24.5625 -23.6875 24.796875 -23.453125 24.796875 -22.984375 L 24.796875 -22.15625 C 24.796875 -21.6875 25.03125 -21.453125 25.5 -21.453125 L 26.3125 -21.453125 C 26.78125 -21.453125 27.015625 -21.21875 27.015625 -20.75 L 27.015625 -2.953125 C 27.015625 -2.484375 26.78125 -2.25 26.3125 -2.25 L 25.5 -2.25 C 25.03125 -2.25 24.796875 -2.015625 24.796875 -1.546875 L 24.796875 -0.703125 C 24.796875 -0.234375 24.5625 0 24.09375 0 L 3.296875 0 C 2.828125 0 2.59375 -0.234375 2.59375 -0.703125 Z M 2.59375 -0.703125 "/></g></g></g><g fill="#ffec45" fill-opacity="1"><g transform="translate(6.585946, 196.874984)"><g><path d="M 2.59375 -0.703125 L 2.59375 -25.203125 C 2.59375 -25.671875 2.828125 -25.90625 3.296875 -25.90625 L 11.875 -25.90625 C 12.34375 -25.90625 12.578125 -25.671875 12.578125 -25.203125 L 12.578125 -0.703125 C 12.578125 -0.234375 12.34375 0 11.875 0 L 3.296875 0 C 2.828125 0 2.59375 -0.234375 2.59375 -0.703125 Z M 3.703125 -28.828125 L 3.703125 -28.890625 C 3.703125 -29.359375 3.441406 -29.59375 2.921875 -29.59375 C 2.453125 -29.59375 2.21875 -29.828125 2.21875 -30.296875 L 2.21875 -33.703125 C 2.21875 -34.171875 2.476562 -34.40625 3 -34.40625 C 3.46875 -34.40625 3.703125 -34.664062 3.703125 -35.1875 C 3.703125 -35.65625 3.9375 -35.890625 4.40625 -35.890625 L 10.765625 -35.890625 C 11.234375 -35.890625 11.46875 -35.628906 11.46875 -35.109375 C 11.46875 -34.640625 11.726562 -34.40625 12.25 -34.40625 C 12.71875 -34.40625 12.953125 -34.171875 12.953125 -33.703125 L 12.953125 -30.296875 C 12.953125 -29.828125 12.691406 -29.59375 12.171875 -29.59375 C 11.703125 -29.59375 11.46875 -29.335938 11.46875 -28.828125 C 11.46875 -28.359375 11.234375 -28.125 10.765625 -28.125 L 4.40625 -28.125 C 3.9375 -28.125 3.703125 -28.359375 3.703125 -28.828125 Z M 3.703125 -28.828125 "/></g></g></g><g fill="#ffec45" fill-opacity="1"><g transform="translate(21.754334, 196.874984)"><g/></g></g><g fill="#ffec45" fill-opacity="1"><g transform="translate(31.003345, 196.874984)"><g><path d="M 4.4375 -0.703125 L 4.4375 -1.515625 C 4.4375 -1.984375 4.203125 -2.21875 3.734375 -2.21875 L 2.921875 -2.21875 C 2.453125 -2.21875 2.21875 -2.453125 2.21875 -2.921875 L 2.21875 -9.28125 C 2.21875 -9.75 2.453125 -9.984375 2.921875 -9.984375 L 11.5 -9.984375 C 11.96875 -9.984375 12.203125 -9.75 12.203125 -9.28125 L 12.203125 -2.921875 C 12.203125 -2.453125 12.4375 -2.21875 12.90625 -2.21875 L 13.734375 -2.21875 C 14.203125 -2.21875 14.4375 -2.453125 14.4375 -2.921875 L 14.4375 -3.734375 C 14.4375 -4.203125 14.671875 -4.4375 15.140625 -4.4375 L 15.984375 -4.4375 C 16.453125 -4.4375 16.6875 -4.671875 16.6875 -5.140625 L 16.6875 -8.84375 C 16.6875 -9.3125 16.453125 -9.546875 15.984375 -9.546875 L 15.171875 -9.546875 C 14.703125 -9.546875 14.46875 -9.78125 14.46875 -10.25 L 14.46875 -11.0625 C 14.46875 -11.53125 14.234375 -11.765625 13.765625 -11.765625 L 5.140625 -11.765625 C 4.671875 -11.765625 4.4375 -12 4.4375 -12.46875 L 4.4375 -13.28125 C 4.4375 -13.75 4.203125 -13.984375 3.734375 -13.984375 L 2.921875 -13.984375 C 2.453125 -13.984375 2.21875 -14.21875 2.21875 -14.6875 L 2.21875 -22.984375 C 2.21875 -23.453125 2.453125 -23.6875 2.921875 -23.6875 L 3.484375 -23.6875 C 3.953125 -23.6875 4.1875 -23.921875 4.1875 -24.390625 L 4.1875 -25.203125 C 4.1875 -25.671875 4.421875 -25.90625 4.890625 -25.90625 L 23.34375 -25.90625 C 23.8125 -25.90625 24.046875 -25.671875 24.046875 -25.203125 L 24.046875 -24.390625 C 24.046875 -23.921875 24.28125 -23.6875 24.75 -23.6875 L 25.5625 -23.6875 C 26.03125 -23.6875 26.265625 -23.453125 26.265625 -22.984375 L 26.265625 -16.609375 C 26.265625 -16.140625 26.03125 -15.90625 25.5625 -15.90625 L 19.578125 -15.90625 C 19.109375 -15.90625 18.875 -16.140625 18.875 -16.609375 L 18.875 -17.421875 C 18.875 -17.890625 18.640625 -18.125 18.171875 -18.125 L 17.359375 -18.125 C 16.890625 -18.125 16.65625 -18.359375 16.65625 -18.828125 L 16.65625 -22.984375 C 16.65625 -23.453125 16.421875 -23.6875 15.953125 -23.6875 L 15.140625 -23.6875 C 14.671875 -23.6875 14.4375 -23.453125 14.4375 -22.984375 L 14.4375 -22.15625 C 14.4375 -21.6875 14.203125 -21.453125 13.734375 -21.453125 L 12.90625 -21.453125 C 12.4375 -21.453125 12.203125 -21.21875 12.203125 -20.75 L 12.203125 -16.90625 C 12.203125 -16.4375 12.4375 -16.203125 12.90625 -16.203125 L 13.734375 -16.203125 C 14.203125 -16.203125 14.4375 -15.96875 14.4375 -15.5 L 14.4375 -14.6875 C 14.4375 -14.21875 14.671875 -13.984375 15.140625 -13.984375 L 23.390625 -13.984375 C 23.859375 -13.984375 24.09375 -13.75 24.09375 -13.28125 L 24.09375 -12.46875 C 24.09375 -12 24.328125 -11.765625 24.796875 -11.765625 L 25.609375 -11.765625 C 26.078125 -11.765625 26.3125 -11.53125 26.3125 -11.0625 L 26.3125 -2.921875 C 26.3125 -2.453125 26.078125 -2.21875 25.609375 -2.21875 L 24.796875 -2.21875 C 24.328125 -2.21875 24.09375 -1.984375 24.09375 -1.515625 L 24.09375 -0.703125 C 24.09375 -0.234375 23.859375 0 23.390625 0 L 5.140625 0 C 4.671875 0 4.4375 -0.234375 4.4375 -0.703125 Z M 4.4375 -0.703125 "/></g></g></g><g fill="#ffec45" fill-opacity="1"><g transform="translate(59.860272, 196.874984)"><g><path d="M 6.296875 -0.703125 L 6.296875 -1.515625 C 6.296875 -1.984375 6.0625 -2.21875 5.59375 -2.21875 L 4.765625 -2.21875 C 4.296875 -2.21875 4.0625 -2.453125 4.0625 -2.921875 L 4.0625 -23.015625 C 4.0625 -23.484375 3.828125 -23.71875 3.359375 -23.71875 L 2.1875 -23.71875 C 1.71875 -23.71875 1.484375 -23.953125 1.484375 -24.421875 L 1.484375 -25.203125 C 1.484375 -25.671875 1.71875 -25.90625 2.1875 -25.90625 L 3.359375 -25.90625 C 3.828125 -25.90625 4.0625 -26.140625 4.0625 -26.609375 L 4.0625 -31.75 C 4.0625 -32.21875 4.296875 -32.453125 4.765625 -32.453125 L 13.359375 -32.453125 C 13.828125 -32.453125 14.0625 -32.21875 14.0625 -31.75 L 14.0625 -26.609375 C 14.0625 -26.140625 14.296875 -25.90625 14.765625 -25.90625 L 18.5 -25.90625 C 18.96875 -25.90625 19.203125 -25.671875 19.203125 -25.203125 L 19.203125 -24.421875 C 19.203125 -23.953125 18.96875 -23.71875 18.5 -23.71875 L 14.765625 -23.71875 C 14.296875 -23.71875 14.0625 -23.484375 14.0625 -23.015625 L 14.0625 -2.921875 C 14.0625 -2.453125 14.296875 -2.21875 14.765625 -2.21875 L 15.578125 -2.21875 C 16.046875 -2.21875 16.28125 -2.453125 16.28125 -2.921875 L 16.28125 -6.703125 C 16.28125 -7.171875 16.515625 -7.40625 16.984375 -7.40625 L 22.984375 -7.40625 C 23.453125 -7.40625 23.6875 -7.171875 23.6875 -6.703125 L 23.6875 -2.921875 C 23.6875 -2.453125 23.453125 -2.21875 22.984375 -2.21875 L 21.046875 -2.21875 C 20.578125 -2.21875 20.34375 -1.984375 20.34375 -1.515625 L 20.34375 -0.703125 C 20.34375 -0.234375 20.109375 0 19.640625 0 L 7 0 C 6.53125 0 6.296875 -0.234375 6.296875 -0.703125 Z M 6.296875 -0.703125 "/></g></g></g><g fill="#ffec45" fill-opacity="1"><g transform="translate(83.907718, 196.874984)"><g><path d="M 2.59375 -0.703125 L 2.59375 -25.203125 C 2.59375 -25.671875 2.828125 -25.90625 3.296875 -25.90625 L 11.875 -25.90625 C 12.34375 -25.90625 12.578125 -25.671875 12.578125 -25.203125 L 12.578125 -0.703125 C 12.578125 -0.234375 12.34375 0 11.875 0 L 3.296875 0 C 2.828125 0 2.59375 -0.234375 2.59375 -0.703125 Z M 3.703125 -28.828125 L 3.703125 -28.890625 C 3.703125 -29.359375 3.441406 -29.59375 2.921875 -29.59375 C 2.453125 -29.59375 2.21875 -29.828125 2.21875 -30.296875 L 2.21875 -33.703125 C 2.21875 -34.171875 2.476562 -34.40625 3 -34.40625 C 3.46875 -34.40625 3.703125 -34.664062 3.703125 -35.1875 C 3.703125 -35.65625 3.9375 -35.890625 4.40625 -35.890625 L 10.765625 -35.890625 C 11.234375 -35.890625 11.46875 -35.628906 11.46875 -35.109375 C 11.46875 -34.640625 11.726562 -34.40625 12.25 -34.40625 C 12.71875 -34.40625 12.953125 -34.171875 12.953125 -33.703125 L 12.953125 -30.296875 C 12.953125 -29.828125 12.691406 -29.59375 12.171875 -29.59375 C 11.703125 -29.59375 11.46875 -29.335938 11.46875 -28.828125 C 11.46875 -28.359375 11.234375 -28.125 10.765625 -28.125 L 4.40625 -28.125 C 3.9375 -28.125 3.703125 -28.359375 3.703125 -28.828125 Z M 3.703125 -28.828125 "/></g></g></g><g fill="#ffec45" fill-opacity="1"><g transform="translate(99.076105, 196.874984)"><g><path d="M 2.59375 -0.703125 L 2.59375 -35.03125 C 2.59375 -35.5 2.828125 -35.734375 3.296875 -35.734375 L 11.875 -35.734375 C 12.34375 -35.734375 12.578125 -35.5 12.578125 -35.03125 L 12.578125 -0.703125 C 12.578125 -0.234375 12.34375 0 11.875 0 L 3.296875 0 C 2.828125 0 2.59375 -0.234375 2.59375 -0.703125 Z M 2.59375 -0.703125 "/></g></g></g><g fill="#ffec45" fill-opacity="1"><g transform="translate(114.244492, 196.874984)"><g><path d="M 2.59375 -0.703125 L 2.59375 -35.03125 C 2.59375 -35.5 2.828125 -35.734375 3.296875 -35.734375 L 11.875 -35.734375 C 12.34375 -35.734375 12.578125 -35.5 12.578125 -35.03125 L 12.578125 -0.703125 C 12.578125 -0.234375 12.34375 0 11.875 0 L 3.296875 0 C 2.828125 0 2.59375 -0.234375 2.59375 -0.703125 Z M 2.59375 -0.703125 "/></g></g></g><g fill="#ffec45" fill-opacity="1"><g transform="translate(129.412879, 196.874984)"><g/></g></g><g fill="#ffec45" fill-opacity="1"><g transform="translate(138.661891, 196.874984)"><g><path d="M 7.03125 -0.703125 L 7.03125 -1.515625 C 7.03125 -1.984375 6.796875 -2.21875 6.328125 -2.21875 L 5.515625 -2.21875 C 5.046875 -2.21875 4.8125 -2.453125 4.8125 -2.921875 L 4.8125 -3.734375 C 4.8125 -4.203125 4.578125 -4.4375 4.109375 -4.4375 L 3.296875 -4.4375 C 2.828125 -4.4375 2.59375 -4.671875 2.59375 -5.140625 L 2.59375 -20.75 C 2.59375 -21.21875 2.828125 -21.453125 3.296875 -21.453125 L 4.109375 -21.453125 C 4.578125 -21.453125 4.8125 -21.6875 4.8125 -22.15625 L 4.8125 -22.984375 C 4.8125 -23.453125 5.046875 -23.6875 5.515625 -23.6875 L 6.328125 -23.6875 C 6.796875 -23.6875 7.03125 -23.921875 7.03125 -24.390625 L 7.03125 -25.203125 C 7.03125 -25.671875 7.265625 -25.90625 7.734375 -25.90625 L 21.859375 -25.90625 C 22.328125 -25.90625 22.5625 -25.671875 22.5625 -25.203125 L 22.5625 -24.390625 C 22.5625 -23.921875 22.796875 -23.6875 23.265625 -23.6875 L 24.09375 -23.6875 C 24.5625 -23.6875 24.796875 -23.453125 24.796875 -22.984375 L 24.796875 -22.15625 C 24.796875 -21.6875 25.03125 -21.453125 25.5 -21.453125 L 26.3125 -21.453125 C 26.78125 -21.453125 27.015625 -21.21875 27.015625 -20.75 L 27.015625 -16.6875 C 27.015625 -16.21875 26.78125 -15.984375 26.3125 -15.984375 L 17.71875 -15.984375 C 17.25 -15.984375 17.015625 -16.21875 17.015625 -16.6875 L 17.015625 -22.984375 C 17.015625 -23.453125 16.78125 -23.6875 16.3125 -23.6875 L 15.5 -23.6875 C 15.03125 -23.6875 14.796875 -23.453125 14.796875 -22.984375 L 14.796875 -22.15625 C 14.796875 -21.6875 14.5625 -21.453125 14.09375 -21.453125 L 13.28125 -21.453125 C 12.8125 -21.453125 12.578125 -21.21875 12.578125 -20.75 L 12.578125 -2.921875 C 12.578125 -2.453125 12.8125 -2.21875 13.28125 -2.21875 L 14.09375 -2.21875 C 14.5625 -2.21875 14.796875 -2.453125 14.796875 -2.921875 L 14.796875 -3.734375 C 14.796875 -4.203125 15.03125 -4.4375 15.5 -4.4375 L 16.3125 -4.4375 C 16.78125 -4.4375 17.015625 -4.671875 17.015625 -5.140625 L 17.015625 -8.171875 C 17.015625 -8.640625 17.25 -8.875 17.71875 -8.875 L 26.3125 -8.875 C 26.78125 -8.875 27.015625 -8.640625 27.015625 -8.171875 L 27.015625 -5.140625 C 27.015625 -4.671875 26.78125 -4.4375 26.3125 -4.4375 L 25.5 -4.4375 C 25.03125 -4.4375 24.796875 -4.203125 24.796875 -3.734375 L 24.796875 -2.921875 C 24.796875 -2.453125 24.5625 -2.21875 24.09375 -2.21875 L 23.265625 -2.21875 C 22.796875 -2.21875 22.5625 -1.984375 22.5625 -1.515625 L 22.5625 -0.703125 C 22.5625 -0.234375 22.328125 0 21.859375 0 L 7.734375 0 C 7.265625 0 7.03125 -0.234375 7.03125 -0.703125 Z M 7.03125 -0.703125 "/></g></g></g><g fill="#ffec45" fill-opacity="1"><g transform="translate(167.518818, 196.874984)"><g><path d="M 15.578125 -11.796875 L 12.546875 -11.796875 C 12.078125 -11.796875 11.84375 -11.5625 11.84375 -11.09375 L 11.84375 -2.921875 C 11.84375 -2.453125 12.078125 -2.21875 12.546875 -2.21875 L 13.359375 -2.21875 C 13.828125 -2.21875 14.0625 -2.453125 14.0625 -2.921875 L 14.0625 -3.734375 C 14.0625 -4.203125 14.296875 -4.4375 14.765625 -4.4375 L 15.578125 -4.4375 C 16.046875 -4.4375 16.28125 -4.671875 16.28125 -5.140625 L 16.28125 -11.09375 C 16.28125 -11.5625 16.046875 -11.796875 15.578125 -11.796875 Z M 4.0625 -0.703125 L 4.0625 -1.515625 C 4.0625 -1.984375 3.828125 -2.21875 3.359375 -2.21875 L 2.546875 -2.21875 C 2.078125 -2.21875 1.84375 -2.453125 1.84375 -2.921875 L 1.84375 -11.09375 C 1.84375 -11.5625 2.078125 -11.796875 2.546875 -11.796875 L 3.359375 -11.796875 C 3.828125 -11.796875 4.0625 -12.03125 4.0625 -12.5 L 4.0625 -13.3125 C 4.0625 -13.78125 4.296875 -14.015625 4.765625 -14.015625 L 13.359375 -14.015625 C 13.828125 -14.015625 14.0625 -14.25 14.0625 -14.71875 L 14.0625 -15.546875 C 14.0625 -16.015625 14.296875 -16.25 14.765625 -16.25 L 16.6875 -16.25 C 17.15625 -16.25 17.390625 -16.484375 17.390625 -16.953125 L 17.390625 -22.984375 C 17.390625 -23.453125 17.15625 -23.6875 16.6875 -23.6875 L 14.765625 -23.6875 C 14.296875 -23.6875 14.0625 -23.453125 14.0625 -22.984375 L 14.0625 -19.9375 C 14.0625 -19.46875 13.828125 -19.234375 13.359375 -19.234375 L 12.546875 -19.234375 C 12.078125 -19.234375 11.84375 -19 11.84375 -18.53125 L 11.84375 -16.609375 C 11.84375 -16.140625 11.609375 -15.90625 11.140625 -15.90625 L 3.65625 -15.90625 C 3.1875 -15.90625 2.953125 -16.140625 2.953125 -16.609375 L 2.953125 -22.984375 C 2.953125 -23.453125 3.1875 -23.6875 3.65625 -23.6875 L 5.03125 -23.6875 C 5.5 -23.6875 5.734375 -23.921875 5.734375 -24.390625 L 5.734375 -25.203125 C 5.734375 -25.671875 5.96875 -25.90625 6.4375 -25.90625 L 23.34375 -25.90625 C 23.8125 -25.90625 24.046875 -25.671875 24.046875 -25.203125 L 24.046875 -24.390625 C 24.046875 -23.921875 24.28125 -23.6875 24.75 -23.6875 L 25.5625 -23.6875 C 26.03125 -23.6875 26.265625 -23.453125 26.265625 -22.984375 L 26.265625 -0.703125 C 26.265625 -0.234375 26.03125 0 25.5625 0 L 19.203125 0 C 18.734375 0 18.5 -0.234375 18.5 -0.703125 L 18.5 -1.515625 C 18.5 -1.984375 18.265625 -2.21875 17.796875 -2.21875 L 16.984375 -2.21875 C 16.515625 -2.21875 16.28125 -1.984375 16.28125 -1.515625 L 16.28125 -0.703125 C 16.28125 -0.234375 16.046875 0 15.578125 0 L 4.765625 0 C 4.296875 0 4.0625 -0.234375 4.0625 -0.703125 Z M 4.0625 -0.703125 "/></g></g></g><g fill="#ffec45" fill-opacity="1"><g transform="translate(196.375745, 196.874984)"><g><path d="M 2.59375 -0.703125 L 2.59375 -25.203125 C 2.59375 -25.671875 2.828125 -25.90625 3.296875 -25.90625 L 8.546875 -25.90625 C 9.015625 -25.90625 9.25 -25.671875 9.25 -25.203125 L 9.25 -22.15625 C 9.25 -21.6875 9.484375 -21.453125 9.953125 -21.453125 L 10.765625 -21.453125 C 11.234375 -21.453125 11.46875 -21.6875 11.46875 -22.15625 L 11.46875 -22.984375 C 11.46875 -23.453125 11.703125 -23.6875 12.171875 -23.6875 L 12.984375 -23.6875 C 13.453125 -23.6875 13.6875 -23.921875 13.6875 -24.390625 L 13.6875 -25.203125 C 13.6875 -25.671875 13.921875 -25.90625 14.390625 -25.90625 L 24.09375 -25.90625 C 24.5625 -25.90625 24.796875 -25.671875 24.796875 -25.203125 L 24.796875 -24.390625 C 24.796875 -23.921875 25.03125 -23.6875 25.5 -23.6875 L 26.3125 -23.6875 C 26.507812 -23.6875 26.609375 -23.6875 26.609375 -23.6875 C 26.609375 -23.6875 26.507812 -23.6875 26.3125 -23.6875 L 25.5 -23.6875 C 25.300781 -23.6875 25.203125 -23.6875 25.203125 -23.6875 C 25.203125 -23.6875 25.300781 -23.6875 25.5 -23.6875 L 26.3125 -23.6875 C 26.78125 -23.6875 27.015625 -23.453125 27.015625 -22.984375 L 27.015625 -0.703125 C 27.015625 -0.234375 26.78125 0 26.3125 0 L 17.71875 0 C 17.25 0 17.015625 -0.234375 17.015625 -0.703125 L 17.015625 -22.984375 C 17.015625 -23.453125 16.78125 -23.6875 16.3125 -23.6875 L 15.5 -23.6875 C 15.03125 -23.6875 14.796875 -23.453125 14.796875 -22.984375 L 14.796875 -22.15625 C 14.796875 -21.6875 14.5625 -21.453125 14.09375 -21.453125 L 13.28125 -21.453125 C 12.8125 -21.453125 12.578125 -21.21875 12.578125 -20.75 L 12.578125 -0.703125 C 12.578125 -0.234375 12.34375 0 11.875 0 L 3.296875 0 C 2.828125 0 2.59375 -0.234375 2.59375 -0.703125 Z M 2.59375 -0.703125 "/></g></g></g><g fill="#ffec45" fill-opacity="1"><g transform="translate(225.972602, 196.874984)"><g><path d="M 4.0625 -25.375 L 4.0625 -25.453125 C 4.0625 -25.898438 3.84375 -26.125 3.40625 -26.125 C 2.863281 -26.125 2.59375 -26.394531 2.59375 -26.9375 L 2.59375 -32.34375 C 2.59375 -32.882812 2.863281 -33.15625 3.40625 -33.15625 C 3.84375 -33.15625 4.0625 -33.375 4.0625 -33.8125 L 4.0625 -33.890625 C 4.0625 -34.378906 4.3125 -34.625 4.8125 -34.625 L 10.28125 -34.625 C 10.820312 -34.625 11.09375 -34.351562 11.09375 -33.8125 C 11.09375 -33.375 11.316406 -33.15625 11.765625 -33.15625 L 11.84375 -33.15625 C 12.332031 -33.15625 12.578125 -32.90625 12.578125 -32.40625 L 12.578125 -20.015625 C 12.578125 -19.398438 12.269531 -19.09375 11.65625 -19.09375 L 10.171875 -19.09375 C 9.554688 -19.09375 9.25 -19.398438 9.25 -20.015625 L 9.25 -23.71875 C 9.25 -24.332031 8.941406 -24.640625 8.328125 -24.640625 L 4.8125 -24.640625 C 4.3125 -24.640625 4.0625 -24.882812 4.0625 -25.375 Z M 4.0625 -25.375 "/></g></g></g><g fill="#ffec45" fill-opacity="1"><g transform="translate(241.140989, 196.874984)"><g><path d="M 6.296875 -0.703125 L 6.296875 -1.515625 C 6.296875 -1.984375 6.0625 -2.21875 5.59375 -2.21875 L 4.765625 -2.21875 C 4.296875 -2.21875 4.0625 -2.453125 4.0625 -2.921875 L 4.0625 -23.015625 C 4.0625 -23.484375 3.828125 -23.71875 3.359375 -23.71875 L 2.1875 -23.71875 C 1.71875 -23.71875 1.484375 -23.953125 1.484375 -24.421875 L 1.484375 -25.203125 C 1.484375 -25.671875 1.71875 -25.90625 2.1875 -25.90625 L 3.359375 -25.90625 C 3.828125 -25.90625 4.0625 -26.140625 4.0625 -26.609375 L 4.0625 -31.75 C 4.0625 -32.21875 4.296875 -32.453125 4.765625 -32.453125 L 13.359375 -32.453125 C 13.828125 -32.453125 14.0625 -32.21875 14.0625 -31.75 L 14.0625 -26.609375 C 14.0625 -26.140625 14.296875 -25.90625 14.765625 -25.90625 L 18.5 -25.90625 C 18.96875 -25.90625 19.203125 -25.671875 19.203125 -25.203125 L 19.203125 -24.421875 C 19.203125 -23.953125 18.96875 -23.71875 18.5 -23.71875 L 14.765625 -23.71875 C 14.296875 -23.71875 14.0625 -23.484375 14.0625 -23.015625 L 14.0625 -2.921875 C 14.0625 -2.453125 14.296875 -2.21875 14.765625 -2.21875 L 15.578125 -2.21875 C 16.046875 -2.21875 16.28125 -2.453125 16.28125 -2.921875 L 16.28125 -6.703125 C 16.28125 -7.171875 16.515625 -7.40625 16.984375 -7.40625 L 22.984375 -7.40625 C 23.453125 -7.40625 23.6875 -7.171875 23.6875 -6.703125 L 23.6875 -2.921875 C 23.6875 -2.453125 23.453125 -2.21875 22.984375 -2.21875 L 21.046875 -2.21875 C 20.578125 -2.21875 20.34375 -1.984375 20.34375 -1.515625 L 20.34375 -0.703125 C 20.34375 -0.234375 20.109375 0 19.640625 0 L 7 0 C 6.53125 0 6.296875 -0.234375 6.296875 -0.703125 Z M 6.296875 -0.703125 "/></g></g></g><g fill="#ffec45" fill-opacity="1"><g transform="translate(265.188435, 196.874984)"><g/></g></g><g fill="#ffec45" fill-opacity="1"><g transform="translate(274.437457, 196.874984)"><g><path d="M 4.25 -0.703125 L 4.25 -23.015625 C 4.25 -23.484375 4.015625 -23.71875 3.546875 -23.71875 L 2.375 -23.71875 C 1.90625 -23.71875 1.671875 -23.953125 1.671875 -24.421875 L 1.671875 -25.203125 C 1.671875 -25.671875 1.90625 -25.90625 2.375 -25.90625 L 3.546875 -25.90625 C 4.015625 -25.90625 4.25 -26.140625 4.25 -26.609375 L 4.25 -32.8125 C 4.25 -33.28125 4.484375 -33.515625 4.953125 -33.515625 L 5.765625 -33.515625 C 6.234375 -33.515625 6.46875 -33.75 6.46875 -34.21875 L 6.46875 -35.03125 C 6.46875 -35.5 6.703125 -35.734375 7.171875 -35.734375 L 19.828125 -35.734375 C 20.296875 -35.734375 20.53125 -35.5 20.53125 -35.03125 L 20.53125 -34.21875 C 20.53125 -33.75 20.765625 -33.515625 21.234375 -33.515625 L 23.15625 -33.515625 C 23.625 -33.515625 23.859375 -33.28125 23.859375 -32.8125 L 23.859375 -29.046875 C 23.859375 -28.578125 23.625 -28.34375 23.15625 -28.34375 L 17.171875 -28.34375 C 16.703125 -28.34375 16.46875 -28.578125 16.46875 -29.046875 L 16.46875 -32.8125 C 16.46875 -33.28125 16.234375 -33.515625 15.765625 -33.515625 L 14.953125 -33.515625 C 14.484375 -33.515625 14.25 -33.28125 14.25 -32.8125 L 14.25 -26.609375 C 14.25 -26.140625 14.484375 -25.90625 14.953125 -25.90625 L 18.6875 -25.90625 C 19.15625 -25.90625 19.390625 -25.671875 19.390625 -25.203125 L 19.390625 -24.421875 C 19.390625 -23.953125 19.15625 -23.71875 18.6875 -23.71875 L 14.953125 -23.71875 C 14.484375 -23.71875 14.25 -23.484375 14.25 -23.015625 L 14.25 -0.703125 C 14.25 -0.234375 14.015625 0 13.546875 0 L 4.953125 0 C 4.484375 0 4.25 -0.234375 4.25 -0.703125 Z M 4.25 -0.703125 "/></g></g></g><g fill="#ffec45" fill-opacity="1"><g transform="translate(299.039827, 196.874984)"><g><path d="M 2.59375 -0.703125 L 2.59375 -25.203125 C 2.59375 -25.671875 2.828125 -25.90625 3.296875 -25.90625 L 11.875 -25.90625 C 12.34375 -25.90625 12.578125 -25.671875 12.578125 -25.203125 L 12.578125 -0.703125 C 12.578125 -0.234375 12.34375 0 11.875 0 L 3.296875 0 C 2.828125 0 2.59375 -0.234375 2.59375 -0.703125 Z M 3.703125 -28.828125 L 3.703125 -28.890625 C 3.703125 -29.359375 3.441406 -29.59375 2.921875 -29.59375 C 2.453125 -29.59375 2.21875 -29.828125 2.21875 -30.296875 L 2.21875 -33.703125 C 2.21875 -34.171875 2.476562 -34.40625 3 -34.40625 C 3.46875 -34.40625 3.703125 -34.664062 3.703125 -35.1875 C 3.703125 -35.65625 3.9375 -35.890625 4.40625 -35.890625 L 10.765625 -35.890625 C 11.234375 -35.890625 11.46875 -35.628906 11.46875 -35.109375 C 11.46875 -34.640625 11.726562 -34.40625 12.25 -34.40625 C 12.71875 -34.40625 12.953125 -34.171875 12.953125 -33.703125 L 12.953125 -30.296875 C 12.953125 -29.828125 12.691406 -29.59375 12.171875 -29.59375 C 11.703125 -29.59375 11.46875 -29.335938 11.46875 -28.828125 C 11.46875 -28.359375 11.234375 -28.125 10.765625 -28.125 L 4.40625 -28.125 C 3.9375 -28.125 3.703125 -28.359375 3.703125 -28.828125 Z M 3.703125 -28.828125 "/></g></g></g><g fill="#ffec45" fill-opacity="1"><g transform="translate(314.208214, 196.874984)"><g><path d="M 2.59375 -0.703125 L 2.59375 -25.203125 C 2.59375 -25.671875 2.828125 -25.90625 3.296875 -25.90625 L 8.546875 -25.90625 C 9.015625 -25.90625 9.25 -25.671875 9.25 -25.203125 L 9.25 -22.15625 C 9.25 -21.6875 9.484375 -21.453125 9.953125 -21.453125 L 10.765625 -21.453125 C 11.234375 -21.453125 11.46875 -21.6875 11.46875 -22.15625 L 11.46875 -22.984375 C 11.46875 -23.453125 11.703125 -23.6875 12.171875 -23.6875 L 12.984375 -23.6875 C 13.453125 -23.6875 13.6875 -23.921875 13.6875 -24.390625 L 13.6875 -25.203125 C 13.6875 -25.671875 13.921875 -25.90625 14.390625 -25.90625 L 24.09375 -25.90625 C 24.5625 -25.90625 24.796875 -25.671875 24.796875 -25.203125 L 24.796875 -24.390625 C 24.796875 -23.921875 25.03125 -23.6875 25.5 -23.6875 L 26.3125 -23.6875 C 26.507812 -23.6875 26.609375 -23.6875 26.609375 -23.6875 C 26.609375 -23.6875 26.507812 -23.6875 26.3125 -23.6875 L 25.5 -23.6875 C 25.300781 -23.6875 25.203125 -23.6875 25.203125 -23.6875 C 25.203125 -23.6875 25.300781 -23.6875 25.5 -23.6875 L 26.3125 -23.6875 C 26.78125 -23.6875 27.015625 -23.453125 27.015625 -22.984375 L 27.015625 -0.703125 C 27.015625 -0.234375 26.78125 0 26.3125 0 L 17.71875 0 C 17.25 0 17.015625 -0.234375 17.015625 -0.703125 L 17.015625 -22.984375 C 17.015625 -23.453125 16.78125 -23.6875 16.3125 -23.6875 L 15.5 -23.6875 C 15.03125 -23.6875 14.796875 -23.453125 14.796875 -22.984375 L 14.796875 -22.15625 C 14.796875 -21.6875 14.5625 -21.453125 14.09375 -21.453125 L 13.28125 -21.453125 C 12.8125 -21.453125 12.578125 -21.21875 12.578125 -20.75 L 12.578125 -0.703125 C 12.578125 -0.234375 12.34375 0 11.875 0 L 3.296875 0 C 2.828125 0 2.59375 -0.234375 2.59375 -0.703125 Z M 2.59375 -0.703125 "/></g></g></g><g fill="#ffec45" fill-opacity="1"><g transform="translate(343.805082, 196.874984)"><g><path d="M 14.09375 -21.421875 L 13.28125 -21.421875 C 12.8125 -21.421875 12.578125 -21.1875 12.578125 -20.71875 L 12.578125 -2.890625 C 12.578125 -2.421875 12.8125 -2.1875 13.28125 -2.1875 L 14.09375 -2.1875 C 14.5625 -2.1875 14.796875 -2.421875 14.796875 -2.890625 L 14.796875 -3.703125 C 14.796875 -4.171875 15.03125 -4.40625 15.5 -4.40625 L 16.3125 -4.40625 C 16.78125 -4.40625 17.015625 -4.640625 17.015625 -5.109375 L 17.015625 -22.9375 C 17.015625 -23.40625 16.78125 -23.640625 16.3125 -23.640625 L 15.5 -23.640625 C 15.03125 -23.640625 14.796875 -23.40625 14.796875 -22.9375 L 14.796875 -22.125 C 14.796875 -21.65625 14.5625 -21.421875 14.09375 -21.421875 Z M 7.03125 -0.671875 L 7.03125 -1.484375 C 7.03125 -1.953125 6.796875 -2.1875 6.328125 -2.1875 L 5.515625 -2.1875 C 5.046875 -2.1875 4.8125 -2.421875 4.8125 -2.890625 L 4.8125 -3.703125 C 4.8125 -4.171875 4.578125 -4.40625 4.109375 -4.40625 L 3.296875 -4.40625 C 2.828125 -4.40625 2.59375 -4.640625 2.59375 -5.109375 L 2.59375 -20.71875 C 2.59375 -21.1875 2.828125 -21.421875 3.296875 -21.421875 L 4.109375 -21.421875 C 4.578125 -21.421875 4.8125 -21.65625 4.8125 -22.125 L 4.8125 -22.9375 C 4.8125 -23.40625 5.046875 -23.640625 5.515625 -23.640625 L 6.328125 -23.640625 C 6.796875 -23.640625 7.03125 -23.875 7.03125 -24.34375 L 7.03125 -25.15625 C 7.03125 -25.625 7.265625 -25.859375 7.734375 -25.859375 L 16.3125 -25.859375 C 16.78125 -25.859375 17.015625 -26.09375 17.015625 -26.5625 L 17.015625 -35.03125 C 17.015625 -35.5 17.25 -35.734375 17.71875 -35.734375 L 26.3125 -35.734375 C 26.78125 -35.734375 27.015625 -35.5 27.015625 -35.03125 L 27.015625 -0.671875 C 27.015625 -0.203125 26.78125 0.03125 26.3125 0.03125 L 7.734375 0.03125 C 7.265625 0.03125 7.03125 -0.203125 7.03125 -0.671875 Z M 7.03125 -0.671875 "/></g></g></g><g fill="#ffec45" fill-opacity="1"><g transform="translate(373.401927, 196.874984)"><g/></g></g><g fill="#ffec45" fill-opacity="1"><g transform="translate(382.65095, 196.874984)"><g><path d="M 15.578125 -11.796875 L 12.546875 -11.796875 C 12.078125 -11.796875 11.84375 -11.5625 11.84375 -11.09375 L 11.84375 -2.921875 C 11.84375 -2.453125 12.078125 -2.21875 12.546875 -2.21875 L 13.359375 -2.21875 C 13.828125 -2.21875 14.0625 -2.453125 14.0625 -2.921875 L 14.0625 -3.734375 C 14.0625 -4.203125 14.296875 -4.4375 14.765625 -4.4375 L 15.578125 -4.4375 C 16.046875 -4.4375 16.28125 -4.671875 16.28125 -5.140625 L 16.28125 -11.09375 C 16.28125 -11.5625 16.046875 -11.796875 15.578125 -11.796875 Z M 4.0625 -0.703125 L 4.0625 -1.515625 C 4.0625 -1.984375 3.828125 -2.21875 3.359375 -2.21875 L 2.546875 -2.21875 C 2.078125 -2.21875 1.84375 -2.453125 1.84375 -2.921875 L 1.84375 -11.09375 C 1.84375 -11.5625 2.078125 -11.796875 2.546875 -11.796875 L 3.359375 -11.796875 C 3.828125 -11.796875 4.0625 -12.03125 4.0625 -12.5 L 4.0625 -13.3125 C 4.0625 -13.78125 4.296875 -14.015625 4.765625 -14.015625 L 13.359375 -14.015625 C 13.828125 -14.015625 14.0625 -14.25 14.0625 -14.71875 L 14.0625 -15.546875 C 14.0625 -16.015625 14.296875 -16.25 14.765625 -16.25 L 16.6875 -16.25 C 17.15625 -16.25 17.390625 -16.484375 17.390625 -16.953125 L 17.390625 -22.984375 C 17.390625 -23.453125 17.15625 -23.6875 16.6875 -23.6875 L 14.765625 -23.6875 C 14.296875 -23.6875 14.0625 -23.453125 14.0625 -22.984375 L 14.0625 -19.9375 C 14.0625 -19.46875 13.828125 -19.234375 13.359375 -19.234375 L 12.546875 -19.234375 C 12.078125 -19.234375 11.84375 -19 11.84375 -18.53125 L 11.84375 -16.609375 C 11.84375 -16.140625 11.609375 -15.90625 11.140625 -15.90625 L 3.65625 -15.90625 C 3.1875 -15.90625 2.953125 -16.140625 2.953125 -16.609375 L 2.953125 -22.984375 C 2.953125 -23.453125 3.1875 -23.6875 3.65625 -23.6875 L 5.03125 -23.6875 C 5.5 -23.6875 5.734375 -23.921875 5.734375 -24.390625 L 5.734375 -25.203125 C 5.734375 -25.671875 5.96875 -25.90625 6.4375 -25.90625 L 23.34375 -25.90625 C 23.8125 -25.90625 24.046875 -25.671875 24.046875 -25.203125 L 24.046875 -24.390625 C 24.046875 -23.921875 24.28125 -23.6875 24.75 -23.6875 L 25.5625 -23.6875 C 26.03125 -23.6875 26.265625 -23.453125 26.265625 -22.984375 L 26.265625 -0.703125 C 26.265625 -0.234375 26.03125 0 25.5625 0 L 19.203125 0 C 18.734375 0 18.5 -0.234375 18.5 -0.703125 L 18.5 -1.515625 C 18.5 -1.984375 18.265625 -2.21875 17.796875 -2.21875 L 16.984375 -2.21875 C 16.515625 -2.21875 16.28125 -1.984375 16.28125 -1.515625 L 16.28125 -0.703125 C 16.28125 -0.234375 16.046875 0 15.578125 0 L 4.765625 0 C 4.296875 0 4.0625 -0.234375 4.0625 -0.703125 Z M 4.0625 -0.703125 "/></g></g></g><g fill="#ffec45" fill-opacity="1"><g transform="translate(411.507866, 196.874984)"><g/></g></g><g fill="#ffec45" fill-opacity="1"><g transform="translate(420.756889, 196.874984)"><g><path d="M -2.21875 8.546875 L -2.21875 7.734375 C -2.21875 7.265625 -2.453125 7.03125 -2.921875 7.03125 L -4.84375 7.03125 C -5.3125 7.03125 -5.546875 6.796875 -5.546875 6.328125 L -5.546875 2.546875 C -5.546875 2.078125 -5.3125 1.84375 -4.84375 1.84375 L 1.140625 1.84375 C 1.609375 1.84375 1.84375 2.078125 1.84375 2.546875 L 1.84375 6.328125 C 1.84375 6.796875 2.078125 7.03125 2.546875 7.03125 L 3.359375 7.03125 C 3.828125 7.03125 4.0625 6.796875 4.0625 6.328125 L 4.0625 -25.203125 C 4.0625 -25.671875 4.296875 -25.90625 4.765625 -25.90625 L 13.359375 -25.90625 C 13.828125 -25.90625 14.0625 -25.671875 14.0625 -25.203125 L 14.0625 6.328125 C 14.0625 6.796875 13.828125 7.03125 13.359375 7.03125 L 12.546875 7.03125 C 12.078125 7.03125 11.84375 7.265625 11.84375 7.734375 L 11.84375 8.546875 C 11.84375 9.015625 11.609375 9.25 11.140625 9.25 L -1.515625 9.25 C -1.984375 9.25 -2.21875 9.015625 -2.21875 8.546875 Z M 5.1875 -28.828125 L 5.1875 -28.890625 C 5.1875 -29.359375 4.925781 -29.59375 4.40625 -29.59375 C 3.9375 -29.59375 3.703125 -29.828125 3.703125 -30.296875 L 3.703125 -33.703125 C 3.703125 -34.171875 3.960938 -34.40625 4.484375 -34.40625 C 4.953125 -34.40625 5.1875 -34.664062 5.1875 -35.1875 C 5.1875 -35.65625 5.421875 -35.890625 5.890625 -35.890625 L 12.25 -35.890625 C 12.71875 -35.890625 12.953125 -35.628906 12.953125 -35.109375 C 12.953125 -34.640625 13.210938 -34.40625 13.734375 -34.40625 C 14.203125 -34.40625 14.4375 -34.171875 14.4375 -33.703125 L 14.4375 -30.296875 C 14.4375 -29.828125 14.175781 -29.59375 13.65625 -29.59375 C 13.1875 -29.59375 12.953125 -29.335938 12.953125 -28.828125 C 12.953125 -28.359375 12.71875 -28.125 12.25 -28.125 L 5.890625 -28.125 C 5.421875 -28.125 5.1875 -28.359375 5.1875 -28.828125 Z M 5.1875 -28.828125 "/></g></g></g><g fill="#ffec45" fill-opacity="1"><g transform="translate(438.219015, 196.874984)"><g><path d="M 7.03125 -0.703125 L 7.03125 -1.515625 C 7.03125 -1.984375 6.796875 -2.21875 6.328125 -2.21875 L 5.515625 -2.21875 C 5.046875 -2.21875 4.8125 -2.453125 4.8125 -2.921875 L 4.8125 -3.734375 C 4.8125 -4.203125 4.578125 -4.4375 4.109375 -4.4375 L 3.296875 -4.4375 C 2.828125 -4.4375 2.59375 -4.671875 2.59375 -5.140625 L 2.59375 -20.75 C 2.59375 -21.21875 2.828125 -21.453125 3.296875 -21.453125 L 4.109375 -21.453125 C 4.578125 -21.453125 4.8125 -21.6875 4.8125 -22.15625 L 4.8125 -22.984375 C 4.8125 -23.453125 5.046875 -23.6875 5.515625 -23.6875 L 6.328125 -23.6875 C 6.796875 -23.6875 7.03125 -23.921875 7.03125 -24.390625 L 7.03125 -25.203125 C 7.03125 -25.671875 7.265625 -25.90625 7.734375 -25.90625 L 21.859375 -25.90625 C 22.328125 -25.90625 22.5625 -25.671875 22.5625 -25.203125 L 22.5625 -24.390625 C 22.5625 -23.921875 22.796875 -23.6875 23.265625 -23.6875 L 24.09375 -23.6875 C 24.5625 -23.6875 24.796875 -23.453125 24.796875 -22.984375 L 24.796875 -22.15625 C 24.796875 -21.6875 25.03125 -21.453125 25.5 -21.453125 L 26.3125 -21.453125 C 26.78125 -21.453125 27.015625 -21.21875 27.015625 -20.75 L 27.015625 -5.140625 C 27.015625 -4.671875 26.78125 -4.4375 26.3125 -4.4375 L 25.5 -4.4375 C 25.03125 -4.4375 24.796875 -4.203125 24.796875 -3.734375 L 24.796875 -2.921875 C 24.796875 -2.453125 24.5625 -2.21875 24.09375 -2.21875 L 23.265625 -2.21875 C 22.796875 -2.21875 22.5625 -1.984375 22.5625 -1.515625 L 22.5625 -0.703125 C 22.5625 -0.234375 22.328125 0 21.859375 0 L 7.734375 0 C 7.265625 0 7.03125 -0.234375 7.03125 -0.703125 Z M 15.5 -4.4375 L 16.3125 -4.4375 C 16.78125 -4.4375 17.015625 -4.671875 17.015625 -5.140625 L 17.015625 -22.984375 C 17.015625 -23.453125 16.78125 -23.6875 16.3125 -23.6875 L 15.5 -23.6875 C 15.03125 -23.6875 14.796875 -23.453125 14.796875 -22.984375 L 14.796875 -22.15625 C 14.796875 -21.6875 14.5625 -21.453125 14.09375 -21.453125 L 13.28125 -21.453125 C 12.8125 -21.453125 12.578125 -21.21875 12.578125 -20.75 L 12.578125 -2.921875 C 12.578125 -2.453125 12.8125 -2.21875 13.28125 -2.21875 L 14.09375 -2.21875 C 14.5625 -2.21875 14.796875 -2.453125 14.796875 -2.921875 L 14.796875 -3.734375 C 14.796875 -4.203125 15.03125 -4.4375 15.5 -4.4375 Z M 15.5 -4.4375 "/></g></g></g><g fill="#ffec45" fill-opacity="1"><g transform="translate(467.81586, 196.874984)"><g><path d="M 14.09375 -21.453125 L 13.28125 -21.453125 C 12.8125 -21.453125 12.578125 -21.21875 12.578125 -20.75 L 12.578125 -2.921875 C 12.578125 -2.453125 12.8125 -2.21875 13.28125 -2.21875 L 14.09375 -2.21875 C 14.5625 -2.21875 14.796875 -2.453125 14.796875 -2.921875 L 14.796875 -3.734375 C 14.796875 -4.203125 15.03125 -4.4375 15.5 -4.4375 L 16.3125 -4.4375 C 16.78125 -4.4375 17.015625 -4.671875 17.015625 -5.140625 L 17.015625 -22.984375 C 17.015625 -23.453125 16.78125 -23.6875 16.3125 -23.6875 L 15.5 -23.6875 C 15.03125 -23.6875 14.796875 -23.453125 14.796875 -22.984375 L 14.796875 -22.15625 C 14.796875 -21.6875 14.5625 -21.453125 14.09375 -21.453125 Z M 2.59375 -0.703125 L 2.59375 -34.453125 C 2.59375 -34.921875 2.828125 -35.15625 3.296875 -35.15625 L 11.875 -35.15625 C 12.34375 -35.15625 12.578125 -34.921875 12.578125 -34.453125 L 12.578125 -26.609375 C 12.578125 -26.140625 12.8125 -25.90625 13.28125 -25.90625 L 21.859375 -25.90625 C 22.328125 -25.90625 22.5625 -25.671875 22.5625 -25.203125 L 22.5625 -24.390625 C 22.5625 -23.921875 22.796875 -23.6875 23.265625 -23.6875 L 24.09375 -23.6875 C 24.5625 -23.6875 24.796875 -23.453125 24.796875 -22.984375 L 24.796875 -22.15625 C 24.796875 -21.6875 25.03125 -21.453125 25.5 -21.453125 L 26.3125 -21.453125 C 26.78125 -21.453125 27.015625 -21.21875 27.015625 -20.75 L 27.015625 -2.953125 C 27.015625 -2.484375 26.78125 -2.25 26.3125 -2.25 L 25.5 -2.25 C 25.03125 -2.25 24.796875 -2.015625 24.796875 -1.546875 L 24.796875 -0.703125 C 24.796875 -0.234375 24.5625 0 24.09375 0 L 3.296875 0 C 2.828125 0 2.59375 -0.234375 2.59375 -0.703125 Z M 2.59375 -0.703125 "/></g></g></g></svg>