<svg xmlns="http://www.w3.org/2000/svg" xmlns:xlink="http://www.w3.org/1999/xlink" width="672" zoomAndPan="magnify" viewBox="0 0 504 359.999987" height="480" preserveAspectRatio="xMidYMid meet" version="1.0"><defs><g/></defs><g fill="#000000" fill-opacity="0.5608"><g transform="translate(65.356622, 160.65214)"><g><path d="M 3.296875 -0.890625 L 3.296875 -32 C 3.296875 -32.601562 3.59375 -32.90625 4.1875 -32.90625 L 10.859375 -32.90625 C 11.453125 -32.90625 11.75 -32.601562 11.75 -32 L 11.75 -28.15625 C 11.75 -27.5625 12.046875 -27.265625 12.640625 -27.265625 L 13.671875 -27.265625 C 14.265625 -27.265625 14.5625 -27.5625 14.5625 -28.15625 L 14.5625 -29.1875 C 14.5625 -29.78125 14.863281 -30.078125 15.46875 -30.078125 L 16.5 -30.078125 C 17.09375 -30.078125 17.390625 -30.375 17.390625 -30.96875 L 17.390625 -32 C 17.390625 -32.601562 17.6875 -32.90625 18.28125 -32.90625 L 30.59375 -32.90625 C 31.1875 -32.90625 31.484375 -32.601562 31.484375 -32 L 31.484375 -30.96875 C 31.484375 -30.375 31.785156 -30.078125 32.390625 -30.078125 L 33.421875 -30.078125 C 33.671875 -30.078125 33.796875 -30.078125 33.796875 -30.078125 C 33.796875 -30.078125 33.671875 -30.078125 33.421875 -30.078125 L 32.390625 -30.078125 C 32.128906 -30.078125 32 -30.078125 32 -30.078125 C 32 -30.078125 32.128906 -30.078125 32.390625 -30.078125 L 33.421875 -30.078125 C 34.015625 -30.078125 34.3125 -29.78125 34.3125 -29.1875 L 34.3125 -0.890625 C 34.3125 -0.296875 34.015625 0 33.421875 0 L 22.515625 0 C 21.921875 0 21.625 -0.296875 21.625 -0.890625 L 21.625 -29.1875 C 21.625 -29.78125 21.328125 -30.078125 20.734375 -30.078125 L 19.6875 -30.078125 C 19.09375 -30.078125 18.796875 -29.78125 18.796875 -29.1875 L 18.796875 -28.15625 C 18.796875 -27.5625 18.5 -27.265625 17.90625 -27.265625 L 16.875 -27.265625 C 16.28125 -27.265625 15.984375 -26.960938 15.984375 -26.359375 L 15.984375 -0.890625 C 15.984375 -0.296875 15.6875 0 15.09375 0 L 4.1875 0 C 3.59375 0 3.296875 -0.296875 3.296875 -0.890625 Z M 3.296875 -0.890625 "/></g></g></g><g fill="#000000" fill-opacity="0.5608"><g transform="translate(102.950323, 160.65214)"><g><path d="M 8.9375 -0.890625 L 8.9375 -1.921875 C 8.9375 -2.515625 8.632812 -2.8125 8.03125 -2.8125 L 7 -2.8125 C 6.40625 -2.8125 6.109375 -3.113281 6.109375 -3.71875 L 6.109375 -4.75 C 6.109375 -5.34375 5.8125 -5.640625 5.21875 -5.640625 L 4.1875 -5.640625 C 3.59375 -5.640625 3.296875 -5.9375 3.296875 -6.53125 L 3.296875 -26.359375 C 3.296875 -26.960938 3.59375 -27.265625 4.1875 -27.265625 L 5.21875 -27.265625 C 5.8125 -27.265625 6.109375 -27.5625 6.109375 -28.15625 L 6.109375 -29.1875 C 6.109375 -29.78125 6.40625 -30.078125 7 -30.078125 L 8.03125 -30.078125 C 8.632812 -30.078125 8.9375 -30.375 8.9375 -30.96875 L 8.9375 -32 C 8.9375 -32.601562 9.234375 -32.90625 9.828125 -32.90625 L 27.78125 -32.90625 C 28.375 -32.90625 28.671875 -32.601562 28.671875 -32 L 28.671875 -30.96875 C 28.671875 -30.375 28.96875 -30.078125 29.5625 -30.078125 L 30.59375 -30.078125 C 31.1875 -30.078125 31.484375 -29.78125 31.484375 -29.1875 L 31.484375 -28.15625 C 31.484375 -27.5625 31.785156 -27.265625 32.390625 -27.265625 L 33.421875 -27.265625 C 34.015625 -27.265625 34.3125 -26.960938 34.3125 -26.359375 L 34.3125 -18.75 C 34.3125 -18.15625 34.015625 -17.859375 33.421875 -17.859375 L 32.390625 -17.859375 C 31.785156 -17.859375 31.484375 -17.5625 31.484375 -16.96875 L 31.484375 -15.9375 C 31.484375 -15.34375 31.1875 -15.046875 30.59375 -15.046875 L 16.875 -15.046875 C 16.28125 -15.046875 15.984375 -14.742188 15.984375 -14.140625 L 15.984375 -3.71875 C 15.984375 -3.113281 16.28125 -2.8125 16.875 -2.8125 L 17.90625 -2.8125 C 18.5 -2.8125 18.796875 -3.113281 18.796875 -3.71875 L 18.796875 -4.75 C 18.796875 -5.34375 19.09375 -5.640625 19.6875 -5.640625 L 20.734375 -5.640625 C 21.328125 -5.640625 21.625 -5.9375 21.625 -6.53125 L 21.625 -9.78125 C 21.625 -10.375 21.921875 -10.671875 22.515625 -10.671875 L 33.421875 -10.671875 C 34.015625 -10.671875 34.3125 -10.375 34.3125 -9.78125 L 34.3125 -6.53125 C 34.3125 -5.9375 34.015625 -5.640625 33.421875 -5.640625 L 32.390625 -5.640625 C 31.785156 -5.640625 31.484375 -5.34375 31.484375 -4.75 L 31.484375 -3.71875 C 31.484375 -3.113281 31.1875 -2.8125 30.59375 -2.8125 L 29.5625 -2.8125 C 28.96875 -2.8125 28.671875 -2.515625 28.671875 -1.921875 L 28.671875 -0.890625 C 28.671875 -0.296875 28.375 0 27.78125 0 L 9.828125 0 C 9.234375 0 8.9375 -0.296875 8.9375 -0.890625 Z M 16.875 -17.859375 L 20.734375 -17.859375 C 21.328125 -17.859375 21.625 -18.15625 21.625 -18.75 L 21.625 -29.1875 C 21.625 -29.78125 21.328125 -30.078125 20.734375 -30.078125 L 19.6875 -30.078125 C 19.09375 -30.078125 18.796875 -29.78125 18.796875 -29.1875 L 18.796875 -28.15625 C 18.796875 -27.5625 18.5 -27.265625 17.90625 -27.265625 L 16.875 -27.265625 C 16.28125 -27.265625 15.984375 -26.960938 15.984375 -26.359375 L 15.984375 -18.75 C 15.984375 -18.15625 16.28125 -17.859375 16.875 -17.859375 Z M 16.875 -17.859375 "/></g></g></g><g fill="#000000" fill-opacity="0.5608"><g transform="translate(139.604179, 160.65214)"><g><path d="M 6.109375 -0.890625 L 6.109375 -1.921875 C 6.109375 -2.515625 5.8125 -2.8125 5.21875 -2.8125 L 4.1875 -2.8125 C 3.59375 -2.8125 3.296875 -3.113281 3.296875 -3.71875 L 3.296875 -32 C 3.296875 -32.601562 3.59375 -32.90625 4.1875 -32.90625 L 15.09375 -32.90625 C 15.6875 -32.90625 15.984375 -32.601562 15.984375 -32 L 15.984375 -3.71875 C 15.984375 -3.113281 16.28125 -2.8125 16.875 -2.8125 L 18.234375 -2.8125 C 18.828125 -2.8125 19.125 -3.113281 19.125 -3.71875 L 19.125 -4.75 C 19.125 -5.34375 19.421875 -5.640625 20.015625 -5.640625 L 21.0625 -5.640625 C 21.65625 -5.640625 21.953125 -5.9375 21.953125 -6.53125 L 21.953125 -32 C 21.953125 -32.601562 22.25 -32.90625 22.84375 -32.90625 L 33.75 -32.90625 C 34.34375 -32.90625 34.640625 -32.601562 34.640625 -32 L 34.640625 -12.171875 C 34.640625 -11.578125 34.34375 -11.28125 33.75 -11.28125 L 32.1875 -11.28125 C 31.59375 -11.28125 31.296875 -10.984375 31.296875 -10.390625 L 31.296875 -9.359375 C 31.296875 -8.753906 31 -8.453125 30.40625 -8.453125 L 29.375 -8.453125 C 28.78125 -8.453125 28.484375 -8.15625 28.484375 -7.5625 L 28.484375 -6.53125 C 28.484375 -5.9375 28.1875 -5.640625 27.59375 -5.640625 L 26.5625 -5.640625 C 25.957031 -5.640625 25.65625 -5.34375 25.65625 -4.75 L 25.65625 -3.71875 C 25.65625 -3.113281 25.359375 -2.8125 24.765625 -2.8125 L 24.296875 -2.8125 C 23.703125 -2.8125 23.40625 -2.515625 23.40625 -1.921875 L 23.40625 -0.890625 C 23.40625 -0.296875 23.109375 0 22.515625 0 L 7 0 C 6.40625 0 6.109375 -0.296875 6.109375 -0.890625 Z M 6.109375 -0.890625 "/></g></g></g><g fill="#000000" fill-opacity="0.5608"><g transform="translate(177.0569, 160.65214)"><g><path d="M 8.9375 -0.890625 L 8.9375 -1.921875 C 8.9375 -2.515625 8.632812 -2.8125 8.03125 -2.8125 L 7 -2.8125 C 6.40625 -2.8125 6.109375 -3.113281 6.109375 -3.71875 L 6.109375 -4.75 C 6.109375 -5.34375 5.8125 -5.640625 5.21875 -5.640625 L 4.1875 -5.640625 C 3.59375 -5.640625 3.296875 -5.9375 3.296875 -6.53125 L 3.296875 -26.359375 C 3.296875 -26.960938 3.59375 -27.265625 4.1875 -27.265625 L 5.21875 -27.265625 C 5.8125 -27.265625 6.109375 -27.5625 6.109375 -28.15625 L 6.109375 -29.1875 C 6.109375 -29.78125 6.40625 -30.078125 7 -30.078125 L 8.03125 -30.078125 C 8.632812 -30.078125 8.9375 -30.375 8.9375 -30.96875 L 8.9375 -32 C 8.9375 -32.601562 9.234375 -32.90625 9.828125 -32.90625 L 27.78125 -32.90625 C 28.375 -32.90625 28.671875 -32.601562 28.671875 -32 L 28.671875 -30.96875 C 28.671875 -30.375 28.96875 -30.078125 29.5625 -30.078125 L 30.59375 -30.078125 C 31.1875 -30.078125 31.484375 -29.78125 31.484375 -29.1875 L 31.484375 -28.15625 C 31.484375 -27.5625 31.785156 -27.265625 32.390625 -27.265625 L 33.421875 -27.265625 C 34.015625 -27.265625 34.3125 -26.960938 34.3125 -26.359375 L 34.3125 -18.75 C 34.3125 -18.15625 34.015625 -17.859375 33.421875 -17.859375 L 32.390625 -17.859375 C 31.785156 -17.859375 31.484375 -17.5625 31.484375 -16.96875 L 31.484375 -15.9375 C 31.484375 -15.34375 31.1875 -15.046875 30.59375 -15.046875 L 16.875 -15.046875 C 16.28125 -15.046875 15.984375 -14.742188 15.984375 -14.140625 L 15.984375 -3.71875 C 15.984375 -3.113281 16.28125 -2.8125 16.875 -2.8125 L 17.90625 -2.8125 C 18.5 -2.8125 18.796875 -3.113281 18.796875 -3.71875 L 18.796875 -4.75 C 18.796875 -5.34375 19.09375 -5.640625 19.6875 -5.640625 L 20.734375 -5.640625 C 21.328125 -5.640625 21.625 -5.9375 21.625 -6.53125 L 21.625 -9.78125 C 21.625 -10.375 21.921875 -10.671875 22.515625 -10.671875 L 33.421875 -10.671875 C 34.015625 -10.671875 34.3125 -10.375 34.3125 -9.78125 L 34.3125 -6.53125 C 34.3125 -5.9375 34.015625 -5.640625 33.421875 -5.640625 L 32.390625 -5.640625 C 31.785156 -5.640625 31.484375 -5.34375 31.484375 -4.75 L 31.484375 -3.71875 C 31.484375 -3.113281 31.1875 -2.8125 30.59375 -2.8125 L 29.5625 -2.8125 C 28.96875 -2.8125 28.671875 -2.515625 28.671875 -1.921875 L 28.671875 -0.890625 C 28.671875 -0.296875 28.375 0 27.78125 0 L 9.828125 0 C 9.234375 0 8.9375 -0.296875 8.9375 -0.890625 Z M 16.875 -17.859375 L 20.734375 -17.859375 C 21.328125 -17.859375 21.625 -18.15625 21.625 -18.75 L 21.625 -29.1875 C 21.625 -29.78125 21.328125 -30.078125 20.734375 -30.078125 L 19.6875 -30.078125 C 19.09375 -30.078125 18.796875 -29.78125 18.796875 -29.1875 L 18.796875 -28.15625 C 18.796875 -27.5625 18.5 -27.265625 17.90625 -27.265625 L 16.875 -27.265625 C 16.28125 -27.265625 15.984375 -26.960938 15.984375 -26.359375 L 15.984375 -18.75 C 15.984375 -18.15625 16.28125 -17.859375 16.875 -17.859375 Z M 16.875 -17.859375 "/></g></g></g><g fill="#000000" fill-opacity="0.5608"><g transform="translate(213.710755, 160.65214)"><g><path d="M 3.296875 -0.890625 L 3.296875 -32 C 3.296875 -32.601562 3.59375 -32.90625 4.1875 -32.90625 L 10.859375 -32.90625 C 11.453125 -32.90625 11.75 -32.601562 11.75 -32 L 11.75 -28.15625 C 11.75 -27.5625 12.046875 -27.265625 12.640625 -27.265625 L 13.671875 -27.265625 C 14.265625 -27.265625 14.5625 -27.5625 14.5625 -28.15625 L 14.5625 -29.1875 C 14.5625 -29.78125 14.863281 -30.078125 15.46875 -30.078125 L 16.5 -30.078125 C 17.09375 -30.078125 17.390625 -30.375 17.390625 -30.96875 L 17.390625 -32 C 17.390625 -32.601562 17.6875 -32.90625 18.28125 -32.90625 L 26.359375 -32.90625 C 26.960938 -32.90625 27.265625 -32.601562 27.265625 -32 L 27.265625 -30.96875 C 27.265625 -30.375 27.5625 -30.078125 28.15625 -30.078125 L 29.1875 -30.078125 C 29.4375 -30.078125 29.5625 -30.078125 29.5625 -30.078125 C 29.5625 -30.078125 29.4375 -30.078125 29.1875 -30.078125 L 28.15625 -30.078125 C 27.90625 -30.078125 27.78125 -30.078125 27.78125 -30.078125 C 27.78125 -30.078125 27.90625 -30.078125 28.15625 -30.078125 L 29.1875 -30.078125 C 29.78125 -30.078125 30.078125 -29.78125 30.078125 -29.1875 L 30.078125 -22.703125 C 30.078125 -22.109375 29.78125 -21.8125 29.1875 -21.8125 L 19.6875 -21.8125 C 19.09375 -21.8125 18.796875 -22.109375 18.796875 -22.703125 L 18.796875 -26.359375 C 18.796875 -26.960938 18.5 -27.265625 17.90625 -27.265625 L 16.875 -27.265625 C 16.28125 -27.265625 15.984375 -26.960938 15.984375 -26.359375 L 15.984375 -0.890625 C 15.984375 -0.296875 15.6875 0 15.09375 0 L 4.1875 0 C 3.59375 0 3.296875 -0.296875 3.296875 -0.890625 Z M 3.296875 -0.890625 "/></g></g></g><g fill="#000000" fill-opacity="0.5608"><g transform="translate(244.725558, 160.65214)"><g/></g></g><g fill="#000000" fill-opacity="0.5608"><g transform="translate(256.473592, 160.65214)"><g><path d="M 16.875 -2.8125 L 17.90625 -2.8125 C 18.5 -2.8125 18.796875 -3.113281 18.796875 -3.71875 L 18.796875 -4.75 C 18.796875 -5.34375 19.09375 -5.640625 19.6875 -5.640625 L 20.734375 -5.640625 C 21.328125 -5.640625 21.625 -5.9375 21.625 -6.53125 L 21.625 -29.09375 C 21.625 -29.6875 21.328125 -29.984375 20.734375 -29.984375 L 19.6875 -29.984375 C 19.09375 -29.984375 18.796875 -29.6875 18.796875 -29.09375 L 18.796875 -28.0625 C 18.796875 -27.46875 18.5 -27.171875 17.90625 -27.171875 L 16.875 -27.171875 C 16.28125 -27.171875 15.984375 -26.867188 15.984375 -26.265625 L 15.984375 -3.71875 C 15.984375 -3.113281 16.28125 -2.8125 16.875 -2.8125 Z M 6.109375 -0.890625 L 6.109375 -1.921875 C 6.109375 -2.515625 5.8125 -2.8125 5.21875 -2.8125 L 4.1875 -2.8125 C 3.9375 -2.8125 3.8125 -2.8125 3.8125 -2.8125 C 3.8125 -2.8125 3.9375 -2.8125 4.1875 -2.8125 L 5.21875 -2.8125 C 5.46875 -2.8125 5.59375 -2.8125 5.59375 -2.8125 C 5.59375 -2.8125 5.46875 -2.8125 5.21875 -2.8125 L 4.1875 -2.8125 C 3.59375 -2.8125 3.296875 -3.113281 3.296875 -3.71875 L 3.296875 -26.359375 C 3.296875 -26.960938 3.59375 -27.265625 4.1875 -27.265625 L 5.21875 -27.265625 C 5.8125 -27.265625 6.109375 -27.5625 6.109375 -28.15625 L 6.109375 -29.1875 C 6.109375 -29.78125 6.40625 -30.078125 7 -30.078125 L 8.03125 -30.078125 C 8.632812 -30.078125 8.9375 -30.375 8.9375 -30.96875 L 8.9375 -32 C 8.9375 -32.601562 9.234375 -32.90625 9.828125 -32.90625 L 30.640625 -32.90625 C 31.234375 -32.90625 31.53125 -32.601562 31.53125 -32 L 31.53125 -30.96875 C 31.53125 -30.375 31.832031 -30.078125 32.4375 -30.078125 L 33.421875 -30.078125 C 34.015625 -30.078125 34.3125 -29.78125 34.3125 -29.1875 L 34.3125 5.21875 C 34.3125 5.8125 34.015625 6.109375 33.421875 6.109375 L 32.390625 6.109375 C 31.785156 6.109375 31.484375 6.40625 31.484375 7 L 31.484375 8.03125 C 31.484375 8.632812 31.1875 8.9375 30.59375 8.9375 L 29.5625 8.9375 C 28.96875 8.9375 28.671875 9.234375 28.671875 9.828125 L 28.671875 10.859375 C 28.671875 11.453125 28.375 11.75 27.78125 11.75 L 7 11.75 C 6.40625 11.75 6.109375 11.453125 6.109375 10.859375 L 6.109375 9.828125 C 6.109375 9.234375 5.8125 8.9375 5.21875 8.9375 L 4.1875 8.9375 C 3.9375 8.9375 3.8125 8.9375 3.8125 8.9375 C 3.8125 8.9375 3.9375 8.9375 4.1875 8.9375 L 5.21875 8.9375 C 5.46875 8.9375 5.59375 8.9375 5.59375 8.9375 C 5.59375 8.9375 5.46875 8.9375 5.21875 8.9375 L 4.1875 8.9375 C 3.59375 8.9375 3.296875 8.632812 3.296875 8.03125 L 3.296875 4.1875 C 3.296875 3.59375 3.59375 3.296875 4.1875 3.296875 L 15.09375 3.296875 C 15.6875 3.296875 15.984375 3.59375 15.984375 4.1875 L 15.984375 4.9375 C 15.984375 5.53125 16.28125 5.828125 16.875 5.828125 L 17.4375 5.828125 C 18.03125 5.828125 18.328125 6.125 18.328125 6.71875 L 18.328125 8.03125 C 18.328125 8.632812 18.625 8.9375 19.21875 8.9375 L 22.140625 8.9375 C 22.734375 8.9375 23.03125 8.632812 23.03125 8.03125 L 23.03125 -1.921875 C 23.03125 -2.515625 22.734375 -2.8125 22.140625 -2.8125 L 21.109375 -2.8125 C 20.503906 -2.8125 20.203125 -2.515625 20.203125 -1.921875 L 20.203125 -0.890625 C 20.203125 -0.296875 19.90625 0 19.3125 0 L 7 0 C 6.40625 0 6.109375 -0.296875 6.109375 -0.890625 Z M 6.109375 -0.890625 "/></g></g></g><g fill="#000000" fill-opacity="0.5608"><g transform="translate(294.067282, 160.65214)"><g><path d="M 8.9375 -0.890625 L 8.9375 -1.921875 C 8.9375 -2.515625 8.632812 -2.8125 8.03125 -2.8125 L 7 -2.8125 C 6.40625 -2.8125 6.109375 -3.113281 6.109375 -3.71875 L 6.109375 -4.75 C 6.109375 -5.34375 5.8125 -5.640625 5.21875 -5.640625 L 4.1875 -5.640625 C 3.59375 -5.640625 3.296875 -5.9375 3.296875 -6.53125 L 3.296875 -26.359375 C 3.296875 -26.960938 3.59375 -27.265625 4.1875 -27.265625 L 5.21875 -27.265625 C 5.8125 -27.265625 6.109375 -27.5625 6.109375 -28.15625 L 6.109375 -29.1875 C 6.109375 -29.78125 6.40625 -30.078125 7 -30.078125 L 8.03125 -30.078125 C 8.632812 -30.078125 8.9375 -30.375 8.9375 -30.96875 L 8.9375 -32 C 8.9375 -32.601562 9.234375 -32.90625 9.828125 -32.90625 L 27.78125 -32.90625 C 28.375 -32.90625 28.671875 -32.601562 28.671875 -32 L 28.671875 -30.96875 C 28.671875 -30.375 28.96875 -30.078125 29.5625 -30.078125 L 30.59375 -30.078125 C 31.1875 -30.078125 31.484375 -29.78125 31.484375 -29.1875 L 31.484375 -28.15625 C 31.484375 -27.5625 31.785156 -27.265625 32.390625 -27.265625 L 33.421875 -27.265625 C 34.015625 -27.265625 34.3125 -26.960938 34.3125 -26.359375 L 34.3125 -6.53125 C 34.3125 -5.9375 34.015625 -5.640625 33.421875 -5.640625 L 32.390625 -5.640625 C 31.785156 -5.640625 31.484375 -5.34375 31.484375 -4.75 L 31.484375 -3.71875 C 31.484375 -3.113281 31.1875 -2.8125 30.59375 -2.8125 L 29.5625 -2.8125 C 28.96875 -2.8125 28.671875 -2.515625 28.671875 -1.921875 L 28.671875 -0.890625 C 28.671875 -0.296875 28.375 0 27.78125 0 L 9.828125 0 C 9.234375 0 8.9375 -0.296875 8.9375 -0.890625 Z M 19.6875 -5.640625 L 20.734375 -5.640625 C 21.328125 -5.640625 21.625 -5.9375 21.625 -6.53125 L 21.625 -29.1875 C 21.625 -29.78125 21.328125 -30.078125 20.734375 -30.078125 L 19.6875 -30.078125 C 19.09375 -30.078125 18.796875 -29.78125 18.796875 -29.1875 L 18.796875 -28.15625 C 18.796875 -27.5625 18.5 -27.265625 17.90625 -27.265625 L 16.875 -27.265625 C 16.28125 -27.265625 15.984375 -26.960938 15.984375 -26.359375 L 15.984375 -3.71875 C 15.984375 -3.113281 16.28125 -2.8125 16.875 -2.8125 L 17.90625 -2.8125 C 18.5 -2.8125 18.796875 -3.113281 18.796875 -3.71875 L 18.796875 -4.75 C 18.796875 -5.34375 19.09375 -5.640625 19.6875 -5.640625 Z M 19.6875 -5.640625 "/></g></g></g><g fill="#000000" fill-opacity="0.5608"><g transform="translate(331.660984, 160.65214)"><g><path d="M 3.296875 -0.890625 L 3.296875 -32 C 3.296875 -32.601562 3.59375 -32.90625 4.1875 -32.90625 L 10.859375 -32.90625 C 11.453125 -32.90625 11.75 -32.601562 11.75 -32 L 11.75 -28.15625 C 11.75 -27.5625 12.046875 -27.265625 12.640625 -27.265625 L 13.671875 -27.265625 C 14.265625 -27.265625 14.5625 -27.5625 14.5625 -28.15625 L 14.5625 -29.1875 C 14.5625 -29.78125 14.863281 -30.078125 15.46875 -30.078125 L 16.5 -30.078125 C 17.09375 -30.078125 17.390625 -30.375 17.390625 -30.96875 L 17.390625 -32 C 17.390625 -32.601562 17.6875 -32.90625 18.28125 -32.90625 L 30.59375 -32.90625 C 31.1875 -32.90625 31.484375 -32.601562 31.484375 -32 L 31.484375 -30.96875 C 31.484375 -30.375 31.785156 -30.078125 32.390625 -30.078125 L 33.421875 -30.078125 C 33.671875 -30.078125 33.796875 -30.078125 33.796875 -30.078125 C 33.796875 -30.078125 33.671875 -30.078125 33.421875 -30.078125 L 32.390625 -30.078125 C 32.128906 -30.078125 32 -30.078125 32 -30.078125 C 32 -30.078125 32.128906 -30.078125 32.390625 -30.078125 L 33.421875 -30.078125 C 34.015625 -30.078125 34.3125 -29.78125 34.3125 -29.1875 L 34.3125 -0.890625 C 34.3125 -0.296875 34.015625 0 33.421875 0 L 22.515625 0 C 21.921875 0 21.625 -0.296875 21.625 -0.890625 L 21.625 -29.1875 C 21.625 -29.78125 21.328125 -30.078125 20.734375 -30.078125 L 19.6875 -30.078125 C 19.09375 -30.078125 18.796875 -29.78125 18.796875 -29.1875 L 18.796875 -28.15625 C 18.796875 -27.5625 18.5 -27.265625 17.90625 -27.265625 L 16.875 -27.265625 C 16.28125 -27.265625 15.984375 -26.960938 15.984375 -26.359375 L 15.984375 -0.890625 C 15.984375 -0.296875 15.6875 0 15.09375 0 L 4.1875 0 C 3.59375 0 3.296875 -0.296875 3.296875 -0.890625 Z M 3.296875 -0.890625 "/></g></g></g><g fill="#000000" fill-opacity="0.5608"><g transform="translate(369.254685, 160.65214)"><g><path d="M 3.296875 -0.890625 L 3.296875 -32 C 3.296875 -32.601562 3.59375 -32.90625 4.1875 -32.90625 L 10.859375 -32.90625 C 11.453125 -32.90625 11.75 -32.601562 11.75 -32 L 11.75 -28.15625 C 11.75 -27.5625 12.046875 -27.265625 12.640625 -27.265625 L 13.671875 -27.265625 C 14.265625 -27.265625 14.5625 -27.5625 14.5625 -28.15625 L 14.5625 -29.1875 C 14.5625 -29.78125 14.863281 -30.078125 15.46875 -30.078125 L 16.5 -30.078125 C 17.09375 -30.078125 17.390625 -30.375 17.390625 -30.96875 L 17.390625 -32 C 17.390625 -32.601562 17.6875 -32.90625 18.28125 -32.90625 L 30.59375 -32.90625 C 31.1875 -32.90625 31.484375 -32.601562 31.484375 -32 L 31.484375 -30.96875 C 31.484375 -30.375 31.785156 -30.078125 32.390625 -30.078125 L 33.421875 -30.078125 C 33.671875 -30.078125 33.796875 -30.078125 33.796875 -30.078125 C 33.796875 -30.078125 33.671875 -30.078125 33.421875 -30.078125 L 32.390625 -30.078125 C 32.128906 -30.078125 32 -30.078125 32 -30.078125 C 32 -30.078125 32.128906 -30.078125 32.390625 -30.078125 L 33.421875 -30.078125 C 34.015625 -30.078125 34.3125 -29.78125 34.3125 -29.1875 L 34.3125 -0.890625 C 34.3125 -0.296875 34.015625 0 33.421875 0 L 22.515625 0 C 21.921875 0 21.625 -0.296875 21.625 -0.890625 L 21.625 -29.1875 C 21.625 -29.78125 21.328125 -30.078125 20.734375 -30.078125 L 19.6875 -30.078125 C 19.09375 -30.078125 18.796875 -29.78125 18.796875 -29.1875 L 18.796875 -28.15625 C 18.796875 -27.5625 18.5 -27.265625 17.90625 -27.265625 L 16.875 -27.265625 C 16.28125 -27.265625 15.984375 -26.960938 15.984375 -26.359375 L 15.984375 -0.890625 C 15.984375 -0.296875 15.6875 0 15.09375 0 L 4.1875 0 C 3.59375 0 3.296875 -0.296875 3.296875 -0.890625 Z M 3.296875 -0.890625 "/></g></g></g><g fill="#000000" fill-opacity="0.5608"><g transform="translate(406.848386, 160.65214)"><g><path d="M 19.78125 -15 L 15.9375 -15 C 15.34375 -15 15.046875 -14.695312 15.046875 -14.09375 L 15.046875 -3.71875 C 15.046875 -3.113281 15.34375 -2.8125 15.9375 -2.8125 L 16.96875 -2.8125 C 17.5625 -2.8125 17.859375 -3.113281 17.859375 -3.71875 L 17.859375 -4.75 C 17.859375 -5.34375 18.15625 -5.640625 18.75 -5.640625 L 19.78125 -5.640625 C 20.382812 -5.640625 20.6875 -5.9375 20.6875 -6.53125 L 20.6875 -14.09375 C 20.6875 -14.695312 20.382812 -15 19.78125 -15 Z M 5.171875 -0.890625 L 5.171875 -1.921875 C 5.171875 -2.515625 4.875 -2.8125 4.28125 -2.8125 L 3.25 -2.8125 C 2.644531 -2.8125 2.34375 -3.113281 2.34375 -3.71875 L 2.34375 -14.09375 C 2.34375 -14.695312 2.644531 -15 3.25 -15 L 4.28125 -15 C 4.875 -15 5.171875 -15.296875 5.171875 -15.890625 L 5.171875 -16.921875 C 5.171875 -17.515625 5.46875 -17.8125 6.0625 -17.8125 L 16.96875 -17.8125 C 17.5625 -17.8125 17.859375 -18.109375 17.859375 -18.703125 L 17.859375 -19.734375 C 17.859375 -20.335938 18.15625 -20.640625 18.75 -20.640625 L 21.203125 -20.640625 C 21.796875 -20.640625 22.09375 -20.9375 22.09375 -21.53125 L 22.09375 -29.1875 C 22.09375 -29.78125 21.796875 -30.078125 21.203125 -30.078125 L 18.75 -30.078125 C 18.15625 -30.078125 17.859375 -29.78125 17.859375 -29.1875 L 17.859375 -25.328125 C 17.859375 -24.734375 17.5625 -24.4375 16.96875 -24.4375 L 15.9375 -24.4375 C 15.34375 -24.4375 15.046875 -24.140625 15.046875 -23.546875 L 15.046875 -21.109375 C 15.046875 -20.503906 14.742188 -20.203125 14.140625 -20.203125 L 4.65625 -20.203125 C 4.0625 -20.203125 3.765625 -20.503906 3.765625 -21.109375 L 3.765625 -29.1875 C 3.765625 -29.78125 4.0625 -30.078125 4.65625 -30.078125 L 6.390625 -30.078125 C 6.984375 -30.078125 7.28125 -30.375 7.28125 -30.96875 L 7.28125 -32 C 7.28125 -32.601562 7.578125 -32.90625 8.171875 -32.90625 L 29.65625 -32.90625 C 30.25 -32.90625 30.546875 -32.601562 30.546875 -32 L 30.546875 -30.96875 C 30.546875 -30.375 30.84375 -30.078125 31.4375 -30.078125 L 32.484375 -30.078125 C 33.078125 -30.078125 33.375 -29.78125 33.375 -29.1875 L 33.375 -0.890625 C 33.375 -0.296875 33.078125 0 32.484375 0 L 24.390625 0 C 23.796875 0 23.5 -0.296875 23.5 -0.890625 L 23.5 -1.921875 C 23.5 -2.515625 23.203125 -2.8125 22.609375 -2.8125 L 21.578125 -2.8125 C 20.984375 -2.8125 20.6875 -2.515625 20.6875 -1.921875 L 20.6875 -0.890625 C 20.6875 -0.296875 20.382812 0 19.78125 0 L 6.0625 0 C 5.46875 0 5.171875 -0.296875 5.171875 -0.890625 Z M 5.171875 -0.890625 "/></g></g></g><g fill="#ffec45" fill-opacity="1"><g transform="translate(62.917973, 158.532256)"><g><path d="M 3.296875 -0.890625 L 3.296875 -32 C 3.296875 -32.601562 3.59375 -32.90625 4.1875 -32.90625 L 10.859375 -32.90625 C 11.453125 -32.90625 11.75 -32.601562 11.75 -32 L 11.75 -28.15625 C 11.75 -27.5625 12.046875 -27.265625 12.640625 -27.265625 L 13.671875 -27.265625 C 14.265625 -27.265625 14.5625 -27.5625 14.5625 -28.15625 L 14.5625 -29.1875 C 14.5625 -29.78125 14.863281 -30.078125 15.46875 -30.078125 L 16.5 -30.078125 C 17.09375 -30.078125 17.390625 -30.375 17.390625 -30.96875 L 17.390625 -32 C 17.390625 -32.601562 17.6875 -32.90625 18.28125 -32.90625 L 30.59375 -32.90625 C 31.1875 -32.90625 31.484375 -32.601562 31.484375 -32 L 31.484375 -30.96875 C 31.484375 -30.375 31.785156 -30.078125 32.390625 -30.078125 L 33.421875 -30.078125 C 33.671875 -30.078125 33.796875 -30.078125 33.796875 -30.078125 C 33.796875 -30.078125 33.671875 -30.078125 33.421875 -30.078125 L 32.390625 -30.078125 C 32.128906 -30.078125 32 -30.078125 32 -30.078125 C 32 -30.078125 32.128906 -30.078125 32.390625 -30.078125 L 33.421875 -30.078125 C 34.015625 -30.078125 34.3125 -29.78125 34.3125 -29.1875 L 34.3125 -0.890625 C 34.3125 -0.296875 34.015625 0 33.421875 0 L 22.515625 0 C 21.921875 0 21.625 -0.296875 21.625 -0.890625 L 21.625 -29.1875 C 21.625 -29.78125 21.328125 -30.078125 20.734375 -30.078125 L 19.6875 -30.078125 C 19.09375 -30.078125 18.796875 -29.78125 18.796875 -29.1875 L 18.796875 -28.15625 C 18.796875 -27.5625 18.5 -27.265625 17.90625 -27.265625 L 16.875 -27.265625 C 16.28125 -27.265625 15.984375 -26.960938 15.984375 -26.359375 L 15.984375 -0.890625 C 15.984375 -0.296875 15.6875 0 15.09375 0 L 4.1875 0 C 3.59375 0 3.296875 -0.296875 3.296875 -0.890625 Z M 3.296875 -0.890625 "/></g></g></g><g fill="#ffec45" fill-opacity="1"><g transform="translate(100.511674, 158.532256)"><g><path d="M 8.9375 -0.890625 L 8.9375 -1.921875 C 8.9375 -2.515625 8.632812 -2.8125 8.03125 -2.8125 L 7 -2.8125 C 6.40625 -2.8125 6.109375 -3.113281 6.109375 -3.71875 L 6.109375 -4.75 C 6.109375 -5.34375 5.8125 -5.640625 5.21875 -5.640625 L 4.1875 -5.640625 C 3.59375 -5.640625 3.296875 -5.9375 3.296875 -6.53125 L 3.296875 -26.359375 C 3.296875 -26.960938 3.59375 -27.265625 4.1875 -27.265625 L 5.21875 -27.265625 C 5.8125 -27.265625 6.109375 -27.5625 6.109375 -28.15625 L 6.109375 -29.1875 C 6.109375 -29.78125 6.40625 -30.078125 7 -30.078125 L 8.03125 -30.078125 C 8.632812 -30.078125 8.9375 -30.375 8.9375 -30.96875 L 8.9375 -32 C 8.9375 -32.601562 9.234375 -32.90625 9.828125 -32.90625 L 27.78125 -32.90625 C 28.375 -32.90625 28.671875 -32.601562 28.671875 -32 L 28.671875 -30.96875 C 28.671875 -30.375 28.96875 -30.078125 29.5625 -30.078125 L 30.59375 -30.078125 C 31.1875 -30.078125 31.484375 -29.78125 31.484375 -29.1875 L 31.484375 -28.15625 C 31.484375 -27.5625 31.785156 -27.265625 32.390625 -27.265625 L 33.421875 -27.265625 C 34.015625 -27.265625 34.3125 -26.960938 34.3125 -26.359375 L 34.3125 -18.75 C 34.3125 -18.15625 34.015625 -17.859375 33.421875 -17.859375 L 32.390625 -17.859375 C 31.785156 -17.859375 31.484375 -17.5625 31.484375 -16.96875 L 31.484375 -15.9375 C 31.484375 -15.34375 31.1875 -15.046875 30.59375 -15.046875 L 16.875 -15.046875 C 16.28125 -15.046875 15.984375 -14.742188 15.984375 -14.140625 L 15.984375 -3.71875 C 15.984375 -3.113281 16.28125 -2.8125 16.875 -2.8125 L 17.90625 -2.8125 C 18.5 -2.8125 18.796875 -3.113281 18.796875 -3.71875 L 18.796875 -4.75 C 18.796875 -5.34375 19.09375 -5.640625 19.6875 -5.640625 L 20.734375 -5.640625 C 21.328125 -5.640625 21.625 -5.9375 21.625 -6.53125 L 21.625 -9.78125 C 21.625 -10.375 21.921875 -10.671875 22.515625 -10.671875 L 33.421875 -10.671875 C 34.015625 -10.671875 34.3125 -10.375 34.3125 -9.78125 L 34.3125 -6.53125 C 34.3125 -5.9375 34.015625 -5.640625 33.421875 -5.640625 L 32.390625 -5.640625 C 31.785156 -5.640625 31.484375 -5.34375 31.484375 -4.75 L 31.484375 -3.71875 C 31.484375 -3.113281 31.1875 -2.8125 30.59375 -2.8125 L 29.5625 -2.8125 C 28.96875 -2.8125 28.671875 -2.515625 28.671875 -1.921875 L 28.671875 -0.890625 C 28.671875 -0.296875 28.375 0 27.78125 0 L 9.828125 0 C 9.234375 0 8.9375 -0.296875 8.9375 -0.890625 Z M 16.875 -17.859375 L 20.734375 -17.859375 C 21.328125 -17.859375 21.625 -18.15625 21.625 -18.75 L 21.625 -29.1875 C 21.625 -29.78125 21.328125 -30.078125 20.734375 -30.078125 L 19.6875 -30.078125 C 19.09375 -30.078125 18.796875 -29.78125 18.796875 -29.1875 L 18.796875 -28.15625 C 18.796875 -27.5625 18.5 -27.265625 17.90625 -27.265625 L 16.875 -27.265625 C 16.28125 -27.265625 15.984375 -26.960938 15.984375 -26.359375 L 15.984375 -18.75 C 15.984375 -18.15625 16.28125 -17.859375 16.875 -17.859375 Z M 16.875 -17.859375 "/></g></g></g><g fill="#ffec45" fill-opacity="1"><g transform="translate(137.16553, 158.532256)"><g><path d="M 6.109375 -0.890625 L 6.109375 -1.921875 C 6.109375 -2.515625 5.8125 -2.8125 5.21875 -2.8125 L 4.1875 -2.8125 C 3.59375 -2.8125 3.296875 -3.113281 3.296875 -3.71875 L 3.296875 -32 C 3.296875 -32.601562 3.59375 -32.90625 4.1875 -32.90625 L 15.09375 -32.90625 C 15.6875 -32.90625 15.984375 -32.601562 15.984375 -32 L 15.984375 -3.71875 C 15.984375 -3.113281 16.28125 -2.8125 16.875 -2.8125 L 18.234375 -2.8125 C 18.828125 -2.8125 19.125 -3.113281 19.125 -3.71875 L 19.125 -4.75 C 19.125 -5.34375 19.421875 -5.640625 20.015625 -5.640625 L 21.0625 -5.640625 C 21.65625 -5.640625 21.953125 -5.9375 21.953125 -6.53125 L 21.953125 -32 C 21.953125 -32.601562 22.25 -32.90625 22.84375 -32.90625 L 33.75 -32.90625 C 34.34375 -32.90625 34.640625 -32.601562 34.640625 -32 L 34.640625 -12.171875 C 34.640625 -11.578125 34.34375 -11.28125 33.75 -11.28125 L 32.1875 -11.28125 C 31.59375 -11.28125 31.296875 -10.984375 31.296875 -10.390625 L 31.296875 -9.359375 C 31.296875 -8.753906 31 -8.453125 30.40625 -8.453125 L 29.375 -8.453125 C 28.78125 -8.453125 28.484375 -8.15625 28.484375 -7.5625 L 28.484375 -6.53125 C 28.484375 -5.9375 28.1875 -5.640625 27.59375 -5.640625 L 26.5625 -5.640625 C 25.957031 -5.640625 25.65625 -5.34375 25.65625 -4.75 L 25.65625 -3.71875 C 25.65625 -3.113281 25.359375 -2.8125 24.765625 -2.8125 L 24.296875 -2.8125 C 23.703125 -2.8125 23.40625 -2.515625 23.40625 -1.921875 L 23.40625 -0.890625 C 23.40625 -0.296875 23.109375 0 22.515625 0 L 7 0 C 6.40625 0 6.109375 -0.296875 6.109375 -0.890625 Z M 6.109375 -0.890625 "/></g></g></g><g fill="#ffec45" fill-opacity="1"><g transform="translate(174.618251, 158.532256)"><g><path d="M 8.9375 -0.890625 L 8.9375 -1.921875 C 8.9375 -2.515625 8.632812 -2.8125 8.03125 -2.8125 L 7 -2.8125 C 6.40625 -2.8125 6.109375 -3.113281 6.109375 -3.71875 L 6.109375 -4.75 C 6.109375 -5.34375 5.8125 -5.640625 5.21875 -5.640625 L 4.1875 -5.640625 C 3.59375 -5.640625 3.296875 -5.9375 3.296875 -6.53125 L 3.296875 -26.359375 C 3.296875 -26.960938 3.59375 -27.265625 4.1875 -27.265625 L 5.21875 -27.265625 C 5.8125 -27.265625 6.109375 -27.5625 6.109375 -28.15625 L 6.109375 -29.1875 C 6.109375 -29.78125 6.40625 -30.078125 7 -30.078125 L 8.03125 -30.078125 C 8.632812 -30.078125 8.9375 -30.375 8.9375 -30.96875 L 8.9375 -32 C 8.9375 -32.601562 9.234375 -32.90625 9.828125 -32.90625 L 27.78125 -32.90625 C 28.375 -32.90625 28.671875 -32.601562 28.671875 -32 L 28.671875 -30.96875 C 28.671875 -30.375 28.96875 -30.078125 29.5625 -30.078125 L 30.59375 -30.078125 C 31.1875 -30.078125 31.484375 -29.78125 31.484375 -29.1875 L 31.484375 -28.15625 C 31.484375 -27.5625 31.785156 -27.265625 32.390625 -27.265625 L 33.421875 -27.265625 C 34.015625 -27.265625 34.3125 -26.960938 34.3125 -26.359375 L 34.3125 -18.75 C 34.3125 -18.15625 34.015625 -17.859375 33.421875 -17.859375 L 32.390625 -17.859375 C 31.785156 -17.859375 31.484375 -17.5625 31.484375 -16.96875 L 31.484375 -15.9375 C 31.484375 -15.34375 31.1875 -15.046875 30.59375 -15.046875 L 16.875 -15.046875 C 16.28125 -15.046875 15.984375 -14.742188 15.984375 -14.140625 L 15.984375 -3.71875 C 15.984375 -3.113281 16.28125 -2.8125 16.875 -2.8125 L 17.90625 -2.8125 C 18.5 -2.8125 18.796875 -3.113281 18.796875 -3.71875 L 18.796875 -4.75 C 18.796875 -5.34375 19.09375 -5.640625 19.6875 -5.640625 L 20.734375 -5.640625 C 21.328125 -5.640625 21.625 -5.9375 21.625 -6.53125 L 21.625 -9.78125 C 21.625 -10.375 21.921875 -10.671875 22.515625 -10.671875 L 33.421875 -10.671875 C 34.015625 -10.671875 34.3125 -10.375 34.3125 -9.78125 L 34.3125 -6.53125 C 34.3125 -5.9375 34.015625 -5.640625 33.421875 -5.640625 L 32.390625 -5.640625 C 31.785156 -5.640625 31.484375 -5.34375 31.484375 -4.75 L 31.484375 -3.71875 C 31.484375 -3.113281 31.1875 -2.8125 30.59375 -2.8125 L 29.5625 -2.8125 C 28.96875 -2.8125 28.671875 -2.515625 28.671875 -1.921875 L 28.671875 -0.890625 C 28.671875 -0.296875 28.375 0 27.78125 0 L 9.828125 0 C 9.234375 0 8.9375 -0.296875 8.9375 -0.890625 Z M 16.875 -17.859375 L 20.734375 -17.859375 C 21.328125 -17.859375 21.625 -18.15625 21.625 -18.75 L 21.625 -29.1875 C 21.625 -29.78125 21.328125 -30.078125 20.734375 -30.078125 L 19.6875 -30.078125 C 19.09375 -30.078125 18.796875 -29.78125 18.796875 -29.1875 L 18.796875 -28.15625 C 18.796875 -27.5625 18.5 -27.265625 17.90625 -27.265625 L 16.875 -27.265625 C 16.28125 -27.265625 15.984375 -26.960938 15.984375 -26.359375 L 15.984375 -18.75 C 15.984375 -18.15625 16.28125 -17.859375 16.875 -17.859375 Z M 16.875 -17.859375 "/></g></g></g><g fill="#ffec45" fill-opacity="1"><g transform="translate(211.272107, 158.532256)"><g><path d="M 3.296875 -0.890625 L 3.296875 -32 C 3.296875 -32.601562 3.59375 -32.90625 4.1875 -32.90625 L 10.859375 -32.90625 C 11.453125 -32.90625 11.75 -32.601562 11.75 -32 L 11.75 -28.15625 C 11.75 -27.5625 12.046875 -27.265625 12.640625 -27.265625 L 13.671875 -27.265625 C 14.265625 -27.265625 14.5625 -27.5625 14.5625 -28.15625 L 14.5625 -29.1875 C 14.5625 -29.78125 14.863281 -30.078125 15.46875 -30.078125 L 16.5 -30.078125 C 17.09375 -30.078125 17.390625 -30.375 17.390625 -30.96875 L 17.390625 -32 C 17.390625 -32.601562 17.6875 -32.90625 18.28125 -32.90625 L 26.359375 -32.90625 C 26.960938 -32.90625 27.265625 -32.601562 27.265625 -32 L 27.265625 -30.96875 C 27.265625 -30.375 27.5625 -30.078125 28.15625 -30.078125 L 29.1875 -30.078125 C 29.4375 -30.078125 29.5625 -30.078125 29.5625 -30.078125 C 29.5625 -30.078125 29.4375 -30.078125 29.1875 -30.078125 L 28.15625 -30.078125 C 27.90625 -30.078125 27.78125 -30.078125 27.78125 -30.078125 C 27.78125 -30.078125 27.90625 -30.078125 28.15625 -30.078125 L 29.1875 -30.078125 C 29.78125 -30.078125 30.078125 -29.78125 30.078125 -29.1875 L 30.078125 -22.703125 C 30.078125 -22.109375 29.78125 -21.8125 29.1875 -21.8125 L 19.6875 -21.8125 C 19.09375 -21.8125 18.796875 -22.109375 18.796875 -22.703125 L 18.796875 -26.359375 C 18.796875 -26.960938 18.5 -27.265625 17.90625 -27.265625 L 16.875 -27.265625 C 16.28125 -27.265625 15.984375 -26.960938 15.984375 -26.359375 L 15.984375 -0.890625 C 15.984375 -0.296875 15.6875 0 15.09375 0 L 4.1875 0 C 3.59375 0 3.296875 -0.296875 3.296875 -0.890625 Z M 3.296875 -0.890625 "/></g></g></g><g fill="#ffec45" fill-opacity="1"><g transform="translate(242.286909, 158.532256)"><g/></g></g><g fill="#ffec45" fill-opacity="1"><g transform="translate(254.034943, 158.532256)"><g><path d="M 16.875 -2.8125 L 17.90625 -2.8125 C 18.5 -2.8125 18.796875 -3.113281 18.796875 -3.71875 L 18.796875 -4.75 C 18.796875 -5.34375 19.09375 -5.640625 19.6875 -5.640625 L 20.734375 -5.640625 C 21.328125 -5.640625 21.625 -5.9375 21.625 -6.53125 L 21.625 -29.09375 C 21.625 -29.6875 21.328125 -29.984375 20.734375 -29.984375 L 19.6875 -29.984375 C 19.09375 -29.984375 18.796875 -29.6875 18.796875 -29.09375 L 18.796875 -28.0625 C 18.796875 -27.46875 18.5 -27.171875 17.90625 -27.171875 L 16.875 -27.171875 C 16.28125 -27.171875 15.984375 -26.867188 15.984375 -26.265625 L 15.984375 -3.71875 C 15.984375 -3.113281 16.28125 -2.8125 16.875 -2.8125 Z M 6.109375 -0.890625 L 6.109375 -1.921875 C 6.109375 -2.515625 5.8125 -2.8125 5.21875 -2.8125 L 4.1875 -2.8125 C 3.9375 -2.8125 3.8125 -2.8125 3.8125 -2.8125 C 3.8125 -2.8125 3.9375 -2.8125 4.1875 -2.8125 L 5.21875 -2.8125 C 5.46875 -2.8125 5.59375 -2.8125 5.59375 -2.8125 C 5.59375 -2.8125 5.46875 -2.8125 5.21875 -2.8125 L 4.1875 -2.8125 C 3.59375 -2.8125 3.296875 -3.113281 3.296875 -3.71875 L 3.296875 -26.359375 C 3.296875 -26.960938 3.59375 -27.265625 4.1875 -27.265625 L 5.21875 -27.265625 C 5.8125 -27.265625 6.109375 -27.5625 6.109375 -28.15625 L 6.109375 -29.1875 C 6.109375 -29.78125 6.40625 -30.078125 7 -30.078125 L 8.03125 -30.078125 C 8.632812 -30.078125 8.9375 -30.375 8.9375 -30.96875 L 8.9375 -32 C 8.9375 -32.601562 9.234375 -32.90625 9.828125 -32.90625 L 30.640625 -32.90625 C 31.234375 -32.90625 31.53125 -32.601562 31.53125 -32 L 31.53125 -30.96875 C 31.53125 -30.375 31.832031 -30.078125 32.4375 -30.078125 L 33.421875 -30.078125 C 34.015625 -30.078125 34.3125 -29.78125 34.3125 -29.1875 L 34.3125 5.21875 C 34.3125 5.8125 34.015625 6.109375 33.421875 6.109375 L 32.390625 6.109375 C 31.785156 6.109375 31.484375 6.40625 31.484375 7 L 31.484375 8.03125 C 31.484375 8.632812 31.1875 8.9375 30.59375 8.9375 L 29.5625 8.9375 C 28.96875 8.9375 28.671875 9.234375 28.671875 9.828125 L 28.671875 10.859375 C 28.671875 11.453125 28.375 11.75 27.78125 11.75 L 7 11.75 C 6.40625 11.75 6.109375 11.453125 6.109375 10.859375 L 6.109375 9.828125 C 6.109375 9.234375 5.8125 8.9375 5.21875 8.9375 L 4.1875 8.9375 C 3.9375 8.9375 3.8125 8.9375 3.8125 8.9375 C 3.8125 8.9375 3.9375 8.9375 4.1875 8.9375 L 5.21875 8.9375 C 5.46875 8.9375 5.59375 8.9375 5.59375 8.9375 C 5.59375 8.9375 5.46875 8.9375 5.21875 8.9375 L 4.1875 8.9375 C 3.59375 8.9375 3.296875 8.632812 3.296875 8.03125 L 3.296875 4.1875 C 3.296875 3.59375 3.59375 3.296875 4.1875 3.296875 L 15.09375 3.296875 C 15.6875 3.296875 15.984375 3.59375 15.984375 4.1875 L 15.984375 4.9375 C 15.984375 5.53125 16.28125 5.828125 16.875 5.828125 L 17.4375 5.828125 C 18.03125 5.828125 18.328125 6.125 18.328125 6.71875 L 18.328125 8.03125 C 18.328125 8.632812 18.625 8.9375 19.21875 8.9375 L 22.140625 8.9375 C 22.734375 8.9375 23.03125 8.632812 23.03125 8.03125 L 23.03125 -1.921875 C 23.03125 -2.515625 22.734375 -2.8125 22.140625 -2.8125 L 21.109375 -2.8125 C 20.503906 -2.8125 20.203125 -2.515625 20.203125 -1.921875 L 20.203125 -0.890625 C 20.203125 -0.296875 19.90625 0 19.3125 0 L 7 0 C 6.40625 0 6.109375 -0.296875 6.109375 -0.890625 Z M 6.109375 -0.890625 "/></g></g></g><g fill="#ffec45" fill-opacity="1"><g transform="translate(291.628634, 158.532256)"><g><path d="M 8.9375 -0.890625 L 8.9375 -1.921875 C 8.9375 -2.515625 8.632812 -2.8125 8.03125 -2.8125 L 7 -2.8125 C 6.40625 -2.8125 6.109375 -3.113281 6.109375 -3.71875 L 6.109375 -4.75 C 6.109375 -5.34375 5.8125 -5.640625 5.21875 -5.640625 L 4.1875 -5.640625 C 3.59375 -5.640625 3.296875 -5.9375 3.296875 -6.53125 L 3.296875 -26.359375 C 3.296875 -26.960938 3.59375 -27.265625 4.1875 -27.265625 L 5.21875 -27.265625 C 5.8125 -27.265625 6.109375 -27.5625 6.109375 -28.15625 L 6.109375 -29.1875 C 6.109375 -29.78125 6.40625 -30.078125 7 -30.078125 L 8.03125 -30.078125 C 8.632812 -30.078125 8.9375 -30.375 8.9375 -30.96875 L 8.9375 -32 C 8.9375 -32.601562 9.234375 -32.90625 9.828125 -32.90625 L 27.78125 -32.90625 C 28.375 -32.90625 28.671875 -32.601562 28.671875 -32 L 28.671875 -30.96875 C 28.671875 -30.375 28.96875 -30.078125 29.5625 -30.078125 L 30.59375 -30.078125 C 31.1875 -30.078125 31.484375 -29.78125 31.484375 -29.1875 L 31.484375 -28.15625 C 31.484375 -27.5625 31.785156 -27.265625 32.390625 -27.265625 L 33.421875 -27.265625 C 34.015625 -27.265625 34.3125 -26.960938 34.3125 -26.359375 L 34.3125 -6.53125 C 34.3125 -5.9375 34.015625 -5.640625 33.421875 -5.640625 L 32.390625 -5.640625 C 31.785156 -5.640625 31.484375 -5.34375 31.484375 -4.75 L 31.484375 -3.71875 C 31.484375 -3.113281 31.1875 -2.8125 30.59375 -2.8125 L 29.5625 -2.8125 C 28.96875 -2.8125 28.671875 -2.515625 28.671875 -1.921875 L 28.671875 -0.890625 C 28.671875 -0.296875 28.375 0 27.78125 0 L 9.828125 0 C 9.234375 0 8.9375 -0.296875 8.9375 -0.890625 Z M 19.6875 -5.640625 L 20.734375 -5.640625 C 21.328125 -5.640625 21.625 -5.9375 21.625 -6.53125 L 21.625 -29.1875 C 21.625 -29.78125 21.328125 -30.078125 20.734375 -30.078125 L 19.6875 -30.078125 C 19.09375 -30.078125 18.796875 -29.78125 18.796875 -29.1875 L 18.796875 -28.15625 C 18.796875 -27.5625 18.5 -27.265625 17.90625 -27.265625 L 16.875 -27.265625 C 16.28125 -27.265625 15.984375 -26.960938 15.984375 -26.359375 L 15.984375 -3.71875 C 15.984375 -3.113281 16.28125 -2.8125 16.875 -2.8125 L 17.90625 -2.8125 C 18.5 -2.8125 18.796875 -3.113281 18.796875 -3.71875 L 18.796875 -4.75 C 18.796875 -5.34375 19.09375 -5.640625 19.6875 -5.640625 Z M 19.6875 -5.640625 "/></g></g></g><g fill="#ffec45" fill-opacity="1"><g transform="translate(329.222335, 158.532256)"><g><path d="M 3.296875 -0.890625 L 3.296875 -32 C 3.296875 -32.601562 3.59375 -32.90625 4.1875 -32.90625 L 10.859375 -32.90625 C 11.453125 -32.90625 11.75 -32.601562 11.75 -32 L 11.75 -28.15625 C 11.75 -27.5625 12.046875 -27.265625 12.640625 -27.265625 L 13.671875 -27.265625 C 14.265625 -27.265625 14.5625 -27.5625 14.5625 -28.15625 L 14.5625 -29.1875 C 14.5625 -29.78125 14.863281 -30.078125 15.46875 -30.078125 L 16.5 -30.078125 C 17.09375 -30.078125 17.390625 -30.375 17.390625 -30.96875 L 17.390625 -32 C 17.390625 -32.601562 17.6875 -32.90625 18.28125 -32.90625 L 30.59375 -32.90625 C 31.1875 -32.90625 31.484375 -32.601562 31.484375 -32 L 31.484375 -30.96875 C 31.484375 -30.375 31.785156 -30.078125 32.390625 -30.078125 L 33.421875 -30.078125 C 33.671875 -30.078125 33.796875 -30.078125 33.796875 -30.078125 C 33.796875 -30.078125 33.671875 -30.078125 33.421875 -30.078125 L 32.390625 -30.078125 C 32.128906 -30.078125 32 -30.078125 32 -30.078125 C 32 -30.078125 32.128906 -30.078125 32.390625 -30.078125 L 33.421875 -30.078125 C 34.015625 -30.078125 34.3125 -29.78125 34.3125 -29.1875 L 34.3125 -0.890625 C 34.3125 -0.296875 34.015625 0 33.421875 0 L 22.515625 0 C 21.921875 0 21.625 -0.296875 21.625 -0.890625 L 21.625 -29.1875 C 21.625 -29.78125 21.328125 -30.078125 20.734375 -30.078125 L 19.6875 -30.078125 C 19.09375 -30.078125 18.796875 -29.78125 18.796875 -29.1875 L 18.796875 -28.15625 C 18.796875 -27.5625 18.5 -27.265625 17.90625 -27.265625 L 16.875 -27.265625 C 16.28125 -27.265625 15.984375 -26.960938 15.984375 -26.359375 L 15.984375 -0.890625 C 15.984375 -0.296875 15.6875 0 15.09375 0 L 4.1875 0 C 3.59375 0 3.296875 -0.296875 3.296875 -0.890625 Z M 3.296875 -0.890625 "/></g></g></g><g fill="#ffec45" fill-opacity="1"><g transform="translate(366.816036, 158.532256)"><g><path d="M 3.296875 -0.890625 L 3.296875 -32 C 3.296875 -32.601562 3.59375 -32.90625 4.1875 -32.90625 L 10.859375 -32.90625 C 11.453125 -32.90625 11.75 -32.601562 11.75 -32 L 11.75 -28.15625 C 11.75 -27.5625 12.046875 -27.265625 12.640625 -27.265625 L 13.671875 -27.265625 C 14.265625 -27.265625 14.5625 -27.5625 14.5625 -28.15625 L 14.5625 -29.1875 C 14.5625 -29.78125 14.863281 -30.078125 15.46875 -30.078125 L 16.5 -30.078125 C 17.09375 -30.078125 17.390625 -30.375 17.390625 -30.96875 L 17.390625 -32 C 17.390625 -32.601562 17.6875 -32.90625 18.28125 -32.90625 L 30.59375 -32.90625 C 31.1875 -32.90625 31.484375 -32.601562 31.484375 -32 L 31.484375 -30.96875 C 31.484375 -30.375 31.785156 -30.078125 32.390625 -30.078125 L 33.421875 -30.078125 C 33.671875 -30.078125 33.796875 -30.078125 33.796875 -30.078125 C 33.796875 -30.078125 33.671875 -30.078125 33.421875 -30.078125 L 32.390625 -30.078125 C 32.128906 -30.078125 32 -30.078125 32 -30.078125 C 32 -30.078125 32.128906 -30.078125 32.390625 -30.078125 L 33.421875 -30.078125 C 34.015625 -30.078125 34.3125 -29.78125 34.3125 -29.1875 L 34.3125 -0.890625 C 34.3125 -0.296875 34.015625 0 33.421875 0 L 22.515625 0 C 21.921875 0 21.625 -0.296875 21.625 -0.890625 L 21.625 -29.1875 C 21.625 -29.78125 21.328125 -30.078125 20.734375 -30.078125 L 19.6875 -30.078125 C 19.09375 -30.078125 18.796875 -29.78125 18.796875 -29.1875 L 18.796875 -28.15625 C 18.796875 -27.5625 18.5 -27.265625 17.90625 -27.265625 L 16.875 -27.265625 C 16.28125 -27.265625 15.984375 -26.960938 15.984375 -26.359375 L 15.984375 -0.890625 C 15.984375 -0.296875 15.6875 0 15.09375 0 L 4.1875 0 C 3.59375 0 3.296875 -0.296875 3.296875 -0.890625 Z M 3.296875 -0.890625 "/></g></g></g><g fill="#ffec45" fill-opacity="1"><g transform="translate(404.409737, 158.532256)"><g><path d="M 19.78125 -15 L 15.9375 -15 C 15.34375 -15 15.046875 -14.695312 15.046875 -14.09375 L 15.046875 -3.71875 C 15.046875 -3.113281 15.34375 -2.8125 15.9375 -2.8125 L 16.96875 -2.8125 C 17.5625 -2.8125 17.859375 -3.113281 17.859375 -3.71875 L 17.859375 -4.75 C 17.859375 -5.34375 18.15625 -5.640625 18.75 -5.640625 L 19.78125 -5.640625 C 20.382812 -5.640625 20.6875 -5.9375 20.6875 -6.53125 L 20.6875 -14.09375 C 20.6875 -14.695312 20.382812 -15 19.78125 -15 Z M 5.171875 -0.890625 L 5.171875 -1.921875 C 5.171875 -2.515625 4.875 -2.8125 4.28125 -2.8125 L 3.25 -2.8125 C 2.644531 -2.8125 2.34375 -3.113281 2.34375 -3.71875 L 2.34375 -14.09375 C 2.34375 -14.695312 2.644531 -15 3.25 -15 L 4.28125 -15 C 4.875 -15 5.171875 -15.296875 5.171875 -15.890625 L 5.171875 -16.921875 C 5.171875 -17.515625 5.46875 -17.8125 6.0625 -17.8125 L 16.96875 -17.8125 C 17.5625 -17.8125 17.859375 -18.109375 17.859375 -18.703125 L 17.859375 -19.734375 C 17.859375 -20.335938 18.15625 -20.640625 18.75 -20.640625 L 21.203125 -20.640625 C 21.796875 -20.640625 22.09375 -20.9375 22.09375 -21.53125 L 22.09375 -29.1875 C 22.09375 -29.78125 21.796875 -30.078125 21.203125 -30.078125 L 18.75 -30.078125 C 18.15625 -30.078125 17.859375 -29.78125 17.859375 -29.1875 L 17.859375 -25.328125 C 17.859375 -24.734375 17.5625 -24.4375 16.96875 -24.4375 L 15.9375 -24.4375 C 15.34375 -24.4375 15.046875 -24.140625 15.046875 -23.546875 L 15.046875 -21.109375 C 15.046875 -20.503906 14.742188 -20.203125 14.140625 -20.203125 L 4.65625 -20.203125 C 4.0625 -20.203125 3.765625 -20.503906 3.765625 -21.109375 L 3.765625 -29.1875 C 3.765625 -29.78125 4.0625 -30.078125 4.65625 -30.078125 L 6.390625 -30.078125 C 6.984375 -30.078125 7.28125 -30.375 7.28125 -30.96875 L 7.28125 -32 C 7.28125 -32.601562 7.578125 -32.90625 8.171875 -32.90625 L 29.65625 -32.90625 C 30.25 -32.90625 30.546875 -32.601562 30.546875 -32 L 30.546875 -30.96875 C 30.546875 -30.375 30.84375 -30.078125 31.4375 -30.078125 L 32.484375 -30.078125 C 33.078125 -30.078125 33.375 -29.78125 33.375 -29.1875 L 33.375 -0.890625 C 33.375 -0.296875 33.078125 0 32.484375 0 L 24.390625 0 C 23.796875 0 23.5 -0.296875 23.5 -0.890625 L 23.5 -1.921875 C 23.5 -2.515625 23.203125 -2.8125 22.609375 -2.8125 L 21.578125 -2.8125 C 20.984375 -2.8125 20.6875 -2.515625 20.6875 -1.921875 L 20.6875 -0.890625 C 20.6875 -0.296875 20.382812 0 19.78125 0 L 6.0625 0 C 5.46875 0 5.171875 -0.296875 5.171875 -0.890625 Z M 5.171875 -0.890625 "/></g></g></g><g fill="#000000" fill-opacity="0.5608"><g transform="translate(83.215996, 225.902135)"><g><path d="M 16.875 -2.8125 L 17.90625 -2.8125 C 18.5 -2.8125 18.796875 -3.113281 18.796875 -3.71875 L 18.796875 -4.75 C 18.796875 -5.34375 19.09375 -5.640625 19.6875 -5.640625 L 20.734375 -5.640625 C 21.328125 -5.640625 21.625 -5.9375 21.625 -6.53125 L 21.625 -29.09375 C 21.625 -29.6875 21.328125 -29.984375 20.734375 -29.984375 L 19.6875 -29.984375 C 19.09375 -29.984375 18.796875 -29.6875 18.796875 -29.09375 L 18.796875 -28.0625 C 18.796875 -27.46875 18.5 -27.171875 17.90625 -27.171875 L 16.875 -27.171875 C 16.28125 -27.171875 15.984375 -26.867188 15.984375 -26.265625 L 15.984375 -3.71875 C 15.984375 -3.113281 16.28125 -2.8125 16.875 -2.8125 Z M 6.109375 -0.890625 L 6.109375 -1.921875 C 6.109375 -2.515625 5.8125 -2.8125 5.21875 -2.8125 L 4.1875 -2.8125 C 3.9375 -2.8125 3.8125 -2.8125 3.8125 -2.8125 C 3.8125 -2.8125 3.9375 -2.8125 4.1875 -2.8125 L 5.21875 -2.8125 C 5.46875 -2.8125 5.59375 -2.8125 5.59375 -2.8125 C 5.59375 -2.8125 5.46875 -2.8125 5.21875 -2.8125 L 4.1875 -2.8125 C 3.59375 -2.8125 3.296875 -3.113281 3.296875 -3.71875 L 3.296875 -26.359375 C 3.296875 -26.960938 3.59375 -27.265625 4.1875 -27.265625 L 5.21875 -27.265625 C 5.8125 -27.265625 6.109375 -27.5625 6.109375 -28.15625 L 6.109375 -29.1875 C 6.109375 -29.78125 6.40625 -30.078125 7 -30.078125 L 8.03125 -30.078125 C 8.632812 -30.078125 8.9375 -30.375 8.9375 -30.96875 L 8.9375 -32 C 8.9375 -32.601562 9.234375 -32.90625 9.828125 -32.90625 L 30.640625 -32.90625 C 31.234375 -32.90625 31.53125 -32.601562 31.53125 -32 L 31.53125 -30.96875 C 31.53125 -30.375 31.832031 -30.078125 32.4375 -30.078125 L 33.421875 -30.078125 C 34.015625 -30.078125 34.3125 -29.78125 34.3125 -29.1875 L 34.3125 5.21875 C 34.3125 5.8125 34.015625 6.109375 33.421875 6.109375 L 32.390625 6.109375 C 31.785156 6.109375 31.484375 6.40625 31.484375 7 L 31.484375 8.03125 C 31.484375 8.632812 31.1875 8.9375 30.59375 8.9375 L 29.5625 8.9375 C 28.96875 8.9375 28.671875 9.234375 28.671875 9.828125 L 28.671875 10.859375 C 28.671875 11.453125 28.375 11.75 27.78125 11.75 L 7 11.75 C 6.40625 11.75 6.109375 11.453125 6.109375 10.859375 L 6.109375 9.828125 C 6.109375 9.234375 5.8125 8.9375 5.21875 8.9375 L 4.1875 8.9375 C 3.9375 8.9375 3.8125 8.9375 3.8125 8.9375 C 3.8125 8.9375 3.9375 8.9375 4.1875 8.9375 L 5.21875 8.9375 C 5.46875 8.9375 5.59375 8.9375 5.59375 8.9375 C 5.59375 8.9375 5.46875 8.9375 5.21875 8.9375 L 4.1875 8.9375 C 3.59375 8.9375 3.296875 8.632812 3.296875 8.03125 L 3.296875 4.1875 C 3.296875 3.59375 3.59375 3.296875 4.1875 3.296875 L 15.09375 3.296875 C 15.6875 3.296875 15.984375 3.59375 15.984375 4.1875 L 15.984375 4.9375 C 15.984375 5.53125 16.28125 5.828125 16.875 5.828125 L 17.4375 5.828125 C 18.03125 5.828125 18.328125 6.125 18.328125 6.71875 L 18.328125 8.03125 C 18.328125 8.632812 18.625 8.9375 19.21875 8.9375 L 22.140625 8.9375 C 22.734375 8.9375 23.03125 8.632812 23.03125 8.03125 L 23.03125 -1.921875 C 23.03125 -2.515625 22.734375 -2.8125 22.140625 -2.8125 L 21.109375 -2.8125 C 20.503906 -2.8125 20.203125 -2.515625 20.203125 -1.921875 L 20.203125 -0.890625 C 20.203125 -0.296875 19.90625 0 19.3125 0 L 7 0 C 6.40625 0 6.109375 -0.296875 6.109375 -0.890625 Z M 6.109375 -0.890625 "/></g></g></g><g fill="#000000" fill-opacity="0.5608"><g transform="translate(120.809697, 225.902135)"><g><path d="M 3.296875 -0.890625 L 3.296875 -32 C 3.296875 -32.601562 3.59375 -32.90625 4.1875 -32.90625 L 15.09375 -32.90625 C 15.6875 -32.90625 15.984375 -32.601562 15.984375 -32 L 15.984375 -0.890625 C 15.984375 -0.296875 15.6875 0 15.09375 0 L 4.1875 0 C 3.59375 0 3.296875 -0.296875 3.296875 -0.890625 Z M 4.703125 -36.609375 L 4.703125 -36.703125 C 4.703125 -37.296875 4.375 -37.59375 3.71875 -37.59375 C 3.113281 -37.59375 2.8125 -37.894531 2.8125 -38.5 L 2.8125 -42.8125 C 2.8125 -43.40625 3.144531 -43.703125 3.8125 -43.703125 C 4.40625 -43.703125 4.703125 -44.035156 4.703125 -44.703125 C 4.703125 -45.296875 5 -45.59375 5.59375 -45.59375 L 13.671875 -45.59375 C 14.265625 -45.59375 14.5625 -45.265625 14.5625 -44.609375 C 14.5625 -44.003906 14.894531 -43.703125 15.5625 -43.703125 C 16.15625 -43.703125 16.453125 -43.40625 16.453125 -42.8125 L 16.453125 -38.5 C 16.453125 -37.894531 16.125 -37.59375 15.46875 -37.59375 C 14.863281 -37.59375 14.5625 -37.265625 14.5625 -36.609375 C 14.5625 -36.015625 14.265625 -35.71875 13.671875 -35.71875 L 5.59375 -35.71875 C 5 -35.71875 4.703125 -36.015625 4.703125 -36.609375 Z M 4.703125 -36.609375 "/></g></g></g><g fill="#000000" fill-opacity="0.5608"><g transform="translate(140.076465, 225.902135)"><g><path d="M 6.109375 -0.890625 L 6.109375 -1.921875 C 6.109375 -2.515625 5.8125 -2.8125 5.21875 -2.8125 L 4.1875 -2.8125 C 3.59375 -2.8125 3.296875 -3.113281 3.296875 -3.71875 L 3.296875 -32 C 3.296875 -32.601562 3.59375 -32.90625 4.1875 -32.90625 L 15.09375 -32.90625 C 15.6875 -32.90625 15.984375 -32.601562 15.984375 -32 L 15.984375 -3.71875 C 15.984375 -3.113281 16.28125 -2.8125 16.875 -2.8125 L 18.234375 -2.8125 C 18.828125 -2.8125 19.125 -3.113281 19.125 -3.71875 L 19.125 -4.75 C 19.125 -5.34375 19.421875 -5.640625 20.015625 -5.640625 L 21.0625 -5.640625 C 21.65625 -5.640625 21.953125 -5.9375 21.953125 -6.53125 L 21.953125 -32 C 21.953125 -32.601562 22.25 -32.90625 22.84375 -32.90625 L 33.75 -32.90625 C 34.34375 -32.90625 34.640625 -32.601562 34.640625 -32 L 34.640625 -12.171875 C 34.640625 -11.578125 34.34375 -11.28125 33.75 -11.28125 L 32.1875 -11.28125 C 31.59375 -11.28125 31.296875 -10.984375 31.296875 -10.390625 L 31.296875 -9.359375 C 31.296875 -8.753906 31 -8.453125 30.40625 -8.453125 L 29.375 -8.453125 C 28.78125 -8.453125 28.484375 -8.15625 28.484375 -7.5625 L 28.484375 -6.53125 C 28.484375 -5.9375 28.1875 -5.640625 27.59375 -5.640625 L 26.5625 -5.640625 C 25.957031 -5.640625 25.65625 -5.34375 25.65625 -4.75 L 25.65625 -3.71875 C 25.65625 -3.113281 25.359375 -2.8125 24.765625 -2.8125 L 24.296875 -2.8125 C 23.703125 -2.8125 23.40625 -2.515625 23.40625 -1.921875 L 23.40625 -0.890625 C 23.40625 -0.296875 23.109375 0 22.515625 0 L 7 0 C 6.40625 0 6.109375 -0.296875 6.109375 -0.890625 Z M 6.109375 -0.890625 "/></g></g></g><g fill="#000000" fill-opacity="0.5608"><g transform="translate(177.529186, 225.902135)"><g><path d="M 8.9375 -0.890625 L 8.9375 -1.921875 C 8.9375 -2.515625 8.632812 -2.8125 8.03125 -2.8125 L 7 -2.8125 C 6.40625 -2.8125 6.109375 -3.113281 6.109375 -3.71875 L 6.109375 -4.75 C 6.109375 -5.34375 5.8125 -5.640625 5.21875 -5.640625 L 4.1875 -5.640625 C 3.59375 -5.640625 3.296875 -5.9375 3.296875 -6.53125 L 3.296875 -26.359375 C 3.296875 -26.960938 3.59375 -27.265625 4.1875 -27.265625 L 5.21875 -27.265625 C 5.8125 -27.265625 6.109375 -27.5625 6.109375 -28.15625 L 6.109375 -29.1875 C 6.109375 -29.78125 6.40625 -30.078125 7 -30.078125 L 8.03125 -30.078125 C 8.632812 -30.078125 8.9375 -30.375 8.9375 -30.96875 L 8.9375 -32 C 8.9375 -32.601562 9.234375 -32.90625 9.828125 -32.90625 L 27.78125 -32.90625 C 28.375 -32.90625 28.671875 -32.601562 28.671875 -32 L 28.671875 -30.96875 C 28.671875 -30.375 28.96875 -30.078125 29.5625 -30.078125 L 30.59375 -30.078125 C 31.1875 -30.078125 31.484375 -29.78125 31.484375 -29.1875 L 31.484375 -28.15625 C 31.484375 -27.5625 31.785156 -27.265625 32.390625 -27.265625 L 33.421875 -27.265625 C 34.015625 -27.265625 34.3125 -26.960938 34.3125 -26.359375 L 34.3125 -18.75 C 34.3125 -18.15625 34.015625 -17.859375 33.421875 -17.859375 L 32.390625 -17.859375 C 31.785156 -17.859375 31.484375 -17.5625 31.484375 -16.96875 L 31.484375 -15.9375 C 31.484375 -15.34375 31.1875 -15.046875 30.59375 -15.046875 L 16.875 -15.046875 C 16.28125 -15.046875 15.984375 -14.742188 15.984375 -14.140625 L 15.984375 -3.71875 C 15.984375 -3.113281 16.28125 -2.8125 16.875 -2.8125 L 17.90625 -2.8125 C 18.5 -2.8125 18.796875 -3.113281 18.796875 -3.71875 L 18.796875 -4.75 C 18.796875 -5.34375 19.09375 -5.640625 19.6875 -5.640625 L 20.734375 -5.640625 C 21.328125 -5.640625 21.625 -5.9375 21.625 -6.53125 L 21.625 -9.78125 C 21.625 -10.375 21.921875 -10.671875 22.515625 -10.671875 L 33.421875 -10.671875 C 34.015625 -10.671875 34.3125 -10.375 34.3125 -9.78125 L 34.3125 -6.53125 C 34.3125 -5.9375 34.015625 -5.640625 33.421875 -5.640625 L 32.390625 -5.640625 C 31.785156 -5.640625 31.484375 -5.34375 31.484375 -4.75 L 31.484375 -3.71875 C 31.484375 -3.113281 31.1875 -2.8125 30.59375 -2.8125 L 29.5625 -2.8125 C 28.96875 -2.8125 28.671875 -2.515625 28.671875 -1.921875 L 28.671875 -0.890625 C 28.671875 -0.296875 28.375 0 27.78125 0 L 9.828125 0 C 9.234375 0 8.9375 -0.296875 8.9375 -0.890625 Z M 16.875 -17.859375 L 20.734375 -17.859375 C 21.328125 -17.859375 21.625 -18.15625 21.625 -18.75 L 21.625 -29.1875 C 21.625 -29.78125 21.328125 -30.078125 20.734375 -30.078125 L 19.6875 -30.078125 C 19.09375 -30.078125 18.796875 -29.78125 18.796875 -29.1875 L 18.796875 -28.15625 C 18.796875 -27.5625 18.5 -27.265625 17.90625 -27.265625 L 16.875 -27.265625 C 16.28125 -27.265625 15.984375 -26.960938 15.984375 -26.359375 L 15.984375 -18.75 C 15.984375 -18.15625 16.28125 -17.859375 16.875 -17.859375 Z M 16.875 -17.859375 "/></g></g></g><g fill="#000000" fill-opacity="0.5608"><g transform="translate(214.183042, 225.902135)"><g/></g></g><g fill="#000000" fill-opacity="0.5608"><g transform="translate(225.931076, 225.902135)"><g><path d="M 6.109375 -0.890625 L 6.109375 -1.921875 C 6.109375 -2.515625 5.8125 -2.8125 5.21875 -2.8125 L 4.1875 -2.8125 C 3.9375 -2.8125 3.8125 -2.8125 3.8125 -2.8125 C 3.8125 -2.8125 3.9375 -2.8125 4.1875 -2.8125 L 5.21875 -2.8125 C 5.46875 -2.8125 5.59375 -2.8125 5.59375 -2.8125 C 5.59375 -2.8125 5.46875 -2.8125 5.21875 -2.8125 L 4.1875 -2.8125 C 3.59375 -2.8125 3.296875 -3.113281 3.296875 -3.71875 L 3.296875 -32 C 3.296875 -32.601562 3.59375 -32.90625 4.1875 -32.90625 L 15.09375 -32.90625 C 15.6875 -32.90625 15.984375 -32.601562 15.984375 -32 L 15.984375 -3.71875 C 15.984375 -3.113281 16.28125 -2.8125 16.875 -2.8125 L 17.90625 -2.8125 C 18.5 -2.8125 18.796875 -3.113281 18.796875 -3.71875 L 18.796875 -4.75 C 18.796875 -5.34375 19.09375 -5.640625 19.6875 -5.640625 L 20.734375 -5.640625 C 21.328125 -5.640625 21.625 -5.9375 21.625 -6.53125 L 21.625 -32 C 21.625 -32.601562 21.921875 -32.90625 22.515625 -32.90625 L 33.421875 -32.90625 C 34.015625 -32.90625 34.3125 -32.601562 34.3125 -32 L 34.3125 5.21875 C 34.3125 5.8125 34.015625 6.109375 33.421875 6.109375 L 32.390625 6.109375 C 31.785156 6.109375 31.484375 6.40625 31.484375 7 L 31.484375 8.03125 C 31.484375 8.632812 31.1875 8.9375 30.59375 8.9375 L 29.5625 8.9375 C 28.96875 8.9375 28.671875 9.234375 28.671875 9.828125 L 28.671875 10.859375 C 28.671875 11.453125 28.375 11.75 27.78125 11.75 L 7 11.75 C 6.40625 11.75 6.109375 11.453125 6.109375 10.859375 L 6.109375 9.828125 C 6.109375 9.234375 5.8125 8.9375 5.21875 8.9375 L 4.1875 8.9375 C 3.9375 8.9375 3.8125 8.9375 3.8125 8.9375 C 3.8125 8.9375 3.9375 8.9375 4.1875 8.9375 L 5.21875 8.9375 C 5.46875 8.9375 5.59375 8.9375 5.59375 8.9375 C 5.59375 8.9375 5.46875 8.9375 5.21875 8.9375 L 4.1875 8.9375 C 3.59375 8.9375 3.296875 8.632812 3.296875 8.03125 L 3.296875 4.1875 C 3.296875 3.59375 3.59375 3.296875 4.1875 3.296875 L 15.09375 3.296875 C 15.6875 3.296875 15.984375 3.59375 15.984375 4.1875 L 15.984375 4.9375 C 15.984375 5.53125 16.28125 5.828125 16.875 5.828125 L 17.4375 5.828125 C 18.03125 5.828125 18.328125 6.125 18.328125 6.71875 L 18.328125 8.03125 C 18.328125 8.632812 18.625 8.9375 19.21875 8.9375 L 22.140625 8.9375 C 22.734375 8.9375 23.03125 8.632812 23.03125 8.03125 L 23.03125 -1.921875 C 23.03125 -2.515625 22.734375 -2.8125 22.140625 -2.8125 L 21.109375 -2.8125 C 20.503906 -2.8125 20.203125 -2.515625 20.203125 -1.921875 L 20.203125 -0.890625 C 20.203125 -0.296875 19.90625 0 19.3125 0 L 7 0 C 6.40625 0 6.109375 -0.296875 6.109375 -0.890625 Z M 6.109375 -0.890625 "/></g></g></g><g fill="#000000" fill-opacity="0.5608"><g transform="translate(263.524777, 225.902135)"><g><path d="M 8.9375 -0.890625 L 8.9375 -1.921875 C 8.9375 -2.515625 8.632812 -2.8125 8.03125 -2.8125 L 7 -2.8125 C 6.40625 -2.8125 6.109375 -3.113281 6.109375 -3.71875 L 6.109375 -4.75 C 6.109375 -5.34375 5.8125 -5.640625 5.21875 -5.640625 L 4.1875 -5.640625 C 3.59375 -5.640625 3.296875 -5.9375 3.296875 -6.53125 L 3.296875 -26.359375 C 3.296875 -26.960938 3.59375 -27.265625 4.1875 -27.265625 L 5.21875 -27.265625 C 5.8125 -27.265625 6.109375 -27.5625 6.109375 -28.15625 L 6.109375 -29.1875 C 6.109375 -29.78125 6.40625 -30.078125 7 -30.078125 L 8.03125 -30.078125 C 8.632812 -30.078125 8.9375 -30.375 8.9375 -30.96875 L 8.9375 -32 C 8.9375 -32.601562 9.234375 -32.90625 9.828125 -32.90625 L 27.78125 -32.90625 C 28.375 -32.90625 28.671875 -32.601562 28.671875 -32 L 28.671875 -30.96875 C 28.671875 -30.375 28.96875 -30.078125 29.5625 -30.078125 L 30.59375 -30.078125 C 31.1875 -30.078125 31.484375 -29.78125 31.484375 -29.1875 L 31.484375 -28.15625 C 31.484375 -27.5625 31.785156 -27.265625 32.390625 -27.265625 L 33.421875 -27.265625 C 34.015625 -27.265625 34.3125 -26.960938 34.3125 -26.359375 L 34.3125 -6.53125 C 34.3125 -5.9375 34.015625 -5.640625 33.421875 -5.640625 L 32.390625 -5.640625 C 31.785156 -5.640625 31.484375 -5.34375 31.484375 -4.75 L 31.484375 -3.71875 C 31.484375 -3.113281 31.1875 -2.8125 30.59375 -2.8125 L 29.5625 -2.8125 C 28.96875 -2.8125 28.671875 -2.515625 28.671875 -1.921875 L 28.671875 -0.890625 C 28.671875 -0.296875 28.375 0 27.78125 0 L 9.828125 0 C 9.234375 0 8.9375 -0.296875 8.9375 -0.890625 Z M 19.6875 -5.640625 L 20.734375 -5.640625 C 21.328125 -5.640625 21.625 -5.9375 21.625 -6.53125 L 21.625 -29.1875 C 21.625 -29.78125 21.328125 -30.078125 20.734375 -30.078125 L 19.6875 -30.078125 C 19.09375 -30.078125 18.796875 -29.78125 18.796875 -29.1875 L 18.796875 -28.15625 C 18.796875 -27.5625 18.5 -27.265625 17.90625 -27.265625 L 16.875 -27.265625 C 16.28125 -27.265625 15.984375 -26.960938 15.984375 -26.359375 L 15.984375 -3.71875 C 15.984375 -3.113281 16.28125 -2.8125 16.875 -2.8125 L 17.90625 -2.8125 C 18.5 -2.8125 18.796875 -3.113281 18.796875 -3.71875 L 18.796875 -4.75 C 18.796875 -5.34375 19.09375 -5.640625 19.6875 -5.640625 Z M 19.6875 -5.640625 "/></g></g></g><g fill="#000000" fill-opacity="0.5608"><g transform="translate(301.11849, 225.902135)"><g><path d="M 8.9375 -0.84375 L 8.9375 -1.875 C 8.9375 -2.46875 8.632812 -2.765625 8.03125 -2.765625 L 7 -2.765625 C 6.40625 -2.765625 6.109375 -3.066406 6.109375 -3.671875 L 6.109375 -4.703125 C 6.109375 -5.296875 5.8125 -5.59375 5.21875 -5.59375 L 4.1875 -5.59375 C 3.59375 -5.59375 3.296875 -5.890625 3.296875 -6.484375 L 3.296875 -31.953125 C 3.296875 -32.554688 3.59375 -32.859375 4.1875 -32.859375 L 15.09375 -32.859375 C 15.6875 -32.859375 15.984375 -32.554688 15.984375 -31.953125 L 15.984375 -3.671875 C 15.984375 -3.066406 16.28125 -2.765625 16.875 -2.765625 L 17.90625 -2.765625 C 18.5 -2.765625 18.796875 -3.066406 18.796875 -3.671875 L 18.796875 -4.703125 C 18.796875 -5.296875 19.09375 -5.59375 19.6875 -5.59375 L 20.734375 -5.59375 C 21.328125 -5.59375 21.625 -5.890625 21.625 -6.484375 L 21.625 -31.953125 C 21.625 -32.554688 21.921875 -32.859375 22.515625 -32.859375 L 33.421875 -32.859375 C 34.015625 -32.859375 34.3125 -32.554688 34.3125 -31.953125 L 34.3125 -6.484375 C 34.3125 -5.890625 34.015625 -5.59375 33.421875 -5.59375 L 32.390625 -5.59375 C 31.785156 -5.59375 31.484375 -5.296875 31.484375 -4.703125 L 31.484375 -3.671875 C 31.484375 -3.066406 31.1875 -2.765625 30.59375 -2.765625 L 29.5625 -2.765625 C 28.96875 -2.765625 28.671875 -2.46875 28.671875 -1.875 L 28.671875 -0.84375 C 28.671875 -0.25 28.375 0.046875 27.78125 0.046875 L 9.828125 0.046875 C 9.234375 0.046875 8.9375 -0.25 8.9375 -0.84375 Z M 8.9375 -0.84375 "/></g></g></g><g fill="#000000" fill-opacity="0.5608"><g transform="translate(338.712191, 225.902135)"><g/></g></g><g fill="#000000" fill-opacity="0.5608"><g transform="translate(350.460237, 225.902135)"><g><path d="M 8.9375 -0.84375 L 8.9375 -1.875 C 8.9375 -2.46875 8.632812 -2.765625 8.03125 -2.765625 L 7 -2.765625 C 6.40625 -2.765625 6.109375 -3.066406 6.109375 -3.671875 L 6.109375 -4.703125 C 6.109375 -5.296875 5.8125 -5.59375 5.21875 -5.59375 L 4.1875 -5.59375 C 3.59375 -5.59375 3.296875 -5.890625 3.296875 -6.484375 L 3.296875 -31.953125 C 3.296875 -32.554688 3.59375 -32.859375 4.1875 -32.859375 L 15.09375 -32.859375 C 15.6875 -32.859375 15.984375 -32.554688 15.984375 -31.953125 L 15.984375 -3.671875 C 15.984375 -3.066406 16.28125 -2.765625 16.875 -2.765625 L 17.90625 -2.765625 C 18.5 -2.765625 18.796875 -3.066406 18.796875 -3.671875 L 18.796875 -4.703125 C 18.796875 -5.296875 19.09375 -5.59375 19.6875 -5.59375 L 20.734375 -5.59375 C 21.328125 -5.59375 21.625 -5.890625 21.625 -6.484375 L 21.625 -31.953125 C 21.625 -32.554688 21.921875 -32.859375 22.515625 -32.859375 L 33.421875 -32.859375 C 34.015625 -32.859375 34.3125 -32.554688 34.3125 -31.953125 L 34.3125 -6.484375 C 34.3125 -5.890625 34.015625 -5.59375 33.421875 -5.59375 L 32.390625 -5.59375 C 31.785156 -5.59375 31.484375 -5.296875 31.484375 -4.703125 L 31.484375 -3.671875 C 31.484375 -3.066406 31.1875 -2.765625 30.59375 -2.765625 L 29.5625 -2.765625 C 28.96875 -2.765625 28.671875 -2.46875 28.671875 -1.875 L 28.671875 -0.84375 C 28.671875 -0.25 28.375 0.046875 27.78125 0.046875 L 9.828125 0.046875 C 9.234375 0.046875 8.9375 -0.25 8.9375 -0.84375 Z M 8.9375 -0.84375 "/></g></g></g><g fill="#000000" fill-opacity="0.5608"><g transform="translate(388.053939, 225.902135)"><g><path d="M 19.6875 -5.640625 L 20.734375 -5.640625 C 21.328125 -5.640625 21.625 -5.9375 21.625 -6.53125 L 21.625 -29.1875 C 21.625 -29.78125 21.328125 -30.078125 20.734375 -30.078125 L 19.6875 -30.078125 C 19.09375 -30.078125 18.796875 -29.78125 18.796875 -29.1875 L 18.796875 -28.15625 C 18.796875 -27.5625 18.5 -27.265625 17.90625 -27.265625 L 16.875 -27.265625 C 16.28125 -27.265625 15.984375 -26.960938 15.984375 -26.359375 L 15.984375 -3.71875 C 15.984375 -3.113281 16.28125 -2.8125 16.875 -2.8125 L 17.90625 -2.8125 C 18.5 -2.8125 18.796875 -3.113281 18.796875 -3.71875 L 18.796875 -4.75 C 18.796875 -5.34375 19.09375 -5.640625 19.6875 -5.640625 Z M 3.296875 10.859375 L 3.296875 -32 C 3.296875 -32.601562 3.59375 -32.90625 4.1875 -32.90625 L 27.78125 -32.90625 C 28.375 -32.90625 28.671875 -32.601562 28.671875 -32 L 28.671875 -30.96875 C 28.671875 -30.375 28.96875 -30.078125 29.5625 -30.078125 L 30.59375 -30.078125 C 31.1875 -30.078125 31.484375 -29.78125 31.484375 -29.1875 L 31.484375 -28.15625 C 31.484375 -27.5625 31.785156 -27.265625 32.390625 -27.265625 L 33.421875 -27.265625 C 34.015625 -27.265625 34.3125 -26.960938 34.3125 -26.359375 L 34.3125 -6.53125 C 34.3125 -5.9375 34.015625 -5.640625 33.421875 -5.640625 L 32.390625 -5.640625 C 31.785156 -5.640625 31.484375 -5.34375 31.484375 -4.75 L 31.484375 -3.71875 C 31.484375 -3.113281 31.1875 -2.8125 30.59375 -2.8125 L 29.5625 -2.8125 C 28.96875 -2.8125 28.671875 -2.515625 28.671875 -1.921875 L 28.671875 -0.890625 C 28.671875 -0.296875 28.375 0 27.78125 0 L 16.875 0 C 16.28125 0 15.984375 0.296875 15.984375 0.890625 L 15.984375 10.859375 C 15.984375 11.453125 15.6875 11.75 15.09375 11.75 L 4.1875 11.75 C 3.59375 11.75 3.296875 11.453125 3.296875 10.859375 Z M 3.296875 10.859375 "/></g></g></g><g fill="#ffec45" fill-opacity="1"><g transform="translate(80.777347, 223.782251)"><g><path d="M 16.875 -2.8125 L 17.90625 -2.8125 C 18.5 -2.8125 18.796875 -3.113281 18.796875 -3.71875 L 18.796875 -4.75 C 18.796875 -5.34375 19.09375 -5.640625 19.6875 -5.640625 L 20.734375 -5.640625 C 21.328125 -5.640625 21.625 -5.9375 21.625 -6.53125 L 21.625 -29.09375 C 21.625 -29.6875 21.328125 -29.984375 20.734375 -29.984375 L 19.6875 -29.984375 C 19.09375 -29.984375 18.796875 -29.6875 18.796875 -29.09375 L 18.796875 -28.0625 C 18.796875 -27.46875 18.5 -27.171875 17.90625 -27.171875 L 16.875 -27.171875 C 16.28125 -27.171875 15.984375 -26.867188 15.984375 -26.265625 L 15.984375 -3.71875 C 15.984375 -3.113281 16.28125 -2.8125 16.875 -2.8125 Z M 6.109375 -0.890625 L 6.109375 -1.921875 C 6.109375 -2.515625 5.8125 -2.8125 5.21875 -2.8125 L 4.1875 -2.8125 C 3.9375 -2.8125 3.8125 -2.8125 3.8125 -2.8125 C 3.8125 -2.8125 3.9375 -2.8125 4.1875 -2.8125 L 5.21875 -2.8125 C 5.46875 -2.8125 5.59375 -2.8125 5.59375 -2.8125 C 5.59375 -2.8125 5.46875 -2.8125 5.21875 -2.8125 L 4.1875 -2.8125 C 3.59375 -2.8125 3.296875 -3.113281 3.296875 -3.71875 L 3.296875 -26.359375 C 3.296875 -26.960938 3.59375 -27.265625 4.1875 -27.265625 L 5.21875 -27.265625 C 5.8125 -27.265625 6.109375 -27.5625 6.109375 -28.15625 L 6.109375 -29.1875 C 6.109375 -29.78125 6.40625 -30.078125 7 -30.078125 L 8.03125 -30.078125 C 8.632812 -30.078125 8.9375 -30.375 8.9375 -30.96875 L 8.9375 -32 C 8.9375 -32.601562 9.234375 -32.90625 9.828125 -32.90625 L 30.640625 -32.90625 C 31.234375 -32.90625 31.53125 -32.601562 31.53125 -32 L 31.53125 -30.96875 C 31.53125 -30.375 31.832031 -30.078125 32.4375 -30.078125 L 33.421875 -30.078125 C 34.015625 -30.078125 34.3125 -29.78125 34.3125 -29.1875 L 34.3125 5.21875 C 34.3125 5.8125 34.015625 6.109375 33.421875 6.109375 L 32.390625 6.109375 C 31.785156 6.109375 31.484375 6.40625 31.484375 7 L 31.484375 8.03125 C 31.484375 8.632812 31.1875 8.9375 30.59375 8.9375 L 29.5625 8.9375 C 28.96875 8.9375 28.671875 9.234375 28.671875 9.828125 L 28.671875 10.859375 C 28.671875 11.453125 28.375 11.75 27.78125 11.75 L 7 11.75 C 6.40625 11.75 6.109375 11.453125 6.109375 10.859375 L 6.109375 9.828125 C 6.109375 9.234375 5.8125 8.9375 5.21875 8.9375 L 4.1875 8.9375 C 3.9375 8.9375 3.8125 8.9375 3.8125 8.9375 C 3.8125 8.9375 3.9375 8.9375 4.1875 8.9375 L 5.21875 8.9375 C 5.46875 8.9375 5.59375 8.9375 5.59375 8.9375 C 5.59375 8.9375 5.46875 8.9375 5.21875 8.9375 L 4.1875 8.9375 C 3.59375 8.9375 3.296875 8.632812 3.296875 8.03125 L 3.296875 4.1875 C 3.296875 3.59375 3.59375 3.296875 4.1875 3.296875 L 15.09375 3.296875 C 15.6875 3.296875 15.984375 3.59375 15.984375 4.1875 L 15.984375 4.9375 C 15.984375 5.53125 16.28125 5.828125 16.875 5.828125 L 17.4375 5.828125 C 18.03125 5.828125 18.328125 6.125 18.328125 6.71875 L 18.328125 8.03125 C 18.328125 8.632812 18.625 8.9375 19.21875 8.9375 L 22.140625 8.9375 C 22.734375 8.9375 23.03125 8.632812 23.03125 8.03125 L 23.03125 -1.921875 C 23.03125 -2.515625 22.734375 -2.8125 22.140625 -2.8125 L 21.109375 -2.8125 C 20.503906 -2.8125 20.203125 -2.515625 20.203125 -1.921875 L 20.203125 -0.890625 C 20.203125 -0.296875 19.90625 0 19.3125 0 L 7 0 C 6.40625 0 6.109375 -0.296875 6.109375 -0.890625 Z M 6.109375 -0.890625 "/></g></g></g><g fill="#ffec45" fill-opacity="1"><g transform="translate(118.371048, 223.782251)"><g><path d="M 3.296875 -0.890625 L 3.296875 -32 C 3.296875 -32.601562 3.59375 -32.90625 4.1875 -32.90625 L 15.09375 -32.90625 C 15.6875 -32.90625 15.984375 -32.601562 15.984375 -32 L 15.984375 -0.890625 C 15.984375 -0.296875 15.6875 0 15.09375 0 L 4.1875 0 C 3.59375 0 3.296875 -0.296875 3.296875 -0.890625 Z M 4.703125 -36.609375 L 4.703125 -36.703125 C 4.703125 -37.296875 4.375 -37.59375 3.71875 -37.59375 C 3.113281 -37.59375 2.8125 -37.894531 2.8125 -38.5 L 2.8125 -42.8125 C 2.8125 -43.40625 3.144531 -43.703125 3.8125 -43.703125 C 4.40625 -43.703125 4.703125 -44.035156 4.703125 -44.703125 C 4.703125 -45.296875 5 -45.59375 5.59375 -45.59375 L 13.671875 -45.59375 C 14.265625 -45.59375 14.5625 -45.265625 14.5625 -44.609375 C 14.5625 -44.003906 14.894531 -43.703125 15.5625 -43.703125 C 16.15625 -43.703125 16.453125 -43.40625 16.453125 -42.8125 L 16.453125 -38.5 C 16.453125 -37.894531 16.125 -37.59375 15.46875 -37.59375 C 14.863281 -37.59375 14.5625 -37.265625 14.5625 -36.609375 C 14.5625 -36.015625 14.265625 -35.71875 13.671875 -35.71875 L 5.59375 -35.71875 C 5 -35.71875 4.703125 -36.015625 4.703125 -36.609375 Z M 4.703125 -36.609375 "/></g></g></g><g fill="#ffec45" fill-opacity="1"><g transform="translate(137.637816, 223.782251)"><g><path d="M 6.109375 -0.890625 L 6.109375 -1.921875 C 6.109375 -2.515625 5.8125 -2.8125 5.21875 -2.8125 L 4.1875 -2.8125 C 3.59375 -2.8125 3.296875 -3.113281 3.296875 -3.71875 L 3.296875 -32 C 3.296875 -32.601562 3.59375 -32.90625 4.1875 -32.90625 L 15.09375 -32.90625 C 15.6875 -32.90625 15.984375 -32.601562 15.984375 -32 L 15.984375 -3.71875 C 15.984375 -3.113281 16.28125 -2.8125 16.875 -2.8125 L 18.234375 -2.8125 C 18.828125 -2.8125 19.125 -3.113281 19.125 -3.71875 L 19.125 -4.75 C 19.125 -5.34375 19.421875 -5.640625 20.015625 -5.640625 L 21.0625 -5.640625 C 21.65625 -5.640625 21.953125 -5.9375 21.953125 -6.53125 L 21.953125 -32 C 21.953125 -32.601562 22.25 -32.90625 22.84375 -32.90625 L 33.75 -32.90625 C 34.34375 -32.90625 34.640625 -32.601562 34.640625 -32 L 34.640625 -12.171875 C 34.640625 -11.578125 34.34375 -11.28125 33.75 -11.28125 L 32.1875 -11.28125 C 31.59375 -11.28125 31.296875 -10.984375 31.296875 -10.390625 L 31.296875 -9.359375 C 31.296875 -8.753906 31 -8.453125 30.40625 -8.453125 L 29.375 -8.453125 C 28.78125 -8.453125 28.484375 -8.15625 28.484375 -7.5625 L 28.484375 -6.53125 C 28.484375 -5.9375 28.1875 -5.640625 27.59375 -5.640625 L 26.5625 -5.640625 C 25.957031 -5.640625 25.65625 -5.34375 25.65625 -4.75 L 25.65625 -3.71875 C 25.65625 -3.113281 25.359375 -2.8125 24.765625 -2.8125 L 24.296875 -2.8125 C 23.703125 -2.8125 23.40625 -2.515625 23.40625 -1.921875 L 23.40625 -0.890625 C 23.40625 -0.296875 23.109375 0 22.515625 0 L 7 0 C 6.40625 0 6.109375 -0.296875 6.109375 -0.890625 Z M 6.109375 -0.890625 "/></g></g></g><g fill="#ffec45" fill-opacity="1"><g transform="translate(175.090538, 223.782251)"><g><path d="M 8.9375 -0.890625 L 8.9375 -1.921875 C 8.9375 -2.515625 8.632812 -2.8125 8.03125 -2.8125 L 7 -2.8125 C 6.40625 -2.8125 6.109375 -3.113281 6.109375 -3.71875 L 6.109375 -4.75 C 6.109375 -5.34375 5.8125 -5.640625 5.21875 -5.640625 L 4.1875 -5.640625 C 3.59375 -5.640625 3.296875 -5.9375 3.296875 -6.53125 L 3.296875 -26.359375 C 3.296875 -26.960938 3.59375 -27.265625 4.1875 -27.265625 L 5.21875 -27.265625 C 5.8125 -27.265625 6.109375 -27.5625 6.109375 -28.15625 L 6.109375 -29.1875 C 6.109375 -29.78125 6.40625 -30.078125 7 -30.078125 L 8.03125 -30.078125 C 8.632812 -30.078125 8.9375 -30.375 8.9375 -30.96875 L 8.9375 -32 C 8.9375 -32.601562 9.234375 -32.90625 9.828125 -32.90625 L 27.78125 -32.90625 C 28.375 -32.90625 28.671875 -32.601562 28.671875 -32 L 28.671875 -30.96875 C 28.671875 -30.375 28.96875 -30.078125 29.5625 -30.078125 L 30.59375 -30.078125 C 31.1875 -30.078125 31.484375 -29.78125 31.484375 -29.1875 L 31.484375 -28.15625 C 31.484375 -27.5625 31.785156 -27.265625 32.390625 -27.265625 L 33.421875 -27.265625 C 34.015625 -27.265625 34.3125 -26.960938 34.3125 -26.359375 L 34.3125 -18.75 C 34.3125 -18.15625 34.015625 -17.859375 33.421875 -17.859375 L 32.390625 -17.859375 C 31.785156 -17.859375 31.484375 -17.5625 31.484375 -16.96875 L 31.484375 -15.9375 C 31.484375 -15.34375 31.1875 -15.046875 30.59375 -15.046875 L 16.875 -15.046875 C 16.28125 -15.046875 15.984375 -14.742188 15.984375 -14.140625 L 15.984375 -3.71875 C 15.984375 -3.113281 16.28125 -2.8125 16.875 -2.8125 L 17.90625 -2.8125 C 18.5 -2.8125 18.796875 -3.113281 18.796875 -3.71875 L 18.796875 -4.75 C 18.796875 -5.34375 19.09375 -5.640625 19.6875 -5.640625 L 20.734375 -5.640625 C 21.328125 -5.640625 21.625 -5.9375 21.625 -6.53125 L 21.625 -9.78125 C 21.625 -10.375 21.921875 -10.671875 22.515625 -10.671875 L 33.421875 -10.671875 C 34.015625 -10.671875 34.3125 -10.375 34.3125 -9.78125 L 34.3125 -6.53125 C 34.3125 -5.9375 34.015625 -5.640625 33.421875 -5.640625 L 32.390625 -5.640625 C 31.785156 -5.640625 31.484375 -5.34375 31.484375 -4.75 L 31.484375 -3.71875 C 31.484375 -3.113281 31.1875 -2.8125 30.59375 -2.8125 L 29.5625 -2.8125 C 28.96875 -2.8125 28.671875 -2.515625 28.671875 -1.921875 L 28.671875 -0.890625 C 28.671875 -0.296875 28.375 0 27.78125 0 L 9.828125 0 C 9.234375 0 8.9375 -0.296875 8.9375 -0.890625 Z M 16.875 -17.859375 L 20.734375 -17.859375 C 21.328125 -17.859375 21.625 -18.15625 21.625 -18.75 L 21.625 -29.1875 C 21.625 -29.78125 21.328125 -30.078125 20.734375 -30.078125 L 19.6875 -30.078125 C 19.09375 -30.078125 18.796875 -29.78125 18.796875 -29.1875 L 18.796875 -28.15625 C 18.796875 -27.5625 18.5 -27.265625 17.90625 -27.265625 L 16.875 -27.265625 C 16.28125 -27.265625 15.984375 -26.960938 15.984375 -26.359375 L 15.984375 -18.75 C 15.984375 -18.15625 16.28125 -17.859375 16.875 -17.859375 Z M 16.875 -17.859375 "/></g></g></g><g fill="#ffec45" fill-opacity="1"><g transform="translate(211.744393, 223.782251)"><g/></g></g><g fill="#ffec45" fill-opacity="1"><g transform="translate(223.492427, 223.782251)"><g><path d="M 6.109375 -0.890625 L 6.109375 -1.921875 C 6.109375 -2.515625 5.8125 -2.8125 5.21875 -2.8125 L 4.1875 -2.8125 C 3.9375 -2.8125 3.8125 -2.8125 3.8125 -2.8125 C 3.8125 -2.8125 3.9375 -2.8125 4.1875 -2.8125 L 5.21875 -2.8125 C 5.46875 -2.8125 5.59375 -2.8125 5.59375 -2.8125 C 5.59375 -2.8125 5.46875 -2.8125 5.21875 -2.8125 L 4.1875 -2.8125 C 3.59375 -2.8125 3.296875 -3.113281 3.296875 -3.71875 L 3.296875 -32 C 3.296875 -32.601562 3.59375 -32.90625 4.1875 -32.90625 L 15.09375 -32.90625 C 15.6875 -32.90625 15.984375 -32.601562 15.984375 -32 L 15.984375 -3.71875 C 15.984375 -3.113281 16.28125 -2.8125 16.875 -2.8125 L 17.90625 -2.8125 C 18.5 -2.8125 18.796875 -3.113281 18.796875 -3.71875 L 18.796875 -4.75 C 18.796875 -5.34375 19.09375 -5.640625 19.6875 -5.640625 L 20.734375 -5.640625 C 21.328125 -5.640625 21.625 -5.9375 21.625 -6.53125 L 21.625 -32 C 21.625 -32.601562 21.921875 -32.90625 22.515625 -32.90625 L 33.421875 -32.90625 C 34.015625 -32.90625 34.3125 -32.601562 34.3125 -32 L 34.3125 5.21875 C 34.3125 5.8125 34.015625 6.109375 33.421875 6.109375 L 32.390625 6.109375 C 31.785156 6.109375 31.484375 6.40625 31.484375 7 L 31.484375 8.03125 C 31.484375 8.632812 31.1875 8.9375 30.59375 8.9375 L 29.5625 8.9375 C 28.96875 8.9375 28.671875 9.234375 28.671875 9.828125 L 28.671875 10.859375 C 28.671875 11.453125 28.375 11.75 27.78125 11.75 L 7 11.75 C 6.40625 11.75 6.109375 11.453125 6.109375 10.859375 L 6.109375 9.828125 C 6.109375 9.234375 5.8125 8.9375 5.21875 8.9375 L 4.1875 8.9375 C 3.9375 8.9375 3.8125 8.9375 3.8125 8.9375 C 3.8125 8.9375 3.9375 8.9375 4.1875 8.9375 L 5.21875 8.9375 C 5.46875 8.9375 5.59375 8.9375 5.59375 8.9375 C 5.59375 8.9375 5.46875 8.9375 5.21875 8.9375 L 4.1875 8.9375 C 3.59375 8.9375 3.296875 8.632812 3.296875 8.03125 L 3.296875 4.1875 C 3.296875 3.59375 3.59375 3.296875 4.1875 3.296875 L 15.09375 3.296875 C 15.6875 3.296875 15.984375 3.59375 15.984375 4.1875 L 15.984375 4.9375 C 15.984375 5.53125 16.28125 5.828125 16.875 5.828125 L 17.4375 5.828125 C 18.03125 5.828125 18.328125 6.125 18.328125 6.71875 L 18.328125 8.03125 C 18.328125 8.632812 18.625 8.9375 19.21875 8.9375 L 22.140625 8.9375 C 22.734375 8.9375 23.03125 8.632812 23.03125 8.03125 L 23.03125 -1.921875 C 23.03125 -2.515625 22.734375 -2.8125 22.140625 -2.8125 L 21.109375 -2.8125 C 20.503906 -2.8125 20.203125 -2.515625 20.203125 -1.921875 L 20.203125 -0.890625 C 20.203125 -0.296875 19.90625 0 19.3125 0 L 7 0 C 6.40625 0 6.109375 -0.296875 6.109375 -0.890625 Z M 6.109375 -0.890625 "/></g></g></g><g fill="#ffec45" fill-opacity="1"><g transform="translate(261.086129, 223.782251)"><g><path d="M 8.9375 -0.890625 L 8.9375 -1.921875 C 8.9375 -2.515625 8.632812 -2.8125 8.03125 -2.8125 L 7 -2.8125 C 6.40625 -2.8125 6.109375 -3.113281 6.109375 -3.71875 L 6.109375 -4.75 C 6.109375 -5.34375 5.8125 -5.640625 5.21875 -5.640625 L 4.1875 -5.640625 C 3.59375 -5.640625 3.296875 -5.9375 3.296875 -6.53125 L 3.296875 -26.359375 C 3.296875 -26.960938 3.59375 -27.265625 4.1875 -27.265625 L 5.21875 -27.265625 C 5.8125 -27.265625 6.109375 -27.5625 6.109375 -28.15625 L 6.109375 -29.1875 C 6.109375 -29.78125 6.40625 -30.078125 7 -30.078125 L 8.03125 -30.078125 C 8.632812 -30.078125 8.9375 -30.375 8.9375 -30.96875 L 8.9375 -32 C 8.9375 -32.601562 9.234375 -32.90625 9.828125 -32.90625 L 27.78125 -32.90625 C 28.375 -32.90625 28.671875 -32.601562 28.671875 -32 L 28.671875 -30.96875 C 28.671875 -30.375 28.96875 -30.078125 29.5625 -30.078125 L 30.59375 -30.078125 C 31.1875 -30.078125 31.484375 -29.78125 31.484375 -29.1875 L 31.484375 -28.15625 C 31.484375 -27.5625 31.785156 -27.265625 32.390625 -27.265625 L 33.421875 -27.265625 C 34.015625 -27.265625 34.3125 -26.960938 34.3125 -26.359375 L 34.3125 -6.53125 C 34.3125 -5.9375 34.015625 -5.640625 33.421875 -5.640625 L 32.390625 -5.640625 C 31.785156 -5.640625 31.484375 -5.34375 31.484375 -4.75 L 31.484375 -3.71875 C 31.484375 -3.113281 31.1875 -2.8125 30.59375 -2.8125 L 29.5625 -2.8125 C 28.96875 -2.8125 28.671875 -2.515625 28.671875 -1.921875 L 28.671875 -0.890625 C 28.671875 -0.296875 28.375 0 27.78125 0 L 9.828125 0 C 9.234375 0 8.9375 -0.296875 8.9375 -0.890625 Z M 19.6875 -5.640625 L 20.734375 -5.640625 C 21.328125 -5.640625 21.625 -5.9375 21.625 -6.53125 L 21.625 -29.1875 C 21.625 -29.78125 21.328125 -30.078125 20.734375 -30.078125 L 19.6875 -30.078125 C 19.09375 -30.078125 18.796875 -29.78125 18.796875 -29.1875 L 18.796875 -28.15625 C 18.796875 -27.5625 18.5 -27.265625 17.90625 -27.265625 L 16.875 -27.265625 C 16.28125 -27.265625 15.984375 -26.960938 15.984375 -26.359375 L 15.984375 -3.71875 C 15.984375 -3.113281 16.28125 -2.8125 16.875 -2.8125 L 17.90625 -2.8125 C 18.5 -2.8125 18.796875 -3.113281 18.796875 -3.71875 L 18.796875 -4.75 C 18.796875 -5.34375 19.09375 -5.640625 19.6875 -5.640625 Z M 19.6875 -5.640625 "/></g></g></g><g fill="#ffec45" fill-opacity="1"><g transform="translate(298.679841, 223.782251)"><g><path d="M 8.9375 -0.84375 L 8.9375 -1.875 C 8.9375 -2.46875 8.632812 -2.765625 8.03125 -2.765625 L 7 -2.765625 C 6.40625 -2.765625 6.109375 -3.066406 6.109375 -3.671875 L 6.109375 -4.703125 C 6.109375 -5.296875 5.8125 -5.59375 5.21875 -5.59375 L 4.1875 -5.59375 C 3.59375 -5.59375 3.296875 -5.890625 3.296875 -6.484375 L 3.296875 -31.953125 C 3.296875 -32.554688 3.59375 -32.859375 4.1875 -32.859375 L 15.09375 -32.859375 C 15.6875 -32.859375 15.984375 -32.554688 15.984375 -31.953125 L 15.984375 -3.671875 C 15.984375 -3.066406 16.28125 -2.765625 16.875 -2.765625 L 17.90625 -2.765625 C 18.5 -2.765625 18.796875 -3.066406 18.796875 -3.671875 L 18.796875 -4.703125 C 18.796875 -5.296875 19.09375 -5.59375 19.6875 -5.59375 L 20.734375 -5.59375 C 21.328125 -5.59375 21.625 -5.890625 21.625 -6.484375 L 21.625 -31.953125 C 21.625 -32.554688 21.921875 -32.859375 22.515625 -32.859375 L 33.421875 -32.859375 C 34.015625 -32.859375 34.3125 -32.554688 34.3125 -31.953125 L 34.3125 -6.484375 C 34.3125 -5.890625 34.015625 -5.59375 33.421875 -5.59375 L 32.390625 -5.59375 C 31.785156 -5.59375 31.484375 -5.296875 31.484375 -4.703125 L 31.484375 -3.671875 C 31.484375 -3.066406 31.1875 -2.765625 30.59375 -2.765625 L 29.5625 -2.765625 C 28.96875 -2.765625 28.671875 -2.46875 28.671875 -1.875 L 28.671875 -0.84375 C 28.671875 -0.25 28.375 0.046875 27.78125 0.046875 L 9.828125 0.046875 C 9.234375 0.046875 8.9375 -0.25 8.9375 -0.84375 Z M 8.9375 -0.84375 "/></g></g></g><g fill="#ffec45" fill-opacity="1"><g transform="translate(336.273543, 223.782251)"><g/></g></g><g fill="#ffec45" fill-opacity="1"><g transform="translate(348.021588, 223.782251)"><g><path d="M 8.9375 -0.84375 L 8.9375 -1.875 C 8.9375 -2.46875 8.632812 -2.765625 8.03125 -2.765625 L 7 -2.765625 C 6.40625 -2.765625 6.109375 -3.066406 6.109375 -3.671875 L 6.109375 -4.703125 C 6.109375 -5.296875 5.8125 -5.59375 5.21875 -5.59375 L 4.1875 -5.59375 C 3.59375 -5.59375 3.296875 -5.890625 3.296875 -6.484375 L 3.296875 -31.953125 C 3.296875 -32.554688 3.59375 -32.859375 4.1875 -32.859375 L 15.09375 -32.859375 C 15.6875 -32.859375 15.984375 -32.554688 15.984375 -31.953125 L 15.984375 -3.671875 C 15.984375 -3.066406 16.28125 -2.765625 16.875 -2.765625 L 17.90625 -2.765625 C 18.5 -2.765625 18.796875 -3.066406 18.796875 -3.671875 L 18.796875 -4.703125 C 18.796875 -5.296875 19.09375 -5.59375 19.6875 -5.59375 L 20.734375 -5.59375 C 21.328125 -5.59375 21.625 -5.890625 21.625 -6.484375 L 21.625 -31.953125 C 21.625 -32.554688 21.921875 -32.859375 22.515625 -32.859375 L 33.421875 -32.859375 C 34.015625 -32.859375 34.3125 -32.554688 34.3125 -31.953125 L 34.3125 -6.484375 C 34.3125 -5.890625 34.015625 -5.59375 33.421875 -5.59375 L 32.390625 -5.59375 C 31.785156 -5.59375 31.484375 -5.296875 31.484375 -4.703125 L 31.484375 -3.671875 C 31.484375 -3.066406 31.1875 -2.765625 30.59375 -2.765625 L 29.5625 -2.765625 C 28.96875 -2.765625 28.671875 -2.46875 28.671875 -1.875 L 28.671875 -0.84375 C 28.671875 -0.25 28.375 0.046875 27.78125 0.046875 L 9.828125 0.046875 C 9.234375 0.046875 8.9375 -0.25 8.9375 -0.84375 Z M 8.9375 -0.84375 "/></g></g></g><g fill="#ffec45" fill-opacity="1"><g transform="translate(385.61529, 223.782251)"><g><path d="M 19.6875 -5.640625 L 20.734375 -5.640625 C 21.328125 -5.640625 21.625 -5.9375 21.625 -6.53125 L 21.625 -29.1875 C 21.625 -29.78125 21.328125 -30.078125 20.734375 -30.078125 L 19.6875 -30.078125 C 19.09375 -30.078125 18.796875 -29.78125 18.796875 -29.1875 L 18.796875 -28.15625 C 18.796875 -27.5625 18.5 -27.265625 17.90625 -27.265625 L 16.875 -27.265625 C 16.28125 -27.265625 15.984375 -26.960938 15.984375 -26.359375 L 15.984375 -3.71875 C 15.984375 -3.113281 16.28125 -2.8125 16.875 -2.8125 L 17.90625 -2.8125 C 18.5 -2.8125 18.796875 -3.113281 18.796875 -3.71875 L 18.796875 -4.75 C 18.796875 -5.34375 19.09375 -5.640625 19.6875 -5.640625 Z M 3.296875 10.859375 L 3.296875 -32 C 3.296875 -32.601562 3.59375 -32.90625 4.1875 -32.90625 L 27.78125 -32.90625 C 28.375 -32.90625 28.671875 -32.601562 28.671875 -32 L 28.671875 -30.96875 C 28.671875 -30.375 28.96875 -30.078125 29.5625 -30.078125 L 30.59375 -30.078125 C 31.1875 -30.078125 31.484375 -29.78125 31.484375 -29.1875 L 31.484375 -28.15625 C 31.484375 -27.5625 31.785156 -27.265625 32.390625 -27.265625 L 33.421875 -27.265625 C 34.015625 -27.265625 34.3125 -26.960938 34.3125 -26.359375 L 34.3125 -6.53125 C 34.3125 -5.9375 34.015625 -5.640625 33.421875 -5.640625 L 32.390625 -5.640625 C 31.785156 -5.640625 31.484375 -5.34375 31.484375 -4.75 L 31.484375 -3.71875 C 31.484375 -3.113281 31.1875 -2.8125 30.59375 -2.8125 L 29.5625 -2.8125 C 28.96875 -2.8125 28.671875 -2.515625 28.671875 -1.921875 L 28.671875 -0.890625 C 28.671875 -0.296875 28.375 0 27.78125 0 L 16.875 0 C 16.28125 0 15.984375 0.296875 15.984375 0.890625 L 15.984375 10.859375 C 15.984375 11.453125 15.6875 11.75 15.09375 11.75 L 4.1875 11.75 C 3.59375 11.75 3.296875 11.453125 3.296875 10.859375 Z M 3.296875 10.859375 "/></g></g></g></svg>