<svg xmlns="http://www.w3.org/2000/svg" xmlns:xlink="http://www.w3.org/1999/xlink" width="672" zoomAndPan="magnify" viewBox="0 0 504 359.999987" height="480" preserveAspectRatio="xMidYMid meet" version="1.0"><defs><g/></defs><g fill="#000000" fill-opacity="0.5608"><g transform="translate(3.670912, 150.646159)"><g><path d="M 2.65625 -0.71875 L 2.65625 -34.84375 C 2.65625 -35.320312 2.894531 -35.5625 3.375 -35.5625 L 12.203125 -35.5625 C 12.679688 -35.5625 12.921875 -35.320312 12.921875 -34.84375 L 12.921875 -0.71875 C 12.921875 -0.238281 12.679688 0 12.203125 0 L 3.375 0 C 2.894531 0 2.65625 -0.238281 2.65625 -0.71875 Z M 2.65625 -0.71875 "/></g></g></g><g fill="#000000" fill-opacity="0.5608"><g transform="translate(19.247727, 150.646159)"><g><path d="M 4.1875 -26.0625 L 4.1875 -26.140625 C 4.1875 -26.597656 3.957031 -26.828125 3.5 -26.828125 C 2.9375 -26.828125 2.65625 -27.109375 2.65625 -27.671875 L 2.65625 -33.21875 C 2.65625 -33.769531 2.9375 -34.046875 3.5 -34.046875 C 3.957031 -34.046875 4.1875 -34.273438 4.1875 -34.734375 L 4.1875 -34.8125 C 4.1875 -35.3125 4.4375 -35.5625 4.9375 -35.5625 L 10.5625 -35.5625 C 11.125 -35.5625 11.40625 -35.285156 11.40625 -34.734375 C 11.40625 -34.273438 11.628906 -34.046875 12.078125 -34.046875 L 12.15625 -34.046875 C 12.664062 -34.046875 12.921875 -33.789062 12.921875 -33.28125 L 12.921875 -20.5625 C 12.921875 -19.925781 12.601562 -19.609375 11.96875 -19.609375 L 10.453125 -19.609375 C 9.816406 -19.609375 9.5 -19.925781 9.5 -20.5625 L 9.5 -24.359375 C 9.5 -24.992188 9.179688 -25.3125 8.546875 -25.3125 L 4.9375 -25.3125 C 4.4375 -25.3125 4.1875 -25.5625 4.1875 -26.0625 Z M 4.1875 -26.0625 "/></g></g></g><g fill="#000000" fill-opacity="0.5608"><g transform="translate(34.824543, 150.646159)"><g><path d="M 2.65625 -0.71875 L 2.65625 -25.875 C 2.65625 -26.351562 2.894531 -26.59375 3.375 -26.59375 L 8.78125 -26.59375 C 9.257812 -26.59375 9.5 -26.351562 9.5 -25.875 L 9.5 -22.765625 C 9.5 -22.285156 9.738281 -22.046875 10.21875 -22.046875 L 11.0625 -22.046875 C 11.539062 -22.046875 11.78125 -22.285156 11.78125 -22.765625 L 11.78125 -23.59375 C 11.78125 -24.070312 12.019531 -24.3125 12.5 -24.3125 L 13.34375 -24.3125 C 13.820312 -24.3125 14.0625 -24.554688 14.0625 -25.046875 L 14.0625 -25.875 C 14.0625 -26.351562 14.300781 -26.59375 14.78125 -26.59375 L 24.734375 -26.59375 C 25.210938 -26.59375 25.453125 -26.351562 25.453125 -25.875 L 25.453125 -25.046875 C 25.453125 -24.554688 25.695312 -24.3125 26.1875 -24.3125 L 28.15625 -24.3125 C 28.632812 -24.3125 28.875 -24.554688 28.875 -25.046875 L 28.875 -25.875 C 28.875 -26.351562 29.117188 -26.59375 29.609375 -26.59375 L 39.5625 -26.59375 C 40.039062 -26.59375 40.28125 -26.351562 40.28125 -25.875 L 40.28125 -25.046875 C 40.28125 -24.554688 40.519531 -24.3125 41 -24.3125 L 41.84375 -24.3125 C 42.320312 -24.3125 42.5625 -24.070312 42.5625 -23.59375 L 42.5625 -0.71875 C 42.5625 -0.238281 42.320312 0 41.84375 0 L 33.015625 0 C 32.535156 0 32.296875 -0.238281 32.296875 -0.71875 L 32.296875 -23.59375 C 32.296875 -24.070312 32.054688 -24.3125 31.578125 -24.3125 L 30.734375 -24.3125 C 30.253906 -24.3125 30.015625 -24.070312 30.015625 -23.59375 L 30.015625 -22.765625 C 30.015625 -22.285156 29.773438 -22.046875 29.296875 -22.046875 L 28.46875 -22.046875 C 27.976562 -22.046875 27.734375 -21.800781 27.734375 -21.3125 L 27.734375 -0.71875 C 27.734375 -0.238281 27.492188 0 27.015625 0 L 18.203125 0 C 17.722656 0 17.484375 -0.238281 17.484375 -0.71875 L 17.484375 -23.59375 C 17.484375 -24.070312 17.242188 -24.3125 16.765625 -24.3125 L 15.921875 -24.3125 C 15.441406 -24.3125 15.203125 -24.070312 15.203125 -23.59375 L 15.203125 -22.765625 C 15.203125 -22.285156 14.960938 -22.046875 14.484375 -22.046875 L 13.640625 -22.046875 C 13.160156 -22.046875 12.921875 -21.800781 12.921875 -21.3125 L 12.921875 -0.71875 C 12.921875 -0.238281 12.679688 0 12.203125 0 L 3.375 0 C 2.894531 0 2.65625 -0.238281 2.65625 -0.71875 Z M 2.65625 -0.71875 "/></g></g></g><g fill="#000000" fill-opacity="0.5608"><g transform="translate(80.035305, 150.646159)"><g/></g></g><g fill="#000000" fill-opacity="0.5608"><g transform="translate(89.533363, 150.646159)"><g><path d="M 4.5625 -0.71875 L 4.5625 -1.5625 C 4.5625 -2.039062 4.320312 -2.28125 3.84375 -2.28125 L 3 -2.28125 C 2.519531 -2.28125 2.28125 -2.519531 2.28125 -3 L 2.28125 -9.53125 C 2.28125 -10.019531 2.519531 -10.265625 3 -10.265625 L 11.8125 -10.265625 C 12.300781 -10.265625 12.546875 -10.019531 12.546875 -9.53125 L 12.546875 -3 C 12.546875 -2.519531 12.785156 -2.28125 13.265625 -2.28125 L 14.09375 -2.28125 C 14.570312 -2.28125 14.8125 -2.519531 14.8125 -3 L 14.8125 -3.84375 C 14.8125 -4.320312 15.054688 -4.5625 15.546875 -4.5625 L 16.421875 -4.5625 C 16.898438 -4.5625 17.140625 -4.800781 17.140625 -5.28125 L 17.140625 -9.078125 C 17.140625 -9.554688 16.898438 -9.796875 16.421875 -9.796875 L 15.578125 -9.796875 C 15.097656 -9.796875 14.859375 -10.039062 14.859375 -10.53125 L 14.859375 -11.359375 C 14.859375 -11.835938 14.617188 -12.078125 14.140625 -12.078125 L 5.28125 -12.078125 C 4.800781 -12.078125 4.5625 -12.320312 4.5625 -12.8125 L 4.5625 -13.640625 C 4.5625 -14.117188 4.320312 -14.359375 3.84375 -14.359375 L 3 -14.359375 C 2.519531 -14.359375 2.28125 -14.601562 2.28125 -15.09375 L 2.28125 -23.59375 C 2.28125 -24.070312 2.519531 -24.3125 3 -24.3125 L 3.578125 -24.3125 C 4.054688 -24.3125 4.296875 -24.554688 4.296875 -25.046875 L 4.296875 -25.875 C 4.296875 -26.351562 4.535156 -26.59375 5.015625 -26.59375 L 23.984375 -26.59375 C 24.460938 -26.59375 24.703125 -26.351562 24.703125 -25.875 L 24.703125 -25.046875 C 24.703125 -24.554688 24.941406 -24.3125 25.421875 -24.3125 L 26.265625 -24.3125 C 26.742188 -24.3125 26.984375 -24.070312 26.984375 -23.59375 L 26.984375 -17.0625 C 26.984375 -16.582031 26.742188 -16.34375 26.265625 -16.34375 L 20.109375 -16.34375 C 19.617188 -16.34375 19.375 -16.582031 19.375 -17.0625 L 19.375 -17.890625 C 19.375 -18.378906 19.132812 -18.625 18.65625 -18.625 L 17.828125 -18.625 C 17.335938 -18.625 17.09375 -18.863281 17.09375 -19.34375 L 17.09375 -23.59375 C 17.09375 -24.070312 16.851562 -24.3125 16.375 -24.3125 L 15.546875 -24.3125 C 15.054688 -24.3125 14.8125 -24.070312 14.8125 -23.59375 L 14.8125 -22.765625 C 14.8125 -22.285156 14.570312 -22.046875 14.09375 -22.046875 L 13.265625 -22.046875 C 12.785156 -22.046875 12.546875 -21.800781 12.546875 -21.3125 L 12.546875 -17.359375 C 12.546875 -16.878906 12.785156 -16.640625 13.265625 -16.640625 L 14.09375 -16.640625 C 14.570312 -16.640625 14.8125 -16.398438 14.8125 -15.921875 L 14.8125 -15.09375 C 14.8125 -14.601562 15.054688 -14.359375 15.546875 -14.359375 L 24.015625 -14.359375 C 24.492188 -14.359375 24.734375 -14.117188 24.734375 -13.640625 L 24.734375 -12.8125 C 24.734375 -12.320312 24.972656 -12.078125 25.453125 -12.078125 L 26.296875 -12.078125 C 26.773438 -12.078125 27.015625 -11.835938 27.015625 -11.359375 L 27.015625 -3 C 27.015625 -2.519531 26.773438 -2.28125 26.296875 -2.28125 L 25.453125 -2.28125 C 24.972656 -2.28125 24.734375 -2.039062 24.734375 -1.5625 L 24.734375 -0.71875 C 24.734375 -0.238281 24.492188 0 24.015625 0 L 5.28125 0 C 4.800781 0 4.5625 -0.238281 4.5625 -0.71875 Z M 4.5625 -0.71875 "/></g></g></g><g fill="#000000" fill-opacity="0.5608"><g transform="translate(119.167309, 150.646159)"><g><path d="M 7.21875 -0.71875 L 7.21875 -1.5625 C 7.21875 -2.039062 6.976562 -2.28125 6.5 -2.28125 L 5.65625 -2.28125 C 5.175781 -2.28125 4.9375 -2.519531 4.9375 -3 L 4.9375 -3.84375 C 4.9375 -4.320312 4.695312 -4.5625 4.21875 -4.5625 L 3.375 -4.5625 C 2.894531 -4.5625 2.65625 -4.800781 2.65625 -5.28125 L 2.65625 -21.3125 C 2.65625 -21.800781 2.894531 -22.046875 3.375 -22.046875 L 4.21875 -22.046875 C 4.695312 -22.046875 4.9375 -22.285156 4.9375 -22.765625 L 4.9375 -23.59375 C 4.9375 -24.070312 5.175781 -24.3125 5.65625 -24.3125 L 6.5 -24.3125 C 6.976562 -24.3125 7.21875 -24.554688 7.21875 -25.046875 L 7.21875 -25.875 C 7.21875 -26.351562 7.457031 -26.59375 7.9375 -26.59375 L 22.453125 -26.59375 C 22.941406 -26.59375 23.1875 -26.351562 23.1875 -25.875 L 23.1875 -25.046875 C 23.1875 -24.554688 23.425781 -24.3125 23.90625 -24.3125 L 24.734375 -24.3125 C 25.210938 -24.3125 25.453125 -24.070312 25.453125 -23.59375 L 25.453125 -22.765625 C 25.453125 -22.285156 25.695312 -22.046875 26.1875 -22.046875 L 27.015625 -22.046875 C 27.492188 -22.046875 27.734375 -21.800781 27.734375 -21.3125 L 27.734375 -5.28125 C 27.734375 -4.800781 27.492188 -4.5625 27.015625 -4.5625 L 26.1875 -4.5625 C 25.695312 -4.5625 25.453125 -4.320312 25.453125 -3.84375 L 25.453125 -3 C 25.453125 -2.519531 25.210938 -2.28125 24.734375 -2.28125 L 23.90625 -2.28125 C 23.425781 -2.28125 23.1875 -2.039062 23.1875 -1.5625 L 23.1875 -0.71875 C 23.1875 -0.238281 22.941406 0 22.453125 0 L 7.9375 0 C 7.457031 0 7.21875 -0.238281 7.21875 -0.71875 Z M 15.921875 -4.5625 L 16.765625 -4.5625 C 17.242188 -4.5625 17.484375 -4.800781 17.484375 -5.28125 L 17.484375 -23.59375 C 17.484375 -24.070312 17.242188 -24.3125 16.765625 -24.3125 L 15.921875 -24.3125 C 15.441406 -24.3125 15.203125 -24.070312 15.203125 -23.59375 L 15.203125 -22.765625 C 15.203125 -22.285156 14.960938 -22.046875 14.484375 -22.046875 L 13.640625 -22.046875 C 13.160156 -22.046875 12.921875 -21.800781 12.921875 -21.3125 L 12.921875 -3 C 12.921875 -2.519531 13.160156 -2.28125 13.640625 -2.28125 L 14.484375 -2.28125 C 14.960938 -2.28125 15.203125 -2.519531 15.203125 -3 L 15.203125 -3.84375 C 15.203125 -4.320312 15.441406 -4.5625 15.921875 -4.5625 Z M 15.921875 -4.5625 "/></g></g></g><g fill="#000000" fill-opacity="0.5608"><g transform="translate(149.561098, 150.646159)"><g/></g></g><g fill="#000000" fill-opacity="0.5608"><g transform="translate(159.059156, 150.646159)"><g><path d="M -2.28125 8.78125 L -2.28125 7.9375 C -2.28125 7.457031 -2.519531 7.21875 -3 7.21875 L -4.984375 7.21875 C -5.460938 7.21875 -5.703125 6.976562 -5.703125 6.5 L -5.703125 2.625 C -5.703125 2.144531 -5.460938 1.90625 -4.984375 1.90625 L 1.171875 1.90625 C 1.660156 1.90625 1.90625 2.144531 1.90625 2.625 L 1.90625 6.5 C 1.90625 6.976562 2.144531 7.21875 2.625 7.21875 L 3.453125 7.21875 C 3.941406 7.21875 4.1875 6.976562 4.1875 6.5 L 4.1875 -25.875 C 4.1875 -26.351562 4.425781 -26.59375 4.90625 -26.59375 L 13.71875 -26.59375 C 14.195312 -26.59375 14.4375 -26.351562 14.4375 -25.875 L 14.4375 6.5 C 14.4375 6.976562 14.195312 7.21875 13.71875 7.21875 L 12.875 7.21875 C 12.394531 7.21875 12.15625 7.457031 12.15625 7.9375 L 12.15625 8.78125 C 12.15625 9.257812 11.914062 9.5 11.4375 9.5 L -1.5625 9.5 C -2.039062 9.5 -2.28125 9.257812 -2.28125 8.78125 Z M 5.3125 -29.609375 L 5.3125 -29.671875 C 5.3125 -30.160156 5.046875 -30.40625 4.515625 -30.40625 C 4.035156 -30.40625 3.796875 -30.644531 3.796875 -31.125 L 3.796875 -34.625 C 3.796875 -35.101562 4.0625 -35.34375 4.59375 -35.34375 C 5.070312 -35.34375 5.3125 -35.609375 5.3125 -36.140625 C 5.3125 -36.617188 5.554688 -36.859375 6.046875 -36.859375 L 12.578125 -36.859375 C 13.054688 -36.859375 13.296875 -36.59375 13.296875 -36.0625 C 13.296875 -35.582031 13.5625 -35.34375 14.09375 -35.34375 C 14.570312 -35.34375 14.8125 -35.101562 14.8125 -34.625 L 14.8125 -31.125 C 14.8125 -30.644531 14.546875 -30.40625 14.015625 -30.40625 C 13.535156 -30.40625 13.296875 -30.140625 13.296875 -29.609375 C 13.296875 -29.117188 13.054688 -28.875 12.578125 -28.875 L 6.046875 -28.875 C 5.554688 -28.875 5.3125 -29.117188 5.3125 -29.609375 Z M 5.3125 -29.609375 "/></g></g></g><g fill="#000000" fill-opacity="0.5608"><g transform="translate(176.991497, 150.646159)"><g><path d="M 7.21875 -0.6875 L 7.21875 -1.515625 C 7.21875 -1.992188 6.976562 -2.234375 6.5 -2.234375 L 5.65625 -2.234375 C 5.175781 -2.234375 4.9375 -2.476562 4.9375 -2.96875 L 4.9375 -3.796875 C 4.9375 -4.273438 4.695312 -4.515625 4.21875 -4.515625 L 3.375 -4.515625 C 2.894531 -4.515625 2.65625 -4.757812 2.65625 -5.25 L 2.65625 -25.84375 C 2.65625 -26.320312 2.894531 -26.5625 3.375 -26.5625 L 12.203125 -26.5625 C 12.679688 -26.5625 12.921875 -26.320312 12.921875 -25.84375 L 12.921875 -2.96875 C 12.921875 -2.476562 13.160156 -2.234375 13.640625 -2.234375 L 14.484375 -2.234375 C 14.960938 -2.234375 15.203125 -2.476562 15.203125 -2.96875 L 15.203125 -3.796875 C 15.203125 -4.273438 15.441406 -4.515625 15.921875 -4.515625 L 16.765625 -4.515625 C 17.242188 -4.515625 17.484375 -4.757812 17.484375 -5.25 L 17.484375 -25.84375 C 17.484375 -26.320312 17.722656 -26.5625 18.203125 -26.5625 L 27.015625 -26.5625 C 27.492188 -26.5625 27.734375 -26.320312 27.734375 -25.84375 L 27.734375 -5.25 C 27.734375 -4.757812 27.492188 -4.515625 27.015625 -4.515625 L 26.1875 -4.515625 C 25.695312 -4.515625 25.453125 -4.273438 25.453125 -3.796875 L 25.453125 -2.96875 C 25.453125 -2.476562 25.210938 -2.234375 24.734375 -2.234375 L 23.90625 -2.234375 C 23.425781 -2.234375 23.1875 -1.992188 23.1875 -1.515625 L 23.1875 -0.6875 C 23.1875 -0.207031 22.941406 0.03125 22.453125 0.03125 L 7.9375 0.03125 C 7.457031 0.03125 7.21875 -0.207031 7.21875 -0.6875 Z M 7.21875 -0.6875 "/></g></g></g><g fill="#000000" fill-opacity="0.5608"><g transform="translate(207.385297, 150.646159)"><g><path d="M 2.65625 -0.71875 L 2.65625 -35.984375 C 2.65625 -36.460938 2.894531 -36.703125 3.375 -36.703125 L 12.203125 -36.703125 C 12.679688 -36.703125 12.921875 -36.460938 12.921875 -35.984375 L 12.921875 -0.71875 C 12.921875 -0.238281 12.679688 0 12.203125 0 L 3.375 0 C 2.894531 0 2.65625 -0.238281 2.65625 -0.71875 Z M 2.65625 -0.71875 "/></g></g></g><g fill="#000000" fill-opacity="0.5608"><g transform="translate(222.962124, 150.646159)"><g><path d="M 2.65625 -0.71875 L 2.65625 -25.875 C 2.65625 -26.351562 2.894531 -26.59375 3.375 -26.59375 L 12.203125 -26.59375 C 12.679688 -26.59375 12.921875 -26.351562 12.921875 -25.875 L 12.921875 -0.71875 C 12.921875 -0.238281 12.679688 0 12.203125 0 L 3.375 0 C 2.894531 0 2.65625 -0.238281 2.65625 -0.71875 Z M 3.796875 -29.609375 L 3.796875 -29.671875 C 3.796875 -30.160156 3.53125 -30.40625 3 -30.40625 C 2.519531 -30.40625 2.28125 -30.644531 2.28125 -31.125 L 2.28125 -34.625 C 2.28125 -35.101562 2.546875 -35.34375 3.078125 -35.34375 C 3.554688 -35.34375 3.796875 -35.609375 3.796875 -36.140625 C 3.796875 -36.617188 4.035156 -36.859375 4.515625 -36.859375 L 11.0625 -36.859375 C 11.539062 -36.859375 11.78125 -36.59375 11.78125 -36.0625 C 11.78125 -35.582031 12.046875 -35.34375 12.578125 -35.34375 C 13.054688 -35.34375 13.296875 -35.101562 13.296875 -34.625 L 13.296875 -31.125 C 13.296875 -30.644531 13.03125 -30.40625 12.5 -30.40625 C 12.019531 -30.40625 11.78125 -30.140625 11.78125 -29.609375 C 11.78125 -29.117188 11.539062 -28.875 11.0625 -28.875 L 4.515625 -28.875 C 4.035156 -28.875 3.796875 -29.117188 3.796875 -29.609375 Z M 3.796875 -29.609375 "/></g></g></g><g fill="#000000" fill-opacity="0.5608"><g transform="translate(238.538951, 150.646159)"><g><path d="M 16 -12.125 L 12.875 -12.125 C 12.394531 -12.125 12.15625 -11.882812 12.15625 -11.40625 L 12.15625 -3 C 12.15625 -2.519531 12.394531 -2.28125 12.875 -2.28125 L 13.71875 -2.28125 C 14.195312 -2.28125 14.4375 -2.519531 14.4375 -3 L 14.4375 -3.84375 C 14.4375 -4.320312 14.675781 -4.5625 15.15625 -4.5625 L 16 -4.5625 C 16.476562 -4.5625 16.71875 -4.800781 16.71875 -5.28125 L 16.71875 -11.40625 C 16.71875 -11.882812 16.476562 -12.125 16 -12.125 Z M 4.1875 -0.71875 L 4.1875 -1.5625 C 4.1875 -2.039062 3.941406 -2.28125 3.453125 -2.28125 L 2.625 -2.28125 C 2.144531 -2.28125 1.90625 -2.519531 1.90625 -3 L 1.90625 -11.40625 C 1.90625 -11.882812 2.144531 -12.125 2.625 -12.125 L 3.453125 -12.125 C 3.941406 -12.125 4.1875 -12.363281 4.1875 -12.84375 L 4.1875 -13.6875 C 4.1875 -14.164062 4.425781 -14.40625 4.90625 -14.40625 L 13.71875 -14.40625 C 14.195312 -14.40625 14.4375 -14.644531 14.4375 -15.125 L 14.4375 -15.953125 C 14.4375 -16.441406 14.675781 -16.6875 15.15625 -16.6875 L 17.140625 -16.6875 C 17.617188 -16.6875 17.859375 -16.925781 17.859375 -17.40625 L 17.859375 -23.59375 C 17.859375 -24.070312 17.617188 -24.3125 17.140625 -24.3125 L 15.15625 -24.3125 C 14.675781 -24.3125 14.4375 -24.070312 14.4375 -23.59375 L 14.4375 -20.484375 C 14.4375 -20.003906 14.195312 -19.765625 13.71875 -19.765625 L 12.875 -19.765625 C 12.394531 -19.765625 12.15625 -19.519531 12.15625 -19.03125 L 12.15625 -17.0625 C 12.15625 -16.582031 11.914062 -16.34375 11.4375 -16.34375 L 3.765625 -16.34375 C 3.285156 -16.34375 3.046875 -16.582031 3.046875 -17.0625 L 3.046875 -23.59375 C 3.046875 -24.070312 3.285156 -24.3125 3.765625 -24.3125 L 5.171875 -24.3125 C 5.648438 -24.3125 5.890625 -24.554688 5.890625 -25.046875 L 5.890625 -25.875 C 5.890625 -26.351562 6.128906 -26.59375 6.609375 -26.59375 L 23.984375 -26.59375 C 24.460938 -26.59375 24.703125 -26.351562 24.703125 -25.875 L 24.703125 -25.046875 C 24.703125 -24.554688 24.941406 -24.3125 25.421875 -24.3125 L 26.265625 -24.3125 C 26.742188 -24.3125 26.984375 -24.070312 26.984375 -23.59375 L 26.984375 -0.71875 C 26.984375 -0.238281 26.742188 0 26.265625 0 L 19.71875 0 C 19.238281 0 19 -0.238281 19 -0.71875 L 19 -1.5625 C 19 -2.039062 18.757812 -2.28125 18.28125 -2.28125 L 17.4375 -2.28125 C 16.957031 -2.28125 16.71875 -2.039062 16.71875 -1.5625 L 16.71875 -0.71875 C 16.71875 -0.238281 16.476562 0 16 0 L 4.90625 0 C 4.425781 0 4.1875 -0.238281 4.1875 -0.71875 Z M 4.1875 -0.71875 "/></g></g></g><g fill="#000000" fill-opacity="0.5608"><g transform="translate(268.172897, 150.646159)"><g/></g></g><g fill="#000000" fill-opacity="0.5608"><g transform="translate(277.670966, 150.646159)"><g><path d="M 16 -12.125 L 12.875 -12.125 C 12.394531 -12.125 12.15625 -11.882812 12.15625 -11.40625 L 12.15625 -3 C 12.15625 -2.519531 12.394531 -2.28125 12.875 -2.28125 L 13.71875 -2.28125 C 14.195312 -2.28125 14.4375 -2.519531 14.4375 -3 L 14.4375 -3.84375 C 14.4375 -4.320312 14.675781 -4.5625 15.15625 -4.5625 L 16 -4.5625 C 16.476562 -4.5625 16.71875 -4.800781 16.71875 -5.28125 L 16.71875 -11.40625 C 16.71875 -11.882812 16.476562 -12.125 16 -12.125 Z M 4.1875 -0.71875 L 4.1875 -1.5625 C 4.1875 -2.039062 3.941406 -2.28125 3.453125 -2.28125 L 2.625 -2.28125 C 2.144531 -2.28125 1.90625 -2.519531 1.90625 -3 L 1.90625 -11.40625 C 1.90625 -11.882812 2.144531 -12.125 2.625 -12.125 L 3.453125 -12.125 C 3.941406 -12.125 4.1875 -12.363281 4.1875 -12.84375 L 4.1875 -13.6875 C 4.1875 -14.164062 4.425781 -14.40625 4.90625 -14.40625 L 13.71875 -14.40625 C 14.195312 -14.40625 14.4375 -14.644531 14.4375 -15.125 L 14.4375 -15.953125 C 14.4375 -16.441406 14.675781 -16.6875 15.15625 -16.6875 L 17.140625 -16.6875 C 17.617188 -16.6875 17.859375 -16.925781 17.859375 -17.40625 L 17.859375 -23.59375 C 17.859375 -24.070312 17.617188 -24.3125 17.140625 -24.3125 L 15.15625 -24.3125 C 14.675781 -24.3125 14.4375 -24.070312 14.4375 -23.59375 L 14.4375 -20.484375 C 14.4375 -20.003906 14.195312 -19.765625 13.71875 -19.765625 L 12.875 -19.765625 C 12.394531 -19.765625 12.15625 -19.519531 12.15625 -19.03125 L 12.15625 -17.0625 C 12.15625 -16.582031 11.914062 -16.34375 11.4375 -16.34375 L 3.765625 -16.34375 C 3.285156 -16.34375 3.046875 -16.582031 3.046875 -17.0625 L 3.046875 -23.59375 C 3.046875 -24.070312 3.285156 -24.3125 3.765625 -24.3125 L 5.171875 -24.3125 C 5.648438 -24.3125 5.890625 -24.554688 5.890625 -25.046875 L 5.890625 -25.875 C 5.890625 -26.351562 6.128906 -26.59375 6.609375 -26.59375 L 23.984375 -26.59375 C 24.460938 -26.59375 24.703125 -26.351562 24.703125 -25.875 L 24.703125 -25.046875 C 24.703125 -24.554688 24.941406 -24.3125 25.421875 -24.3125 L 26.265625 -24.3125 C 26.742188 -24.3125 26.984375 -24.070312 26.984375 -23.59375 L 26.984375 -0.71875 C 26.984375 -0.238281 26.742188 0 26.265625 0 L 19.71875 0 C 19.238281 0 19 -0.238281 19 -0.71875 L 19 -1.5625 C 19 -2.039062 18.757812 -2.28125 18.28125 -2.28125 L 17.4375 -2.28125 C 16.957031 -2.28125 16.71875 -2.039062 16.71875 -1.5625 L 16.71875 -0.71875 C 16.71875 -0.238281 16.476562 0 16 0 L 4.90625 0 C 4.425781 0 4.1875 -0.238281 4.1875 -0.71875 Z M 4.1875 -0.71875 "/></g></g></g><g fill="#000000" fill-opacity="0.5608"><g transform="translate(307.304913, 150.646159)"><g><path d="M 2.65625 -0.71875 L 2.65625 -35.984375 C 2.65625 -36.460938 2.894531 -36.703125 3.375 -36.703125 L 12.203125 -36.703125 C 12.679688 -36.703125 12.921875 -36.460938 12.921875 -35.984375 L 12.921875 -24.890625 C 12.921875 -24.503906 13.109375 -24.3125 13.484375 -24.3125 C 13.867188 -24.3125 14.0625 -24.503906 14.0625 -24.890625 L 14.0625 -25.875 C 14.0625 -26.351562 14.300781 -26.59375 14.78125 -26.59375 L 24.734375 -26.59375 C 25.210938 -26.59375 25.453125 -26.351562 25.453125 -25.875 L 25.453125 -25.046875 C 25.453125 -24.554688 25.695312 -24.3125 26.1875 -24.3125 L 27.015625 -24.3125 C 27.222656 -24.3125 27.328125 -24.3125 27.328125 -24.3125 C 27.328125 -24.3125 27.222656 -24.3125 27.015625 -24.3125 L 26.1875 -24.3125 C 25.976562 -24.3125 25.875 -24.3125 25.875 -24.3125 C 25.875 -24.3125 25.976562 -24.3125 26.1875 -24.3125 L 27.015625 -24.3125 C 27.492188 -24.3125 27.734375 -24.070312 27.734375 -23.59375 L 27.734375 -0.71875 C 27.734375 -0.238281 27.492188 0 27.015625 0 L 18.203125 0 C 17.722656 0 17.484375 -0.238281 17.484375 -0.71875 L 17.484375 -23.59375 C 17.484375 -24.070312 17.242188 -24.3125 16.765625 -24.3125 L 15.921875 -24.3125 C 15.441406 -24.3125 15.203125 -24.070312 15.203125 -23.59375 L 15.203125 -22.765625 C 15.203125 -22.285156 14.960938 -22.046875 14.484375 -22.046875 L 13.640625 -22.046875 C 13.160156 -22.046875 12.921875 -21.800781 12.921875 -21.3125 L 12.921875 -0.71875 C 12.921875 -0.238281 12.679688 0 12.203125 0 L 3.375 0 C 2.894531 0 2.65625 -0.238281 2.65625 -0.71875 Z M 2.65625 -0.71875 "/></g></g></g><g fill="#000000" fill-opacity="0.5608"><g transform="translate(337.698702, 150.646159)"><g><path d="M 3.421875 -14.515625 C 2.941406 -14.515625 2.703125 -14.753906 2.703125 -15.234375 L 2.703125 -15.921875 C 2.703125 -16.398438 2.941406 -16.640625 3.421875 -16.640625 L 18.015625 -16.640625 C 18.492188 -16.640625 18.734375 -16.398438 18.734375 -15.921875 L 18.734375 -15.234375 C 18.734375 -14.753906 18.492188 -14.515625 18.015625 -14.515625 Z M 3.421875 -14.515625 "/></g></g></g><g fill="#000000" fill-opacity="0.5608"><g transform="translate(359.12632, 150.646159)"><g><path d="M 16 -12.125 L 12.875 -12.125 C 12.394531 -12.125 12.15625 -11.882812 12.15625 -11.40625 L 12.15625 -3 C 12.15625 -2.519531 12.394531 -2.28125 12.875 -2.28125 L 13.71875 -2.28125 C 14.195312 -2.28125 14.4375 -2.519531 14.4375 -3 L 14.4375 -3.84375 C 14.4375 -4.320312 14.675781 -4.5625 15.15625 -4.5625 L 16 -4.5625 C 16.476562 -4.5625 16.71875 -4.800781 16.71875 -5.28125 L 16.71875 -11.40625 C 16.71875 -11.882812 16.476562 -12.125 16 -12.125 Z M 4.1875 -0.71875 L 4.1875 -1.5625 C 4.1875 -2.039062 3.941406 -2.28125 3.453125 -2.28125 L 2.625 -2.28125 C 2.144531 -2.28125 1.90625 -2.519531 1.90625 -3 L 1.90625 -11.40625 C 1.90625 -11.882812 2.144531 -12.125 2.625 -12.125 L 3.453125 -12.125 C 3.941406 -12.125 4.1875 -12.363281 4.1875 -12.84375 L 4.1875 -13.6875 C 4.1875 -14.164062 4.425781 -14.40625 4.90625 -14.40625 L 13.71875 -14.40625 C 14.195312 -14.40625 14.4375 -14.644531 14.4375 -15.125 L 14.4375 -15.953125 C 14.4375 -16.441406 14.675781 -16.6875 15.15625 -16.6875 L 17.140625 -16.6875 C 17.617188 -16.6875 17.859375 -16.925781 17.859375 -17.40625 L 17.859375 -23.59375 C 17.859375 -24.070312 17.617188 -24.3125 17.140625 -24.3125 L 15.15625 -24.3125 C 14.675781 -24.3125 14.4375 -24.070312 14.4375 -23.59375 L 14.4375 -20.484375 C 14.4375 -20.003906 14.195312 -19.765625 13.71875 -19.765625 L 12.875 -19.765625 C 12.394531 -19.765625 12.15625 -19.519531 12.15625 -19.03125 L 12.15625 -17.0625 C 12.15625 -16.582031 11.914062 -16.34375 11.4375 -16.34375 L 3.765625 -16.34375 C 3.285156 -16.34375 3.046875 -16.582031 3.046875 -17.0625 L 3.046875 -23.59375 C 3.046875 -24.070312 3.285156 -24.3125 3.765625 -24.3125 L 5.171875 -24.3125 C 5.648438 -24.3125 5.890625 -24.554688 5.890625 -25.046875 L 5.890625 -25.875 C 5.890625 -26.351562 6.128906 -26.59375 6.609375 -26.59375 L 23.984375 -26.59375 C 24.460938 -26.59375 24.703125 -26.351562 24.703125 -25.875 L 24.703125 -25.046875 C 24.703125 -24.554688 24.941406 -24.3125 25.421875 -24.3125 L 26.265625 -24.3125 C 26.742188 -24.3125 26.984375 -24.070312 26.984375 -23.59375 L 26.984375 -0.71875 C 26.984375 -0.238281 26.742188 0 26.265625 0 L 19.71875 0 C 19.238281 0 19 -0.238281 19 -0.71875 L 19 -1.5625 C 19 -2.039062 18.757812 -2.28125 18.28125 -2.28125 L 17.4375 -2.28125 C 16.957031 -2.28125 16.71875 -2.039062 16.71875 -1.5625 L 16.71875 -0.71875 C 16.71875 -0.238281 16.476562 0 16 0 L 4.90625 0 C 4.425781 0 4.1875 -0.238281 4.1875 -0.71875 Z M 4.1875 -0.71875 "/></g></g></g><g fill="#000000" fill-opacity="0.5608"><g transform="translate(388.760267, 150.646159)"><g><path d="M 2.65625 -0.71875 L 2.65625 -35.984375 C 2.65625 -36.460938 2.894531 -36.703125 3.375 -36.703125 L 12.203125 -36.703125 C 12.679688 -36.703125 12.921875 -36.460938 12.921875 -35.984375 L 12.921875 -24.890625 C 12.921875 -24.503906 13.109375 -24.3125 13.484375 -24.3125 C 13.867188 -24.3125 14.0625 -24.503906 14.0625 -24.890625 L 14.0625 -25.875 C 14.0625 -26.351562 14.300781 -26.59375 14.78125 -26.59375 L 24.734375 -26.59375 C 25.210938 -26.59375 25.453125 -26.351562 25.453125 -25.875 L 25.453125 -25.046875 C 25.453125 -24.554688 25.695312 -24.3125 26.1875 -24.3125 L 27.015625 -24.3125 C 27.222656 -24.3125 27.328125 -24.3125 27.328125 -24.3125 C 27.328125 -24.3125 27.222656 -24.3125 27.015625 -24.3125 L 26.1875 -24.3125 C 25.976562 -24.3125 25.875 -24.3125 25.875 -24.3125 C 25.875 -24.3125 25.976562 -24.3125 26.1875 -24.3125 L 27.015625 -24.3125 C 27.492188 -24.3125 27.734375 -24.070312 27.734375 -23.59375 L 27.734375 -0.71875 C 27.734375 -0.238281 27.492188 0 27.015625 0 L 18.203125 0 C 17.722656 0 17.484375 -0.238281 17.484375 -0.71875 L 17.484375 -23.59375 C 17.484375 -24.070312 17.242188 -24.3125 16.765625 -24.3125 L 15.921875 -24.3125 C 15.441406 -24.3125 15.203125 -24.070312 15.203125 -23.59375 L 15.203125 -22.765625 C 15.203125 -22.285156 14.960938 -22.046875 14.484375 -22.046875 L 13.640625 -22.046875 C 13.160156 -22.046875 12.921875 -21.800781 12.921875 -21.3125 L 12.921875 -0.71875 C 12.921875 -0.238281 12.679688 0 12.203125 0 L 3.375 0 C 2.894531 0 2.65625 -0.238281 2.65625 -0.71875 Z M 2.65625 -0.71875 "/></g></g></g><g fill="#000000" fill-opacity="0.5608"><g transform="translate(419.154032, 150.646159)"><g><path d="M 4.1875 -0.765625 L 4.1875 -0.84375 C 4.1875 -1.289062 3.957031 -1.515625 3.5 -1.515625 C 2.9375 -1.515625 2.65625 -1.796875 2.65625 -2.359375 L 2.65625 -7.90625 C 2.65625 -8.457031 2.9375 -8.734375 3.5 -8.734375 C 3.957031 -8.734375 4.1875 -8.960938 4.1875 -9.421875 L 4.1875 -9.5 C 4.1875 -10.007812 4.4375 -10.265625 4.9375 -10.265625 L 10.5625 -10.265625 C 11.125 -10.265625 11.40625 -9.984375 11.40625 -9.421875 C 11.40625 -8.960938 11.628906 -8.734375 12.078125 -8.734375 L 12.15625 -8.734375 C 12.664062 -8.734375 12.921875 -8.484375 12.921875 -7.984375 L 12.921875 4.75 C 12.921875 5.382812 12.601562 5.703125 11.96875 5.703125 L 10.453125 5.703125 C 9.816406 5.703125 9.5 5.382812 9.5 4.75 L 9.5 0.953125 C 9.5 0.316406 9.179688 0 8.546875 0 L 4.9375 0 C 4.4375 0 4.1875 -0.253906 4.1875 -0.765625 Z M 4.1875 -0.765625 "/></g></g></g><g fill="#000000" fill-opacity="0.5608"><g transform="translate(434.730859, 150.646159)"><g/></g></g><g fill="#000000" fill-opacity="0.5608"><g transform="translate(444.228905, 150.646159)"><g><path d="M 16 -12.125 L 12.875 -12.125 C 12.394531 -12.125 12.15625 -11.882812 12.15625 -11.40625 L 12.15625 -3 C 12.15625 -2.519531 12.394531 -2.28125 12.875 -2.28125 L 13.71875 -2.28125 C 14.195312 -2.28125 14.4375 -2.519531 14.4375 -3 L 14.4375 -3.84375 C 14.4375 -4.320312 14.675781 -4.5625 15.15625 -4.5625 L 16 -4.5625 C 16.476562 -4.5625 16.71875 -4.800781 16.71875 -5.28125 L 16.71875 -11.40625 C 16.71875 -11.882812 16.476562 -12.125 16 -12.125 Z M 4.1875 -0.71875 L 4.1875 -1.5625 C 4.1875 -2.039062 3.941406 -2.28125 3.453125 -2.28125 L 2.625 -2.28125 C 2.144531 -2.28125 1.90625 -2.519531 1.90625 -3 L 1.90625 -11.40625 C 1.90625 -11.882812 2.144531 -12.125 2.625 -12.125 L 3.453125 -12.125 C 3.941406 -12.125 4.1875 -12.363281 4.1875 -12.84375 L 4.1875 -13.6875 C 4.1875 -14.164062 4.425781 -14.40625 4.90625 -14.40625 L 13.71875 -14.40625 C 14.195312 -14.40625 14.4375 -14.644531 14.4375 -15.125 L 14.4375 -15.953125 C 14.4375 -16.441406 14.675781 -16.6875 15.15625 -16.6875 L 17.140625 -16.6875 C 17.617188 -16.6875 17.859375 -16.925781 17.859375 -17.40625 L 17.859375 -23.59375 C 17.859375 -24.070312 17.617188 -24.3125 17.140625 -24.3125 L 15.15625 -24.3125 C 14.675781 -24.3125 14.4375 -24.070312 14.4375 -23.59375 L 14.4375 -20.484375 C 14.4375 -20.003906 14.195312 -19.765625 13.71875 -19.765625 L 12.875 -19.765625 C 12.394531 -19.765625 12.15625 -19.519531 12.15625 -19.03125 L 12.15625 -17.0625 C 12.15625 -16.582031 11.914062 -16.34375 11.4375 -16.34375 L 3.765625 -16.34375 C 3.285156 -16.34375 3.046875 -16.582031 3.046875 -17.0625 L 3.046875 -23.59375 C 3.046875 -24.070312 3.285156 -24.3125 3.765625 -24.3125 L 5.171875 -24.3125 C 5.648438 -24.3125 5.890625 -24.554688 5.890625 -25.046875 L 5.890625 -25.875 C 5.890625 -26.351562 6.128906 -26.59375 6.609375 -26.59375 L 23.984375 -26.59375 C 24.460938 -26.59375 24.703125 -26.351562 24.703125 -25.875 L 24.703125 -25.046875 C 24.703125 -24.554688 24.941406 -24.3125 25.421875 -24.3125 L 26.265625 -24.3125 C 26.742188 -24.3125 26.984375 -24.070312 26.984375 -23.59375 L 26.984375 -0.71875 C 26.984375 -0.238281 26.742188 0 26.265625 0 L 19.71875 0 C 19.238281 0 19 -0.238281 19 -0.71875 L 19 -1.5625 C 19 -2.039062 18.757812 -2.28125 18.28125 -2.28125 L 17.4375 -2.28125 C 16.957031 -2.28125 16.71875 -2.039062 16.71875 -1.5625 L 16.71875 -0.71875 C 16.71875 -0.238281 16.476562 0 16 0 L 4.90625 0 C 4.425781 0 4.1875 -0.238281 4.1875 -0.71875 Z M 4.1875 -0.71875 "/></g></g></g><g fill="#000000" fill-opacity="0.5608"><g transform="translate(473.862829, 150.646159)"><g><path d="M 2.65625 -0.71875 L 2.65625 -35.984375 C 2.65625 -36.460938 2.894531 -36.703125 3.375 -36.703125 L 12.203125 -36.703125 C 12.679688 -36.703125 12.921875 -36.460938 12.921875 -35.984375 L 12.921875 -24.890625 C 12.921875 -24.503906 13.109375 -24.3125 13.484375 -24.3125 C 13.867188 -24.3125 14.0625 -24.503906 14.0625 -24.890625 L 14.0625 -25.875 C 14.0625 -26.351562 14.300781 -26.59375 14.78125 -26.59375 L 24.734375 -26.59375 C 25.210938 -26.59375 25.453125 -26.351562 25.453125 -25.875 L 25.453125 -25.046875 C 25.453125 -24.554688 25.695312 -24.3125 26.1875 -24.3125 L 27.015625 -24.3125 C 27.222656 -24.3125 27.328125 -24.3125 27.328125 -24.3125 C 27.328125 -24.3125 27.222656 -24.3125 27.015625 -24.3125 L 26.1875 -24.3125 C 25.976562 -24.3125 25.875 -24.3125 25.875 -24.3125 C 25.875 -24.3125 25.976562 -24.3125 26.1875 -24.3125 L 27.015625 -24.3125 C 27.492188 -24.3125 27.734375 -24.070312 27.734375 -23.59375 L 27.734375 -0.71875 C 27.734375 -0.238281 27.492188 0 27.015625 0 L 18.203125 0 C 17.722656 0 17.484375 -0.238281 17.484375 -0.71875 L 17.484375 -23.59375 C 17.484375 -24.070312 17.242188 -24.3125 16.765625 -24.3125 L 15.921875 -24.3125 C 15.441406 -24.3125 15.203125 -24.070312 15.203125 -23.59375 L 15.203125 -22.765625 C 15.203125 -22.285156 14.960938 -22.046875 14.484375 -22.046875 L 13.640625 -22.046875 C 13.160156 -22.046875 12.921875 -21.800781 12.921875 -21.3125 L 12.921875 -0.71875 C 12.921875 -0.238281 12.679688 0 12.203125 0 L 3.375 0 C 2.894531 0 2.65625 -0.238281 2.65625 -0.71875 Z M 2.65625 -0.71875 "/></g></g></g><g fill="#ffec45" fill-opacity="1"><g transform="translate(1.699228, 148.932204)"><g><path d="M 2.65625 -0.71875 L 2.65625 -34.84375 C 2.65625 -35.320312 2.894531 -35.5625 3.375 -35.5625 L 12.203125 -35.5625 C 12.679688 -35.5625 12.921875 -35.320312 12.921875 -34.84375 L 12.921875 -0.71875 C 12.921875 -0.238281 12.679688 0 12.203125 0 L 3.375 0 C 2.894531 0 2.65625 -0.238281 2.65625 -0.71875 Z M 2.65625 -0.71875 "/></g></g></g><g fill="#ffec45" fill-opacity="1"><g transform="translate(17.276044, 148.932204)"><g><path d="M 4.1875 -26.0625 L 4.1875 -26.140625 C 4.1875 -26.597656 3.957031 -26.828125 3.5 -26.828125 C 2.9375 -26.828125 2.65625 -27.109375 2.65625 -27.671875 L 2.65625 -33.21875 C 2.65625 -33.769531 2.9375 -34.046875 3.5 -34.046875 C 3.957031 -34.046875 4.1875 -34.273438 4.1875 -34.734375 L 4.1875 -34.8125 C 4.1875 -35.3125 4.4375 -35.5625 4.9375 -35.5625 L 10.5625 -35.5625 C 11.125 -35.5625 11.40625 -35.285156 11.40625 -34.734375 C 11.40625 -34.273438 11.628906 -34.046875 12.078125 -34.046875 L 12.15625 -34.046875 C 12.664062 -34.046875 12.921875 -33.789062 12.921875 -33.28125 L 12.921875 -20.5625 C 12.921875 -19.925781 12.601562 -19.609375 11.96875 -19.609375 L 10.453125 -19.609375 C 9.816406 -19.609375 9.5 -19.925781 9.5 -20.5625 L 9.5 -24.359375 C 9.5 -24.992188 9.179688 -25.3125 8.546875 -25.3125 L 4.9375 -25.3125 C 4.4375 -25.3125 4.1875 -25.5625 4.1875 -26.0625 Z M 4.1875 -26.0625 "/></g></g></g><g fill="#ffec45" fill-opacity="1"><g transform="translate(32.852859, 148.932204)"><g><path d="M 2.65625 -0.71875 L 2.65625 -25.875 C 2.65625 -26.351562 2.894531 -26.59375 3.375 -26.59375 L 8.78125 -26.59375 C 9.257812 -26.59375 9.5 -26.351562 9.5 -25.875 L 9.5 -22.765625 C 9.5 -22.285156 9.738281 -22.046875 10.21875 -22.046875 L 11.0625 -22.046875 C 11.539062 -22.046875 11.78125 -22.285156 11.78125 -22.765625 L 11.78125 -23.59375 C 11.78125 -24.070312 12.019531 -24.3125 12.5 -24.3125 L 13.34375 -24.3125 C 13.820312 -24.3125 14.0625 -24.554688 14.0625 -25.046875 L 14.0625 -25.875 C 14.0625 -26.351562 14.300781 -26.59375 14.78125 -26.59375 L 24.734375 -26.59375 C 25.210938 -26.59375 25.453125 -26.351562 25.453125 -25.875 L 25.453125 -25.046875 C 25.453125 -24.554688 25.695312 -24.3125 26.1875 -24.3125 L 28.15625 -24.3125 C 28.632812 -24.3125 28.875 -24.554688 28.875 -25.046875 L 28.875 -25.875 C 28.875 -26.351562 29.117188 -26.59375 29.609375 -26.59375 L 39.5625 -26.59375 C 40.039062 -26.59375 40.28125 -26.351562 40.28125 -25.875 L 40.28125 -25.046875 C 40.28125 -24.554688 40.519531 -24.3125 41 -24.3125 L 41.84375 -24.3125 C 42.320312 -24.3125 42.5625 -24.070312 42.5625 -23.59375 L 42.5625 -0.71875 C 42.5625 -0.238281 42.320312 0 41.84375 0 L 33.015625 0 C 32.535156 0 32.296875 -0.238281 32.296875 -0.71875 L 32.296875 -23.59375 C 32.296875 -24.070312 32.054688 -24.3125 31.578125 -24.3125 L 30.734375 -24.3125 C 30.253906 -24.3125 30.015625 -24.070312 30.015625 -23.59375 L 30.015625 -22.765625 C 30.015625 -22.285156 29.773438 -22.046875 29.296875 -22.046875 L 28.46875 -22.046875 C 27.976562 -22.046875 27.734375 -21.800781 27.734375 -21.3125 L 27.734375 -0.71875 C 27.734375 -0.238281 27.492188 0 27.015625 0 L 18.203125 0 C 17.722656 0 17.484375 -0.238281 17.484375 -0.71875 L 17.484375 -23.59375 C 17.484375 -24.070312 17.242188 -24.3125 16.765625 -24.3125 L 15.921875 -24.3125 C 15.441406 -24.3125 15.203125 -24.070312 15.203125 -23.59375 L 15.203125 -22.765625 C 15.203125 -22.285156 14.960938 -22.046875 14.484375 -22.046875 L 13.640625 -22.046875 C 13.160156 -22.046875 12.921875 -21.800781 12.921875 -21.3125 L 12.921875 -0.71875 C 12.921875 -0.238281 12.679688 0 12.203125 0 L 3.375 0 C 2.894531 0 2.65625 -0.238281 2.65625 -0.71875 Z M 2.65625 -0.71875 "/></g></g></g><g fill="#ffec45" fill-opacity="1"><g transform="translate(78.063621, 148.932204)"><g/></g></g><g fill="#ffec45" fill-opacity="1"><g transform="translate(87.561679, 148.932204)"><g><path d="M 4.5625 -0.71875 L 4.5625 -1.5625 C 4.5625 -2.039062 4.320312 -2.28125 3.84375 -2.28125 L 3 -2.28125 C 2.519531 -2.28125 2.28125 -2.519531 2.28125 -3 L 2.28125 -9.53125 C 2.28125 -10.019531 2.519531 -10.265625 3 -10.265625 L 11.8125 -10.265625 C 12.300781 -10.265625 12.546875 -10.019531 12.546875 -9.53125 L 12.546875 -3 C 12.546875 -2.519531 12.785156 -2.28125 13.265625 -2.28125 L 14.09375 -2.28125 C 14.570312 -2.28125 14.8125 -2.519531 14.8125 -3 L 14.8125 -3.84375 C 14.8125 -4.320312 15.054688 -4.5625 15.546875 -4.5625 L 16.421875 -4.5625 C 16.898438 -4.5625 17.140625 -4.800781 17.140625 -5.28125 L 17.140625 -9.078125 C 17.140625 -9.554688 16.898438 -9.796875 16.421875 -9.796875 L 15.578125 -9.796875 C 15.097656 -9.796875 14.859375 -10.039062 14.859375 -10.53125 L 14.859375 -11.359375 C 14.859375 -11.835938 14.617188 -12.078125 14.140625 -12.078125 L 5.28125 -12.078125 C 4.800781 -12.078125 4.5625 -12.320312 4.5625 -12.8125 L 4.5625 -13.640625 C 4.5625 -14.117188 4.320312 -14.359375 3.84375 -14.359375 L 3 -14.359375 C 2.519531 -14.359375 2.28125 -14.601562 2.28125 -15.09375 L 2.28125 -23.59375 C 2.28125 -24.070312 2.519531 -24.3125 3 -24.3125 L 3.578125 -24.3125 C 4.054688 -24.3125 4.296875 -24.554688 4.296875 -25.046875 L 4.296875 -25.875 C 4.296875 -26.351562 4.535156 -26.59375 5.015625 -26.59375 L 23.984375 -26.59375 C 24.460938 -26.59375 24.703125 -26.351562 24.703125 -25.875 L 24.703125 -25.046875 C 24.703125 -24.554688 24.941406 -24.3125 25.421875 -24.3125 L 26.265625 -24.3125 C 26.742188 -24.3125 26.984375 -24.070312 26.984375 -23.59375 L 26.984375 -17.0625 C 26.984375 -16.582031 26.742188 -16.34375 26.265625 -16.34375 L 20.109375 -16.34375 C 19.617188 -16.34375 19.375 -16.582031 19.375 -17.0625 L 19.375 -17.890625 C 19.375 -18.378906 19.132812 -18.625 18.65625 -18.625 L 17.828125 -18.625 C 17.335938 -18.625 17.09375 -18.863281 17.09375 -19.34375 L 17.09375 -23.59375 C 17.09375 -24.070312 16.851562 -24.3125 16.375 -24.3125 L 15.546875 -24.3125 C 15.054688 -24.3125 14.8125 -24.070312 14.8125 -23.59375 L 14.8125 -22.765625 C 14.8125 -22.285156 14.570312 -22.046875 14.09375 -22.046875 L 13.265625 -22.046875 C 12.785156 -22.046875 12.546875 -21.800781 12.546875 -21.3125 L 12.546875 -17.359375 C 12.546875 -16.878906 12.785156 -16.640625 13.265625 -16.640625 L 14.09375 -16.640625 C 14.570312 -16.640625 14.8125 -16.398438 14.8125 -15.921875 L 14.8125 -15.09375 C 14.8125 -14.601562 15.054688 -14.359375 15.546875 -14.359375 L 24.015625 -14.359375 C 24.492188 -14.359375 24.734375 -14.117188 24.734375 -13.640625 L 24.734375 -12.8125 C 24.734375 -12.320312 24.972656 -12.078125 25.453125 -12.078125 L 26.296875 -12.078125 C 26.773438 -12.078125 27.015625 -11.835938 27.015625 -11.359375 L 27.015625 -3 C 27.015625 -2.519531 26.773438 -2.28125 26.296875 -2.28125 L 25.453125 -2.28125 C 24.972656 -2.28125 24.734375 -2.039062 24.734375 -1.5625 L 24.734375 -0.71875 C 24.734375 -0.238281 24.492188 0 24.015625 0 L 5.28125 0 C 4.800781 0 4.5625 -0.238281 4.5625 -0.71875 Z M 4.5625 -0.71875 "/></g></g></g><g fill="#ffec45" fill-opacity="1"><g transform="translate(117.195625, 148.932204)"><g><path d="M 7.21875 -0.71875 L 7.21875 -1.5625 C 7.21875 -2.039062 6.976562 -2.28125 6.5 -2.28125 L 5.65625 -2.28125 C 5.175781 -2.28125 4.9375 -2.519531 4.9375 -3 L 4.9375 -3.84375 C 4.9375 -4.320312 4.695312 -4.5625 4.21875 -4.5625 L 3.375 -4.5625 C 2.894531 -4.5625 2.65625 -4.800781 2.65625 -5.28125 L 2.65625 -21.3125 C 2.65625 -21.800781 2.894531 -22.046875 3.375 -22.046875 L 4.21875 -22.046875 C 4.695312 -22.046875 4.9375 -22.285156 4.9375 -22.765625 L 4.9375 -23.59375 C 4.9375 -24.070312 5.175781 -24.3125 5.65625 -24.3125 L 6.5 -24.3125 C 6.976562 -24.3125 7.21875 -24.554688 7.21875 -25.046875 L 7.21875 -25.875 C 7.21875 -26.351562 7.457031 -26.59375 7.9375 -26.59375 L 22.453125 -26.59375 C 22.941406 -26.59375 23.1875 -26.351562 23.1875 -25.875 L 23.1875 -25.046875 C 23.1875 -24.554688 23.425781 -24.3125 23.90625 -24.3125 L 24.734375 -24.3125 C 25.210938 -24.3125 25.453125 -24.070312 25.453125 -23.59375 L 25.453125 -22.765625 C 25.453125 -22.285156 25.695312 -22.046875 26.1875 -22.046875 L 27.015625 -22.046875 C 27.492188 -22.046875 27.734375 -21.800781 27.734375 -21.3125 L 27.734375 -5.28125 C 27.734375 -4.800781 27.492188 -4.5625 27.015625 -4.5625 L 26.1875 -4.5625 C 25.695312 -4.5625 25.453125 -4.320312 25.453125 -3.84375 L 25.453125 -3 C 25.453125 -2.519531 25.210938 -2.28125 24.734375 -2.28125 L 23.90625 -2.28125 C 23.425781 -2.28125 23.1875 -2.039062 23.1875 -1.5625 L 23.1875 -0.71875 C 23.1875 -0.238281 22.941406 0 22.453125 0 L 7.9375 0 C 7.457031 0 7.21875 -0.238281 7.21875 -0.71875 Z M 15.921875 -4.5625 L 16.765625 -4.5625 C 17.242188 -4.5625 17.484375 -4.800781 17.484375 -5.28125 L 17.484375 -23.59375 C 17.484375 -24.070312 17.242188 -24.3125 16.765625 -24.3125 L 15.921875 -24.3125 C 15.441406 -24.3125 15.203125 -24.070312 15.203125 -23.59375 L 15.203125 -22.765625 C 15.203125 -22.285156 14.960938 -22.046875 14.484375 -22.046875 L 13.640625 -22.046875 C 13.160156 -22.046875 12.921875 -21.800781 12.921875 -21.3125 L 12.921875 -3 C 12.921875 -2.519531 13.160156 -2.28125 13.640625 -2.28125 L 14.484375 -2.28125 C 14.960938 -2.28125 15.203125 -2.519531 15.203125 -3 L 15.203125 -3.84375 C 15.203125 -4.320312 15.441406 -4.5625 15.921875 -4.5625 Z M 15.921875 -4.5625 "/></g></g></g><g fill="#ffec45" fill-opacity="1"><g transform="translate(147.589414, 148.932204)"><g/></g></g><g fill="#ffec45" fill-opacity="1"><g transform="translate(157.087472, 148.932204)"><g><path d="M -2.28125 8.78125 L -2.28125 7.9375 C -2.28125 7.457031 -2.519531 7.21875 -3 7.21875 L -4.984375 7.21875 C -5.460938 7.21875 -5.703125 6.976562 -5.703125 6.5 L -5.703125 2.625 C -5.703125 2.144531 -5.460938 1.90625 -4.984375 1.90625 L 1.171875 1.90625 C 1.660156 1.90625 1.90625 2.144531 1.90625 2.625 L 1.90625 6.5 C 1.90625 6.976562 2.144531 7.21875 2.625 7.21875 L 3.453125 7.21875 C 3.941406 7.21875 4.1875 6.976562 4.1875 6.5 L 4.1875 -25.875 C 4.1875 -26.351562 4.425781 -26.59375 4.90625 -26.59375 L 13.71875 -26.59375 C 14.195312 -26.59375 14.4375 -26.351562 14.4375 -25.875 L 14.4375 6.5 C 14.4375 6.976562 14.195312 7.21875 13.71875 7.21875 L 12.875 7.21875 C 12.394531 7.21875 12.15625 7.457031 12.15625 7.9375 L 12.15625 8.78125 C 12.15625 9.257812 11.914062 9.5 11.4375 9.5 L -1.5625 9.5 C -2.039062 9.5 -2.28125 9.257812 -2.28125 8.78125 Z M 5.3125 -29.609375 L 5.3125 -29.671875 C 5.3125 -30.160156 5.046875 -30.40625 4.515625 -30.40625 C 4.035156 -30.40625 3.796875 -30.644531 3.796875 -31.125 L 3.796875 -34.625 C 3.796875 -35.101562 4.0625 -35.34375 4.59375 -35.34375 C 5.070312 -35.34375 5.3125 -35.609375 5.3125 -36.140625 C 5.3125 -36.617188 5.554688 -36.859375 6.046875 -36.859375 L 12.578125 -36.859375 C 13.054688 -36.859375 13.296875 -36.59375 13.296875 -36.0625 C 13.296875 -35.582031 13.5625 -35.34375 14.09375 -35.34375 C 14.570312 -35.34375 14.8125 -35.101562 14.8125 -34.625 L 14.8125 -31.125 C 14.8125 -30.644531 14.546875 -30.40625 14.015625 -30.40625 C 13.535156 -30.40625 13.296875 -30.140625 13.296875 -29.609375 C 13.296875 -29.117188 13.054688 -28.875 12.578125 -28.875 L 6.046875 -28.875 C 5.554688 -28.875 5.3125 -29.117188 5.3125 -29.609375 Z M 5.3125 -29.609375 "/></g></g></g><g fill="#ffec45" fill-opacity="1"><g transform="translate(175.019813, 148.932204)"><g><path d="M 7.21875 -0.6875 L 7.21875 -1.515625 C 7.21875 -1.992188 6.976562 -2.234375 6.5 -2.234375 L 5.65625 -2.234375 C 5.175781 -2.234375 4.9375 -2.476562 4.9375 -2.96875 L 4.9375 -3.796875 C 4.9375 -4.273438 4.695312 -4.515625 4.21875 -4.515625 L 3.375 -4.515625 C 2.894531 -4.515625 2.65625 -4.757812 2.65625 -5.25 L 2.65625 -25.84375 C 2.65625 -26.320312 2.894531 -26.5625 3.375 -26.5625 L 12.203125 -26.5625 C 12.679688 -26.5625 12.921875 -26.320312 12.921875 -25.84375 L 12.921875 -2.96875 C 12.921875 -2.476562 13.160156 -2.234375 13.640625 -2.234375 L 14.484375 -2.234375 C 14.960938 -2.234375 15.203125 -2.476562 15.203125 -2.96875 L 15.203125 -3.796875 C 15.203125 -4.273438 15.441406 -4.515625 15.921875 -4.515625 L 16.765625 -4.515625 C 17.242188 -4.515625 17.484375 -4.757812 17.484375 -5.25 L 17.484375 -25.84375 C 17.484375 -26.320312 17.722656 -26.5625 18.203125 -26.5625 L 27.015625 -26.5625 C 27.492188 -26.5625 27.734375 -26.320312 27.734375 -25.84375 L 27.734375 -5.25 C 27.734375 -4.757812 27.492188 -4.515625 27.015625 -4.515625 L 26.1875 -4.515625 C 25.695312 -4.515625 25.453125 -4.273438 25.453125 -3.796875 L 25.453125 -2.96875 C 25.453125 -2.476562 25.210938 -2.234375 24.734375 -2.234375 L 23.90625 -2.234375 C 23.425781 -2.234375 23.1875 -1.992188 23.1875 -1.515625 L 23.1875 -0.6875 C 23.1875 -0.207031 22.941406 0.03125 22.453125 0.03125 L 7.9375 0.03125 C 7.457031 0.03125 7.21875 -0.207031 7.21875 -0.6875 Z M 7.21875 -0.6875 "/></g></g></g><g fill="#ffec45" fill-opacity="1"><g transform="translate(205.413613, 148.932204)"><g><path d="M 2.65625 -0.71875 L 2.65625 -35.984375 C 2.65625 -36.460938 2.894531 -36.703125 3.375 -36.703125 L 12.203125 -36.703125 C 12.679688 -36.703125 12.921875 -36.460938 12.921875 -35.984375 L 12.921875 -0.71875 C 12.921875 -0.238281 12.679688 0 12.203125 0 L 3.375 0 C 2.894531 0 2.65625 -0.238281 2.65625 -0.71875 Z M 2.65625 -0.71875 "/></g></g></g><g fill="#ffec45" fill-opacity="1"><g transform="translate(220.99044, 148.932204)"><g><path d="M 2.65625 -0.71875 L 2.65625 -25.875 C 2.65625 -26.351562 2.894531 -26.59375 3.375 -26.59375 L 12.203125 -26.59375 C 12.679688 -26.59375 12.921875 -26.351562 12.921875 -25.875 L 12.921875 -0.71875 C 12.921875 -0.238281 12.679688 0 12.203125 0 L 3.375 0 C 2.894531 0 2.65625 -0.238281 2.65625 -0.71875 Z M 3.796875 -29.609375 L 3.796875 -29.671875 C 3.796875 -30.160156 3.53125 -30.40625 3 -30.40625 C 2.519531 -30.40625 2.28125 -30.644531 2.28125 -31.125 L 2.28125 -34.625 C 2.28125 -35.101562 2.546875 -35.34375 3.078125 -35.34375 C 3.554688 -35.34375 3.796875 -35.609375 3.796875 -36.140625 C 3.796875 -36.617188 4.035156 -36.859375 4.515625 -36.859375 L 11.0625 -36.859375 C 11.539062 -36.859375 11.78125 -36.59375 11.78125 -36.0625 C 11.78125 -35.582031 12.046875 -35.34375 12.578125 -35.34375 C 13.054688 -35.34375 13.296875 -35.101562 13.296875 -34.625 L 13.296875 -31.125 C 13.296875 -30.644531 13.03125 -30.40625 12.5 -30.40625 C 12.019531 -30.40625 11.78125 -30.140625 11.78125 -29.609375 C 11.78125 -29.117188 11.539062 -28.875 11.0625 -28.875 L 4.515625 -28.875 C 4.035156 -28.875 3.796875 -29.117188 3.796875 -29.609375 Z M 3.796875 -29.609375 "/></g></g></g><g fill="#ffec45" fill-opacity="1"><g transform="translate(236.567267, 148.932204)"><g><path d="M 16 -12.125 L 12.875 -12.125 C 12.394531 -12.125 12.15625 -11.882812 12.15625 -11.40625 L 12.15625 -3 C 12.15625 -2.519531 12.394531 -2.28125 12.875 -2.28125 L 13.71875 -2.28125 C 14.195312 -2.28125 14.4375 -2.519531 14.4375 -3 L 14.4375 -3.84375 C 14.4375 -4.320312 14.675781 -4.5625 15.15625 -4.5625 L 16 -4.5625 C 16.476562 -4.5625 16.71875 -4.800781 16.71875 -5.28125 L 16.71875 -11.40625 C 16.71875 -11.882812 16.476562 -12.125 16 -12.125 Z M 4.1875 -0.71875 L 4.1875 -1.5625 C 4.1875 -2.039062 3.941406 -2.28125 3.453125 -2.28125 L 2.625 -2.28125 C 2.144531 -2.28125 1.90625 -2.519531 1.90625 -3 L 1.90625 -11.40625 C 1.90625 -11.882812 2.144531 -12.125 2.625 -12.125 L 3.453125 -12.125 C 3.941406 -12.125 4.1875 -12.363281 4.1875 -12.84375 L 4.1875 -13.6875 C 4.1875 -14.164062 4.425781 -14.40625 4.90625 -14.40625 L 13.71875 -14.40625 C 14.195312 -14.40625 14.4375 -14.644531 14.4375 -15.125 L 14.4375 -15.953125 C 14.4375 -16.441406 14.675781 -16.6875 15.15625 -16.6875 L 17.140625 -16.6875 C 17.617188 -16.6875 17.859375 -16.925781 17.859375 -17.40625 L 17.859375 -23.59375 C 17.859375 -24.070312 17.617188 -24.3125 17.140625 -24.3125 L 15.15625 -24.3125 C 14.675781 -24.3125 14.4375 -24.070312 14.4375 -23.59375 L 14.4375 -20.484375 C 14.4375 -20.003906 14.195312 -19.765625 13.71875 -19.765625 L 12.875 -19.765625 C 12.394531 -19.765625 12.15625 -19.519531 12.15625 -19.03125 L 12.15625 -17.0625 C 12.15625 -16.582031 11.914062 -16.34375 11.4375 -16.34375 L 3.765625 -16.34375 C 3.285156 -16.34375 3.046875 -16.582031 3.046875 -17.0625 L 3.046875 -23.59375 C 3.046875 -24.070312 3.285156 -24.3125 3.765625 -24.3125 L 5.171875 -24.3125 C 5.648438 -24.3125 5.890625 -24.554688 5.890625 -25.046875 L 5.890625 -25.875 C 5.890625 -26.351562 6.128906 -26.59375 6.609375 -26.59375 L 23.984375 -26.59375 C 24.460938 -26.59375 24.703125 -26.351562 24.703125 -25.875 L 24.703125 -25.046875 C 24.703125 -24.554688 24.941406 -24.3125 25.421875 -24.3125 L 26.265625 -24.3125 C 26.742188 -24.3125 26.984375 -24.070312 26.984375 -23.59375 L 26.984375 -0.71875 C 26.984375 -0.238281 26.742188 0 26.265625 0 L 19.71875 0 C 19.238281 0 19 -0.238281 19 -0.71875 L 19 -1.5625 C 19 -2.039062 18.757812 -2.28125 18.28125 -2.28125 L 17.4375 -2.28125 C 16.957031 -2.28125 16.71875 -2.039062 16.71875 -1.5625 L 16.71875 -0.71875 C 16.71875 -0.238281 16.476562 0 16 0 L 4.90625 0 C 4.425781 0 4.1875 -0.238281 4.1875 -0.71875 Z M 4.1875 -0.71875 "/></g></g></g><g fill="#ffec45" fill-opacity="1"><g transform="translate(266.201213, 148.932204)"><g/></g></g><g fill="#ffec45" fill-opacity="1"><g transform="translate(275.699282, 148.932204)"><g><path d="M 16 -12.125 L 12.875 -12.125 C 12.394531 -12.125 12.15625 -11.882812 12.15625 -11.40625 L 12.15625 -3 C 12.15625 -2.519531 12.394531 -2.28125 12.875 -2.28125 L 13.71875 -2.28125 C 14.195312 -2.28125 14.4375 -2.519531 14.4375 -3 L 14.4375 -3.84375 C 14.4375 -4.320312 14.675781 -4.5625 15.15625 -4.5625 L 16 -4.5625 C 16.476562 -4.5625 16.71875 -4.800781 16.71875 -5.28125 L 16.71875 -11.40625 C 16.71875 -11.882812 16.476562 -12.125 16 -12.125 Z M 4.1875 -0.71875 L 4.1875 -1.5625 C 4.1875 -2.039062 3.941406 -2.28125 3.453125 -2.28125 L 2.625 -2.28125 C 2.144531 -2.28125 1.90625 -2.519531 1.90625 -3 L 1.90625 -11.40625 C 1.90625 -11.882812 2.144531 -12.125 2.625 -12.125 L 3.453125 -12.125 C 3.941406 -12.125 4.1875 -12.363281 4.1875 -12.84375 L 4.1875 -13.6875 C 4.1875 -14.164062 4.425781 -14.40625 4.90625 -14.40625 L 13.71875 -14.40625 C 14.195312 -14.40625 14.4375 -14.644531 14.4375 -15.125 L 14.4375 -15.953125 C 14.4375 -16.441406 14.675781 -16.6875 15.15625 -16.6875 L 17.140625 -16.6875 C 17.617188 -16.6875 17.859375 -16.925781 17.859375 -17.40625 L 17.859375 -23.59375 C 17.859375 -24.070312 17.617188 -24.3125 17.140625 -24.3125 L 15.15625 -24.3125 C 14.675781 -24.3125 14.4375 -24.070312 14.4375 -23.59375 L 14.4375 -20.484375 C 14.4375 -20.003906 14.195312 -19.765625 13.71875 -19.765625 L 12.875 -19.765625 C 12.394531 -19.765625 12.15625 -19.519531 12.15625 -19.03125 L 12.15625 -17.0625 C 12.15625 -16.582031 11.914062 -16.34375 11.4375 -16.34375 L 3.765625 -16.34375 C 3.285156 -16.34375 3.046875 -16.582031 3.046875 -17.0625 L 3.046875 -23.59375 C 3.046875 -24.070312 3.285156 -24.3125 3.765625 -24.3125 L 5.171875 -24.3125 C 5.648438 -24.3125 5.890625 -24.554688 5.890625 -25.046875 L 5.890625 -25.875 C 5.890625 -26.351562 6.128906 -26.59375 6.609375 -26.59375 L 23.984375 -26.59375 C 24.460938 -26.59375 24.703125 -26.351562 24.703125 -25.875 L 24.703125 -25.046875 C 24.703125 -24.554688 24.941406 -24.3125 25.421875 -24.3125 L 26.265625 -24.3125 C 26.742188 -24.3125 26.984375 -24.070312 26.984375 -23.59375 L 26.984375 -0.71875 C 26.984375 -0.238281 26.742188 0 26.265625 0 L 19.71875 0 C 19.238281 0 19 -0.238281 19 -0.71875 L 19 -1.5625 C 19 -2.039062 18.757812 -2.28125 18.28125 -2.28125 L 17.4375 -2.28125 C 16.957031 -2.28125 16.71875 -2.039062 16.71875 -1.5625 L 16.71875 -0.71875 C 16.71875 -0.238281 16.476562 0 16 0 L 4.90625 0 C 4.425781 0 4.1875 -0.238281 4.1875 -0.71875 Z M 4.1875 -0.71875 "/></g></g></g><g fill="#ffec45" fill-opacity="1"><g transform="translate(305.333229, 148.932204)"><g><path d="M 2.65625 -0.71875 L 2.65625 -35.984375 C 2.65625 -36.460938 2.894531 -36.703125 3.375 -36.703125 L 12.203125 -36.703125 C 12.679688 -36.703125 12.921875 -36.460938 12.921875 -35.984375 L 12.921875 -24.890625 C 12.921875 -24.503906 13.109375 -24.3125 13.484375 -24.3125 C 13.867188 -24.3125 14.0625 -24.503906 14.0625 -24.890625 L 14.0625 -25.875 C 14.0625 -26.351562 14.300781 -26.59375 14.78125 -26.59375 L 24.734375 -26.59375 C 25.210938 -26.59375 25.453125 -26.351562 25.453125 -25.875 L 25.453125 -25.046875 C 25.453125 -24.554688 25.695312 -24.3125 26.1875 -24.3125 L 27.015625 -24.3125 C 27.222656 -24.3125 27.328125 -24.3125 27.328125 -24.3125 C 27.328125 -24.3125 27.222656 -24.3125 27.015625 -24.3125 L 26.1875 -24.3125 C 25.976562 -24.3125 25.875 -24.3125 25.875 -24.3125 C 25.875 -24.3125 25.976562 -24.3125 26.1875 -24.3125 L 27.015625 -24.3125 C 27.492188 -24.3125 27.734375 -24.070312 27.734375 -23.59375 L 27.734375 -0.71875 C 27.734375 -0.238281 27.492188 0 27.015625 0 L 18.203125 0 C 17.722656 0 17.484375 -0.238281 17.484375 -0.71875 L 17.484375 -23.59375 C 17.484375 -24.070312 17.242188 -24.3125 16.765625 -24.3125 L 15.921875 -24.3125 C 15.441406 -24.3125 15.203125 -24.070312 15.203125 -23.59375 L 15.203125 -22.765625 C 15.203125 -22.285156 14.960938 -22.046875 14.484375 -22.046875 L 13.640625 -22.046875 C 13.160156 -22.046875 12.921875 -21.800781 12.921875 -21.3125 L 12.921875 -0.71875 C 12.921875 -0.238281 12.679688 0 12.203125 0 L 3.375 0 C 2.894531 0 2.65625 -0.238281 2.65625 -0.71875 Z M 2.65625 -0.71875 "/></g></g></g><g fill="#ffec45" fill-opacity="1"><g transform="translate(335.727018, 148.932204)"><g><path d="M 3.421875 -14.515625 C 2.941406 -14.515625 2.703125 -14.753906 2.703125 -15.234375 L 2.703125 -15.921875 C 2.703125 -16.398438 2.941406 -16.640625 3.421875 -16.640625 L 18.015625 -16.640625 C 18.492188 -16.640625 18.734375 -16.398438 18.734375 -15.921875 L 18.734375 -15.234375 C 18.734375 -14.753906 18.492188 -14.515625 18.015625 -14.515625 Z M 3.421875 -14.515625 "/></g></g></g><g fill="#ffec45" fill-opacity="1"><g transform="translate(357.154636, 148.932204)"><g><path d="M 16 -12.125 L 12.875 -12.125 C 12.394531 -12.125 12.15625 -11.882812 12.15625 -11.40625 L 12.15625 -3 C 12.15625 -2.519531 12.394531 -2.28125 12.875 -2.28125 L 13.71875 -2.28125 C 14.195312 -2.28125 14.4375 -2.519531 14.4375 -3 L 14.4375 -3.84375 C 14.4375 -4.320312 14.675781 -4.5625 15.15625 -4.5625 L 16 -4.5625 C 16.476562 -4.5625 16.71875 -4.800781 16.71875 -5.28125 L 16.71875 -11.40625 C 16.71875 -11.882812 16.476562 -12.125 16 -12.125 Z M 4.1875 -0.71875 L 4.1875 -1.5625 C 4.1875 -2.039062 3.941406 -2.28125 3.453125 -2.28125 L 2.625 -2.28125 C 2.144531 -2.28125 1.90625 -2.519531 1.90625 -3 L 1.90625 -11.40625 C 1.90625 -11.882812 2.144531 -12.125 2.625 -12.125 L 3.453125 -12.125 C 3.941406 -12.125 4.1875 -12.363281 4.1875 -12.84375 L 4.1875 -13.6875 C 4.1875 -14.164062 4.425781 -14.40625 4.90625 -14.40625 L 13.71875 -14.40625 C 14.195312 -14.40625 14.4375 -14.644531 14.4375 -15.125 L 14.4375 -15.953125 C 14.4375 -16.441406 14.675781 -16.6875 15.15625 -16.6875 L 17.140625 -16.6875 C 17.617188 -16.6875 17.859375 -16.925781 17.859375 -17.40625 L 17.859375 -23.59375 C 17.859375 -24.070312 17.617188 -24.3125 17.140625 -24.3125 L 15.15625 -24.3125 C 14.675781 -24.3125 14.4375 -24.070312 14.4375 -23.59375 L 14.4375 -20.484375 C 14.4375 -20.003906 14.195312 -19.765625 13.71875 -19.765625 L 12.875 -19.765625 C 12.394531 -19.765625 12.15625 -19.519531 12.15625 -19.03125 L 12.15625 -17.0625 C 12.15625 -16.582031 11.914062 -16.34375 11.4375 -16.34375 L 3.765625 -16.34375 C 3.285156 -16.34375 3.046875 -16.582031 3.046875 -17.0625 L 3.046875 -23.59375 C 3.046875 -24.070312 3.285156 -24.3125 3.765625 -24.3125 L 5.171875 -24.3125 C 5.648438 -24.3125 5.890625 -24.554688 5.890625 -25.046875 L 5.890625 -25.875 C 5.890625 -26.351562 6.128906 -26.59375 6.609375 -26.59375 L 23.984375 -26.59375 C 24.460938 -26.59375 24.703125 -26.351562 24.703125 -25.875 L 24.703125 -25.046875 C 24.703125 -24.554688 24.941406 -24.3125 25.421875 -24.3125 L 26.265625 -24.3125 C 26.742188 -24.3125 26.984375 -24.070312 26.984375 -23.59375 L 26.984375 -0.71875 C 26.984375 -0.238281 26.742188 0 26.265625 0 L 19.71875 0 C 19.238281 0 19 -0.238281 19 -0.71875 L 19 -1.5625 C 19 -2.039062 18.757812 -2.28125 18.28125 -2.28125 L 17.4375 -2.28125 C 16.957031 -2.28125 16.71875 -2.039062 16.71875 -1.5625 L 16.71875 -0.71875 C 16.71875 -0.238281 16.476562 0 16 0 L 4.90625 0 C 4.425781 0 4.1875 -0.238281 4.1875 -0.71875 Z M 4.1875 -0.71875 "/></g></g></g><g fill="#ffec45" fill-opacity="1"><g transform="translate(386.788583, 148.932204)"><g><path d="M 2.65625 -0.71875 L 2.65625 -35.984375 C 2.65625 -36.460938 2.894531 -36.703125 3.375 -36.703125 L 12.203125 -36.703125 C 12.679688 -36.703125 12.921875 -36.460938 12.921875 -35.984375 L 12.921875 -24.890625 C 12.921875 -24.503906 13.109375 -24.3125 13.484375 -24.3125 C 13.867188 -24.3125 14.0625 -24.503906 14.0625 -24.890625 L 14.0625 -25.875 C 14.0625 -26.351562 14.300781 -26.59375 14.78125 -26.59375 L 24.734375 -26.59375 C 25.210938 -26.59375 25.453125 -26.351562 25.453125 -25.875 L 25.453125 -25.046875 C 25.453125 -24.554688 25.695312 -24.3125 26.1875 -24.3125 L 27.015625 -24.3125 C 27.222656 -24.3125 27.328125 -24.3125 27.328125 -24.3125 C 27.328125 -24.3125 27.222656 -24.3125 27.015625 -24.3125 L 26.1875 -24.3125 C 25.976562 -24.3125 25.875 -24.3125 25.875 -24.3125 C 25.875 -24.3125 25.976562 -24.3125 26.1875 -24.3125 L 27.015625 -24.3125 C 27.492188 -24.3125 27.734375 -24.070312 27.734375 -23.59375 L 27.734375 -0.71875 C 27.734375 -0.238281 27.492188 0 27.015625 0 L 18.203125 0 C 17.722656 0 17.484375 -0.238281 17.484375 -0.71875 L 17.484375 -23.59375 C 17.484375 -24.070312 17.242188 -24.3125 16.765625 -24.3125 L 15.921875 -24.3125 C 15.441406 -24.3125 15.203125 -24.070312 15.203125 -23.59375 L 15.203125 -22.765625 C 15.203125 -22.285156 14.960938 -22.046875 14.484375 -22.046875 L 13.640625 -22.046875 C 13.160156 -22.046875 12.921875 -21.800781 12.921875 -21.3125 L 12.921875 -0.71875 C 12.921875 -0.238281 12.679688 0 12.203125 0 L 3.375 0 C 2.894531 0 2.65625 -0.238281 2.65625 -0.71875 Z M 2.65625 -0.71875 "/></g></g></g><g fill="#ffec45" fill-opacity="1"><g transform="translate(417.182348, 148.932204)"><g><path d="M 4.1875 -0.765625 L 4.1875 -0.84375 C 4.1875 -1.289062 3.957031 -1.515625 3.5 -1.515625 C 2.9375 -1.515625 2.65625 -1.796875 2.65625 -2.359375 L 2.65625 -7.90625 C 2.65625 -8.457031 2.9375 -8.734375 3.5 -8.734375 C 3.957031 -8.734375 4.1875 -8.960938 4.1875 -9.421875 L 4.1875 -9.5 C 4.1875 -10.007812 4.4375 -10.265625 4.9375 -10.265625 L 10.5625 -10.265625 C 11.125 -10.265625 11.40625 -9.984375 11.40625 -9.421875 C 11.40625 -8.960938 11.628906 -8.734375 12.078125 -8.734375 L 12.15625 -8.734375 C 12.664062 -8.734375 12.921875 -8.484375 12.921875 -7.984375 L 12.921875 4.75 C 12.921875 5.382812 12.601562 5.703125 11.96875 5.703125 L 10.453125 5.703125 C 9.816406 5.703125 9.5 5.382812 9.5 4.75 L 9.5 0.953125 C 9.5 0.316406 9.179688 0 8.546875 0 L 4.9375 0 C 4.4375 0 4.1875 -0.253906 4.1875 -0.765625 Z M 4.1875 -0.765625 "/></g></g></g><g fill="#ffec45" fill-opacity="1"><g transform="translate(432.759175, 148.932204)"><g/></g></g><g fill="#ffec45" fill-opacity="1"><g transform="translate(442.257221, 148.932204)"><g><path d="M 16 -12.125 L 12.875 -12.125 C 12.394531 -12.125 12.15625 -11.882812 12.15625 -11.40625 L 12.15625 -3 C 12.15625 -2.519531 12.394531 -2.28125 12.875 -2.28125 L 13.71875 -2.28125 C 14.195312 -2.28125 14.4375 -2.519531 14.4375 -3 L 14.4375 -3.84375 C 14.4375 -4.320312 14.675781 -4.5625 15.15625 -4.5625 L 16 -4.5625 C 16.476562 -4.5625 16.71875 -4.800781 16.71875 -5.28125 L 16.71875 -11.40625 C 16.71875 -11.882812 16.476562 -12.125 16 -12.125 Z M 4.1875 -0.71875 L 4.1875 -1.5625 C 4.1875 -2.039062 3.941406 -2.28125 3.453125 -2.28125 L 2.625 -2.28125 C 2.144531 -2.28125 1.90625 -2.519531 1.90625 -3 L 1.90625 -11.40625 C 1.90625 -11.882812 2.144531 -12.125 2.625 -12.125 L 3.453125 -12.125 C 3.941406 -12.125 4.1875 -12.363281 4.1875 -12.84375 L 4.1875 -13.6875 C 4.1875 -14.164062 4.425781 -14.40625 4.90625 -14.40625 L 13.71875 -14.40625 C 14.195312 -14.40625 14.4375 -14.644531 14.4375 -15.125 L 14.4375 -15.953125 C 14.4375 -16.441406 14.675781 -16.6875 15.15625 -16.6875 L 17.140625 -16.6875 C 17.617188 -16.6875 17.859375 -16.925781 17.859375 -17.40625 L 17.859375 -23.59375 C 17.859375 -24.070312 17.617188 -24.3125 17.140625 -24.3125 L 15.15625 -24.3125 C 14.675781 -24.3125 14.4375 -24.070312 14.4375 -23.59375 L 14.4375 -20.484375 C 14.4375 -20.003906 14.195312 -19.765625 13.71875 -19.765625 L 12.875 -19.765625 C 12.394531 -19.765625 12.15625 -19.519531 12.15625 -19.03125 L 12.15625 -17.0625 C 12.15625 -16.582031 11.914062 -16.34375 11.4375 -16.34375 L 3.765625 -16.34375 C 3.285156 -16.34375 3.046875 -16.582031 3.046875 -17.0625 L 3.046875 -23.59375 C 3.046875 -24.070312 3.285156 -24.3125 3.765625 -24.3125 L 5.171875 -24.3125 C 5.648438 -24.3125 5.890625 -24.554688 5.890625 -25.046875 L 5.890625 -25.875 C 5.890625 -26.351562 6.128906 -26.59375 6.609375 -26.59375 L 23.984375 -26.59375 C 24.460938 -26.59375 24.703125 -26.351562 24.703125 -25.875 L 24.703125 -25.046875 C 24.703125 -24.554688 24.941406 -24.3125 25.421875 -24.3125 L 26.265625 -24.3125 C 26.742188 -24.3125 26.984375 -24.070312 26.984375 -23.59375 L 26.984375 -0.71875 C 26.984375 -0.238281 26.742188 0 26.265625 0 L 19.71875 0 C 19.238281 0 19 -0.238281 19 -0.71875 L 19 -1.5625 C 19 -2.039062 18.757812 -2.28125 18.28125 -2.28125 L 17.4375 -2.28125 C 16.957031 -2.28125 16.71875 -2.039062 16.71875 -1.5625 L 16.71875 -0.71875 C 16.71875 -0.238281 16.476562 0 16 0 L 4.90625 0 C 4.425781 0 4.1875 -0.238281 4.1875 -0.71875 Z M 4.1875 -0.71875 "/></g></g></g><g fill="#ffec45" fill-opacity="1"><g transform="translate(471.891145, 148.932204)"><g><path d="M 2.65625 -0.71875 L 2.65625 -35.984375 C 2.65625 -36.460938 2.894531 -36.703125 3.375 -36.703125 L 12.203125 -36.703125 C 12.679688 -36.703125 12.921875 -36.460938 12.921875 -35.984375 L 12.921875 -24.890625 C 12.921875 -24.503906 13.109375 -24.3125 13.484375 -24.3125 C 13.867188 -24.3125 14.0625 -24.503906 14.0625 -24.890625 L 14.0625 -25.875 C 14.0625 -26.351562 14.300781 -26.59375 14.78125 -26.59375 L 24.734375 -26.59375 C 25.210938 -26.59375 25.453125 -26.351562 25.453125 -25.875 L 25.453125 -25.046875 C 25.453125 -24.554688 25.695312 -24.3125 26.1875 -24.3125 L 27.015625 -24.3125 C 27.222656 -24.3125 27.328125 -24.3125 27.328125 -24.3125 C 27.328125 -24.3125 27.222656 -24.3125 27.015625 -24.3125 L 26.1875 -24.3125 C 25.976562 -24.3125 25.875 -24.3125 25.875 -24.3125 C 25.875 -24.3125 25.976562 -24.3125 26.1875 -24.3125 L 27.015625 -24.3125 C 27.492188 -24.3125 27.734375 -24.070312 27.734375 -23.59375 L 27.734375 -0.71875 C 27.734375 -0.238281 27.492188 0 27.015625 0 L 18.203125 0 C 17.722656 0 17.484375 -0.238281 17.484375 -0.71875 L 17.484375 -23.59375 C 17.484375 -24.070312 17.242188 -24.3125 16.765625 -24.3125 L 15.921875 -24.3125 C 15.441406 -24.3125 15.203125 -24.070312 15.203125 -23.59375 L 15.203125 -22.765625 C 15.203125 -22.285156 14.960938 -22.046875 14.484375 -22.046875 L 13.640625 -22.046875 C 13.160156 -22.046875 12.921875 -21.800781 12.921875 -21.3125 L 12.921875 -0.71875 C 12.921875 -0.238281 12.679688 0 12.203125 0 L 3.375 0 C 2.894531 0 2.65625 -0.238281 2.65625 -0.71875 Z M 2.65625 -0.71875 "/></g></g></g></svg>