<svg xmlns="http://www.w3.org/2000/svg" xmlns:xlink="http://www.w3.org/1999/xlink" width="672" zoomAndPan="magnify" viewBox="0 0 504 359.999987" height="480" preserveAspectRatio="xMidYMid meet" version="1.0"><defs><g/></defs><g fill="#000000" fill-opacity="0.5608"><g transform="translate(42.024593, 204.244877)"><g><path d="M 7.984375 -0.890625 L 7.984375 -1.921875 C 7.984375 -2.515625 7.6875 -2.8125 7.09375 -2.8125 L 6.0625 -2.8125 C 5.46875 -2.8125 5.171875 -3.113281 5.171875 -3.71875 L 5.171875 -29.234375 C 5.171875 -29.828125 4.875 -30.125 4.28125 -30.125 L 2.765625 -30.125 C 2.171875 -30.125 1.875 -30.421875 1.875 -31.015625 L 1.875 -32 C 1.875 -32.601562 2.171875 -32.90625 2.765625 -32.90625 L 4.28125 -32.90625 C 4.875 -32.90625 5.171875 -33.203125 5.171875 -33.796875 L 5.171875 -40.328125 C 5.171875 -40.921875 5.46875 -41.21875 6.0625 -41.21875 L 16.96875 -41.21875 C 17.5625 -41.21875 17.859375 -40.921875 17.859375 -40.328125 L 17.859375 -33.796875 C 17.859375 -33.203125 18.15625 -32.90625 18.75 -32.90625 L 23.5 -32.90625 C 24.09375 -32.90625 24.390625 -32.601562 24.390625 -32 L 24.390625 -31.015625 C 24.390625 -30.421875 24.09375 -30.125 23.5 -30.125 L 18.75 -30.125 C 18.15625 -30.125 17.859375 -29.828125 17.859375 -29.234375 L 17.859375 -3.71875 C 17.859375 -3.113281 18.15625 -2.8125 18.75 -2.8125 L 19.78125 -2.8125 C 20.382812 -2.8125 20.6875 -3.113281 20.6875 -3.71875 L 20.6875 -8.5 C 20.6875 -9.101562 20.984375 -9.40625 21.578125 -9.40625 L 29.1875 -9.40625 C 29.78125 -9.40625 30.078125 -9.101562 30.078125 -8.5 L 30.078125 -3.71875 C 30.078125 -3.113281 29.78125 -2.8125 29.1875 -2.8125 L 26.75 -2.8125 C 26.144531 -2.8125 25.84375 -2.515625 25.84375 -1.921875 L 25.84375 -0.890625 C 25.84375 -0.296875 25.546875 0 24.953125 0 L 8.890625 0 C 8.285156 0 7.984375 -0.296875 7.984375 -0.890625 Z M 7.984375 -0.890625 "/></g></g></g><g fill="#000000" fill-opacity="0.5608"><g transform="translate(72.569466, 204.244877)"><g><path d="M 3.296875 -0.890625 L 3.296875 -44.515625 C 3.296875 -45.109375 3.59375 -45.40625 4.1875 -45.40625 L 15.09375 -45.40625 C 15.6875 -45.40625 15.984375 -45.109375 15.984375 -44.515625 L 15.984375 -30.78125 C 15.984375 -30.3125 16.21875 -30.078125 16.6875 -30.078125 C 17.15625 -30.078125 17.390625 -30.3125 17.390625 -30.78125 L 17.390625 -32 C 17.390625 -32.601562 17.6875 -32.90625 18.28125 -32.90625 L 30.59375 -32.90625 C 31.1875 -32.90625 31.484375 -32.601562 31.484375 -32 L 31.484375 -30.96875 C 31.484375 -30.375 31.785156 -30.078125 32.390625 -30.078125 L 33.421875 -30.078125 C 33.671875 -30.078125 33.796875 -30.078125 33.796875 -30.078125 C 33.796875 -30.078125 33.671875 -30.078125 33.421875 -30.078125 L 32.390625 -30.078125 C 32.128906 -30.078125 32 -30.078125 32 -30.078125 C 32 -30.078125 32.128906 -30.078125 32.390625 -30.078125 L 33.421875 -30.078125 C 34.015625 -30.078125 34.3125 -29.78125 34.3125 -29.1875 L 34.3125 -0.890625 C 34.3125 -0.296875 34.015625 0 33.421875 0 L 22.515625 0 C 21.921875 0 21.625 -0.296875 21.625 -0.890625 L 21.625 -29.1875 C 21.625 -29.78125 21.328125 -30.078125 20.734375 -30.078125 L 19.6875 -30.078125 C 19.09375 -30.078125 18.796875 -29.78125 18.796875 -29.1875 L 18.796875 -28.15625 C 18.796875 -27.5625 18.5 -27.265625 17.90625 -27.265625 L 16.875 -27.265625 C 16.28125 -27.265625 15.984375 -26.960938 15.984375 -26.359375 L 15.984375 -0.890625 C 15.984375 -0.296875 15.6875 0 15.09375 0 L 4.1875 0 C 3.59375 0 3.296875 -0.296875 3.296875 -0.890625 Z M 3.296875 -0.890625 "/></g></g></g><g fill="#000000" fill-opacity="0.5608"><g transform="translate(110.163167, 204.244877)"><g><path d="M 19.78125 -15 L 15.9375 -15 C 15.34375 -15 15.046875 -14.695312 15.046875 -14.09375 L 15.046875 -3.71875 C 15.046875 -3.113281 15.34375 -2.8125 15.9375 -2.8125 L 16.96875 -2.8125 C 17.5625 -2.8125 17.859375 -3.113281 17.859375 -3.71875 L 17.859375 -4.75 C 17.859375 -5.34375 18.15625 -5.640625 18.75 -5.640625 L 19.78125 -5.640625 C 20.382812 -5.640625 20.6875 -5.9375 20.6875 -6.53125 L 20.6875 -14.09375 C 20.6875 -14.695312 20.382812 -15 19.78125 -15 Z M 5.171875 -0.890625 L 5.171875 -1.921875 C 5.171875 -2.515625 4.875 -2.8125 4.28125 -2.8125 L 3.25 -2.8125 C 2.644531 -2.8125 2.34375 -3.113281 2.34375 -3.71875 L 2.34375 -14.09375 C 2.34375 -14.695312 2.644531 -15 3.25 -15 L 4.28125 -15 C 4.875 -15 5.171875 -15.296875 5.171875 -15.890625 L 5.171875 -16.921875 C 5.171875 -17.515625 5.46875 -17.8125 6.0625 -17.8125 L 16.96875 -17.8125 C 17.5625 -17.8125 17.859375 -18.109375 17.859375 -18.703125 L 17.859375 -19.734375 C 17.859375 -20.335938 18.15625 -20.640625 18.75 -20.640625 L 21.203125 -20.640625 C 21.796875 -20.640625 22.09375 -20.9375 22.09375 -21.53125 L 22.09375 -29.1875 C 22.09375 -29.78125 21.796875 -30.078125 21.203125 -30.078125 L 18.75 -30.078125 C 18.15625 -30.078125 17.859375 -29.78125 17.859375 -29.1875 L 17.859375 -25.328125 C 17.859375 -24.734375 17.5625 -24.4375 16.96875 -24.4375 L 15.9375 -24.4375 C 15.34375 -24.4375 15.046875 -24.140625 15.046875 -23.546875 L 15.046875 -21.109375 C 15.046875 -20.503906 14.742188 -20.203125 14.140625 -20.203125 L 4.65625 -20.203125 C 4.0625 -20.203125 3.765625 -20.503906 3.765625 -21.109375 L 3.765625 -29.1875 C 3.765625 -29.78125 4.0625 -30.078125 4.65625 -30.078125 L 6.390625 -30.078125 C 6.984375 -30.078125 7.28125 -30.375 7.28125 -30.96875 L 7.28125 -32 C 7.28125 -32.601562 7.578125 -32.90625 8.171875 -32.90625 L 29.65625 -32.90625 C 30.25 -32.90625 30.546875 -32.601562 30.546875 -32 L 30.546875 -30.96875 C 30.546875 -30.375 30.84375 -30.078125 31.4375 -30.078125 L 32.484375 -30.078125 C 33.078125 -30.078125 33.375 -29.78125 33.375 -29.1875 L 33.375 -0.890625 C 33.375 -0.296875 33.078125 0 32.484375 0 L 24.390625 0 C 23.796875 0 23.5 -0.296875 23.5 -0.890625 L 23.5 -1.921875 C 23.5 -2.515625 23.203125 -2.8125 22.609375 -2.8125 L 21.578125 -2.8125 C 20.984375 -2.8125 20.6875 -2.515625 20.6875 -1.921875 L 20.6875 -0.890625 C 20.6875 -0.296875 20.382812 0 19.78125 0 L 6.0625 0 C 5.46875 0 5.171875 -0.296875 5.171875 -0.890625 Z M 5.171875 -0.890625 "/></g></g></g><g fill="#000000" fill-opacity="0.5608"><g transform="translate(146.817023, 204.244877)"><g><path d="M 7.984375 -0.890625 L 7.984375 -1.921875 C 7.984375 -2.515625 7.6875 -2.8125 7.09375 -2.8125 L 6.0625 -2.8125 C 5.46875 -2.8125 5.171875 -3.113281 5.171875 -3.71875 L 5.171875 -29.234375 C 5.171875 -29.828125 4.875 -30.125 4.28125 -30.125 L 2.765625 -30.125 C 2.171875 -30.125 1.875 -30.421875 1.875 -31.015625 L 1.875 -32 C 1.875 -32.601562 2.171875 -32.90625 2.765625 -32.90625 L 4.28125 -32.90625 C 4.875 -32.90625 5.171875 -33.203125 5.171875 -33.796875 L 5.171875 -40.328125 C 5.171875 -40.921875 5.46875 -41.21875 6.0625 -41.21875 L 16.96875 -41.21875 C 17.5625 -41.21875 17.859375 -40.921875 17.859375 -40.328125 L 17.859375 -33.796875 C 17.859375 -33.203125 18.15625 -32.90625 18.75 -32.90625 L 23.5 -32.90625 C 24.09375 -32.90625 24.390625 -32.601562 24.390625 -32 L 24.390625 -31.015625 C 24.390625 -30.421875 24.09375 -30.125 23.5 -30.125 L 18.75 -30.125 C 18.15625 -30.125 17.859375 -29.828125 17.859375 -29.234375 L 17.859375 -3.71875 C 17.859375 -3.113281 18.15625 -2.8125 18.75 -2.8125 L 19.78125 -2.8125 C 20.382812 -2.8125 20.6875 -3.113281 20.6875 -3.71875 L 20.6875 -8.5 C 20.6875 -9.101562 20.984375 -9.40625 21.578125 -9.40625 L 29.1875 -9.40625 C 29.78125 -9.40625 30.078125 -9.101562 30.078125 -8.5 L 30.078125 -3.71875 C 30.078125 -3.113281 29.78125 -2.8125 29.1875 -2.8125 L 26.75 -2.8125 C 26.144531 -2.8125 25.84375 -2.515625 25.84375 -1.921875 L 25.84375 -0.890625 C 25.84375 -0.296875 25.546875 0 24.953125 0 L 8.890625 0 C 8.285156 0 7.984375 -0.296875 7.984375 -0.890625 Z M 7.984375 -0.890625 "/></g></g></g><g fill="#000000" fill-opacity="0.5608"><g transform="translate(177.361896, 204.244877)"><g><path d="M 5.171875 -32.234375 L 5.171875 -32.34375 C 5.171875 -32.90625 4.890625 -33.1875 4.328125 -33.1875 C 3.640625 -33.1875 3.296875 -33.53125 3.296875 -34.21875 L 3.296875 -41.078125 C 3.296875 -41.765625 3.640625 -42.109375 4.328125 -42.109375 C 4.890625 -42.109375 5.171875 -42.390625 5.171875 -42.953125 L 5.171875 -43.046875 C 5.171875 -43.671875 5.484375 -43.984375 6.109375 -43.984375 L 13.0625 -43.984375 C 13.75 -43.984375 14.09375 -43.640625 14.09375 -42.953125 C 14.09375 -42.390625 14.378906 -42.109375 14.953125 -42.109375 L 15.046875 -42.109375 C 15.671875 -42.109375 15.984375 -41.796875 15.984375 -41.171875 L 15.984375 -25.421875 C 15.984375 -24.640625 15.59375 -24.25 14.8125 -24.25 L 12.921875 -24.25 C 12.140625 -24.25 11.75 -24.640625 11.75 -25.421875 L 11.75 -30.125 C 11.75 -30.90625 11.359375 -31.296875 10.578125 -31.296875 L 6.109375 -31.296875 C 5.484375 -31.296875 5.171875 -31.609375 5.171875 -32.234375 Z M 5.171875 -32.234375 "/></g></g></g><g fill="#000000" fill-opacity="0.5608"><g transform="translate(196.628664, 204.244877)"><g><path d="M 5.640625 -0.890625 L 5.640625 -1.921875 C 5.640625 -2.515625 5.34375 -2.8125 4.75 -2.8125 L 3.71875 -2.8125 C 3.113281 -2.8125 2.8125 -3.113281 2.8125 -3.71875 L 2.8125 -11.796875 C 2.8125 -12.390625 3.113281 -12.6875 3.71875 -12.6875 L 14.609375 -12.6875 C 15.210938 -12.6875 15.515625 -12.390625 15.515625 -11.796875 L 15.515625 -3.71875 C 15.515625 -3.113281 15.8125 -2.8125 16.40625 -2.8125 L 17.4375 -2.8125 C 18.03125 -2.8125 18.328125 -3.113281 18.328125 -3.71875 L 18.328125 -4.75 C 18.328125 -5.34375 18.625 -5.640625 19.21875 -5.640625 L 20.296875 -5.640625 C 20.898438 -5.640625 21.203125 -5.9375 21.203125 -6.53125 L 21.203125 -11.234375 C 21.203125 -11.828125 20.898438 -12.125 20.296875 -12.125 L 19.265625 -12.125 C 18.671875 -12.125 18.375 -12.421875 18.375 -13.015625 L 18.375 -14.046875 C 18.375 -14.648438 18.078125 -14.953125 17.484375 -14.953125 L 6.53125 -14.953125 C 5.9375 -14.953125 5.640625 -15.25 5.640625 -15.84375 L 5.640625 -16.875 C 5.640625 -17.46875 5.34375 -17.765625 4.75 -17.765625 L 3.71875 -17.765625 C 3.113281 -17.765625 2.8125 -18.0625 2.8125 -18.65625 L 2.8125 -29.1875 C 2.8125 -29.78125 3.113281 -30.078125 3.71875 -30.078125 L 4.421875 -30.078125 C 5.015625 -30.078125 5.3125 -30.375 5.3125 -30.96875 L 5.3125 -32 C 5.3125 -32.601562 5.609375 -32.90625 6.203125 -32.90625 L 29.65625 -32.90625 C 30.25 -32.90625 30.546875 -32.601562 30.546875 -32 L 30.546875 -30.96875 C 30.546875 -30.375 30.84375 -30.078125 31.4375 -30.078125 L 32.484375 -30.078125 C 33.078125 -30.078125 33.375 -29.78125 33.375 -29.1875 L 33.375 -21.109375 C 33.375 -20.503906 33.078125 -20.203125 32.484375 -20.203125 L 24.859375 -20.203125 C 24.265625 -20.203125 23.96875 -20.503906 23.96875 -21.109375 L 23.96875 -22.140625 C 23.96875 -22.734375 23.671875 -23.03125 23.078125 -23.03125 L 22.046875 -23.03125 C 21.453125 -23.03125 21.15625 -23.328125 21.15625 -23.921875 L 21.15625 -29.1875 C 21.15625 -29.78125 20.851562 -30.078125 20.25 -30.078125 L 19.21875 -30.078125 C 18.625 -30.078125 18.328125 -29.78125 18.328125 -29.1875 L 18.328125 -28.15625 C 18.328125 -27.5625 18.03125 -27.265625 17.4375 -27.265625 L 16.40625 -27.265625 C 15.8125 -27.265625 15.515625 -26.960938 15.515625 -26.359375 L 15.515625 -21.484375 C 15.515625 -20.890625 15.8125 -20.59375 16.40625 -20.59375 L 17.4375 -20.59375 C 18.03125 -20.59375 18.328125 -20.289062 18.328125 -19.6875 L 18.328125 -18.65625 C 18.328125 -18.0625 18.625 -17.765625 19.21875 -17.765625 L 29.703125 -17.765625 C 30.296875 -17.765625 30.59375 -17.46875 30.59375 -16.875 L 30.59375 -15.84375 C 30.59375 -15.25 30.890625 -14.953125 31.484375 -14.953125 L 32.53125 -14.953125 C 33.125 -14.953125 33.421875 -14.648438 33.421875 -14.046875 L 33.421875 -3.71875 C 33.421875 -3.113281 33.125 -2.8125 32.53125 -2.8125 L 31.484375 -2.8125 C 30.890625 -2.8125 30.59375 -2.515625 30.59375 -1.921875 L 30.59375 -0.890625 C 30.59375 -0.296875 30.296875 0 29.703125 0 L 6.53125 0 C 5.9375 0 5.640625 -0.296875 5.640625 -0.890625 Z M 5.640625 -0.890625 "/></g></g></g><g fill="#000000" fill-opacity="0.5608"><g transform="translate(233.282519, 204.244877)"><g/></g></g><g fill="#000000" fill-opacity="0.5608"><g transform="translate(245.030542, 204.244877)"><g><path d="M 5.640625 -0.890625 L 5.640625 -1.921875 C 5.640625 -2.515625 5.34375 -2.8125 4.75 -2.8125 L 3.71875 -2.8125 C 3.113281 -2.8125 2.8125 -3.113281 2.8125 -3.71875 L 2.8125 -11.796875 C 2.8125 -12.390625 3.113281 -12.6875 3.71875 -12.6875 L 14.609375 -12.6875 C 15.210938 -12.6875 15.515625 -12.390625 15.515625 -11.796875 L 15.515625 -3.71875 C 15.515625 -3.113281 15.8125 -2.8125 16.40625 -2.8125 L 17.4375 -2.8125 C 18.03125 -2.8125 18.328125 -3.113281 18.328125 -3.71875 L 18.328125 -4.75 C 18.328125 -5.34375 18.625 -5.640625 19.21875 -5.640625 L 20.296875 -5.640625 C 20.898438 -5.640625 21.203125 -5.9375 21.203125 -6.53125 L 21.203125 -11.234375 C 21.203125 -11.828125 20.898438 -12.125 20.296875 -12.125 L 19.265625 -12.125 C 18.671875 -12.125 18.375 -12.421875 18.375 -13.015625 L 18.375 -14.046875 C 18.375 -14.648438 18.078125 -14.953125 17.484375 -14.953125 L 6.53125 -14.953125 C 5.9375 -14.953125 5.640625 -15.25 5.640625 -15.84375 L 5.640625 -16.875 C 5.640625 -17.46875 5.34375 -17.765625 4.75 -17.765625 L 3.71875 -17.765625 C 3.113281 -17.765625 2.8125 -18.0625 2.8125 -18.65625 L 2.8125 -29.1875 C 2.8125 -29.78125 3.113281 -30.078125 3.71875 -30.078125 L 4.421875 -30.078125 C 5.015625 -30.078125 5.3125 -30.375 5.3125 -30.96875 L 5.3125 -32 C 5.3125 -32.601562 5.609375 -32.90625 6.203125 -32.90625 L 29.65625 -32.90625 C 30.25 -32.90625 30.546875 -32.601562 30.546875 -32 L 30.546875 -30.96875 C 30.546875 -30.375 30.84375 -30.078125 31.4375 -30.078125 L 32.484375 -30.078125 C 33.078125 -30.078125 33.375 -29.78125 33.375 -29.1875 L 33.375 -21.109375 C 33.375 -20.503906 33.078125 -20.203125 32.484375 -20.203125 L 24.859375 -20.203125 C 24.265625 -20.203125 23.96875 -20.503906 23.96875 -21.109375 L 23.96875 -22.140625 C 23.96875 -22.734375 23.671875 -23.03125 23.078125 -23.03125 L 22.046875 -23.03125 C 21.453125 -23.03125 21.15625 -23.328125 21.15625 -23.921875 L 21.15625 -29.1875 C 21.15625 -29.78125 20.851562 -30.078125 20.25 -30.078125 L 19.21875 -30.078125 C 18.625 -30.078125 18.328125 -29.78125 18.328125 -29.1875 L 18.328125 -28.15625 C 18.328125 -27.5625 18.03125 -27.265625 17.4375 -27.265625 L 16.40625 -27.265625 C 15.8125 -27.265625 15.515625 -26.960938 15.515625 -26.359375 L 15.515625 -21.484375 C 15.515625 -20.890625 15.8125 -20.59375 16.40625 -20.59375 L 17.4375 -20.59375 C 18.03125 -20.59375 18.328125 -20.289062 18.328125 -19.6875 L 18.328125 -18.65625 C 18.328125 -18.0625 18.625 -17.765625 19.21875 -17.765625 L 29.703125 -17.765625 C 30.296875 -17.765625 30.59375 -17.46875 30.59375 -16.875 L 30.59375 -15.84375 C 30.59375 -15.25 30.890625 -14.953125 31.484375 -14.953125 L 32.53125 -14.953125 C 33.125 -14.953125 33.421875 -14.648438 33.421875 -14.046875 L 33.421875 -3.71875 C 33.421875 -3.113281 33.125 -2.8125 32.53125 -2.8125 L 31.484375 -2.8125 C 30.890625 -2.8125 30.59375 -2.515625 30.59375 -1.921875 L 30.59375 -0.890625 C 30.59375 -0.296875 30.296875 0 29.703125 0 L 6.53125 0 C 5.9375 0 5.640625 -0.296875 5.640625 -0.890625 Z M 5.640625 -0.890625 "/></g></g></g><g fill="#000000" fill-opacity="0.5608"><g transform="translate(281.684409, 204.244877)"><g><path d="M 8.9375 -0.890625 L 8.9375 -1.921875 C 8.9375 -2.515625 8.632812 -2.8125 8.03125 -2.8125 L 7 -2.8125 C 6.40625 -2.8125 6.109375 -3.113281 6.109375 -3.71875 L 6.109375 -4.75 C 6.109375 -5.34375 5.8125 -5.640625 5.21875 -5.640625 L 4.1875 -5.640625 C 3.59375 -5.640625 3.296875 -5.9375 3.296875 -6.53125 L 3.296875 -26.359375 C 3.296875 -26.960938 3.59375 -27.265625 4.1875 -27.265625 L 5.21875 -27.265625 C 5.8125 -27.265625 6.109375 -27.5625 6.109375 -28.15625 L 6.109375 -29.1875 C 6.109375 -29.78125 6.40625 -30.078125 7 -30.078125 L 8.03125 -30.078125 C 8.632812 -30.078125 8.9375 -30.375 8.9375 -30.96875 L 8.9375 -32 C 8.9375 -32.601562 9.234375 -32.90625 9.828125 -32.90625 L 27.78125 -32.90625 C 28.375 -32.90625 28.671875 -32.601562 28.671875 -32 L 28.671875 -30.96875 C 28.671875 -30.375 28.96875 -30.078125 29.5625 -30.078125 L 30.59375 -30.078125 C 31.1875 -30.078125 31.484375 -29.78125 31.484375 -29.1875 L 31.484375 -28.15625 C 31.484375 -27.5625 31.785156 -27.265625 32.390625 -27.265625 L 33.421875 -27.265625 C 34.015625 -27.265625 34.3125 -26.960938 34.3125 -26.359375 L 34.3125 -6.53125 C 34.3125 -5.9375 34.015625 -5.640625 33.421875 -5.640625 L 32.390625 -5.640625 C 31.785156 -5.640625 31.484375 -5.34375 31.484375 -4.75 L 31.484375 -3.71875 C 31.484375 -3.113281 31.1875 -2.8125 30.59375 -2.8125 L 29.5625 -2.8125 C 28.96875 -2.8125 28.671875 -2.515625 28.671875 -1.921875 L 28.671875 -0.890625 C 28.671875 -0.296875 28.375 0 27.78125 0 L 9.828125 0 C 9.234375 0 8.9375 -0.296875 8.9375 -0.890625 Z M 19.6875 -5.640625 L 20.734375 -5.640625 C 21.328125 -5.640625 21.625 -5.9375 21.625 -6.53125 L 21.625 -29.1875 C 21.625 -29.78125 21.328125 -30.078125 20.734375 -30.078125 L 19.6875 -30.078125 C 19.09375 -30.078125 18.796875 -29.78125 18.796875 -29.1875 L 18.796875 -28.15625 C 18.796875 -27.5625 18.5 -27.265625 17.90625 -27.265625 L 16.875 -27.265625 C 16.28125 -27.265625 15.984375 -26.960938 15.984375 -26.359375 L 15.984375 -3.71875 C 15.984375 -3.113281 16.28125 -2.8125 16.875 -2.8125 L 17.90625 -2.8125 C 18.5 -2.8125 18.796875 -3.113281 18.796875 -3.71875 L 18.796875 -4.75 C 18.796875 -5.34375 19.09375 -5.640625 19.6875 -5.640625 Z M 19.6875 -5.640625 "/></g></g></g><g fill="#000000" fill-opacity="0.5608"><g transform="translate(319.27811, 204.244877)"><g/></g></g><g fill="#000000" fill-opacity="0.5608"><g transform="translate(331.026156, 204.244877)"><g><path d="M 17.90625 -27.265625 L 16.875 -27.265625 C 16.28125 -27.265625 15.984375 -26.960938 15.984375 -26.359375 L 15.984375 -3.71875 C 15.984375 -3.113281 16.28125 -2.8125 16.875 -2.8125 L 17.90625 -2.8125 C 18.5 -2.8125 18.796875 -3.113281 18.796875 -3.71875 L 18.796875 -4.75 C 18.796875 -5.34375 19.09375 -5.640625 19.6875 -5.640625 L 20.734375 -5.640625 C 21.328125 -5.640625 21.625 -5.9375 21.625 -6.53125 L 21.625 -29.1875 C 21.625 -29.78125 21.328125 -30.078125 20.734375 -30.078125 L 19.6875 -30.078125 C 19.09375 -30.078125 18.796875 -29.78125 18.796875 -29.1875 L 18.796875 -28.15625 C 18.796875 -27.5625 18.5 -27.265625 17.90625 -27.265625 Z M 3.296875 -0.890625 L 3.296875 -43.75 C 3.296875 -44.351562 3.59375 -44.65625 4.1875 -44.65625 L 15.09375 -44.65625 C 15.6875 -44.65625 15.984375 -44.351562 15.984375 -43.75 L 15.984375 -33.796875 C 15.984375 -33.203125 16.28125 -32.90625 16.875 -32.90625 L 27.78125 -32.90625 C 28.375 -32.90625 28.671875 -32.601562 28.671875 -32 L 28.671875 -30.96875 C 28.671875 -30.375 28.96875 -30.078125 29.5625 -30.078125 L 30.59375 -30.078125 C 31.1875 -30.078125 31.484375 -29.78125 31.484375 -29.1875 L 31.484375 -28.15625 C 31.484375 -27.5625 31.785156 -27.265625 32.390625 -27.265625 L 33.421875 -27.265625 C 34.015625 -27.265625 34.3125 -26.960938 34.3125 -26.359375 L 34.3125 -3.765625 C 34.3125 -3.160156 34.015625 -2.859375 33.421875 -2.859375 L 32.390625 -2.859375 C 31.785156 -2.859375 31.484375 -2.5625 31.484375 -1.96875 L 31.484375 -0.890625 C 31.484375 -0.296875 31.1875 0 30.59375 0 L 4.1875 0 C 3.59375 0 3.296875 -0.296875 3.296875 -0.890625 Z M 3.296875 -0.890625 "/></g></g></g><g fill="#000000" fill-opacity="0.5608"><g transform="translate(368.619857, 204.244877)"><g><path d="M 3.296875 -0.890625 L 3.296875 -32 C 3.296875 -32.601562 3.59375 -32.90625 4.1875 -32.90625 L 10.859375 -32.90625 C 11.453125 -32.90625 11.75 -32.601562 11.75 -32 L 11.75 -28.15625 C 11.75 -27.5625 12.046875 -27.265625 12.640625 -27.265625 L 13.671875 -27.265625 C 14.265625 -27.265625 14.5625 -27.5625 14.5625 -28.15625 L 14.5625 -29.1875 C 14.5625 -29.78125 14.863281 -30.078125 15.46875 -30.078125 L 16.5 -30.078125 C 17.09375 -30.078125 17.390625 -30.375 17.390625 -30.96875 L 17.390625 -32 C 17.390625 -32.601562 17.6875 -32.90625 18.28125 -32.90625 L 26.359375 -32.90625 C 26.960938 -32.90625 27.265625 -32.601562 27.265625 -32 L 27.265625 -30.96875 C 27.265625 -30.375 27.5625 -30.078125 28.15625 -30.078125 L 29.1875 -30.078125 C 29.4375 -30.078125 29.5625 -30.078125 29.5625 -30.078125 C 29.5625 -30.078125 29.4375 -30.078125 29.1875 -30.078125 L 28.15625 -30.078125 C 27.90625 -30.078125 27.78125 -30.078125 27.78125 -30.078125 C 27.78125 -30.078125 27.90625 -30.078125 28.15625 -30.078125 L 29.1875 -30.078125 C 29.78125 -30.078125 30.078125 -29.78125 30.078125 -29.1875 L 30.078125 -22.703125 C 30.078125 -22.109375 29.78125 -21.8125 29.1875 -21.8125 L 19.6875 -21.8125 C 19.09375 -21.8125 18.796875 -22.109375 18.796875 -22.703125 L 18.796875 -26.359375 C 18.796875 -26.960938 18.5 -27.265625 17.90625 -27.265625 L 16.875 -27.265625 C 16.28125 -27.265625 15.984375 -26.960938 15.984375 -26.359375 L 15.984375 -0.890625 C 15.984375 -0.296875 15.6875 0 15.09375 0 L 4.1875 0 C 3.59375 0 3.296875 -0.296875 3.296875 -0.890625 Z M 3.296875 -0.890625 "/></g></g></g><g fill="#000000" fill-opacity="0.5608"><g transform="translate(399.634671, 204.244877)"><g><path d="M 19.78125 -15 L 15.9375 -15 C 15.34375 -15 15.046875 -14.695312 15.046875 -14.09375 L 15.046875 -3.71875 C 15.046875 -3.113281 15.34375 -2.8125 15.9375 -2.8125 L 16.96875 -2.8125 C 17.5625 -2.8125 17.859375 -3.113281 17.859375 -3.71875 L 17.859375 -4.75 C 17.859375 -5.34375 18.15625 -5.640625 18.75 -5.640625 L 19.78125 -5.640625 C 20.382812 -5.640625 20.6875 -5.9375 20.6875 -6.53125 L 20.6875 -14.09375 C 20.6875 -14.695312 20.382812 -15 19.78125 -15 Z M 5.171875 -0.890625 L 5.171875 -1.921875 C 5.171875 -2.515625 4.875 -2.8125 4.28125 -2.8125 L 3.25 -2.8125 C 2.644531 -2.8125 2.34375 -3.113281 2.34375 -3.71875 L 2.34375 -14.09375 C 2.34375 -14.695312 2.644531 -15 3.25 -15 L 4.28125 -15 C 4.875 -15 5.171875 -15.296875 5.171875 -15.890625 L 5.171875 -16.921875 C 5.171875 -17.515625 5.46875 -17.8125 6.0625 -17.8125 L 16.96875 -17.8125 C 17.5625 -17.8125 17.859375 -18.109375 17.859375 -18.703125 L 17.859375 -19.734375 C 17.859375 -20.335938 18.15625 -20.640625 18.75 -20.640625 L 21.203125 -20.640625 C 21.796875 -20.640625 22.09375 -20.9375 22.09375 -21.53125 L 22.09375 -29.1875 C 22.09375 -29.78125 21.796875 -30.078125 21.203125 -30.078125 L 18.75 -30.078125 C 18.15625 -30.078125 17.859375 -29.78125 17.859375 -29.1875 L 17.859375 -25.328125 C 17.859375 -24.734375 17.5625 -24.4375 16.96875 -24.4375 L 15.9375 -24.4375 C 15.34375 -24.4375 15.046875 -24.140625 15.046875 -23.546875 L 15.046875 -21.109375 C 15.046875 -20.503906 14.742188 -20.203125 14.140625 -20.203125 L 4.65625 -20.203125 C 4.0625 -20.203125 3.765625 -20.503906 3.765625 -21.109375 L 3.765625 -29.1875 C 3.765625 -29.78125 4.0625 -30.078125 4.65625 -30.078125 L 6.390625 -30.078125 C 6.984375 -30.078125 7.28125 -30.375 7.28125 -30.96875 L 7.28125 -32 C 7.28125 -32.601562 7.578125 -32.90625 8.171875 -32.90625 L 29.65625 -32.90625 C 30.25 -32.90625 30.546875 -32.601562 30.546875 -32 L 30.546875 -30.96875 C 30.546875 -30.375 30.84375 -30.078125 31.4375 -30.078125 L 32.484375 -30.078125 C 33.078125 -30.078125 33.375 -29.78125 33.375 -29.1875 L 33.375 -0.890625 C 33.375 -0.296875 33.078125 0 32.484375 0 L 24.390625 0 C 23.796875 0 23.5 -0.296875 23.5 -0.890625 L 23.5 -1.921875 C 23.5 -2.515625 23.203125 -2.8125 22.609375 -2.8125 L 21.578125 -2.8125 C 20.984375 -2.8125 20.6875 -2.515625 20.6875 -1.921875 L 20.6875 -0.890625 C 20.6875 -0.296875 20.382812 0 19.78125 0 L 6.0625 0 C 5.46875 0 5.171875 -0.296875 5.171875 -0.890625 Z M 5.171875 -0.890625 "/></g></g></g><g fill="#000000" fill-opacity="0.5608"><g transform="translate(436.288538, 204.244877)"><g><path d="M 7.984375 -0.890625 L 7.984375 -1.921875 C 7.984375 -2.515625 7.6875 -2.8125 7.09375 -2.8125 L 6.0625 -2.8125 C 5.46875 -2.8125 5.171875 -3.113281 5.171875 -3.71875 L 5.171875 -29.234375 C 5.171875 -29.828125 4.875 -30.125 4.28125 -30.125 L 2.765625 -30.125 C 2.171875 -30.125 1.875 -30.421875 1.875 -31.015625 L 1.875 -32 C 1.875 -32.601562 2.171875 -32.90625 2.765625 -32.90625 L 4.28125 -32.90625 C 4.875 -32.90625 5.171875 -33.203125 5.171875 -33.796875 L 5.171875 -40.328125 C 5.171875 -40.921875 5.46875 -41.21875 6.0625 -41.21875 L 16.96875 -41.21875 C 17.5625 -41.21875 17.859375 -40.921875 17.859375 -40.328125 L 17.859375 -33.796875 C 17.859375 -33.203125 18.15625 -32.90625 18.75 -32.90625 L 23.5 -32.90625 C 24.09375 -32.90625 24.390625 -32.601562 24.390625 -32 L 24.390625 -31.015625 C 24.390625 -30.421875 24.09375 -30.125 23.5 -30.125 L 18.75 -30.125 C 18.15625 -30.125 17.859375 -29.828125 17.859375 -29.234375 L 17.859375 -3.71875 C 17.859375 -3.113281 18.15625 -2.8125 18.75 -2.8125 L 19.78125 -2.8125 C 20.382812 -2.8125 20.6875 -3.113281 20.6875 -3.71875 L 20.6875 -8.5 C 20.6875 -9.101562 20.984375 -9.40625 21.578125 -9.40625 L 29.1875 -9.40625 C 29.78125 -9.40625 30.078125 -9.101562 30.078125 -8.5 L 30.078125 -3.71875 C 30.078125 -3.113281 29.78125 -2.8125 29.1875 -2.8125 L 26.75 -2.8125 C 26.144531 -2.8125 25.84375 -2.515625 25.84375 -1.921875 L 25.84375 -0.890625 C 25.84375 -0.296875 25.546875 0 24.953125 0 L 8.890625 0 C 8.285156 0 7.984375 -0.296875 7.984375 -0.890625 Z M 7.984375 -0.890625 "/></g></g></g><g fill="#86ff45" fill-opacity="1"><g transform="translate(39.585944, 202.124984)"><g><path d="M 7.984375 -0.890625 L 7.984375 -1.921875 C 7.984375 -2.515625 7.6875 -2.8125 7.09375 -2.8125 L 6.0625 -2.8125 C 5.46875 -2.8125 5.171875 -3.113281 5.171875 -3.71875 L 5.171875 -29.234375 C 5.171875 -29.828125 4.875 -30.125 4.28125 -30.125 L 2.765625 -30.125 C 2.171875 -30.125 1.875 -30.421875 1.875 -31.015625 L 1.875 -32 C 1.875 -32.601562 2.171875 -32.90625 2.765625 -32.90625 L 4.28125 -32.90625 C 4.875 -32.90625 5.171875 -33.203125 5.171875 -33.796875 L 5.171875 -40.328125 C 5.171875 -40.921875 5.46875 -41.21875 6.0625 -41.21875 L 16.96875 -41.21875 C 17.5625 -41.21875 17.859375 -40.921875 17.859375 -40.328125 L 17.859375 -33.796875 C 17.859375 -33.203125 18.15625 -32.90625 18.75 -32.90625 L 23.5 -32.90625 C 24.09375 -32.90625 24.390625 -32.601562 24.390625 -32 L 24.390625 -31.015625 C 24.390625 -30.421875 24.09375 -30.125 23.5 -30.125 L 18.75 -30.125 C 18.15625 -30.125 17.859375 -29.828125 17.859375 -29.234375 L 17.859375 -3.71875 C 17.859375 -3.113281 18.15625 -2.8125 18.75 -2.8125 L 19.78125 -2.8125 C 20.382812 -2.8125 20.6875 -3.113281 20.6875 -3.71875 L 20.6875 -8.5 C 20.6875 -9.101562 20.984375 -9.40625 21.578125 -9.40625 L 29.1875 -9.40625 C 29.78125 -9.40625 30.078125 -9.101562 30.078125 -8.5 L 30.078125 -3.71875 C 30.078125 -3.113281 29.78125 -2.8125 29.1875 -2.8125 L 26.75 -2.8125 C 26.144531 -2.8125 25.84375 -2.515625 25.84375 -1.921875 L 25.84375 -0.890625 C 25.84375 -0.296875 25.546875 0 24.953125 0 L 8.890625 0 C 8.285156 0 7.984375 -0.296875 7.984375 -0.890625 Z M 7.984375 -0.890625 "/></g></g></g><g fill="#86ff45" fill-opacity="1"><g transform="translate(70.130817, 202.124984)"><g><path d="M 3.296875 -0.890625 L 3.296875 -44.515625 C 3.296875 -45.109375 3.59375 -45.40625 4.1875 -45.40625 L 15.09375 -45.40625 C 15.6875 -45.40625 15.984375 -45.109375 15.984375 -44.515625 L 15.984375 -30.78125 C 15.984375 -30.3125 16.21875 -30.078125 16.6875 -30.078125 C 17.15625 -30.078125 17.390625 -30.3125 17.390625 -30.78125 L 17.390625 -32 C 17.390625 -32.601562 17.6875 -32.90625 18.28125 -32.90625 L 30.59375 -32.90625 C 31.1875 -32.90625 31.484375 -32.601562 31.484375 -32 L 31.484375 -30.96875 C 31.484375 -30.375 31.785156 -30.078125 32.390625 -30.078125 L 33.421875 -30.078125 C 33.671875 -30.078125 33.796875 -30.078125 33.796875 -30.078125 C 33.796875 -30.078125 33.671875 -30.078125 33.421875 -30.078125 L 32.390625 -30.078125 C 32.128906 -30.078125 32 -30.078125 32 -30.078125 C 32 -30.078125 32.128906 -30.078125 32.390625 -30.078125 L 33.421875 -30.078125 C 34.015625 -30.078125 34.3125 -29.78125 34.3125 -29.1875 L 34.3125 -0.890625 C 34.3125 -0.296875 34.015625 0 33.421875 0 L 22.515625 0 C 21.921875 0 21.625 -0.296875 21.625 -0.890625 L 21.625 -29.1875 C 21.625 -29.78125 21.328125 -30.078125 20.734375 -30.078125 L 19.6875 -30.078125 C 19.09375 -30.078125 18.796875 -29.78125 18.796875 -29.1875 L 18.796875 -28.15625 C 18.796875 -27.5625 18.5 -27.265625 17.90625 -27.265625 L 16.875 -27.265625 C 16.28125 -27.265625 15.984375 -26.960938 15.984375 -26.359375 L 15.984375 -0.890625 C 15.984375 -0.296875 15.6875 0 15.09375 0 L 4.1875 0 C 3.59375 0 3.296875 -0.296875 3.296875 -0.890625 Z M 3.296875 -0.890625 "/></g></g></g><g fill="#86ff45" fill-opacity="1"><g transform="translate(107.724518, 202.124984)"><g><path d="M 19.78125 -15 L 15.9375 -15 C 15.34375 -15 15.046875 -14.695312 15.046875 -14.09375 L 15.046875 -3.71875 C 15.046875 -3.113281 15.34375 -2.8125 15.9375 -2.8125 L 16.96875 -2.8125 C 17.5625 -2.8125 17.859375 -3.113281 17.859375 -3.71875 L 17.859375 -4.75 C 17.859375 -5.34375 18.15625 -5.640625 18.75 -5.640625 L 19.78125 -5.640625 C 20.382812 -5.640625 20.6875 -5.9375 20.6875 -6.53125 L 20.6875 -14.09375 C 20.6875 -14.695312 20.382812 -15 19.78125 -15 Z M 5.171875 -0.890625 L 5.171875 -1.921875 C 5.171875 -2.515625 4.875 -2.8125 4.28125 -2.8125 L 3.25 -2.8125 C 2.644531 -2.8125 2.34375 -3.113281 2.34375 -3.71875 L 2.34375 -14.09375 C 2.34375 -14.695312 2.644531 -15 3.25 -15 L 4.28125 -15 C 4.875 -15 5.171875 -15.296875 5.171875 -15.890625 L 5.171875 -16.921875 C 5.171875 -17.515625 5.46875 -17.8125 6.0625 -17.8125 L 16.96875 -17.8125 C 17.5625 -17.8125 17.859375 -18.109375 17.859375 -18.703125 L 17.859375 -19.734375 C 17.859375 -20.335938 18.15625 -20.640625 18.75 -20.640625 L 21.203125 -20.640625 C 21.796875 -20.640625 22.09375 -20.9375 22.09375 -21.53125 L 22.09375 -29.1875 C 22.09375 -29.78125 21.796875 -30.078125 21.203125 -30.078125 L 18.75 -30.078125 C 18.15625 -30.078125 17.859375 -29.78125 17.859375 -29.1875 L 17.859375 -25.328125 C 17.859375 -24.734375 17.5625 -24.4375 16.96875 -24.4375 L 15.9375 -24.4375 C 15.34375 -24.4375 15.046875 -24.140625 15.046875 -23.546875 L 15.046875 -21.109375 C 15.046875 -20.503906 14.742188 -20.203125 14.140625 -20.203125 L 4.65625 -20.203125 C 4.0625 -20.203125 3.765625 -20.503906 3.765625 -21.109375 L 3.765625 -29.1875 C 3.765625 -29.78125 4.0625 -30.078125 4.65625 -30.078125 L 6.390625 -30.078125 C 6.984375 -30.078125 7.28125 -30.375 7.28125 -30.96875 L 7.28125 -32 C 7.28125 -32.601562 7.578125 -32.90625 8.171875 -32.90625 L 29.65625 -32.90625 C 30.25 -32.90625 30.546875 -32.601562 30.546875 -32 L 30.546875 -30.96875 C 30.546875 -30.375 30.84375 -30.078125 31.4375 -30.078125 L 32.484375 -30.078125 C 33.078125 -30.078125 33.375 -29.78125 33.375 -29.1875 L 33.375 -0.890625 C 33.375 -0.296875 33.078125 0 32.484375 0 L 24.390625 0 C 23.796875 0 23.5 -0.296875 23.5 -0.890625 L 23.5 -1.921875 C 23.5 -2.515625 23.203125 -2.8125 22.609375 -2.8125 L 21.578125 -2.8125 C 20.984375 -2.8125 20.6875 -2.515625 20.6875 -1.921875 L 20.6875 -0.890625 C 20.6875 -0.296875 20.382812 0 19.78125 0 L 6.0625 0 C 5.46875 0 5.171875 -0.296875 5.171875 -0.890625 Z M 5.171875 -0.890625 "/></g></g></g><g fill="#86ff45" fill-opacity="1"><g transform="translate(144.378374, 202.124984)"><g><path d="M 7.984375 -0.890625 L 7.984375 -1.921875 C 7.984375 -2.515625 7.6875 -2.8125 7.09375 -2.8125 L 6.0625 -2.8125 C 5.46875 -2.8125 5.171875 -3.113281 5.171875 -3.71875 L 5.171875 -29.234375 C 5.171875 -29.828125 4.875 -30.125 4.28125 -30.125 L 2.765625 -30.125 C 2.171875 -30.125 1.875 -30.421875 1.875 -31.015625 L 1.875 -32 C 1.875 -32.601562 2.171875 -32.90625 2.765625 -32.90625 L 4.28125 -32.90625 C 4.875 -32.90625 5.171875 -33.203125 5.171875 -33.796875 L 5.171875 -40.328125 C 5.171875 -40.921875 5.46875 -41.21875 6.0625 -41.21875 L 16.96875 -41.21875 C 17.5625 -41.21875 17.859375 -40.921875 17.859375 -40.328125 L 17.859375 -33.796875 C 17.859375 -33.203125 18.15625 -32.90625 18.75 -32.90625 L 23.5 -32.90625 C 24.09375 -32.90625 24.390625 -32.601562 24.390625 -32 L 24.390625 -31.015625 C 24.390625 -30.421875 24.09375 -30.125 23.5 -30.125 L 18.75 -30.125 C 18.15625 -30.125 17.859375 -29.828125 17.859375 -29.234375 L 17.859375 -3.71875 C 17.859375 -3.113281 18.15625 -2.8125 18.75 -2.8125 L 19.78125 -2.8125 C 20.382812 -2.8125 20.6875 -3.113281 20.6875 -3.71875 L 20.6875 -8.5 C 20.6875 -9.101562 20.984375 -9.40625 21.578125 -9.40625 L 29.1875 -9.40625 C 29.78125 -9.40625 30.078125 -9.101562 30.078125 -8.5 L 30.078125 -3.71875 C 30.078125 -3.113281 29.78125 -2.8125 29.1875 -2.8125 L 26.75 -2.8125 C 26.144531 -2.8125 25.84375 -2.515625 25.84375 -1.921875 L 25.84375 -0.890625 C 25.84375 -0.296875 25.546875 0 24.953125 0 L 8.890625 0 C 8.285156 0 7.984375 -0.296875 7.984375 -0.890625 Z M 7.984375 -0.890625 "/></g></g></g><g fill="#86ff45" fill-opacity="1"><g transform="translate(174.923247, 202.124984)"><g><path d="M 5.171875 -32.234375 L 5.171875 -32.34375 C 5.171875 -32.90625 4.890625 -33.1875 4.328125 -33.1875 C 3.640625 -33.1875 3.296875 -33.53125 3.296875 -34.21875 L 3.296875 -41.078125 C 3.296875 -41.765625 3.640625 -42.109375 4.328125 -42.109375 C 4.890625 -42.109375 5.171875 -42.390625 5.171875 -42.953125 L 5.171875 -43.046875 C 5.171875 -43.671875 5.484375 -43.984375 6.109375 -43.984375 L 13.0625 -43.984375 C 13.75 -43.984375 14.09375 -43.640625 14.09375 -42.953125 C 14.09375 -42.390625 14.378906 -42.109375 14.953125 -42.109375 L 15.046875 -42.109375 C 15.671875 -42.109375 15.984375 -41.796875 15.984375 -41.171875 L 15.984375 -25.421875 C 15.984375 -24.640625 15.59375 -24.25 14.8125 -24.25 L 12.921875 -24.25 C 12.140625 -24.25 11.75 -24.640625 11.75 -25.421875 L 11.75 -30.125 C 11.75 -30.90625 11.359375 -31.296875 10.578125 -31.296875 L 6.109375 -31.296875 C 5.484375 -31.296875 5.171875 -31.609375 5.171875 -32.234375 Z M 5.171875 -32.234375 "/></g></g></g><g fill="#86ff45" fill-opacity="1"><g transform="translate(194.190015, 202.124984)"><g><path d="M 5.640625 -0.890625 L 5.640625 -1.921875 C 5.640625 -2.515625 5.34375 -2.8125 4.75 -2.8125 L 3.71875 -2.8125 C 3.113281 -2.8125 2.8125 -3.113281 2.8125 -3.71875 L 2.8125 -11.796875 C 2.8125 -12.390625 3.113281 -12.6875 3.71875 -12.6875 L 14.609375 -12.6875 C 15.210938 -12.6875 15.515625 -12.390625 15.515625 -11.796875 L 15.515625 -3.71875 C 15.515625 -3.113281 15.8125 -2.8125 16.40625 -2.8125 L 17.4375 -2.8125 C 18.03125 -2.8125 18.328125 -3.113281 18.328125 -3.71875 L 18.328125 -4.75 C 18.328125 -5.34375 18.625 -5.640625 19.21875 -5.640625 L 20.296875 -5.640625 C 20.898438 -5.640625 21.203125 -5.9375 21.203125 -6.53125 L 21.203125 -11.234375 C 21.203125 -11.828125 20.898438 -12.125 20.296875 -12.125 L 19.265625 -12.125 C 18.671875 -12.125 18.375 -12.421875 18.375 -13.015625 L 18.375 -14.046875 C 18.375 -14.648438 18.078125 -14.953125 17.484375 -14.953125 L 6.53125 -14.953125 C 5.9375 -14.953125 5.640625 -15.25 5.640625 -15.84375 L 5.640625 -16.875 C 5.640625 -17.46875 5.34375 -17.765625 4.75 -17.765625 L 3.71875 -17.765625 C 3.113281 -17.765625 2.8125 -18.0625 2.8125 -18.65625 L 2.8125 -29.1875 C 2.8125 -29.78125 3.113281 -30.078125 3.71875 -30.078125 L 4.421875 -30.078125 C 5.015625 -30.078125 5.3125 -30.375 5.3125 -30.96875 L 5.3125 -32 C 5.3125 -32.601562 5.609375 -32.90625 6.203125 -32.90625 L 29.65625 -32.90625 C 30.25 -32.90625 30.546875 -32.601562 30.546875 -32 L 30.546875 -30.96875 C 30.546875 -30.375 30.84375 -30.078125 31.4375 -30.078125 L 32.484375 -30.078125 C 33.078125 -30.078125 33.375 -29.78125 33.375 -29.1875 L 33.375 -21.109375 C 33.375 -20.503906 33.078125 -20.203125 32.484375 -20.203125 L 24.859375 -20.203125 C 24.265625 -20.203125 23.96875 -20.503906 23.96875 -21.109375 L 23.96875 -22.140625 C 23.96875 -22.734375 23.671875 -23.03125 23.078125 -23.03125 L 22.046875 -23.03125 C 21.453125 -23.03125 21.15625 -23.328125 21.15625 -23.921875 L 21.15625 -29.1875 C 21.15625 -29.78125 20.851562 -30.078125 20.25 -30.078125 L 19.21875 -30.078125 C 18.625 -30.078125 18.328125 -29.78125 18.328125 -29.1875 L 18.328125 -28.15625 C 18.328125 -27.5625 18.03125 -27.265625 17.4375 -27.265625 L 16.40625 -27.265625 C 15.8125 -27.265625 15.515625 -26.960938 15.515625 -26.359375 L 15.515625 -21.484375 C 15.515625 -20.890625 15.8125 -20.59375 16.40625 -20.59375 L 17.4375 -20.59375 C 18.03125 -20.59375 18.328125 -20.289062 18.328125 -19.6875 L 18.328125 -18.65625 C 18.328125 -18.0625 18.625 -17.765625 19.21875 -17.765625 L 29.703125 -17.765625 C 30.296875 -17.765625 30.59375 -17.46875 30.59375 -16.875 L 30.59375 -15.84375 C 30.59375 -15.25 30.890625 -14.953125 31.484375 -14.953125 L 32.53125 -14.953125 C 33.125 -14.953125 33.421875 -14.648438 33.421875 -14.046875 L 33.421875 -3.71875 C 33.421875 -3.113281 33.125 -2.8125 32.53125 -2.8125 L 31.484375 -2.8125 C 30.890625 -2.8125 30.59375 -2.515625 30.59375 -1.921875 L 30.59375 -0.890625 C 30.59375 -0.296875 30.296875 0 29.703125 0 L 6.53125 0 C 5.9375 0 5.640625 -0.296875 5.640625 -0.890625 Z M 5.640625 -0.890625 "/></g></g></g><g fill="#86ff45" fill-opacity="1"><g transform="translate(230.84387, 202.124984)"><g/></g></g><g fill="#86ff45" fill-opacity="1"><g transform="translate(242.591893, 202.124984)"><g><path d="M 5.640625 -0.890625 L 5.640625 -1.921875 C 5.640625 -2.515625 5.34375 -2.8125 4.75 -2.8125 L 3.71875 -2.8125 C 3.113281 -2.8125 2.8125 -3.113281 2.8125 -3.71875 L 2.8125 -11.796875 C 2.8125 -12.390625 3.113281 -12.6875 3.71875 -12.6875 L 14.609375 -12.6875 C 15.210938 -12.6875 15.515625 -12.390625 15.515625 -11.796875 L 15.515625 -3.71875 C 15.515625 -3.113281 15.8125 -2.8125 16.40625 -2.8125 L 17.4375 -2.8125 C 18.03125 -2.8125 18.328125 -3.113281 18.328125 -3.71875 L 18.328125 -4.75 C 18.328125 -5.34375 18.625 -5.640625 19.21875 -5.640625 L 20.296875 -5.640625 C 20.898438 -5.640625 21.203125 -5.9375 21.203125 -6.53125 L 21.203125 -11.234375 C 21.203125 -11.828125 20.898438 -12.125 20.296875 -12.125 L 19.265625 -12.125 C 18.671875 -12.125 18.375 -12.421875 18.375 -13.015625 L 18.375 -14.046875 C 18.375 -14.648438 18.078125 -14.953125 17.484375 -14.953125 L 6.53125 -14.953125 C 5.9375 -14.953125 5.640625 -15.25 5.640625 -15.84375 L 5.640625 -16.875 C 5.640625 -17.46875 5.34375 -17.765625 4.75 -17.765625 L 3.71875 -17.765625 C 3.113281 -17.765625 2.8125 -18.0625 2.8125 -18.65625 L 2.8125 -29.1875 C 2.8125 -29.78125 3.113281 -30.078125 3.71875 -30.078125 L 4.421875 -30.078125 C 5.015625 -30.078125 5.3125 -30.375 5.3125 -30.96875 L 5.3125 -32 C 5.3125 -32.601562 5.609375 -32.90625 6.203125 -32.90625 L 29.65625 -32.90625 C 30.25 -32.90625 30.546875 -32.601562 30.546875 -32 L 30.546875 -30.96875 C 30.546875 -30.375 30.84375 -30.078125 31.4375 -30.078125 L 32.484375 -30.078125 C 33.078125 -30.078125 33.375 -29.78125 33.375 -29.1875 L 33.375 -21.109375 C 33.375 -20.503906 33.078125 -20.203125 32.484375 -20.203125 L 24.859375 -20.203125 C 24.265625 -20.203125 23.96875 -20.503906 23.96875 -21.109375 L 23.96875 -22.140625 C 23.96875 -22.734375 23.671875 -23.03125 23.078125 -23.03125 L 22.046875 -23.03125 C 21.453125 -23.03125 21.15625 -23.328125 21.15625 -23.921875 L 21.15625 -29.1875 C 21.15625 -29.78125 20.851562 -30.078125 20.25 -30.078125 L 19.21875 -30.078125 C 18.625 -30.078125 18.328125 -29.78125 18.328125 -29.1875 L 18.328125 -28.15625 C 18.328125 -27.5625 18.03125 -27.265625 17.4375 -27.265625 L 16.40625 -27.265625 C 15.8125 -27.265625 15.515625 -26.960938 15.515625 -26.359375 L 15.515625 -21.484375 C 15.515625 -20.890625 15.8125 -20.59375 16.40625 -20.59375 L 17.4375 -20.59375 C 18.03125 -20.59375 18.328125 -20.289062 18.328125 -19.6875 L 18.328125 -18.65625 C 18.328125 -18.0625 18.625 -17.765625 19.21875 -17.765625 L 29.703125 -17.765625 C 30.296875 -17.765625 30.59375 -17.46875 30.59375 -16.875 L 30.59375 -15.84375 C 30.59375 -15.25 30.890625 -14.953125 31.484375 -14.953125 L 32.53125 -14.953125 C 33.125 -14.953125 33.421875 -14.648438 33.421875 -14.046875 L 33.421875 -3.71875 C 33.421875 -3.113281 33.125 -2.8125 32.53125 -2.8125 L 31.484375 -2.8125 C 30.890625 -2.8125 30.59375 -2.515625 30.59375 -1.921875 L 30.59375 -0.890625 C 30.59375 -0.296875 30.296875 0 29.703125 0 L 6.53125 0 C 5.9375 0 5.640625 -0.296875 5.640625 -0.890625 Z M 5.640625 -0.890625 "/></g></g></g><g fill="#86ff45" fill-opacity="1"><g transform="translate(279.24576, 202.124984)"><g><path d="M 8.9375 -0.890625 L 8.9375 -1.921875 C 8.9375 -2.515625 8.632812 -2.8125 8.03125 -2.8125 L 7 -2.8125 C 6.40625 -2.8125 6.109375 -3.113281 6.109375 -3.71875 L 6.109375 -4.75 C 6.109375 -5.34375 5.8125 -5.640625 5.21875 -5.640625 L 4.1875 -5.640625 C 3.59375 -5.640625 3.296875 -5.9375 3.296875 -6.53125 L 3.296875 -26.359375 C 3.296875 -26.960938 3.59375 -27.265625 4.1875 -27.265625 L 5.21875 -27.265625 C 5.8125 -27.265625 6.109375 -27.5625 6.109375 -28.15625 L 6.109375 -29.1875 C 6.109375 -29.78125 6.40625 -30.078125 7 -30.078125 L 8.03125 -30.078125 C 8.632812 -30.078125 8.9375 -30.375 8.9375 -30.96875 L 8.9375 -32 C 8.9375 -32.601562 9.234375 -32.90625 9.828125 -32.90625 L 27.78125 -32.90625 C 28.375 -32.90625 28.671875 -32.601562 28.671875 -32 L 28.671875 -30.96875 C 28.671875 -30.375 28.96875 -30.078125 29.5625 -30.078125 L 30.59375 -30.078125 C 31.1875 -30.078125 31.484375 -29.78125 31.484375 -29.1875 L 31.484375 -28.15625 C 31.484375 -27.5625 31.785156 -27.265625 32.390625 -27.265625 L 33.421875 -27.265625 C 34.015625 -27.265625 34.3125 -26.960938 34.3125 -26.359375 L 34.3125 -6.53125 C 34.3125 -5.9375 34.015625 -5.640625 33.421875 -5.640625 L 32.390625 -5.640625 C 31.785156 -5.640625 31.484375 -5.34375 31.484375 -4.75 L 31.484375 -3.71875 C 31.484375 -3.113281 31.1875 -2.8125 30.59375 -2.8125 L 29.5625 -2.8125 C 28.96875 -2.8125 28.671875 -2.515625 28.671875 -1.921875 L 28.671875 -0.890625 C 28.671875 -0.296875 28.375 0 27.78125 0 L 9.828125 0 C 9.234375 0 8.9375 -0.296875 8.9375 -0.890625 Z M 19.6875 -5.640625 L 20.734375 -5.640625 C 21.328125 -5.640625 21.625 -5.9375 21.625 -6.53125 L 21.625 -29.1875 C 21.625 -29.78125 21.328125 -30.078125 20.734375 -30.078125 L 19.6875 -30.078125 C 19.09375 -30.078125 18.796875 -29.78125 18.796875 -29.1875 L 18.796875 -28.15625 C 18.796875 -27.5625 18.5 -27.265625 17.90625 -27.265625 L 16.875 -27.265625 C 16.28125 -27.265625 15.984375 -26.960938 15.984375 -26.359375 L 15.984375 -3.71875 C 15.984375 -3.113281 16.28125 -2.8125 16.875 -2.8125 L 17.90625 -2.8125 C 18.5 -2.8125 18.796875 -3.113281 18.796875 -3.71875 L 18.796875 -4.75 C 18.796875 -5.34375 19.09375 -5.640625 19.6875 -5.640625 Z M 19.6875 -5.640625 "/></g></g></g><g fill="#86ff45" fill-opacity="1"><g transform="translate(316.839461, 202.124984)"><g/></g></g><g fill="#86ff45" fill-opacity="1"><g transform="translate(328.587507, 202.124984)"><g><path d="M 17.90625 -27.265625 L 16.875 -27.265625 C 16.28125 -27.265625 15.984375 -26.960938 15.984375 -26.359375 L 15.984375 -3.71875 C 15.984375 -3.113281 16.28125 -2.8125 16.875 -2.8125 L 17.90625 -2.8125 C 18.5 -2.8125 18.796875 -3.113281 18.796875 -3.71875 L 18.796875 -4.75 C 18.796875 -5.34375 19.09375 -5.640625 19.6875 -5.640625 L 20.734375 -5.640625 C 21.328125 -5.640625 21.625 -5.9375 21.625 -6.53125 L 21.625 -29.1875 C 21.625 -29.78125 21.328125 -30.078125 20.734375 -30.078125 L 19.6875 -30.078125 C 19.09375 -30.078125 18.796875 -29.78125 18.796875 -29.1875 L 18.796875 -28.15625 C 18.796875 -27.5625 18.5 -27.265625 17.90625 -27.265625 Z M 3.296875 -0.890625 L 3.296875 -43.75 C 3.296875 -44.351562 3.59375 -44.65625 4.1875 -44.65625 L 15.09375 -44.65625 C 15.6875 -44.65625 15.984375 -44.351562 15.984375 -43.75 L 15.984375 -33.796875 C 15.984375 -33.203125 16.28125 -32.90625 16.875 -32.90625 L 27.78125 -32.90625 C 28.375 -32.90625 28.671875 -32.601562 28.671875 -32 L 28.671875 -30.96875 C 28.671875 -30.375 28.96875 -30.078125 29.5625 -30.078125 L 30.59375 -30.078125 C 31.1875 -30.078125 31.484375 -29.78125 31.484375 -29.1875 L 31.484375 -28.15625 C 31.484375 -27.5625 31.785156 -27.265625 32.390625 -27.265625 L 33.421875 -27.265625 C 34.015625 -27.265625 34.3125 -26.960938 34.3125 -26.359375 L 34.3125 -3.765625 C 34.3125 -3.160156 34.015625 -2.859375 33.421875 -2.859375 L 32.390625 -2.859375 C 31.785156 -2.859375 31.484375 -2.5625 31.484375 -1.96875 L 31.484375 -0.890625 C 31.484375 -0.296875 31.1875 0 30.59375 0 L 4.1875 0 C 3.59375 0 3.296875 -0.296875 3.296875 -0.890625 Z M 3.296875 -0.890625 "/></g></g></g><g fill="#86ff45" fill-opacity="1"><g transform="translate(366.181209, 202.124984)"><g><path d="M 3.296875 -0.890625 L 3.296875 -32 C 3.296875 -32.601562 3.59375 -32.90625 4.1875 -32.90625 L 10.859375 -32.90625 C 11.453125 -32.90625 11.75 -32.601562 11.75 -32 L 11.75 -28.15625 C 11.75 -27.5625 12.046875 -27.265625 12.640625 -27.265625 L 13.671875 -27.265625 C 14.265625 -27.265625 14.5625 -27.5625 14.5625 -28.15625 L 14.5625 -29.1875 C 14.5625 -29.78125 14.863281 -30.078125 15.46875 -30.078125 L 16.5 -30.078125 C 17.09375 -30.078125 17.390625 -30.375 17.390625 -30.96875 L 17.390625 -32 C 17.390625 -32.601562 17.6875 -32.90625 18.28125 -32.90625 L 26.359375 -32.90625 C 26.960938 -32.90625 27.265625 -32.601562 27.265625 -32 L 27.265625 -30.96875 C 27.265625 -30.375 27.5625 -30.078125 28.15625 -30.078125 L 29.1875 -30.078125 C 29.4375 -30.078125 29.5625 -30.078125 29.5625 -30.078125 C 29.5625 -30.078125 29.4375 -30.078125 29.1875 -30.078125 L 28.15625 -30.078125 C 27.90625 -30.078125 27.78125 -30.078125 27.78125 -30.078125 C 27.78125 -30.078125 27.90625 -30.078125 28.15625 -30.078125 L 29.1875 -30.078125 C 29.78125 -30.078125 30.078125 -29.78125 30.078125 -29.1875 L 30.078125 -22.703125 C 30.078125 -22.109375 29.78125 -21.8125 29.1875 -21.8125 L 19.6875 -21.8125 C 19.09375 -21.8125 18.796875 -22.109375 18.796875 -22.703125 L 18.796875 -26.359375 C 18.796875 -26.960938 18.5 -27.265625 17.90625 -27.265625 L 16.875 -27.265625 C 16.28125 -27.265625 15.984375 -26.960938 15.984375 -26.359375 L 15.984375 -0.890625 C 15.984375 -0.296875 15.6875 0 15.09375 0 L 4.1875 0 C 3.59375 0 3.296875 -0.296875 3.296875 -0.890625 Z M 3.296875 -0.890625 "/></g></g></g><g fill="#86ff45" fill-opacity="1"><g transform="translate(397.196022, 202.124984)"><g><path d="M 19.78125 -15 L 15.9375 -15 C 15.34375 -15 15.046875 -14.695312 15.046875 -14.09375 L 15.046875 -3.71875 C 15.046875 -3.113281 15.34375 -2.8125 15.9375 -2.8125 L 16.96875 -2.8125 C 17.5625 -2.8125 17.859375 -3.113281 17.859375 -3.71875 L 17.859375 -4.75 C 17.859375 -5.34375 18.15625 -5.640625 18.75 -5.640625 L 19.78125 -5.640625 C 20.382812 -5.640625 20.6875 -5.9375 20.6875 -6.53125 L 20.6875 -14.09375 C 20.6875 -14.695312 20.382812 -15 19.78125 -15 Z M 5.171875 -0.890625 L 5.171875 -1.921875 C 5.171875 -2.515625 4.875 -2.8125 4.28125 -2.8125 L 3.25 -2.8125 C 2.644531 -2.8125 2.34375 -3.113281 2.34375 -3.71875 L 2.34375 -14.09375 C 2.34375 -14.695312 2.644531 -15 3.25 -15 L 4.28125 -15 C 4.875 -15 5.171875 -15.296875 5.171875 -15.890625 L 5.171875 -16.921875 C 5.171875 -17.515625 5.46875 -17.8125 6.0625 -17.8125 L 16.96875 -17.8125 C 17.5625 -17.8125 17.859375 -18.109375 17.859375 -18.703125 L 17.859375 -19.734375 C 17.859375 -20.335938 18.15625 -20.640625 18.75 -20.640625 L 21.203125 -20.640625 C 21.796875 -20.640625 22.09375 -20.9375 22.09375 -21.53125 L 22.09375 -29.1875 C 22.09375 -29.78125 21.796875 -30.078125 21.203125 -30.078125 L 18.75 -30.078125 C 18.15625 -30.078125 17.859375 -29.78125 17.859375 -29.1875 L 17.859375 -25.328125 C 17.859375 -24.734375 17.5625 -24.4375 16.96875 -24.4375 L 15.9375 -24.4375 C 15.34375 -24.4375 15.046875 -24.140625 15.046875 -23.546875 L 15.046875 -21.109375 C 15.046875 -20.503906 14.742188 -20.203125 14.140625 -20.203125 L 4.65625 -20.203125 C 4.0625 -20.203125 3.765625 -20.503906 3.765625 -21.109375 L 3.765625 -29.1875 C 3.765625 -29.78125 4.0625 -30.078125 4.65625 -30.078125 L 6.390625 -30.078125 C 6.984375 -30.078125 7.28125 -30.375 7.28125 -30.96875 L 7.28125 -32 C 7.28125 -32.601562 7.578125 -32.90625 8.171875 -32.90625 L 29.65625 -32.90625 C 30.25 -32.90625 30.546875 -32.601562 30.546875 -32 L 30.546875 -30.96875 C 30.546875 -30.375 30.84375 -30.078125 31.4375 -30.078125 L 32.484375 -30.078125 C 33.078125 -30.078125 33.375 -29.78125 33.375 -29.1875 L 33.375 -0.890625 C 33.375 -0.296875 33.078125 0 32.484375 0 L 24.390625 0 C 23.796875 0 23.5 -0.296875 23.5 -0.890625 L 23.5 -1.921875 C 23.5 -2.515625 23.203125 -2.8125 22.609375 -2.8125 L 21.578125 -2.8125 C 20.984375 -2.8125 20.6875 -2.515625 20.6875 -1.921875 L 20.6875 -0.890625 C 20.6875 -0.296875 20.382812 0 19.78125 0 L 6.0625 0 C 5.46875 0 5.171875 -0.296875 5.171875 -0.890625 Z M 5.171875 -0.890625 "/></g></g></g><g fill="#86ff45" fill-opacity="1"><g transform="translate(433.849889, 202.124984)"><g><path d="M 7.984375 -0.890625 L 7.984375 -1.921875 C 7.984375 -2.515625 7.6875 -2.8125 7.09375 -2.8125 L 6.0625 -2.8125 C 5.46875 -2.8125 5.171875 -3.113281 5.171875 -3.71875 L 5.171875 -29.234375 C 5.171875 -29.828125 4.875 -30.125 4.28125 -30.125 L 2.765625 -30.125 C 2.171875 -30.125 1.875 -30.421875 1.875 -31.015625 L 1.875 -32 C 1.875 -32.601562 2.171875 -32.90625 2.765625 -32.90625 L 4.28125 -32.90625 C 4.875 -32.90625 5.171875 -33.203125 5.171875 -33.796875 L 5.171875 -40.328125 C 5.171875 -40.921875 5.46875 -41.21875 6.0625 -41.21875 L 16.96875 -41.21875 C 17.5625 -41.21875 17.859375 -40.921875 17.859375 -40.328125 L 17.859375 -33.796875 C 17.859375 -33.203125 18.15625 -32.90625 18.75 -32.90625 L 23.5 -32.90625 C 24.09375 -32.90625 24.390625 -32.601562 24.390625 -32 L 24.390625 -31.015625 C 24.390625 -30.421875 24.09375 -30.125 23.5 -30.125 L 18.75 -30.125 C 18.15625 -30.125 17.859375 -29.828125 17.859375 -29.234375 L 17.859375 -3.71875 C 17.859375 -3.113281 18.15625 -2.8125 18.75 -2.8125 L 19.78125 -2.8125 C 20.382812 -2.8125 20.6875 -3.113281 20.6875 -3.71875 L 20.6875 -8.5 C 20.6875 -9.101562 20.984375 -9.40625 21.578125 -9.40625 L 29.1875 -9.40625 C 29.78125 -9.40625 30.078125 -9.101562 30.078125 -8.5 L 30.078125 -3.71875 C 30.078125 -3.113281 29.78125 -2.8125 29.1875 -2.8125 L 26.75 -2.8125 C 26.144531 -2.8125 25.84375 -2.515625 25.84375 -1.921875 L 25.84375 -0.890625 C 25.84375 -0.296875 25.546875 0 24.953125 0 L 8.890625 0 C 8.285156 0 7.984375 -0.296875 7.984375 -0.890625 Z M 7.984375 -0.890625 "/></g></g></g></svg>