<svg xmlns="http://www.w3.org/2000/svg" xmlns:xlink="http://www.w3.org/1999/xlink" width="672" zoomAndPan="magnify" viewBox="0 0 504 359.999987" height="480" preserveAspectRatio="xMidYMid meet" version="1.0"><defs><g/></defs><g fill="#000000" fill-opacity="0.5608"><g transform="translate(29.096597, 173.970557)"><g><path d="M 7.140625 -0.796875 L 7.140625 -1.71875 C 7.140625 -2.25 6.875 -2.515625 6.34375 -2.515625 L 5.421875 -2.515625 C 4.890625 -2.515625 4.625 -2.78125 4.625 -3.3125 L 4.625 -26.109375 C 4.625 -26.640625 4.359375 -26.90625 3.828125 -26.90625 L 2.484375 -26.90625 C 1.941406 -26.90625 1.671875 -27.171875 1.671875 -27.703125 L 1.671875 -28.59375 C 1.671875 -29.125 1.941406 -29.390625 2.484375 -29.390625 L 3.828125 -29.390625 C 4.359375 -29.390625 4.625 -29.65625 4.625 -30.1875 L 4.625 -36.015625 C 4.625 -36.546875 4.890625 -36.8125 5.421875 -36.8125 L 15.15625 -36.8125 C 15.6875 -36.8125 15.953125 -36.546875 15.953125 -36.015625 L 15.953125 -30.1875 C 15.953125 -29.65625 16.21875 -29.390625 16.75 -29.390625 L 20.984375 -29.390625 C 21.523438 -29.390625 21.796875 -29.125 21.796875 -28.59375 L 21.796875 -27.703125 C 21.796875 -27.171875 21.523438 -26.90625 20.984375 -26.90625 L 16.75 -26.90625 C 16.21875 -26.90625 15.953125 -26.640625 15.953125 -26.109375 L 15.953125 -3.3125 C 15.953125 -2.78125 16.21875 -2.515625 16.75 -2.515625 L 17.671875 -2.515625 C 18.203125 -2.515625 18.46875 -2.78125 18.46875 -3.3125 L 18.46875 -7.59375 C 18.46875 -8.125 18.734375 -8.390625 19.265625 -8.390625 L 26.078125 -8.390625 C 26.609375 -8.390625 26.875 -8.125 26.875 -7.59375 L 26.875 -3.3125 C 26.875 -2.78125 26.609375 -2.515625 26.078125 -2.515625 L 23.890625 -2.515625 C 23.359375 -2.515625 23.09375 -2.25 23.09375 -1.71875 L 23.09375 -0.796875 C 23.09375 -0.265625 22.828125 0 22.296875 0 L 7.9375 0 C 7.40625 0 7.140625 -0.265625 7.140625 -0.796875 Z M 7.140625 -0.796875 "/></g></g></g><g fill="#000000" fill-opacity="0.5608"><g transform="translate(56.381369, 173.970557)"><g><path d="M 7.984375 -0.796875 L 7.984375 -1.71875 C 7.984375 -2.25 7.710938 -2.515625 7.171875 -2.515625 L 6.25 -2.515625 C 5.71875 -2.515625 5.453125 -2.78125 5.453125 -3.3125 L 5.453125 -4.234375 C 5.453125 -4.765625 5.1875 -5.03125 4.65625 -5.03125 L 3.734375 -5.03125 C 3.203125 -5.03125 2.9375 -5.296875 2.9375 -5.828125 L 2.9375 -23.546875 C 2.9375 -24.078125 3.203125 -24.34375 3.734375 -24.34375 L 4.65625 -24.34375 C 5.1875 -24.34375 5.453125 -24.613281 5.453125 -25.15625 L 5.453125 -26.078125 C 5.453125 -26.609375 5.71875 -26.875 6.25 -26.875 L 7.171875 -26.875 C 7.710938 -26.875 7.984375 -27.140625 7.984375 -27.671875 L 7.984375 -28.59375 C 7.984375 -29.125 8.25 -29.390625 8.78125 -29.390625 L 24.8125 -29.390625 C 25.34375 -29.390625 25.609375 -29.125 25.609375 -28.59375 L 25.609375 -27.671875 C 25.609375 -27.140625 25.875 -26.875 26.40625 -26.875 L 27.328125 -26.875 C 27.859375 -26.875 28.125 -26.609375 28.125 -26.078125 L 28.125 -25.15625 C 28.125 -24.613281 28.390625 -24.34375 28.921875 -24.34375 L 29.84375 -24.34375 C 30.382812 -24.34375 30.65625 -24.078125 30.65625 -23.546875 L 30.65625 -5.828125 C 30.65625 -5.296875 30.382812 -5.03125 29.84375 -5.03125 L 28.921875 -5.03125 C 28.390625 -5.03125 28.125 -4.765625 28.125 -4.234375 L 28.125 -3.3125 C 28.125 -2.78125 27.859375 -2.515625 27.328125 -2.515625 L 26.40625 -2.515625 C 25.875 -2.515625 25.609375 -2.25 25.609375 -1.71875 L 25.609375 -0.796875 C 25.609375 -0.265625 25.34375 0 24.8125 0 L 8.78125 0 C 8.25 0 7.984375 -0.265625 7.984375 -0.796875 Z M 17.59375 -5.03125 L 18.515625 -5.03125 C 19.046875 -5.03125 19.3125 -5.296875 19.3125 -5.828125 L 19.3125 -26.078125 C 19.3125 -26.609375 19.046875 -26.875 18.515625 -26.875 L 17.59375 -26.875 C 17.0625 -26.875 16.796875 -26.609375 16.796875 -26.078125 L 16.796875 -25.15625 C 16.796875 -24.613281 16.53125 -24.34375 16 -24.34375 L 15.078125 -24.34375 C 14.546875 -24.34375 14.28125 -24.078125 14.28125 -23.546875 L 14.28125 -3.3125 C 14.28125 -2.78125 14.546875 -2.515625 15.078125 -2.515625 L 16 -2.515625 C 16.53125 -2.515625 16.796875 -2.78125 16.796875 -3.3125 L 16.796875 -4.234375 C 16.796875 -4.765625 17.0625 -5.03125 17.59375 -5.03125 Z M 17.59375 -5.03125 "/></g></g></g><g fill="#000000" fill-opacity="0.5608"><g transform="translate(89.962623, 173.970557)"><g/></g></g><g fill="#000000" fill-opacity="0.5608"><g transform="translate(100.456763, 173.970557)"><g><path d="M 2.9375 -0.796875 L 2.9375 -28.59375 C 2.9375 -29.125 3.203125 -29.390625 3.734375 -29.390625 L 9.703125 -29.390625 C 10.234375 -29.390625 10.5 -29.125 10.5 -28.59375 L 10.5 -25.15625 C 10.5 -24.613281 10.765625 -24.34375 11.296875 -24.34375 L 12.21875 -24.34375 C 12.75 -24.34375 13.015625 -24.613281 13.015625 -25.15625 L 13.015625 -26.078125 C 13.015625 -26.609375 13.28125 -26.875 13.8125 -26.875 L 14.734375 -26.875 C 15.265625 -26.875 15.53125 -27.140625 15.53125 -27.671875 L 15.53125 -28.59375 C 15.53125 -29.125 15.796875 -29.390625 16.328125 -29.390625 L 27.328125 -29.390625 C 27.859375 -29.390625 28.125 -29.125 28.125 -28.59375 L 28.125 -27.671875 C 28.125 -27.140625 28.390625 -26.875 28.921875 -26.875 L 31.109375 -26.875 C 31.640625 -26.875 31.90625 -27.140625 31.90625 -27.671875 L 31.90625 -28.59375 C 31.90625 -29.125 32.171875 -29.390625 32.703125 -29.390625 L 43.703125 -29.390625 C 44.234375 -29.390625 44.5 -29.125 44.5 -28.59375 L 44.5 -27.671875 C 44.5 -27.140625 44.765625 -26.875 45.296875 -26.875 L 46.21875 -26.875 C 46.75 -26.875 47.015625 -26.609375 47.015625 -26.078125 L 47.015625 -0.796875 C 47.015625 -0.265625 46.75 0 46.21875 0 L 36.484375 0 C 35.953125 0 35.6875 -0.265625 35.6875 -0.796875 L 35.6875 -26.078125 C 35.6875 -26.609375 35.421875 -26.875 34.890625 -26.875 L 33.96875 -26.875 C 33.4375 -26.875 33.171875 -26.609375 33.171875 -26.078125 L 33.171875 -25.15625 C 33.171875 -24.613281 32.90625 -24.34375 32.375 -24.34375 L 31.453125 -24.34375 C 30.921875 -24.34375 30.65625 -24.078125 30.65625 -23.546875 L 30.65625 -0.796875 C 30.65625 -0.265625 30.382812 0 29.84375 0 L 20.109375 0 C 19.578125 0 19.3125 -0.265625 19.3125 -0.796875 L 19.3125 -26.078125 C 19.3125 -26.609375 19.046875 -26.875 18.515625 -26.875 L 17.59375 -26.875 C 17.0625 -26.875 16.796875 -26.609375 16.796875 -26.078125 L 16.796875 -25.15625 C 16.796875 -24.613281 16.53125 -24.34375 16 -24.34375 L 15.078125 -24.34375 C 14.546875 -24.34375 14.28125 -24.078125 14.28125 -23.546875 L 14.28125 -0.796875 C 14.28125 -0.265625 14.015625 0 13.484375 0 L 3.734375 0 C 3.203125 0 2.9375 -0.265625 2.9375 -0.796875 Z M 2.9375 -0.796875 "/></g></g></g><g fill="#000000" fill-opacity="0.5608"><g transform="translate(150.408881, 173.970557)"><g><path d="M 7.984375 -0.796875 L 7.984375 -1.71875 C 7.984375 -2.25 7.710938 -2.515625 7.171875 -2.515625 L 6.25 -2.515625 C 5.71875 -2.515625 5.453125 -2.78125 5.453125 -3.3125 L 5.453125 -4.234375 C 5.453125 -4.765625 5.1875 -5.03125 4.65625 -5.03125 L 3.734375 -5.03125 C 3.203125 -5.03125 2.9375 -5.296875 2.9375 -5.828125 L 2.9375 -23.546875 C 2.9375 -24.078125 3.203125 -24.34375 3.734375 -24.34375 L 4.65625 -24.34375 C 5.1875 -24.34375 5.453125 -24.613281 5.453125 -25.15625 L 5.453125 -26.078125 C 5.453125 -26.609375 5.71875 -26.875 6.25 -26.875 L 7.171875 -26.875 C 7.710938 -26.875 7.984375 -27.140625 7.984375 -27.671875 L 7.984375 -28.59375 C 7.984375 -29.125 8.25 -29.390625 8.78125 -29.390625 L 24.8125 -29.390625 C 25.34375 -29.390625 25.609375 -29.125 25.609375 -28.59375 L 25.609375 -27.671875 C 25.609375 -27.140625 25.875 -26.875 26.40625 -26.875 L 27.328125 -26.875 C 27.859375 -26.875 28.125 -26.609375 28.125 -26.078125 L 28.125 -25.15625 C 28.125 -24.613281 28.390625 -24.34375 28.921875 -24.34375 L 29.84375 -24.34375 C 30.382812 -24.34375 30.65625 -24.078125 30.65625 -23.546875 L 30.65625 -16.75 C 30.65625 -16.21875 30.382812 -15.953125 29.84375 -15.953125 L 28.921875 -15.953125 C 28.390625 -15.953125 28.125 -15.6875 28.125 -15.15625 L 28.125 -14.234375 C 28.125 -13.703125 27.859375 -13.4375 27.328125 -13.4375 L 15.078125 -13.4375 C 14.546875 -13.4375 14.28125 -13.171875 14.28125 -12.640625 L 14.28125 -3.3125 C 14.28125 -2.78125 14.546875 -2.515625 15.078125 -2.515625 L 16 -2.515625 C 16.53125 -2.515625 16.796875 -2.78125 16.796875 -3.3125 L 16.796875 -4.234375 C 16.796875 -4.765625 17.0625 -5.03125 17.59375 -5.03125 L 18.515625 -5.03125 C 19.046875 -5.03125 19.3125 -5.296875 19.3125 -5.828125 L 19.3125 -8.734375 C 19.3125 -9.265625 19.578125 -9.53125 20.109375 -9.53125 L 29.84375 -9.53125 C 30.382812 -9.53125 30.65625 -9.265625 30.65625 -8.734375 L 30.65625 -5.828125 C 30.65625 -5.296875 30.382812 -5.03125 29.84375 -5.03125 L 28.921875 -5.03125 C 28.390625 -5.03125 28.125 -4.765625 28.125 -4.234375 L 28.125 -3.3125 C 28.125 -2.78125 27.859375 -2.515625 27.328125 -2.515625 L 26.40625 -2.515625 C 25.875 -2.515625 25.609375 -2.25 25.609375 -1.71875 L 25.609375 -0.796875 C 25.609375 -0.265625 25.34375 0 24.8125 0 L 8.78125 0 C 8.25 0 7.984375 -0.265625 7.984375 -0.796875 Z M 15.078125 -15.953125 L 18.515625 -15.953125 C 19.046875 -15.953125 19.3125 -16.21875 19.3125 -16.75 L 19.3125 -26.078125 C 19.3125 -26.609375 19.046875 -26.875 18.515625 -26.875 L 17.59375 -26.875 C 17.0625 -26.875 16.796875 -26.609375 16.796875 -26.078125 L 16.796875 -25.15625 C 16.796875 -24.613281 16.53125 -24.34375 16 -24.34375 L 15.078125 -24.34375 C 14.546875 -24.34375 14.28125 -24.078125 14.28125 -23.546875 L 14.28125 -16.75 C 14.28125 -16.21875 14.546875 -15.953125 15.078125 -15.953125 Z M 15.078125 -15.953125 "/></g></g></g><g fill="#000000" fill-opacity="0.5608"><g transform="translate(183.150608, 173.970557)"><g><path d="M 4.625 -0.84375 L 4.625 -0.921875 C 4.625 -1.421875 4.367188 -1.671875 3.859375 -1.671875 C 3.242188 -1.671875 2.9375 -1.984375 2.9375 -2.609375 L 2.9375 -8.734375 C 2.9375 -9.347656 3.242188 -9.65625 3.859375 -9.65625 C 4.367188 -9.65625 4.625 -9.90625 4.625 -10.40625 L 4.625 -10.5 C 4.625 -11.050781 4.898438 -11.328125 5.453125 -11.328125 L 11.671875 -11.328125 C 12.285156 -11.328125 12.59375 -11.019531 12.59375 -10.40625 C 12.59375 -9.90625 12.84375 -9.65625 13.34375 -9.65625 L 13.4375 -9.65625 C 14 -9.65625 14.28125 -9.375 14.28125 -8.8125 L 14.28125 5.25 C 14.28125 5.945312 13.925781 6.296875 13.21875 6.296875 L 11.546875 6.296875 C 10.847656 6.296875 10.5 5.945312 10.5 5.25 L 10.5 1.046875 C 10.5 0.347656 10.148438 0 9.453125 0 L 5.453125 0 C 4.898438 0 4.625 -0.28125 4.625 -0.84375 Z M 4.625 -0.84375 "/></g></g></g><g fill="#000000" fill-opacity="0.5608"><g transform="translate(200.360999, 173.970557)"><g/></g></g><g fill="#000000" fill-opacity="0.5608"><g transform="translate(210.855139, 173.970557)"><g><path d="M 2.9375 -0.796875 L 2.9375 -28.59375 C 2.9375 -29.125 3.203125 -29.390625 3.734375 -29.390625 L 9.703125 -29.390625 C 10.234375 -29.390625 10.5 -29.125 10.5 -28.59375 L 10.5 -25.15625 C 10.5 -24.613281 10.765625 -24.34375 11.296875 -24.34375 L 12.21875 -24.34375 C 12.75 -24.34375 13.015625 -24.613281 13.015625 -25.15625 L 13.015625 -26.078125 C 13.015625 -26.609375 13.28125 -26.875 13.8125 -26.875 L 14.734375 -26.875 C 15.265625 -26.875 15.53125 -27.140625 15.53125 -27.671875 L 15.53125 -28.59375 C 15.53125 -29.125 15.796875 -29.390625 16.328125 -29.390625 L 27.328125 -29.390625 C 27.859375 -29.390625 28.125 -29.125 28.125 -28.59375 L 28.125 -27.671875 C 28.125 -27.140625 28.390625 -26.875 28.921875 -26.875 L 31.109375 -26.875 C 31.640625 -26.875 31.90625 -27.140625 31.90625 -27.671875 L 31.90625 -28.59375 C 31.90625 -29.125 32.171875 -29.390625 32.703125 -29.390625 L 43.703125 -29.390625 C 44.234375 -29.390625 44.5 -29.125 44.5 -28.59375 L 44.5 -27.671875 C 44.5 -27.140625 44.765625 -26.875 45.296875 -26.875 L 46.21875 -26.875 C 46.75 -26.875 47.015625 -26.609375 47.015625 -26.078125 L 47.015625 -0.796875 C 47.015625 -0.265625 46.75 0 46.21875 0 L 36.484375 0 C 35.953125 0 35.6875 -0.265625 35.6875 -0.796875 L 35.6875 -26.078125 C 35.6875 -26.609375 35.421875 -26.875 34.890625 -26.875 L 33.96875 -26.875 C 33.4375 -26.875 33.171875 -26.609375 33.171875 -26.078125 L 33.171875 -25.15625 C 33.171875 -24.613281 32.90625 -24.34375 32.375 -24.34375 L 31.453125 -24.34375 C 30.921875 -24.34375 30.65625 -24.078125 30.65625 -23.546875 L 30.65625 -0.796875 C 30.65625 -0.265625 30.382812 0 29.84375 0 L 20.109375 0 C 19.578125 0 19.3125 -0.265625 19.3125 -0.796875 L 19.3125 -26.078125 C 19.3125 -26.609375 19.046875 -26.875 18.515625 -26.875 L 17.59375 -26.875 C 17.0625 -26.875 16.796875 -26.609375 16.796875 -26.078125 L 16.796875 -25.15625 C 16.796875 -24.613281 16.53125 -24.34375 16 -24.34375 L 15.078125 -24.34375 C 14.546875 -24.34375 14.28125 -24.078125 14.28125 -23.546875 L 14.28125 -0.796875 C 14.28125 -0.265625 14.015625 0 13.484375 0 L 3.734375 0 C 3.203125 0 2.9375 -0.265625 2.9375 -0.796875 Z M 2.9375 -0.796875 "/></g></g></g><g fill="#000000" fill-opacity="0.5608"><g transform="translate(260.807256, 173.970557)"><g><path d="M 5.453125 -0.796875 L 5.453125 -1.71875 C 5.453125 -2.25 5.1875 -2.515625 4.65625 -2.515625 L 3.734375 -2.515625 C 3.515625 -2.515625 3.40625 -2.515625 3.40625 -2.515625 C 3.40625 -2.515625 3.515625 -2.515625 3.734375 -2.515625 L 4.65625 -2.515625 C 4.882812 -2.515625 5 -2.515625 5 -2.515625 C 5 -2.515625 4.882812 -2.515625 4.65625 -2.515625 L 3.734375 -2.515625 C 3.203125 -2.515625 2.9375 -2.78125 2.9375 -3.3125 L 2.9375 -28.59375 C 2.9375 -29.125 3.203125 -29.390625 3.734375 -29.390625 L 13.484375 -29.390625 C 14.015625 -29.390625 14.28125 -29.125 14.28125 -28.59375 L 14.28125 -3.3125 C 14.28125 -2.78125 14.546875 -2.515625 15.078125 -2.515625 L 16 -2.515625 C 16.53125 -2.515625 16.796875 -2.78125 16.796875 -3.3125 L 16.796875 -4.234375 C 16.796875 -4.765625 17.0625 -5.03125 17.59375 -5.03125 L 18.515625 -5.03125 C 19.046875 -5.03125 19.3125 -5.296875 19.3125 -5.828125 L 19.3125 -28.59375 C 19.3125 -29.125 19.578125 -29.390625 20.109375 -29.390625 L 29.84375 -29.390625 C 30.382812 -29.390625 30.65625 -29.125 30.65625 -28.59375 L 30.65625 4.65625 C 30.65625 5.1875 30.382812 5.453125 29.84375 5.453125 L 28.921875 5.453125 C 28.390625 5.453125 28.125 5.71875 28.125 6.25 L 28.125 7.171875 C 28.125 7.710938 27.859375 7.984375 27.328125 7.984375 L 26.40625 7.984375 C 25.875 7.984375 25.609375 8.25 25.609375 8.78125 L 25.609375 9.703125 C 25.609375 10.234375 25.34375 10.5 24.8125 10.5 L 6.25 10.5 C 5.71875 10.5 5.453125 10.234375 5.453125 9.703125 L 5.453125 8.78125 C 5.453125 8.25 5.1875 7.984375 4.65625 7.984375 L 3.734375 7.984375 C 3.515625 7.984375 3.40625 7.984375 3.40625 7.984375 C 3.40625 7.984375 3.515625 7.984375 3.734375 7.984375 L 4.65625 7.984375 C 4.882812 7.984375 5 7.984375 5 7.984375 C 5 7.984375 4.882812 7.984375 4.65625 7.984375 L 3.734375 7.984375 C 3.203125 7.984375 2.9375 7.710938 2.9375 7.171875 L 2.9375 3.734375 C 2.9375 3.203125 3.203125 2.9375 3.734375 2.9375 L 13.484375 2.9375 C 14.015625 2.9375 14.28125 3.203125 14.28125 3.734375 L 14.28125 4.40625 C 14.28125 4.9375 14.546875 5.203125 15.078125 5.203125 L 15.578125 5.203125 C 16.109375 5.203125 16.375 5.46875 16.375 6 L 16.375 7.171875 C 16.375 7.710938 16.640625 7.984375 17.171875 7.984375 L 19.78125 7.984375 C 20.3125 7.984375 20.578125 7.710938 20.578125 7.171875 L 20.578125 -1.71875 C 20.578125 -2.25 20.3125 -2.515625 19.78125 -2.515625 L 18.84375 -2.515625 C 18.3125 -2.515625 18.046875 -2.25 18.046875 -1.71875 L 18.046875 -0.796875 C 18.046875 -0.265625 17.78125 0 17.25 0 L 6.25 0 C 5.71875 0 5.453125 -0.265625 5.453125 -0.796875 Z M 5.453125 -0.796875 "/></g></g></g><g fill="#000000" fill-opacity="0.5608"><g transform="translate(294.388522, 173.970557)"><g/></g></g><g fill="#000000" fill-opacity="0.5608"><g transform="translate(304.882662, 173.970557)"><g><path d="M 2.09375 -0.796875 L 2.09375 -7.59375 C 2.09375 -8.125 2.359375 -8.390625 2.890625 -8.390625 L 3.828125 -8.390625 C 4.359375 -8.390625 4.625 -8.65625 4.625 -9.1875 L 4.625 -10.125 C 4.625 -10.65625 4.890625 -10.921875 5.421875 -10.921875 L 6.34375 -10.921875 C 6.875 -10.921875 7.140625 -11.1875 7.140625 -11.71875 L 7.140625 -12.640625 C 7.140625 -13.171875 7.40625 -13.4375 7.9375 -13.4375 L 11.375 -13.4375 C 11.90625 -13.4375 12.171875 -13.703125 12.171875 -14.234375 L 12.171875 -15.15625 C 12.171875 -15.6875 11.90625 -15.953125 11.375 -15.953125 L 7.9375 -15.953125 C 7.40625 -15.953125 7.140625 -16.21875 7.140625 -16.75 L 7.140625 -17.671875 C 7.140625 -18.203125 6.875 -18.46875 6.34375 -18.46875 L 5.421875 -18.46875 C 4.890625 -18.46875 4.625 -18.734375 4.625 -19.265625 L 4.625 -20.1875 C 4.625 -20.71875 4.359375 -20.984375 3.828125 -20.984375 L 2.890625 -20.984375 C 2.359375 -20.984375 2.09375 -21.253906 2.09375 -21.796875 L 2.09375 -28.59375 C 2.09375 -29.125 2.359375 -29.390625 2.890625 -29.390625 L 12.640625 -29.390625 C 13.171875 -29.390625 13.4375 -29.125 13.4375 -28.59375 L 13.4375 -19.265625 C 13.4375 -18.734375 13.703125 -18.46875 14.234375 -18.46875 L 15.15625 -18.46875 C 15.6875 -18.46875 15.953125 -18.203125 15.953125 -17.671875 L 15.953125 -16.75 C 15.953125 -16.21875 16.21875 -15.953125 16.75 -15.953125 L 17.671875 -15.953125 C 18.203125 -15.953125 18.46875 -16.21875 18.46875 -16.75 L 18.46875 -17.671875 C 18.46875 -18.203125 18.734375 -18.46875 19.265625 -18.46875 L 20.1875 -18.46875 C 20.71875 -18.46875 20.984375 -18.734375 20.984375 -19.265625 L 20.984375 -28.59375 C 20.984375 -29.125 21.253906 -29.390625 21.796875 -29.390625 L 31.53125 -29.390625 C 32.0625 -29.390625 32.328125 -29.125 32.328125 -28.59375 L 32.328125 -21.796875 C 32.328125 -21.253906 32.0625 -20.984375 31.53125 -20.984375 L 30.609375 -20.984375 C 30.078125 -20.984375 29.8125 -20.71875 29.8125 -20.1875 L 29.8125 -19.265625 C 29.8125 -18.734375 29.546875 -18.46875 29.015625 -18.46875 L 28.09375 -18.46875 C 27.5625 -18.46875 27.296875 -18.203125 27.296875 -17.671875 L 27.296875 -16.75 C 27.296875 -16.21875 27.023438 -15.953125 26.484375 -15.953125 L 23.046875 -15.953125 C 22.515625 -15.953125 22.25 -15.6875 22.25 -15.15625 L 22.25 -14.234375 C 22.25 -13.703125 22.515625 -13.4375 23.046875 -13.4375 L 26.484375 -13.4375 C 27.023438 -13.4375 27.296875 -13.171875 27.296875 -12.640625 L 27.296875 -11.71875 C 27.296875 -11.1875 27.5625 -10.921875 28.09375 -10.921875 L 29.015625 -10.921875 C 29.546875 -10.921875 29.8125 -10.65625 29.8125 -10.125 L 29.8125 -9.1875 C 29.8125 -8.65625 30.078125 -8.390625 30.609375 -8.390625 L 31.53125 -8.390625 C 32.0625 -8.390625 32.328125 -8.125 32.328125 -7.59375 L 32.328125 -0.796875 C 32.328125 -0.265625 32.0625 0 31.53125 0 L 21.796875 0 C 21.253906 0 20.984375 -0.265625 20.984375 -0.796875 L 20.984375 -10.125 C 20.984375 -10.65625 20.71875 -10.921875 20.1875 -10.921875 L 19.265625 -10.921875 C 18.734375 -10.921875 18.46875 -11.1875 18.46875 -11.71875 L 18.46875 -12.640625 C 18.46875 -13.171875 18.203125 -13.4375 17.671875 -13.4375 L 16.75 -13.4375 C 16.21875 -13.4375 15.953125 -13.171875 15.953125 -12.640625 L 15.953125 -11.71875 C 15.953125 -11.1875 15.6875 -10.921875 15.15625 -10.921875 L 14.234375 -10.921875 C 13.703125 -10.921875 13.4375 -10.65625 13.4375 -10.125 L 13.4375 -0.796875 C 13.4375 -0.265625 13.171875 0 12.640625 0 L 2.890625 0 C 2.359375 0 2.09375 -0.265625 2.09375 -0.796875 Z M 2.09375 -0.796875 "/></g></g></g><g fill="#000000" fill-opacity="0.5608"><g transform="translate(339.303443, 173.970557)"><g><path d="M 3.78125 -16.03125 C 3.25 -16.03125 2.984375 -16.296875 2.984375 -16.828125 L 2.984375 -17.59375 C 2.984375 -18.125 3.25 -18.390625 3.78125 -18.390625 L 19.90625 -18.390625 C 20.4375 -18.390625 20.703125 -18.125 20.703125 -17.59375 L 20.703125 -16.828125 C 20.703125 -16.296875 20.4375 -16.03125 19.90625 -16.03125 Z M 3.78125 -16.03125 "/></g></g></g><g fill="#000000" fill-opacity="0.5608"><g transform="translate(362.978223, 173.970557)"><g><path d="M 2.9375 -0.796875 L 2.9375 -28.59375 C 2.9375 -29.125 3.203125 -29.390625 3.734375 -29.390625 L 9.703125 -29.390625 C 10.234375 -29.390625 10.5 -29.125 10.5 -28.59375 L 10.5 -25.15625 C 10.5 -24.613281 10.765625 -24.34375 11.296875 -24.34375 L 12.21875 -24.34375 C 12.75 -24.34375 13.015625 -24.613281 13.015625 -25.15625 L 13.015625 -26.078125 C 13.015625 -26.609375 13.28125 -26.875 13.8125 -26.875 L 14.734375 -26.875 C 15.265625 -26.875 15.53125 -27.140625 15.53125 -27.671875 L 15.53125 -28.59375 C 15.53125 -29.125 15.796875 -29.390625 16.328125 -29.390625 L 27.328125 -29.390625 C 27.859375 -29.390625 28.125 -29.125 28.125 -28.59375 L 28.125 -27.671875 C 28.125 -27.140625 28.390625 -26.875 28.921875 -26.875 L 31.109375 -26.875 C 31.640625 -26.875 31.90625 -27.140625 31.90625 -27.671875 L 31.90625 -28.59375 C 31.90625 -29.125 32.171875 -29.390625 32.703125 -29.390625 L 43.703125 -29.390625 C 44.234375 -29.390625 44.5 -29.125 44.5 -28.59375 L 44.5 -27.671875 C 44.5 -27.140625 44.765625 -26.875 45.296875 -26.875 L 46.21875 -26.875 C 46.75 -26.875 47.015625 -26.609375 47.015625 -26.078125 L 47.015625 -0.796875 C 47.015625 -0.265625 46.75 0 46.21875 0 L 36.484375 0 C 35.953125 0 35.6875 -0.265625 35.6875 -0.796875 L 35.6875 -26.078125 C 35.6875 -26.609375 35.421875 -26.875 34.890625 -26.875 L 33.96875 -26.875 C 33.4375 -26.875 33.171875 -26.609375 33.171875 -26.078125 L 33.171875 -25.15625 C 33.171875 -24.613281 32.90625 -24.34375 32.375 -24.34375 L 31.453125 -24.34375 C 30.921875 -24.34375 30.65625 -24.078125 30.65625 -23.546875 L 30.65625 -0.796875 C 30.65625 -0.265625 30.382812 0 29.84375 0 L 20.109375 0 C 19.578125 0 19.3125 -0.265625 19.3125 -0.796875 L 19.3125 -26.078125 C 19.3125 -26.609375 19.046875 -26.875 18.515625 -26.875 L 17.59375 -26.875 C 17.0625 -26.875 16.796875 -26.609375 16.796875 -26.078125 L 16.796875 -25.15625 C 16.796875 -24.613281 16.53125 -24.34375 16 -24.34375 L 15.078125 -24.34375 C 14.546875 -24.34375 14.28125 -24.078125 14.28125 -23.546875 L 14.28125 -0.796875 C 14.28125 -0.265625 14.015625 0 13.484375 0 L 3.734375 0 C 3.203125 0 2.9375 -0.265625 2.9375 -0.796875 Z M 2.9375 -0.796875 "/></g></g></g><g fill="#000000" fill-opacity="0.5608"><g transform="translate(412.930352, 173.970557)"><g><path d="M 7.984375 -0.796875 L 7.984375 -1.71875 C 7.984375 -2.25 7.710938 -2.515625 7.171875 -2.515625 L 6.25 -2.515625 C 5.71875 -2.515625 5.453125 -2.78125 5.453125 -3.3125 L 5.453125 -4.234375 C 5.453125 -4.765625 5.1875 -5.03125 4.65625 -5.03125 L 3.734375 -5.03125 C 3.203125 -5.03125 2.9375 -5.296875 2.9375 -5.828125 L 2.9375 -23.546875 C 2.9375 -24.078125 3.203125 -24.34375 3.734375 -24.34375 L 4.65625 -24.34375 C 5.1875 -24.34375 5.453125 -24.613281 5.453125 -25.15625 L 5.453125 -26.078125 C 5.453125 -26.609375 5.71875 -26.875 6.25 -26.875 L 7.171875 -26.875 C 7.710938 -26.875 7.984375 -27.140625 7.984375 -27.671875 L 7.984375 -28.59375 C 7.984375 -29.125 8.25 -29.390625 8.78125 -29.390625 L 24.8125 -29.390625 C 25.34375 -29.390625 25.609375 -29.125 25.609375 -28.59375 L 25.609375 -27.671875 C 25.609375 -27.140625 25.875 -26.875 26.40625 -26.875 L 27.328125 -26.875 C 27.859375 -26.875 28.125 -26.609375 28.125 -26.078125 L 28.125 -25.15625 C 28.125 -24.613281 28.390625 -24.34375 28.921875 -24.34375 L 29.84375 -24.34375 C 30.382812 -24.34375 30.65625 -24.078125 30.65625 -23.546875 L 30.65625 -16.75 C 30.65625 -16.21875 30.382812 -15.953125 29.84375 -15.953125 L 28.921875 -15.953125 C 28.390625 -15.953125 28.125 -15.6875 28.125 -15.15625 L 28.125 -14.234375 C 28.125 -13.703125 27.859375 -13.4375 27.328125 -13.4375 L 15.078125 -13.4375 C 14.546875 -13.4375 14.28125 -13.171875 14.28125 -12.640625 L 14.28125 -3.3125 C 14.28125 -2.78125 14.546875 -2.515625 15.078125 -2.515625 L 16 -2.515625 C 16.53125 -2.515625 16.796875 -2.78125 16.796875 -3.3125 L 16.796875 -4.234375 C 16.796875 -4.765625 17.0625 -5.03125 17.59375 -5.03125 L 18.515625 -5.03125 C 19.046875 -5.03125 19.3125 -5.296875 19.3125 -5.828125 L 19.3125 -8.734375 C 19.3125 -9.265625 19.578125 -9.53125 20.109375 -9.53125 L 29.84375 -9.53125 C 30.382812 -9.53125 30.65625 -9.265625 30.65625 -8.734375 L 30.65625 -5.828125 C 30.65625 -5.296875 30.382812 -5.03125 29.84375 -5.03125 L 28.921875 -5.03125 C 28.390625 -5.03125 28.125 -4.765625 28.125 -4.234375 L 28.125 -3.3125 C 28.125 -2.78125 27.859375 -2.515625 27.328125 -2.515625 L 26.40625 -2.515625 C 25.875 -2.515625 25.609375 -2.25 25.609375 -1.71875 L 25.609375 -0.796875 C 25.609375 -0.265625 25.34375 0 24.8125 0 L 8.78125 0 C 8.25 0 7.984375 -0.265625 7.984375 -0.796875 Z M 15.078125 -15.953125 L 18.515625 -15.953125 C 19.046875 -15.953125 19.3125 -16.21875 19.3125 -16.75 L 19.3125 -26.078125 C 19.3125 -26.609375 19.046875 -26.875 18.515625 -26.875 L 17.59375 -26.875 C 17.0625 -26.875 16.796875 -26.609375 16.796875 -26.078125 L 16.796875 -25.15625 C 16.796875 -24.613281 16.53125 -24.34375 16 -24.34375 L 15.078125 -24.34375 C 14.546875 -24.34375 14.28125 -24.078125 14.28125 -23.546875 L 14.28125 -16.75 C 14.28125 -16.21875 14.546875 -15.953125 15.078125 -15.953125 Z M 15.078125 -15.953125 "/></g></g></g><g fill="#000000" fill-opacity="0.5608"><g transform="translate(445.67208, 173.970557)"><g><path d="M 2.9375 -0.796875 L 2.9375 -28.59375 C 2.9375 -29.125 3.203125 -29.390625 3.734375 -29.390625 L 9.703125 -29.390625 C 10.234375 -29.390625 10.5 -29.125 10.5 -28.59375 L 10.5 -25.15625 C 10.5 -24.613281 10.765625 -24.34375 11.296875 -24.34375 L 12.21875 -24.34375 C 12.75 -24.34375 13.015625 -24.613281 13.015625 -25.15625 L 13.015625 -26.078125 C 13.015625 -26.609375 13.28125 -26.875 13.8125 -26.875 L 14.734375 -26.875 C 15.265625 -26.875 15.53125 -27.140625 15.53125 -27.671875 L 15.53125 -28.59375 C 15.53125 -29.125 15.796875 -29.390625 16.328125 -29.390625 L 27.328125 -29.390625 C 27.859375 -29.390625 28.125 -29.125 28.125 -28.59375 L 28.125 -27.671875 C 28.125 -27.140625 28.390625 -26.875 28.921875 -26.875 L 29.84375 -26.875 C 30.070312 -26.875 30.1875 -26.875 30.1875 -26.875 C 30.1875 -26.875 30.070312 -26.875 29.84375 -26.875 L 28.921875 -26.875 C 28.703125 -26.875 28.59375 -26.875 28.59375 -26.875 C 28.59375 -26.875 28.703125 -26.875 28.921875 -26.875 L 29.84375 -26.875 C 30.382812 -26.875 30.65625 -26.609375 30.65625 -26.078125 L 30.65625 -0.796875 C 30.65625 -0.265625 30.382812 0 29.84375 0 L 20.109375 0 C 19.578125 0 19.3125 -0.265625 19.3125 -0.796875 L 19.3125 -26.078125 C 19.3125 -26.609375 19.046875 -26.875 18.515625 -26.875 L 17.59375 -26.875 C 17.0625 -26.875 16.796875 -26.609375 16.796875 -26.078125 L 16.796875 -25.15625 C 16.796875 -24.613281 16.53125 -24.34375 16 -24.34375 L 15.078125 -24.34375 C 14.546875 -24.34375 14.28125 -24.078125 14.28125 -23.546875 L 14.28125 -0.796875 C 14.28125 -0.265625 14.015625 0 13.484375 0 L 3.734375 0 C 3.203125 0 2.9375 -0.265625 2.9375 -0.796875 Z M 2.9375 -0.796875 "/></g></g></g><g fill="#ffec45" fill-opacity="1"><g transform="translate(26.917976, 172.076706)"><g><path d="M 7.140625 -0.796875 L 7.140625 -1.71875 C 7.140625 -2.25 6.875 -2.515625 6.34375 -2.515625 L 5.421875 -2.515625 C 4.890625 -2.515625 4.625 -2.78125 4.625 -3.3125 L 4.625 -26.109375 C 4.625 -26.640625 4.359375 -26.90625 3.828125 -26.90625 L 2.484375 -26.90625 C 1.941406 -26.90625 1.671875 -27.171875 1.671875 -27.703125 L 1.671875 -28.59375 C 1.671875 -29.125 1.941406 -29.390625 2.484375 -29.390625 L 3.828125 -29.390625 C 4.359375 -29.390625 4.625 -29.65625 4.625 -30.1875 L 4.625 -36.015625 C 4.625 -36.546875 4.890625 -36.8125 5.421875 -36.8125 L 15.15625 -36.8125 C 15.6875 -36.8125 15.953125 -36.546875 15.953125 -36.015625 L 15.953125 -30.1875 C 15.953125 -29.65625 16.21875 -29.390625 16.75 -29.390625 L 20.984375 -29.390625 C 21.523438 -29.390625 21.796875 -29.125 21.796875 -28.59375 L 21.796875 -27.703125 C 21.796875 -27.171875 21.523438 -26.90625 20.984375 -26.90625 L 16.75 -26.90625 C 16.21875 -26.90625 15.953125 -26.640625 15.953125 -26.109375 L 15.953125 -3.3125 C 15.953125 -2.78125 16.21875 -2.515625 16.75 -2.515625 L 17.671875 -2.515625 C 18.203125 -2.515625 18.46875 -2.78125 18.46875 -3.3125 L 18.46875 -7.59375 C 18.46875 -8.125 18.734375 -8.390625 19.265625 -8.390625 L 26.078125 -8.390625 C 26.609375 -8.390625 26.875 -8.125 26.875 -7.59375 L 26.875 -3.3125 C 26.875 -2.78125 26.609375 -2.515625 26.078125 -2.515625 L 23.890625 -2.515625 C 23.359375 -2.515625 23.09375 -2.25 23.09375 -1.71875 L 23.09375 -0.796875 C 23.09375 -0.265625 22.828125 0 22.296875 0 L 7.9375 0 C 7.40625 0 7.140625 -0.265625 7.140625 -0.796875 Z M 7.140625 -0.796875 "/></g></g></g><g fill="#ffec45" fill-opacity="1"><g transform="translate(54.202749, 172.076706)"><g><path d="M 7.984375 -0.796875 L 7.984375 -1.71875 C 7.984375 -2.25 7.710938 -2.515625 7.171875 -2.515625 L 6.25 -2.515625 C 5.71875 -2.515625 5.453125 -2.78125 5.453125 -3.3125 L 5.453125 -4.234375 C 5.453125 -4.765625 5.1875 -5.03125 4.65625 -5.03125 L 3.734375 -5.03125 C 3.203125 -5.03125 2.9375 -5.296875 2.9375 -5.828125 L 2.9375 -23.546875 C 2.9375 -24.078125 3.203125 -24.34375 3.734375 -24.34375 L 4.65625 -24.34375 C 5.1875 -24.34375 5.453125 -24.613281 5.453125 -25.15625 L 5.453125 -26.078125 C 5.453125 -26.609375 5.71875 -26.875 6.25 -26.875 L 7.171875 -26.875 C 7.710938 -26.875 7.984375 -27.140625 7.984375 -27.671875 L 7.984375 -28.59375 C 7.984375 -29.125 8.25 -29.390625 8.78125 -29.390625 L 24.8125 -29.390625 C 25.34375 -29.390625 25.609375 -29.125 25.609375 -28.59375 L 25.609375 -27.671875 C 25.609375 -27.140625 25.875 -26.875 26.40625 -26.875 L 27.328125 -26.875 C 27.859375 -26.875 28.125 -26.609375 28.125 -26.078125 L 28.125 -25.15625 C 28.125 -24.613281 28.390625 -24.34375 28.921875 -24.34375 L 29.84375 -24.34375 C 30.382812 -24.34375 30.65625 -24.078125 30.65625 -23.546875 L 30.65625 -5.828125 C 30.65625 -5.296875 30.382812 -5.03125 29.84375 -5.03125 L 28.921875 -5.03125 C 28.390625 -5.03125 28.125 -4.765625 28.125 -4.234375 L 28.125 -3.3125 C 28.125 -2.78125 27.859375 -2.515625 27.328125 -2.515625 L 26.40625 -2.515625 C 25.875 -2.515625 25.609375 -2.25 25.609375 -1.71875 L 25.609375 -0.796875 C 25.609375 -0.265625 25.34375 0 24.8125 0 L 8.78125 0 C 8.25 0 7.984375 -0.265625 7.984375 -0.796875 Z M 17.59375 -5.03125 L 18.515625 -5.03125 C 19.046875 -5.03125 19.3125 -5.296875 19.3125 -5.828125 L 19.3125 -26.078125 C 19.3125 -26.609375 19.046875 -26.875 18.515625 -26.875 L 17.59375 -26.875 C 17.0625 -26.875 16.796875 -26.609375 16.796875 -26.078125 L 16.796875 -25.15625 C 16.796875 -24.613281 16.53125 -24.34375 16 -24.34375 L 15.078125 -24.34375 C 14.546875 -24.34375 14.28125 -24.078125 14.28125 -23.546875 L 14.28125 -3.3125 C 14.28125 -2.78125 14.546875 -2.515625 15.078125 -2.515625 L 16 -2.515625 C 16.53125 -2.515625 16.796875 -2.78125 16.796875 -3.3125 L 16.796875 -4.234375 C 16.796875 -4.765625 17.0625 -5.03125 17.59375 -5.03125 Z M 17.59375 -5.03125 "/></g></g></g><g fill="#ffec45" fill-opacity="1"><g transform="translate(87.784003, 172.076706)"><g/></g></g><g fill="#ffec45" fill-opacity="1"><g transform="translate(98.278143, 172.076706)"><g><path d="M 2.9375 -0.796875 L 2.9375 -28.59375 C 2.9375 -29.125 3.203125 -29.390625 3.734375 -29.390625 L 9.703125 -29.390625 C 10.234375 -29.390625 10.5 -29.125 10.5 -28.59375 L 10.5 -25.15625 C 10.5 -24.613281 10.765625 -24.34375 11.296875 -24.34375 L 12.21875 -24.34375 C 12.75 -24.34375 13.015625 -24.613281 13.015625 -25.15625 L 13.015625 -26.078125 C 13.015625 -26.609375 13.28125 -26.875 13.8125 -26.875 L 14.734375 -26.875 C 15.265625 -26.875 15.53125 -27.140625 15.53125 -27.671875 L 15.53125 -28.59375 C 15.53125 -29.125 15.796875 -29.390625 16.328125 -29.390625 L 27.328125 -29.390625 C 27.859375 -29.390625 28.125 -29.125 28.125 -28.59375 L 28.125 -27.671875 C 28.125 -27.140625 28.390625 -26.875 28.921875 -26.875 L 31.109375 -26.875 C 31.640625 -26.875 31.90625 -27.140625 31.90625 -27.671875 L 31.90625 -28.59375 C 31.90625 -29.125 32.171875 -29.390625 32.703125 -29.390625 L 43.703125 -29.390625 C 44.234375 -29.390625 44.5 -29.125 44.5 -28.59375 L 44.5 -27.671875 C 44.5 -27.140625 44.765625 -26.875 45.296875 -26.875 L 46.21875 -26.875 C 46.75 -26.875 47.015625 -26.609375 47.015625 -26.078125 L 47.015625 -0.796875 C 47.015625 -0.265625 46.75 0 46.21875 0 L 36.484375 0 C 35.953125 0 35.6875 -0.265625 35.6875 -0.796875 L 35.6875 -26.078125 C 35.6875 -26.609375 35.421875 -26.875 34.890625 -26.875 L 33.96875 -26.875 C 33.4375 -26.875 33.171875 -26.609375 33.171875 -26.078125 L 33.171875 -25.15625 C 33.171875 -24.613281 32.90625 -24.34375 32.375 -24.34375 L 31.453125 -24.34375 C 30.921875 -24.34375 30.65625 -24.078125 30.65625 -23.546875 L 30.65625 -0.796875 C 30.65625 -0.265625 30.382812 0 29.84375 0 L 20.109375 0 C 19.578125 0 19.3125 -0.265625 19.3125 -0.796875 L 19.3125 -26.078125 C 19.3125 -26.609375 19.046875 -26.875 18.515625 -26.875 L 17.59375 -26.875 C 17.0625 -26.875 16.796875 -26.609375 16.796875 -26.078125 L 16.796875 -25.15625 C 16.796875 -24.613281 16.53125 -24.34375 16 -24.34375 L 15.078125 -24.34375 C 14.546875 -24.34375 14.28125 -24.078125 14.28125 -23.546875 L 14.28125 -0.796875 C 14.28125 -0.265625 14.015625 0 13.484375 0 L 3.734375 0 C 3.203125 0 2.9375 -0.265625 2.9375 -0.796875 Z M 2.9375 -0.796875 "/></g></g></g><g fill="#ffec45" fill-opacity="1"><g transform="translate(148.230261, 172.076706)"><g><path d="M 7.984375 -0.796875 L 7.984375 -1.71875 C 7.984375 -2.25 7.710938 -2.515625 7.171875 -2.515625 L 6.25 -2.515625 C 5.71875 -2.515625 5.453125 -2.78125 5.453125 -3.3125 L 5.453125 -4.234375 C 5.453125 -4.765625 5.1875 -5.03125 4.65625 -5.03125 L 3.734375 -5.03125 C 3.203125 -5.03125 2.9375 -5.296875 2.9375 -5.828125 L 2.9375 -23.546875 C 2.9375 -24.078125 3.203125 -24.34375 3.734375 -24.34375 L 4.65625 -24.34375 C 5.1875 -24.34375 5.453125 -24.613281 5.453125 -25.15625 L 5.453125 -26.078125 C 5.453125 -26.609375 5.71875 -26.875 6.25 -26.875 L 7.171875 -26.875 C 7.710938 -26.875 7.984375 -27.140625 7.984375 -27.671875 L 7.984375 -28.59375 C 7.984375 -29.125 8.25 -29.390625 8.78125 -29.390625 L 24.8125 -29.390625 C 25.34375 -29.390625 25.609375 -29.125 25.609375 -28.59375 L 25.609375 -27.671875 C 25.609375 -27.140625 25.875 -26.875 26.40625 -26.875 L 27.328125 -26.875 C 27.859375 -26.875 28.125 -26.609375 28.125 -26.078125 L 28.125 -25.15625 C 28.125 -24.613281 28.390625 -24.34375 28.921875 -24.34375 L 29.84375 -24.34375 C 30.382812 -24.34375 30.65625 -24.078125 30.65625 -23.546875 L 30.65625 -16.75 C 30.65625 -16.21875 30.382812 -15.953125 29.84375 -15.953125 L 28.921875 -15.953125 C 28.390625 -15.953125 28.125 -15.6875 28.125 -15.15625 L 28.125 -14.234375 C 28.125 -13.703125 27.859375 -13.4375 27.328125 -13.4375 L 15.078125 -13.4375 C 14.546875 -13.4375 14.28125 -13.171875 14.28125 -12.640625 L 14.28125 -3.3125 C 14.28125 -2.78125 14.546875 -2.515625 15.078125 -2.515625 L 16 -2.515625 C 16.53125 -2.515625 16.796875 -2.78125 16.796875 -3.3125 L 16.796875 -4.234375 C 16.796875 -4.765625 17.0625 -5.03125 17.59375 -5.03125 L 18.515625 -5.03125 C 19.046875 -5.03125 19.3125 -5.296875 19.3125 -5.828125 L 19.3125 -8.734375 C 19.3125 -9.265625 19.578125 -9.53125 20.109375 -9.53125 L 29.84375 -9.53125 C 30.382812 -9.53125 30.65625 -9.265625 30.65625 -8.734375 L 30.65625 -5.828125 C 30.65625 -5.296875 30.382812 -5.03125 29.84375 -5.03125 L 28.921875 -5.03125 C 28.390625 -5.03125 28.125 -4.765625 28.125 -4.234375 L 28.125 -3.3125 C 28.125 -2.78125 27.859375 -2.515625 27.328125 -2.515625 L 26.40625 -2.515625 C 25.875 -2.515625 25.609375 -2.25 25.609375 -1.71875 L 25.609375 -0.796875 C 25.609375 -0.265625 25.34375 0 24.8125 0 L 8.78125 0 C 8.25 0 7.984375 -0.265625 7.984375 -0.796875 Z M 15.078125 -15.953125 L 18.515625 -15.953125 C 19.046875 -15.953125 19.3125 -16.21875 19.3125 -16.75 L 19.3125 -26.078125 C 19.3125 -26.609375 19.046875 -26.875 18.515625 -26.875 L 17.59375 -26.875 C 17.0625 -26.875 16.796875 -26.609375 16.796875 -26.078125 L 16.796875 -25.15625 C 16.796875 -24.613281 16.53125 -24.34375 16 -24.34375 L 15.078125 -24.34375 C 14.546875 -24.34375 14.28125 -24.078125 14.28125 -23.546875 L 14.28125 -16.75 C 14.28125 -16.21875 14.546875 -15.953125 15.078125 -15.953125 Z M 15.078125 -15.953125 "/></g></g></g><g fill="#ffec45" fill-opacity="1"><g transform="translate(180.971988, 172.076706)"><g><path d="M 4.625 -0.84375 L 4.625 -0.921875 C 4.625 -1.421875 4.367188 -1.671875 3.859375 -1.671875 C 3.242188 -1.671875 2.9375 -1.984375 2.9375 -2.609375 L 2.9375 -8.734375 C 2.9375 -9.347656 3.242188 -9.65625 3.859375 -9.65625 C 4.367188 -9.65625 4.625 -9.90625 4.625 -10.40625 L 4.625 -10.5 C 4.625 -11.050781 4.898438 -11.328125 5.453125 -11.328125 L 11.671875 -11.328125 C 12.285156 -11.328125 12.59375 -11.019531 12.59375 -10.40625 C 12.59375 -9.90625 12.84375 -9.65625 13.34375 -9.65625 L 13.4375 -9.65625 C 14 -9.65625 14.28125 -9.375 14.28125 -8.8125 L 14.28125 5.25 C 14.28125 5.945312 13.925781 6.296875 13.21875 6.296875 L 11.546875 6.296875 C 10.847656 6.296875 10.5 5.945312 10.5 5.25 L 10.5 1.046875 C 10.5 0.347656 10.148438 0 9.453125 0 L 5.453125 0 C 4.898438 0 4.625 -0.28125 4.625 -0.84375 Z M 4.625 -0.84375 "/></g></g></g><g fill="#ffec45" fill-opacity="1"><g transform="translate(198.182378, 172.076706)"><g/></g></g><g fill="#ffec45" fill-opacity="1"><g transform="translate(208.676518, 172.076706)"><g><path d="M 2.9375 -0.796875 L 2.9375 -28.59375 C 2.9375 -29.125 3.203125 -29.390625 3.734375 -29.390625 L 9.703125 -29.390625 C 10.234375 -29.390625 10.5 -29.125 10.5 -28.59375 L 10.5 -25.15625 C 10.5 -24.613281 10.765625 -24.34375 11.296875 -24.34375 L 12.21875 -24.34375 C 12.75 -24.34375 13.015625 -24.613281 13.015625 -25.15625 L 13.015625 -26.078125 C 13.015625 -26.609375 13.28125 -26.875 13.8125 -26.875 L 14.734375 -26.875 C 15.265625 -26.875 15.53125 -27.140625 15.53125 -27.671875 L 15.53125 -28.59375 C 15.53125 -29.125 15.796875 -29.390625 16.328125 -29.390625 L 27.328125 -29.390625 C 27.859375 -29.390625 28.125 -29.125 28.125 -28.59375 L 28.125 -27.671875 C 28.125 -27.140625 28.390625 -26.875 28.921875 -26.875 L 31.109375 -26.875 C 31.640625 -26.875 31.90625 -27.140625 31.90625 -27.671875 L 31.90625 -28.59375 C 31.90625 -29.125 32.171875 -29.390625 32.703125 -29.390625 L 43.703125 -29.390625 C 44.234375 -29.390625 44.5 -29.125 44.5 -28.59375 L 44.5 -27.671875 C 44.5 -27.140625 44.765625 -26.875 45.296875 -26.875 L 46.21875 -26.875 C 46.75 -26.875 47.015625 -26.609375 47.015625 -26.078125 L 47.015625 -0.796875 C 47.015625 -0.265625 46.75 0 46.21875 0 L 36.484375 0 C 35.953125 0 35.6875 -0.265625 35.6875 -0.796875 L 35.6875 -26.078125 C 35.6875 -26.609375 35.421875 -26.875 34.890625 -26.875 L 33.96875 -26.875 C 33.4375 -26.875 33.171875 -26.609375 33.171875 -26.078125 L 33.171875 -25.15625 C 33.171875 -24.613281 32.90625 -24.34375 32.375 -24.34375 L 31.453125 -24.34375 C 30.921875 -24.34375 30.65625 -24.078125 30.65625 -23.546875 L 30.65625 -0.796875 C 30.65625 -0.265625 30.382812 0 29.84375 0 L 20.109375 0 C 19.578125 0 19.3125 -0.265625 19.3125 -0.796875 L 19.3125 -26.078125 C 19.3125 -26.609375 19.046875 -26.875 18.515625 -26.875 L 17.59375 -26.875 C 17.0625 -26.875 16.796875 -26.609375 16.796875 -26.078125 L 16.796875 -25.15625 C 16.796875 -24.613281 16.53125 -24.34375 16 -24.34375 L 15.078125 -24.34375 C 14.546875 -24.34375 14.28125 -24.078125 14.28125 -23.546875 L 14.28125 -0.796875 C 14.28125 -0.265625 14.015625 0 13.484375 0 L 3.734375 0 C 3.203125 0 2.9375 -0.265625 2.9375 -0.796875 Z M 2.9375 -0.796875 "/></g></g></g><g fill="#ffec45" fill-opacity="1"><g transform="translate(258.628636, 172.076706)"><g><path d="M 5.453125 -0.796875 L 5.453125 -1.71875 C 5.453125 -2.25 5.1875 -2.515625 4.65625 -2.515625 L 3.734375 -2.515625 C 3.515625 -2.515625 3.40625 -2.515625 3.40625 -2.515625 C 3.40625 -2.515625 3.515625 -2.515625 3.734375 -2.515625 L 4.65625 -2.515625 C 4.882812 -2.515625 5 -2.515625 5 -2.515625 C 5 -2.515625 4.882812 -2.515625 4.65625 -2.515625 L 3.734375 -2.515625 C 3.203125 -2.515625 2.9375 -2.78125 2.9375 -3.3125 L 2.9375 -28.59375 C 2.9375 -29.125 3.203125 -29.390625 3.734375 -29.390625 L 13.484375 -29.390625 C 14.015625 -29.390625 14.28125 -29.125 14.28125 -28.59375 L 14.28125 -3.3125 C 14.28125 -2.78125 14.546875 -2.515625 15.078125 -2.515625 L 16 -2.515625 C 16.53125 -2.515625 16.796875 -2.78125 16.796875 -3.3125 L 16.796875 -4.234375 C 16.796875 -4.765625 17.0625 -5.03125 17.59375 -5.03125 L 18.515625 -5.03125 C 19.046875 -5.03125 19.3125 -5.296875 19.3125 -5.828125 L 19.3125 -28.59375 C 19.3125 -29.125 19.578125 -29.390625 20.109375 -29.390625 L 29.84375 -29.390625 C 30.382812 -29.390625 30.65625 -29.125 30.65625 -28.59375 L 30.65625 4.65625 C 30.65625 5.1875 30.382812 5.453125 29.84375 5.453125 L 28.921875 5.453125 C 28.390625 5.453125 28.125 5.71875 28.125 6.25 L 28.125 7.171875 C 28.125 7.710938 27.859375 7.984375 27.328125 7.984375 L 26.40625 7.984375 C 25.875 7.984375 25.609375 8.25 25.609375 8.78125 L 25.609375 9.703125 C 25.609375 10.234375 25.34375 10.5 24.8125 10.5 L 6.25 10.5 C 5.71875 10.5 5.453125 10.234375 5.453125 9.703125 L 5.453125 8.78125 C 5.453125 8.25 5.1875 7.984375 4.65625 7.984375 L 3.734375 7.984375 C 3.515625 7.984375 3.40625 7.984375 3.40625 7.984375 C 3.40625 7.984375 3.515625 7.984375 3.734375 7.984375 L 4.65625 7.984375 C 4.882812 7.984375 5 7.984375 5 7.984375 C 5 7.984375 4.882812 7.984375 4.65625 7.984375 L 3.734375 7.984375 C 3.203125 7.984375 2.9375 7.710938 2.9375 7.171875 L 2.9375 3.734375 C 2.9375 3.203125 3.203125 2.9375 3.734375 2.9375 L 13.484375 2.9375 C 14.015625 2.9375 14.28125 3.203125 14.28125 3.734375 L 14.28125 4.40625 C 14.28125 4.9375 14.546875 5.203125 15.078125 5.203125 L 15.578125 5.203125 C 16.109375 5.203125 16.375 5.46875 16.375 6 L 16.375 7.171875 C 16.375 7.710938 16.640625 7.984375 17.171875 7.984375 L 19.78125 7.984375 C 20.3125 7.984375 20.578125 7.710938 20.578125 7.171875 L 20.578125 -1.71875 C 20.578125 -2.25 20.3125 -2.515625 19.78125 -2.515625 L 18.84375 -2.515625 C 18.3125 -2.515625 18.046875 -2.25 18.046875 -1.71875 L 18.046875 -0.796875 C 18.046875 -0.265625 17.78125 0 17.25 0 L 6.25 0 C 5.71875 0 5.453125 -0.265625 5.453125 -0.796875 Z M 5.453125 -0.796875 "/></g></g></g><g fill="#ffec45" fill-opacity="1"><g transform="translate(292.209901, 172.076706)"><g/></g></g><g fill="#ffec45" fill-opacity="1"><g transform="translate(302.704041, 172.076706)"><g><path d="M 2.09375 -0.796875 L 2.09375 -7.59375 C 2.09375 -8.125 2.359375 -8.390625 2.890625 -8.390625 L 3.828125 -8.390625 C 4.359375 -8.390625 4.625 -8.65625 4.625 -9.1875 L 4.625 -10.125 C 4.625 -10.65625 4.890625 -10.921875 5.421875 -10.921875 L 6.34375 -10.921875 C 6.875 -10.921875 7.140625 -11.1875 7.140625 -11.71875 L 7.140625 -12.640625 C 7.140625 -13.171875 7.40625 -13.4375 7.9375 -13.4375 L 11.375 -13.4375 C 11.90625 -13.4375 12.171875 -13.703125 12.171875 -14.234375 L 12.171875 -15.15625 C 12.171875 -15.6875 11.90625 -15.953125 11.375 -15.953125 L 7.9375 -15.953125 C 7.40625 -15.953125 7.140625 -16.21875 7.140625 -16.75 L 7.140625 -17.671875 C 7.140625 -18.203125 6.875 -18.46875 6.34375 -18.46875 L 5.421875 -18.46875 C 4.890625 -18.46875 4.625 -18.734375 4.625 -19.265625 L 4.625 -20.1875 C 4.625 -20.71875 4.359375 -20.984375 3.828125 -20.984375 L 2.890625 -20.984375 C 2.359375 -20.984375 2.09375 -21.253906 2.09375 -21.796875 L 2.09375 -28.59375 C 2.09375 -29.125 2.359375 -29.390625 2.890625 -29.390625 L 12.640625 -29.390625 C 13.171875 -29.390625 13.4375 -29.125 13.4375 -28.59375 L 13.4375 -19.265625 C 13.4375 -18.734375 13.703125 -18.46875 14.234375 -18.46875 L 15.15625 -18.46875 C 15.6875 -18.46875 15.953125 -18.203125 15.953125 -17.671875 L 15.953125 -16.75 C 15.953125 -16.21875 16.21875 -15.953125 16.75 -15.953125 L 17.671875 -15.953125 C 18.203125 -15.953125 18.46875 -16.21875 18.46875 -16.75 L 18.46875 -17.671875 C 18.46875 -18.203125 18.734375 -18.46875 19.265625 -18.46875 L 20.1875 -18.46875 C 20.71875 -18.46875 20.984375 -18.734375 20.984375 -19.265625 L 20.984375 -28.59375 C 20.984375 -29.125 21.253906 -29.390625 21.796875 -29.390625 L 31.53125 -29.390625 C 32.0625 -29.390625 32.328125 -29.125 32.328125 -28.59375 L 32.328125 -21.796875 C 32.328125 -21.253906 32.0625 -20.984375 31.53125 -20.984375 L 30.609375 -20.984375 C 30.078125 -20.984375 29.8125 -20.71875 29.8125 -20.1875 L 29.8125 -19.265625 C 29.8125 -18.734375 29.546875 -18.46875 29.015625 -18.46875 L 28.09375 -18.46875 C 27.5625 -18.46875 27.296875 -18.203125 27.296875 -17.671875 L 27.296875 -16.75 C 27.296875 -16.21875 27.023438 -15.953125 26.484375 -15.953125 L 23.046875 -15.953125 C 22.515625 -15.953125 22.25 -15.6875 22.25 -15.15625 L 22.25 -14.234375 C 22.25 -13.703125 22.515625 -13.4375 23.046875 -13.4375 L 26.484375 -13.4375 C 27.023438 -13.4375 27.296875 -13.171875 27.296875 -12.640625 L 27.296875 -11.71875 C 27.296875 -11.1875 27.5625 -10.921875 28.09375 -10.921875 L 29.015625 -10.921875 C 29.546875 -10.921875 29.8125 -10.65625 29.8125 -10.125 L 29.8125 -9.1875 C 29.8125 -8.65625 30.078125 -8.390625 30.609375 -8.390625 L 31.53125 -8.390625 C 32.0625 -8.390625 32.328125 -8.125 32.328125 -7.59375 L 32.328125 -0.796875 C 32.328125 -0.265625 32.0625 0 31.53125 0 L 21.796875 0 C 21.253906 0 20.984375 -0.265625 20.984375 -0.796875 L 20.984375 -10.125 C 20.984375 -10.65625 20.71875 -10.921875 20.1875 -10.921875 L 19.265625 -10.921875 C 18.734375 -10.921875 18.46875 -11.1875 18.46875 -11.71875 L 18.46875 -12.640625 C 18.46875 -13.171875 18.203125 -13.4375 17.671875 -13.4375 L 16.75 -13.4375 C 16.21875 -13.4375 15.953125 -13.171875 15.953125 -12.640625 L 15.953125 -11.71875 C 15.953125 -11.1875 15.6875 -10.921875 15.15625 -10.921875 L 14.234375 -10.921875 C 13.703125 -10.921875 13.4375 -10.65625 13.4375 -10.125 L 13.4375 -0.796875 C 13.4375 -0.265625 13.171875 0 12.640625 0 L 2.890625 0 C 2.359375 0 2.09375 -0.265625 2.09375 -0.796875 Z M 2.09375 -0.796875 "/></g></g></g><g fill="#ffec45" fill-opacity="1"><g transform="translate(337.124823, 172.076706)"><g><path d="M 3.78125 -16.03125 C 3.25 -16.03125 2.984375 -16.296875 2.984375 -16.828125 L 2.984375 -17.59375 C 2.984375 -18.125 3.25 -18.390625 3.78125 -18.390625 L 19.90625 -18.390625 C 20.4375 -18.390625 20.703125 -18.125 20.703125 -17.59375 L 20.703125 -16.828125 C 20.703125 -16.296875 20.4375 -16.03125 19.90625 -16.03125 Z M 3.78125 -16.03125 "/></g></g></g><g fill="#ffec45" fill-opacity="1"><g transform="translate(360.799603, 172.076706)"><g><path d="M 2.9375 -0.796875 L 2.9375 -28.59375 C 2.9375 -29.125 3.203125 -29.390625 3.734375 -29.390625 L 9.703125 -29.390625 C 10.234375 -29.390625 10.5 -29.125 10.5 -28.59375 L 10.5 -25.15625 C 10.5 -24.613281 10.765625 -24.34375 11.296875 -24.34375 L 12.21875 -24.34375 C 12.75 -24.34375 13.015625 -24.613281 13.015625 -25.15625 L 13.015625 -26.078125 C 13.015625 -26.609375 13.28125 -26.875 13.8125 -26.875 L 14.734375 -26.875 C 15.265625 -26.875 15.53125 -27.140625 15.53125 -27.671875 L 15.53125 -28.59375 C 15.53125 -29.125 15.796875 -29.390625 16.328125 -29.390625 L 27.328125 -29.390625 C 27.859375 -29.390625 28.125 -29.125 28.125 -28.59375 L 28.125 -27.671875 C 28.125 -27.140625 28.390625 -26.875 28.921875 -26.875 L 31.109375 -26.875 C 31.640625 -26.875 31.90625 -27.140625 31.90625 -27.671875 L 31.90625 -28.59375 C 31.90625 -29.125 32.171875 -29.390625 32.703125 -29.390625 L 43.703125 -29.390625 C 44.234375 -29.390625 44.5 -29.125 44.5 -28.59375 L 44.5 -27.671875 C 44.5 -27.140625 44.765625 -26.875 45.296875 -26.875 L 46.21875 -26.875 C 46.75 -26.875 47.015625 -26.609375 47.015625 -26.078125 L 47.015625 -0.796875 C 47.015625 -0.265625 46.75 0 46.21875 0 L 36.484375 0 C 35.953125 0 35.6875 -0.265625 35.6875 -0.796875 L 35.6875 -26.078125 C 35.6875 -26.609375 35.421875 -26.875 34.890625 -26.875 L 33.96875 -26.875 C 33.4375 -26.875 33.171875 -26.609375 33.171875 -26.078125 L 33.171875 -25.15625 C 33.171875 -24.613281 32.90625 -24.34375 32.375 -24.34375 L 31.453125 -24.34375 C 30.921875 -24.34375 30.65625 -24.078125 30.65625 -23.546875 L 30.65625 -0.796875 C 30.65625 -0.265625 30.382812 0 29.84375 0 L 20.109375 0 C 19.578125 0 19.3125 -0.265625 19.3125 -0.796875 L 19.3125 -26.078125 C 19.3125 -26.609375 19.046875 -26.875 18.515625 -26.875 L 17.59375 -26.875 C 17.0625 -26.875 16.796875 -26.609375 16.796875 -26.078125 L 16.796875 -25.15625 C 16.796875 -24.613281 16.53125 -24.34375 16 -24.34375 L 15.078125 -24.34375 C 14.546875 -24.34375 14.28125 -24.078125 14.28125 -23.546875 L 14.28125 -0.796875 C 14.28125 -0.265625 14.015625 0 13.484375 0 L 3.734375 0 C 3.203125 0 2.9375 -0.265625 2.9375 -0.796875 Z M 2.9375 -0.796875 "/></g></g></g><g fill="#ffec45" fill-opacity="1"><g transform="translate(410.751732, 172.076706)"><g><path d="M 7.984375 -0.796875 L 7.984375 -1.71875 C 7.984375 -2.25 7.710938 -2.515625 7.171875 -2.515625 L 6.25 -2.515625 C 5.71875 -2.515625 5.453125 -2.78125 5.453125 -3.3125 L 5.453125 -4.234375 C 5.453125 -4.765625 5.1875 -5.03125 4.65625 -5.03125 L 3.734375 -5.03125 C 3.203125 -5.03125 2.9375 -5.296875 2.9375 -5.828125 L 2.9375 -23.546875 C 2.9375 -24.078125 3.203125 -24.34375 3.734375 -24.34375 L 4.65625 -24.34375 C 5.1875 -24.34375 5.453125 -24.613281 5.453125 -25.15625 L 5.453125 -26.078125 C 5.453125 -26.609375 5.71875 -26.875 6.25 -26.875 L 7.171875 -26.875 C 7.710938 -26.875 7.984375 -27.140625 7.984375 -27.671875 L 7.984375 -28.59375 C 7.984375 -29.125 8.25 -29.390625 8.78125 -29.390625 L 24.8125 -29.390625 C 25.34375 -29.390625 25.609375 -29.125 25.609375 -28.59375 L 25.609375 -27.671875 C 25.609375 -27.140625 25.875 -26.875 26.40625 -26.875 L 27.328125 -26.875 C 27.859375 -26.875 28.125 -26.609375 28.125 -26.078125 L 28.125 -25.15625 C 28.125 -24.613281 28.390625 -24.34375 28.921875 -24.34375 L 29.84375 -24.34375 C 30.382812 -24.34375 30.65625 -24.078125 30.65625 -23.546875 L 30.65625 -16.75 C 30.65625 -16.21875 30.382812 -15.953125 29.84375 -15.953125 L 28.921875 -15.953125 C 28.390625 -15.953125 28.125 -15.6875 28.125 -15.15625 L 28.125 -14.234375 C 28.125 -13.703125 27.859375 -13.4375 27.328125 -13.4375 L 15.078125 -13.4375 C 14.546875 -13.4375 14.28125 -13.171875 14.28125 -12.640625 L 14.28125 -3.3125 C 14.28125 -2.78125 14.546875 -2.515625 15.078125 -2.515625 L 16 -2.515625 C 16.53125 -2.515625 16.796875 -2.78125 16.796875 -3.3125 L 16.796875 -4.234375 C 16.796875 -4.765625 17.0625 -5.03125 17.59375 -5.03125 L 18.515625 -5.03125 C 19.046875 -5.03125 19.3125 -5.296875 19.3125 -5.828125 L 19.3125 -8.734375 C 19.3125 -9.265625 19.578125 -9.53125 20.109375 -9.53125 L 29.84375 -9.53125 C 30.382812 -9.53125 30.65625 -9.265625 30.65625 -8.734375 L 30.65625 -5.828125 C 30.65625 -5.296875 30.382812 -5.03125 29.84375 -5.03125 L 28.921875 -5.03125 C 28.390625 -5.03125 28.125 -4.765625 28.125 -4.234375 L 28.125 -3.3125 C 28.125 -2.78125 27.859375 -2.515625 27.328125 -2.515625 L 26.40625 -2.515625 C 25.875 -2.515625 25.609375 -2.25 25.609375 -1.71875 L 25.609375 -0.796875 C 25.609375 -0.265625 25.34375 0 24.8125 0 L 8.78125 0 C 8.25 0 7.984375 -0.265625 7.984375 -0.796875 Z M 15.078125 -15.953125 L 18.515625 -15.953125 C 19.046875 -15.953125 19.3125 -16.21875 19.3125 -16.75 L 19.3125 -26.078125 C 19.3125 -26.609375 19.046875 -26.875 18.515625 -26.875 L 17.59375 -26.875 C 17.0625 -26.875 16.796875 -26.609375 16.796875 -26.078125 L 16.796875 -25.15625 C 16.796875 -24.613281 16.53125 -24.34375 16 -24.34375 L 15.078125 -24.34375 C 14.546875 -24.34375 14.28125 -24.078125 14.28125 -23.546875 L 14.28125 -16.75 C 14.28125 -16.21875 14.546875 -15.953125 15.078125 -15.953125 Z M 15.078125 -15.953125 "/></g></g></g><g fill="#ffec45" fill-opacity="1"><g transform="translate(443.493459, 172.076706)"><g><path d="M 2.9375 -0.796875 L 2.9375 -28.59375 C 2.9375 -29.125 3.203125 -29.390625 3.734375 -29.390625 L 9.703125 -29.390625 C 10.234375 -29.390625 10.5 -29.125 10.5 -28.59375 L 10.5 -25.15625 C 10.5 -24.613281 10.765625 -24.34375 11.296875 -24.34375 L 12.21875 -24.34375 C 12.75 -24.34375 13.015625 -24.613281 13.015625 -25.15625 L 13.015625 -26.078125 C 13.015625 -26.609375 13.28125 -26.875 13.8125 -26.875 L 14.734375 -26.875 C 15.265625 -26.875 15.53125 -27.140625 15.53125 -27.671875 L 15.53125 -28.59375 C 15.53125 -29.125 15.796875 -29.390625 16.328125 -29.390625 L 27.328125 -29.390625 C 27.859375 -29.390625 28.125 -29.125 28.125 -28.59375 L 28.125 -27.671875 C 28.125 -27.140625 28.390625 -26.875 28.921875 -26.875 L 29.84375 -26.875 C 30.070312 -26.875 30.1875 -26.875 30.1875 -26.875 C 30.1875 -26.875 30.070312 -26.875 29.84375 -26.875 L 28.921875 -26.875 C 28.703125 -26.875 28.59375 -26.875 28.59375 -26.875 C 28.59375 -26.875 28.703125 -26.875 28.921875 -26.875 L 29.84375 -26.875 C 30.382812 -26.875 30.65625 -26.609375 30.65625 -26.078125 L 30.65625 -0.796875 C 30.65625 -0.265625 30.382812 0 29.84375 0 L 20.109375 0 C 19.578125 0 19.3125 -0.265625 19.3125 -0.796875 L 19.3125 -26.078125 C 19.3125 -26.609375 19.046875 -26.875 18.515625 -26.875 L 17.59375 -26.875 C 17.0625 -26.875 16.796875 -26.609375 16.796875 -26.078125 L 16.796875 -25.15625 C 16.796875 -24.613281 16.53125 -24.34375 16 -24.34375 L 15.078125 -24.34375 C 14.546875 -24.34375 14.28125 -24.078125 14.28125 -23.546875 L 14.28125 -0.796875 C 14.28125 -0.265625 14.015625 0 13.484375 0 L 3.734375 0 C 3.203125 0 2.9375 -0.265625 2.9375 -0.796875 Z M 2.9375 -0.796875 "/></g></g></g></svg>