<svg xmlns="http://www.w3.org/2000/svg" xmlns:xlink="http://www.w3.org/1999/xlink" width="672" zoomAndPan="magnify" viewBox="0 0 504 359.999987" height="480" preserveAspectRatio="xMidYMid meet" version="1.0"><defs><g/></defs><g fill="#000000" fill-opacity="0.5608"><g transform="translate(17.920308, 168.940124)"><g><path d="M 6.453125 -0.71875 L 6.453125 -1.5625 C 6.453125 -2.039062 6.210938 -2.28125 5.734375 -2.28125 L 4.90625 -2.28125 C 4.414062 -2.28125 4.171875 -2.519531 4.171875 -3 L 4.171875 -23.625 C 4.171875 -24.101562 3.929688 -24.34375 3.453125 -24.34375 L 2.234375 -24.34375 C 1.753906 -24.34375 1.515625 -24.582031 1.515625 -25.0625 L 1.515625 -25.875 C 1.515625 -26.351562 1.753906 -26.59375 2.234375 -26.59375 L 3.453125 -26.59375 C 3.929688 -26.59375 4.171875 -26.832031 4.171875 -27.3125 L 4.171875 -32.59375 C 4.171875 -33.070312 4.414062 -33.3125 4.90625 -33.3125 L 13.71875 -33.3125 C 14.195312 -33.3125 14.4375 -33.070312 14.4375 -32.59375 L 14.4375 -27.3125 C 14.4375 -26.832031 14.675781 -26.59375 15.15625 -26.59375 L 18.984375 -26.59375 C 19.472656 -26.59375 19.71875 -26.351562 19.71875 -25.875 L 19.71875 -25.0625 C 19.71875 -24.582031 19.472656 -24.34375 18.984375 -24.34375 L 15.15625 -24.34375 C 14.675781 -24.34375 14.4375 -24.101562 14.4375 -23.625 L 14.4375 -3 C 14.4375 -2.519531 14.675781 -2.28125 15.15625 -2.28125 L 15.984375 -2.28125 C 16.472656 -2.28125 16.71875 -2.519531 16.71875 -3 L 16.71875 -6.875 C 16.71875 -7.351562 16.957031 -7.59375 17.4375 -7.59375 L 23.59375 -7.59375 C 24.070312 -7.59375 24.3125 -7.351562 24.3125 -6.875 L 24.3125 -3 C 24.3125 -2.519531 24.070312 -2.28125 23.59375 -2.28125 L 21.609375 -2.28125 C 21.128906 -2.28125 20.890625 -2.039062 20.890625 -1.5625 L 20.890625 -0.71875 C 20.890625 -0.238281 20.648438 0 20.171875 0 L 7.171875 0 C 6.691406 0 6.453125 -0.238281 6.453125 -0.71875 Z M 6.453125 -0.71875 "/></g></g></g><g fill="#000000" fill-opacity="0.5608"><g transform="translate(42.607592, 168.940124)"><g><path d="M 2.65625 -0.71875 L 2.65625 -35.96875 C 2.65625 -36.445312 2.894531 -36.6875 3.375 -36.6875 L 12.1875 -36.6875 C 12.675781 -36.6875 12.921875 -36.445312 12.921875 -35.96875 L 12.921875 -24.875 C 12.921875 -24.5 13.109375 -24.3125 13.484375 -24.3125 C 13.859375 -24.3125 14.046875 -24.5 14.046875 -24.875 L 14.046875 -25.875 C 14.046875 -26.351562 14.289062 -26.59375 14.78125 -26.59375 L 24.734375 -26.59375 C 25.210938 -26.59375 25.453125 -26.351562 25.453125 -25.875 L 25.453125 -25.03125 C 25.453125 -24.550781 25.691406 -24.3125 26.171875 -24.3125 L 27 -24.3125 C 27.207031 -24.3125 27.3125 -24.3125 27.3125 -24.3125 C 27.3125 -24.3125 27.207031 -24.3125 27 -24.3125 L 26.171875 -24.3125 C 25.972656 -24.3125 25.875 -24.3125 25.875 -24.3125 C 25.875 -24.3125 25.972656 -24.3125 26.171875 -24.3125 L 27 -24.3125 C 27.488281 -24.3125 27.734375 -24.070312 27.734375 -23.59375 L 27.734375 -0.71875 C 27.734375 -0.238281 27.488281 0 27 0 L 18.1875 0 C 17.707031 0 17.46875 -0.238281 17.46875 -0.71875 L 17.46875 -23.59375 C 17.46875 -24.070312 17.226562 -24.3125 16.75 -24.3125 L 15.921875 -24.3125 C 15.429688 -24.3125 15.1875 -24.070312 15.1875 -23.59375 L 15.1875 -22.75 C 15.1875 -22.269531 14.945312 -22.03125 14.46875 -22.03125 L 13.640625 -22.03125 C 13.160156 -22.03125 12.921875 -21.789062 12.921875 -21.3125 L 12.921875 -0.71875 C 12.921875 -0.238281 12.675781 0 12.1875 0 L 3.375 0 C 2.894531 0 2.65625 -0.238281 2.65625 -0.71875 Z M 2.65625 -0.71875 "/></g></g></g><g fill="#000000" fill-opacity="0.5608"><g transform="translate(72.991939, 168.940124)"><g><path d="M 15.984375 -12.109375 L 12.875 -12.109375 C 12.394531 -12.109375 12.15625 -11.867188 12.15625 -11.390625 L 12.15625 -3 C 12.15625 -2.519531 12.394531 -2.28125 12.875 -2.28125 L 13.71875 -2.28125 C 14.195312 -2.28125 14.4375 -2.519531 14.4375 -3 L 14.4375 -3.84375 C 14.4375 -4.320312 14.675781 -4.5625 15.15625 -4.5625 L 15.984375 -4.5625 C 16.472656 -4.5625 16.71875 -4.800781 16.71875 -5.28125 L 16.71875 -11.390625 C 16.71875 -11.867188 16.472656 -12.109375 15.984375 -12.109375 Z M 4.171875 -0.71875 L 4.171875 -1.5625 C 4.171875 -2.039062 3.929688 -2.28125 3.453125 -2.28125 L 2.625 -2.28125 C 2.144531 -2.28125 1.90625 -2.519531 1.90625 -3 L 1.90625 -11.390625 C 1.90625 -11.867188 2.144531 -12.109375 2.625 -12.109375 L 3.453125 -12.109375 C 3.929688 -12.109375 4.171875 -12.351562 4.171875 -12.84375 L 4.171875 -13.671875 C 4.171875 -14.148438 4.414062 -14.390625 4.90625 -14.390625 L 13.71875 -14.390625 C 14.195312 -14.390625 14.4375 -14.632812 14.4375 -15.125 L 14.4375 -15.953125 C 14.4375 -16.429688 14.675781 -16.671875 15.15625 -16.671875 L 17.125 -16.671875 C 17.613281 -16.671875 17.859375 -16.910156 17.859375 -17.390625 L 17.859375 -23.59375 C 17.859375 -24.070312 17.613281 -24.3125 17.125 -24.3125 L 15.15625 -24.3125 C 14.675781 -24.3125 14.4375 -24.070312 14.4375 -23.59375 L 14.4375 -20.46875 C 14.4375 -19.988281 14.195312 -19.75 13.71875 -19.75 L 12.875 -19.75 C 12.394531 -19.75 12.15625 -19.507812 12.15625 -19.03125 L 12.15625 -17.0625 C 12.15625 -16.570312 11.914062 -16.328125 11.4375 -16.328125 L 3.765625 -16.328125 C 3.273438 -16.328125 3.03125 -16.570312 3.03125 -17.0625 L 3.03125 -23.59375 C 3.03125 -24.070312 3.273438 -24.3125 3.765625 -24.3125 L 5.171875 -24.3125 C 5.648438 -24.3125 5.890625 -24.550781 5.890625 -25.03125 L 5.890625 -25.875 C 5.890625 -26.351562 6.128906 -26.59375 6.609375 -26.59375 L 23.96875 -26.59375 C 24.445312 -26.59375 24.6875 -26.351562 24.6875 -25.875 L 24.6875 -25.03125 C 24.6875 -24.550781 24.925781 -24.3125 25.40625 -24.3125 L 26.25 -24.3125 C 26.726562 -24.3125 26.96875 -24.070312 26.96875 -23.59375 L 26.96875 -0.71875 C 26.96875 -0.238281 26.726562 0 26.25 0 L 19.71875 0 C 19.226562 0 18.984375 -0.238281 18.984375 -0.71875 L 18.984375 -1.5625 C 18.984375 -2.039062 18.742188 -2.28125 18.265625 -2.28125 L 17.4375 -2.28125 C 16.957031 -2.28125 16.71875 -2.039062 16.71875 -1.5625 L 16.71875 -0.71875 C 16.71875 -0.238281 16.472656 0 15.984375 0 L 4.90625 0 C 4.414062 0 4.171875 -0.238281 4.171875 -0.71875 Z M 4.171875 -0.71875 "/></g></g></g><g fill="#000000" fill-opacity="0.5608"><g transform="translate(102.616674, 168.940124)"><g><path d="M 6.453125 -0.71875 L 6.453125 -1.5625 C 6.453125 -2.039062 6.210938 -2.28125 5.734375 -2.28125 L 4.90625 -2.28125 C 4.414062 -2.28125 4.171875 -2.519531 4.171875 -3 L 4.171875 -23.625 C 4.171875 -24.101562 3.929688 -24.34375 3.453125 -24.34375 L 2.234375 -24.34375 C 1.753906 -24.34375 1.515625 -24.582031 1.515625 -25.0625 L 1.515625 -25.875 C 1.515625 -26.351562 1.753906 -26.59375 2.234375 -26.59375 L 3.453125 -26.59375 C 3.929688 -26.59375 4.171875 -26.832031 4.171875 -27.3125 L 4.171875 -32.59375 C 4.171875 -33.070312 4.414062 -33.3125 4.90625 -33.3125 L 13.71875 -33.3125 C 14.195312 -33.3125 14.4375 -33.070312 14.4375 -32.59375 L 14.4375 -27.3125 C 14.4375 -26.832031 14.675781 -26.59375 15.15625 -26.59375 L 18.984375 -26.59375 C 19.472656 -26.59375 19.71875 -26.351562 19.71875 -25.875 L 19.71875 -25.0625 C 19.71875 -24.582031 19.472656 -24.34375 18.984375 -24.34375 L 15.15625 -24.34375 C 14.675781 -24.34375 14.4375 -24.101562 14.4375 -23.625 L 14.4375 -3 C 14.4375 -2.519531 14.675781 -2.28125 15.15625 -2.28125 L 15.984375 -2.28125 C 16.472656 -2.28125 16.71875 -2.519531 16.71875 -3 L 16.71875 -6.875 C 16.71875 -7.351562 16.957031 -7.59375 17.4375 -7.59375 L 23.59375 -7.59375 C 24.070312 -7.59375 24.3125 -7.351562 24.3125 -6.875 L 24.3125 -3 C 24.3125 -2.519531 24.070312 -2.28125 23.59375 -2.28125 L 21.609375 -2.28125 C 21.128906 -2.28125 20.890625 -2.039062 20.890625 -1.5625 L 20.890625 -0.71875 C 20.890625 -0.238281 20.648438 0 20.171875 0 L 7.171875 0 C 6.691406 0 6.453125 -0.238281 6.453125 -0.71875 Z M 6.453125 -0.71875 "/></g></g></g><g fill="#000000" fill-opacity="0.5608"><g transform="translate(127.303958, 168.940124)"><g><path d="M 4.171875 -26.0625 L 4.171875 -26.140625 C 4.171875 -26.585938 3.945312 -26.8125 3.5 -26.8125 C 2.9375 -26.8125 2.65625 -27.09375 2.65625 -27.65625 L 2.65625 -33.203125 C 2.65625 -33.753906 2.9375 -34.03125 3.5 -34.03125 C 3.945312 -34.03125 4.171875 -34.257812 4.171875 -34.71875 L 4.171875 -34.796875 C 4.171875 -35.296875 4.425781 -35.546875 4.9375 -35.546875 L 10.5625 -35.546875 C 11.113281 -35.546875 11.390625 -35.269531 11.390625 -34.71875 C 11.390625 -34.257812 11.617188 -34.03125 12.078125 -34.03125 L 12.15625 -34.03125 C 12.664062 -34.03125 12.921875 -33.78125 12.921875 -33.28125 L 12.921875 -20.546875 C 12.921875 -19.910156 12.601562 -19.59375 11.96875 -19.59375 L 10.453125 -19.59375 C 9.816406 -19.59375 9.5 -19.910156 9.5 -20.546875 L 9.5 -24.34375 C 9.5 -24.976562 9.179688 -25.296875 8.546875 -25.296875 L 4.9375 -25.296875 C 4.425781 -25.296875 4.171875 -25.550781 4.171875 -26.0625 Z M 4.171875 -26.0625 "/></g></g></g><g fill="#000000" fill-opacity="0.5608"><g transform="translate(142.875933, 168.940124)"><g><path d="M 4.5625 -0.71875 L 4.5625 -1.5625 C 4.5625 -2.039062 4.320312 -2.28125 3.84375 -2.28125 L 3 -2.28125 C 2.519531 -2.28125 2.28125 -2.519531 2.28125 -3 L 2.28125 -9.53125 C 2.28125 -10.007812 2.519531 -10.25 3 -10.25 L 11.8125 -10.25 C 12.289062 -10.25 12.53125 -10.007812 12.53125 -9.53125 L 12.53125 -3 C 12.53125 -2.519531 12.769531 -2.28125 13.25 -2.28125 L 14.09375 -2.28125 C 14.570312 -2.28125 14.8125 -2.519531 14.8125 -3 L 14.8125 -3.84375 C 14.8125 -4.320312 15.050781 -4.5625 15.53125 -4.5625 L 16.40625 -4.5625 C 16.882812 -4.5625 17.125 -4.800781 17.125 -5.28125 L 17.125 -9.078125 C 17.125 -9.554688 16.882812 -9.796875 16.40625 -9.796875 L 15.578125 -9.796875 C 15.097656 -9.796875 14.859375 -10.035156 14.859375 -10.515625 L 14.859375 -11.359375 C 14.859375 -11.835938 14.613281 -12.078125 14.125 -12.078125 L 5.28125 -12.078125 C 4.800781 -12.078125 4.5625 -12.316406 4.5625 -12.796875 L 4.5625 -13.640625 C 4.5625 -14.117188 4.320312 -14.359375 3.84375 -14.359375 L 3 -14.359375 C 2.519531 -14.359375 2.28125 -14.597656 2.28125 -15.078125 L 2.28125 -23.59375 C 2.28125 -24.070312 2.519531 -24.3125 3 -24.3125 L 3.578125 -24.3125 C 4.054688 -24.3125 4.296875 -24.550781 4.296875 -25.03125 L 4.296875 -25.875 C 4.296875 -26.351562 4.535156 -26.59375 5.015625 -26.59375 L 23.96875 -26.59375 C 24.445312 -26.59375 24.6875 -26.351562 24.6875 -25.875 L 24.6875 -25.03125 C 24.6875 -24.550781 24.925781 -24.3125 25.40625 -24.3125 L 26.25 -24.3125 C 26.726562 -24.3125 26.96875 -24.070312 26.96875 -23.59375 L 26.96875 -17.0625 C 26.96875 -16.570312 26.726562 -16.328125 26.25 -16.328125 L 20.09375 -16.328125 C 19.613281 -16.328125 19.375 -16.570312 19.375 -17.0625 L 19.375 -17.890625 C 19.375 -18.367188 19.132812 -18.609375 18.65625 -18.609375 L 17.8125 -18.609375 C 17.332031 -18.609375 17.09375 -18.847656 17.09375 -19.328125 L 17.09375 -23.59375 C 17.09375 -24.070312 16.851562 -24.3125 16.375 -24.3125 L 15.53125 -24.3125 C 15.050781 -24.3125 14.8125 -24.070312 14.8125 -23.59375 L 14.8125 -22.75 C 14.8125 -22.269531 14.570312 -22.03125 14.09375 -22.03125 L 13.25 -22.03125 C 12.769531 -22.03125 12.53125 -21.789062 12.53125 -21.3125 L 12.53125 -17.359375 C 12.53125 -16.878906 12.769531 -16.640625 13.25 -16.640625 L 14.09375 -16.640625 C 14.570312 -16.640625 14.8125 -16.398438 14.8125 -15.921875 L 14.8125 -15.078125 C 14.8125 -14.597656 15.050781 -14.359375 15.53125 -14.359375 L 24 -14.359375 C 24.488281 -14.359375 24.734375 -14.117188 24.734375 -13.640625 L 24.734375 -12.796875 C 24.734375 -12.316406 24.972656 -12.078125 25.453125 -12.078125 L 26.28125 -12.078125 C 26.757812 -12.078125 27 -11.835938 27 -11.359375 L 27 -3 C 27 -2.519531 26.757812 -2.28125 26.28125 -2.28125 L 25.453125 -2.28125 C 24.972656 -2.28125 24.734375 -2.039062 24.734375 -1.5625 L 24.734375 -0.71875 C 24.734375 -0.238281 24.488281 0 24 0 L 5.28125 0 C 4.800781 0 4.5625 -0.238281 4.5625 -0.71875 Z M 4.5625 -0.71875 "/></g></g></g><g fill="#000000" fill-opacity="0.5608"><g transform="translate(172.500667, 168.940124)"><g/></g></g><g fill="#000000" fill-opacity="0.5608"><g transform="translate(181.995772, 168.940124)"><g><path d="M 2.65625 -0.71875 L 2.65625 -25.875 C 2.65625 -26.351562 2.894531 -26.59375 3.375 -26.59375 L 8.78125 -26.59375 C 9.257812 -26.59375 9.5 -26.351562 9.5 -25.875 L 9.5 -22.75 C 9.5 -22.269531 9.738281 -22.03125 10.21875 -22.03125 L 11.046875 -22.03125 C 11.535156 -22.03125 11.78125 -22.269531 11.78125 -22.75 L 11.78125 -23.59375 C 11.78125 -24.070312 12.019531 -24.3125 12.5 -24.3125 L 13.328125 -24.3125 C 13.804688 -24.3125 14.046875 -24.550781 14.046875 -25.03125 L 14.046875 -25.875 C 14.046875 -26.351562 14.289062 -26.59375 14.78125 -26.59375 L 21.3125 -26.59375 C 21.789062 -26.59375 22.03125 -26.351562 22.03125 -25.875 L 22.03125 -25.03125 C 22.03125 -24.550781 22.269531 -24.3125 22.75 -24.3125 L 23.59375 -24.3125 C 23.789062 -24.3125 23.890625 -24.3125 23.890625 -24.3125 C 23.890625 -24.3125 23.789062 -24.3125 23.59375 -24.3125 L 22.75 -24.3125 C 22.550781 -24.3125 22.453125 -24.3125 22.453125 -24.3125 C 22.453125 -24.3125 22.550781 -24.3125 22.75 -24.3125 L 23.59375 -24.3125 C 24.070312 -24.3125 24.3125 -24.070312 24.3125 -23.59375 L 24.3125 -18.34375 C 24.3125 -17.863281 24.070312 -17.625 23.59375 -17.625 L 15.921875 -17.625 C 15.429688 -17.625 15.1875 -17.863281 15.1875 -18.34375 L 15.1875 -21.3125 C 15.1875 -21.789062 14.945312 -22.03125 14.46875 -22.03125 L 13.640625 -22.03125 C 13.160156 -22.03125 12.921875 -21.789062 12.921875 -21.3125 L 12.921875 -0.71875 C 12.921875 -0.238281 12.675781 0 12.1875 0 L 3.375 0 C 2.894531 0 2.65625 -0.238281 2.65625 -0.71875 Z M 2.65625 -0.71875 "/></g></g></g><g fill="#000000" fill-opacity="0.5608"><g transform="translate(207.062863, 168.940124)"><g><path d="M 7.21875 -0.71875 L 7.21875 -1.5625 C 7.21875 -2.039062 6.976562 -2.28125 6.5 -2.28125 L 5.65625 -2.28125 C 5.175781 -2.28125 4.9375 -2.519531 4.9375 -3 L 4.9375 -3.84375 C 4.9375 -4.320312 4.695312 -4.5625 4.21875 -4.5625 L 3.375 -4.5625 C 2.894531 -4.5625 2.65625 -4.800781 2.65625 -5.28125 L 2.65625 -21.3125 C 2.65625 -21.789062 2.894531 -22.03125 3.375 -22.03125 L 4.21875 -22.03125 C 4.695312 -22.03125 4.9375 -22.269531 4.9375 -22.75 L 4.9375 -23.59375 C 4.9375 -24.070312 5.175781 -24.3125 5.65625 -24.3125 L 6.5 -24.3125 C 6.976562 -24.3125 7.21875 -24.550781 7.21875 -25.03125 L 7.21875 -25.875 C 7.21875 -26.351562 7.457031 -26.59375 7.9375 -26.59375 L 22.453125 -26.59375 C 22.929688 -26.59375 23.171875 -26.351562 23.171875 -25.875 L 23.171875 -25.03125 C 23.171875 -24.550781 23.410156 -24.3125 23.890625 -24.3125 L 24.734375 -24.3125 C 25.210938 -24.3125 25.453125 -24.070312 25.453125 -23.59375 L 25.453125 -22.75 C 25.453125 -22.269531 25.691406 -22.03125 26.171875 -22.03125 L 27 -22.03125 C 27.488281 -22.03125 27.734375 -21.789062 27.734375 -21.3125 L 27.734375 -5.28125 C 27.734375 -4.800781 27.488281 -4.5625 27 -4.5625 L 26.171875 -4.5625 C 25.691406 -4.5625 25.453125 -4.320312 25.453125 -3.84375 L 25.453125 -3 C 25.453125 -2.519531 25.210938 -2.28125 24.734375 -2.28125 L 23.890625 -2.28125 C 23.410156 -2.28125 23.171875 -2.039062 23.171875 -1.5625 L 23.171875 -0.71875 C 23.171875 -0.238281 22.929688 0 22.453125 0 L 7.9375 0 C 7.457031 0 7.21875 -0.238281 7.21875 -0.71875 Z M 15.921875 -4.5625 L 16.75 -4.5625 C 17.226562 -4.5625 17.46875 -4.800781 17.46875 -5.28125 L 17.46875 -23.59375 C 17.46875 -24.070312 17.226562 -24.3125 16.75 -24.3125 L 15.921875 -24.3125 C 15.429688 -24.3125 15.1875 -24.070312 15.1875 -23.59375 L 15.1875 -22.75 C 15.1875 -22.269531 14.945312 -22.03125 14.46875 -22.03125 L 13.640625 -22.03125 C 13.160156 -22.03125 12.921875 -21.789062 12.921875 -21.3125 L 12.921875 -3 C 12.921875 -2.519531 13.160156 -2.28125 13.640625 -2.28125 L 14.46875 -2.28125 C 14.945312 -2.28125 15.1875 -2.519531 15.1875 -3 L 15.1875 -3.84375 C 15.1875 -4.320312 15.429688 -4.5625 15.921875 -4.5625 Z M 15.921875 -4.5625 "/></g></g></g><g fill="#000000" fill-opacity="0.5608"><g transform="translate(237.447222, 168.940124)"><g><path d="M 7.21875 -0.6875 L 7.21875 -1.515625 C 7.21875 -1.992188 6.976562 -2.234375 6.5 -2.234375 L 5.65625 -2.234375 C 5.175781 -2.234375 4.9375 -2.476562 4.9375 -2.96875 L 4.9375 -3.796875 C 4.9375 -4.273438 4.695312 -4.515625 4.21875 -4.515625 L 3.375 -4.515625 C 2.894531 -4.515625 2.65625 -4.753906 2.65625 -5.234375 L 2.65625 -25.828125 C 2.65625 -26.304688 2.894531 -26.546875 3.375 -26.546875 L 12.1875 -26.546875 C 12.675781 -26.546875 12.921875 -26.304688 12.921875 -25.828125 L 12.921875 -2.96875 C 12.921875 -2.476562 13.160156 -2.234375 13.640625 -2.234375 L 14.46875 -2.234375 C 14.945312 -2.234375 15.1875 -2.476562 15.1875 -2.96875 L 15.1875 -3.796875 C 15.1875 -4.273438 15.429688 -4.515625 15.921875 -4.515625 L 16.75 -4.515625 C 17.226562 -4.515625 17.46875 -4.753906 17.46875 -5.234375 L 17.46875 -25.828125 C 17.46875 -26.304688 17.707031 -26.546875 18.1875 -26.546875 L 27 -26.546875 C 27.488281 -26.546875 27.734375 -26.304688 27.734375 -25.828125 L 27.734375 -5.234375 C 27.734375 -4.753906 27.488281 -4.515625 27 -4.515625 L 26.171875 -4.515625 C 25.691406 -4.515625 25.453125 -4.273438 25.453125 -3.796875 L 25.453125 -2.96875 C 25.453125 -2.476562 25.210938 -2.234375 24.734375 -2.234375 L 23.890625 -2.234375 C 23.410156 -2.234375 23.171875 -1.992188 23.171875 -1.515625 L 23.171875 -0.6875 C 23.171875 -0.207031 22.929688 0.03125 22.453125 0.03125 L 7.9375 0.03125 C 7.457031 0.03125 7.21875 -0.207031 7.21875 -0.6875 Z M 7.21875 -0.6875 "/></g></g></g><g fill="#000000" fill-opacity="0.5608"><g transform="translate(267.831558, 168.940124)"><g><path d="M 13.640625 -2.28125 L 14.46875 -2.28125 C 14.945312 -2.28125 15.1875 -2.519531 15.1875 -3 L 15.1875 -3.84375 C 15.1875 -4.320312 15.429688 -4.5625 15.921875 -4.5625 L 16.75 -4.5625 C 17.226562 -4.5625 17.46875 -4.800781 17.46875 -5.28125 L 17.46875 -23.515625 C 17.46875 -23.992188 17.226562 -24.234375 16.75 -24.234375 L 15.921875 -24.234375 C 15.429688 -24.234375 15.1875 -23.992188 15.1875 -23.515625 L 15.1875 -22.671875 C 15.1875 -22.191406 14.945312 -21.953125 14.46875 -21.953125 L 13.640625 -21.953125 C 13.160156 -21.953125 12.921875 -21.710938 12.921875 -21.234375 L 12.921875 -3 C 12.921875 -2.519531 13.160156 -2.28125 13.640625 -2.28125 Z M 4.9375 -0.71875 L 4.9375 -1.5625 C 4.9375 -2.039062 4.695312 -2.28125 4.21875 -2.28125 L 3.375 -2.28125 C 3.175781 -2.28125 3.078125 -2.28125 3.078125 -2.28125 C 3.078125 -2.28125 3.175781 -2.28125 3.375 -2.28125 L 4.21875 -2.28125 C 4.414062 -2.28125 4.515625 -2.28125 4.515625 -2.28125 C 4.515625 -2.28125 4.414062 -2.28125 4.21875 -2.28125 L 3.375 -2.28125 C 2.894531 -2.28125 2.65625 -2.519531 2.65625 -3 L 2.65625 -21.3125 C 2.65625 -21.789062 2.894531 -22.03125 3.375 -22.03125 L 4.21875 -22.03125 C 4.695312 -22.03125 4.9375 -22.269531 4.9375 -22.75 L 4.9375 -23.59375 C 4.9375 -24.070312 5.175781 -24.3125 5.65625 -24.3125 L 6.5 -24.3125 C 6.976562 -24.3125 7.21875 -24.550781 7.21875 -25.03125 L 7.21875 -25.875 C 7.21875 -26.351562 7.457031 -26.59375 7.9375 -26.59375 L 24.765625 -26.59375 C 25.242188 -26.59375 25.484375 -26.351562 25.484375 -25.875 L 25.484375 -25.03125 C 25.484375 -24.550781 25.722656 -24.3125 26.203125 -24.3125 L 27 -24.3125 C 27.488281 -24.3125 27.734375 -24.070312 27.734375 -23.59375 L 27.734375 4.21875 C 27.734375 4.695312 27.488281 4.9375 27 4.9375 L 26.171875 4.9375 C 25.691406 4.9375 25.453125 5.175781 25.453125 5.65625 L 25.453125 6.5 C 25.453125 6.976562 25.210938 7.21875 24.734375 7.21875 L 23.890625 7.21875 C 23.410156 7.21875 23.171875 7.457031 23.171875 7.9375 L 23.171875 8.78125 C 23.171875 9.257812 22.929688 9.5 22.453125 9.5 L 5.65625 9.5 C 5.175781 9.5 4.9375 9.257812 4.9375 8.78125 L 4.9375 7.9375 C 4.9375 7.457031 4.695312 7.21875 4.21875 7.21875 L 3.375 7.21875 C 3.175781 7.21875 3.078125 7.21875 3.078125 7.21875 C 3.078125 7.21875 3.175781 7.21875 3.375 7.21875 L 4.21875 7.21875 C 4.414062 7.21875 4.515625 7.21875 4.515625 7.21875 C 4.515625 7.21875 4.414062 7.21875 4.21875 7.21875 L 3.375 7.21875 C 2.894531 7.21875 2.65625 6.976562 2.65625 6.5 L 2.65625 3.375 C 2.65625 2.894531 2.894531 2.65625 3.375 2.65625 L 12.1875 2.65625 C 12.675781 2.65625 12.921875 2.894531 12.921875 3.375 L 12.921875 3.984375 C 12.921875 4.460938 13.160156 4.703125 13.640625 4.703125 L 14.09375 4.703125 C 14.570312 4.703125 14.8125 4.945312 14.8125 5.4375 L 14.8125 6.5 C 14.8125 6.976562 15.050781 7.21875 15.53125 7.21875 L 17.890625 7.21875 C 18.367188 7.21875 18.609375 6.976562 18.609375 6.5 L 18.609375 -1.5625 C 18.609375 -2.039062 18.367188 -2.28125 17.890625 -2.28125 L 17.0625 -2.28125 C 16.570312 -2.28125 16.328125 -2.039062 16.328125 -1.5625 L 16.328125 -0.71875 C 16.328125 -0.238281 16.085938 0 15.609375 0 L 5.65625 0 C 5.175781 0 4.9375 -0.238281 4.9375 -0.71875 Z M 4.9375 -0.71875 "/></g></g></g><g fill="#000000" fill-opacity="0.5608"><g transform="translate(298.215894, 168.940124)"><g><path d="M 2.65625 -0.71875 L 2.65625 -35.96875 C 2.65625 -36.445312 2.894531 -36.6875 3.375 -36.6875 L 12.1875 -36.6875 C 12.675781 -36.6875 12.921875 -36.445312 12.921875 -35.96875 L 12.921875 -24.875 C 12.921875 -24.5 13.109375 -24.3125 13.484375 -24.3125 C 13.859375 -24.3125 14.046875 -24.5 14.046875 -24.875 L 14.046875 -25.875 C 14.046875 -26.351562 14.289062 -26.59375 14.78125 -26.59375 L 24.734375 -26.59375 C 25.210938 -26.59375 25.453125 -26.351562 25.453125 -25.875 L 25.453125 -25.03125 C 25.453125 -24.550781 25.691406 -24.3125 26.171875 -24.3125 L 27 -24.3125 C 27.207031 -24.3125 27.3125 -24.3125 27.3125 -24.3125 C 27.3125 -24.3125 27.207031 -24.3125 27 -24.3125 L 26.171875 -24.3125 C 25.972656 -24.3125 25.875 -24.3125 25.875 -24.3125 C 25.875 -24.3125 25.972656 -24.3125 26.171875 -24.3125 L 27 -24.3125 C 27.488281 -24.3125 27.734375 -24.070312 27.734375 -23.59375 L 27.734375 -0.71875 C 27.734375 -0.238281 27.488281 0 27 0 L 18.1875 0 C 17.707031 0 17.46875 -0.238281 17.46875 -0.71875 L 17.46875 -23.59375 C 17.46875 -24.070312 17.226562 -24.3125 16.75 -24.3125 L 15.921875 -24.3125 C 15.429688 -24.3125 15.1875 -24.070312 15.1875 -23.59375 L 15.1875 -22.75 C 15.1875 -22.269531 14.945312 -22.03125 14.46875 -22.03125 L 13.640625 -22.03125 C 13.160156 -22.03125 12.921875 -21.789062 12.921875 -21.3125 L 12.921875 -0.71875 C 12.921875 -0.238281 12.675781 0 12.1875 0 L 3.375 0 C 2.894531 0 2.65625 -0.238281 2.65625 -0.71875 Z M 2.65625 -0.71875 "/></g></g></g><g fill="#000000" fill-opacity="0.5608"><g transform="translate(328.60023, 168.940124)"><g/></g></g><g fill="#000000" fill-opacity="0.5608"><g transform="translate(338.095346, 168.940124)"><g><path d="M 14.46875 -22.03125 L 13.640625 -22.03125 C 13.160156 -22.03125 12.921875 -21.789062 12.921875 -21.3125 L 12.921875 -3 C 12.921875 -2.519531 13.160156 -2.28125 13.640625 -2.28125 L 14.46875 -2.28125 C 14.945312 -2.28125 15.1875 -2.519531 15.1875 -3 L 15.1875 -3.84375 C 15.1875 -4.320312 15.429688 -4.5625 15.921875 -4.5625 L 16.75 -4.5625 C 17.226562 -4.5625 17.46875 -4.800781 17.46875 -5.28125 L 17.46875 -23.59375 C 17.46875 -24.070312 17.226562 -24.3125 16.75 -24.3125 L 15.921875 -24.3125 C 15.429688 -24.3125 15.1875 -24.070312 15.1875 -23.59375 L 15.1875 -22.75 C 15.1875 -22.269531 14.945312 -22.03125 14.46875 -22.03125 Z M 2.65625 -0.71875 L 2.65625 -35.359375 C 2.65625 -35.835938 2.894531 -36.078125 3.375 -36.078125 L 12.1875 -36.078125 C 12.675781 -36.078125 12.921875 -35.835938 12.921875 -35.359375 L 12.921875 -27.3125 C 12.921875 -26.832031 13.160156 -26.59375 13.640625 -26.59375 L 22.453125 -26.59375 C 22.929688 -26.59375 23.171875 -26.351562 23.171875 -25.875 L 23.171875 -25.03125 C 23.171875 -24.550781 23.410156 -24.3125 23.890625 -24.3125 L 24.734375 -24.3125 C 25.210938 -24.3125 25.453125 -24.070312 25.453125 -23.59375 L 25.453125 -22.75 C 25.453125 -22.269531 25.691406 -22.03125 26.171875 -22.03125 L 27 -22.03125 C 27.488281 -22.03125 27.734375 -21.789062 27.734375 -21.3125 L 27.734375 -3.03125 C 27.734375 -2.550781 27.488281 -2.3125 27 -2.3125 L 26.171875 -2.3125 C 25.691406 -2.3125 25.453125 -2.070312 25.453125 -1.59375 L 25.453125 -0.71875 C 25.453125 -0.238281 25.210938 0 24.734375 0 L 3.375 0 C 2.894531 0 2.65625 -0.238281 2.65625 -0.71875 Z M 2.65625 -0.71875 "/></g></g></g><g fill="#000000" fill-opacity="0.5608"><g transform="translate(368.479682, 168.940124)"><g><path d="M 7.21875 -0.6875 L 7.21875 -1.515625 C 7.21875 -1.992188 6.976562 -2.234375 6.5 -2.234375 L 5.65625 -2.234375 C 5.175781 -2.234375 4.9375 -2.476562 4.9375 -2.96875 L 4.9375 -3.796875 C 4.9375 -4.273438 4.695312 -4.515625 4.21875 -4.515625 L 3.375 -4.515625 C 2.894531 -4.515625 2.65625 -4.753906 2.65625 -5.234375 L 2.65625 -25.828125 C 2.65625 -26.304688 2.894531 -26.546875 3.375 -26.546875 L 12.1875 -26.546875 C 12.675781 -26.546875 12.921875 -26.304688 12.921875 -25.828125 L 12.921875 -2.96875 C 12.921875 -2.476562 13.160156 -2.234375 13.640625 -2.234375 L 14.46875 -2.234375 C 14.945312 -2.234375 15.1875 -2.476562 15.1875 -2.96875 L 15.1875 -3.796875 C 15.1875 -4.273438 15.429688 -4.515625 15.921875 -4.515625 L 16.75 -4.515625 C 17.226562 -4.515625 17.46875 -4.753906 17.46875 -5.234375 L 17.46875 -25.828125 C 17.46875 -26.304688 17.707031 -26.546875 18.1875 -26.546875 L 27 -26.546875 C 27.488281 -26.546875 27.734375 -26.304688 27.734375 -25.828125 L 27.734375 -5.234375 C 27.734375 -4.753906 27.488281 -4.515625 27 -4.515625 L 26.171875 -4.515625 C 25.691406 -4.515625 25.453125 -4.273438 25.453125 -3.796875 L 25.453125 -2.96875 C 25.453125 -2.476562 25.210938 -2.234375 24.734375 -2.234375 L 23.890625 -2.234375 C 23.410156 -2.234375 23.171875 -1.992188 23.171875 -1.515625 L 23.171875 -0.6875 C 23.171875 -0.207031 22.929688 0.03125 22.453125 0.03125 L 7.9375 0.03125 C 7.457031 0.03125 7.21875 -0.207031 7.21875 -0.6875 Z M 7.21875 -0.6875 "/></g></g></g><g fill="#000000" fill-opacity="0.5608"><g transform="translate(398.864018, 168.940124)"><g><path d="M 14.46875 -22 L 13.640625 -22 C 13.160156 -22 12.921875 -21.753906 12.921875 -21.265625 L 12.921875 -2.96875 C 12.921875 -2.476562 13.160156 -2.234375 13.640625 -2.234375 L 14.46875 -2.234375 C 14.945312 -2.234375 15.1875 -2.476562 15.1875 -2.96875 L 15.1875 -3.796875 C 15.1875 -4.273438 15.429688 -4.515625 15.921875 -4.515625 L 16.75 -4.515625 C 17.226562 -4.515625 17.46875 -4.753906 17.46875 -5.234375 L 17.46875 -23.546875 C 17.46875 -24.023438 17.226562 -24.265625 16.75 -24.265625 L 15.921875 -24.265625 C 15.429688 -24.265625 15.1875 -24.023438 15.1875 -23.546875 L 15.1875 -22.71875 C 15.1875 -22.238281 14.945312 -22 14.46875 -22 Z M 7.21875 -0.6875 L 7.21875 -1.515625 C 7.21875 -1.992188 6.976562 -2.234375 6.5 -2.234375 L 5.65625 -2.234375 C 5.175781 -2.234375 4.9375 -2.476562 4.9375 -2.96875 L 4.9375 -3.796875 C 4.9375 -4.273438 4.695312 -4.515625 4.21875 -4.515625 L 3.375 -4.515625 C 2.894531 -4.515625 2.65625 -4.753906 2.65625 -5.234375 L 2.65625 -21.265625 C 2.65625 -21.753906 2.894531 -22 3.375 -22 L 4.21875 -22 C 4.695312 -22 4.9375 -22.238281 4.9375 -22.71875 L 4.9375 -23.546875 C 4.9375 -24.023438 5.175781 -24.265625 5.65625 -24.265625 L 6.5 -24.265625 C 6.976562 -24.265625 7.21875 -24.507812 7.21875 -25 L 7.21875 -25.828125 C 7.21875 -26.304688 7.457031 -26.546875 7.9375 -26.546875 L 16.75 -26.546875 C 17.226562 -26.546875 17.46875 -26.785156 17.46875 -27.265625 L 17.46875 -35.96875 C 17.46875 -36.445312 17.707031 -36.6875 18.1875 -36.6875 L 27 -36.6875 C 27.488281 -36.6875 27.734375 -36.445312 27.734375 -35.96875 L 27.734375 -0.6875 C 27.734375 -0.207031 27.488281 0.03125 27 0.03125 L 7.9375 0.03125 C 7.457031 0.03125 7.21875 -0.207031 7.21875 -0.6875 Z M 7.21875 -0.6875 "/></g></g></g><g fill="#000000" fill-opacity="0.5608"><g transform="translate(429.248354, 168.940124)"><g><path d="M 14.46875 -22 L 13.640625 -22 C 13.160156 -22 12.921875 -21.753906 12.921875 -21.265625 L 12.921875 -2.96875 C 12.921875 -2.476562 13.160156 -2.234375 13.640625 -2.234375 L 14.46875 -2.234375 C 14.945312 -2.234375 15.1875 -2.476562 15.1875 -2.96875 L 15.1875 -3.796875 C 15.1875 -4.273438 15.429688 -4.515625 15.921875 -4.515625 L 16.75 -4.515625 C 17.226562 -4.515625 17.46875 -4.753906 17.46875 -5.234375 L 17.46875 -23.546875 C 17.46875 -24.023438 17.226562 -24.265625 16.75 -24.265625 L 15.921875 -24.265625 C 15.429688 -24.265625 15.1875 -24.023438 15.1875 -23.546875 L 15.1875 -22.71875 C 15.1875 -22.238281 14.945312 -22 14.46875 -22 Z M 7.21875 -0.6875 L 7.21875 -1.515625 C 7.21875 -1.992188 6.976562 -2.234375 6.5 -2.234375 L 5.65625 -2.234375 C 5.175781 -2.234375 4.9375 -2.476562 4.9375 -2.96875 L 4.9375 -3.796875 C 4.9375 -4.273438 4.695312 -4.515625 4.21875 -4.515625 L 3.375 -4.515625 C 2.894531 -4.515625 2.65625 -4.753906 2.65625 -5.234375 L 2.65625 -21.265625 C 2.65625 -21.753906 2.894531 -22 3.375 -22 L 4.21875 -22 C 4.695312 -22 4.9375 -22.238281 4.9375 -22.71875 L 4.9375 -23.546875 C 4.9375 -24.023438 5.175781 -24.265625 5.65625 -24.265625 L 6.5 -24.265625 C 6.976562 -24.265625 7.21875 -24.507812 7.21875 -25 L 7.21875 -25.828125 C 7.21875 -26.304688 7.457031 -26.546875 7.9375 -26.546875 L 16.75 -26.546875 C 17.226562 -26.546875 17.46875 -26.785156 17.46875 -27.265625 L 17.46875 -35.96875 C 17.46875 -36.445312 17.707031 -36.6875 18.1875 -36.6875 L 27 -36.6875 C 27.488281 -36.6875 27.734375 -36.445312 27.734375 -35.96875 L 27.734375 -0.6875 C 27.734375 -0.207031 27.488281 0.03125 27 0.03125 L 7.9375 0.03125 C 7.457031 0.03125 7.21875 -0.207031 7.21875 -0.6875 Z M 7.21875 -0.6875 "/></g></g></g><g fill="#000000" fill-opacity="0.5608"><g transform="translate(459.63269, 168.940124)"><g><path d="M 4.9375 -0.71875 L 4.9375 -1.5625 C 4.9375 -2.039062 4.695312 -2.28125 4.21875 -2.28125 L 3.375 -2.28125 C 3.175781 -2.28125 3.078125 -2.28125 3.078125 -2.28125 C 3.078125 -2.28125 3.175781 -2.28125 3.375 -2.28125 L 4.21875 -2.28125 C 4.414062 -2.28125 4.515625 -2.28125 4.515625 -2.28125 C 4.515625 -2.28125 4.414062 -2.28125 4.21875 -2.28125 L 3.375 -2.28125 C 2.894531 -2.28125 2.65625 -2.519531 2.65625 -3 L 2.65625 -25.875 C 2.65625 -26.351562 2.894531 -26.59375 3.375 -26.59375 L 12.1875 -26.59375 C 12.675781 -26.59375 12.921875 -26.351562 12.921875 -25.875 L 12.921875 -3 C 12.921875 -2.519531 13.160156 -2.28125 13.640625 -2.28125 L 14.46875 -2.28125 C 14.945312 -2.28125 15.1875 -2.519531 15.1875 -3 L 15.1875 -3.84375 C 15.1875 -4.320312 15.429688 -4.5625 15.921875 -4.5625 L 16.75 -4.5625 C 17.226562 -4.5625 17.46875 -4.800781 17.46875 -5.28125 L 17.46875 -25.875 C 17.46875 -26.351562 17.707031 -26.59375 18.1875 -26.59375 L 27 -26.59375 C 27.488281 -26.59375 27.734375 -26.351562 27.734375 -25.875 L 27.734375 4.21875 C 27.734375 4.695312 27.488281 4.9375 27 4.9375 L 26.171875 4.9375 C 25.691406 4.9375 25.453125 5.175781 25.453125 5.65625 L 25.453125 6.5 C 25.453125 6.976562 25.210938 7.21875 24.734375 7.21875 L 23.890625 7.21875 C 23.410156 7.21875 23.171875 7.457031 23.171875 7.9375 L 23.171875 8.78125 C 23.171875 9.257812 22.929688 9.5 22.453125 9.5 L 5.65625 9.5 C 5.175781 9.5 4.9375 9.257812 4.9375 8.78125 L 4.9375 7.9375 C 4.9375 7.457031 4.695312 7.21875 4.21875 7.21875 L 3.375 7.21875 C 3.175781 7.21875 3.078125 7.21875 3.078125 7.21875 C 3.078125 7.21875 3.175781 7.21875 3.375 7.21875 L 4.21875 7.21875 C 4.414062 7.21875 4.515625 7.21875 4.515625 7.21875 C 4.515625 7.21875 4.414062 7.21875 4.21875 7.21875 L 3.375 7.21875 C 2.894531 7.21875 2.65625 6.976562 2.65625 6.5 L 2.65625 3.375 C 2.65625 2.894531 2.894531 2.65625 3.375 2.65625 L 12.1875 2.65625 C 12.675781 2.65625 12.921875 2.894531 12.921875 3.375 L 12.921875 3.984375 C 12.921875 4.460938 13.160156 4.703125 13.640625 4.703125 L 14.09375 4.703125 C 14.570312 4.703125 14.8125 4.945312 14.8125 5.4375 L 14.8125 6.5 C 14.8125 6.976562 15.050781 7.21875 15.53125 7.21875 L 17.890625 7.21875 C 18.367188 7.21875 18.609375 6.976562 18.609375 6.5 L 18.609375 -1.5625 C 18.609375 -2.039062 18.367188 -2.28125 17.890625 -2.28125 L 17.0625 -2.28125 C 16.570312 -2.28125 16.328125 -2.039062 16.328125 -1.5625 L 16.328125 -0.71875 C 16.328125 -0.238281 16.085938 0 15.609375 0 L 5.65625 0 C 5.175781 0 4.9375 -0.238281 4.9375 -0.71875 Z M 4.9375 -0.71875 "/></g></g></g><g fill="#ffec45" fill-opacity="1"><g transform="translate(15.949227, 167.226695)"><g><path d="M 6.453125 -0.71875 L 6.453125 -1.5625 C 6.453125 -2.039062 6.210938 -2.28125 5.734375 -2.28125 L 4.90625 -2.28125 C 4.414062 -2.28125 4.171875 -2.519531 4.171875 -3 L 4.171875 -23.625 C 4.171875 -24.101562 3.929688 -24.34375 3.453125 -24.34375 L 2.234375 -24.34375 C 1.753906 -24.34375 1.515625 -24.582031 1.515625 -25.0625 L 1.515625 -25.875 C 1.515625 -26.351562 1.753906 -26.59375 2.234375 -26.59375 L 3.453125 -26.59375 C 3.929688 -26.59375 4.171875 -26.832031 4.171875 -27.3125 L 4.171875 -32.59375 C 4.171875 -33.070312 4.414062 -33.3125 4.90625 -33.3125 L 13.71875 -33.3125 C 14.195312 -33.3125 14.4375 -33.070312 14.4375 -32.59375 L 14.4375 -27.3125 C 14.4375 -26.832031 14.675781 -26.59375 15.15625 -26.59375 L 18.984375 -26.59375 C 19.472656 -26.59375 19.71875 -26.351562 19.71875 -25.875 L 19.71875 -25.0625 C 19.71875 -24.582031 19.472656 -24.34375 18.984375 -24.34375 L 15.15625 -24.34375 C 14.675781 -24.34375 14.4375 -24.101562 14.4375 -23.625 L 14.4375 -3 C 14.4375 -2.519531 14.675781 -2.28125 15.15625 -2.28125 L 15.984375 -2.28125 C 16.472656 -2.28125 16.71875 -2.519531 16.71875 -3 L 16.71875 -6.875 C 16.71875 -7.351562 16.957031 -7.59375 17.4375 -7.59375 L 23.59375 -7.59375 C 24.070312 -7.59375 24.3125 -7.351562 24.3125 -6.875 L 24.3125 -3 C 24.3125 -2.519531 24.070312 -2.28125 23.59375 -2.28125 L 21.609375 -2.28125 C 21.128906 -2.28125 20.890625 -2.039062 20.890625 -1.5625 L 20.890625 -0.71875 C 20.890625 -0.238281 20.648438 0 20.171875 0 L 7.171875 0 C 6.691406 0 6.453125 -0.238281 6.453125 -0.71875 Z M 6.453125 -0.71875 "/></g></g></g><g fill="#ffec45" fill-opacity="1"><g transform="translate(40.636511, 167.226695)"><g><path d="M 2.65625 -0.71875 L 2.65625 -35.96875 C 2.65625 -36.445312 2.894531 -36.6875 3.375 -36.6875 L 12.1875 -36.6875 C 12.675781 -36.6875 12.921875 -36.445312 12.921875 -35.96875 L 12.921875 -24.875 C 12.921875 -24.5 13.109375 -24.3125 13.484375 -24.3125 C 13.859375 -24.3125 14.046875 -24.5 14.046875 -24.875 L 14.046875 -25.875 C 14.046875 -26.351562 14.289062 -26.59375 14.78125 -26.59375 L 24.734375 -26.59375 C 25.210938 -26.59375 25.453125 -26.351562 25.453125 -25.875 L 25.453125 -25.03125 C 25.453125 -24.550781 25.691406 -24.3125 26.171875 -24.3125 L 27 -24.3125 C 27.207031 -24.3125 27.3125 -24.3125 27.3125 -24.3125 C 27.3125 -24.3125 27.207031 -24.3125 27 -24.3125 L 26.171875 -24.3125 C 25.972656 -24.3125 25.875 -24.3125 25.875 -24.3125 C 25.875 -24.3125 25.972656 -24.3125 26.171875 -24.3125 L 27 -24.3125 C 27.488281 -24.3125 27.734375 -24.070312 27.734375 -23.59375 L 27.734375 -0.71875 C 27.734375 -0.238281 27.488281 0 27 0 L 18.1875 0 C 17.707031 0 17.46875 -0.238281 17.46875 -0.71875 L 17.46875 -23.59375 C 17.46875 -24.070312 17.226562 -24.3125 16.75 -24.3125 L 15.921875 -24.3125 C 15.429688 -24.3125 15.1875 -24.070312 15.1875 -23.59375 L 15.1875 -22.75 C 15.1875 -22.269531 14.945312 -22.03125 14.46875 -22.03125 L 13.640625 -22.03125 C 13.160156 -22.03125 12.921875 -21.789062 12.921875 -21.3125 L 12.921875 -0.71875 C 12.921875 -0.238281 12.675781 0 12.1875 0 L 3.375 0 C 2.894531 0 2.65625 -0.238281 2.65625 -0.71875 Z M 2.65625 -0.71875 "/></g></g></g><g fill="#ffec45" fill-opacity="1"><g transform="translate(71.020859, 167.226695)"><g><path d="M 15.984375 -12.109375 L 12.875 -12.109375 C 12.394531 -12.109375 12.15625 -11.867188 12.15625 -11.390625 L 12.15625 -3 C 12.15625 -2.519531 12.394531 -2.28125 12.875 -2.28125 L 13.71875 -2.28125 C 14.195312 -2.28125 14.4375 -2.519531 14.4375 -3 L 14.4375 -3.84375 C 14.4375 -4.320312 14.675781 -4.5625 15.15625 -4.5625 L 15.984375 -4.5625 C 16.472656 -4.5625 16.71875 -4.800781 16.71875 -5.28125 L 16.71875 -11.390625 C 16.71875 -11.867188 16.472656 -12.109375 15.984375 -12.109375 Z M 4.171875 -0.71875 L 4.171875 -1.5625 C 4.171875 -2.039062 3.929688 -2.28125 3.453125 -2.28125 L 2.625 -2.28125 C 2.144531 -2.28125 1.90625 -2.519531 1.90625 -3 L 1.90625 -11.390625 C 1.90625 -11.867188 2.144531 -12.109375 2.625 -12.109375 L 3.453125 -12.109375 C 3.929688 -12.109375 4.171875 -12.351562 4.171875 -12.84375 L 4.171875 -13.671875 C 4.171875 -14.148438 4.414062 -14.390625 4.90625 -14.390625 L 13.71875 -14.390625 C 14.195312 -14.390625 14.4375 -14.632812 14.4375 -15.125 L 14.4375 -15.953125 C 14.4375 -16.429688 14.675781 -16.671875 15.15625 -16.671875 L 17.125 -16.671875 C 17.613281 -16.671875 17.859375 -16.910156 17.859375 -17.390625 L 17.859375 -23.59375 C 17.859375 -24.070312 17.613281 -24.3125 17.125 -24.3125 L 15.15625 -24.3125 C 14.675781 -24.3125 14.4375 -24.070312 14.4375 -23.59375 L 14.4375 -20.46875 C 14.4375 -19.988281 14.195312 -19.75 13.71875 -19.75 L 12.875 -19.75 C 12.394531 -19.75 12.15625 -19.507812 12.15625 -19.03125 L 12.15625 -17.0625 C 12.15625 -16.570312 11.914062 -16.328125 11.4375 -16.328125 L 3.765625 -16.328125 C 3.273438 -16.328125 3.03125 -16.570312 3.03125 -17.0625 L 3.03125 -23.59375 C 3.03125 -24.070312 3.273438 -24.3125 3.765625 -24.3125 L 5.171875 -24.3125 C 5.648438 -24.3125 5.890625 -24.550781 5.890625 -25.03125 L 5.890625 -25.875 C 5.890625 -26.351562 6.128906 -26.59375 6.609375 -26.59375 L 23.96875 -26.59375 C 24.445312 -26.59375 24.6875 -26.351562 24.6875 -25.875 L 24.6875 -25.03125 C 24.6875 -24.550781 24.925781 -24.3125 25.40625 -24.3125 L 26.25 -24.3125 C 26.726562 -24.3125 26.96875 -24.070312 26.96875 -23.59375 L 26.96875 -0.71875 C 26.96875 -0.238281 26.726562 0 26.25 0 L 19.71875 0 C 19.226562 0 18.984375 -0.238281 18.984375 -0.71875 L 18.984375 -1.5625 C 18.984375 -2.039062 18.742188 -2.28125 18.265625 -2.28125 L 17.4375 -2.28125 C 16.957031 -2.28125 16.71875 -2.039062 16.71875 -1.5625 L 16.71875 -0.71875 C 16.71875 -0.238281 16.472656 0 15.984375 0 L 4.90625 0 C 4.414062 0 4.171875 -0.238281 4.171875 -0.71875 Z M 4.171875 -0.71875 "/></g></g></g><g fill="#ffec45" fill-opacity="1"><g transform="translate(100.645593, 167.226695)"><g><path d="M 6.453125 -0.71875 L 6.453125 -1.5625 C 6.453125 -2.039062 6.210938 -2.28125 5.734375 -2.28125 L 4.90625 -2.28125 C 4.414062 -2.28125 4.171875 -2.519531 4.171875 -3 L 4.171875 -23.625 C 4.171875 -24.101562 3.929688 -24.34375 3.453125 -24.34375 L 2.234375 -24.34375 C 1.753906 -24.34375 1.515625 -24.582031 1.515625 -25.0625 L 1.515625 -25.875 C 1.515625 -26.351562 1.753906 -26.59375 2.234375 -26.59375 L 3.453125 -26.59375 C 3.929688 -26.59375 4.171875 -26.832031 4.171875 -27.3125 L 4.171875 -32.59375 C 4.171875 -33.070312 4.414062 -33.3125 4.90625 -33.3125 L 13.71875 -33.3125 C 14.195312 -33.3125 14.4375 -33.070312 14.4375 -32.59375 L 14.4375 -27.3125 C 14.4375 -26.832031 14.675781 -26.59375 15.15625 -26.59375 L 18.984375 -26.59375 C 19.472656 -26.59375 19.71875 -26.351562 19.71875 -25.875 L 19.71875 -25.0625 C 19.71875 -24.582031 19.472656 -24.34375 18.984375 -24.34375 L 15.15625 -24.34375 C 14.675781 -24.34375 14.4375 -24.101562 14.4375 -23.625 L 14.4375 -3 C 14.4375 -2.519531 14.675781 -2.28125 15.15625 -2.28125 L 15.984375 -2.28125 C 16.472656 -2.28125 16.71875 -2.519531 16.71875 -3 L 16.71875 -6.875 C 16.71875 -7.351562 16.957031 -7.59375 17.4375 -7.59375 L 23.59375 -7.59375 C 24.070312 -7.59375 24.3125 -7.351562 24.3125 -6.875 L 24.3125 -3 C 24.3125 -2.519531 24.070312 -2.28125 23.59375 -2.28125 L 21.609375 -2.28125 C 21.128906 -2.28125 20.890625 -2.039062 20.890625 -1.5625 L 20.890625 -0.71875 C 20.890625 -0.238281 20.648438 0 20.171875 0 L 7.171875 0 C 6.691406 0 6.453125 -0.238281 6.453125 -0.71875 Z M 6.453125 -0.71875 "/></g></g></g><g fill="#ffec45" fill-opacity="1"><g transform="translate(125.332877, 167.226695)"><g><path d="M 4.171875 -26.0625 L 4.171875 -26.140625 C 4.171875 -26.585938 3.945312 -26.8125 3.5 -26.8125 C 2.9375 -26.8125 2.65625 -27.09375 2.65625 -27.65625 L 2.65625 -33.203125 C 2.65625 -33.753906 2.9375 -34.03125 3.5 -34.03125 C 3.945312 -34.03125 4.171875 -34.257812 4.171875 -34.71875 L 4.171875 -34.796875 C 4.171875 -35.296875 4.425781 -35.546875 4.9375 -35.546875 L 10.5625 -35.546875 C 11.113281 -35.546875 11.390625 -35.269531 11.390625 -34.71875 C 11.390625 -34.257812 11.617188 -34.03125 12.078125 -34.03125 L 12.15625 -34.03125 C 12.664062 -34.03125 12.921875 -33.78125 12.921875 -33.28125 L 12.921875 -20.546875 C 12.921875 -19.910156 12.601562 -19.59375 11.96875 -19.59375 L 10.453125 -19.59375 C 9.816406 -19.59375 9.5 -19.910156 9.5 -20.546875 L 9.5 -24.34375 C 9.5 -24.976562 9.179688 -25.296875 8.546875 -25.296875 L 4.9375 -25.296875 C 4.425781 -25.296875 4.171875 -25.550781 4.171875 -26.0625 Z M 4.171875 -26.0625 "/></g></g></g><g fill="#ffec45" fill-opacity="1"><g transform="translate(140.904852, 167.226695)"><g><path d="M 4.5625 -0.71875 L 4.5625 -1.5625 C 4.5625 -2.039062 4.320312 -2.28125 3.84375 -2.28125 L 3 -2.28125 C 2.519531 -2.28125 2.28125 -2.519531 2.28125 -3 L 2.28125 -9.53125 C 2.28125 -10.007812 2.519531 -10.25 3 -10.25 L 11.8125 -10.25 C 12.289062 -10.25 12.53125 -10.007812 12.53125 -9.53125 L 12.53125 -3 C 12.53125 -2.519531 12.769531 -2.28125 13.25 -2.28125 L 14.09375 -2.28125 C 14.570312 -2.28125 14.8125 -2.519531 14.8125 -3 L 14.8125 -3.84375 C 14.8125 -4.320312 15.050781 -4.5625 15.53125 -4.5625 L 16.40625 -4.5625 C 16.882812 -4.5625 17.125 -4.800781 17.125 -5.28125 L 17.125 -9.078125 C 17.125 -9.554688 16.882812 -9.796875 16.40625 -9.796875 L 15.578125 -9.796875 C 15.097656 -9.796875 14.859375 -10.035156 14.859375 -10.515625 L 14.859375 -11.359375 C 14.859375 -11.835938 14.613281 -12.078125 14.125 -12.078125 L 5.28125 -12.078125 C 4.800781 -12.078125 4.5625 -12.316406 4.5625 -12.796875 L 4.5625 -13.640625 C 4.5625 -14.117188 4.320312 -14.359375 3.84375 -14.359375 L 3 -14.359375 C 2.519531 -14.359375 2.28125 -14.597656 2.28125 -15.078125 L 2.28125 -23.59375 C 2.28125 -24.070312 2.519531 -24.3125 3 -24.3125 L 3.578125 -24.3125 C 4.054688 -24.3125 4.296875 -24.550781 4.296875 -25.03125 L 4.296875 -25.875 C 4.296875 -26.351562 4.535156 -26.59375 5.015625 -26.59375 L 23.96875 -26.59375 C 24.445312 -26.59375 24.6875 -26.351562 24.6875 -25.875 L 24.6875 -25.03125 C 24.6875 -24.550781 24.925781 -24.3125 25.40625 -24.3125 L 26.25 -24.3125 C 26.726562 -24.3125 26.96875 -24.070312 26.96875 -23.59375 L 26.96875 -17.0625 C 26.96875 -16.570312 26.726562 -16.328125 26.25 -16.328125 L 20.09375 -16.328125 C 19.613281 -16.328125 19.375 -16.570312 19.375 -17.0625 L 19.375 -17.890625 C 19.375 -18.367188 19.132812 -18.609375 18.65625 -18.609375 L 17.8125 -18.609375 C 17.332031 -18.609375 17.09375 -18.847656 17.09375 -19.328125 L 17.09375 -23.59375 C 17.09375 -24.070312 16.851562 -24.3125 16.375 -24.3125 L 15.53125 -24.3125 C 15.050781 -24.3125 14.8125 -24.070312 14.8125 -23.59375 L 14.8125 -22.75 C 14.8125 -22.269531 14.570312 -22.03125 14.09375 -22.03125 L 13.25 -22.03125 C 12.769531 -22.03125 12.53125 -21.789062 12.53125 -21.3125 L 12.53125 -17.359375 C 12.53125 -16.878906 12.769531 -16.640625 13.25 -16.640625 L 14.09375 -16.640625 C 14.570312 -16.640625 14.8125 -16.398438 14.8125 -15.921875 L 14.8125 -15.078125 C 14.8125 -14.597656 15.050781 -14.359375 15.53125 -14.359375 L 24 -14.359375 C 24.488281 -14.359375 24.734375 -14.117188 24.734375 -13.640625 L 24.734375 -12.796875 C 24.734375 -12.316406 24.972656 -12.078125 25.453125 -12.078125 L 26.28125 -12.078125 C 26.757812 -12.078125 27 -11.835938 27 -11.359375 L 27 -3 C 27 -2.519531 26.757812 -2.28125 26.28125 -2.28125 L 25.453125 -2.28125 C 24.972656 -2.28125 24.734375 -2.039062 24.734375 -1.5625 L 24.734375 -0.71875 C 24.734375 -0.238281 24.488281 0 24 0 L 5.28125 0 C 4.800781 0 4.5625 -0.238281 4.5625 -0.71875 Z M 4.5625 -0.71875 "/></g></g></g><g fill="#ffec45" fill-opacity="1"><g transform="translate(170.529586, 167.226695)"><g/></g></g><g fill="#ffec45" fill-opacity="1"><g transform="translate(180.024691, 167.226695)"><g><path d="M 2.65625 -0.71875 L 2.65625 -25.875 C 2.65625 -26.351562 2.894531 -26.59375 3.375 -26.59375 L 8.78125 -26.59375 C 9.257812 -26.59375 9.5 -26.351562 9.5 -25.875 L 9.5 -22.75 C 9.5 -22.269531 9.738281 -22.03125 10.21875 -22.03125 L 11.046875 -22.03125 C 11.535156 -22.03125 11.78125 -22.269531 11.78125 -22.75 L 11.78125 -23.59375 C 11.78125 -24.070312 12.019531 -24.3125 12.5 -24.3125 L 13.328125 -24.3125 C 13.804688 -24.3125 14.046875 -24.550781 14.046875 -25.03125 L 14.046875 -25.875 C 14.046875 -26.351562 14.289062 -26.59375 14.78125 -26.59375 L 21.3125 -26.59375 C 21.789062 -26.59375 22.03125 -26.351562 22.03125 -25.875 L 22.03125 -25.03125 C 22.03125 -24.550781 22.269531 -24.3125 22.75 -24.3125 L 23.59375 -24.3125 C 23.789062 -24.3125 23.890625 -24.3125 23.890625 -24.3125 C 23.890625 -24.3125 23.789062 -24.3125 23.59375 -24.3125 L 22.75 -24.3125 C 22.550781 -24.3125 22.453125 -24.3125 22.453125 -24.3125 C 22.453125 -24.3125 22.550781 -24.3125 22.75 -24.3125 L 23.59375 -24.3125 C 24.070312 -24.3125 24.3125 -24.070312 24.3125 -23.59375 L 24.3125 -18.34375 C 24.3125 -17.863281 24.070312 -17.625 23.59375 -17.625 L 15.921875 -17.625 C 15.429688 -17.625 15.1875 -17.863281 15.1875 -18.34375 L 15.1875 -21.3125 C 15.1875 -21.789062 14.945312 -22.03125 14.46875 -22.03125 L 13.640625 -22.03125 C 13.160156 -22.03125 12.921875 -21.789062 12.921875 -21.3125 L 12.921875 -0.71875 C 12.921875 -0.238281 12.675781 0 12.1875 0 L 3.375 0 C 2.894531 0 2.65625 -0.238281 2.65625 -0.71875 Z M 2.65625 -0.71875 "/></g></g></g><g fill="#ffec45" fill-opacity="1"><g transform="translate(205.091782, 167.226695)"><g><path d="M 7.21875 -0.71875 L 7.21875 -1.5625 C 7.21875 -2.039062 6.976562 -2.28125 6.5 -2.28125 L 5.65625 -2.28125 C 5.175781 -2.28125 4.9375 -2.519531 4.9375 -3 L 4.9375 -3.84375 C 4.9375 -4.320312 4.695312 -4.5625 4.21875 -4.5625 L 3.375 -4.5625 C 2.894531 -4.5625 2.65625 -4.800781 2.65625 -5.28125 L 2.65625 -21.3125 C 2.65625 -21.789062 2.894531 -22.03125 3.375 -22.03125 L 4.21875 -22.03125 C 4.695312 -22.03125 4.9375 -22.269531 4.9375 -22.75 L 4.9375 -23.59375 C 4.9375 -24.070312 5.175781 -24.3125 5.65625 -24.3125 L 6.5 -24.3125 C 6.976562 -24.3125 7.21875 -24.550781 7.21875 -25.03125 L 7.21875 -25.875 C 7.21875 -26.351562 7.457031 -26.59375 7.9375 -26.59375 L 22.453125 -26.59375 C 22.929688 -26.59375 23.171875 -26.351562 23.171875 -25.875 L 23.171875 -25.03125 C 23.171875 -24.550781 23.410156 -24.3125 23.890625 -24.3125 L 24.734375 -24.3125 C 25.210938 -24.3125 25.453125 -24.070312 25.453125 -23.59375 L 25.453125 -22.75 C 25.453125 -22.269531 25.691406 -22.03125 26.171875 -22.03125 L 27 -22.03125 C 27.488281 -22.03125 27.734375 -21.789062 27.734375 -21.3125 L 27.734375 -5.28125 C 27.734375 -4.800781 27.488281 -4.5625 27 -4.5625 L 26.171875 -4.5625 C 25.691406 -4.5625 25.453125 -4.320312 25.453125 -3.84375 L 25.453125 -3 C 25.453125 -2.519531 25.210938 -2.28125 24.734375 -2.28125 L 23.890625 -2.28125 C 23.410156 -2.28125 23.171875 -2.039062 23.171875 -1.5625 L 23.171875 -0.71875 C 23.171875 -0.238281 22.929688 0 22.453125 0 L 7.9375 0 C 7.457031 0 7.21875 -0.238281 7.21875 -0.71875 Z M 15.921875 -4.5625 L 16.75 -4.5625 C 17.226562 -4.5625 17.46875 -4.800781 17.46875 -5.28125 L 17.46875 -23.59375 C 17.46875 -24.070312 17.226562 -24.3125 16.75 -24.3125 L 15.921875 -24.3125 C 15.429688 -24.3125 15.1875 -24.070312 15.1875 -23.59375 L 15.1875 -22.75 C 15.1875 -22.269531 14.945312 -22.03125 14.46875 -22.03125 L 13.640625 -22.03125 C 13.160156 -22.03125 12.921875 -21.789062 12.921875 -21.3125 L 12.921875 -3 C 12.921875 -2.519531 13.160156 -2.28125 13.640625 -2.28125 L 14.46875 -2.28125 C 14.945312 -2.28125 15.1875 -2.519531 15.1875 -3 L 15.1875 -3.84375 C 15.1875 -4.320312 15.429688 -4.5625 15.921875 -4.5625 Z M 15.921875 -4.5625 "/></g></g></g><g fill="#ffec45" fill-opacity="1"><g transform="translate(235.476142, 167.226695)"><g><path d="M 7.21875 -0.6875 L 7.21875 -1.515625 C 7.21875 -1.992188 6.976562 -2.234375 6.5 -2.234375 L 5.65625 -2.234375 C 5.175781 -2.234375 4.9375 -2.476562 4.9375 -2.96875 L 4.9375 -3.796875 C 4.9375 -4.273438 4.695312 -4.515625 4.21875 -4.515625 L 3.375 -4.515625 C 2.894531 -4.515625 2.65625 -4.753906 2.65625 -5.234375 L 2.65625 -25.828125 C 2.65625 -26.304688 2.894531 -26.546875 3.375 -26.546875 L 12.1875 -26.546875 C 12.675781 -26.546875 12.921875 -26.304688 12.921875 -25.828125 L 12.921875 -2.96875 C 12.921875 -2.476562 13.160156 -2.234375 13.640625 -2.234375 L 14.46875 -2.234375 C 14.945312 -2.234375 15.1875 -2.476562 15.1875 -2.96875 L 15.1875 -3.796875 C 15.1875 -4.273438 15.429688 -4.515625 15.921875 -4.515625 L 16.75 -4.515625 C 17.226562 -4.515625 17.46875 -4.753906 17.46875 -5.234375 L 17.46875 -25.828125 C 17.46875 -26.304688 17.707031 -26.546875 18.1875 -26.546875 L 27 -26.546875 C 27.488281 -26.546875 27.734375 -26.304688 27.734375 -25.828125 L 27.734375 -5.234375 C 27.734375 -4.753906 27.488281 -4.515625 27 -4.515625 L 26.171875 -4.515625 C 25.691406 -4.515625 25.453125 -4.273438 25.453125 -3.796875 L 25.453125 -2.96875 C 25.453125 -2.476562 25.210938 -2.234375 24.734375 -2.234375 L 23.890625 -2.234375 C 23.410156 -2.234375 23.171875 -1.992188 23.171875 -1.515625 L 23.171875 -0.6875 C 23.171875 -0.207031 22.929688 0.03125 22.453125 0.03125 L 7.9375 0.03125 C 7.457031 0.03125 7.21875 -0.207031 7.21875 -0.6875 Z M 7.21875 -0.6875 "/></g></g></g><g fill="#ffec45" fill-opacity="1"><g transform="translate(265.860477, 167.226695)"><g><path d="M 13.640625 -2.28125 L 14.46875 -2.28125 C 14.945312 -2.28125 15.1875 -2.519531 15.1875 -3 L 15.1875 -3.84375 C 15.1875 -4.320312 15.429688 -4.5625 15.921875 -4.5625 L 16.75 -4.5625 C 17.226562 -4.5625 17.46875 -4.800781 17.46875 -5.28125 L 17.46875 -23.515625 C 17.46875 -23.992188 17.226562 -24.234375 16.75 -24.234375 L 15.921875 -24.234375 C 15.429688 -24.234375 15.1875 -23.992188 15.1875 -23.515625 L 15.1875 -22.671875 C 15.1875 -22.191406 14.945312 -21.953125 14.46875 -21.953125 L 13.640625 -21.953125 C 13.160156 -21.953125 12.921875 -21.710938 12.921875 -21.234375 L 12.921875 -3 C 12.921875 -2.519531 13.160156 -2.28125 13.640625 -2.28125 Z M 4.9375 -0.71875 L 4.9375 -1.5625 C 4.9375 -2.039062 4.695312 -2.28125 4.21875 -2.28125 L 3.375 -2.28125 C 3.175781 -2.28125 3.078125 -2.28125 3.078125 -2.28125 C 3.078125 -2.28125 3.175781 -2.28125 3.375 -2.28125 L 4.21875 -2.28125 C 4.414062 -2.28125 4.515625 -2.28125 4.515625 -2.28125 C 4.515625 -2.28125 4.414062 -2.28125 4.21875 -2.28125 L 3.375 -2.28125 C 2.894531 -2.28125 2.65625 -2.519531 2.65625 -3 L 2.65625 -21.3125 C 2.65625 -21.789062 2.894531 -22.03125 3.375 -22.03125 L 4.21875 -22.03125 C 4.695312 -22.03125 4.9375 -22.269531 4.9375 -22.75 L 4.9375 -23.59375 C 4.9375 -24.070312 5.175781 -24.3125 5.65625 -24.3125 L 6.5 -24.3125 C 6.976562 -24.3125 7.21875 -24.550781 7.21875 -25.03125 L 7.21875 -25.875 C 7.21875 -26.351562 7.457031 -26.59375 7.9375 -26.59375 L 24.765625 -26.59375 C 25.242188 -26.59375 25.484375 -26.351562 25.484375 -25.875 L 25.484375 -25.03125 C 25.484375 -24.550781 25.722656 -24.3125 26.203125 -24.3125 L 27 -24.3125 C 27.488281 -24.3125 27.734375 -24.070312 27.734375 -23.59375 L 27.734375 4.21875 C 27.734375 4.695312 27.488281 4.9375 27 4.9375 L 26.171875 4.9375 C 25.691406 4.9375 25.453125 5.175781 25.453125 5.65625 L 25.453125 6.5 C 25.453125 6.976562 25.210938 7.21875 24.734375 7.21875 L 23.890625 7.21875 C 23.410156 7.21875 23.171875 7.457031 23.171875 7.9375 L 23.171875 8.78125 C 23.171875 9.257812 22.929688 9.5 22.453125 9.5 L 5.65625 9.5 C 5.175781 9.5 4.9375 9.257812 4.9375 8.78125 L 4.9375 7.9375 C 4.9375 7.457031 4.695312 7.21875 4.21875 7.21875 L 3.375 7.21875 C 3.175781 7.21875 3.078125 7.21875 3.078125 7.21875 C 3.078125 7.21875 3.175781 7.21875 3.375 7.21875 L 4.21875 7.21875 C 4.414062 7.21875 4.515625 7.21875 4.515625 7.21875 C 4.515625 7.21875 4.414062 7.21875 4.21875 7.21875 L 3.375 7.21875 C 2.894531 7.21875 2.65625 6.976562 2.65625 6.5 L 2.65625 3.375 C 2.65625 2.894531 2.894531 2.65625 3.375 2.65625 L 12.1875 2.65625 C 12.675781 2.65625 12.921875 2.894531 12.921875 3.375 L 12.921875 3.984375 C 12.921875 4.460938 13.160156 4.703125 13.640625 4.703125 L 14.09375 4.703125 C 14.570312 4.703125 14.8125 4.945312 14.8125 5.4375 L 14.8125 6.5 C 14.8125 6.976562 15.050781 7.21875 15.53125 7.21875 L 17.890625 7.21875 C 18.367188 7.21875 18.609375 6.976562 18.609375 6.5 L 18.609375 -1.5625 C 18.609375 -2.039062 18.367188 -2.28125 17.890625 -2.28125 L 17.0625 -2.28125 C 16.570312 -2.28125 16.328125 -2.039062 16.328125 -1.5625 L 16.328125 -0.71875 C 16.328125 -0.238281 16.085938 0 15.609375 0 L 5.65625 0 C 5.175781 0 4.9375 -0.238281 4.9375 -0.71875 Z M 4.9375 -0.71875 "/></g></g></g><g fill="#ffec45" fill-opacity="1"><g transform="translate(296.244813, 167.226695)"><g><path d="M 2.65625 -0.71875 L 2.65625 -35.96875 C 2.65625 -36.445312 2.894531 -36.6875 3.375 -36.6875 L 12.1875 -36.6875 C 12.675781 -36.6875 12.921875 -36.445312 12.921875 -35.96875 L 12.921875 -24.875 C 12.921875 -24.5 13.109375 -24.3125 13.484375 -24.3125 C 13.859375 -24.3125 14.046875 -24.5 14.046875 -24.875 L 14.046875 -25.875 C 14.046875 -26.351562 14.289062 -26.59375 14.78125 -26.59375 L 24.734375 -26.59375 C 25.210938 -26.59375 25.453125 -26.351562 25.453125 -25.875 L 25.453125 -25.03125 C 25.453125 -24.550781 25.691406 -24.3125 26.171875 -24.3125 L 27 -24.3125 C 27.207031 -24.3125 27.3125 -24.3125 27.3125 -24.3125 C 27.3125 -24.3125 27.207031 -24.3125 27 -24.3125 L 26.171875 -24.3125 C 25.972656 -24.3125 25.875 -24.3125 25.875 -24.3125 C 25.875 -24.3125 25.972656 -24.3125 26.171875 -24.3125 L 27 -24.3125 C 27.488281 -24.3125 27.734375 -24.070312 27.734375 -23.59375 L 27.734375 -0.71875 C 27.734375 -0.238281 27.488281 0 27 0 L 18.1875 0 C 17.707031 0 17.46875 -0.238281 17.46875 -0.71875 L 17.46875 -23.59375 C 17.46875 -24.070312 17.226562 -24.3125 16.75 -24.3125 L 15.921875 -24.3125 C 15.429688 -24.3125 15.1875 -24.070312 15.1875 -23.59375 L 15.1875 -22.75 C 15.1875 -22.269531 14.945312 -22.03125 14.46875 -22.03125 L 13.640625 -22.03125 C 13.160156 -22.03125 12.921875 -21.789062 12.921875 -21.3125 L 12.921875 -0.71875 C 12.921875 -0.238281 12.675781 0 12.1875 0 L 3.375 0 C 2.894531 0 2.65625 -0.238281 2.65625 -0.71875 Z M 2.65625 -0.71875 "/></g></g></g><g fill="#ffec45" fill-opacity="1"><g transform="translate(326.629149, 167.226695)"><g/></g></g><g fill="#ffec45" fill-opacity="1"><g transform="translate(336.124266, 167.226695)"><g><path d="M 14.46875 -22.03125 L 13.640625 -22.03125 C 13.160156 -22.03125 12.921875 -21.789062 12.921875 -21.3125 L 12.921875 -3 C 12.921875 -2.519531 13.160156 -2.28125 13.640625 -2.28125 L 14.46875 -2.28125 C 14.945312 -2.28125 15.1875 -2.519531 15.1875 -3 L 15.1875 -3.84375 C 15.1875 -4.320312 15.429688 -4.5625 15.921875 -4.5625 L 16.75 -4.5625 C 17.226562 -4.5625 17.46875 -4.800781 17.46875 -5.28125 L 17.46875 -23.59375 C 17.46875 -24.070312 17.226562 -24.3125 16.75 -24.3125 L 15.921875 -24.3125 C 15.429688 -24.3125 15.1875 -24.070312 15.1875 -23.59375 L 15.1875 -22.75 C 15.1875 -22.269531 14.945312 -22.03125 14.46875 -22.03125 Z M 2.65625 -0.71875 L 2.65625 -35.359375 C 2.65625 -35.835938 2.894531 -36.078125 3.375 -36.078125 L 12.1875 -36.078125 C 12.675781 -36.078125 12.921875 -35.835938 12.921875 -35.359375 L 12.921875 -27.3125 C 12.921875 -26.832031 13.160156 -26.59375 13.640625 -26.59375 L 22.453125 -26.59375 C 22.929688 -26.59375 23.171875 -26.351562 23.171875 -25.875 L 23.171875 -25.03125 C 23.171875 -24.550781 23.410156 -24.3125 23.890625 -24.3125 L 24.734375 -24.3125 C 25.210938 -24.3125 25.453125 -24.070312 25.453125 -23.59375 L 25.453125 -22.75 C 25.453125 -22.269531 25.691406 -22.03125 26.171875 -22.03125 L 27 -22.03125 C 27.488281 -22.03125 27.734375 -21.789062 27.734375 -21.3125 L 27.734375 -3.03125 C 27.734375 -2.550781 27.488281 -2.3125 27 -2.3125 L 26.171875 -2.3125 C 25.691406 -2.3125 25.453125 -2.070312 25.453125 -1.59375 L 25.453125 -0.71875 C 25.453125 -0.238281 25.210938 0 24.734375 0 L 3.375 0 C 2.894531 0 2.65625 -0.238281 2.65625 -0.71875 Z M 2.65625 -0.71875 "/></g></g></g><g fill="#ffec45" fill-opacity="1"><g transform="translate(366.508601, 167.226695)"><g><path d="M 7.21875 -0.6875 L 7.21875 -1.515625 C 7.21875 -1.992188 6.976562 -2.234375 6.5 -2.234375 L 5.65625 -2.234375 C 5.175781 -2.234375 4.9375 -2.476562 4.9375 -2.96875 L 4.9375 -3.796875 C 4.9375 -4.273438 4.695312 -4.515625 4.21875 -4.515625 L 3.375 -4.515625 C 2.894531 -4.515625 2.65625 -4.753906 2.65625 -5.234375 L 2.65625 -25.828125 C 2.65625 -26.304688 2.894531 -26.546875 3.375 -26.546875 L 12.1875 -26.546875 C 12.675781 -26.546875 12.921875 -26.304688 12.921875 -25.828125 L 12.921875 -2.96875 C 12.921875 -2.476562 13.160156 -2.234375 13.640625 -2.234375 L 14.46875 -2.234375 C 14.945312 -2.234375 15.1875 -2.476562 15.1875 -2.96875 L 15.1875 -3.796875 C 15.1875 -4.273438 15.429688 -4.515625 15.921875 -4.515625 L 16.75 -4.515625 C 17.226562 -4.515625 17.46875 -4.753906 17.46875 -5.234375 L 17.46875 -25.828125 C 17.46875 -26.304688 17.707031 -26.546875 18.1875 -26.546875 L 27 -26.546875 C 27.488281 -26.546875 27.734375 -26.304688 27.734375 -25.828125 L 27.734375 -5.234375 C 27.734375 -4.753906 27.488281 -4.515625 27 -4.515625 L 26.171875 -4.515625 C 25.691406 -4.515625 25.453125 -4.273438 25.453125 -3.796875 L 25.453125 -2.96875 C 25.453125 -2.476562 25.210938 -2.234375 24.734375 -2.234375 L 23.890625 -2.234375 C 23.410156 -2.234375 23.171875 -1.992188 23.171875 -1.515625 L 23.171875 -0.6875 C 23.171875 -0.207031 22.929688 0.03125 22.453125 0.03125 L 7.9375 0.03125 C 7.457031 0.03125 7.21875 -0.207031 7.21875 -0.6875 Z M 7.21875 -0.6875 "/></g></g></g><g fill="#ffec45" fill-opacity="1"><g transform="translate(396.892937, 167.226695)"><g><path d="M 14.46875 -22 L 13.640625 -22 C 13.160156 -22 12.921875 -21.753906 12.921875 -21.265625 L 12.921875 -2.96875 C 12.921875 -2.476562 13.160156 -2.234375 13.640625 -2.234375 L 14.46875 -2.234375 C 14.945312 -2.234375 15.1875 -2.476562 15.1875 -2.96875 L 15.1875 -3.796875 C 15.1875 -4.273438 15.429688 -4.515625 15.921875 -4.515625 L 16.75 -4.515625 C 17.226562 -4.515625 17.46875 -4.753906 17.46875 -5.234375 L 17.46875 -23.546875 C 17.46875 -24.023438 17.226562 -24.265625 16.75 -24.265625 L 15.921875 -24.265625 C 15.429688 -24.265625 15.1875 -24.023438 15.1875 -23.546875 L 15.1875 -22.71875 C 15.1875 -22.238281 14.945312 -22 14.46875 -22 Z M 7.21875 -0.6875 L 7.21875 -1.515625 C 7.21875 -1.992188 6.976562 -2.234375 6.5 -2.234375 L 5.65625 -2.234375 C 5.175781 -2.234375 4.9375 -2.476562 4.9375 -2.96875 L 4.9375 -3.796875 C 4.9375 -4.273438 4.695312 -4.515625 4.21875 -4.515625 L 3.375 -4.515625 C 2.894531 -4.515625 2.65625 -4.753906 2.65625 -5.234375 L 2.65625 -21.265625 C 2.65625 -21.753906 2.894531 -22 3.375 -22 L 4.21875 -22 C 4.695312 -22 4.9375 -22.238281 4.9375 -22.71875 L 4.9375 -23.546875 C 4.9375 -24.023438 5.175781 -24.265625 5.65625 -24.265625 L 6.5 -24.265625 C 6.976562 -24.265625 7.21875 -24.507812 7.21875 -25 L 7.21875 -25.828125 C 7.21875 -26.304688 7.457031 -26.546875 7.9375 -26.546875 L 16.75 -26.546875 C 17.226562 -26.546875 17.46875 -26.785156 17.46875 -27.265625 L 17.46875 -35.96875 C 17.46875 -36.445312 17.707031 -36.6875 18.1875 -36.6875 L 27 -36.6875 C 27.488281 -36.6875 27.734375 -36.445312 27.734375 -35.96875 L 27.734375 -0.6875 C 27.734375 -0.207031 27.488281 0.03125 27 0.03125 L 7.9375 0.03125 C 7.457031 0.03125 7.21875 -0.207031 7.21875 -0.6875 Z M 7.21875 -0.6875 "/></g></g></g><g fill="#ffec45" fill-opacity="1"><g transform="translate(427.277273, 167.226695)"><g><path d="M 14.46875 -22 L 13.640625 -22 C 13.160156 -22 12.921875 -21.753906 12.921875 -21.265625 L 12.921875 -2.96875 C 12.921875 -2.476562 13.160156 -2.234375 13.640625 -2.234375 L 14.46875 -2.234375 C 14.945312 -2.234375 15.1875 -2.476562 15.1875 -2.96875 L 15.1875 -3.796875 C 15.1875 -4.273438 15.429688 -4.515625 15.921875 -4.515625 L 16.75 -4.515625 C 17.226562 -4.515625 17.46875 -4.753906 17.46875 -5.234375 L 17.46875 -23.546875 C 17.46875 -24.023438 17.226562 -24.265625 16.75 -24.265625 L 15.921875 -24.265625 C 15.429688 -24.265625 15.1875 -24.023438 15.1875 -23.546875 L 15.1875 -22.71875 C 15.1875 -22.238281 14.945312 -22 14.46875 -22 Z M 7.21875 -0.6875 L 7.21875 -1.515625 C 7.21875 -1.992188 6.976562 -2.234375 6.5 -2.234375 L 5.65625 -2.234375 C 5.175781 -2.234375 4.9375 -2.476562 4.9375 -2.96875 L 4.9375 -3.796875 C 4.9375 -4.273438 4.695312 -4.515625 4.21875 -4.515625 L 3.375 -4.515625 C 2.894531 -4.515625 2.65625 -4.753906 2.65625 -5.234375 L 2.65625 -21.265625 C 2.65625 -21.753906 2.894531 -22 3.375 -22 L 4.21875 -22 C 4.695312 -22 4.9375 -22.238281 4.9375 -22.71875 L 4.9375 -23.546875 C 4.9375 -24.023438 5.175781 -24.265625 5.65625 -24.265625 L 6.5 -24.265625 C 6.976562 -24.265625 7.21875 -24.507812 7.21875 -25 L 7.21875 -25.828125 C 7.21875 -26.304688 7.457031 -26.546875 7.9375 -26.546875 L 16.75 -26.546875 C 17.226562 -26.546875 17.46875 -26.785156 17.46875 -27.265625 L 17.46875 -35.96875 C 17.46875 -36.445312 17.707031 -36.6875 18.1875 -36.6875 L 27 -36.6875 C 27.488281 -36.6875 27.734375 -36.445312 27.734375 -35.96875 L 27.734375 -0.6875 C 27.734375 -0.207031 27.488281 0.03125 27 0.03125 L 7.9375 0.03125 C 7.457031 0.03125 7.21875 -0.207031 7.21875 -0.6875 Z M 7.21875 -0.6875 "/></g></g></g><g fill="#ffec45" fill-opacity="1"><g transform="translate(457.661609, 167.226695)"><g><path d="M 4.9375 -0.71875 L 4.9375 -1.5625 C 4.9375 -2.039062 4.695312 -2.28125 4.21875 -2.28125 L 3.375 -2.28125 C 3.175781 -2.28125 3.078125 -2.28125 3.078125 -2.28125 C 3.078125 -2.28125 3.175781 -2.28125 3.375 -2.28125 L 4.21875 -2.28125 C 4.414062 -2.28125 4.515625 -2.28125 4.515625 -2.28125 C 4.515625 -2.28125 4.414062 -2.28125 4.21875 -2.28125 L 3.375 -2.28125 C 2.894531 -2.28125 2.65625 -2.519531 2.65625 -3 L 2.65625 -25.875 C 2.65625 -26.351562 2.894531 -26.59375 3.375 -26.59375 L 12.1875 -26.59375 C 12.675781 -26.59375 12.921875 -26.351562 12.921875 -25.875 L 12.921875 -3 C 12.921875 -2.519531 13.160156 -2.28125 13.640625 -2.28125 L 14.46875 -2.28125 C 14.945312 -2.28125 15.1875 -2.519531 15.1875 -3 L 15.1875 -3.84375 C 15.1875 -4.320312 15.429688 -4.5625 15.921875 -4.5625 L 16.75 -4.5625 C 17.226562 -4.5625 17.46875 -4.800781 17.46875 -5.28125 L 17.46875 -25.875 C 17.46875 -26.351562 17.707031 -26.59375 18.1875 -26.59375 L 27 -26.59375 C 27.488281 -26.59375 27.734375 -26.351562 27.734375 -25.875 L 27.734375 4.21875 C 27.734375 4.695312 27.488281 4.9375 27 4.9375 L 26.171875 4.9375 C 25.691406 4.9375 25.453125 5.175781 25.453125 5.65625 L 25.453125 6.5 C 25.453125 6.976562 25.210938 7.21875 24.734375 7.21875 L 23.890625 7.21875 C 23.410156 7.21875 23.171875 7.457031 23.171875 7.9375 L 23.171875 8.78125 C 23.171875 9.257812 22.929688 9.5 22.453125 9.5 L 5.65625 9.5 C 5.175781 9.5 4.9375 9.257812 4.9375 8.78125 L 4.9375 7.9375 C 4.9375 7.457031 4.695312 7.21875 4.21875 7.21875 L 3.375 7.21875 C 3.175781 7.21875 3.078125 7.21875 3.078125 7.21875 C 3.078125 7.21875 3.175781 7.21875 3.375 7.21875 L 4.21875 7.21875 C 4.414062 7.21875 4.515625 7.21875 4.515625 7.21875 C 4.515625 7.21875 4.414062 7.21875 4.21875 7.21875 L 3.375 7.21875 C 2.894531 7.21875 2.65625 6.976562 2.65625 6.5 L 2.65625 3.375 C 2.65625 2.894531 2.894531 2.65625 3.375 2.65625 L 12.1875 2.65625 C 12.675781 2.65625 12.921875 2.894531 12.921875 3.375 L 12.921875 3.984375 C 12.921875 4.460938 13.160156 4.703125 13.640625 4.703125 L 14.09375 4.703125 C 14.570312 4.703125 14.8125 4.945312 14.8125 5.4375 L 14.8125 6.5 C 14.8125 6.976562 15.050781 7.21875 15.53125 7.21875 L 17.890625 7.21875 C 18.367188 7.21875 18.609375 6.976562 18.609375 6.5 L 18.609375 -1.5625 C 18.609375 -2.039062 18.367188 -2.28125 17.890625 -2.28125 L 17.0625 -2.28125 C 16.570312 -2.28125 16.328125 -2.039062 16.328125 -1.5625 L 16.328125 -0.71875 C 16.328125 -0.238281 16.085938 0 15.609375 0 L 5.65625 0 C 5.175781 0 4.9375 -0.238281 4.9375 -0.71875 Z M 4.9375 -0.71875 "/></g></g></g></svg>