<svg xmlns="http://www.w3.org/2000/svg" xmlns:xlink="http://www.w3.org/1999/xlink" width="672" zoomAndPan="magnify" viewBox="0 0 504 359.999987" height="480" preserveAspectRatio="xMidYMid meet" version="1.0"><defs><g/></defs><g fill="#000000" fill-opacity="0.5608"><g transform="translate(39.482953, 210.677811)"><g><path d="M 5.59375 -1.515625 L 5.59375 -75.765625 C 5.59375 -76.773438 6.101562 -77.28125 7.125 -77.28125 L 25.6875 -77.28125 C 26.695312 -77.28125 27.203125 -76.773438 27.203125 -75.765625 L 27.203125 -52.40625 C 27.203125 -51.601562 27.601562 -51.203125 28.40625 -51.203125 C 29.195312 -51.203125 29.59375 -51.601562 29.59375 -52.40625 L 29.59375 -54.484375 C 29.59375 -55.492188 30.101562 -56 31.125 -56 L 52.078125 -56 C 53.085938 -56 53.59375 -55.492188 53.59375 -54.484375 L 53.59375 -52.71875 C 53.59375 -51.707031 54.101562 -51.203125 55.125 -51.203125 L 56.875 -51.203125 C 57.300781 -51.203125 57.515625 -51.203125 57.515625 -51.203125 C 57.515625 -51.203125 57.300781 -51.203125 56.875 -51.203125 L 55.125 -51.203125 C 54.695312 -51.203125 54.484375 -51.203125 54.484375 -51.203125 C 54.484375 -51.203125 54.695312 -51.203125 55.125 -51.203125 L 56.875 -51.203125 C 57.894531 -51.203125 58.40625 -50.695312 58.40625 -49.6875 L 58.40625 -1.515625 C 58.40625 -0.503906 57.894531 0 56.875 0 L 38.3125 0 C 37.300781 0 36.796875 -0.503906 36.796875 -1.515625 L 36.796875 -49.6875 C 36.796875 -50.695312 36.289062 -51.203125 35.28125 -51.203125 L 33.515625 -51.203125 C 32.503906 -51.203125 32 -50.695312 32 -49.6875 L 32 -47.921875 C 32 -46.910156 31.492188 -46.40625 30.484375 -46.40625 L 28.71875 -46.40625 C 27.707031 -46.40625 27.203125 -45.894531 27.203125 -44.875 L 27.203125 -1.515625 C 27.203125 -0.503906 26.695312 0 25.6875 0 L 7.125 0 C 6.101562 0 5.59375 -0.503906 5.59375 -1.515625 Z M 5.59375 -1.515625 "/></g></g></g><g fill="#000000" fill-opacity="0.5608"><g transform="translate(103.476741, 210.677811)"><g><path d="M 15.203125 -1.515625 L 15.203125 -3.28125 C 15.203125 -4.289062 14.695312 -4.796875 13.6875 -4.796875 L 11.921875 -4.796875 C 10.910156 -4.796875 10.40625 -5.300781 10.40625 -6.3125 L 10.40625 -8.078125 C 10.40625 -9.085938 9.894531 -9.59375 8.875 -9.59375 L 7.125 -9.59375 C 6.101562 -9.59375 5.59375 -10.101562 5.59375 -11.125 L 5.59375 -44.875 C 5.59375 -45.894531 6.101562 -46.40625 7.125 -46.40625 L 8.875 -46.40625 C 9.894531 -46.40625 10.40625 -46.910156 10.40625 -47.921875 L 10.40625 -49.6875 C 10.40625 -50.695312 10.910156 -51.203125 11.921875 -51.203125 L 13.6875 -51.203125 C 14.695312 -51.203125 15.203125 -51.707031 15.203125 -52.71875 L 15.203125 -54.484375 C 15.203125 -55.492188 15.707031 -56 16.71875 -56 L 47.28125 -56 C 48.289062 -56 48.796875 -55.492188 48.796875 -54.484375 L 48.796875 -52.71875 C 48.796875 -51.707031 49.300781 -51.203125 50.3125 -51.203125 L 52.078125 -51.203125 C 53.085938 -51.203125 53.59375 -50.695312 53.59375 -49.6875 L 53.59375 -47.921875 C 53.59375 -46.910156 54.101562 -46.40625 55.125 -46.40625 L 56.875 -46.40625 C 57.894531 -46.40625 58.40625 -45.894531 58.40625 -44.875 L 58.40625 -31.921875 C 58.40625 -30.910156 57.894531 -30.40625 56.875 -30.40625 L 55.125 -30.40625 C 54.101562 -30.40625 53.59375 -29.894531 53.59375 -28.875 L 53.59375 -27.125 C 53.59375 -26.101562 53.085938 -25.59375 52.078125 -25.59375 L 28.71875 -25.59375 C 27.707031 -25.59375 27.203125 -25.085938 27.203125 -24.078125 L 27.203125 -6.3125 C 27.203125 -5.300781 27.707031 -4.796875 28.71875 -4.796875 L 30.484375 -4.796875 C 31.492188 -4.796875 32 -5.300781 32 -6.3125 L 32 -8.078125 C 32 -9.085938 32.503906 -9.59375 33.515625 -9.59375 L 35.28125 -9.59375 C 36.289062 -9.59375 36.796875 -10.101562 36.796875 -11.125 L 36.796875 -16.640625 C 36.796875 -17.648438 37.300781 -18.15625 38.3125 -18.15625 L 56.875 -18.15625 C 57.894531 -18.15625 58.40625 -17.648438 58.40625 -16.640625 L 58.40625 -11.125 C 58.40625 -10.101562 57.894531 -9.59375 56.875 -9.59375 L 55.125 -9.59375 C 54.101562 -9.59375 53.59375 -9.085938 53.59375 -8.078125 L 53.59375 -6.3125 C 53.59375 -5.300781 53.085938 -4.796875 52.078125 -4.796875 L 50.3125 -4.796875 C 49.300781 -4.796875 48.796875 -4.289062 48.796875 -3.28125 L 48.796875 -1.515625 C 48.796875 -0.503906 48.289062 0 47.28125 0 L 16.71875 0 C 15.707031 0 15.203125 -0.503906 15.203125 -1.515625 Z M 28.71875 -30.40625 L 35.28125 -30.40625 C 36.289062 -30.40625 36.796875 -30.910156 36.796875 -31.921875 L 36.796875 -49.6875 C 36.796875 -50.695312 36.289062 -51.203125 35.28125 -51.203125 L 33.515625 -51.203125 C 32.503906 -51.203125 32 -50.695312 32 -49.6875 L 32 -47.921875 C 32 -46.910156 31.492188 -46.40625 30.484375 -46.40625 L 28.71875 -46.40625 C 27.707031 -46.40625 27.203125 -45.894531 27.203125 -44.875 L 27.203125 -31.921875 C 27.203125 -30.910156 27.707031 -30.40625 28.71875 -30.40625 Z M 28.71875 -30.40625 "/></g></g></g><g fill="#000000" fill-opacity="0.5608"><g transform="translate(165.87068, 210.677811)"><g><path d="M 10.40625 -1.515625 L 10.40625 -3.28125 C 10.40625 -4.289062 9.894531 -4.796875 8.875 -4.796875 L 7.125 -4.796875 C 6.695312 -4.796875 6.484375 -4.796875 6.484375 -4.796875 C 6.484375 -4.796875 6.695312 -4.796875 7.125 -4.796875 L 8.875 -4.796875 C 9.300781 -4.796875 9.515625 -4.796875 9.515625 -4.796875 C 9.515625 -4.796875 9.300781 -4.796875 8.875 -4.796875 L 7.125 -4.796875 C 6.101562 -4.796875 5.59375 -5.300781 5.59375 -6.3125 L 5.59375 -54.484375 C 5.59375 -55.492188 6.101562 -56 7.125 -56 L 25.6875 -56 C 26.695312 -56 27.203125 -55.492188 27.203125 -54.484375 L 27.203125 -6.3125 C 27.203125 -5.300781 27.707031 -4.796875 28.71875 -4.796875 L 30.484375 -4.796875 C 31.492188 -4.796875 32 -5.300781 32 -6.3125 L 32 -8.078125 C 32 -9.085938 32.503906 -9.59375 33.515625 -9.59375 L 35.28125 -9.59375 C 36.289062 -9.59375 36.796875 -10.101562 36.796875 -11.125 L 36.796875 -54.484375 C 36.796875 -55.492188 37.300781 -56 38.3125 -56 L 56.875 -56 C 57.894531 -56 58.40625 -55.492188 58.40625 -54.484375 L 58.40625 8.875 C 58.40625 9.894531 57.894531 10.40625 56.875 10.40625 L 55.125 10.40625 C 54.101562 10.40625 53.59375 10.910156 53.59375 11.921875 L 53.59375 13.6875 C 53.59375 14.695312 53.085938 15.203125 52.078125 15.203125 L 50.3125 15.203125 C 49.300781 15.203125 48.796875 15.707031 48.796875 16.71875 L 48.796875 18.484375 C 48.796875 19.492188 48.289062 20 47.28125 20 L 11.921875 20 C 10.910156 20 10.40625 19.492188 10.40625 18.484375 L 10.40625 16.71875 C 10.40625 15.707031 9.894531 15.203125 8.875 15.203125 L 7.125 15.203125 C 6.695312 15.203125 6.484375 15.203125 6.484375 15.203125 C 6.484375 15.203125 6.695312 15.203125 7.125 15.203125 L 8.875 15.203125 C 9.300781 15.203125 9.515625 15.203125 9.515625 15.203125 C 9.515625 15.203125 9.300781 15.203125 8.875 15.203125 L 7.125 15.203125 C 6.101562 15.203125 5.59375 14.695312 5.59375 13.6875 L 5.59375 7.125 C 5.59375 6.101562 6.101562 5.59375 7.125 5.59375 L 25.6875 5.59375 C 26.695312 5.59375 27.203125 6.101562 27.203125 7.125 L 27.203125 8.40625 C 27.203125 9.414062 27.707031 9.921875 28.71875 9.921875 L 29.6875 9.921875 C 30.695312 9.921875 31.203125 10.425781 31.203125 11.4375 L 31.203125 13.6875 C 31.203125 14.695312 31.707031 15.203125 32.71875 15.203125 L 37.6875 15.203125 C 38.695312 15.203125 39.203125 14.695312 39.203125 13.6875 L 39.203125 -3.28125 C 39.203125 -4.289062 38.695312 -4.796875 37.6875 -4.796875 L 35.921875 -4.796875 C 34.910156 -4.796875 34.40625 -4.289062 34.40625 -3.28125 L 34.40625 -1.515625 C 34.40625 -0.503906 33.894531 0 32.875 0 L 11.921875 0 C 10.910156 0 10.40625 -0.503906 10.40625 -1.515625 Z M 10.40625 -1.515625 "/></g></g></g><g fill="#000000" fill-opacity="0.5608"><g transform="translate(229.864469, 210.677811)"><g/></g></g><g fill="#000000" fill-opacity="0.5608"><g transform="translate(249.862514, 210.677811)"><g><path d="M 30.484375 -46.3125 L 28.71875 -46.3125 C 27.707031 -46.3125 27.203125 -45.804688 27.203125 -44.796875 L 27.203125 -6.234375 C 27.203125 -5.222656 27.707031 -4.71875 28.71875 -4.71875 L 30.484375 -4.71875 C 31.492188 -4.71875 32 -5.222656 32 -6.234375 L 32 -8 C 32 -9.007812 32.503906 -9.515625 33.515625 -9.515625 L 35.28125 -9.515625 C 36.289062 -9.515625 36.796875 -10.023438 36.796875 -11.046875 L 36.796875 -49.59375 C 36.796875 -50.613281 36.289062 -51.125 35.28125 -51.125 L 33.515625 -51.125 C 32.503906 -51.125 32 -50.613281 32 -49.59375 L 32 -47.84375 C 32 -46.820312 31.492188 -46.3125 30.484375 -46.3125 Z M 15.203125 -1.4375 L 15.203125 -3.203125 C 15.203125 -4.210938 14.695312 -4.71875 13.6875 -4.71875 L 11.921875 -4.71875 C 10.910156 -4.71875 10.40625 -5.222656 10.40625 -6.234375 L 10.40625 -8 C 10.40625 -9.007812 9.894531 -9.515625 8.875 -9.515625 L 7.125 -9.515625 C 6.101562 -9.515625 5.59375 -10.023438 5.59375 -11.046875 L 5.59375 -44.796875 C 5.59375 -45.804688 6.101562 -46.3125 7.125 -46.3125 L 8.875 -46.3125 C 9.894531 -46.3125 10.40625 -46.820312 10.40625 -47.84375 L 10.40625 -49.59375 C 10.40625 -50.613281 10.910156 -51.125 11.921875 -51.125 L 13.6875 -51.125 C 14.695312 -51.125 15.203125 -51.628906 15.203125 -52.640625 L 15.203125 -54.40625 C 15.203125 -55.414062 15.707031 -55.921875 16.71875 -55.921875 L 35.28125 -55.921875 C 36.289062 -55.921875 36.796875 -56.425781 36.796875 -57.4375 L 36.796875 -75.765625 C 36.796875 -76.773438 37.300781 -77.28125 38.3125 -77.28125 L 56.875 -77.28125 C 57.894531 -77.28125 58.40625 -76.773438 58.40625 -75.765625 L 58.40625 -1.4375 C 58.40625 -0.425781 57.894531 0.078125 56.875 0.078125 L 16.71875 0.078125 C 15.707031 0.078125 15.203125 -0.425781 15.203125 -1.4375 Z M 15.203125 -1.4375 "/></g></g></g><g fill="#000000" fill-opacity="0.5608"><g transform="translate(313.856314, 210.677811)"><g><path d="M 5.59375 -1.515625 L 5.59375 -54.484375 C 5.59375 -55.492188 6.101562 -56 7.125 -56 L 25.6875 -56 C 26.695312 -56 27.203125 -55.492188 27.203125 -54.484375 L 27.203125 -1.515625 C 27.203125 -0.503906 26.695312 0 25.6875 0 L 7.125 0 C 6.101562 0 5.59375 -0.503906 5.59375 -1.515625 Z M 8 -62.3125 L 8 -62.484375 C 8 -63.492188 7.4375 -64 6.3125 -64 C 5.300781 -64 4.796875 -64.503906 4.796875 -65.515625 L 4.796875 -72.875 C 4.796875 -73.894531 5.359375 -74.40625 6.484375 -74.40625 C 7.492188 -74.40625 8 -74.960938 8 -76.078125 C 8 -77.085938 8.503906 -77.59375 9.515625 -77.59375 L 23.28125 -77.59375 C 24.289062 -77.59375 24.796875 -77.035156 24.796875 -75.921875 C 24.796875 -74.910156 25.359375 -74.40625 26.484375 -74.40625 C 27.492188 -74.40625 28 -73.894531 28 -72.875 L 28 -65.515625 C 28 -64.503906 27.4375 -64 26.3125 -64 C 25.300781 -64 24.796875 -63.4375 24.796875 -62.3125 C 24.796875 -61.300781 24.289062 -60.796875 23.28125 -60.796875 L 9.515625 -60.796875 C 8.503906 -60.796875 8 -61.300781 8 -62.3125 Z M 8 -62.3125 "/></g></g></g><g fill="#000000" fill-opacity="0.5608"><g transform="translate(346.653133, 210.677811)"><g><path d="M 10.40625 -1.515625 L 10.40625 -3.28125 C 10.40625 -4.289062 9.894531 -4.796875 8.875 -4.796875 L 7.125 -4.796875 C 6.101562 -4.796875 5.59375 -5.300781 5.59375 -6.3125 L 5.59375 -54.484375 C 5.59375 -55.492188 6.101562 -56 7.125 -56 L 25.6875 -56 C 26.695312 -56 27.203125 -55.492188 27.203125 -54.484375 L 27.203125 -6.3125 C 27.203125 -5.300781 27.707031 -4.796875 28.71875 -4.796875 L 31.046875 -4.796875 C 32.054688 -4.796875 32.5625 -5.300781 32.5625 -6.3125 L 32.5625 -8.078125 C 32.5625 -9.085938 33.066406 -9.59375 34.078125 -9.59375 L 35.84375 -9.59375 C 36.851562 -9.59375 37.359375 -10.101562 37.359375 -11.125 L 37.359375 -54.484375 C 37.359375 -55.492188 37.863281 -56 38.875 -56 L 57.4375 -56 C 58.445312 -56 58.953125 -55.492188 58.953125 -54.484375 L 58.953125 -20.71875 C 58.953125 -19.707031 58.445312 -19.203125 57.4375 -19.203125 L 54.796875 -19.203125 C 53.785156 -19.203125 53.28125 -18.695312 53.28125 -17.6875 L 53.28125 -15.921875 C 53.28125 -14.910156 52.773438 -14.40625 51.765625 -14.40625 L 50 -14.40625 C 48.988281 -14.40625 48.484375 -13.894531 48.484375 -12.875 L 48.484375 -11.125 C 48.484375 -10.101562 47.972656 -9.59375 46.953125 -9.59375 L 45.203125 -9.59375 C 44.191406 -9.59375 43.6875 -9.085938 43.6875 -8.078125 L 43.6875 -6.3125 C 43.6875 -5.300781 43.175781 -4.796875 42.15625 -4.796875 L 41.359375 -4.796875 C 40.347656 -4.796875 39.84375 -4.289062 39.84375 -3.28125 L 39.84375 -1.515625 C 39.84375 -0.503906 39.332031 0 38.3125 0 L 11.921875 0 C 10.910156 0 10.40625 -0.503906 10.40625 -1.515625 Z M 10.40625 -1.515625 "/></g></g></g><g fill="#000000" fill-opacity="0.5608"><g transform="translate(410.40695, 210.677811)"><g><path d="M 33.6875 -25.515625 L 27.125 -25.515625 C 26.101562 -25.515625 25.59375 -25.007812 25.59375 -24 L 25.59375 -6.3125 C 25.59375 -5.300781 26.101562 -4.796875 27.125 -4.796875 L 28.875 -4.796875 C 29.894531 -4.796875 30.40625 -5.300781 30.40625 -6.3125 L 30.40625 -8.078125 C 30.40625 -9.085938 30.910156 -9.59375 31.921875 -9.59375 L 33.6875 -9.59375 C 34.695312 -9.59375 35.203125 -10.101562 35.203125 -11.125 L 35.203125 -24 C 35.203125 -25.007812 34.695312 -25.515625 33.6875 -25.515625 Z M 8.796875 -1.515625 L 8.796875 -3.28125 C 8.796875 -4.289062 8.289062 -4.796875 7.28125 -4.796875 L 5.515625 -4.796875 C 4.503906 -4.796875 4 -5.300781 4 -6.3125 L 4 -24 C 4 -25.007812 4.503906 -25.515625 5.515625 -25.515625 L 7.28125 -25.515625 C 8.289062 -25.515625 8.796875 -26.023438 8.796875 -27.046875 L 8.796875 -28.796875 C 8.796875 -29.804688 9.300781 -30.3125 10.3125 -30.3125 L 28.875 -30.3125 C 29.894531 -30.3125 30.40625 -30.820312 30.40625 -31.84375 L 30.40625 -33.59375 C 30.40625 -34.613281 30.910156 -35.125 31.921875 -35.125 L 36.078125 -35.125 C 37.085938 -35.125 37.59375 -35.628906 37.59375 -36.640625 L 37.59375 -49.6875 C 37.59375 -50.695312 37.085938 -51.203125 36.078125 -51.203125 L 31.921875 -51.203125 C 30.910156 -51.203125 30.40625 -50.695312 30.40625 -49.6875 L 30.40625 -43.125 C 30.40625 -42.101562 29.894531 -41.59375 28.875 -41.59375 L 27.125 -41.59375 C 26.101562 -41.59375 25.59375 -41.085938 25.59375 -40.078125 L 25.59375 -35.921875 C 25.59375 -34.910156 25.085938 -34.40625 24.078125 -34.40625 L 7.921875 -34.40625 C 6.910156 -34.40625 6.40625 -34.910156 6.40625 -35.921875 L 6.40625 -49.6875 C 6.40625 -50.695312 6.910156 -51.203125 7.921875 -51.203125 L 10.875 -51.203125 C 11.894531 -51.203125 12.40625 -51.707031 12.40625 -52.71875 L 12.40625 -54.484375 C 12.40625 -55.492188 12.910156 -56 13.921875 -56 L 50.484375 -56 C 51.492188 -56 52 -55.492188 52 -54.484375 L 52 -52.71875 C 52 -51.707031 52.503906 -51.203125 53.515625 -51.203125 L 55.28125 -51.203125 C 56.289062 -51.203125 56.796875 -50.695312 56.796875 -49.6875 L 56.796875 -1.515625 C 56.796875 -0.503906 56.289062 0 55.28125 0 L 41.515625 0 C 40.503906 0 40 -0.503906 40 -1.515625 L 40 -3.28125 C 40 -4.289062 39.492188 -4.796875 38.484375 -4.796875 L 36.71875 -4.796875 C 35.707031 -4.796875 35.203125 -4.289062 35.203125 -3.28125 L 35.203125 -1.515625 C 35.203125 -0.503906 34.695312 0 33.6875 0 L 10.3125 0 C 9.300781 0 8.796875 -0.503906 8.796875 -1.515625 Z M 8.796875 -1.515625 "/></g></g></g><g fill="#ffec45" fill-opacity="1"><g transform="translate(35.332038, 207.069476)"><g><path d="M 5.59375 -1.515625 L 5.59375 -75.765625 C 5.59375 -76.773438 6.101562 -77.28125 7.125 -77.28125 L 25.6875 -77.28125 C 26.695312 -77.28125 27.203125 -76.773438 27.203125 -75.765625 L 27.203125 -52.40625 C 27.203125 -51.601562 27.601562 -51.203125 28.40625 -51.203125 C 29.195312 -51.203125 29.59375 -51.601562 29.59375 -52.40625 L 29.59375 -54.484375 C 29.59375 -55.492188 30.101562 -56 31.125 -56 L 52.078125 -56 C 53.085938 -56 53.59375 -55.492188 53.59375 -54.484375 L 53.59375 -52.71875 C 53.59375 -51.707031 54.101562 -51.203125 55.125 -51.203125 L 56.875 -51.203125 C 57.300781 -51.203125 57.515625 -51.203125 57.515625 -51.203125 C 57.515625 -51.203125 57.300781 -51.203125 56.875 -51.203125 L 55.125 -51.203125 C 54.695312 -51.203125 54.484375 -51.203125 54.484375 -51.203125 C 54.484375 -51.203125 54.695312 -51.203125 55.125 -51.203125 L 56.875 -51.203125 C 57.894531 -51.203125 58.40625 -50.695312 58.40625 -49.6875 L 58.40625 -1.515625 C 58.40625 -0.503906 57.894531 0 56.875 0 L 38.3125 0 C 37.300781 0 36.796875 -0.503906 36.796875 -1.515625 L 36.796875 -49.6875 C 36.796875 -50.695312 36.289062 -51.203125 35.28125 -51.203125 L 33.515625 -51.203125 C 32.503906 -51.203125 32 -50.695312 32 -49.6875 L 32 -47.921875 C 32 -46.910156 31.492188 -46.40625 30.484375 -46.40625 L 28.71875 -46.40625 C 27.707031 -46.40625 27.203125 -45.894531 27.203125 -44.875 L 27.203125 -1.515625 C 27.203125 -0.503906 26.695312 0 25.6875 0 L 7.125 0 C 6.101562 0 5.59375 -0.503906 5.59375 -1.515625 Z M 5.59375 -1.515625 "/></g></g></g><g fill="#ffec45" fill-opacity="1"><g transform="translate(99.325826, 207.069476)"><g><path d="M 15.203125 -1.515625 L 15.203125 -3.28125 C 15.203125 -4.289062 14.695312 -4.796875 13.6875 -4.796875 L 11.921875 -4.796875 C 10.910156 -4.796875 10.40625 -5.300781 10.40625 -6.3125 L 10.40625 -8.078125 C 10.40625 -9.085938 9.894531 -9.59375 8.875 -9.59375 L 7.125 -9.59375 C 6.101562 -9.59375 5.59375 -10.101562 5.59375 -11.125 L 5.59375 -44.875 C 5.59375 -45.894531 6.101562 -46.40625 7.125 -46.40625 L 8.875 -46.40625 C 9.894531 -46.40625 10.40625 -46.910156 10.40625 -47.921875 L 10.40625 -49.6875 C 10.40625 -50.695312 10.910156 -51.203125 11.921875 -51.203125 L 13.6875 -51.203125 C 14.695312 -51.203125 15.203125 -51.707031 15.203125 -52.71875 L 15.203125 -54.484375 C 15.203125 -55.492188 15.707031 -56 16.71875 -56 L 47.28125 -56 C 48.289062 -56 48.796875 -55.492188 48.796875 -54.484375 L 48.796875 -52.71875 C 48.796875 -51.707031 49.300781 -51.203125 50.3125 -51.203125 L 52.078125 -51.203125 C 53.085938 -51.203125 53.59375 -50.695312 53.59375 -49.6875 L 53.59375 -47.921875 C 53.59375 -46.910156 54.101562 -46.40625 55.125 -46.40625 L 56.875 -46.40625 C 57.894531 -46.40625 58.40625 -45.894531 58.40625 -44.875 L 58.40625 -31.921875 C 58.40625 -30.910156 57.894531 -30.40625 56.875 -30.40625 L 55.125 -30.40625 C 54.101562 -30.40625 53.59375 -29.894531 53.59375 -28.875 L 53.59375 -27.125 C 53.59375 -26.101562 53.085938 -25.59375 52.078125 -25.59375 L 28.71875 -25.59375 C 27.707031 -25.59375 27.203125 -25.085938 27.203125 -24.078125 L 27.203125 -6.3125 C 27.203125 -5.300781 27.707031 -4.796875 28.71875 -4.796875 L 30.484375 -4.796875 C 31.492188 -4.796875 32 -5.300781 32 -6.3125 L 32 -8.078125 C 32 -9.085938 32.503906 -9.59375 33.515625 -9.59375 L 35.28125 -9.59375 C 36.289062 -9.59375 36.796875 -10.101562 36.796875 -11.125 L 36.796875 -16.640625 C 36.796875 -17.648438 37.300781 -18.15625 38.3125 -18.15625 L 56.875 -18.15625 C 57.894531 -18.15625 58.40625 -17.648438 58.40625 -16.640625 L 58.40625 -11.125 C 58.40625 -10.101562 57.894531 -9.59375 56.875 -9.59375 L 55.125 -9.59375 C 54.101562 -9.59375 53.59375 -9.085938 53.59375 -8.078125 L 53.59375 -6.3125 C 53.59375 -5.300781 53.085938 -4.796875 52.078125 -4.796875 L 50.3125 -4.796875 C 49.300781 -4.796875 48.796875 -4.289062 48.796875 -3.28125 L 48.796875 -1.515625 C 48.796875 -0.503906 48.289062 0 47.28125 0 L 16.71875 0 C 15.707031 0 15.203125 -0.503906 15.203125 -1.515625 Z M 28.71875 -30.40625 L 35.28125 -30.40625 C 36.289062 -30.40625 36.796875 -30.910156 36.796875 -31.921875 L 36.796875 -49.6875 C 36.796875 -50.695312 36.289062 -51.203125 35.28125 -51.203125 L 33.515625 -51.203125 C 32.503906 -51.203125 32 -50.695312 32 -49.6875 L 32 -47.921875 C 32 -46.910156 31.492188 -46.40625 30.484375 -46.40625 L 28.71875 -46.40625 C 27.707031 -46.40625 27.203125 -45.894531 27.203125 -44.875 L 27.203125 -31.921875 C 27.203125 -30.910156 27.707031 -30.40625 28.71875 -30.40625 Z M 28.71875 -30.40625 "/></g></g></g><g fill="#ffec45" fill-opacity="1"><g transform="translate(161.719765, 207.069476)"><g><path d="M 10.40625 -1.515625 L 10.40625 -3.28125 C 10.40625 -4.289062 9.894531 -4.796875 8.875 -4.796875 L 7.125 -4.796875 C 6.695312 -4.796875 6.484375 -4.796875 6.484375 -4.796875 C 6.484375 -4.796875 6.695312 -4.796875 7.125 -4.796875 L 8.875 -4.796875 C 9.300781 -4.796875 9.515625 -4.796875 9.515625 -4.796875 C 9.515625 -4.796875 9.300781 -4.796875 8.875 -4.796875 L 7.125 -4.796875 C 6.101562 -4.796875 5.59375 -5.300781 5.59375 -6.3125 L 5.59375 -54.484375 C 5.59375 -55.492188 6.101562 -56 7.125 -56 L 25.6875 -56 C 26.695312 -56 27.203125 -55.492188 27.203125 -54.484375 L 27.203125 -6.3125 C 27.203125 -5.300781 27.707031 -4.796875 28.71875 -4.796875 L 30.484375 -4.796875 C 31.492188 -4.796875 32 -5.300781 32 -6.3125 L 32 -8.078125 C 32 -9.085938 32.503906 -9.59375 33.515625 -9.59375 L 35.28125 -9.59375 C 36.289062 -9.59375 36.796875 -10.101562 36.796875 -11.125 L 36.796875 -54.484375 C 36.796875 -55.492188 37.300781 -56 38.3125 -56 L 56.875 -56 C 57.894531 -56 58.40625 -55.492188 58.40625 -54.484375 L 58.40625 8.875 C 58.40625 9.894531 57.894531 10.40625 56.875 10.40625 L 55.125 10.40625 C 54.101562 10.40625 53.59375 10.910156 53.59375 11.921875 L 53.59375 13.6875 C 53.59375 14.695312 53.085938 15.203125 52.078125 15.203125 L 50.3125 15.203125 C 49.300781 15.203125 48.796875 15.707031 48.796875 16.71875 L 48.796875 18.484375 C 48.796875 19.492188 48.289062 20 47.28125 20 L 11.921875 20 C 10.910156 20 10.40625 19.492188 10.40625 18.484375 L 10.40625 16.71875 C 10.40625 15.707031 9.894531 15.203125 8.875 15.203125 L 7.125 15.203125 C 6.695312 15.203125 6.484375 15.203125 6.484375 15.203125 C 6.484375 15.203125 6.695312 15.203125 7.125 15.203125 L 8.875 15.203125 C 9.300781 15.203125 9.515625 15.203125 9.515625 15.203125 C 9.515625 15.203125 9.300781 15.203125 8.875 15.203125 L 7.125 15.203125 C 6.101562 15.203125 5.59375 14.695312 5.59375 13.6875 L 5.59375 7.125 C 5.59375 6.101562 6.101562 5.59375 7.125 5.59375 L 25.6875 5.59375 C 26.695312 5.59375 27.203125 6.101562 27.203125 7.125 L 27.203125 8.40625 C 27.203125 9.414062 27.707031 9.921875 28.71875 9.921875 L 29.6875 9.921875 C 30.695312 9.921875 31.203125 10.425781 31.203125 11.4375 L 31.203125 13.6875 C 31.203125 14.695312 31.707031 15.203125 32.71875 15.203125 L 37.6875 15.203125 C 38.695312 15.203125 39.203125 14.695312 39.203125 13.6875 L 39.203125 -3.28125 C 39.203125 -4.289062 38.695312 -4.796875 37.6875 -4.796875 L 35.921875 -4.796875 C 34.910156 -4.796875 34.40625 -4.289062 34.40625 -3.28125 L 34.40625 -1.515625 C 34.40625 -0.503906 33.894531 0 32.875 0 L 11.921875 0 C 10.910156 0 10.40625 -0.503906 10.40625 -1.515625 Z M 10.40625 -1.515625 "/></g></g></g><g fill="#ffec45" fill-opacity="1"><g transform="translate(225.713554, 207.069476)"><g/></g></g><g fill="#ffec45" fill-opacity="1"><g transform="translate(245.711599, 207.069476)"><g><path d="M 30.484375 -46.3125 L 28.71875 -46.3125 C 27.707031 -46.3125 27.203125 -45.804688 27.203125 -44.796875 L 27.203125 -6.234375 C 27.203125 -5.222656 27.707031 -4.71875 28.71875 -4.71875 L 30.484375 -4.71875 C 31.492188 -4.71875 32 -5.222656 32 -6.234375 L 32 -8 C 32 -9.007812 32.503906 -9.515625 33.515625 -9.515625 L 35.28125 -9.515625 C 36.289062 -9.515625 36.796875 -10.023438 36.796875 -11.046875 L 36.796875 -49.59375 C 36.796875 -50.613281 36.289062 -51.125 35.28125 -51.125 L 33.515625 -51.125 C 32.503906 -51.125 32 -50.613281 32 -49.59375 L 32 -47.84375 C 32 -46.820312 31.492188 -46.3125 30.484375 -46.3125 Z M 15.203125 -1.4375 L 15.203125 -3.203125 C 15.203125 -4.210938 14.695312 -4.71875 13.6875 -4.71875 L 11.921875 -4.71875 C 10.910156 -4.71875 10.40625 -5.222656 10.40625 -6.234375 L 10.40625 -8 C 10.40625 -9.007812 9.894531 -9.515625 8.875 -9.515625 L 7.125 -9.515625 C 6.101562 -9.515625 5.59375 -10.023438 5.59375 -11.046875 L 5.59375 -44.796875 C 5.59375 -45.804688 6.101562 -46.3125 7.125 -46.3125 L 8.875 -46.3125 C 9.894531 -46.3125 10.40625 -46.820312 10.40625 -47.84375 L 10.40625 -49.59375 C 10.40625 -50.613281 10.910156 -51.125 11.921875 -51.125 L 13.6875 -51.125 C 14.695312 -51.125 15.203125 -51.628906 15.203125 -52.640625 L 15.203125 -54.40625 C 15.203125 -55.414062 15.707031 -55.921875 16.71875 -55.921875 L 35.28125 -55.921875 C 36.289062 -55.921875 36.796875 -56.425781 36.796875 -57.4375 L 36.796875 -75.765625 C 36.796875 -76.773438 37.300781 -77.28125 38.3125 -77.28125 L 56.875 -77.28125 C 57.894531 -77.28125 58.40625 -76.773438 58.40625 -75.765625 L 58.40625 -1.4375 C 58.40625 -0.425781 57.894531 0.078125 56.875 0.078125 L 16.71875 0.078125 C 15.707031 0.078125 15.203125 -0.425781 15.203125 -1.4375 Z M 15.203125 -1.4375 "/></g></g></g><g fill="#ffec45" fill-opacity="1"><g transform="translate(309.705399, 207.069476)"><g><path d="M 5.59375 -1.515625 L 5.59375 -54.484375 C 5.59375 -55.492188 6.101562 -56 7.125 -56 L 25.6875 -56 C 26.695312 -56 27.203125 -55.492188 27.203125 -54.484375 L 27.203125 -1.515625 C 27.203125 -0.503906 26.695312 0 25.6875 0 L 7.125 0 C 6.101562 0 5.59375 -0.503906 5.59375 -1.515625 Z M 8 -62.3125 L 8 -62.484375 C 8 -63.492188 7.4375 -64 6.3125 -64 C 5.300781 -64 4.796875 -64.503906 4.796875 -65.515625 L 4.796875 -72.875 C 4.796875 -73.894531 5.359375 -74.40625 6.484375 -74.40625 C 7.492188 -74.40625 8 -74.960938 8 -76.078125 C 8 -77.085938 8.503906 -77.59375 9.515625 -77.59375 L 23.28125 -77.59375 C 24.289062 -77.59375 24.796875 -77.035156 24.796875 -75.921875 C 24.796875 -74.910156 25.359375 -74.40625 26.484375 -74.40625 C 27.492188 -74.40625 28 -73.894531 28 -72.875 L 28 -65.515625 C 28 -64.503906 27.4375 -64 26.3125 -64 C 25.300781 -64 24.796875 -63.4375 24.796875 -62.3125 C 24.796875 -61.300781 24.289062 -60.796875 23.28125 -60.796875 L 9.515625 -60.796875 C 8.503906 -60.796875 8 -61.300781 8 -62.3125 Z M 8 -62.3125 "/></g></g></g><g fill="#ffec45" fill-opacity="1"><g transform="translate(342.502218, 207.069476)"><g><path d="M 10.40625 -1.515625 L 10.40625 -3.28125 C 10.40625 -4.289062 9.894531 -4.796875 8.875 -4.796875 L 7.125 -4.796875 C 6.101562 -4.796875 5.59375 -5.300781 5.59375 -6.3125 L 5.59375 -54.484375 C 5.59375 -55.492188 6.101562 -56 7.125 -56 L 25.6875 -56 C 26.695312 -56 27.203125 -55.492188 27.203125 -54.484375 L 27.203125 -6.3125 C 27.203125 -5.300781 27.707031 -4.796875 28.71875 -4.796875 L 31.046875 -4.796875 C 32.054688 -4.796875 32.5625 -5.300781 32.5625 -6.3125 L 32.5625 -8.078125 C 32.5625 -9.085938 33.066406 -9.59375 34.078125 -9.59375 L 35.84375 -9.59375 C 36.851562 -9.59375 37.359375 -10.101562 37.359375 -11.125 L 37.359375 -54.484375 C 37.359375 -55.492188 37.863281 -56 38.875 -56 L 57.4375 -56 C 58.445312 -56 58.953125 -55.492188 58.953125 -54.484375 L 58.953125 -20.71875 C 58.953125 -19.707031 58.445312 -19.203125 57.4375 -19.203125 L 54.796875 -19.203125 C 53.785156 -19.203125 53.28125 -18.695312 53.28125 -17.6875 L 53.28125 -15.921875 C 53.28125 -14.910156 52.773438 -14.40625 51.765625 -14.40625 L 50 -14.40625 C 48.988281 -14.40625 48.484375 -13.894531 48.484375 -12.875 L 48.484375 -11.125 C 48.484375 -10.101562 47.972656 -9.59375 46.953125 -9.59375 L 45.203125 -9.59375 C 44.191406 -9.59375 43.6875 -9.085938 43.6875 -8.078125 L 43.6875 -6.3125 C 43.6875 -5.300781 43.175781 -4.796875 42.15625 -4.796875 L 41.359375 -4.796875 C 40.347656 -4.796875 39.84375 -4.289062 39.84375 -3.28125 L 39.84375 -1.515625 C 39.84375 -0.503906 39.332031 0 38.3125 0 L 11.921875 0 C 10.910156 0 10.40625 -0.503906 10.40625 -1.515625 Z M 10.40625 -1.515625 "/></g></g></g><g fill="#ffec45" fill-opacity="1"><g transform="translate(406.256035, 207.069476)"><g><path d="M 33.6875 -25.515625 L 27.125 -25.515625 C 26.101562 -25.515625 25.59375 -25.007812 25.59375 -24 L 25.59375 -6.3125 C 25.59375 -5.300781 26.101562 -4.796875 27.125 -4.796875 L 28.875 -4.796875 C 29.894531 -4.796875 30.40625 -5.300781 30.40625 -6.3125 L 30.40625 -8.078125 C 30.40625 -9.085938 30.910156 -9.59375 31.921875 -9.59375 L 33.6875 -9.59375 C 34.695312 -9.59375 35.203125 -10.101562 35.203125 -11.125 L 35.203125 -24 C 35.203125 -25.007812 34.695312 -25.515625 33.6875 -25.515625 Z M 8.796875 -1.515625 L 8.796875 -3.28125 C 8.796875 -4.289062 8.289062 -4.796875 7.28125 -4.796875 L 5.515625 -4.796875 C 4.503906 -4.796875 4 -5.300781 4 -6.3125 L 4 -24 C 4 -25.007812 4.503906 -25.515625 5.515625 -25.515625 L 7.28125 -25.515625 C 8.289062 -25.515625 8.796875 -26.023438 8.796875 -27.046875 L 8.796875 -28.796875 C 8.796875 -29.804688 9.300781 -30.3125 10.3125 -30.3125 L 28.875 -30.3125 C 29.894531 -30.3125 30.40625 -30.820312 30.40625 -31.84375 L 30.40625 -33.59375 C 30.40625 -34.613281 30.910156 -35.125 31.921875 -35.125 L 36.078125 -35.125 C 37.085938 -35.125 37.59375 -35.628906 37.59375 -36.640625 L 37.59375 -49.6875 C 37.59375 -50.695312 37.085938 -51.203125 36.078125 -51.203125 L 31.921875 -51.203125 C 30.910156 -51.203125 30.40625 -50.695312 30.40625 -49.6875 L 30.40625 -43.125 C 30.40625 -42.101562 29.894531 -41.59375 28.875 -41.59375 L 27.125 -41.59375 C 26.101562 -41.59375 25.59375 -41.085938 25.59375 -40.078125 L 25.59375 -35.921875 C 25.59375 -34.910156 25.085938 -34.40625 24.078125 -34.40625 L 7.921875 -34.40625 C 6.910156 -34.40625 6.40625 -34.910156 6.40625 -35.921875 L 6.40625 -49.6875 C 6.40625 -50.695312 6.910156 -51.203125 7.921875 -51.203125 L 10.875 -51.203125 C 11.894531 -51.203125 12.40625 -51.707031 12.40625 -52.71875 L 12.40625 -54.484375 C 12.40625 -55.492188 12.910156 -56 13.921875 -56 L 50.484375 -56 C 51.492188 -56 52 -55.492188 52 -54.484375 L 52 -52.71875 C 52 -51.707031 52.503906 -51.203125 53.515625 -51.203125 L 55.28125 -51.203125 C 56.289062 -51.203125 56.796875 -50.695312 56.796875 -49.6875 L 56.796875 -1.515625 C 56.796875 -0.503906 56.289062 0 55.28125 0 L 41.515625 0 C 40.503906 0 40 -0.503906 40 -1.515625 L 40 -3.28125 C 40 -4.289062 39.492188 -4.796875 38.484375 -4.796875 L 36.71875 -4.796875 C 35.707031 -4.796875 35.203125 -4.289062 35.203125 -3.28125 L 35.203125 -1.515625 C 35.203125 -0.503906 34.695312 0 33.6875 0 L 10.3125 0 C 9.300781 0 8.796875 -0.503906 8.796875 -1.515625 Z M 8.796875 -1.515625 "/></g></g></g></svg>