<svg xmlns="http://www.w3.org/2000/svg" xmlns:xlink="http://www.w3.org/1999/xlink" width="672" zoomAndPan="magnify" viewBox="0 0 504 359.999987" height="480" preserveAspectRatio="xMidYMid meet" version="1.0"><defs><g/></defs><g fill="#000000" fill-opacity="0.5608"><g transform="translate(103.954353, 189.917255)"><g><path d="M 2.59375 -0.703125 L 2.59375 -33.921875 C 2.59375 -34.390625 2.828125 -34.625 3.296875 -34.625 L 11.875 -34.625 C 12.34375 -34.625 12.578125 -34.390625 12.578125 -33.921875 L 12.578125 -0.703125 C 12.578125 -0.234375 12.34375 0 11.875 0 L 3.296875 0 C 2.828125 0 2.59375 -0.234375 2.59375 -0.703125 Z M 2.59375 -0.703125 "/></g></g></g><g fill="#000000" fill-opacity="0.5608"><g transform="translate(119.113139, 189.917255)"><g><path d="M 2.59375 -0.703125 L 2.59375 -25.1875 C 2.59375 -25.65625 2.828125 -25.890625 3.296875 -25.890625 L 8.546875 -25.890625 C 9.015625 -25.890625 9.25 -25.65625 9.25 -25.1875 L 9.25 -22.15625 C 9.25 -21.6875 9.484375 -21.453125 9.953125 -21.453125 L 10.765625 -21.453125 C 11.234375 -21.453125 11.46875 -21.6875 11.46875 -22.15625 L 11.46875 -22.96875 C 11.46875 -23.4375 11.703125 -23.671875 12.171875 -23.671875 L 12.984375 -23.671875 C 13.453125 -23.671875 13.6875 -23.90625 13.6875 -24.375 L 13.6875 -25.1875 C 13.6875 -25.65625 13.921875 -25.890625 14.390625 -25.890625 L 24.078125 -25.890625 C 24.546875 -25.890625 24.78125 -25.65625 24.78125 -25.1875 L 24.78125 -24.375 C 24.78125 -23.90625 25.015625 -23.671875 25.484375 -23.671875 L 27.40625 -23.671875 C 27.875 -23.671875 28.109375 -23.90625 28.109375 -24.375 L 28.109375 -25.1875 C 28.109375 -25.65625 28.34375 -25.890625 28.8125 -25.890625 L 38.5 -25.890625 C 38.96875 -25.890625 39.203125 -25.65625 39.203125 -25.1875 L 39.203125 -24.375 C 39.203125 -23.90625 39.4375 -23.671875 39.90625 -23.671875 L 40.71875 -23.671875 C 41.1875 -23.671875 41.421875 -23.4375 41.421875 -22.96875 L 41.421875 -0.703125 C 41.421875 -0.234375 41.1875 0 40.71875 0 L 32.140625 0 C 31.671875 0 31.4375 -0.234375 31.4375 -0.703125 L 31.4375 -22.96875 C 31.4375 -23.4375 31.203125 -23.671875 30.734375 -23.671875 L 29.921875 -23.671875 C 29.453125 -23.671875 29.21875 -23.4375 29.21875 -22.96875 L 29.21875 -22.15625 C 29.21875 -21.6875 28.984375 -21.453125 28.515625 -21.453125 L 27.703125 -21.453125 C 27.234375 -21.453125 27 -21.21875 27 -20.75 L 27 -0.703125 C 27 -0.234375 26.765625 0 26.296875 0 L 17.71875 0 C 17.25 0 17.015625 -0.234375 17.015625 -0.703125 L 17.015625 -22.96875 C 17.015625 -23.4375 16.78125 -23.671875 16.3125 -23.671875 L 15.5 -23.671875 C 15.03125 -23.671875 14.796875 -23.4375 14.796875 -22.96875 L 14.796875 -22.15625 C 14.796875 -21.6875 14.5625 -21.453125 14.09375 -21.453125 L 13.28125 -21.453125 C 12.8125 -21.453125 12.578125 -21.21875 12.578125 -20.75 L 12.578125 -0.703125 C 12.578125 -0.234375 12.34375 0 11.875 0 L 3.296875 0 C 2.828125 0 2.59375 -0.234375 2.59375 -0.703125 Z M 2.59375 -0.703125 "/></g></g></g><g fill="#000000" fill-opacity="0.5608"><g transform="translate(163.110576, 189.917255)"><g/></g></g><g fill="#000000" fill-opacity="0.5608"><g transform="translate(172.353739, 189.917255)"><g><path d="M -2.21875 8.546875 L -2.21875 7.734375 C -2.21875 7.265625 -2.453125 7.03125 -2.921875 7.03125 L -4.84375 7.03125 C -5.3125 7.03125 -5.546875 6.796875 -5.546875 6.328125 L -5.546875 2.546875 C -5.546875 2.078125 -5.3125 1.84375 -4.84375 1.84375 L 1.140625 1.84375 C 1.609375 1.84375 1.84375 2.078125 1.84375 2.546875 L 1.84375 6.328125 C 1.84375 6.796875 2.078125 7.03125 2.546875 7.03125 L 3.359375 7.03125 C 3.828125 7.03125 4.0625 6.796875 4.0625 6.328125 L 4.0625 -25.1875 C 4.0625 -25.65625 4.296875 -25.890625 4.765625 -25.890625 L 13.34375 -25.890625 C 13.8125 -25.890625 14.046875 -25.65625 14.046875 -25.1875 L 14.046875 6.328125 C 14.046875 6.796875 13.8125 7.03125 13.34375 7.03125 L 12.53125 7.03125 C 12.0625 7.03125 11.828125 7.265625 11.828125 7.734375 L 11.828125 8.546875 C 11.828125 9.015625 11.59375 9.25 11.125 9.25 L -1.515625 9.25 C -1.984375 9.25 -2.21875 9.015625 -2.21875 8.546875 Z M 5.171875 -28.8125 L 5.171875 -28.890625 C 5.171875 -29.359375 4.914062 -29.59375 4.40625 -29.59375 C 3.9375 -29.59375 3.703125 -29.828125 3.703125 -30.296875 L 3.703125 -33.6875 C 3.703125 -34.15625 3.957031 -34.390625 4.46875 -34.390625 C 4.9375 -34.390625 5.171875 -34.648438 5.171875 -35.171875 C 5.171875 -35.640625 5.40625 -35.875 5.875 -35.875 L 12.234375 -35.875 C 12.703125 -35.875 12.9375 -35.613281 12.9375 -35.09375 C 12.9375 -34.625 13.195312 -34.390625 13.71875 -34.390625 C 14.1875 -34.390625 14.421875 -34.15625 14.421875 -33.6875 L 14.421875 -30.296875 C 14.421875 -29.828125 14.160156 -29.59375 13.640625 -29.59375 C 13.171875 -29.59375 12.9375 -29.332031 12.9375 -28.8125 C 12.9375 -28.34375 12.703125 -28.109375 12.234375 -28.109375 L 5.875 -28.109375 C 5.40625 -28.109375 5.171875 -28.34375 5.171875 -28.8125 Z M 5.171875 -28.8125 "/></g></g></g><g fill="#000000" fill-opacity="0.5608"><g transform="translate(189.804822, 189.917255)"><g><path d="M 7.03125 -0.671875 L 7.03125 -1.484375 C 7.03125 -1.953125 6.796875 -2.1875 6.328125 -2.1875 L 5.515625 -2.1875 C 5.046875 -2.1875 4.8125 -2.421875 4.8125 -2.890625 L 4.8125 -3.703125 C 4.8125 -4.171875 4.578125 -4.40625 4.109375 -4.40625 L 3.296875 -4.40625 C 2.828125 -4.40625 2.59375 -4.640625 2.59375 -5.109375 L 2.59375 -25.15625 C 2.59375 -25.625 2.828125 -25.859375 3.296875 -25.859375 L 11.875 -25.859375 C 12.34375 -25.859375 12.578125 -25.625 12.578125 -25.15625 L 12.578125 -2.890625 C 12.578125 -2.421875 12.8125 -2.1875 13.28125 -2.1875 L 14.09375 -2.1875 C 14.5625 -2.1875 14.796875 -2.421875 14.796875 -2.890625 L 14.796875 -3.703125 C 14.796875 -4.171875 15.03125 -4.40625 15.5 -4.40625 L 16.3125 -4.40625 C 16.78125 -4.40625 17.015625 -4.640625 17.015625 -5.109375 L 17.015625 -25.15625 C 17.015625 -25.625 17.25 -25.859375 17.71875 -25.859375 L 26.296875 -25.859375 C 26.765625 -25.859375 27 -25.625 27 -25.15625 L 27 -5.109375 C 27 -4.640625 26.765625 -4.40625 26.296875 -4.40625 L 25.484375 -4.40625 C 25.015625 -4.40625 24.78125 -4.171875 24.78125 -3.703125 L 24.78125 -2.890625 C 24.78125 -2.421875 24.546875 -2.1875 24.078125 -2.1875 L 23.265625 -2.1875 C 22.796875 -2.1875 22.5625 -1.953125 22.5625 -1.484375 L 22.5625 -0.671875 C 22.5625 -0.203125 22.328125 0.03125 21.859375 0.03125 L 7.734375 0.03125 C 7.265625 0.03125 7.03125 -0.203125 7.03125 -0.671875 Z M 7.03125 -0.671875 "/></g></g></g><g fill="#000000" fill-opacity="0.5608"><g transform="translate(219.382934, 189.917255)"><g><path d="M 4.4375 -0.703125 L 4.4375 -1.515625 C 4.4375 -1.984375 4.203125 -2.21875 3.734375 -2.21875 L 2.921875 -2.21875 C 2.453125 -2.21875 2.21875 -2.453125 2.21875 -2.921875 L 2.21875 -9.28125 C 2.21875 -9.75 2.453125 -9.984375 2.921875 -9.984375 L 11.5 -9.984375 C 11.96875 -9.984375 12.203125 -9.75 12.203125 -9.28125 L 12.203125 -2.921875 C 12.203125 -2.453125 12.4375 -2.21875 12.90625 -2.21875 L 13.71875 -2.21875 C 14.1875 -2.21875 14.421875 -2.453125 14.421875 -2.921875 L 14.421875 -3.734375 C 14.421875 -4.203125 14.65625 -4.4375 15.125 -4.4375 L 15.984375 -4.4375 C 16.453125 -4.4375 16.6875 -4.671875 16.6875 -5.140625 L 16.6875 -8.84375 C 16.6875 -9.3125 16.453125 -9.546875 15.984375 -9.546875 L 15.15625 -9.546875 C 14.6875 -9.546875 14.453125 -9.78125 14.453125 -10.25 L 14.453125 -11.0625 C 14.453125 -11.53125 14.222656 -11.765625 13.765625 -11.765625 L 5.140625 -11.765625 C 4.671875 -11.765625 4.4375 -12 4.4375 -12.46875 L 4.4375 -13.28125 C 4.4375 -13.75 4.203125 -13.984375 3.734375 -13.984375 L 2.921875 -13.984375 C 2.453125 -13.984375 2.21875 -14.21875 2.21875 -14.6875 L 2.21875 -22.96875 C 2.21875 -23.4375 2.453125 -23.671875 2.921875 -23.671875 L 3.46875 -23.671875 C 3.9375 -23.671875 4.171875 -23.90625 4.171875 -24.375 L 4.171875 -25.1875 C 4.171875 -25.65625 4.40625 -25.890625 4.875 -25.890625 L 23.34375 -25.890625 C 23.8125 -25.890625 24.046875 -25.65625 24.046875 -25.1875 L 24.046875 -24.375 C 24.046875 -23.90625 24.28125 -23.671875 24.75 -23.671875 L 25.5625 -23.671875 C 26.03125 -23.671875 26.265625 -23.4375 26.265625 -22.96875 L 26.265625 -16.609375 C 26.265625 -16.140625 26.03125 -15.90625 25.5625 -15.90625 L 19.5625 -15.90625 C 19.09375 -15.90625 18.859375 -16.140625 18.859375 -16.609375 L 18.859375 -17.421875 C 18.859375 -17.890625 18.625 -18.125 18.15625 -18.125 L 17.34375 -18.125 C 16.875 -18.125 16.640625 -18.359375 16.640625 -18.828125 L 16.640625 -22.96875 C 16.640625 -23.4375 16.40625 -23.671875 15.9375 -23.671875 L 15.125 -23.671875 C 14.65625 -23.671875 14.421875 -23.4375 14.421875 -22.96875 L 14.421875 -22.15625 C 14.421875 -21.6875 14.1875 -21.453125 13.71875 -21.453125 L 12.90625 -21.453125 C 12.4375 -21.453125 12.203125 -21.21875 12.203125 -20.75 L 12.203125 -16.90625 C 12.203125 -16.4375 12.4375 -16.203125 12.90625 -16.203125 L 13.71875 -16.203125 C 14.1875 -16.203125 14.421875 -15.96875 14.421875 -15.5 L 14.421875 -14.6875 C 14.421875 -14.21875 14.65625 -13.984375 15.125 -13.984375 L 23.375 -13.984375 C 23.84375 -13.984375 24.078125 -13.75 24.078125 -13.28125 L 24.078125 -12.46875 C 24.078125 -12 24.3125 -11.765625 24.78125 -11.765625 L 25.59375 -11.765625 C 26.0625 -11.765625 26.296875 -11.53125 26.296875 -11.0625 L 26.296875 -2.921875 C 26.296875 -2.453125 26.0625 -2.21875 25.59375 -2.21875 L 24.78125 -2.21875 C 24.3125 -2.21875 24.078125 -1.984375 24.078125 -1.515625 L 24.078125 -0.703125 C 24.078125 -0.234375 23.84375 0 23.375 0 L 5.140625 0 C 4.671875 0 4.4375 -0.234375 4.4375 -0.703125 Z M 4.4375 -0.703125 "/></g></g></g><g fill="#000000" fill-opacity="0.5608"><g transform="translate(248.221596, 189.917255)"><g><path d="M 6.28125 -0.703125 L 6.28125 -1.515625 C 6.28125 -1.984375 6.046875 -2.21875 5.578125 -2.21875 L 4.765625 -2.21875 C 4.296875 -2.21875 4.0625 -2.453125 4.0625 -2.921875 L 4.0625 -23 C 4.0625 -23.46875 3.828125 -23.703125 3.359375 -23.703125 L 2.1875 -23.703125 C 1.71875 -23.703125 1.484375 -23.9375 1.484375 -24.40625 L 1.484375 -25.1875 C 1.484375 -25.65625 1.71875 -25.890625 2.1875 -25.890625 L 3.359375 -25.890625 C 3.828125 -25.890625 4.0625 -26.125 4.0625 -26.59375 L 4.0625 -31.734375 C 4.0625 -32.203125 4.296875 -32.4375 4.765625 -32.4375 L 13.34375 -32.4375 C 13.8125 -32.4375 14.046875 -32.203125 14.046875 -31.734375 L 14.046875 -26.59375 C 14.046875 -26.125 14.28125 -25.890625 14.75 -25.890625 L 18.5 -25.890625 C 18.957031 -25.890625 19.1875 -25.65625 19.1875 -25.1875 L 19.1875 -24.40625 C 19.1875 -23.9375 18.957031 -23.703125 18.5 -23.703125 L 14.75 -23.703125 C 14.28125 -23.703125 14.046875 -23.46875 14.046875 -23 L 14.046875 -2.921875 C 14.046875 -2.453125 14.28125 -2.21875 14.75 -2.21875 L 15.578125 -2.21875 C 16.035156 -2.21875 16.265625 -2.453125 16.265625 -2.921875 L 16.265625 -6.6875 C 16.265625 -7.15625 16.5 -7.390625 16.96875 -7.390625 L 22.96875 -7.390625 C 23.4375 -7.390625 23.671875 -7.15625 23.671875 -6.6875 L 23.671875 -2.921875 C 23.671875 -2.453125 23.4375 -2.21875 22.96875 -2.21875 L 21.046875 -2.21875 C 20.578125 -2.21875 20.34375 -1.984375 20.34375 -1.515625 L 20.34375 -0.703125 C 20.34375 -0.234375 20.109375 0 19.640625 0 L 6.984375 0 C 6.515625 0 6.28125 -0.234375 6.28125 -0.703125 Z M 6.28125 -0.703125 "/></g></g></g><g fill="#000000" fill-opacity="0.5608"><g transform="translate(272.253809, 189.917255)"><g/></g></g><g fill="#000000" fill-opacity="0.5608"><g transform="translate(281.496972, 189.917255)"><g><path d="M 15.578125 -11.796875 L 12.53125 -11.796875 C 12.0625 -11.796875 11.828125 -11.5625 11.828125 -11.09375 L 11.828125 -2.921875 C 11.828125 -2.453125 12.0625 -2.21875 12.53125 -2.21875 L 13.34375 -2.21875 C 13.8125 -2.21875 14.046875 -2.453125 14.046875 -2.921875 L 14.046875 -3.734375 C 14.046875 -4.203125 14.28125 -4.4375 14.75 -4.4375 L 15.578125 -4.4375 C 16.035156 -4.4375 16.265625 -4.671875 16.265625 -5.140625 L 16.265625 -11.09375 C 16.265625 -11.5625 16.035156 -11.796875 15.578125 -11.796875 Z M 4.0625 -0.703125 L 4.0625 -1.515625 C 4.0625 -1.984375 3.828125 -2.21875 3.359375 -2.21875 L 2.546875 -2.21875 C 2.078125 -2.21875 1.84375 -2.453125 1.84375 -2.921875 L 1.84375 -11.09375 C 1.84375 -11.5625 2.078125 -11.796875 2.546875 -11.796875 L 3.359375 -11.796875 C 3.828125 -11.796875 4.0625 -12.03125 4.0625 -12.5 L 4.0625 -13.3125 C 4.0625 -13.78125 4.296875 -14.015625 4.765625 -14.015625 L 13.34375 -14.015625 C 13.8125 -14.015625 14.046875 -14.25 14.046875 -14.71875 L 14.046875 -15.53125 C 14.046875 -16 14.28125 -16.234375 14.75 -16.234375 L 16.6875 -16.234375 C 17.144531 -16.234375 17.375 -16.46875 17.375 -16.9375 L 17.375 -22.96875 C 17.375 -23.4375 17.144531 -23.671875 16.6875 -23.671875 L 14.75 -23.671875 C 14.28125 -23.671875 14.046875 -23.4375 14.046875 -22.96875 L 14.046875 -19.9375 C 14.046875 -19.46875 13.8125 -19.234375 13.34375 -19.234375 L 12.53125 -19.234375 C 12.0625 -19.234375 11.828125 -19 11.828125 -18.53125 L 11.828125 -16.609375 C 11.828125 -16.140625 11.59375 -15.90625 11.125 -15.90625 L 3.65625 -15.90625 C 3.1875 -15.90625 2.953125 -16.140625 2.953125 -16.609375 L 2.953125 -22.96875 C 2.953125 -23.4375 3.1875 -23.671875 3.65625 -23.671875 L 5.03125 -23.671875 C 5.5 -23.671875 5.734375 -23.90625 5.734375 -24.375 L 5.734375 -25.1875 C 5.734375 -25.65625 5.96875 -25.890625 6.4375 -25.890625 L 23.34375 -25.890625 C 23.8125 -25.890625 24.046875 -25.65625 24.046875 -25.1875 L 24.046875 -24.375 C 24.046875 -23.90625 24.28125 -23.671875 24.75 -23.671875 L 25.5625 -23.671875 C 26.03125 -23.671875 26.265625 -23.4375 26.265625 -22.96875 L 26.265625 -0.703125 C 26.265625 -0.234375 26.03125 0 25.5625 0 L 19.1875 0 C 18.726562 0 18.5 -0.234375 18.5 -0.703125 L 18.5 -1.515625 C 18.5 -1.984375 18.265625 -2.21875 17.796875 -2.21875 L 16.96875 -2.21875 C 16.5 -2.21875 16.265625 -1.984375 16.265625 -1.515625 L 16.265625 -0.703125 C 16.265625 -0.234375 16.035156 0 15.578125 0 L 4.765625 0 C 4.296875 0 4.0625 -0.234375 4.0625 -0.703125 Z M 4.0625 -0.703125 "/></g></g></g><g fill="#000000" fill-opacity="0.5608"><g transform="translate(310.335623, 189.917255)"><g/></g></g><g fill="#000000" fill-opacity="0.5608"><g transform="translate(319.578787, 189.917255)"><g><path d="M 13.28125 -2.21875 L 14.09375 -2.21875 C 14.5625 -2.21875 14.796875 -2.453125 14.796875 -2.921875 L 14.796875 -3.734375 C 14.796875 -4.203125 15.03125 -4.4375 15.5 -4.4375 L 16.3125 -4.4375 C 16.78125 -4.4375 17.015625 -4.671875 17.015625 -5.140625 L 17.015625 -22.890625 C 17.015625 -23.359375 16.78125 -23.59375 16.3125 -23.59375 L 15.5 -23.59375 C 15.03125 -23.59375 14.796875 -23.359375 14.796875 -22.890625 L 14.796875 -22.078125 C 14.796875 -21.609375 14.5625 -21.375 14.09375 -21.375 L 13.28125 -21.375 C 12.8125 -21.375 12.578125 -21.140625 12.578125 -20.671875 L 12.578125 -2.921875 C 12.578125 -2.453125 12.8125 -2.21875 13.28125 -2.21875 Z M 4.8125 -0.703125 L 4.8125 -1.515625 C 4.8125 -1.984375 4.578125 -2.21875 4.109375 -2.21875 L 3.296875 -2.21875 C 3.097656 -2.21875 3 -2.21875 3 -2.21875 C 3 -2.21875 3.097656 -2.21875 3.296875 -2.21875 L 4.109375 -2.21875 C 4.304688 -2.21875 4.40625 -2.21875 4.40625 -2.21875 C 4.40625 -2.21875 4.304688 -2.21875 4.109375 -2.21875 L 3.296875 -2.21875 C 2.828125 -2.21875 2.59375 -2.453125 2.59375 -2.921875 L 2.59375 -20.75 C 2.59375 -21.21875 2.828125 -21.453125 3.296875 -21.453125 L 4.109375 -21.453125 C 4.578125 -21.453125 4.8125 -21.6875 4.8125 -22.15625 L 4.8125 -22.96875 C 4.8125 -23.4375 5.046875 -23.671875 5.515625 -23.671875 L 6.328125 -23.671875 C 6.796875 -23.671875 7.03125 -23.90625 7.03125 -24.375 L 7.03125 -25.1875 C 7.03125 -25.65625 7.265625 -25.890625 7.734375 -25.890625 L 24.109375 -25.890625 C 24.578125 -25.890625 24.8125 -25.65625 24.8125 -25.1875 L 24.8125 -24.375 C 24.8125 -23.90625 25.046875 -23.671875 25.515625 -23.671875 L 26.296875 -23.671875 C 26.765625 -23.671875 27 -23.4375 27 -22.96875 L 27 4.109375 C 27 4.578125 26.765625 4.8125 26.296875 4.8125 L 25.484375 4.8125 C 25.015625 4.8125 24.78125 5.046875 24.78125 5.515625 L 24.78125 6.328125 C 24.78125 6.796875 24.546875 7.03125 24.078125 7.03125 L 23.265625 7.03125 C 22.796875 7.03125 22.5625 7.265625 22.5625 7.734375 L 22.5625 8.546875 C 22.5625 9.015625 22.328125 9.25 21.859375 9.25 L 5.515625 9.25 C 5.046875 9.25 4.8125 9.015625 4.8125 8.546875 L 4.8125 7.734375 C 4.8125 7.265625 4.578125 7.03125 4.109375 7.03125 L 3.296875 7.03125 C 3.097656 7.03125 3 7.03125 3 7.03125 C 3 7.03125 3.097656 7.03125 3.296875 7.03125 L 4.109375 7.03125 C 4.304688 7.03125 4.40625 7.03125 4.40625 7.03125 C 4.40625 7.03125 4.304688 7.03125 4.109375 7.03125 L 3.296875 7.03125 C 2.828125 7.03125 2.59375 6.796875 2.59375 6.328125 L 2.59375 3.296875 C 2.59375 2.828125 2.828125 2.59375 3.296875 2.59375 L 11.875 2.59375 C 12.34375 2.59375 12.578125 2.828125 12.578125 3.296875 L 12.578125 3.890625 C 12.578125 4.359375 12.8125 4.59375 13.28125 4.59375 L 13.71875 4.59375 C 14.1875 4.59375 14.421875 4.820312 14.421875 5.28125 L 14.421875 6.328125 C 14.421875 6.796875 14.65625 7.03125 15.125 7.03125 L 17.421875 7.03125 C 17.890625 7.03125 18.125 6.796875 18.125 6.328125 L 18.125 -1.515625 C 18.125 -1.984375 17.890625 -2.21875 17.421875 -2.21875 L 16.609375 -2.21875 C 16.140625 -2.21875 15.90625 -1.984375 15.90625 -1.515625 L 15.90625 -0.703125 C 15.90625 -0.234375 15.671875 0 15.203125 0 L 5.515625 0 C 5.046875 0 4.8125 -0.234375 4.8125 -0.703125 Z M 4.8125 -0.703125 "/></g></g></g><g fill="#000000" fill-opacity="0.5608"><g transform="translate(349.156909, 189.917255)"><g><path d="M 2.59375 -0.703125 L 2.59375 -25.1875 C 2.59375 -25.65625 2.828125 -25.890625 3.296875 -25.890625 L 11.875 -25.890625 C 12.34375 -25.890625 12.578125 -25.65625 12.578125 -25.1875 L 12.578125 -0.703125 C 12.578125 -0.234375 12.34375 0 11.875 0 L 3.296875 0 C 2.828125 0 2.59375 -0.234375 2.59375 -0.703125 Z M 3.703125 -28.8125 L 3.703125 -28.890625 C 3.703125 -29.359375 3.441406 -29.59375 2.921875 -29.59375 C 2.453125 -29.59375 2.21875 -29.828125 2.21875 -30.296875 L 2.21875 -33.6875 C 2.21875 -34.15625 2.476562 -34.390625 3 -34.390625 C 3.46875 -34.390625 3.703125 -34.648438 3.703125 -35.171875 C 3.703125 -35.640625 3.9375 -35.875 4.40625 -35.875 L 10.765625 -35.875 C 11.234375 -35.875 11.46875 -35.613281 11.46875 -35.09375 C 11.46875 -34.625 11.722656 -34.390625 12.234375 -34.390625 C 12.703125 -34.390625 12.9375 -34.15625 12.9375 -33.6875 L 12.9375 -30.296875 C 12.9375 -29.828125 12.679688 -29.59375 12.171875 -29.59375 C 11.703125 -29.59375 11.46875 -29.332031 11.46875 -28.8125 C 11.46875 -28.34375 11.234375 -28.109375 10.765625 -28.109375 L 4.40625 -28.109375 C 3.9375 -28.109375 3.703125 -28.34375 3.703125 -28.8125 Z M 3.703125 -28.8125 "/></g></g></g><g fill="#000000" fill-opacity="0.5608"><g transform="translate(364.315707, 189.917255)"><g><path d="M 2.59375 -0.703125 L 2.59375 -25.1875 C 2.59375 -25.65625 2.828125 -25.890625 3.296875 -25.890625 L 8.546875 -25.890625 C 9.015625 -25.890625 9.25 -25.65625 9.25 -25.1875 L 9.25 -22.15625 C 9.25 -21.6875 9.484375 -21.453125 9.953125 -21.453125 L 10.765625 -21.453125 C 11.234375 -21.453125 11.46875 -21.6875 11.46875 -22.15625 L 11.46875 -22.96875 C 11.46875 -23.4375 11.703125 -23.671875 12.171875 -23.671875 L 12.984375 -23.671875 C 13.453125 -23.671875 13.6875 -23.90625 13.6875 -24.375 L 13.6875 -25.1875 C 13.6875 -25.65625 13.921875 -25.890625 14.390625 -25.890625 L 20.75 -25.890625 C 21.21875 -25.890625 21.453125 -25.65625 21.453125 -25.1875 L 21.453125 -24.375 C 21.453125 -23.90625 21.6875 -23.671875 22.15625 -23.671875 L 22.96875 -23.671875 C 23.164062 -23.671875 23.265625 -23.671875 23.265625 -23.671875 C 23.265625 -23.671875 23.164062 -23.671875 22.96875 -23.671875 L 22.15625 -23.671875 C 21.957031 -23.671875 21.859375 -23.671875 21.859375 -23.671875 C 21.859375 -23.671875 21.957031 -23.671875 22.15625 -23.671875 L 22.96875 -23.671875 C 23.4375 -23.671875 23.671875 -23.4375 23.671875 -22.96875 L 23.671875 -17.859375 C 23.671875 -17.390625 23.4375 -17.15625 22.96875 -17.15625 L 15.5 -17.15625 C 15.03125 -17.15625 14.796875 -17.390625 14.796875 -17.859375 L 14.796875 -20.75 C 14.796875 -21.21875 14.5625 -21.453125 14.09375 -21.453125 L 13.28125 -21.453125 C 12.8125 -21.453125 12.578125 -21.21875 12.578125 -20.75 L 12.578125 -0.703125 C 12.578125 -0.234375 12.34375 0 11.875 0 L 3.296875 0 C 2.828125 0 2.59375 -0.234375 2.59375 -0.703125 Z M 2.59375 -0.703125 "/></g></g></g><g fill="#000000" fill-opacity="0.5608"><g transform="translate(388.717644, 189.917255)"><g><path d="M 2.59375 -0.703125 L 2.59375 -35.03125 C 2.59375 -35.5 2.828125 -35.734375 3.296875 -35.734375 L 11.875 -35.734375 C 12.34375 -35.734375 12.578125 -35.5 12.578125 -35.03125 L 12.578125 -0.703125 C 12.578125 -0.234375 12.34375 0 11.875 0 L 3.296875 0 C 2.828125 0 2.59375 -0.234375 2.59375 -0.703125 Z M 2.59375 -0.703125 "/></g></g></g><g fill="#ffec45" fill-opacity="1"><g transform="translate(102.035158, 188.248932)"><g><path d="M 2.59375 -0.703125 L 2.59375 -33.921875 C 2.59375 -34.390625 2.828125 -34.625 3.296875 -34.625 L 11.875 -34.625 C 12.34375 -34.625 12.578125 -34.390625 12.578125 -33.921875 L 12.578125 -0.703125 C 12.578125 -0.234375 12.34375 0 11.875 0 L 3.296875 0 C 2.828125 0 2.59375 -0.234375 2.59375 -0.703125 Z M 2.59375 -0.703125 "/></g></g></g><g fill="#ffec45" fill-opacity="1"><g transform="translate(117.193943, 188.248932)"><g><path d="M 2.59375 -0.703125 L 2.59375 -25.1875 C 2.59375 -25.65625 2.828125 -25.890625 3.296875 -25.890625 L 8.546875 -25.890625 C 9.015625 -25.890625 9.25 -25.65625 9.25 -25.1875 L 9.25 -22.15625 C 9.25 -21.6875 9.484375 -21.453125 9.953125 -21.453125 L 10.765625 -21.453125 C 11.234375 -21.453125 11.46875 -21.6875 11.46875 -22.15625 L 11.46875 -22.96875 C 11.46875 -23.4375 11.703125 -23.671875 12.171875 -23.671875 L 12.984375 -23.671875 C 13.453125 -23.671875 13.6875 -23.90625 13.6875 -24.375 L 13.6875 -25.1875 C 13.6875 -25.65625 13.921875 -25.890625 14.390625 -25.890625 L 24.078125 -25.890625 C 24.546875 -25.890625 24.78125 -25.65625 24.78125 -25.1875 L 24.78125 -24.375 C 24.78125 -23.90625 25.015625 -23.671875 25.484375 -23.671875 L 27.40625 -23.671875 C 27.875 -23.671875 28.109375 -23.90625 28.109375 -24.375 L 28.109375 -25.1875 C 28.109375 -25.65625 28.34375 -25.890625 28.8125 -25.890625 L 38.5 -25.890625 C 38.96875 -25.890625 39.203125 -25.65625 39.203125 -25.1875 L 39.203125 -24.375 C 39.203125 -23.90625 39.4375 -23.671875 39.90625 -23.671875 L 40.71875 -23.671875 C 41.1875 -23.671875 41.421875 -23.4375 41.421875 -22.96875 L 41.421875 -0.703125 C 41.421875 -0.234375 41.1875 0 40.71875 0 L 32.140625 0 C 31.671875 0 31.4375 -0.234375 31.4375 -0.703125 L 31.4375 -22.96875 C 31.4375 -23.4375 31.203125 -23.671875 30.734375 -23.671875 L 29.921875 -23.671875 C 29.453125 -23.671875 29.21875 -23.4375 29.21875 -22.96875 L 29.21875 -22.15625 C 29.21875 -21.6875 28.984375 -21.453125 28.515625 -21.453125 L 27.703125 -21.453125 C 27.234375 -21.453125 27 -21.21875 27 -20.75 L 27 -0.703125 C 27 -0.234375 26.765625 0 26.296875 0 L 17.71875 0 C 17.25 0 17.015625 -0.234375 17.015625 -0.703125 L 17.015625 -22.96875 C 17.015625 -23.4375 16.78125 -23.671875 16.3125 -23.671875 L 15.5 -23.671875 C 15.03125 -23.671875 14.796875 -23.4375 14.796875 -22.96875 L 14.796875 -22.15625 C 14.796875 -21.6875 14.5625 -21.453125 14.09375 -21.453125 L 13.28125 -21.453125 C 12.8125 -21.453125 12.578125 -21.21875 12.578125 -20.75 L 12.578125 -0.703125 C 12.578125 -0.234375 12.34375 0 11.875 0 L 3.296875 0 C 2.828125 0 2.59375 -0.234375 2.59375 -0.703125 Z M 2.59375 -0.703125 "/></g></g></g><g fill="#ffec45" fill-opacity="1"><g transform="translate(161.19138, 188.248932)"><g/></g></g><g fill="#ffec45" fill-opacity="1"><g transform="translate(170.434544, 188.248932)"><g><path d="M -2.21875 8.546875 L -2.21875 7.734375 C -2.21875 7.265625 -2.453125 7.03125 -2.921875 7.03125 L -4.84375 7.03125 C -5.3125 7.03125 -5.546875 6.796875 -5.546875 6.328125 L -5.546875 2.546875 C -5.546875 2.078125 -5.3125 1.84375 -4.84375 1.84375 L 1.140625 1.84375 C 1.609375 1.84375 1.84375 2.078125 1.84375 2.546875 L 1.84375 6.328125 C 1.84375 6.796875 2.078125 7.03125 2.546875 7.03125 L 3.359375 7.03125 C 3.828125 7.03125 4.0625 6.796875 4.0625 6.328125 L 4.0625 -25.1875 C 4.0625 -25.65625 4.296875 -25.890625 4.765625 -25.890625 L 13.34375 -25.890625 C 13.8125 -25.890625 14.046875 -25.65625 14.046875 -25.1875 L 14.046875 6.328125 C 14.046875 6.796875 13.8125 7.03125 13.34375 7.03125 L 12.53125 7.03125 C 12.0625 7.03125 11.828125 7.265625 11.828125 7.734375 L 11.828125 8.546875 C 11.828125 9.015625 11.59375 9.25 11.125 9.25 L -1.515625 9.25 C -1.984375 9.25 -2.21875 9.015625 -2.21875 8.546875 Z M 5.171875 -28.8125 L 5.171875 -28.890625 C 5.171875 -29.359375 4.914062 -29.59375 4.40625 -29.59375 C 3.9375 -29.59375 3.703125 -29.828125 3.703125 -30.296875 L 3.703125 -33.6875 C 3.703125 -34.15625 3.957031 -34.390625 4.46875 -34.390625 C 4.9375 -34.390625 5.171875 -34.648438 5.171875 -35.171875 C 5.171875 -35.640625 5.40625 -35.875 5.875 -35.875 L 12.234375 -35.875 C 12.703125 -35.875 12.9375 -35.613281 12.9375 -35.09375 C 12.9375 -34.625 13.195312 -34.390625 13.71875 -34.390625 C 14.1875 -34.390625 14.421875 -34.15625 14.421875 -33.6875 L 14.421875 -30.296875 C 14.421875 -29.828125 14.160156 -29.59375 13.640625 -29.59375 C 13.171875 -29.59375 12.9375 -29.332031 12.9375 -28.8125 C 12.9375 -28.34375 12.703125 -28.109375 12.234375 -28.109375 L 5.875 -28.109375 C 5.40625 -28.109375 5.171875 -28.34375 5.171875 -28.8125 Z M 5.171875 -28.8125 "/></g></g></g><g fill="#ffec45" fill-opacity="1"><g transform="translate(187.885626, 188.248932)"><g><path d="M 7.03125 -0.671875 L 7.03125 -1.484375 C 7.03125 -1.953125 6.796875 -2.1875 6.328125 -2.1875 L 5.515625 -2.1875 C 5.046875 -2.1875 4.8125 -2.421875 4.8125 -2.890625 L 4.8125 -3.703125 C 4.8125 -4.171875 4.578125 -4.40625 4.109375 -4.40625 L 3.296875 -4.40625 C 2.828125 -4.40625 2.59375 -4.640625 2.59375 -5.109375 L 2.59375 -25.15625 C 2.59375 -25.625 2.828125 -25.859375 3.296875 -25.859375 L 11.875 -25.859375 C 12.34375 -25.859375 12.578125 -25.625 12.578125 -25.15625 L 12.578125 -2.890625 C 12.578125 -2.421875 12.8125 -2.1875 13.28125 -2.1875 L 14.09375 -2.1875 C 14.5625 -2.1875 14.796875 -2.421875 14.796875 -2.890625 L 14.796875 -3.703125 C 14.796875 -4.171875 15.03125 -4.40625 15.5 -4.40625 L 16.3125 -4.40625 C 16.78125 -4.40625 17.015625 -4.640625 17.015625 -5.109375 L 17.015625 -25.15625 C 17.015625 -25.625 17.25 -25.859375 17.71875 -25.859375 L 26.296875 -25.859375 C 26.765625 -25.859375 27 -25.625 27 -25.15625 L 27 -5.109375 C 27 -4.640625 26.765625 -4.40625 26.296875 -4.40625 L 25.484375 -4.40625 C 25.015625 -4.40625 24.78125 -4.171875 24.78125 -3.703125 L 24.78125 -2.890625 C 24.78125 -2.421875 24.546875 -2.1875 24.078125 -2.1875 L 23.265625 -2.1875 C 22.796875 -2.1875 22.5625 -1.953125 22.5625 -1.484375 L 22.5625 -0.671875 C 22.5625 -0.203125 22.328125 0.03125 21.859375 0.03125 L 7.734375 0.03125 C 7.265625 0.03125 7.03125 -0.203125 7.03125 -0.671875 Z M 7.03125 -0.671875 "/></g></g></g><g fill="#ffec45" fill-opacity="1"><g transform="translate(217.463738, 188.248932)"><g><path d="M 4.4375 -0.703125 L 4.4375 -1.515625 C 4.4375 -1.984375 4.203125 -2.21875 3.734375 -2.21875 L 2.921875 -2.21875 C 2.453125 -2.21875 2.21875 -2.453125 2.21875 -2.921875 L 2.21875 -9.28125 C 2.21875 -9.75 2.453125 -9.984375 2.921875 -9.984375 L 11.5 -9.984375 C 11.96875 -9.984375 12.203125 -9.75 12.203125 -9.28125 L 12.203125 -2.921875 C 12.203125 -2.453125 12.4375 -2.21875 12.90625 -2.21875 L 13.71875 -2.21875 C 14.1875 -2.21875 14.421875 -2.453125 14.421875 -2.921875 L 14.421875 -3.734375 C 14.421875 -4.203125 14.65625 -4.4375 15.125 -4.4375 L 15.984375 -4.4375 C 16.453125 -4.4375 16.6875 -4.671875 16.6875 -5.140625 L 16.6875 -8.84375 C 16.6875 -9.3125 16.453125 -9.546875 15.984375 -9.546875 L 15.15625 -9.546875 C 14.6875 -9.546875 14.453125 -9.78125 14.453125 -10.25 L 14.453125 -11.0625 C 14.453125 -11.53125 14.222656 -11.765625 13.765625 -11.765625 L 5.140625 -11.765625 C 4.671875 -11.765625 4.4375 -12 4.4375 -12.46875 L 4.4375 -13.28125 C 4.4375 -13.75 4.203125 -13.984375 3.734375 -13.984375 L 2.921875 -13.984375 C 2.453125 -13.984375 2.21875 -14.21875 2.21875 -14.6875 L 2.21875 -22.96875 C 2.21875 -23.4375 2.453125 -23.671875 2.921875 -23.671875 L 3.46875 -23.671875 C 3.9375 -23.671875 4.171875 -23.90625 4.171875 -24.375 L 4.171875 -25.1875 C 4.171875 -25.65625 4.40625 -25.890625 4.875 -25.890625 L 23.34375 -25.890625 C 23.8125 -25.890625 24.046875 -25.65625 24.046875 -25.1875 L 24.046875 -24.375 C 24.046875 -23.90625 24.28125 -23.671875 24.75 -23.671875 L 25.5625 -23.671875 C 26.03125 -23.671875 26.265625 -23.4375 26.265625 -22.96875 L 26.265625 -16.609375 C 26.265625 -16.140625 26.03125 -15.90625 25.5625 -15.90625 L 19.5625 -15.90625 C 19.09375 -15.90625 18.859375 -16.140625 18.859375 -16.609375 L 18.859375 -17.421875 C 18.859375 -17.890625 18.625 -18.125 18.15625 -18.125 L 17.34375 -18.125 C 16.875 -18.125 16.640625 -18.359375 16.640625 -18.828125 L 16.640625 -22.96875 C 16.640625 -23.4375 16.40625 -23.671875 15.9375 -23.671875 L 15.125 -23.671875 C 14.65625 -23.671875 14.421875 -23.4375 14.421875 -22.96875 L 14.421875 -22.15625 C 14.421875 -21.6875 14.1875 -21.453125 13.71875 -21.453125 L 12.90625 -21.453125 C 12.4375 -21.453125 12.203125 -21.21875 12.203125 -20.75 L 12.203125 -16.90625 C 12.203125 -16.4375 12.4375 -16.203125 12.90625 -16.203125 L 13.71875 -16.203125 C 14.1875 -16.203125 14.421875 -15.96875 14.421875 -15.5 L 14.421875 -14.6875 C 14.421875 -14.21875 14.65625 -13.984375 15.125 -13.984375 L 23.375 -13.984375 C 23.84375 -13.984375 24.078125 -13.75 24.078125 -13.28125 L 24.078125 -12.46875 C 24.078125 -12 24.3125 -11.765625 24.78125 -11.765625 L 25.59375 -11.765625 C 26.0625 -11.765625 26.296875 -11.53125 26.296875 -11.0625 L 26.296875 -2.921875 C 26.296875 -2.453125 26.0625 -2.21875 25.59375 -2.21875 L 24.78125 -2.21875 C 24.3125 -2.21875 24.078125 -1.984375 24.078125 -1.515625 L 24.078125 -0.703125 C 24.078125 -0.234375 23.84375 0 23.375 0 L 5.140625 0 C 4.671875 0 4.4375 -0.234375 4.4375 -0.703125 Z M 4.4375 -0.703125 "/></g></g></g><g fill="#ffec45" fill-opacity="1"><g transform="translate(246.3024, 188.248932)"><g><path d="M 6.28125 -0.703125 L 6.28125 -1.515625 C 6.28125 -1.984375 6.046875 -2.21875 5.578125 -2.21875 L 4.765625 -2.21875 C 4.296875 -2.21875 4.0625 -2.453125 4.0625 -2.921875 L 4.0625 -23 C 4.0625 -23.46875 3.828125 -23.703125 3.359375 -23.703125 L 2.1875 -23.703125 C 1.71875 -23.703125 1.484375 -23.9375 1.484375 -24.40625 L 1.484375 -25.1875 C 1.484375 -25.65625 1.71875 -25.890625 2.1875 -25.890625 L 3.359375 -25.890625 C 3.828125 -25.890625 4.0625 -26.125 4.0625 -26.59375 L 4.0625 -31.734375 C 4.0625 -32.203125 4.296875 -32.4375 4.765625 -32.4375 L 13.34375 -32.4375 C 13.8125 -32.4375 14.046875 -32.203125 14.046875 -31.734375 L 14.046875 -26.59375 C 14.046875 -26.125 14.28125 -25.890625 14.75 -25.890625 L 18.5 -25.890625 C 18.957031 -25.890625 19.1875 -25.65625 19.1875 -25.1875 L 19.1875 -24.40625 C 19.1875 -23.9375 18.957031 -23.703125 18.5 -23.703125 L 14.75 -23.703125 C 14.28125 -23.703125 14.046875 -23.46875 14.046875 -23 L 14.046875 -2.921875 C 14.046875 -2.453125 14.28125 -2.21875 14.75 -2.21875 L 15.578125 -2.21875 C 16.035156 -2.21875 16.265625 -2.453125 16.265625 -2.921875 L 16.265625 -6.6875 C 16.265625 -7.15625 16.5 -7.390625 16.96875 -7.390625 L 22.96875 -7.390625 C 23.4375 -7.390625 23.671875 -7.15625 23.671875 -6.6875 L 23.671875 -2.921875 C 23.671875 -2.453125 23.4375 -2.21875 22.96875 -2.21875 L 21.046875 -2.21875 C 20.578125 -2.21875 20.34375 -1.984375 20.34375 -1.515625 L 20.34375 -0.703125 C 20.34375 -0.234375 20.109375 0 19.640625 0 L 6.984375 0 C 6.515625 0 6.28125 -0.234375 6.28125 -0.703125 Z M 6.28125 -0.703125 "/></g></g></g><g fill="#ffec45" fill-opacity="1"><g transform="translate(270.334613, 188.248932)"><g/></g></g><g fill="#ffec45" fill-opacity="1"><g transform="translate(279.577777, 188.248932)"><g><path d="M 15.578125 -11.796875 L 12.53125 -11.796875 C 12.0625 -11.796875 11.828125 -11.5625 11.828125 -11.09375 L 11.828125 -2.921875 C 11.828125 -2.453125 12.0625 -2.21875 12.53125 -2.21875 L 13.34375 -2.21875 C 13.8125 -2.21875 14.046875 -2.453125 14.046875 -2.921875 L 14.046875 -3.734375 C 14.046875 -4.203125 14.28125 -4.4375 14.75 -4.4375 L 15.578125 -4.4375 C 16.035156 -4.4375 16.265625 -4.671875 16.265625 -5.140625 L 16.265625 -11.09375 C 16.265625 -11.5625 16.035156 -11.796875 15.578125 -11.796875 Z M 4.0625 -0.703125 L 4.0625 -1.515625 C 4.0625 -1.984375 3.828125 -2.21875 3.359375 -2.21875 L 2.546875 -2.21875 C 2.078125 -2.21875 1.84375 -2.453125 1.84375 -2.921875 L 1.84375 -11.09375 C 1.84375 -11.5625 2.078125 -11.796875 2.546875 -11.796875 L 3.359375 -11.796875 C 3.828125 -11.796875 4.0625 -12.03125 4.0625 -12.5 L 4.0625 -13.3125 C 4.0625 -13.78125 4.296875 -14.015625 4.765625 -14.015625 L 13.34375 -14.015625 C 13.8125 -14.015625 14.046875 -14.25 14.046875 -14.71875 L 14.046875 -15.53125 C 14.046875 -16 14.28125 -16.234375 14.75 -16.234375 L 16.6875 -16.234375 C 17.144531 -16.234375 17.375 -16.46875 17.375 -16.9375 L 17.375 -22.96875 C 17.375 -23.4375 17.144531 -23.671875 16.6875 -23.671875 L 14.75 -23.671875 C 14.28125 -23.671875 14.046875 -23.4375 14.046875 -22.96875 L 14.046875 -19.9375 C 14.046875 -19.46875 13.8125 -19.234375 13.34375 -19.234375 L 12.53125 -19.234375 C 12.0625 -19.234375 11.828125 -19 11.828125 -18.53125 L 11.828125 -16.609375 C 11.828125 -16.140625 11.59375 -15.90625 11.125 -15.90625 L 3.65625 -15.90625 C 3.1875 -15.90625 2.953125 -16.140625 2.953125 -16.609375 L 2.953125 -22.96875 C 2.953125 -23.4375 3.1875 -23.671875 3.65625 -23.671875 L 5.03125 -23.671875 C 5.5 -23.671875 5.734375 -23.90625 5.734375 -24.375 L 5.734375 -25.1875 C 5.734375 -25.65625 5.96875 -25.890625 6.4375 -25.890625 L 23.34375 -25.890625 C 23.8125 -25.890625 24.046875 -25.65625 24.046875 -25.1875 L 24.046875 -24.375 C 24.046875 -23.90625 24.28125 -23.671875 24.75 -23.671875 L 25.5625 -23.671875 C 26.03125 -23.671875 26.265625 -23.4375 26.265625 -22.96875 L 26.265625 -0.703125 C 26.265625 -0.234375 26.03125 0 25.5625 0 L 19.1875 0 C 18.726562 0 18.5 -0.234375 18.5 -0.703125 L 18.5 -1.515625 C 18.5 -1.984375 18.265625 -2.21875 17.796875 -2.21875 L 16.96875 -2.21875 C 16.5 -2.21875 16.265625 -1.984375 16.265625 -1.515625 L 16.265625 -0.703125 C 16.265625 -0.234375 16.035156 0 15.578125 0 L 4.765625 0 C 4.296875 0 4.0625 -0.234375 4.0625 -0.703125 Z M 4.0625 -0.703125 "/></g></g></g><g fill="#ffec45" fill-opacity="1"><g transform="translate(308.416428, 188.248932)"><g/></g></g><g fill="#ffec45" fill-opacity="1"><g transform="translate(317.659591, 188.248932)"><g><path d="M 13.28125 -2.21875 L 14.09375 -2.21875 C 14.5625 -2.21875 14.796875 -2.453125 14.796875 -2.921875 L 14.796875 -3.734375 C 14.796875 -4.203125 15.03125 -4.4375 15.5 -4.4375 L 16.3125 -4.4375 C 16.78125 -4.4375 17.015625 -4.671875 17.015625 -5.140625 L 17.015625 -22.890625 C 17.015625 -23.359375 16.78125 -23.59375 16.3125 -23.59375 L 15.5 -23.59375 C 15.03125 -23.59375 14.796875 -23.359375 14.796875 -22.890625 L 14.796875 -22.078125 C 14.796875 -21.609375 14.5625 -21.375 14.09375 -21.375 L 13.28125 -21.375 C 12.8125 -21.375 12.578125 -21.140625 12.578125 -20.671875 L 12.578125 -2.921875 C 12.578125 -2.453125 12.8125 -2.21875 13.28125 -2.21875 Z M 4.8125 -0.703125 L 4.8125 -1.515625 C 4.8125 -1.984375 4.578125 -2.21875 4.109375 -2.21875 L 3.296875 -2.21875 C 3.097656 -2.21875 3 -2.21875 3 -2.21875 C 3 -2.21875 3.097656 -2.21875 3.296875 -2.21875 L 4.109375 -2.21875 C 4.304688 -2.21875 4.40625 -2.21875 4.40625 -2.21875 C 4.40625 -2.21875 4.304688 -2.21875 4.109375 -2.21875 L 3.296875 -2.21875 C 2.828125 -2.21875 2.59375 -2.453125 2.59375 -2.921875 L 2.59375 -20.75 C 2.59375 -21.21875 2.828125 -21.453125 3.296875 -21.453125 L 4.109375 -21.453125 C 4.578125 -21.453125 4.8125 -21.6875 4.8125 -22.15625 L 4.8125 -22.96875 C 4.8125 -23.4375 5.046875 -23.671875 5.515625 -23.671875 L 6.328125 -23.671875 C 6.796875 -23.671875 7.03125 -23.90625 7.03125 -24.375 L 7.03125 -25.1875 C 7.03125 -25.65625 7.265625 -25.890625 7.734375 -25.890625 L 24.109375 -25.890625 C 24.578125 -25.890625 24.8125 -25.65625 24.8125 -25.1875 L 24.8125 -24.375 C 24.8125 -23.90625 25.046875 -23.671875 25.515625 -23.671875 L 26.296875 -23.671875 C 26.765625 -23.671875 27 -23.4375 27 -22.96875 L 27 4.109375 C 27 4.578125 26.765625 4.8125 26.296875 4.8125 L 25.484375 4.8125 C 25.015625 4.8125 24.78125 5.046875 24.78125 5.515625 L 24.78125 6.328125 C 24.78125 6.796875 24.546875 7.03125 24.078125 7.03125 L 23.265625 7.03125 C 22.796875 7.03125 22.5625 7.265625 22.5625 7.734375 L 22.5625 8.546875 C 22.5625 9.015625 22.328125 9.25 21.859375 9.25 L 5.515625 9.25 C 5.046875 9.25 4.8125 9.015625 4.8125 8.546875 L 4.8125 7.734375 C 4.8125 7.265625 4.578125 7.03125 4.109375 7.03125 L 3.296875 7.03125 C 3.097656 7.03125 3 7.03125 3 7.03125 C 3 7.03125 3.097656 7.03125 3.296875 7.03125 L 4.109375 7.03125 C 4.304688 7.03125 4.40625 7.03125 4.40625 7.03125 C 4.40625 7.03125 4.304688 7.03125 4.109375 7.03125 L 3.296875 7.03125 C 2.828125 7.03125 2.59375 6.796875 2.59375 6.328125 L 2.59375 3.296875 C 2.59375 2.828125 2.828125 2.59375 3.296875 2.59375 L 11.875 2.59375 C 12.34375 2.59375 12.578125 2.828125 12.578125 3.296875 L 12.578125 3.890625 C 12.578125 4.359375 12.8125 4.59375 13.28125 4.59375 L 13.71875 4.59375 C 14.1875 4.59375 14.421875 4.820312 14.421875 5.28125 L 14.421875 6.328125 C 14.421875 6.796875 14.65625 7.03125 15.125 7.03125 L 17.421875 7.03125 C 17.890625 7.03125 18.125 6.796875 18.125 6.328125 L 18.125 -1.515625 C 18.125 -1.984375 17.890625 -2.21875 17.421875 -2.21875 L 16.609375 -2.21875 C 16.140625 -2.21875 15.90625 -1.984375 15.90625 -1.515625 L 15.90625 -0.703125 C 15.90625 -0.234375 15.671875 0 15.203125 0 L 5.515625 0 C 5.046875 0 4.8125 -0.234375 4.8125 -0.703125 Z M 4.8125 -0.703125 "/></g></g></g><g fill="#ffec45" fill-opacity="1"><g transform="translate(347.237714, 188.248932)"><g><path d="M 2.59375 -0.703125 L 2.59375 -25.1875 C 2.59375 -25.65625 2.828125 -25.890625 3.296875 -25.890625 L 11.875 -25.890625 C 12.34375 -25.890625 12.578125 -25.65625 12.578125 -25.1875 L 12.578125 -0.703125 C 12.578125 -0.234375 12.34375 0 11.875 0 L 3.296875 0 C 2.828125 0 2.59375 -0.234375 2.59375 -0.703125 Z M 3.703125 -28.8125 L 3.703125 -28.890625 C 3.703125 -29.359375 3.441406 -29.59375 2.921875 -29.59375 C 2.453125 -29.59375 2.21875 -29.828125 2.21875 -30.296875 L 2.21875 -33.6875 C 2.21875 -34.15625 2.476562 -34.390625 3 -34.390625 C 3.46875 -34.390625 3.703125 -34.648438 3.703125 -35.171875 C 3.703125 -35.640625 3.9375 -35.875 4.40625 -35.875 L 10.765625 -35.875 C 11.234375 -35.875 11.46875 -35.613281 11.46875 -35.09375 C 11.46875 -34.625 11.722656 -34.390625 12.234375 -34.390625 C 12.703125 -34.390625 12.9375 -34.15625 12.9375 -33.6875 L 12.9375 -30.296875 C 12.9375 -29.828125 12.679688 -29.59375 12.171875 -29.59375 C 11.703125 -29.59375 11.46875 -29.332031 11.46875 -28.8125 C 11.46875 -28.34375 11.234375 -28.109375 10.765625 -28.109375 L 4.40625 -28.109375 C 3.9375 -28.109375 3.703125 -28.34375 3.703125 -28.8125 Z M 3.703125 -28.8125 "/></g></g></g><g fill="#ffec45" fill-opacity="1"><g transform="translate(362.396511, 188.248932)"><g><path d="M 2.59375 -0.703125 L 2.59375 -25.1875 C 2.59375 -25.65625 2.828125 -25.890625 3.296875 -25.890625 L 8.546875 -25.890625 C 9.015625 -25.890625 9.25 -25.65625 9.25 -25.1875 L 9.25 -22.15625 C 9.25 -21.6875 9.484375 -21.453125 9.953125 -21.453125 L 10.765625 -21.453125 C 11.234375 -21.453125 11.46875 -21.6875 11.46875 -22.15625 L 11.46875 -22.96875 C 11.46875 -23.4375 11.703125 -23.671875 12.171875 -23.671875 L 12.984375 -23.671875 C 13.453125 -23.671875 13.6875 -23.90625 13.6875 -24.375 L 13.6875 -25.1875 C 13.6875 -25.65625 13.921875 -25.890625 14.390625 -25.890625 L 20.75 -25.890625 C 21.21875 -25.890625 21.453125 -25.65625 21.453125 -25.1875 L 21.453125 -24.375 C 21.453125 -23.90625 21.6875 -23.671875 22.15625 -23.671875 L 22.96875 -23.671875 C 23.164062 -23.671875 23.265625 -23.671875 23.265625 -23.671875 C 23.265625 -23.671875 23.164062 -23.671875 22.96875 -23.671875 L 22.15625 -23.671875 C 21.957031 -23.671875 21.859375 -23.671875 21.859375 -23.671875 C 21.859375 -23.671875 21.957031 -23.671875 22.15625 -23.671875 L 22.96875 -23.671875 C 23.4375 -23.671875 23.671875 -23.4375 23.671875 -22.96875 L 23.671875 -17.859375 C 23.671875 -17.390625 23.4375 -17.15625 22.96875 -17.15625 L 15.5 -17.15625 C 15.03125 -17.15625 14.796875 -17.390625 14.796875 -17.859375 L 14.796875 -20.75 C 14.796875 -21.21875 14.5625 -21.453125 14.09375 -21.453125 L 13.28125 -21.453125 C 12.8125 -21.453125 12.578125 -21.21875 12.578125 -20.75 L 12.578125 -0.703125 C 12.578125 -0.234375 12.34375 0 11.875 0 L 3.296875 0 C 2.828125 0 2.59375 -0.234375 2.59375 -0.703125 Z M 2.59375 -0.703125 "/></g></g></g><g fill="#ffec45" fill-opacity="1"><g transform="translate(386.798448, 188.248932)"><g><path d="M 2.59375 -0.703125 L 2.59375 -35.03125 C 2.59375 -35.5 2.828125 -35.734375 3.296875 -35.734375 L 11.875 -35.734375 C 12.34375 -35.734375 12.578125 -35.5 12.578125 -35.03125 L 12.578125 -0.703125 C 12.578125 -0.234375 12.34375 0 11.875 0 L 3.296875 0 C 2.828125 0 2.59375 -0.234375 2.59375 -0.703125 Z M 2.59375 -0.703125 "/></g></g></g></svg>