<svg xmlns="http://www.w3.org/2000/svg" xmlns:xlink="http://www.w3.org/1999/xlink" width="672" zoomAndPan="magnify" viewBox="0 0 504 359.999987" height="480" preserveAspectRatio="xMidYMid meet" version="1.0"><defs><g/></defs><g fill="#000000" fill-opacity="0.5608"><g transform="translate(32.188734, 189.917198)"><g><path d="M 4.8125 -0.703125 L 4.8125 -1.515625 C 4.8125 -1.984375 4.578125 -2.21875 4.109375 -2.21875 L 3.296875 -2.21875 C 2.828125 -2.21875 2.59375 -2.453125 2.59375 -2.921875 L 2.59375 -25.1875 C 2.59375 -25.65625 2.828125 -25.890625 3.296875 -25.890625 L 11.875 -25.890625 C 12.34375 -25.890625 12.578125 -25.65625 12.578125 -25.1875 L 12.578125 -2.921875 C 12.578125 -2.453125 12.8125 -2.21875 13.28125 -2.21875 L 14.34375 -2.21875 C 14.8125 -2.21875 15.046875 -2.453125 15.046875 -2.921875 L 15.046875 -3.734375 C 15.046875 -4.203125 15.28125 -4.4375 15.75 -4.4375 L 16.5625 -4.4375 C 17.03125 -4.4375 17.265625 -4.671875 17.265625 -5.140625 L 17.265625 -25.1875 C 17.265625 -25.65625 17.5 -25.890625 17.96875 -25.890625 L 26.5625 -25.890625 C 27.019531 -25.890625 27.25 -25.65625 27.25 -25.1875 L 27.25 -9.578125 C 27.25 -9.109375 27.019531 -8.875 26.5625 -8.875 L 25.328125 -8.875 C 24.859375 -8.875 24.625 -8.640625 24.625 -8.171875 L 24.625 -7.359375 C 24.625 -6.890625 24.390625 -6.65625 23.921875 -6.65625 L 23.109375 -6.65625 C 22.640625 -6.65625 22.40625 -6.421875 22.40625 -5.953125 L 22.40625 -5.140625 C 22.40625 -4.671875 22.171875 -4.4375 21.703125 -4.4375 L 20.890625 -4.4375 C 20.421875 -4.4375 20.1875 -4.203125 20.1875 -3.734375 L 20.1875 -2.921875 C 20.1875 -2.453125 19.953125 -2.21875 19.484375 -2.21875 L 19.125 -2.21875 C 18.65625 -2.21875 18.421875 -1.984375 18.421875 -1.515625 L 18.421875 -0.703125 C 18.421875 -0.234375 18.1875 0 17.71875 0 L 5.515625 0 C 5.046875 0 4.8125 -0.234375 4.8125 -0.703125 Z M 4.8125 -0.703125 "/></g></g></g><g fill="#000000" fill-opacity="0.5608"><g transform="translate(61.655929, 189.917198)"><g><path d="M 7.03125 -0.703125 L 7.03125 -1.515625 C 7.03125 -1.984375 6.796875 -2.21875 6.328125 -2.21875 L 5.515625 -2.21875 C 5.046875 -2.21875 4.8125 -2.453125 4.8125 -2.921875 L 4.8125 -3.734375 C 4.8125 -4.203125 4.578125 -4.4375 4.109375 -4.4375 L 3.296875 -4.4375 C 2.828125 -4.4375 2.59375 -4.671875 2.59375 -5.140625 L 2.59375 -20.75 C 2.59375 -21.21875 2.828125 -21.453125 3.296875 -21.453125 L 4.109375 -21.453125 C 4.578125 -21.453125 4.8125 -21.6875 4.8125 -22.15625 L 4.8125 -22.96875 C 4.8125 -23.4375 5.046875 -23.671875 5.515625 -23.671875 L 6.328125 -23.671875 C 6.796875 -23.671875 7.03125 -23.90625 7.03125 -24.375 L 7.03125 -25.1875 C 7.03125 -25.65625 7.265625 -25.890625 7.734375 -25.890625 L 21.859375 -25.890625 C 22.328125 -25.890625 22.5625 -25.65625 22.5625 -25.1875 L 22.5625 -24.375 C 22.5625 -23.90625 22.796875 -23.671875 23.265625 -23.671875 L 24.078125 -23.671875 C 24.546875 -23.671875 24.78125 -23.4375 24.78125 -22.96875 L 24.78125 -22.15625 C 24.78125 -21.6875 25.015625 -21.453125 25.484375 -21.453125 L 26.296875 -21.453125 C 26.765625 -21.453125 27 -21.21875 27 -20.75 L 27 -14.75 C 27 -14.28125 26.765625 -14.046875 26.296875 -14.046875 L 25.484375 -14.046875 C 25.015625 -14.046875 24.78125 -13.8125 24.78125 -13.34375 L 24.78125 -12.53125 C 24.78125 -12.0625 24.546875 -11.828125 24.078125 -11.828125 L 13.28125 -11.828125 C 12.8125 -11.828125 12.578125 -11.59375 12.578125 -11.125 L 12.578125 -2.921875 C 12.578125 -2.453125 12.8125 -2.21875 13.28125 -2.21875 L 14.09375 -2.21875 C 14.5625 -2.21875 14.796875 -2.453125 14.796875 -2.921875 L 14.796875 -3.734375 C 14.796875 -4.203125 15.03125 -4.4375 15.5 -4.4375 L 16.3125 -4.4375 C 16.78125 -4.4375 17.015625 -4.671875 17.015625 -5.140625 L 17.015625 -7.6875 C 17.015625 -8.15625 17.25 -8.390625 17.71875 -8.390625 L 26.296875 -8.390625 C 26.765625 -8.390625 27 -8.15625 27 -7.6875 L 27 -5.140625 C 27 -4.671875 26.765625 -4.4375 26.296875 -4.4375 L 25.484375 -4.4375 C 25.015625 -4.4375 24.78125 -4.203125 24.78125 -3.734375 L 24.78125 -2.921875 C 24.78125 -2.453125 24.546875 -2.21875 24.078125 -2.21875 L 23.265625 -2.21875 C 22.796875 -2.21875 22.5625 -1.984375 22.5625 -1.515625 L 22.5625 -0.703125 C 22.5625 -0.234375 22.328125 0 21.859375 0 L 7.734375 0 C 7.265625 0 7.03125 -0.234375 7.03125 -0.703125 Z M 13.28125 -14.046875 L 16.3125 -14.046875 C 16.78125 -14.046875 17.015625 -14.28125 17.015625 -14.75 L 17.015625 -22.96875 C 17.015625 -23.4375 16.78125 -23.671875 16.3125 -23.671875 L 15.5 -23.671875 C 15.03125 -23.671875 14.796875 -23.4375 14.796875 -22.96875 L 14.796875 -22.15625 C 14.796875 -21.6875 14.5625 -21.453125 14.09375 -21.453125 L 13.28125 -21.453125 C 12.8125 -21.453125 12.578125 -21.21875 12.578125 -20.75 L 12.578125 -14.75 C 12.578125 -14.28125 12.8125 -14.046875 13.28125 -14.046875 Z M 13.28125 -14.046875 "/></g></g></g><g fill="#000000" fill-opacity="0.5608"><g transform="translate(90.494592, 189.917198)"><g><path d="M 2.59375 -0.703125 L 2.59375 -25.1875 C 2.59375 -25.65625 2.828125 -25.890625 3.296875 -25.890625 L 8.546875 -25.890625 C 9.015625 -25.890625 9.25 -25.65625 9.25 -25.1875 L 9.25 -22.15625 C 9.25 -21.6875 9.484375 -21.453125 9.953125 -21.453125 L 10.765625 -21.453125 C 11.234375 -21.453125 11.46875 -21.6875 11.46875 -22.15625 L 11.46875 -22.96875 C 11.46875 -23.4375 11.703125 -23.671875 12.171875 -23.671875 L 12.984375 -23.671875 C 13.453125 -23.671875 13.6875 -23.90625 13.6875 -24.375 L 13.6875 -25.1875 C 13.6875 -25.65625 13.921875 -25.890625 14.390625 -25.890625 L 20.75 -25.890625 C 21.21875 -25.890625 21.453125 -25.65625 21.453125 -25.1875 L 21.453125 -24.375 C 21.453125 -23.90625 21.6875 -23.671875 22.15625 -23.671875 L 22.96875 -23.671875 C 23.164062 -23.671875 23.265625 -23.671875 23.265625 -23.671875 C 23.265625 -23.671875 23.164062 -23.671875 22.96875 -23.671875 L 22.15625 -23.671875 C 21.957031 -23.671875 21.859375 -23.671875 21.859375 -23.671875 C 21.859375 -23.671875 21.957031 -23.671875 22.15625 -23.671875 L 22.96875 -23.671875 C 23.4375 -23.671875 23.671875 -23.4375 23.671875 -22.96875 L 23.671875 -17.859375 C 23.671875 -17.390625 23.4375 -17.15625 22.96875 -17.15625 L 15.5 -17.15625 C 15.03125 -17.15625 14.796875 -17.390625 14.796875 -17.859375 L 14.796875 -20.75 C 14.796875 -21.21875 14.5625 -21.453125 14.09375 -21.453125 L 13.28125 -21.453125 C 12.8125 -21.453125 12.578125 -21.21875 12.578125 -20.75 L 12.578125 -0.703125 C 12.578125 -0.234375 12.34375 0 11.875 0 L 3.296875 0 C 2.828125 0 2.59375 -0.234375 2.59375 -0.703125 Z M 2.59375 -0.703125 "/></g></g></g><g fill="#000000" fill-opacity="0.5608"><g transform="translate(114.896529, 189.917198)"><g><path d="M 4.8125 -0.703125 L 4.8125 -1.515625 C 4.8125 -1.984375 4.578125 -2.21875 4.109375 -2.21875 L 3.296875 -2.21875 C 3.097656 -2.21875 3 -2.21875 3 -2.21875 C 3 -2.21875 3.097656 -2.21875 3.296875 -2.21875 L 4.109375 -2.21875 C 4.304688 -2.21875 4.40625 -2.21875 4.40625 -2.21875 C 4.40625 -2.21875 4.304688 -2.21875 4.109375 -2.21875 L 3.296875 -2.21875 C 2.828125 -2.21875 2.59375 -2.453125 2.59375 -2.921875 L 2.59375 -25.1875 C 2.59375 -25.65625 2.828125 -25.890625 3.296875 -25.890625 L 11.875 -25.890625 C 12.34375 -25.890625 12.578125 -25.65625 12.578125 -25.1875 L 12.578125 -2.921875 C 12.578125 -2.453125 12.8125 -2.21875 13.28125 -2.21875 L 14.09375 -2.21875 C 14.5625 -2.21875 14.796875 -2.453125 14.796875 -2.921875 L 14.796875 -3.734375 C 14.796875 -4.203125 15.03125 -4.4375 15.5 -4.4375 L 16.3125 -4.4375 C 16.78125 -4.4375 17.015625 -4.671875 17.015625 -5.140625 L 17.015625 -25.1875 C 17.015625 -25.65625 17.25 -25.890625 17.71875 -25.890625 L 26.296875 -25.890625 C 26.765625 -25.890625 27 -25.65625 27 -25.1875 L 27 4.109375 C 27 4.578125 26.765625 4.8125 26.296875 4.8125 L 25.484375 4.8125 C 25.015625 4.8125 24.78125 5.046875 24.78125 5.515625 L 24.78125 6.328125 C 24.78125 6.796875 24.546875 7.03125 24.078125 7.03125 L 23.265625 7.03125 C 22.796875 7.03125 22.5625 7.265625 22.5625 7.734375 L 22.5625 8.546875 C 22.5625 9.015625 22.328125 9.25 21.859375 9.25 L 5.515625 9.25 C 5.046875 9.25 4.8125 9.015625 4.8125 8.546875 L 4.8125 7.734375 C 4.8125 7.265625 4.578125 7.03125 4.109375 7.03125 L 3.296875 7.03125 C 3.097656 7.03125 3 7.03125 3 7.03125 C 3 7.03125 3.097656 7.03125 3.296875 7.03125 L 4.109375 7.03125 C 4.304688 7.03125 4.40625 7.03125 4.40625 7.03125 C 4.40625 7.03125 4.304688 7.03125 4.109375 7.03125 L 3.296875 7.03125 C 2.828125 7.03125 2.59375 6.796875 2.59375 6.328125 L 2.59375 3.296875 C 2.59375 2.828125 2.828125 2.59375 3.296875 2.59375 L 11.875 2.59375 C 12.34375 2.59375 12.578125 2.828125 12.578125 3.296875 L 12.578125 3.890625 C 12.578125 4.359375 12.8125 4.59375 13.28125 4.59375 L 13.71875 4.59375 C 14.1875 4.59375 14.421875 4.820312 14.421875 5.28125 L 14.421875 6.328125 C 14.421875 6.796875 14.65625 7.03125 15.125 7.03125 L 17.421875 7.03125 C 17.890625 7.03125 18.125 6.796875 18.125 6.328125 L 18.125 -1.515625 C 18.125 -1.984375 17.890625 -2.21875 17.421875 -2.21875 L 16.609375 -2.21875 C 16.140625 -2.21875 15.90625 -1.984375 15.90625 -1.515625 L 15.90625 -0.703125 C 15.90625 -0.234375 15.671875 0 15.203125 0 L 5.515625 0 C 5.046875 0 4.8125 -0.234375 4.8125 -0.703125 Z M 4.8125 -0.703125 "/></g></g></g><g fill="#000000" fill-opacity="0.5608"><g transform="translate(144.474641, 189.917198)"><g/></g></g><g fill="#000000" fill-opacity="0.5608"><g transform="translate(153.717804, 189.917198)"><g><path d="M 14.09375 -21.40625 L 13.28125 -21.40625 C 12.8125 -21.40625 12.578125 -21.175781 12.578125 -20.71875 L 12.578125 -2.890625 C 12.578125 -2.421875 12.8125 -2.1875 13.28125 -2.1875 L 14.09375 -2.1875 C 14.5625 -2.1875 14.796875 -2.421875 14.796875 -2.890625 L 14.796875 -3.703125 C 14.796875 -4.171875 15.03125 -4.40625 15.5 -4.40625 L 16.3125 -4.40625 C 16.78125 -4.40625 17.015625 -4.640625 17.015625 -5.109375 L 17.015625 -22.9375 C 17.015625 -23.40625 16.78125 -23.640625 16.3125 -23.640625 L 15.5 -23.640625 C 15.03125 -23.640625 14.796875 -23.40625 14.796875 -22.9375 L 14.796875 -22.109375 C 14.796875 -21.640625 14.5625 -21.40625 14.09375 -21.40625 Z M 7.03125 -0.671875 L 7.03125 -1.484375 C 7.03125 -1.953125 6.796875 -2.1875 6.328125 -2.1875 L 5.515625 -2.1875 C 5.046875 -2.1875 4.8125 -2.421875 4.8125 -2.890625 L 4.8125 -3.703125 C 4.8125 -4.171875 4.578125 -4.40625 4.109375 -4.40625 L 3.296875 -4.40625 C 2.828125 -4.40625 2.59375 -4.640625 2.59375 -5.109375 L 2.59375 -20.71875 C 2.59375 -21.175781 2.828125 -21.40625 3.296875 -21.40625 L 4.109375 -21.40625 C 4.578125 -21.40625 4.8125 -21.640625 4.8125 -22.109375 L 4.8125 -22.9375 C 4.8125 -23.40625 5.046875 -23.640625 5.515625 -23.640625 L 6.328125 -23.640625 C 6.796875 -23.640625 7.03125 -23.867188 7.03125 -24.328125 L 7.03125 -25.15625 C 7.03125 -25.625 7.265625 -25.859375 7.734375 -25.859375 L 16.3125 -25.859375 C 16.78125 -25.859375 17.015625 -26.09375 17.015625 -26.5625 L 17.015625 -35.03125 C 17.015625 -35.5 17.25 -35.734375 17.71875 -35.734375 L 26.296875 -35.734375 C 26.765625 -35.734375 27 -35.5 27 -35.03125 L 27 -0.671875 C 27 -0.203125 26.765625 0.03125 26.296875 0.03125 L 7.734375 0.03125 C 7.265625 0.03125 7.03125 -0.203125 7.03125 -0.671875 Z M 7.03125 -0.671875 "/></g></g></g><g fill="#000000" fill-opacity="0.5608"><g transform="translate(183.295915, 189.917198)"><g><path d="M 7.03125 -0.703125 L 7.03125 -1.515625 C 7.03125 -1.984375 6.796875 -2.21875 6.328125 -2.21875 L 5.515625 -2.21875 C 5.046875 -2.21875 4.8125 -2.453125 4.8125 -2.921875 L 4.8125 -3.734375 C 4.8125 -4.203125 4.578125 -4.4375 4.109375 -4.4375 L 3.296875 -4.4375 C 2.828125 -4.4375 2.59375 -4.671875 2.59375 -5.140625 L 2.59375 -20.75 C 2.59375 -21.21875 2.828125 -21.453125 3.296875 -21.453125 L 4.109375 -21.453125 C 4.578125 -21.453125 4.8125 -21.6875 4.8125 -22.15625 L 4.8125 -22.96875 C 4.8125 -23.4375 5.046875 -23.671875 5.515625 -23.671875 L 6.328125 -23.671875 C 6.796875 -23.671875 7.03125 -23.90625 7.03125 -24.375 L 7.03125 -25.1875 C 7.03125 -25.65625 7.265625 -25.890625 7.734375 -25.890625 L 21.859375 -25.890625 C 22.328125 -25.890625 22.5625 -25.65625 22.5625 -25.1875 L 22.5625 -24.375 C 22.5625 -23.90625 22.796875 -23.671875 23.265625 -23.671875 L 24.078125 -23.671875 C 24.546875 -23.671875 24.78125 -23.4375 24.78125 -22.96875 L 24.78125 -22.15625 C 24.78125 -21.6875 25.015625 -21.453125 25.484375 -21.453125 L 26.296875 -21.453125 C 26.765625 -21.453125 27 -21.21875 27 -20.75 L 27 -14.75 C 27 -14.28125 26.765625 -14.046875 26.296875 -14.046875 L 25.484375 -14.046875 C 25.015625 -14.046875 24.78125 -13.8125 24.78125 -13.34375 L 24.78125 -12.53125 C 24.78125 -12.0625 24.546875 -11.828125 24.078125 -11.828125 L 13.28125 -11.828125 C 12.8125 -11.828125 12.578125 -11.59375 12.578125 -11.125 L 12.578125 -2.921875 C 12.578125 -2.453125 12.8125 -2.21875 13.28125 -2.21875 L 14.09375 -2.21875 C 14.5625 -2.21875 14.796875 -2.453125 14.796875 -2.921875 L 14.796875 -3.734375 C 14.796875 -4.203125 15.03125 -4.4375 15.5 -4.4375 L 16.3125 -4.4375 C 16.78125 -4.4375 17.015625 -4.671875 17.015625 -5.140625 L 17.015625 -7.6875 C 17.015625 -8.15625 17.25 -8.390625 17.71875 -8.390625 L 26.296875 -8.390625 C 26.765625 -8.390625 27 -8.15625 27 -7.6875 L 27 -5.140625 C 27 -4.671875 26.765625 -4.4375 26.296875 -4.4375 L 25.484375 -4.4375 C 25.015625 -4.4375 24.78125 -4.203125 24.78125 -3.734375 L 24.78125 -2.921875 C 24.78125 -2.453125 24.546875 -2.21875 24.078125 -2.21875 L 23.265625 -2.21875 C 22.796875 -2.21875 22.5625 -1.984375 22.5625 -1.515625 L 22.5625 -0.703125 C 22.5625 -0.234375 22.328125 0 21.859375 0 L 7.734375 0 C 7.265625 0 7.03125 -0.234375 7.03125 -0.703125 Z M 13.28125 -14.046875 L 16.3125 -14.046875 C 16.78125 -14.046875 17.015625 -14.28125 17.015625 -14.75 L 17.015625 -22.96875 C 17.015625 -23.4375 16.78125 -23.671875 16.3125 -23.671875 L 15.5 -23.671875 C 15.03125 -23.671875 14.796875 -23.4375 14.796875 -22.96875 L 14.796875 -22.15625 C 14.796875 -21.6875 14.5625 -21.453125 14.09375 -21.453125 L 13.28125 -21.453125 C 12.8125 -21.453125 12.578125 -21.21875 12.578125 -20.75 L 12.578125 -14.75 C 12.578125 -14.28125 12.8125 -14.046875 13.28125 -14.046875 Z M 13.28125 -14.046875 "/></g></g></g><g fill="#000000" fill-opacity="0.5608"><g transform="translate(212.134578, 189.917198)"><g><path d="M 2.59375 -0.703125 L 2.59375 -25.1875 C 2.59375 -25.65625 2.828125 -25.890625 3.296875 -25.890625 L 8.546875 -25.890625 C 9.015625 -25.890625 9.25 -25.65625 9.25 -25.1875 L 9.25 -22.15625 C 9.25 -21.6875 9.484375 -21.453125 9.953125 -21.453125 L 10.765625 -21.453125 C 11.234375 -21.453125 11.46875 -21.6875 11.46875 -22.15625 L 11.46875 -22.96875 C 11.46875 -23.4375 11.703125 -23.671875 12.171875 -23.671875 L 12.984375 -23.671875 C 13.453125 -23.671875 13.6875 -23.90625 13.6875 -24.375 L 13.6875 -25.1875 C 13.6875 -25.65625 13.921875 -25.890625 14.390625 -25.890625 L 24.078125 -25.890625 C 24.546875 -25.890625 24.78125 -25.65625 24.78125 -25.1875 L 24.78125 -24.375 C 24.78125 -23.90625 25.015625 -23.671875 25.484375 -23.671875 L 27.40625 -23.671875 C 27.875 -23.671875 28.109375 -23.90625 28.109375 -24.375 L 28.109375 -25.1875 C 28.109375 -25.65625 28.34375 -25.890625 28.8125 -25.890625 L 38.5 -25.890625 C 38.96875 -25.890625 39.203125 -25.65625 39.203125 -25.1875 L 39.203125 -24.375 C 39.203125 -23.90625 39.4375 -23.671875 39.90625 -23.671875 L 40.71875 -23.671875 C 41.1875 -23.671875 41.421875 -23.4375 41.421875 -22.96875 L 41.421875 -0.703125 C 41.421875 -0.234375 41.1875 0 40.71875 0 L 32.140625 0 C 31.671875 0 31.4375 -0.234375 31.4375 -0.703125 L 31.4375 -22.96875 C 31.4375 -23.4375 31.203125 -23.671875 30.734375 -23.671875 L 29.921875 -23.671875 C 29.453125 -23.671875 29.21875 -23.4375 29.21875 -22.96875 L 29.21875 -22.15625 C 29.21875 -21.6875 28.984375 -21.453125 28.515625 -21.453125 L 27.703125 -21.453125 C 27.234375 -21.453125 27 -21.21875 27 -20.75 L 27 -0.703125 C 27 -0.234375 26.765625 0 26.296875 0 L 17.71875 0 C 17.25 0 17.015625 -0.234375 17.015625 -0.703125 L 17.015625 -22.96875 C 17.015625 -23.4375 16.78125 -23.671875 16.3125 -23.671875 L 15.5 -23.671875 C 15.03125 -23.671875 14.796875 -23.4375 14.796875 -22.96875 L 14.796875 -22.15625 C 14.796875 -21.6875 14.5625 -21.453125 14.09375 -21.453125 L 13.28125 -21.453125 C 12.8125 -21.453125 12.578125 -21.21875 12.578125 -20.75 L 12.578125 -0.703125 C 12.578125 -0.234375 12.34375 0 11.875 0 L 3.296875 0 C 2.828125 0 2.59375 -0.234375 2.59375 -0.703125 Z M 2.59375 -0.703125 "/></g></g></g><g fill="#000000" fill-opacity="0.5608"><g transform="translate(256.132015, 189.917198)"><g><path d="M 7.03125 -0.671875 L 7.03125 -1.484375 C 7.03125 -1.953125 6.796875 -2.1875 6.328125 -2.1875 L 5.515625 -2.1875 C 5.046875 -2.1875 4.8125 -2.421875 4.8125 -2.890625 L 4.8125 -3.703125 C 4.8125 -4.171875 4.578125 -4.40625 4.109375 -4.40625 L 3.296875 -4.40625 C 2.828125 -4.40625 2.59375 -4.640625 2.59375 -5.109375 L 2.59375 -25.15625 C 2.59375 -25.625 2.828125 -25.859375 3.296875 -25.859375 L 11.875 -25.859375 C 12.34375 -25.859375 12.578125 -25.625 12.578125 -25.15625 L 12.578125 -2.890625 C 12.578125 -2.421875 12.8125 -2.1875 13.28125 -2.1875 L 14.09375 -2.1875 C 14.5625 -2.1875 14.796875 -2.421875 14.796875 -2.890625 L 14.796875 -3.703125 C 14.796875 -4.171875 15.03125 -4.40625 15.5 -4.40625 L 16.3125 -4.40625 C 16.78125 -4.40625 17.015625 -4.640625 17.015625 -5.109375 L 17.015625 -25.15625 C 17.015625 -25.625 17.25 -25.859375 17.71875 -25.859375 L 26.296875 -25.859375 C 26.765625 -25.859375 27 -25.625 27 -25.15625 L 27 -5.109375 C 27 -4.640625 26.765625 -4.40625 26.296875 -4.40625 L 25.484375 -4.40625 C 25.015625 -4.40625 24.78125 -4.171875 24.78125 -3.703125 L 24.78125 -2.890625 C 24.78125 -2.421875 24.546875 -2.1875 24.078125 -2.1875 L 23.265625 -2.1875 C 22.796875 -2.1875 22.5625 -1.953125 22.5625 -1.484375 L 22.5625 -0.671875 C 22.5625 -0.203125 22.328125 0.03125 21.859375 0.03125 L 7.734375 0.03125 C 7.265625 0.03125 7.03125 -0.203125 7.03125 -0.671875 Z M 7.03125 -0.671875 "/></g></g></g><g fill="#000000" fill-opacity="0.5608"><g transform="translate(285.710138, 189.917198)"><g><path d="M 2.59375 -0.703125 L 2.59375 -25.1875 C 2.59375 -25.65625 2.828125 -25.890625 3.296875 -25.890625 L 8.546875 -25.890625 C 9.015625 -25.890625 9.25 -25.65625 9.25 -25.1875 L 9.25 -22.15625 C 9.25 -21.6875 9.484375 -21.453125 9.953125 -21.453125 L 10.765625 -21.453125 C 11.234375 -21.453125 11.46875 -21.6875 11.46875 -22.15625 L 11.46875 -22.96875 C 11.46875 -23.4375 11.703125 -23.671875 12.171875 -23.671875 L 12.984375 -23.671875 C 13.453125 -23.671875 13.6875 -23.90625 13.6875 -24.375 L 13.6875 -25.1875 C 13.6875 -25.65625 13.921875 -25.890625 14.390625 -25.890625 L 20.75 -25.890625 C 21.21875 -25.890625 21.453125 -25.65625 21.453125 -25.1875 L 21.453125 -24.375 C 21.453125 -23.90625 21.6875 -23.671875 22.15625 -23.671875 L 22.96875 -23.671875 C 23.164062 -23.671875 23.265625 -23.671875 23.265625 -23.671875 C 23.265625 -23.671875 23.164062 -23.671875 22.96875 -23.671875 L 22.15625 -23.671875 C 21.957031 -23.671875 21.859375 -23.671875 21.859375 -23.671875 C 21.859375 -23.671875 21.957031 -23.671875 22.15625 -23.671875 L 22.96875 -23.671875 C 23.4375 -23.671875 23.671875 -23.4375 23.671875 -22.96875 L 23.671875 -17.859375 C 23.671875 -17.390625 23.4375 -17.15625 22.96875 -17.15625 L 15.5 -17.15625 C 15.03125 -17.15625 14.796875 -17.390625 14.796875 -17.859375 L 14.796875 -20.75 C 14.796875 -21.21875 14.5625 -21.453125 14.09375 -21.453125 L 13.28125 -21.453125 C 12.8125 -21.453125 12.578125 -21.21875 12.578125 -20.75 L 12.578125 -0.703125 C 12.578125 -0.234375 12.34375 0 11.875 0 L 3.296875 0 C 2.828125 0 2.59375 -0.234375 2.59375 -0.703125 Z M 2.59375 -0.703125 "/></g></g></g><g fill="#000000" fill-opacity="0.5608"><g transform="translate(310.112075, 189.917198)"><g><path d="M 7.03125 -0.703125 L 7.03125 -1.515625 C 7.03125 -1.984375 6.796875 -2.21875 6.328125 -2.21875 L 5.515625 -2.21875 C 5.046875 -2.21875 4.8125 -2.453125 4.8125 -2.921875 L 4.8125 -3.734375 C 4.8125 -4.203125 4.578125 -4.4375 4.109375 -4.4375 L 3.296875 -4.4375 C 2.828125 -4.4375 2.59375 -4.671875 2.59375 -5.140625 L 2.59375 -20.75 C 2.59375 -21.21875 2.828125 -21.453125 3.296875 -21.453125 L 4.109375 -21.453125 C 4.578125 -21.453125 4.8125 -21.6875 4.8125 -22.15625 L 4.8125 -22.96875 C 4.8125 -23.4375 5.046875 -23.671875 5.515625 -23.671875 L 6.328125 -23.671875 C 6.796875 -23.671875 7.03125 -23.90625 7.03125 -24.375 L 7.03125 -25.1875 C 7.03125 -25.65625 7.265625 -25.890625 7.734375 -25.890625 L 21.859375 -25.890625 C 22.328125 -25.890625 22.5625 -25.65625 22.5625 -25.1875 L 22.5625 -24.375 C 22.5625 -23.90625 22.796875 -23.671875 23.265625 -23.671875 L 24.078125 -23.671875 C 24.546875 -23.671875 24.78125 -23.4375 24.78125 -22.96875 L 24.78125 -22.15625 C 24.78125 -21.6875 25.015625 -21.453125 25.484375 -21.453125 L 26.296875 -21.453125 C 26.765625 -21.453125 27 -21.21875 27 -20.75 L 27 -14.75 C 27 -14.28125 26.765625 -14.046875 26.296875 -14.046875 L 25.484375 -14.046875 C 25.015625 -14.046875 24.78125 -13.8125 24.78125 -13.34375 L 24.78125 -12.53125 C 24.78125 -12.0625 24.546875 -11.828125 24.078125 -11.828125 L 13.28125 -11.828125 C 12.8125 -11.828125 12.578125 -11.59375 12.578125 -11.125 L 12.578125 -2.921875 C 12.578125 -2.453125 12.8125 -2.21875 13.28125 -2.21875 L 14.09375 -2.21875 C 14.5625 -2.21875 14.796875 -2.453125 14.796875 -2.921875 L 14.796875 -3.734375 C 14.796875 -4.203125 15.03125 -4.4375 15.5 -4.4375 L 16.3125 -4.4375 C 16.78125 -4.4375 17.015625 -4.671875 17.015625 -5.140625 L 17.015625 -7.6875 C 17.015625 -8.15625 17.25 -8.390625 17.71875 -8.390625 L 26.296875 -8.390625 C 26.765625 -8.390625 27 -8.15625 27 -7.6875 L 27 -5.140625 C 27 -4.671875 26.765625 -4.4375 26.296875 -4.4375 L 25.484375 -4.4375 C 25.015625 -4.4375 24.78125 -4.203125 24.78125 -3.734375 L 24.78125 -2.921875 C 24.78125 -2.453125 24.546875 -2.21875 24.078125 -2.21875 L 23.265625 -2.21875 C 22.796875 -2.21875 22.5625 -1.984375 22.5625 -1.515625 L 22.5625 -0.703125 C 22.5625 -0.234375 22.328125 0 21.859375 0 L 7.734375 0 C 7.265625 0 7.03125 -0.234375 7.03125 -0.703125 Z M 13.28125 -14.046875 L 16.3125 -14.046875 C 16.78125 -14.046875 17.015625 -14.28125 17.015625 -14.75 L 17.015625 -22.96875 C 17.015625 -23.4375 16.78125 -23.671875 16.3125 -23.671875 L 15.5 -23.671875 C 15.03125 -23.671875 14.796875 -23.4375 14.796875 -22.96875 L 14.796875 -22.15625 C 14.796875 -21.6875 14.5625 -21.453125 14.09375 -21.453125 L 13.28125 -21.453125 C 12.8125 -21.453125 12.578125 -21.21875 12.578125 -20.75 L 12.578125 -14.75 C 12.578125 -14.28125 12.8125 -14.046875 13.28125 -14.046875 Z M 13.28125 -14.046875 "/></g></g></g><g fill="#000000" fill-opacity="0.5608"><g transform="translate(338.950749, 189.917198)"><g><path d="M 4.0625 -0.734375 L 4.0625 -0.8125 C 4.0625 -1.257812 3.84375 -1.484375 3.40625 -1.484375 C 2.863281 -1.484375 2.59375 -1.753906 2.59375 -2.296875 L 2.59375 -7.6875 C 2.59375 -8.226562 2.863281 -8.5 3.40625 -8.5 C 3.84375 -8.5 4.0625 -8.722656 4.0625 -9.171875 L 4.0625 -9.25 C 4.0625 -9.738281 4.3125 -9.984375 4.8125 -9.984375 L 10.28125 -9.984375 C 10.820312 -9.984375 11.09375 -9.710938 11.09375 -9.171875 C 11.09375 -8.722656 11.316406 -8.5 11.765625 -8.5 L 11.828125 -8.5 C 12.328125 -8.5 12.578125 -8.253906 12.578125 -7.765625 L 12.578125 4.625 C 12.578125 5.238281 12.269531 5.546875 11.65625 5.546875 L 10.171875 5.546875 C 9.554688 5.546875 9.25 5.238281 9.25 4.625 L 9.25 0.921875 C 9.25 0.304688 8.941406 0 8.328125 0 L 4.8125 0 C 4.3125 0 4.0625 -0.242188 4.0625 -0.734375 Z M 4.0625 -0.734375 "/></g></g></g><g fill="#000000" fill-opacity="0.5608"><g transform="translate(354.109546, 189.917198)"><g/></g></g><g fill="#000000" fill-opacity="0.5608"><g transform="translate(363.35271, 189.917198)"><g><path d="M 4.8125 -0.703125 L 4.8125 -1.515625 C 4.8125 -1.984375 4.578125 -2.21875 4.109375 -2.21875 L 3.296875 -2.21875 C 2.828125 -2.21875 2.59375 -2.453125 2.59375 -2.921875 L 2.59375 -25.1875 C 2.59375 -25.65625 2.828125 -25.890625 3.296875 -25.890625 L 11.875 -25.890625 C 12.34375 -25.890625 12.578125 -25.65625 12.578125 -25.1875 L 12.578125 -2.921875 C 12.578125 -2.453125 12.8125 -2.21875 13.28125 -2.21875 L 14.34375 -2.21875 C 14.8125 -2.21875 15.046875 -2.453125 15.046875 -2.921875 L 15.046875 -3.734375 C 15.046875 -4.203125 15.28125 -4.4375 15.75 -4.4375 L 16.5625 -4.4375 C 17.03125 -4.4375 17.265625 -4.671875 17.265625 -5.140625 L 17.265625 -25.1875 C 17.265625 -25.65625 17.5 -25.890625 17.96875 -25.890625 L 26.5625 -25.890625 C 27.019531 -25.890625 27.25 -25.65625 27.25 -25.1875 L 27.25 -9.578125 C 27.25 -9.109375 27.019531 -8.875 26.5625 -8.875 L 25.328125 -8.875 C 24.859375 -8.875 24.625 -8.640625 24.625 -8.171875 L 24.625 -7.359375 C 24.625 -6.890625 24.390625 -6.65625 23.921875 -6.65625 L 23.109375 -6.65625 C 22.640625 -6.65625 22.40625 -6.421875 22.40625 -5.953125 L 22.40625 -5.140625 C 22.40625 -4.671875 22.171875 -4.4375 21.703125 -4.4375 L 20.890625 -4.4375 C 20.421875 -4.4375 20.1875 -4.203125 20.1875 -3.734375 L 20.1875 -2.921875 C 20.1875 -2.453125 19.953125 -2.21875 19.484375 -2.21875 L 19.125 -2.21875 C 18.65625 -2.21875 18.421875 -1.984375 18.421875 -1.515625 L 18.421875 -0.703125 C 18.421875 -0.234375 18.1875 0 17.71875 0 L 5.515625 0 C 5.046875 0 4.8125 -0.234375 4.8125 -0.703125 Z M 4.8125 -0.703125 "/></g></g></g><g fill="#000000" fill-opacity="0.5608"><g transform="translate(392.819916, 189.917198)"><g><path d="M 7.03125 -0.703125 L 7.03125 -1.515625 C 7.03125 -1.984375 6.796875 -2.21875 6.328125 -2.21875 L 5.515625 -2.21875 C 5.046875 -2.21875 4.8125 -2.453125 4.8125 -2.921875 L 4.8125 -3.734375 C 4.8125 -4.203125 4.578125 -4.4375 4.109375 -4.4375 L 3.296875 -4.4375 C 2.828125 -4.4375 2.59375 -4.671875 2.59375 -5.140625 L 2.59375 -20.75 C 2.59375 -21.21875 2.828125 -21.453125 3.296875 -21.453125 L 4.109375 -21.453125 C 4.578125 -21.453125 4.8125 -21.6875 4.8125 -22.15625 L 4.8125 -22.96875 C 4.8125 -23.4375 5.046875 -23.671875 5.515625 -23.671875 L 6.328125 -23.671875 C 6.796875 -23.671875 7.03125 -23.90625 7.03125 -24.375 L 7.03125 -25.1875 C 7.03125 -25.65625 7.265625 -25.890625 7.734375 -25.890625 L 21.859375 -25.890625 C 22.328125 -25.890625 22.5625 -25.65625 22.5625 -25.1875 L 22.5625 -24.375 C 22.5625 -23.90625 22.796875 -23.671875 23.265625 -23.671875 L 24.078125 -23.671875 C 24.546875 -23.671875 24.78125 -23.4375 24.78125 -22.96875 L 24.78125 -22.15625 C 24.78125 -21.6875 25.015625 -21.453125 25.484375 -21.453125 L 26.296875 -21.453125 C 26.765625 -21.453125 27 -21.21875 27 -20.75 L 27 -14.75 C 27 -14.28125 26.765625 -14.046875 26.296875 -14.046875 L 25.484375 -14.046875 C 25.015625 -14.046875 24.78125 -13.8125 24.78125 -13.34375 L 24.78125 -12.53125 C 24.78125 -12.0625 24.546875 -11.828125 24.078125 -11.828125 L 13.28125 -11.828125 C 12.8125 -11.828125 12.578125 -11.59375 12.578125 -11.125 L 12.578125 -2.921875 C 12.578125 -2.453125 12.8125 -2.21875 13.28125 -2.21875 L 14.09375 -2.21875 C 14.5625 -2.21875 14.796875 -2.453125 14.796875 -2.921875 L 14.796875 -3.734375 C 14.796875 -4.203125 15.03125 -4.4375 15.5 -4.4375 L 16.3125 -4.4375 C 16.78125 -4.4375 17.015625 -4.671875 17.015625 -5.140625 L 17.015625 -7.6875 C 17.015625 -8.15625 17.25 -8.390625 17.71875 -8.390625 L 26.296875 -8.390625 C 26.765625 -8.390625 27 -8.15625 27 -7.6875 L 27 -5.140625 C 27 -4.671875 26.765625 -4.4375 26.296875 -4.4375 L 25.484375 -4.4375 C 25.015625 -4.4375 24.78125 -4.203125 24.78125 -3.734375 L 24.78125 -2.921875 C 24.78125 -2.453125 24.546875 -2.21875 24.078125 -2.21875 L 23.265625 -2.21875 C 22.796875 -2.21875 22.5625 -1.984375 22.5625 -1.515625 L 22.5625 -0.703125 C 22.5625 -0.234375 22.328125 0 21.859375 0 L 7.734375 0 C 7.265625 0 7.03125 -0.234375 7.03125 -0.703125 Z M 13.28125 -14.046875 L 16.3125 -14.046875 C 16.78125 -14.046875 17.015625 -14.28125 17.015625 -14.75 L 17.015625 -22.96875 C 17.015625 -23.4375 16.78125 -23.671875 16.3125 -23.671875 L 15.5 -23.671875 C 15.03125 -23.671875 14.796875 -23.4375 14.796875 -22.96875 L 14.796875 -22.15625 C 14.796875 -21.6875 14.5625 -21.453125 14.09375 -21.453125 L 13.28125 -21.453125 C 12.8125 -21.453125 12.578125 -21.21875 12.578125 -20.75 L 12.578125 -14.75 C 12.578125 -14.28125 12.8125 -14.046875 13.28125 -14.046875 Z M 13.28125 -14.046875 "/></g></g></g><g fill="#000000" fill-opacity="0.5608"><g transform="translate(421.658568, 189.917198)"><g><path d="M 2.59375 -0.703125 L 2.59375 -25.1875 C 2.59375 -25.65625 2.828125 -25.890625 3.296875 -25.890625 L 8.546875 -25.890625 C 9.015625 -25.890625 9.25 -25.65625 9.25 -25.1875 L 9.25 -22.15625 C 9.25 -21.6875 9.484375 -21.453125 9.953125 -21.453125 L 10.765625 -21.453125 C 11.234375 -21.453125 11.46875 -21.6875 11.46875 -22.15625 L 11.46875 -22.96875 C 11.46875 -23.4375 11.703125 -23.671875 12.171875 -23.671875 L 12.984375 -23.671875 C 13.453125 -23.671875 13.6875 -23.90625 13.6875 -24.375 L 13.6875 -25.1875 C 13.6875 -25.65625 13.921875 -25.890625 14.390625 -25.890625 L 20.75 -25.890625 C 21.21875 -25.890625 21.453125 -25.65625 21.453125 -25.1875 L 21.453125 -24.375 C 21.453125 -23.90625 21.6875 -23.671875 22.15625 -23.671875 L 22.96875 -23.671875 C 23.164062 -23.671875 23.265625 -23.671875 23.265625 -23.671875 C 23.265625 -23.671875 23.164062 -23.671875 22.96875 -23.671875 L 22.15625 -23.671875 C 21.957031 -23.671875 21.859375 -23.671875 21.859375 -23.671875 C 21.859375 -23.671875 21.957031 -23.671875 22.15625 -23.671875 L 22.96875 -23.671875 C 23.4375 -23.671875 23.671875 -23.4375 23.671875 -22.96875 L 23.671875 -17.859375 C 23.671875 -17.390625 23.4375 -17.15625 22.96875 -17.15625 L 15.5 -17.15625 C 15.03125 -17.15625 14.796875 -17.390625 14.796875 -17.859375 L 14.796875 -20.75 C 14.796875 -21.21875 14.5625 -21.453125 14.09375 -21.453125 L 13.28125 -21.453125 C 12.8125 -21.453125 12.578125 -21.21875 12.578125 -20.75 L 12.578125 -0.703125 C 12.578125 -0.234375 12.34375 0 11.875 0 L 3.296875 0 C 2.828125 0 2.59375 -0.234375 2.59375 -0.703125 Z M 2.59375 -0.703125 "/></g></g></g><g fill="#000000" fill-opacity="0.5608"><g transform="translate(446.060528, 189.917198)"><g><path d="M 4.8125 -0.703125 L 4.8125 -1.515625 C 4.8125 -1.984375 4.578125 -2.21875 4.109375 -2.21875 L 3.296875 -2.21875 C 3.097656 -2.21875 3 -2.21875 3 -2.21875 C 3 -2.21875 3.097656 -2.21875 3.296875 -2.21875 L 4.109375 -2.21875 C 4.304688 -2.21875 4.40625 -2.21875 4.40625 -2.21875 C 4.40625 -2.21875 4.304688 -2.21875 4.109375 -2.21875 L 3.296875 -2.21875 C 2.828125 -2.21875 2.59375 -2.453125 2.59375 -2.921875 L 2.59375 -25.1875 C 2.59375 -25.65625 2.828125 -25.890625 3.296875 -25.890625 L 11.875 -25.890625 C 12.34375 -25.890625 12.578125 -25.65625 12.578125 -25.1875 L 12.578125 -2.921875 C 12.578125 -2.453125 12.8125 -2.21875 13.28125 -2.21875 L 14.09375 -2.21875 C 14.5625 -2.21875 14.796875 -2.453125 14.796875 -2.921875 L 14.796875 -3.734375 C 14.796875 -4.203125 15.03125 -4.4375 15.5 -4.4375 L 16.3125 -4.4375 C 16.78125 -4.4375 17.015625 -4.671875 17.015625 -5.140625 L 17.015625 -25.1875 C 17.015625 -25.65625 17.25 -25.890625 17.71875 -25.890625 L 26.296875 -25.890625 C 26.765625 -25.890625 27 -25.65625 27 -25.1875 L 27 4.109375 C 27 4.578125 26.765625 4.8125 26.296875 4.8125 L 25.484375 4.8125 C 25.015625 4.8125 24.78125 5.046875 24.78125 5.515625 L 24.78125 6.328125 C 24.78125 6.796875 24.546875 7.03125 24.078125 7.03125 L 23.265625 7.03125 C 22.796875 7.03125 22.5625 7.265625 22.5625 7.734375 L 22.5625 8.546875 C 22.5625 9.015625 22.328125 9.25 21.859375 9.25 L 5.515625 9.25 C 5.046875 9.25 4.8125 9.015625 4.8125 8.546875 L 4.8125 7.734375 C 4.8125 7.265625 4.578125 7.03125 4.109375 7.03125 L 3.296875 7.03125 C 3.097656 7.03125 3 7.03125 3 7.03125 C 3 7.03125 3.097656 7.03125 3.296875 7.03125 L 4.109375 7.03125 C 4.304688 7.03125 4.40625 7.03125 4.40625 7.03125 C 4.40625 7.03125 4.304688 7.03125 4.109375 7.03125 L 3.296875 7.03125 C 2.828125 7.03125 2.59375 6.796875 2.59375 6.328125 L 2.59375 3.296875 C 2.59375 2.828125 2.828125 2.59375 3.296875 2.59375 L 11.875 2.59375 C 12.34375 2.59375 12.578125 2.828125 12.578125 3.296875 L 12.578125 3.890625 C 12.578125 4.359375 12.8125 4.59375 13.28125 4.59375 L 13.71875 4.59375 C 14.1875 4.59375 14.421875 4.820312 14.421875 5.28125 L 14.421875 6.328125 C 14.421875 6.796875 14.65625 7.03125 15.125 7.03125 L 17.421875 7.03125 C 17.890625 7.03125 18.125 6.796875 18.125 6.328125 L 18.125 -1.515625 C 18.125 -1.984375 17.890625 -2.21875 17.421875 -2.21875 L 16.609375 -2.21875 C 16.140625 -2.21875 15.90625 -1.984375 15.90625 -1.515625 L 15.90625 -0.703125 C 15.90625 -0.234375 15.671875 0 15.203125 0 L 5.515625 0 C 5.046875 0 4.8125 -0.234375 4.8125 -0.703125 Z M 4.8125 -0.703125 "/></g></g></g><g fill="#ffec45" fill-opacity="1"><g transform="translate(30.269538, 188.248872)"><g><path d="M 4.8125 -0.703125 L 4.8125 -1.515625 C 4.8125 -1.984375 4.578125 -2.21875 4.109375 -2.21875 L 3.296875 -2.21875 C 2.828125 -2.21875 2.59375 -2.453125 2.59375 -2.921875 L 2.59375 -25.1875 C 2.59375 -25.65625 2.828125 -25.890625 3.296875 -25.890625 L 11.875 -25.890625 C 12.34375 -25.890625 12.578125 -25.65625 12.578125 -25.1875 L 12.578125 -2.921875 C 12.578125 -2.453125 12.8125 -2.21875 13.28125 -2.21875 L 14.34375 -2.21875 C 14.8125 -2.21875 15.046875 -2.453125 15.046875 -2.921875 L 15.046875 -3.734375 C 15.046875 -4.203125 15.28125 -4.4375 15.75 -4.4375 L 16.5625 -4.4375 C 17.03125 -4.4375 17.265625 -4.671875 17.265625 -5.140625 L 17.265625 -25.1875 C 17.265625 -25.65625 17.5 -25.890625 17.96875 -25.890625 L 26.5625 -25.890625 C 27.019531 -25.890625 27.25 -25.65625 27.25 -25.1875 L 27.25 -9.578125 C 27.25 -9.109375 27.019531 -8.875 26.5625 -8.875 L 25.328125 -8.875 C 24.859375 -8.875 24.625 -8.640625 24.625 -8.171875 L 24.625 -7.359375 C 24.625 -6.890625 24.390625 -6.65625 23.921875 -6.65625 L 23.109375 -6.65625 C 22.640625 -6.65625 22.40625 -6.421875 22.40625 -5.953125 L 22.40625 -5.140625 C 22.40625 -4.671875 22.171875 -4.4375 21.703125 -4.4375 L 20.890625 -4.4375 C 20.421875 -4.4375 20.1875 -4.203125 20.1875 -3.734375 L 20.1875 -2.921875 C 20.1875 -2.453125 19.953125 -2.21875 19.484375 -2.21875 L 19.125 -2.21875 C 18.65625 -2.21875 18.421875 -1.984375 18.421875 -1.515625 L 18.421875 -0.703125 C 18.421875 -0.234375 18.1875 0 17.71875 0 L 5.515625 0 C 5.046875 0 4.8125 -0.234375 4.8125 -0.703125 Z M 4.8125 -0.703125 "/></g></g></g><g fill="#ffec45" fill-opacity="1"><g transform="translate(59.736734, 188.248872)"><g><path d="M 7.03125 -0.703125 L 7.03125 -1.515625 C 7.03125 -1.984375 6.796875 -2.21875 6.328125 -2.21875 L 5.515625 -2.21875 C 5.046875 -2.21875 4.8125 -2.453125 4.8125 -2.921875 L 4.8125 -3.734375 C 4.8125 -4.203125 4.578125 -4.4375 4.109375 -4.4375 L 3.296875 -4.4375 C 2.828125 -4.4375 2.59375 -4.671875 2.59375 -5.140625 L 2.59375 -20.75 C 2.59375 -21.21875 2.828125 -21.453125 3.296875 -21.453125 L 4.109375 -21.453125 C 4.578125 -21.453125 4.8125 -21.6875 4.8125 -22.15625 L 4.8125 -22.96875 C 4.8125 -23.4375 5.046875 -23.671875 5.515625 -23.671875 L 6.328125 -23.671875 C 6.796875 -23.671875 7.03125 -23.90625 7.03125 -24.375 L 7.03125 -25.1875 C 7.03125 -25.65625 7.265625 -25.890625 7.734375 -25.890625 L 21.859375 -25.890625 C 22.328125 -25.890625 22.5625 -25.65625 22.5625 -25.1875 L 22.5625 -24.375 C 22.5625 -23.90625 22.796875 -23.671875 23.265625 -23.671875 L 24.078125 -23.671875 C 24.546875 -23.671875 24.78125 -23.4375 24.78125 -22.96875 L 24.78125 -22.15625 C 24.78125 -21.6875 25.015625 -21.453125 25.484375 -21.453125 L 26.296875 -21.453125 C 26.765625 -21.453125 27 -21.21875 27 -20.75 L 27 -14.75 C 27 -14.28125 26.765625 -14.046875 26.296875 -14.046875 L 25.484375 -14.046875 C 25.015625 -14.046875 24.78125 -13.8125 24.78125 -13.34375 L 24.78125 -12.53125 C 24.78125 -12.0625 24.546875 -11.828125 24.078125 -11.828125 L 13.28125 -11.828125 C 12.8125 -11.828125 12.578125 -11.59375 12.578125 -11.125 L 12.578125 -2.921875 C 12.578125 -2.453125 12.8125 -2.21875 13.28125 -2.21875 L 14.09375 -2.21875 C 14.5625 -2.21875 14.796875 -2.453125 14.796875 -2.921875 L 14.796875 -3.734375 C 14.796875 -4.203125 15.03125 -4.4375 15.5 -4.4375 L 16.3125 -4.4375 C 16.78125 -4.4375 17.015625 -4.671875 17.015625 -5.140625 L 17.015625 -7.6875 C 17.015625 -8.15625 17.25 -8.390625 17.71875 -8.390625 L 26.296875 -8.390625 C 26.765625 -8.390625 27 -8.15625 27 -7.6875 L 27 -5.140625 C 27 -4.671875 26.765625 -4.4375 26.296875 -4.4375 L 25.484375 -4.4375 C 25.015625 -4.4375 24.78125 -4.203125 24.78125 -3.734375 L 24.78125 -2.921875 C 24.78125 -2.453125 24.546875 -2.21875 24.078125 -2.21875 L 23.265625 -2.21875 C 22.796875 -2.21875 22.5625 -1.984375 22.5625 -1.515625 L 22.5625 -0.703125 C 22.5625 -0.234375 22.328125 0 21.859375 0 L 7.734375 0 C 7.265625 0 7.03125 -0.234375 7.03125 -0.703125 Z M 13.28125 -14.046875 L 16.3125 -14.046875 C 16.78125 -14.046875 17.015625 -14.28125 17.015625 -14.75 L 17.015625 -22.96875 C 17.015625 -23.4375 16.78125 -23.671875 16.3125 -23.671875 L 15.5 -23.671875 C 15.03125 -23.671875 14.796875 -23.4375 14.796875 -22.96875 L 14.796875 -22.15625 C 14.796875 -21.6875 14.5625 -21.453125 14.09375 -21.453125 L 13.28125 -21.453125 C 12.8125 -21.453125 12.578125 -21.21875 12.578125 -20.75 L 12.578125 -14.75 C 12.578125 -14.28125 12.8125 -14.046875 13.28125 -14.046875 Z M 13.28125 -14.046875 "/></g></g></g><g fill="#ffec45" fill-opacity="1"><g transform="translate(88.575396, 188.248872)"><g><path d="M 2.59375 -0.703125 L 2.59375 -25.1875 C 2.59375 -25.65625 2.828125 -25.890625 3.296875 -25.890625 L 8.546875 -25.890625 C 9.015625 -25.890625 9.25 -25.65625 9.25 -25.1875 L 9.25 -22.15625 C 9.25 -21.6875 9.484375 -21.453125 9.953125 -21.453125 L 10.765625 -21.453125 C 11.234375 -21.453125 11.46875 -21.6875 11.46875 -22.15625 L 11.46875 -22.96875 C 11.46875 -23.4375 11.703125 -23.671875 12.171875 -23.671875 L 12.984375 -23.671875 C 13.453125 -23.671875 13.6875 -23.90625 13.6875 -24.375 L 13.6875 -25.1875 C 13.6875 -25.65625 13.921875 -25.890625 14.390625 -25.890625 L 20.75 -25.890625 C 21.21875 -25.890625 21.453125 -25.65625 21.453125 -25.1875 L 21.453125 -24.375 C 21.453125 -23.90625 21.6875 -23.671875 22.15625 -23.671875 L 22.96875 -23.671875 C 23.164062 -23.671875 23.265625 -23.671875 23.265625 -23.671875 C 23.265625 -23.671875 23.164062 -23.671875 22.96875 -23.671875 L 22.15625 -23.671875 C 21.957031 -23.671875 21.859375 -23.671875 21.859375 -23.671875 C 21.859375 -23.671875 21.957031 -23.671875 22.15625 -23.671875 L 22.96875 -23.671875 C 23.4375 -23.671875 23.671875 -23.4375 23.671875 -22.96875 L 23.671875 -17.859375 C 23.671875 -17.390625 23.4375 -17.15625 22.96875 -17.15625 L 15.5 -17.15625 C 15.03125 -17.15625 14.796875 -17.390625 14.796875 -17.859375 L 14.796875 -20.75 C 14.796875 -21.21875 14.5625 -21.453125 14.09375 -21.453125 L 13.28125 -21.453125 C 12.8125 -21.453125 12.578125 -21.21875 12.578125 -20.75 L 12.578125 -0.703125 C 12.578125 -0.234375 12.34375 0 11.875 0 L 3.296875 0 C 2.828125 0 2.59375 -0.234375 2.59375 -0.703125 Z M 2.59375 -0.703125 "/></g></g></g><g fill="#ffec45" fill-opacity="1"><g transform="translate(112.977333, 188.248872)"><g><path d="M 4.8125 -0.703125 L 4.8125 -1.515625 C 4.8125 -1.984375 4.578125 -2.21875 4.109375 -2.21875 L 3.296875 -2.21875 C 3.097656 -2.21875 3 -2.21875 3 -2.21875 C 3 -2.21875 3.097656 -2.21875 3.296875 -2.21875 L 4.109375 -2.21875 C 4.304688 -2.21875 4.40625 -2.21875 4.40625 -2.21875 C 4.40625 -2.21875 4.304688 -2.21875 4.109375 -2.21875 L 3.296875 -2.21875 C 2.828125 -2.21875 2.59375 -2.453125 2.59375 -2.921875 L 2.59375 -25.1875 C 2.59375 -25.65625 2.828125 -25.890625 3.296875 -25.890625 L 11.875 -25.890625 C 12.34375 -25.890625 12.578125 -25.65625 12.578125 -25.1875 L 12.578125 -2.921875 C 12.578125 -2.453125 12.8125 -2.21875 13.28125 -2.21875 L 14.09375 -2.21875 C 14.5625 -2.21875 14.796875 -2.453125 14.796875 -2.921875 L 14.796875 -3.734375 C 14.796875 -4.203125 15.03125 -4.4375 15.5 -4.4375 L 16.3125 -4.4375 C 16.78125 -4.4375 17.015625 -4.671875 17.015625 -5.140625 L 17.015625 -25.1875 C 17.015625 -25.65625 17.25 -25.890625 17.71875 -25.890625 L 26.296875 -25.890625 C 26.765625 -25.890625 27 -25.65625 27 -25.1875 L 27 4.109375 C 27 4.578125 26.765625 4.8125 26.296875 4.8125 L 25.484375 4.8125 C 25.015625 4.8125 24.78125 5.046875 24.78125 5.515625 L 24.78125 6.328125 C 24.78125 6.796875 24.546875 7.03125 24.078125 7.03125 L 23.265625 7.03125 C 22.796875 7.03125 22.5625 7.265625 22.5625 7.734375 L 22.5625 8.546875 C 22.5625 9.015625 22.328125 9.25 21.859375 9.25 L 5.515625 9.25 C 5.046875 9.25 4.8125 9.015625 4.8125 8.546875 L 4.8125 7.734375 C 4.8125 7.265625 4.578125 7.03125 4.109375 7.03125 L 3.296875 7.03125 C 3.097656 7.03125 3 7.03125 3 7.03125 C 3 7.03125 3.097656 7.03125 3.296875 7.03125 L 4.109375 7.03125 C 4.304688 7.03125 4.40625 7.03125 4.40625 7.03125 C 4.40625 7.03125 4.304688 7.03125 4.109375 7.03125 L 3.296875 7.03125 C 2.828125 7.03125 2.59375 6.796875 2.59375 6.328125 L 2.59375 3.296875 C 2.59375 2.828125 2.828125 2.59375 3.296875 2.59375 L 11.875 2.59375 C 12.34375 2.59375 12.578125 2.828125 12.578125 3.296875 L 12.578125 3.890625 C 12.578125 4.359375 12.8125 4.59375 13.28125 4.59375 L 13.71875 4.59375 C 14.1875 4.59375 14.421875 4.820312 14.421875 5.28125 L 14.421875 6.328125 C 14.421875 6.796875 14.65625 7.03125 15.125 7.03125 L 17.421875 7.03125 C 17.890625 7.03125 18.125 6.796875 18.125 6.328125 L 18.125 -1.515625 C 18.125 -1.984375 17.890625 -2.21875 17.421875 -2.21875 L 16.609375 -2.21875 C 16.140625 -2.21875 15.90625 -1.984375 15.90625 -1.515625 L 15.90625 -0.703125 C 15.90625 -0.234375 15.671875 0 15.203125 0 L 5.515625 0 C 5.046875 0 4.8125 -0.234375 4.8125 -0.703125 Z M 4.8125 -0.703125 "/></g></g></g><g fill="#ffec45" fill-opacity="1"><g transform="translate(142.555445, 188.248872)"><g/></g></g><g fill="#ffec45" fill-opacity="1"><g transform="translate(151.798608, 188.248872)"><g><path d="M 14.09375 -21.40625 L 13.28125 -21.40625 C 12.8125 -21.40625 12.578125 -21.175781 12.578125 -20.71875 L 12.578125 -2.890625 C 12.578125 -2.421875 12.8125 -2.1875 13.28125 -2.1875 L 14.09375 -2.1875 C 14.5625 -2.1875 14.796875 -2.421875 14.796875 -2.890625 L 14.796875 -3.703125 C 14.796875 -4.171875 15.03125 -4.40625 15.5 -4.40625 L 16.3125 -4.40625 C 16.78125 -4.40625 17.015625 -4.640625 17.015625 -5.109375 L 17.015625 -22.9375 C 17.015625 -23.40625 16.78125 -23.640625 16.3125 -23.640625 L 15.5 -23.640625 C 15.03125 -23.640625 14.796875 -23.40625 14.796875 -22.9375 L 14.796875 -22.109375 C 14.796875 -21.640625 14.5625 -21.40625 14.09375 -21.40625 Z M 7.03125 -0.671875 L 7.03125 -1.484375 C 7.03125 -1.953125 6.796875 -2.1875 6.328125 -2.1875 L 5.515625 -2.1875 C 5.046875 -2.1875 4.8125 -2.421875 4.8125 -2.890625 L 4.8125 -3.703125 C 4.8125 -4.171875 4.578125 -4.40625 4.109375 -4.40625 L 3.296875 -4.40625 C 2.828125 -4.40625 2.59375 -4.640625 2.59375 -5.109375 L 2.59375 -20.71875 C 2.59375 -21.175781 2.828125 -21.40625 3.296875 -21.40625 L 4.109375 -21.40625 C 4.578125 -21.40625 4.8125 -21.640625 4.8125 -22.109375 L 4.8125 -22.9375 C 4.8125 -23.40625 5.046875 -23.640625 5.515625 -23.640625 L 6.328125 -23.640625 C 6.796875 -23.640625 7.03125 -23.867188 7.03125 -24.328125 L 7.03125 -25.15625 C 7.03125 -25.625 7.265625 -25.859375 7.734375 -25.859375 L 16.3125 -25.859375 C 16.78125 -25.859375 17.015625 -26.09375 17.015625 -26.5625 L 17.015625 -35.03125 C 17.015625 -35.5 17.25 -35.734375 17.71875 -35.734375 L 26.296875 -35.734375 C 26.765625 -35.734375 27 -35.5 27 -35.03125 L 27 -0.671875 C 27 -0.203125 26.765625 0.03125 26.296875 0.03125 L 7.734375 0.03125 C 7.265625 0.03125 7.03125 -0.203125 7.03125 -0.671875 Z M 7.03125 -0.671875 "/></g></g></g><g fill="#ffec45" fill-opacity="1"><g transform="translate(181.37672, 188.248872)"><g><path d="M 7.03125 -0.703125 L 7.03125 -1.515625 C 7.03125 -1.984375 6.796875 -2.21875 6.328125 -2.21875 L 5.515625 -2.21875 C 5.046875 -2.21875 4.8125 -2.453125 4.8125 -2.921875 L 4.8125 -3.734375 C 4.8125 -4.203125 4.578125 -4.4375 4.109375 -4.4375 L 3.296875 -4.4375 C 2.828125 -4.4375 2.59375 -4.671875 2.59375 -5.140625 L 2.59375 -20.75 C 2.59375 -21.21875 2.828125 -21.453125 3.296875 -21.453125 L 4.109375 -21.453125 C 4.578125 -21.453125 4.8125 -21.6875 4.8125 -22.15625 L 4.8125 -22.96875 C 4.8125 -23.4375 5.046875 -23.671875 5.515625 -23.671875 L 6.328125 -23.671875 C 6.796875 -23.671875 7.03125 -23.90625 7.03125 -24.375 L 7.03125 -25.1875 C 7.03125 -25.65625 7.265625 -25.890625 7.734375 -25.890625 L 21.859375 -25.890625 C 22.328125 -25.890625 22.5625 -25.65625 22.5625 -25.1875 L 22.5625 -24.375 C 22.5625 -23.90625 22.796875 -23.671875 23.265625 -23.671875 L 24.078125 -23.671875 C 24.546875 -23.671875 24.78125 -23.4375 24.78125 -22.96875 L 24.78125 -22.15625 C 24.78125 -21.6875 25.015625 -21.453125 25.484375 -21.453125 L 26.296875 -21.453125 C 26.765625 -21.453125 27 -21.21875 27 -20.75 L 27 -14.75 C 27 -14.28125 26.765625 -14.046875 26.296875 -14.046875 L 25.484375 -14.046875 C 25.015625 -14.046875 24.78125 -13.8125 24.78125 -13.34375 L 24.78125 -12.53125 C 24.78125 -12.0625 24.546875 -11.828125 24.078125 -11.828125 L 13.28125 -11.828125 C 12.8125 -11.828125 12.578125 -11.59375 12.578125 -11.125 L 12.578125 -2.921875 C 12.578125 -2.453125 12.8125 -2.21875 13.28125 -2.21875 L 14.09375 -2.21875 C 14.5625 -2.21875 14.796875 -2.453125 14.796875 -2.921875 L 14.796875 -3.734375 C 14.796875 -4.203125 15.03125 -4.4375 15.5 -4.4375 L 16.3125 -4.4375 C 16.78125 -4.4375 17.015625 -4.671875 17.015625 -5.140625 L 17.015625 -7.6875 C 17.015625 -8.15625 17.25 -8.390625 17.71875 -8.390625 L 26.296875 -8.390625 C 26.765625 -8.390625 27 -8.15625 27 -7.6875 L 27 -5.140625 C 27 -4.671875 26.765625 -4.4375 26.296875 -4.4375 L 25.484375 -4.4375 C 25.015625 -4.4375 24.78125 -4.203125 24.78125 -3.734375 L 24.78125 -2.921875 C 24.78125 -2.453125 24.546875 -2.21875 24.078125 -2.21875 L 23.265625 -2.21875 C 22.796875 -2.21875 22.5625 -1.984375 22.5625 -1.515625 L 22.5625 -0.703125 C 22.5625 -0.234375 22.328125 0 21.859375 0 L 7.734375 0 C 7.265625 0 7.03125 -0.234375 7.03125 -0.703125 Z M 13.28125 -14.046875 L 16.3125 -14.046875 C 16.78125 -14.046875 17.015625 -14.28125 17.015625 -14.75 L 17.015625 -22.96875 C 17.015625 -23.4375 16.78125 -23.671875 16.3125 -23.671875 L 15.5 -23.671875 C 15.03125 -23.671875 14.796875 -23.4375 14.796875 -22.96875 L 14.796875 -22.15625 C 14.796875 -21.6875 14.5625 -21.453125 14.09375 -21.453125 L 13.28125 -21.453125 C 12.8125 -21.453125 12.578125 -21.21875 12.578125 -20.75 L 12.578125 -14.75 C 12.578125 -14.28125 12.8125 -14.046875 13.28125 -14.046875 Z M 13.28125 -14.046875 "/></g></g></g><g fill="#ffec45" fill-opacity="1"><g transform="translate(210.215382, 188.248872)"><g><path d="M 2.59375 -0.703125 L 2.59375 -25.1875 C 2.59375 -25.65625 2.828125 -25.890625 3.296875 -25.890625 L 8.546875 -25.890625 C 9.015625 -25.890625 9.25 -25.65625 9.25 -25.1875 L 9.25 -22.15625 C 9.25 -21.6875 9.484375 -21.453125 9.953125 -21.453125 L 10.765625 -21.453125 C 11.234375 -21.453125 11.46875 -21.6875 11.46875 -22.15625 L 11.46875 -22.96875 C 11.46875 -23.4375 11.703125 -23.671875 12.171875 -23.671875 L 12.984375 -23.671875 C 13.453125 -23.671875 13.6875 -23.90625 13.6875 -24.375 L 13.6875 -25.1875 C 13.6875 -25.65625 13.921875 -25.890625 14.390625 -25.890625 L 24.078125 -25.890625 C 24.546875 -25.890625 24.78125 -25.65625 24.78125 -25.1875 L 24.78125 -24.375 C 24.78125 -23.90625 25.015625 -23.671875 25.484375 -23.671875 L 27.40625 -23.671875 C 27.875 -23.671875 28.109375 -23.90625 28.109375 -24.375 L 28.109375 -25.1875 C 28.109375 -25.65625 28.34375 -25.890625 28.8125 -25.890625 L 38.5 -25.890625 C 38.96875 -25.890625 39.203125 -25.65625 39.203125 -25.1875 L 39.203125 -24.375 C 39.203125 -23.90625 39.4375 -23.671875 39.90625 -23.671875 L 40.71875 -23.671875 C 41.1875 -23.671875 41.421875 -23.4375 41.421875 -22.96875 L 41.421875 -0.703125 C 41.421875 -0.234375 41.1875 0 40.71875 0 L 32.140625 0 C 31.671875 0 31.4375 -0.234375 31.4375 -0.703125 L 31.4375 -22.96875 C 31.4375 -23.4375 31.203125 -23.671875 30.734375 -23.671875 L 29.921875 -23.671875 C 29.453125 -23.671875 29.21875 -23.4375 29.21875 -22.96875 L 29.21875 -22.15625 C 29.21875 -21.6875 28.984375 -21.453125 28.515625 -21.453125 L 27.703125 -21.453125 C 27.234375 -21.453125 27 -21.21875 27 -20.75 L 27 -0.703125 C 27 -0.234375 26.765625 0 26.296875 0 L 17.71875 0 C 17.25 0 17.015625 -0.234375 17.015625 -0.703125 L 17.015625 -22.96875 C 17.015625 -23.4375 16.78125 -23.671875 16.3125 -23.671875 L 15.5 -23.671875 C 15.03125 -23.671875 14.796875 -23.4375 14.796875 -22.96875 L 14.796875 -22.15625 C 14.796875 -21.6875 14.5625 -21.453125 14.09375 -21.453125 L 13.28125 -21.453125 C 12.8125 -21.453125 12.578125 -21.21875 12.578125 -20.75 L 12.578125 -0.703125 C 12.578125 -0.234375 12.34375 0 11.875 0 L 3.296875 0 C 2.828125 0 2.59375 -0.234375 2.59375 -0.703125 Z M 2.59375 -0.703125 "/></g></g></g><g fill="#ffec45" fill-opacity="1"><g transform="translate(254.212819, 188.248872)"><g><path d="M 7.03125 -0.671875 L 7.03125 -1.484375 C 7.03125 -1.953125 6.796875 -2.1875 6.328125 -2.1875 L 5.515625 -2.1875 C 5.046875 -2.1875 4.8125 -2.421875 4.8125 -2.890625 L 4.8125 -3.703125 C 4.8125 -4.171875 4.578125 -4.40625 4.109375 -4.40625 L 3.296875 -4.40625 C 2.828125 -4.40625 2.59375 -4.640625 2.59375 -5.109375 L 2.59375 -25.15625 C 2.59375 -25.625 2.828125 -25.859375 3.296875 -25.859375 L 11.875 -25.859375 C 12.34375 -25.859375 12.578125 -25.625 12.578125 -25.15625 L 12.578125 -2.890625 C 12.578125 -2.421875 12.8125 -2.1875 13.28125 -2.1875 L 14.09375 -2.1875 C 14.5625 -2.1875 14.796875 -2.421875 14.796875 -2.890625 L 14.796875 -3.703125 C 14.796875 -4.171875 15.03125 -4.40625 15.5 -4.40625 L 16.3125 -4.40625 C 16.78125 -4.40625 17.015625 -4.640625 17.015625 -5.109375 L 17.015625 -25.15625 C 17.015625 -25.625 17.25 -25.859375 17.71875 -25.859375 L 26.296875 -25.859375 C 26.765625 -25.859375 27 -25.625 27 -25.15625 L 27 -5.109375 C 27 -4.640625 26.765625 -4.40625 26.296875 -4.40625 L 25.484375 -4.40625 C 25.015625 -4.40625 24.78125 -4.171875 24.78125 -3.703125 L 24.78125 -2.890625 C 24.78125 -2.421875 24.546875 -2.1875 24.078125 -2.1875 L 23.265625 -2.1875 C 22.796875 -2.1875 22.5625 -1.953125 22.5625 -1.484375 L 22.5625 -0.671875 C 22.5625 -0.203125 22.328125 0.03125 21.859375 0.03125 L 7.734375 0.03125 C 7.265625 0.03125 7.03125 -0.203125 7.03125 -0.671875 Z M 7.03125 -0.671875 "/></g></g></g><g fill="#ffec45" fill-opacity="1"><g transform="translate(283.790942, 188.248872)"><g><path d="M 2.59375 -0.703125 L 2.59375 -25.1875 C 2.59375 -25.65625 2.828125 -25.890625 3.296875 -25.890625 L 8.546875 -25.890625 C 9.015625 -25.890625 9.25 -25.65625 9.25 -25.1875 L 9.25 -22.15625 C 9.25 -21.6875 9.484375 -21.453125 9.953125 -21.453125 L 10.765625 -21.453125 C 11.234375 -21.453125 11.46875 -21.6875 11.46875 -22.15625 L 11.46875 -22.96875 C 11.46875 -23.4375 11.703125 -23.671875 12.171875 -23.671875 L 12.984375 -23.671875 C 13.453125 -23.671875 13.6875 -23.90625 13.6875 -24.375 L 13.6875 -25.1875 C 13.6875 -25.65625 13.921875 -25.890625 14.390625 -25.890625 L 20.75 -25.890625 C 21.21875 -25.890625 21.453125 -25.65625 21.453125 -25.1875 L 21.453125 -24.375 C 21.453125 -23.90625 21.6875 -23.671875 22.15625 -23.671875 L 22.96875 -23.671875 C 23.164062 -23.671875 23.265625 -23.671875 23.265625 -23.671875 C 23.265625 -23.671875 23.164062 -23.671875 22.96875 -23.671875 L 22.15625 -23.671875 C 21.957031 -23.671875 21.859375 -23.671875 21.859375 -23.671875 C 21.859375 -23.671875 21.957031 -23.671875 22.15625 -23.671875 L 22.96875 -23.671875 C 23.4375 -23.671875 23.671875 -23.4375 23.671875 -22.96875 L 23.671875 -17.859375 C 23.671875 -17.390625 23.4375 -17.15625 22.96875 -17.15625 L 15.5 -17.15625 C 15.03125 -17.15625 14.796875 -17.390625 14.796875 -17.859375 L 14.796875 -20.75 C 14.796875 -21.21875 14.5625 -21.453125 14.09375 -21.453125 L 13.28125 -21.453125 C 12.8125 -21.453125 12.578125 -21.21875 12.578125 -20.75 L 12.578125 -0.703125 C 12.578125 -0.234375 12.34375 0 11.875 0 L 3.296875 0 C 2.828125 0 2.59375 -0.234375 2.59375 -0.703125 Z M 2.59375 -0.703125 "/></g></g></g><g fill="#ffec45" fill-opacity="1"><g transform="translate(308.192879, 188.248872)"><g><path d="M 7.03125 -0.703125 L 7.03125 -1.515625 C 7.03125 -1.984375 6.796875 -2.21875 6.328125 -2.21875 L 5.515625 -2.21875 C 5.046875 -2.21875 4.8125 -2.453125 4.8125 -2.921875 L 4.8125 -3.734375 C 4.8125 -4.203125 4.578125 -4.4375 4.109375 -4.4375 L 3.296875 -4.4375 C 2.828125 -4.4375 2.59375 -4.671875 2.59375 -5.140625 L 2.59375 -20.75 C 2.59375 -21.21875 2.828125 -21.453125 3.296875 -21.453125 L 4.109375 -21.453125 C 4.578125 -21.453125 4.8125 -21.6875 4.8125 -22.15625 L 4.8125 -22.96875 C 4.8125 -23.4375 5.046875 -23.671875 5.515625 -23.671875 L 6.328125 -23.671875 C 6.796875 -23.671875 7.03125 -23.90625 7.03125 -24.375 L 7.03125 -25.1875 C 7.03125 -25.65625 7.265625 -25.890625 7.734375 -25.890625 L 21.859375 -25.890625 C 22.328125 -25.890625 22.5625 -25.65625 22.5625 -25.1875 L 22.5625 -24.375 C 22.5625 -23.90625 22.796875 -23.671875 23.265625 -23.671875 L 24.078125 -23.671875 C 24.546875 -23.671875 24.78125 -23.4375 24.78125 -22.96875 L 24.78125 -22.15625 C 24.78125 -21.6875 25.015625 -21.453125 25.484375 -21.453125 L 26.296875 -21.453125 C 26.765625 -21.453125 27 -21.21875 27 -20.75 L 27 -14.75 C 27 -14.28125 26.765625 -14.046875 26.296875 -14.046875 L 25.484375 -14.046875 C 25.015625 -14.046875 24.78125 -13.8125 24.78125 -13.34375 L 24.78125 -12.53125 C 24.78125 -12.0625 24.546875 -11.828125 24.078125 -11.828125 L 13.28125 -11.828125 C 12.8125 -11.828125 12.578125 -11.59375 12.578125 -11.125 L 12.578125 -2.921875 C 12.578125 -2.453125 12.8125 -2.21875 13.28125 -2.21875 L 14.09375 -2.21875 C 14.5625 -2.21875 14.796875 -2.453125 14.796875 -2.921875 L 14.796875 -3.734375 C 14.796875 -4.203125 15.03125 -4.4375 15.5 -4.4375 L 16.3125 -4.4375 C 16.78125 -4.4375 17.015625 -4.671875 17.015625 -5.140625 L 17.015625 -7.6875 C 17.015625 -8.15625 17.25 -8.390625 17.71875 -8.390625 L 26.296875 -8.390625 C 26.765625 -8.390625 27 -8.15625 27 -7.6875 L 27 -5.140625 C 27 -4.671875 26.765625 -4.4375 26.296875 -4.4375 L 25.484375 -4.4375 C 25.015625 -4.4375 24.78125 -4.203125 24.78125 -3.734375 L 24.78125 -2.921875 C 24.78125 -2.453125 24.546875 -2.21875 24.078125 -2.21875 L 23.265625 -2.21875 C 22.796875 -2.21875 22.5625 -1.984375 22.5625 -1.515625 L 22.5625 -0.703125 C 22.5625 -0.234375 22.328125 0 21.859375 0 L 7.734375 0 C 7.265625 0 7.03125 -0.234375 7.03125 -0.703125 Z M 13.28125 -14.046875 L 16.3125 -14.046875 C 16.78125 -14.046875 17.015625 -14.28125 17.015625 -14.75 L 17.015625 -22.96875 C 17.015625 -23.4375 16.78125 -23.671875 16.3125 -23.671875 L 15.5 -23.671875 C 15.03125 -23.671875 14.796875 -23.4375 14.796875 -22.96875 L 14.796875 -22.15625 C 14.796875 -21.6875 14.5625 -21.453125 14.09375 -21.453125 L 13.28125 -21.453125 C 12.8125 -21.453125 12.578125 -21.21875 12.578125 -20.75 L 12.578125 -14.75 C 12.578125 -14.28125 12.8125 -14.046875 13.28125 -14.046875 Z M 13.28125 -14.046875 "/></g></g></g><g fill="#ffec45" fill-opacity="1"><g transform="translate(337.031554, 188.248872)"><g><path d="M 4.0625 -0.734375 L 4.0625 -0.8125 C 4.0625 -1.257812 3.84375 -1.484375 3.40625 -1.484375 C 2.863281 -1.484375 2.59375 -1.753906 2.59375 -2.296875 L 2.59375 -7.6875 C 2.59375 -8.226562 2.863281 -8.5 3.40625 -8.5 C 3.84375 -8.5 4.0625 -8.722656 4.0625 -9.171875 L 4.0625 -9.25 C 4.0625 -9.738281 4.3125 -9.984375 4.8125 -9.984375 L 10.28125 -9.984375 C 10.820312 -9.984375 11.09375 -9.710938 11.09375 -9.171875 C 11.09375 -8.722656 11.316406 -8.5 11.765625 -8.5 L 11.828125 -8.5 C 12.328125 -8.5 12.578125 -8.253906 12.578125 -7.765625 L 12.578125 4.625 C 12.578125 5.238281 12.269531 5.546875 11.65625 5.546875 L 10.171875 5.546875 C 9.554688 5.546875 9.25 5.238281 9.25 4.625 L 9.25 0.921875 C 9.25 0.304688 8.941406 0 8.328125 0 L 4.8125 0 C 4.3125 0 4.0625 -0.242188 4.0625 -0.734375 Z M 4.0625 -0.734375 "/></g></g></g><g fill="#ffec45" fill-opacity="1"><g transform="translate(352.190351, 188.248872)"><g/></g></g><g fill="#ffec45" fill-opacity="1"><g transform="translate(361.433514, 188.248872)"><g><path d="M 4.8125 -0.703125 L 4.8125 -1.515625 C 4.8125 -1.984375 4.578125 -2.21875 4.109375 -2.21875 L 3.296875 -2.21875 C 2.828125 -2.21875 2.59375 -2.453125 2.59375 -2.921875 L 2.59375 -25.1875 C 2.59375 -25.65625 2.828125 -25.890625 3.296875 -25.890625 L 11.875 -25.890625 C 12.34375 -25.890625 12.578125 -25.65625 12.578125 -25.1875 L 12.578125 -2.921875 C 12.578125 -2.453125 12.8125 -2.21875 13.28125 -2.21875 L 14.34375 -2.21875 C 14.8125 -2.21875 15.046875 -2.453125 15.046875 -2.921875 L 15.046875 -3.734375 C 15.046875 -4.203125 15.28125 -4.4375 15.75 -4.4375 L 16.5625 -4.4375 C 17.03125 -4.4375 17.265625 -4.671875 17.265625 -5.140625 L 17.265625 -25.1875 C 17.265625 -25.65625 17.5 -25.890625 17.96875 -25.890625 L 26.5625 -25.890625 C 27.019531 -25.890625 27.25 -25.65625 27.25 -25.1875 L 27.25 -9.578125 C 27.25 -9.109375 27.019531 -8.875 26.5625 -8.875 L 25.328125 -8.875 C 24.859375 -8.875 24.625 -8.640625 24.625 -8.171875 L 24.625 -7.359375 C 24.625 -6.890625 24.390625 -6.65625 23.921875 -6.65625 L 23.109375 -6.65625 C 22.640625 -6.65625 22.40625 -6.421875 22.40625 -5.953125 L 22.40625 -5.140625 C 22.40625 -4.671875 22.171875 -4.4375 21.703125 -4.4375 L 20.890625 -4.4375 C 20.421875 -4.4375 20.1875 -4.203125 20.1875 -3.734375 L 20.1875 -2.921875 C 20.1875 -2.453125 19.953125 -2.21875 19.484375 -2.21875 L 19.125 -2.21875 C 18.65625 -2.21875 18.421875 -1.984375 18.421875 -1.515625 L 18.421875 -0.703125 C 18.421875 -0.234375 18.1875 0 17.71875 0 L 5.515625 0 C 5.046875 0 4.8125 -0.234375 4.8125 -0.703125 Z M 4.8125 -0.703125 "/></g></g></g><g fill="#ffec45" fill-opacity="1"><g transform="translate(390.900721, 188.248872)"><g><path d="M 7.03125 -0.703125 L 7.03125 -1.515625 C 7.03125 -1.984375 6.796875 -2.21875 6.328125 -2.21875 L 5.515625 -2.21875 C 5.046875 -2.21875 4.8125 -2.453125 4.8125 -2.921875 L 4.8125 -3.734375 C 4.8125 -4.203125 4.578125 -4.4375 4.109375 -4.4375 L 3.296875 -4.4375 C 2.828125 -4.4375 2.59375 -4.671875 2.59375 -5.140625 L 2.59375 -20.75 C 2.59375 -21.21875 2.828125 -21.453125 3.296875 -21.453125 L 4.109375 -21.453125 C 4.578125 -21.453125 4.8125 -21.6875 4.8125 -22.15625 L 4.8125 -22.96875 C 4.8125 -23.4375 5.046875 -23.671875 5.515625 -23.671875 L 6.328125 -23.671875 C 6.796875 -23.671875 7.03125 -23.90625 7.03125 -24.375 L 7.03125 -25.1875 C 7.03125 -25.65625 7.265625 -25.890625 7.734375 -25.890625 L 21.859375 -25.890625 C 22.328125 -25.890625 22.5625 -25.65625 22.5625 -25.1875 L 22.5625 -24.375 C 22.5625 -23.90625 22.796875 -23.671875 23.265625 -23.671875 L 24.078125 -23.671875 C 24.546875 -23.671875 24.78125 -23.4375 24.78125 -22.96875 L 24.78125 -22.15625 C 24.78125 -21.6875 25.015625 -21.453125 25.484375 -21.453125 L 26.296875 -21.453125 C 26.765625 -21.453125 27 -21.21875 27 -20.75 L 27 -14.75 C 27 -14.28125 26.765625 -14.046875 26.296875 -14.046875 L 25.484375 -14.046875 C 25.015625 -14.046875 24.78125 -13.8125 24.78125 -13.34375 L 24.78125 -12.53125 C 24.78125 -12.0625 24.546875 -11.828125 24.078125 -11.828125 L 13.28125 -11.828125 C 12.8125 -11.828125 12.578125 -11.59375 12.578125 -11.125 L 12.578125 -2.921875 C 12.578125 -2.453125 12.8125 -2.21875 13.28125 -2.21875 L 14.09375 -2.21875 C 14.5625 -2.21875 14.796875 -2.453125 14.796875 -2.921875 L 14.796875 -3.734375 C 14.796875 -4.203125 15.03125 -4.4375 15.5 -4.4375 L 16.3125 -4.4375 C 16.78125 -4.4375 17.015625 -4.671875 17.015625 -5.140625 L 17.015625 -7.6875 C 17.015625 -8.15625 17.25 -8.390625 17.71875 -8.390625 L 26.296875 -8.390625 C 26.765625 -8.390625 27 -8.15625 27 -7.6875 L 27 -5.140625 C 27 -4.671875 26.765625 -4.4375 26.296875 -4.4375 L 25.484375 -4.4375 C 25.015625 -4.4375 24.78125 -4.203125 24.78125 -3.734375 L 24.78125 -2.921875 C 24.78125 -2.453125 24.546875 -2.21875 24.078125 -2.21875 L 23.265625 -2.21875 C 22.796875 -2.21875 22.5625 -1.984375 22.5625 -1.515625 L 22.5625 -0.703125 C 22.5625 -0.234375 22.328125 0 21.859375 0 L 7.734375 0 C 7.265625 0 7.03125 -0.234375 7.03125 -0.703125 Z M 13.28125 -14.046875 L 16.3125 -14.046875 C 16.78125 -14.046875 17.015625 -14.28125 17.015625 -14.75 L 17.015625 -22.96875 C 17.015625 -23.4375 16.78125 -23.671875 16.3125 -23.671875 L 15.5 -23.671875 C 15.03125 -23.671875 14.796875 -23.4375 14.796875 -22.96875 L 14.796875 -22.15625 C 14.796875 -21.6875 14.5625 -21.453125 14.09375 -21.453125 L 13.28125 -21.453125 C 12.8125 -21.453125 12.578125 -21.21875 12.578125 -20.75 L 12.578125 -14.75 C 12.578125 -14.28125 12.8125 -14.046875 13.28125 -14.046875 Z M 13.28125 -14.046875 "/></g></g></g><g fill="#ffec45" fill-opacity="1"><g transform="translate(419.739372, 188.248872)"><g><path d="M 2.59375 -0.703125 L 2.59375 -25.1875 C 2.59375 -25.65625 2.828125 -25.890625 3.296875 -25.890625 L 8.546875 -25.890625 C 9.015625 -25.890625 9.25 -25.65625 9.25 -25.1875 L 9.25 -22.15625 C 9.25 -21.6875 9.484375 -21.453125 9.953125 -21.453125 L 10.765625 -21.453125 C 11.234375 -21.453125 11.46875 -21.6875 11.46875 -22.15625 L 11.46875 -22.96875 C 11.46875 -23.4375 11.703125 -23.671875 12.171875 -23.671875 L 12.984375 -23.671875 C 13.453125 -23.671875 13.6875 -23.90625 13.6875 -24.375 L 13.6875 -25.1875 C 13.6875 -25.65625 13.921875 -25.890625 14.390625 -25.890625 L 20.75 -25.890625 C 21.21875 -25.890625 21.453125 -25.65625 21.453125 -25.1875 L 21.453125 -24.375 C 21.453125 -23.90625 21.6875 -23.671875 22.15625 -23.671875 L 22.96875 -23.671875 C 23.164062 -23.671875 23.265625 -23.671875 23.265625 -23.671875 C 23.265625 -23.671875 23.164062 -23.671875 22.96875 -23.671875 L 22.15625 -23.671875 C 21.957031 -23.671875 21.859375 -23.671875 21.859375 -23.671875 C 21.859375 -23.671875 21.957031 -23.671875 22.15625 -23.671875 L 22.96875 -23.671875 C 23.4375 -23.671875 23.671875 -23.4375 23.671875 -22.96875 L 23.671875 -17.859375 C 23.671875 -17.390625 23.4375 -17.15625 22.96875 -17.15625 L 15.5 -17.15625 C 15.03125 -17.15625 14.796875 -17.390625 14.796875 -17.859375 L 14.796875 -20.75 C 14.796875 -21.21875 14.5625 -21.453125 14.09375 -21.453125 L 13.28125 -21.453125 C 12.8125 -21.453125 12.578125 -21.21875 12.578125 -20.75 L 12.578125 -0.703125 C 12.578125 -0.234375 12.34375 0 11.875 0 L 3.296875 0 C 2.828125 0 2.59375 -0.234375 2.59375 -0.703125 Z M 2.59375 -0.703125 "/></g></g></g><g fill="#ffec45" fill-opacity="1"><g transform="translate(444.141333, 188.248872)"><g><path d="M 4.8125 -0.703125 L 4.8125 -1.515625 C 4.8125 -1.984375 4.578125 -2.21875 4.109375 -2.21875 L 3.296875 -2.21875 C 3.097656 -2.21875 3 -2.21875 3 -2.21875 C 3 -2.21875 3.097656 -2.21875 3.296875 -2.21875 L 4.109375 -2.21875 C 4.304688 -2.21875 4.40625 -2.21875 4.40625 -2.21875 C 4.40625 -2.21875 4.304688 -2.21875 4.109375 -2.21875 L 3.296875 -2.21875 C 2.828125 -2.21875 2.59375 -2.453125 2.59375 -2.921875 L 2.59375 -25.1875 C 2.59375 -25.65625 2.828125 -25.890625 3.296875 -25.890625 L 11.875 -25.890625 C 12.34375 -25.890625 12.578125 -25.65625 12.578125 -25.1875 L 12.578125 -2.921875 C 12.578125 -2.453125 12.8125 -2.21875 13.28125 -2.21875 L 14.09375 -2.21875 C 14.5625 -2.21875 14.796875 -2.453125 14.796875 -2.921875 L 14.796875 -3.734375 C 14.796875 -4.203125 15.03125 -4.4375 15.5 -4.4375 L 16.3125 -4.4375 C 16.78125 -4.4375 17.015625 -4.671875 17.015625 -5.140625 L 17.015625 -25.1875 C 17.015625 -25.65625 17.25 -25.890625 17.71875 -25.890625 L 26.296875 -25.890625 C 26.765625 -25.890625 27 -25.65625 27 -25.1875 L 27 4.109375 C 27 4.578125 26.765625 4.8125 26.296875 4.8125 L 25.484375 4.8125 C 25.015625 4.8125 24.78125 5.046875 24.78125 5.515625 L 24.78125 6.328125 C 24.78125 6.796875 24.546875 7.03125 24.078125 7.03125 L 23.265625 7.03125 C 22.796875 7.03125 22.5625 7.265625 22.5625 7.734375 L 22.5625 8.546875 C 22.5625 9.015625 22.328125 9.25 21.859375 9.25 L 5.515625 9.25 C 5.046875 9.25 4.8125 9.015625 4.8125 8.546875 L 4.8125 7.734375 C 4.8125 7.265625 4.578125 7.03125 4.109375 7.03125 L 3.296875 7.03125 C 3.097656 7.03125 3 7.03125 3 7.03125 C 3 7.03125 3.097656 7.03125 3.296875 7.03125 L 4.109375 7.03125 C 4.304688 7.03125 4.40625 7.03125 4.40625 7.03125 C 4.40625 7.03125 4.304688 7.03125 4.109375 7.03125 L 3.296875 7.03125 C 2.828125 7.03125 2.59375 6.796875 2.59375 6.328125 L 2.59375 3.296875 C 2.59375 2.828125 2.828125 2.59375 3.296875 2.59375 L 11.875 2.59375 C 12.34375 2.59375 12.578125 2.828125 12.578125 3.296875 L 12.578125 3.890625 C 12.578125 4.359375 12.8125 4.59375 13.28125 4.59375 L 13.71875 4.59375 C 14.1875 4.59375 14.421875 4.820312 14.421875 5.28125 L 14.421875 6.328125 C 14.421875 6.796875 14.65625 7.03125 15.125 7.03125 L 17.421875 7.03125 C 17.890625 7.03125 18.125 6.796875 18.125 6.328125 L 18.125 -1.515625 C 18.125 -1.984375 17.890625 -2.21875 17.421875 -2.21875 L 16.609375 -2.21875 C 16.140625 -2.21875 15.90625 -1.984375 15.90625 -1.515625 L 15.90625 -0.703125 C 15.90625 -0.234375 15.671875 0 15.203125 0 L 5.515625 0 C 5.046875 0 4.8125 -0.234375 4.8125 -0.703125 Z M 4.8125 -0.703125 "/></g></g></g><g fill="#000000" fill-opacity="0.5608"><g transform="translate(157.13404, 241.667194)"><g><path d="M 2.59375 -0.703125 L 2.59375 -25.1875 C 2.59375 -25.65625 2.828125 -25.890625 3.296875 -25.890625 L 8.546875 -25.890625 C 9.015625 -25.890625 9.25 -25.65625 9.25 -25.1875 L 9.25 -22.15625 C 9.25 -21.6875 9.484375 -21.453125 9.953125 -21.453125 L 10.765625 -21.453125 C 11.234375 -21.453125 11.46875 -21.6875 11.46875 -22.15625 L 11.46875 -22.96875 C 11.46875 -23.4375 11.703125 -23.671875 12.171875 -23.671875 L 12.984375 -23.671875 C 13.453125 -23.671875 13.6875 -23.90625 13.6875 -24.375 L 13.6875 -25.1875 C 13.6875 -25.65625 13.921875 -25.890625 14.390625 -25.890625 L 24.078125 -25.890625 C 24.546875 -25.890625 24.78125 -25.65625 24.78125 -25.1875 L 24.78125 -24.375 C 24.78125 -23.90625 25.015625 -23.671875 25.484375 -23.671875 L 27.40625 -23.671875 C 27.875 -23.671875 28.109375 -23.90625 28.109375 -24.375 L 28.109375 -25.1875 C 28.109375 -25.65625 28.34375 -25.890625 28.8125 -25.890625 L 38.5 -25.890625 C 38.96875 -25.890625 39.203125 -25.65625 39.203125 -25.1875 L 39.203125 -24.375 C 39.203125 -23.90625 39.4375 -23.671875 39.90625 -23.671875 L 40.71875 -23.671875 C 41.1875 -23.671875 41.421875 -23.4375 41.421875 -22.96875 L 41.421875 -0.703125 C 41.421875 -0.234375 41.1875 0 40.71875 0 L 32.140625 0 C 31.671875 0 31.4375 -0.234375 31.4375 -0.703125 L 31.4375 -22.96875 C 31.4375 -23.4375 31.203125 -23.671875 30.734375 -23.671875 L 29.921875 -23.671875 C 29.453125 -23.671875 29.21875 -23.4375 29.21875 -22.96875 L 29.21875 -22.15625 C 29.21875 -21.6875 28.984375 -21.453125 28.515625 -21.453125 L 27.703125 -21.453125 C 27.234375 -21.453125 27 -21.21875 27 -20.75 L 27 -0.703125 C 27 -0.234375 26.765625 0 26.296875 0 L 17.71875 0 C 17.25 0 17.015625 -0.234375 17.015625 -0.703125 L 17.015625 -22.96875 C 17.015625 -23.4375 16.78125 -23.671875 16.3125 -23.671875 L 15.5 -23.671875 C 15.03125 -23.671875 14.796875 -23.4375 14.796875 -22.96875 L 14.796875 -22.15625 C 14.796875 -21.6875 14.5625 -21.453125 14.09375 -21.453125 L 13.28125 -21.453125 C 12.8125 -21.453125 12.578125 -21.21875 12.578125 -20.75 L 12.578125 -0.703125 C 12.578125 -0.234375 12.34375 0 11.875 0 L 3.296875 0 C 2.828125 0 2.59375 -0.234375 2.59375 -0.703125 Z M 2.59375 -0.703125 "/></g></g></g><g fill="#000000" fill-opacity="0.5608"><g transform="translate(201.131477, 241.667194)"><g><path d="M 2.59375 -0.703125 L 2.59375 -25.1875 C 2.59375 -25.65625 2.828125 -25.890625 3.296875 -25.890625 L 11.875 -25.890625 C 12.34375 -25.890625 12.578125 -25.65625 12.578125 -25.1875 L 12.578125 -0.703125 C 12.578125 -0.234375 12.34375 0 11.875 0 L 3.296875 0 C 2.828125 0 2.59375 -0.234375 2.59375 -0.703125 Z M 3.703125 -28.8125 L 3.703125 -28.890625 C 3.703125 -29.359375 3.441406 -29.59375 2.921875 -29.59375 C 2.453125 -29.59375 2.21875 -29.828125 2.21875 -30.296875 L 2.21875 -33.6875 C 2.21875 -34.15625 2.476562 -34.390625 3 -34.390625 C 3.46875 -34.390625 3.703125 -34.648438 3.703125 -35.171875 C 3.703125 -35.640625 3.9375 -35.875 4.40625 -35.875 L 10.765625 -35.875 C 11.234375 -35.875 11.46875 -35.613281 11.46875 -35.09375 C 11.46875 -34.625 11.722656 -34.390625 12.234375 -34.390625 C 12.703125 -34.390625 12.9375 -34.15625 12.9375 -33.6875 L 12.9375 -30.296875 C 12.9375 -29.828125 12.679688 -29.59375 12.171875 -29.59375 C 11.703125 -29.59375 11.46875 -29.332031 11.46875 -28.8125 C 11.46875 -28.34375 11.234375 -28.109375 10.765625 -28.109375 L 4.40625 -28.109375 C 3.9375 -28.109375 3.703125 -28.34375 3.703125 -28.8125 Z M 3.703125 -28.8125 "/></g></g></g><g fill="#000000" fill-opacity="0.5608"><g transform="translate(216.290263, 241.667194)"><g><path d="M 2.59375 -0.703125 L 2.59375 -25.1875 C 2.59375 -25.65625 2.828125 -25.890625 3.296875 -25.890625 L 8.546875 -25.890625 C 9.015625 -25.890625 9.25 -25.65625 9.25 -25.1875 L 9.25 -22.15625 C 9.25 -21.6875 9.484375 -21.453125 9.953125 -21.453125 L 10.765625 -21.453125 C 11.234375 -21.453125 11.46875 -21.6875 11.46875 -22.15625 L 11.46875 -22.96875 C 11.46875 -23.4375 11.703125 -23.671875 12.171875 -23.671875 L 12.984375 -23.671875 C 13.453125 -23.671875 13.6875 -23.90625 13.6875 -24.375 L 13.6875 -25.1875 C 13.6875 -25.65625 13.921875 -25.890625 14.390625 -25.890625 L 24.078125 -25.890625 C 24.546875 -25.890625 24.78125 -25.65625 24.78125 -25.1875 L 24.78125 -24.375 C 24.78125 -23.90625 25.015625 -23.671875 25.484375 -23.671875 L 26.296875 -23.671875 C 26.492188 -23.671875 26.59375 -23.671875 26.59375 -23.671875 C 26.59375 -23.671875 26.492188 -23.671875 26.296875 -23.671875 L 25.484375 -23.671875 C 25.285156 -23.671875 25.1875 -23.671875 25.1875 -23.671875 C 25.1875 -23.671875 25.285156 -23.671875 25.484375 -23.671875 L 26.296875 -23.671875 C 26.765625 -23.671875 27 -23.4375 27 -22.96875 L 27 -0.703125 C 27 -0.234375 26.765625 0 26.296875 0 L 17.71875 0 C 17.25 0 17.015625 -0.234375 17.015625 -0.703125 L 17.015625 -22.96875 C 17.015625 -23.4375 16.78125 -23.671875 16.3125 -23.671875 L 15.5 -23.671875 C 15.03125 -23.671875 14.796875 -23.4375 14.796875 -22.96875 L 14.796875 -22.15625 C 14.796875 -21.6875 14.5625 -21.453125 14.09375 -21.453125 L 13.28125 -21.453125 C 12.8125 -21.453125 12.578125 -21.21875 12.578125 -20.75 L 12.578125 -0.703125 C 12.578125 -0.234375 12.34375 0 11.875 0 L 3.296875 0 C 2.828125 0 2.59375 -0.234375 2.59375 -0.703125 Z M 2.59375 -0.703125 "/></g></g></g><g fill="#000000" fill-opacity="0.5608"><g transform="translate(245.868375, 241.667194)"><g><path d="M 14.09375 -21.40625 L 13.28125 -21.40625 C 12.8125 -21.40625 12.578125 -21.175781 12.578125 -20.71875 L 12.578125 -2.890625 C 12.578125 -2.421875 12.8125 -2.1875 13.28125 -2.1875 L 14.09375 -2.1875 C 14.5625 -2.1875 14.796875 -2.421875 14.796875 -2.890625 L 14.796875 -3.703125 C 14.796875 -4.171875 15.03125 -4.40625 15.5 -4.40625 L 16.3125 -4.40625 C 16.78125 -4.40625 17.015625 -4.640625 17.015625 -5.109375 L 17.015625 -22.9375 C 17.015625 -23.40625 16.78125 -23.640625 16.3125 -23.640625 L 15.5 -23.640625 C 15.03125 -23.640625 14.796875 -23.40625 14.796875 -22.9375 L 14.796875 -22.109375 C 14.796875 -21.640625 14.5625 -21.40625 14.09375 -21.40625 Z M 7.03125 -0.671875 L 7.03125 -1.484375 C 7.03125 -1.953125 6.796875 -2.1875 6.328125 -2.1875 L 5.515625 -2.1875 C 5.046875 -2.1875 4.8125 -2.421875 4.8125 -2.890625 L 4.8125 -3.703125 C 4.8125 -4.171875 4.578125 -4.40625 4.109375 -4.40625 L 3.296875 -4.40625 C 2.828125 -4.40625 2.59375 -4.640625 2.59375 -5.109375 L 2.59375 -20.71875 C 2.59375 -21.175781 2.828125 -21.40625 3.296875 -21.40625 L 4.109375 -21.40625 C 4.578125 -21.40625 4.8125 -21.640625 4.8125 -22.109375 L 4.8125 -22.9375 C 4.8125 -23.40625 5.046875 -23.640625 5.515625 -23.640625 L 6.328125 -23.640625 C 6.796875 -23.640625 7.03125 -23.867188 7.03125 -24.328125 L 7.03125 -25.15625 C 7.03125 -25.625 7.265625 -25.859375 7.734375 -25.859375 L 16.3125 -25.859375 C 16.78125 -25.859375 17.015625 -26.09375 17.015625 -26.5625 L 17.015625 -35.03125 C 17.015625 -35.5 17.25 -35.734375 17.71875 -35.734375 L 26.296875 -35.734375 C 26.765625 -35.734375 27 -35.5 27 -35.03125 L 27 -0.671875 C 27 -0.203125 26.765625 0.03125 26.296875 0.03125 L 7.734375 0.03125 C 7.265625 0.03125 7.03125 -0.203125 7.03125 -0.671875 Z M 7.03125 -0.671875 "/></g></g></g><g fill="#000000" fill-opacity="0.5608"><g transform="translate(275.446486, 241.667194)"><g><path d="M 4.25 -0.703125 L 4.25 -23 C 4.25 -23.46875 4.015625 -23.703125 3.546875 -23.703125 L 2.359375 -23.703125 C 1.898438 -23.703125 1.671875 -23.9375 1.671875 -24.40625 L 1.671875 -25.1875 C 1.671875 -25.65625 1.898438 -25.890625 2.359375 -25.890625 L 3.546875 -25.890625 C 4.015625 -25.890625 4.25 -26.125 4.25 -26.59375 L 4.25 -32.8125 C 4.25 -33.28125 4.484375 -33.515625 4.953125 -33.515625 L 5.765625 -33.515625 C 6.234375 -33.515625 6.46875 -33.742188 6.46875 -34.203125 L 6.46875 -35.03125 C 6.46875 -35.5 6.703125 -35.734375 7.171875 -35.734375 L 19.828125 -35.734375 C 20.296875 -35.734375 20.53125 -35.5 20.53125 -35.03125 L 20.53125 -34.203125 C 20.53125 -33.742188 20.765625 -33.515625 21.234375 -33.515625 L 23.15625 -33.515625 C 23.625 -33.515625 23.859375 -33.28125 23.859375 -32.8125 L 23.859375 -29.03125 C 23.859375 -28.5625 23.625 -28.328125 23.15625 -28.328125 L 17.15625 -28.328125 C 16.6875 -28.328125 16.453125 -28.5625 16.453125 -29.03125 L 16.453125 -32.8125 C 16.453125 -33.28125 16.21875 -33.515625 15.75 -33.515625 L 14.9375 -33.515625 C 14.46875 -33.515625 14.234375 -33.28125 14.234375 -32.8125 L 14.234375 -26.59375 C 14.234375 -26.125 14.46875 -25.890625 14.9375 -25.890625 L 18.671875 -25.890625 C 19.140625 -25.890625 19.375 -25.65625 19.375 -25.1875 L 19.375 -24.40625 C 19.375 -23.9375 19.140625 -23.703125 18.671875 -23.703125 L 14.9375 -23.703125 C 14.46875 -23.703125 14.234375 -23.46875 14.234375 -23 L 14.234375 -0.703125 C 14.234375 -0.234375 14 0 13.53125 0 L 4.953125 0 C 4.484375 0 4.25 -0.234375 4.25 -0.703125 Z M 4.25 -0.703125 "/></g></g></g><g fill="#000000" fill-opacity="0.5608"><g transform="translate(296.704869, 241.667194)"><g><path d="M 7.03125 -0.671875 L 7.03125 -1.484375 C 7.03125 -1.953125 6.796875 -2.1875 6.328125 -2.1875 L 5.515625 -2.1875 C 5.046875 -2.1875 4.8125 -2.421875 4.8125 -2.890625 L 4.8125 -3.703125 C 4.8125 -4.171875 4.578125 -4.40625 4.109375 -4.40625 L 3.296875 -4.40625 C 2.828125 -4.40625 2.59375 -4.640625 2.59375 -5.109375 L 2.59375 -25.15625 C 2.59375 -25.625 2.828125 -25.859375 3.296875 -25.859375 L 11.875 -25.859375 C 12.34375 -25.859375 12.578125 -25.625 12.578125 -25.15625 L 12.578125 -2.890625 C 12.578125 -2.421875 12.8125 -2.1875 13.28125 -2.1875 L 14.09375 -2.1875 C 14.5625 -2.1875 14.796875 -2.421875 14.796875 -2.890625 L 14.796875 -3.703125 C 14.796875 -4.171875 15.03125 -4.40625 15.5 -4.40625 L 16.3125 -4.40625 C 16.78125 -4.40625 17.015625 -4.640625 17.015625 -5.109375 L 17.015625 -25.15625 C 17.015625 -25.625 17.25 -25.859375 17.71875 -25.859375 L 26.296875 -25.859375 C 26.765625 -25.859375 27 -25.625 27 -25.15625 L 27 -5.109375 C 27 -4.640625 26.765625 -4.40625 26.296875 -4.40625 L 25.484375 -4.40625 C 25.015625 -4.40625 24.78125 -4.171875 24.78125 -3.703125 L 24.78125 -2.890625 C 24.78125 -2.421875 24.546875 -2.1875 24.078125 -2.1875 L 23.265625 -2.1875 C 22.796875 -2.1875 22.5625 -1.953125 22.5625 -1.484375 L 22.5625 -0.671875 C 22.5625 -0.203125 22.328125 0.03125 21.859375 0.03125 L 7.734375 0.03125 C 7.265625 0.03125 7.03125 -0.203125 7.03125 -0.671875 Z M 7.03125 -0.671875 "/></g></g></g><g fill="#000000" fill-opacity="0.5608"><g transform="translate(326.28298, 241.667194)"><g><path d="M 2.59375 -0.703125 L 2.59375 -35.03125 C 2.59375 -35.5 2.828125 -35.734375 3.296875 -35.734375 L 11.875 -35.734375 C 12.34375 -35.734375 12.578125 -35.5 12.578125 -35.03125 L 12.578125 -0.703125 C 12.578125 -0.234375 12.34375 0 11.875 0 L 3.296875 0 C 2.828125 0 2.59375 -0.234375 2.59375 -0.703125 Z M 2.59375 -0.703125 "/></g></g></g><g fill="#ffec45" fill-opacity="1"><g transform="translate(155.214845, 239.998867)"><g><path d="M 2.59375 -0.703125 L 2.59375 -25.1875 C 2.59375 -25.65625 2.828125 -25.890625 3.296875 -25.890625 L 8.546875 -25.890625 C 9.015625 -25.890625 9.25 -25.65625 9.25 -25.1875 L 9.25 -22.15625 C 9.25 -21.6875 9.484375 -21.453125 9.953125 -21.453125 L 10.765625 -21.453125 C 11.234375 -21.453125 11.46875 -21.6875 11.46875 -22.15625 L 11.46875 -22.96875 C 11.46875 -23.4375 11.703125 -23.671875 12.171875 -23.671875 L 12.984375 -23.671875 C 13.453125 -23.671875 13.6875 -23.90625 13.6875 -24.375 L 13.6875 -25.1875 C 13.6875 -25.65625 13.921875 -25.890625 14.390625 -25.890625 L 24.078125 -25.890625 C 24.546875 -25.890625 24.78125 -25.65625 24.78125 -25.1875 L 24.78125 -24.375 C 24.78125 -23.90625 25.015625 -23.671875 25.484375 -23.671875 L 27.40625 -23.671875 C 27.875 -23.671875 28.109375 -23.90625 28.109375 -24.375 L 28.109375 -25.1875 C 28.109375 -25.65625 28.34375 -25.890625 28.8125 -25.890625 L 38.5 -25.890625 C 38.96875 -25.890625 39.203125 -25.65625 39.203125 -25.1875 L 39.203125 -24.375 C 39.203125 -23.90625 39.4375 -23.671875 39.90625 -23.671875 L 40.71875 -23.671875 C 41.1875 -23.671875 41.421875 -23.4375 41.421875 -22.96875 L 41.421875 -0.703125 C 41.421875 -0.234375 41.1875 0 40.71875 0 L 32.140625 0 C 31.671875 0 31.4375 -0.234375 31.4375 -0.703125 L 31.4375 -22.96875 C 31.4375 -23.4375 31.203125 -23.671875 30.734375 -23.671875 L 29.921875 -23.671875 C 29.453125 -23.671875 29.21875 -23.4375 29.21875 -22.96875 L 29.21875 -22.15625 C 29.21875 -21.6875 28.984375 -21.453125 28.515625 -21.453125 L 27.703125 -21.453125 C 27.234375 -21.453125 27 -21.21875 27 -20.75 L 27 -0.703125 C 27 -0.234375 26.765625 0 26.296875 0 L 17.71875 0 C 17.25 0 17.015625 -0.234375 17.015625 -0.703125 L 17.015625 -22.96875 C 17.015625 -23.4375 16.78125 -23.671875 16.3125 -23.671875 L 15.5 -23.671875 C 15.03125 -23.671875 14.796875 -23.4375 14.796875 -22.96875 L 14.796875 -22.15625 C 14.796875 -21.6875 14.5625 -21.453125 14.09375 -21.453125 L 13.28125 -21.453125 C 12.8125 -21.453125 12.578125 -21.21875 12.578125 -20.75 L 12.578125 -0.703125 C 12.578125 -0.234375 12.34375 0 11.875 0 L 3.296875 0 C 2.828125 0 2.59375 -0.234375 2.59375 -0.703125 Z M 2.59375 -0.703125 "/></g></g></g><g fill="#ffec45" fill-opacity="1"><g transform="translate(199.212282, 239.998867)"><g><path d="M 2.59375 -0.703125 L 2.59375 -25.1875 C 2.59375 -25.65625 2.828125 -25.890625 3.296875 -25.890625 L 11.875 -25.890625 C 12.34375 -25.890625 12.578125 -25.65625 12.578125 -25.1875 L 12.578125 -0.703125 C 12.578125 -0.234375 12.34375 0 11.875 0 L 3.296875 0 C 2.828125 0 2.59375 -0.234375 2.59375 -0.703125 Z M 3.703125 -28.8125 L 3.703125 -28.890625 C 3.703125 -29.359375 3.441406 -29.59375 2.921875 -29.59375 C 2.453125 -29.59375 2.21875 -29.828125 2.21875 -30.296875 L 2.21875 -33.6875 C 2.21875 -34.15625 2.476562 -34.390625 3 -34.390625 C 3.46875 -34.390625 3.703125 -34.648438 3.703125 -35.171875 C 3.703125 -35.640625 3.9375 -35.875 4.40625 -35.875 L 10.765625 -35.875 C 11.234375 -35.875 11.46875 -35.613281 11.46875 -35.09375 C 11.46875 -34.625 11.722656 -34.390625 12.234375 -34.390625 C 12.703125 -34.390625 12.9375 -34.15625 12.9375 -33.6875 L 12.9375 -30.296875 C 12.9375 -29.828125 12.679688 -29.59375 12.171875 -29.59375 C 11.703125 -29.59375 11.46875 -29.332031 11.46875 -28.8125 C 11.46875 -28.34375 11.234375 -28.109375 10.765625 -28.109375 L 4.40625 -28.109375 C 3.9375 -28.109375 3.703125 -28.34375 3.703125 -28.8125 Z M 3.703125 -28.8125 "/></g></g></g><g fill="#ffec45" fill-opacity="1"><g transform="translate(214.371067, 239.998867)"><g><path d="M 2.59375 -0.703125 L 2.59375 -25.1875 C 2.59375 -25.65625 2.828125 -25.890625 3.296875 -25.890625 L 8.546875 -25.890625 C 9.015625 -25.890625 9.25 -25.65625 9.25 -25.1875 L 9.25 -22.15625 C 9.25 -21.6875 9.484375 -21.453125 9.953125 -21.453125 L 10.765625 -21.453125 C 11.234375 -21.453125 11.46875 -21.6875 11.46875 -22.15625 L 11.46875 -22.96875 C 11.46875 -23.4375 11.703125 -23.671875 12.171875 -23.671875 L 12.984375 -23.671875 C 13.453125 -23.671875 13.6875 -23.90625 13.6875 -24.375 L 13.6875 -25.1875 C 13.6875 -25.65625 13.921875 -25.890625 14.390625 -25.890625 L 24.078125 -25.890625 C 24.546875 -25.890625 24.78125 -25.65625 24.78125 -25.1875 L 24.78125 -24.375 C 24.78125 -23.90625 25.015625 -23.671875 25.484375 -23.671875 L 26.296875 -23.671875 C 26.492188 -23.671875 26.59375 -23.671875 26.59375 -23.671875 C 26.59375 -23.671875 26.492188 -23.671875 26.296875 -23.671875 L 25.484375 -23.671875 C 25.285156 -23.671875 25.1875 -23.671875 25.1875 -23.671875 C 25.1875 -23.671875 25.285156 -23.671875 25.484375 -23.671875 L 26.296875 -23.671875 C 26.765625 -23.671875 27 -23.4375 27 -22.96875 L 27 -0.703125 C 27 -0.234375 26.765625 0 26.296875 0 L 17.71875 0 C 17.25 0 17.015625 -0.234375 17.015625 -0.703125 L 17.015625 -22.96875 C 17.015625 -23.4375 16.78125 -23.671875 16.3125 -23.671875 L 15.5 -23.671875 C 15.03125 -23.671875 14.796875 -23.4375 14.796875 -22.96875 L 14.796875 -22.15625 C 14.796875 -21.6875 14.5625 -21.453125 14.09375 -21.453125 L 13.28125 -21.453125 C 12.8125 -21.453125 12.578125 -21.21875 12.578125 -20.75 L 12.578125 -0.703125 C 12.578125 -0.234375 12.34375 0 11.875 0 L 3.296875 0 C 2.828125 0 2.59375 -0.234375 2.59375 -0.703125 Z M 2.59375 -0.703125 "/></g></g></g><g fill="#ffec45" fill-opacity="1"><g transform="translate(243.949179, 239.998867)"><g><path d="M 14.09375 -21.40625 L 13.28125 -21.40625 C 12.8125 -21.40625 12.578125 -21.175781 12.578125 -20.71875 L 12.578125 -2.890625 C 12.578125 -2.421875 12.8125 -2.1875 13.28125 -2.1875 L 14.09375 -2.1875 C 14.5625 -2.1875 14.796875 -2.421875 14.796875 -2.890625 L 14.796875 -3.703125 C 14.796875 -4.171875 15.03125 -4.40625 15.5 -4.40625 L 16.3125 -4.40625 C 16.78125 -4.40625 17.015625 -4.640625 17.015625 -5.109375 L 17.015625 -22.9375 C 17.015625 -23.40625 16.78125 -23.640625 16.3125 -23.640625 L 15.5 -23.640625 C 15.03125 -23.640625 14.796875 -23.40625 14.796875 -22.9375 L 14.796875 -22.109375 C 14.796875 -21.640625 14.5625 -21.40625 14.09375 -21.40625 Z M 7.03125 -0.671875 L 7.03125 -1.484375 C 7.03125 -1.953125 6.796875 -2.1875 6.328125 -2.1875 L 5.515625 -2.1875 C 5.046875 -2.1875 4.8125 -2.421875 4.8125 -2.890625 L 4.8125 -3.703125 C 4.8125 -4.171875 4.578125 -4.40625 4.109375 -4.40625 L 3.296875 -4.40625 C 2.828125 -4.40625 2.59375 -4.640625 2.59375 -5.109375 L 2.59375 -20.71875 C 2.59375 -21.175781 2.828125 -21.40625 3.296875 -21.40625 L 4.109375 -21.40625 C 4.578125 -21.40625 4.8125 -21.640625 4.8125 -22.109375 L 4.8125 -22.9375 C 4.8125 -23.40625 5.046875 -23.640625 5.515625 -23.640625 L 6.328125 -23.640625 C 6.796875 -23.640625 7.03125 -23.867188 7.03125 -24.328125 L 7.03125 -25.15625 C 7.03125 -25.625 7.265625 -25.859375 7.734375 -25.859375 L 16.3125 -25.859375 C 16.78125 -25.859375 17.015625 -26.09375 17.015625 -26.5625 L 17.015625 -35.03125 C 17.015625 -35.5 17.25 -35.734375 17.71875 -35.734375 L 26.296875 -35.734375 C 26.765625 -35.734375 27 -35.5 27 -35.03125 L 27 -0.671875 C 27 -0.203125 26.765625 0.03125 26.296875 0.03125 L 7.734375 0.03125 C 7.265625 0.03125 7.03125 -0.203125 7.03125 -0.671875 Z M 7.03125 -0.671875 "/></g></g></g><g fill="#ffec45" fill-opacity="1"><g transform="translate(273.52729, 239.998867)"><g><path d="M 4.25 -0.703125 L 4.25 -23 C 4.25 -23.46875 4.015625 -23.703125 3.546875 -23.703125 L 2.359375 -23.703125 C 1.898438 -23.703125 1.671875 -23.9375 1.671875 -24.40625 L 1.671875 -25.1875 C 1.671875 -25.65625 1.898438 -25.890625 2.359375 -25.890625 L 3.546875 -25.890625 C 4.015625 -25.890625 4.25 -26.125 4.25 -26.59375 L 4.25 -32.8125 C 4.25 -33.28125 4.484375 -33.515625 4.953125 -33.515625 L 5.765625 -33.515625 C 6.234375 -33.515625 6.46875 -33.742188 6.46875 -34.203125 L 6.46875 -35.03125 C 6.46875 -35.5 6.703125 -35.734375 7.171875 -35.734375 L 19.828125 -35.734375 C 20.296875 -35.734375 20.53125 -35.5 20.53125 -35.03125 L 20.53125 -34.203125 C 20.53125 -33.742188 20.765625 -33.515625 21.234375 -33.515625 L 23.15625 -33.515625 C 23.625 -33.515625 23.859375 -33.28125 23.859375 -32.8125 L 23.859375 -29.03125 C 23.859375 -28.5625 23.625 -28.328125 23.15625 -28.328125 L 17.15625 -28.328125 C 16.6875 -28.328125 16.453125 -28.5625 16.453125 -29.03125 L 16.453125 -32.8125 C 16.453125 -33.28125 16.21875 -33.515625 15.75 -33.515625 L 14.9375 -33.515625 C 14.46875 -33.515625 14.234375 -33.28125 14.234375 -32.8125 L 14.234375 -26.59375 C 14.234375 -26.125 14.46875 -25.890625 14.9375 -25.890625 L 18.671875 -25.890625 C 19.140625 -25.890625 19.375 -25.65625 19.375 -25.1875 L 19.375 -24.40625 C 19.375 -23.9375 19.140625 -23.703125 18.671875 -23.703125 L 14.9375 -23.703125 C 14.46875 -23.703125 14.234375 -23.46875 14.234375 -23 L 14.234375 -0.703125 C 14.234375 -0.234375 14 0 13.53125 0 L 4.953125 0 C 4.484375 0 4.25 -0.234375 4.25 -0.703125 Z M 4.25 -0.703125 "/></g></g></g><g fill="#ffec45" fill-opacity="1"><g transform="translate(294.785673, 239.998867)"><g><path d="M 7.03125 -0.671875 L 7.03125 -1.484375 C 7.03125 -1.953125 6.796875 -2.1875 6.328125 -2.1875 L 5.515625 -2.1875 C 5.046875 -2.1875 4.8125 -2.421875 4.8125 -2.890625 L 4.8125 -3.703125 C 4.8125 -4.171875 4.578125 -4.40625 4.109375 -4.40625 L 3.296875 -4.40625 C 2.828125 -4.40625 2.59375 -4.640625 2.59375 -5.109375 L 2.59375 -25.15625 C 2.59375 -25.625 2.828125 -25.859375 3.296875 -25.859375 L 11.875 -25.859375 C 12.34375 -25.859375 12.578125 -25.625 12.578125 -25.15625 L 12.578125 -2.890625 C 12.578125 -2.421875 12.8125 -2.1875 13.28125 -2.1875 L 14.09375 -2.1875 C 14.5625 -2.1875 14.796875 -2.421875 14.796875 -2.890625 L 14.796875 -3.703125 C 14.796875 -4.171875 15.03125 -4.40625 15.5 -4.40625 L 16.3125 -4.40625 C 16.78125 -4.40625 17.015625 -4.640625 17.015625 -5.109375 L 17.015625 -25.15625 C 17.015625 -25.625 17.25 -25.859375 17.71875 -25.859375 L 26.296875 -25.859375 C 26.765625 -25.859375 27 -25.625 27 -25.15625 L 27 -5.109375 C 27 -4.640625 26.765625 -4.40625 26.296875 -4.40625 L 25.484375 -4.40625 C 25.015625 -4.40625 24.78125 -4.171875 24.78125 -3.703125 L 24.78125 -2.890625 C 24.78125 -2.421875 24.546875 -2.1875 24.078125 -2.1875 L 23.265625 -2.1875 C 22.796875 -2.1875 22.5625 -1.953125 22.5625 -1.484375 L 22.5625 -0.671875 C 22.5625 -0.203125 22.328125 0.03125 21.859375 0.03125 L 7.734375 0.03125 C 7.265625 0.03125 7.03125 -0.203125 7.03125 -0.671875 Z M 7.03125 -0.671875 "/></g></g></g><g fill="#ffec45" fill-opacity="1"><g transform="translate(324.363785, 239.998867)"><g><path d="M 2.59375 -0.703125 L 2.59375 -35.03125 C 2.59375 -35.5 2.828125 -35.734375 3.296875 -35.734375 L 11.875 -35.734375 C 12.34375 -35.734375 12.578125 -35.5 12.578125 -35.03125 L 12.578125 -0.703125 C 12.578125 -0.234375 12.34375 0 11.875 0 L 3.296875 0 C 2.828125 0 2.59375 -0.234375 2.59375 -0.703125 Z M 2.59375 -0.703125 "/></g></g></g><g fill="#000000" fill-opacity="0.5608"><g transform="translate(341.446526, 241.667194)"><g/></g></g></svg>