<svg xmlns="http://www.w3.org/2000/svg" xmlns:xlink="http://www.w3.org/1999/xlink" width="672" zoomAndPan="magnify" viewBox="0 0 504 359.999987" height="480" preserveAspectRatio="xMidYMid meet" version="1.0"><defs><g/></defs><g fill="#000000" fill-opacity="0.5608"><g transform="translate(5.127269, 174.184513)"><g><path d="M 2.40625 -0.90625 L 2.40625 -8.6875 C 2.40625 -9.289062 2.707031 -9.59375 3.3125 -9.59375 L 4.375 -9.59375 C 4.976562 -9.59375 5.28125 -9.898438 5.28125 -10.515625 L 5.28125 -11.5625 C 5.28125 -12.175781 5.582031 -12.484375 6.1875 -12.484375 L 7.25 -12.484375 C 7.851562 -12.484375 8.15625 -12.785156 8.15625 -13.390625 L 8.15625 -14.453125 C 8.15625 -15.054688 8.460938 -15.359375 9.078125 -15.359375 L 13.015625 -15.359375 C 13.617188 -15.359375 13.921875 -15.660156 13.921875 -16.265625 L 13.921875 -17.328125 C 13.921875 -17.929688 13.617188 -18.234375 13.015625 -18.234375 L 9.078125 -18.234375 C 8.460938 -18.234375 8.15625 -18.539062 8.15625 -19.15625 L 8.15625 -20.203125 C 8.15625 -20.816406 7.851562 -21.125 7.25 -21.125 L 6.1875 -21.125 C 5.582031 -21.125 5.28125 -21.425781 5.28125 -22.03125 L 5.28125 -23.09375 C 5.28125 -23.695312 4.976562 -24 4.375 -24 L 3.3125 -24 C 2.707031 -24 2.40625 -24.300781 2.40625 -24.90625 L 2.40625 -32.6875 C 2.40625 -33.289062 2.707031 -33.59375 3.3125 -33.59375 L 14.453125 -33.59375 C 15.054688 -33.59375 15.359375 -33.289062 15.359375 -32.6875 L 15.359375 -22.03125 C 15.359375 -21.425781 15.660156 -21.125 16.265625 -21.125 L 17.328125 -21.125 C 17.929688 -21.125 18.234375 -20.816406 18.234375 -20.203125 L 18.234375 -19.15625 C 18.234375 -18.539062 18.539062 -18.234375 19.15625 -18.234375 L 20.203125 -18.234375 C 20.816406 -18.234375 21.125 -18.539062 21.125 -19.15625 L 21.125 -20.203125 C 21.125 -20.816406 21.425781 -21.125 22.03125 -21.125 L 23.09375 -21.125 C 23.695312 -21.125 24 -21.425781 24 -22.03125 L 24 -32.6875 C 24 -33.289062 24.300781 -33.59375 24.90625 -33.59375 L 36.046875 -33.59375 C 36.648438 -33.59375 36.953125 -33.289062 36.953125 -32.6875 L 36.953125 -24.90625 C 36.953125 -24.300781 36.648438 -24 36.046875 -24 L 34.984375 -24 C 34.378906 -24 34.078125 -23.695312 34.078125 -23.09375 L 34.078125 -22.03125 C 34.078125 -21.425781 33.773438 -21.125 33.171875 -21.125 L 32.109375 -21.125 C 31.503906 -21.125 31.203125 -20.816406 31.203125 -20.203125 L 31.203125 -19.15625 C 31.203125 -18.539062 30.894531 -18.234375 30.28125 -18.234375 L 26.359375 -18.234375 C 25.742188 -18.234375 25.4375 -17.929688 25.4375 -17.328125 L 25.4375 -16.265625 C 25.4375 -15.660156 25.742188 -15.359375 26.359375 -15.359375 L 30.28125 -15.359375 C 30.894531 -15.359375 31.203125 -15.054688 31.203125 -14.453125 L 31.203125 -13.390625 C 31.203125 -12.785156 31.503906 -12.484375 32.109375 -12.484375 L 33.171875 -12.484375 C 33.773438 -12.484375 34.078125 -12.175781 34.078125 -11.5625 L 34.078125 -10.515625 C 34.078125 -9.898438 34.378906 -9.59375 34.984375 -9.59375 L 36.046875 -9.59375 C 36.648438 -9.59375 36.953125 -9.289062 36.953125 -8.6875 L 36.953125 -0.90625 C 36.953125 -0.300781 36.648438 0 36.046875 0 L 24.90625 0 C 24.300781 0 24 -0.300781 24 -0.90625 L 24 -11.5625 C 24 -12.175781 23.695312 -12.484375 23.09375 -12.484375 L 22.03125 -12.484375 C 21.425781 -12.484375 21.125 -12.785156 21.125 -13.390625 L 21.125 -14.453125 C 21.125 -15.054688 20.816406 -15.359375 20.203125 -15.359375 L 19.15625 -15.359375 C 18.539062 -15.359375 18.234375 -15.054688 18.234375 -14.453125 L 18.234375 -13.390625 C 18.234375 -12.785156 17.929688 -12.484375 17.328125 -12.484375 L 16.265625 -12.484375 C 15.660156 -12.484375 15.359375 -12.175781 15.359375 -11.5625 L 15.359375 -0.90625 C 15.359375 -0.300781 15.054688 0 14.453125 0 L 3.3125 0 C 2.707031 0 2.40625 -0.300781 2.40625 -0.90625 Z M 2.40625 -0.90625 "/></g></g></g><g fill="#000000" fill-opacity="0.5608"><g transform="translate(44.487194, 174.184513)"><g><path d="M 9.125 -0.90625 L 9.125 -1.96875 C 9.125 -2.570312 8.816406 -2.875 8.203125 -2.875 L 7.15625 -2.875 C 6.539062 -2.875 6.234375 -3.179688 6.234375 -3.796875 L 6.234375 -4.84375 C 6.234375 -5.457031 5.929688 -5.765625 5.328125 -5.765625 L 4.265625 -5.765625 C 3.660156 -5.765625 3.359375 -6.066406 3.359375 -6.671875 L 3.359375 -26.921875 C 3.359375 -27.535156 3.660156 -27.84375 4.265625 -27.84375 L 5.328125 -27.84375 C 5.929688 -27.84375 6.234375 -28.144531 6.234375 -28.75 L 6.234375 -29.8125 C 6.234375 -30.414062 6.539062 -30.71875 7.15625 -30.71875 L 8.203125 -30.71875 C 8.816406 -30.71875 9.125 -31.019531 9.125 -31.625 L 9.125 -32.6875 C 9.125 -33.289062 9.425781 -33.59375 10.03125 -33.59375 L 28.375 -33.59375 C 28.976562 -33.59375 29.28125 -33.289062 29.28125 -32.6875 L 29.28125 -31.625 C 29.28125 -31.019531 29.582031 -30.71875 30.1875 -30.71875 L 31.25 -30.71875 C 31.851562 -30.71875 32.15625 -30.414062 32.15625 -29.8125 L 32.15625 -28.75 C 32.15625 -28.144531 32.460938 -27.84375 33.078125 -27.84375 L 34.125 -27.84375 C 34.738281 -27.84375 35.046875 -27.535156 35.046875 -26.921875 L 35.046875 -6.671875 C 35.046875 -6.066406 34.738281 -5.765625 34.125 -5.765625 L 33.078125 -5.765625 C 32.460938 -5.765625 32.15625 -5.457031 32.15625 -4.84375 L 32.15625 -3.796875 C 32.15625 -3.179688 31.851562 -2.875 31.25 -2.875 L 30.1875 -2.875 C 29.582031 -2.875 29.28125 -2.570312 29.28125 -1.96875 L 29.28125 -0.90625 C 29.28125 -0.300781 28.976562 0 28.375 0 L 10.03125 0 C 9.425781 0 9.125 -0.300781 9.125 -0.90625 Z M 20.109375 -5.765625 L 21.171875 -5.765625 C 21.773438 -5.765625 22.078125 -6.066406 22.078125 -6.671875 L 22.078125 -29.8125 C 22.078125 -30.414062 21.773438 -30.71875 21.171875 -30.71875 L 20.109375 -30.71875 C 19.503906 -30.71875 19.203125 -30.414062 19.203125 -29.8125 L 19.203125 -28.75 C 19.203125 -28.144531 18.894531 -27.84375 18.28125 -27.84375 L 17.234375 -27.84375 C 16.617188 -27.84375 16.3125 -27.535156 16.3125 -26.921875 L 16.3125 -3.796875 C 16.3125 -3.179688 16.617188 -2.875 17.234375 -2.875 L 18.28125 -2.875 C 18.894531 -2.875 19.203125 -3.179688 19.203125 -3.796875 L 19.203125 -4.84375 C 19.203125 -5.457031 19.503906 -5.765625 20.109375 -5.765625 Z M 20.109375 -5.765625 "/></g></g></g><g fill="#000000" fill-opacity="0.5608"><g transform="translate(82.887132, 174.184513)"><g><path d="M 2.40625 -0.90625 L 2.40625 -8.6875 C 2.40625 -9.289062 2.707031 -9.59375 3.3125 -9.59375 L 4.375 -9.59375 C 4.976562 -9.59375 5.28125 -9.898438 5.28125 -10.515625 L 5.28125 -11.5625 C 5.28125 -12.175781 5.582031 -12.484375 6.1875 -12.484375 L 7.25 -12.484375 C 7.851562 -12.484375 8.15625 -12.785156 8.15625 -13.390625 L 8.15625 -14.453125 C 8.15625 -15.054688 8.460938 -15.359375 9.078125 -15.359375 L 13.015625 -15.359375 C 13.617188 -15.359375 13.921875 -15.660156 13.921875 -16.265625 L 13.921875 -17.328125 C 13.921875 -17.929688 13.617188 -18.234375 13.015625 -18.234375 L 9.078125 -18.234375 C 8.460938 -18.234375 8.15625 -18.539062 8.15625 -19.15625 L 8.15625 -20.203125 C 8.15625 -20.816406 7.851562 -21.125 7.25 -21.125 L 6.1875 -21.125 C 5.582031 -21.125 5.28125 -21.425781 5.28125 -22.03125 L 5.28125 -23.09375 C 5.28125 -23.695312 4.976562 -24 4.375 -24 L 3.3125 -24 C 2.707031 -24 2.40625 -24.300781 2.40625 -24.90625 L 2.40625 -32.6875 C 2.40625 -33.289062 2.707031 -33.59375 3.3125 -33.59375 L 14.453125 -33.59375 C 15.054688 -33.59375 15.359375 -33.289062 15.359375 -32.6875 L 15.359375 -22.03125 C 15.359375 -21.425781 15.660156 -21.125 16.265625 -21.125 L 17.328125 -21.125 C 17.929688 -21.125 18.234375 -20.816406 18.234375 -20.203125 L 18.234375 -19.15625 C 18.234375 -18.539062 18.539062 -18.234375 19.15625 -18.234375 L 20.203125 -18.234375 C 20.816406 -18.234375 21.125 -18.539062 21.125 -19.15625 L 21.125 -20.203125 C 21.125 -20.816406 21.425781 -21.125 22.03125 -21.125 L 23.09375 -21.125 C 23.695312 -21.125 24 -21.425781 24 -22.03125 L 24 -32.6875 C 24 -33.289062 24.300781 -33.59375 24.90625 -33.59375 L 36.046875 -33.59375 C 36.648438 -33.59375 36.953125 -33.289062 36.953125 -32.6875 L 36.953125 -24.90625 C 36.953125 -24.300781 36.648438 -24 36.046875 -24 L 34.984375 -24 C 34.378906 -24 34.078125 -23.695312 34.078125 -23.09375 L 34.078125 -22.03125 C 34.078125 -21.425781 33.773438 -21.125 33.171875 -21.125 L 32.109375 -21.125 C 31.503906 -21.125 31.203125 -20.816406 31.203125 -20.203125 L 31.203125 -19.15625 C 31.203125 -18.539062 30.894531 -18.234375 30.28125 -18.234375 L 26.359375 -18.234375 C 25.742188 -18.234375 25.4375 -17.929688 25.4375 -17.328125 L 25.4375 -16.265625 C 25.4375 -15.660156 25.742188 -15.359375 26.359375 -15.359375 L 30.28125 -15.359375 C 30.894531 -15.359375 31.203125 -15.054688 31.203125 -14.453125 L 31.203125 -13.390625 C 31.203125 -12.785156 31.503906 -12.484375 32.109375 -12.484375 L 33.171875 -12.484375 C 33.773438 -12.484375 34.078125 -12.175781 34.078125 -11.5625 L 34.078125 -10.515625 C 34.078125 -9.898438 34.378906 -9.59375 34.984375 -9.59375 L 36.046875 -9.59375 C 36.648438 -9.59375 36.953125 -9.289062 36.953125 -8.6875 L 36.953125 -0.90625 C 36.953125 -0.300781 36.648438 0 36.046875 0 L 24.90625 0 C 24.300781 0 24 -0.300781 24 -0.90625 L 24 -11.5625 C 24 -12.175781 23.695312 -12.484375 23.09375 -12.484375 L 22.03125 -12.484375 C 21.425781 -12.484375 21.125 -12.785156 21.125 -13.390625 L 21.125 -14.453125 C 21.125 -15.054688 20.816406 -15.359375 20.203125 -15.359375 L 19.15625 -15.359375 C 18.539062 -15.359375 18.234375 -15.054688 18.234375 -14.453125 L 18.234375 -13.390625 C 18.234375 -12.785156 17.929688 -12.484375 17.328125 -12.484375 L 16.265625 -12.484375 C 15.660156 -12.484375 15.359375 -12.175781 15.359375 -11.5625 L 15.359375 -0.90625 C 15.359375 -0.300781 15.054688 0 14.453125 0 L 3.3125 0 C 2.707031 0 2.40625 -0.300781 2.40625 -0.90625 Z M 2.40625 -0.90625 "/></g></g></g><g fill="#000000" fill-opacity="0.5608"><g transform="translate(122.247057, 174.184513)"><g><path d="M 9.125 -0.90625 L 9.125 -1.96875 C 9.125 -2.570312 8.816406 -2.875 8.203125 -2.875 L 7.15625 -2.875 C 6.539062 -2.875 6.234375 -3.179688 6.234375 -3.796875 L 6.234375 -4.84375 C 6.234375 -5.457031 5.929688 -5.765625 5.328125 -5.765625 L 4.265625 -5.765625 C 3.660156 -5.765625 3.359375 -6.066406 3.359375 -6.671875 L 3.359375 -26.921875 C 3.359375 -27.535156 3.660156 -27.84375 4.265625 -27.84375 L 5.328125 -27.84375 C 5.929688 -27.84375 6.234375 -28.144531 6.234375 -28.75 L 6.234375 -29.8125 C 6.234375 -30.414062 6.539062 -30.71875 7.15625 -30.71875 L 8.203125 -30.71875 C 8.816406 -30.71875 9.125 -31.019531 9.125 -31.625 L 9.125 -32.6875 C 9.125 -33.289062 9.425781 -33.59375 10.03125 -33.59375 L 28.375 -33.59375 C 28.976562 -33.59375 29.28125 -33.289062 29.28125 -32.6875 L 29.28125 -31.625 C 29.28125 -31.019531 29.582031 -30.71875 30.1875 -30.71875 L 31.25 -30.71875 C 31.851562 -30.71875 32.15625 -30.414062 32.15625 -29.8125 L 32.15625 -28.75 C 32.15625 -28.144531 32.460938 -27.84375 33.078125 -27.84375 L 34.125 -27.84375 C 34.738281 -27.84375 35.046875 -27.535156 35.046875 -26.921875 L 35.046875 -6.671875 C 35.046875 -6.066406 34.738281 -5.765625 34.125 -5.765625 L 33.078125 -5.765625 C 32.460938 -5.765625 32.15625 -5.457031 32.15625 -4.84375 L 32.15625 -3.796875 C 32.15625 -3.179688 31.851562 -2.875 31.25 -2.875 L 30.1875 -2.875 C 29.582031 -2.875 29.28125 -2.570312 29.28125 -1.96875 L 29.28125 -0.90625 C 29.28125 -0.300781 28.976562 0 28.375 0 L 10.03125 0 C 9.425781 0 9.125 -0.300781 9.125 -0.90625 Z M 20.109375 -5.765625 L 21.171875 -5.765625 C 21.773438 -5.765625 22.078125 -6.066406 22.078125 -6.671875 L 22.078125 -29.8125 C 22.078125 -30.414062 21.773438 -30.71875 21.171875 -30.71875 L 20.109375 -30.71875 C 19.503906 -30.71875 19.203125 -30.414062 19.203125 -29.8125 L 19.203125 -28.75 C 19.203125 -28.144531 18.894531 -27.84375 18.28125 -27.84375 L 17.234375 -27.84375 C 16.617188 -27.84375 16.3125 -27.535156 16.3125 -26.921875 L 16.3125 -3.796875 C 16.3125 -3.179688 16.617188 -2.875 17.234375 -2.875 L 18.28125 -2.875 C 18.894531 -2.875 19.203125 -3.179688 19.203125 -3.796875 L 19.203125 -4.84375 C 19.203125 -5.457031 19.503906 -5.765625 20.109375 -5.765625 Z M 20.109375 -5.765625 "/></g></g></g><g fill="#000000" fill-opacity="0.5608"><g transform="translate(160.646994, 174.184513)"><g/></g></g><g fill="#000000" fill-opacity="0.5608"><g transform="translate(172.646971, 174.184513)"><g><path d="M 17.234375 -2.875 L 18.28125 -2.875 C 18.894531 -2.875 19.203125 -3.179688 19.203125 -3.796875 L 19.203125 -4.84375 C 19.203125 -5.457031 19.503906 -5.765625 20.109375 -5.765625 L 21.171875 -5.765625 C 21.773438 -5.765625 22.078125 -6.066406 22.078125 -6.671875 L 22.078125 -29.71875 C 22.078125 -30.320312 21.773438 -30.625 21.171875 -30.625 L 20.109375 -30.625 C 19.503906 -30.625 19.203125 -30.320312 19.203125 -29.71875 L 19.203125 -28.65625 C 19.203125 -28.050781 18.894531 -27.75 18.28125 -27.75 L 17.234375 -27.75 C 16.617188 -27.75 16.3125 -27.441406 16.3125 -26.828125 L 16.3125 -3.796875 C 16.3125 -3.179688 16.617188 -2.875 17.234375 -2.875 Z M 6.234375 -0.90625 L 6.234375 -1.96875 C 6.234375 -2.570312 5.929688 -2.875 5.328125 -2.875 L 4.265625 -2.875 C 4.015625 -2.875 3.890625 -2.875 3.890625 -2.875 C 3.890625 -2.875 4.015625 -2.875 4.265625 -2.875 L 5.328125 -2.875 C 5.585938 -2.875 5.71875 -2.875 5.71875 -2.875 C 5.71875 -2.875 5.585938 -2.875 5.328125 -2.875 L 4.265625 -2.875 C 3.660156 -2.875 3.359375 -3.179688 3.359375 -3.796875 L 3.359375 -26.921875 C 3.359375 -27.535156 3.660156 -27.84375 4.265625 -27.84375 L 5.328125 -27.84375 C 5.929688 -27.84375 6.234375 -28.144531 6.234375 -28.75 L 6.234375 -29.8125 C 6.234375 -30.414062 6.539062 -30.71875 7.15625 -30.71875 L 8.203125 -30.71875 C 8.816406 -30.71875 9.125 -31.019531 9.125 -31.625 L 9.125 -32.6875 C 9.125 -33.289062 9.425781 -33.59375 10.03125 -33.59375 L 31.296875 -33.59375 C 31.898438 -33.59375 32.203125 -33.289062 32.203125 -32.6875 L 32.203125 -31.625 C 32.203125 -31.019531 32.507812 -30.71875 33.125 -30.71875 L 34.125 -30.71875 C 34.738281 -30.71875 35.046875 -30.414062 35.046875 -29.8125 L 35.046875 5.328125 C 35.046875 5.929688 34.738281 6.234375 34.125 6.234375 L 33.078125 6.234375 C 32.460938 6.234375 32.15625 6.539062 32.15625 7.15625 L 32.15625 8.203125 C 32.15625 8.816406 31.851562 9.125 31.25 9.125 L 30.1875 9.125 C 29.582031 9.125 29.28125 9.425781 29.28125 10.03125 L 29.28125 11.09375 C 29.28125 11.695312 28.976562 12 28.375 12 L 7.15625 12 C 6.539062 12 6.234375 11.695312 6.234375 11.09375 L 6.234375 10.03125 C 6.234375 9.425781 5.929688 9.125 5.328125 9.125 L 4.265625 9.125 C 4.015625 9.125 3.890625 9.125 3.890625 9.125 C 3.890625 9.125 4.015625 9.125 4.265625 9.125 L 5.328125 9.125 C 5.585938 9.125 5.71875 9.125 5.71875 9.125 C 5.71875 9.125 5.585938 9.125 5.328125 9.125 L 4.265625 9.125 C 3.660156 9.125 3.359375 8.816406 3.359375 8.203125 L 3.359375 4.265625 C 3.359375 3.660156 3.660156 3.359375 4.265625 3.359375 L 15.40625 3.359375 C 16.007812 3.359375 16.3125 3.660156 16.3125 4.265625 L 16.3125 5.046875 C 16.3125 5.648438 16.617188 5.953125 17.234375 5.953125 L 17.8125 5.953125 C 18.414062 5.953125 18.71875 6.253906 18.71875 6.859375 L 18.71875 8.203125 C 18.71875 8.816406 19.019531 9.125 19.625 9.125 L 22.609375 9.125 C 23.210938 9.125 23.515625 8.816406 23.515625 8.203125 L 23.515625 -1.96875 C 23.515625 -2.570312 23.210938 -2.875 22.609375 -2.875 L 21.546875 -2.875 C 20.941406 -2.875 20.640625 -2.570312 20.640625 -1.96875 L 20.640625 -0.90625 C 20.640625 -0.300781 20.335938 0 19.734375 0 L 7.15625 0 C 6.539062 0 6.234375 -0.300781 6.234375 -0.90625 Z M 6.234375 -0.90625 "/></g></g></g><g fill="#000000" fill-opacity="0.5608"><g transform="translate(211.046908, 174.184513)"><g><path d="M 9.125 -0.90625 L 9.125 -1.96875 C 9.125 -2.570312 8.816406 -2.875 8.203125 -2.875 L 7.15625 -2.875 C 6.539062 -2.875 6.234375 -3.179688 6.234375 -3.796875 L 6.234375 -4.84375 C 6.234375 -5.457031 5.929688 -5.765625 5.328125 -5.765625 L 4.265625 -5.765625 C 3.660156 -5.765625 3.359375 -6.066406 3.359375 -6.671875 L 3.359375 -26.921875 C 3.359375 -27.535156 3.660156 -27.84375 4.265625 -27.84375 L 5.328125 -27.84375 C 5.929688 -27.84375 6.234375 -28.144531 6.234375 -28.75 L 6.234375 -29.8125 C 6.234375 -30.414062 6.539062 -30.71875 7.15625 -30.71875 L 8.203125 -30.71875 C 8.816406 -30.71875 9.125 -31.019531 9.125 -31.625 L 9.125 -32.6875 C 9.125 -33.289062 9.425781 -33.59375 10.03125 -33.59375 L 28.375 -33.59375 C 28.976562 -33.59375 29.28125 -33.289062 29.28125 -32.6875 L 29.28125 -31.625 C 29.28125 -31.019531 29.582031 -30.71875 30.1875 -30.71875 L 31.25 -30.71875 C 31.851562 -30.71875 32.15625 -30.414062 32.15625 -29.8125 L 32.15625 -28.75 C 32.15625 -28.144531 32.460938 -27.84375 33.078125 -27.84375 L 34.125 -27.84375 C 34.738281 -27.84375 35.046875 -27.535156 35.046875 -26.921875 L 35.046875 -6.671875 C 35.046875 -6.066406 34.738281 -5.765625 34.125 -5.765625 L 33.078125 -5.765625 C 32.460938 -5.765625 32.15625 -5.457031 32.15625 -4.84375 L 32.15625 -3.796875 C 32.15625 -3.179688 31.851562 -2.875 31.25 -2.875 L 30.1875 -2.875 C 29.582031 -2.875 29.28125 -2.570312 29.28125 -1.96875 L 29.28125 -0.90625 C 29.28125 -0.300781 28.976562 0 28.375 0 L 10.03125 0 C 9.425781 0 9.125 -0.300781 9.125 -0.90625 Z M 20.109375 -5.765625 L 21.171875 -5.765625 C 21.773438 -5.765625 22.078125 -6.066406 22.078125 -6.671875 L 22.078125 -29.8125 C 22.078125 -30.414062 21.773438 -30.71875 21.171875 -30.71875 L 20.109375 -30.71875 C 19.503906 -30.71875 19.203125 -30.414062 19.203125 -29.8125 L 19.203125 -28.75 C 19.203125 -28.144531 18.894531 -27.84375 18.28125 -27.84375 L 17.234375 -27.84375 C 16.617188 -27.84375 16.3125 -27.535156 16.3125 -26.921875 L 16.3125 -3.796875 C 16.3125 -3.179688 16.617188 -2.875 17.234375 -2.875 L 18.28125 -2.875 C 18.894531 -2.875 19.203125 -3.179688 19.203125 -3.796875 L 19.203125 -4.84375 C 19.203125 -5.457031 19.503906 -5.765625 20.109375 -5.765625 Z M 20.109375 -5.765625 "/></g></g></g><g fill="#000000" fill-opacity="0.5608"><g transform="translate(249.446846, 174.184513)"><g><path d="M 5.765625 -0.90625 L 5.765625 -1.96875 C 5.765625 -2.570312 5.457031 -2.875 4.84375 -2.875 L 3.796875 -2.875 C 3.179688 -2.875 2.875 -3.179688 2.875 -3.796875 L 2.875 -12.046875 C 2.875 -12.648438 3.179688 -12.953125 3.796875 -12.953125 L 14.921875 -12.953125 C 15.535156 -12.953125 15.84375 -12.648438 15.84375 -12.046875 L 15.84375 -3.796875 C 15.84375 -3.179688 16.144531 -2.875 16.75 -2.875 L 17.8125 -2.875 C 18.414062 -2.875 18.71875 -3.179688 18.71875 -3.796875 L 18.71875 -4.84375 C 18.71875 -5.457031 19.019531 -5.765625 19.625 -5.765625 L 20.734375 -5.765625 C 21.335938 -5.765625 21.640625 -6.066406 21.640625 -6.671875 L 21.640625 -11.46875 C 21.640625 -12.082031 21.335938 -12.390625 20.734375 -12.390625 L 19.6875 -12.390625 C 19.070312 -12.390625 18.765625 -12.691406 18.765625 -13.296875 L 18.765625 -14.359375 C 18.765625 -14.960938 18.460938 -15.265625 17.859375 -15.265625 L 6.671875 -15.265625 C 6.066406 -15.265625 5.765625 -15.566406 5.765625 -16.171875 L 5.765625 -17.234375 C 5.765625 -17.835938 5.457031 -18.140625 4.84375 -18.140625 L 3.796875 -18.140625 C 3.179688 -18.140625 2.875 -18.445312 2.875 -19.0625 L 2.875 -29.8125 C 2.875 -30.414062 3.179688 -30.71875 3.796875 -30.71875 L 4.515625 -30.71875 C 5.117188 -30.71875 5.421875 -31.019531 5.421875 -31.625 L 5.421875 -32.6875 C 5.421875 -33.289062 5.726562 -33.59375 6.34375 -33.59375 L 30.28125 -33.59375 C 30.894531 -33.59375 31.203125 -33.289062 31.203125 -32.6875 L 31.203125 -31.625 C 31.203125 -31.019531 31.503906 -30.71875 32.109375 -30.71875 L 33.171875 -30.71875 C 33.773438 -30.71875 34.078125 -30.414062 34.078125 -29.8125 L 34.078125 -21.546875 C 34.078125 -20.941406 33.773438 -20.640625 33.171875 -20.640625 L 25.390625 -20.640625 C 24.785156 -20.640625 24.484375 -20.941406 24.484375 -21.546875 L 24.484375 -22.609375 C 24.484375 -23.210938 24.175781 -23.515625 23.5625 -23.515625 L 22.515625 -23.515625 C 21.898438 -23.515625 21.59375 -23.820312 21.59375 -24.4375 L 21.59375 -29.8125 C 21.59375 -30.414062 21.289062 -30.71875 20.6875 -30.71875 L 19.625 -30.71875 C 19.019531 -30.71875 18.71875 -30.414062 18.71875 -29.8125 L 18.71875 -28.75 C 18.71875 -28.144531 18.414062 -27.84375 17.8125 -27.84375 L 16.75 -27.84375 C 16.144531 -27.84375 15.84375 -27.535156 15.84375 -26.921875 L 15.84375 -21.9375 C 15.84375 -21.332031 16.144531 -21.03125 16.75 -21.03125 L 17.8125 -21.03125 C 18.414062 -21.03125 18.71875 -20.722656 18.71875 -20.109375 L 18.71875 -19.0625 C 18.71875 -18.445312 19.019531 -18.140625 19.625 -18.140625 L 30.34375 -18.140625 C 30.945312 -18.140625 31.25 -17.835938 31.25 -17.234375 L 31.25 -16.171875 C 31.25 -15.566406 31.550781 -15.265625 32.15625 -15.265625 L 33.21875 -15.265625 C 33.820312 -15.265625 34.125 -14.960938 34.125 -14.359375 L 34.125 -3.796875 C 34.125 -3.179688 33.820312 -2.875 33.21875 -2.875 L 32.15625 -2.875 C 31.550781 -2.875 31.25 -2.570312 31.25 -1.96875 L 31.25 -0.90625 C 31.25 -0.300781 30.945312 0 30.34375 0 L 6.671875 0 C 6.066406 0 5.765625 -0.300781 5.765625 -0.90625 Z M 5.765625 -0.90625 "/></g></g></g><g fill="#000000" fill-opacity="0.5608"><g transform="translate(286.886785, 174.184513)"><g><path d="M 5.765625 -0.90625 L 5.765625 -1.96875 C 5.765625 -2.570312 5.457031 -2.875 4.84375 -2.875 L 3.796875 -2.875 C 3.179688 -2.875 2.875 -3.179688 2.875 -3.796875 L 2.875 -12.046875 C 2.875 -12.648438 3.179688 -12.953125 3.796875 -12.953125 L 14.921875 -12.953125 C 15.535156 -12.953125 15.84375 -12.648438 15.84375 -12.046875 L 15.84375 -3.796875 C 15.84375 -3.179688 16.144531 -2.875 16.75 -2.875 L 17.8125 -2.875 C 18.414062 -2.875 18.71875 -3.179688 18.71875 -3.796875 L 18.71875 -4.84375 C 18.71875 -5.457031 19.019531 -5.765625 19.625 -5.765625 L 20.734375 -5.765625 C 21.335938 -5.765625 21.640625 -6.066406 21.640625 -6.671875 L 21.640625 -11.46875 C 21.640625 -12.082031 21.335938 -12.390625 20.734375 -12.390625 L 19.6875 -12.390625 C 19.070312 -12.390625 18.765625 -12.691406 18.765625 -13.296875 L 18.765625 -14.359375 C 18.765625 -14.960938 18.460938 -15.265625 17.859375 -15.265625 L 6.671875 -15.265625 C 6.066406 -15.265625 5.765625 -15.566406 5.765625 -16.171875 L 5.765625 -17.234375 C 5.765625 -17.835938 5.457031 -18.140625 4.84375 -18.140625 L 3.796875 -18.140625 C 3.179688 -18.140625 2.875 -18.445312 2.875 -19.0625 L 2.875 -29.8125 C 2.875 -30.414062 3.179688 -30.71875 3.796875 -30.71875 L 4.515625 -30.71875 C 5.117188 -30.71875 5.421875 -31.019531 5.421875 -31.625 L 5.421875 -32.6875 C 5.421875 -33.289062 5.726562 -33.59375 6.34375 -33.59375 L 30.28125 -33.59375 C 30.894531 -33.59375 31.203125 -33.289062 31.203125 -32.6875 L 31.203125 -31.625 C 31.203125 -31.019531 31.503906 -30.71875 32.109375 -30.71875 L 33.171875 -30.71875 C 33.773438 -30.71875 34.078125 -30.414062 34.078125 -29.8125 L 34.078125 -21.546875 C 34.078125 -20.941406 33.773438 -20.640625 33.171875 -20.640625 L 25.390625 -20.640625 C 24.785156 -20.640625 24.484375 -20.941406 24.484375 -21.546875 L 24.484375 -22.609375 C 24.484375 -23.210938 24.175781 -23.515625 23.5625 -23.515625 L 22.515625 -23.515625 C 21.898438 -23.515625 21.59375 -23.820312 21.59375 -24.4375 L 21.59375 -29.8125 C 21.59375 -30.414062 21.289062 -30.71875 20.6875 -30.71875 L 19.625 -30.71875 C 19.019531 -30.71875 18.71875 -30.414062 18.71875 -29.8125 L 18.71875 -28.75 C 18.71875 -28.144531 18.414062 -27.84375 17.8125 -27.84375 L 16.75 -27.84375 C 16.144531 -27.84375 15.84375 -27.535156 15.84375 -26.921875 L 15.84375 -21.9375 C 15.84375 -21.332031 16.144531 -21.03125 16.75 -21.03125 L 17.8125 -21.03125 C 18.414062 -21.03125 18.71875 -20.722656 18.71875 -20.109375 L 18.71875 -19.0625 C 18.71875 -18.445312 19.019531 -18.140625 19.625 -18.140625 L 30.34375 -18.140625 C 30.945312 -18.140625 31.25 -17.835938 31.25 -17.234375 L 31.25 -16.171875 C 31.25 -15.566406 31.550781 -15.265625 32.15625 -15.265625 L 33.21875 -15.265625 C 33.820312 -15.265625 34.125 -14.960938 34.125 -14.359375 L 34.125 -3.796875 C 34.125 -3.179688 33.820312 -2.875 33.21875 -2.875 L 32.15625 -2.875 C 31.550781 -2.875 31.25 -2.570312 31.25 -1.96875 L 31.25 -0.90625 C 31.25 -0.300781 30.945312 0 30.34375 0 L 6.671875 0 C 6.066406 0 5.765625 -0.300781 5.765625 -0.90625 Z M 5.765625 -0.90625 "/></g></g></g><g fill="#000000" fill-opacity="0.5608"><g transform="translate(324.326723, 174.184513)"><g><path d="M 3.359375 -0.90625 L 3.359375 -32.6875 C 3.359375 -33.289062 3.660156 -33.59375 4.265625 -33.59375 L 15.40625 -33.59375 C 16.007812 -33.59375 16.3125 -33.289062 16.3125 -32.6875 L 16.3125 -0.90625 C 16.3125 -0.300781 16.007812 0 15.40625 0 L 4.265625 0 C 3.660156 0 3.359375 -0.300781 3.359375 -0.90625 Z M 4.796875 -37.390625 L 4.796875 -37.484375 C 4.796875 -38.097656 4.460938 -38.40625 3.796875 -38.40625 C 3.179688 -38.40625 2.875 -38.707031 2.875 -39.3125 L 2.875 -43.734375 C 2.875 -44.335938 3.210938 -44.640625 3.890625 -44.640625 C 4.492188 -44.640625 4.796875 -44.972656 4.796875 -45.640625 C 4.796875 -46.253906 5.101562 -46.5625 5.71875 -46.5625 L 13.96875 -46.5625 C 14.570312 -46.5625 14.875 -46.222656 14.875 -45.546875 C 14.875 -44.941406 15.210938 -44.640625 15.890625 -44.640625 C 16.492188 -44.640625 16.796875 -44.335938 16.796875 -43.734375 L 16.796875 -39.3125 C 16.796875 -38.707031 16.460938 -38.40625 15.796875 -38.40625 C 15.179688 -38.40625 14.875 -38.066406 14.875 -37.390625 C 14.875 -36.785156 14.570312 -36.484375 13.96875 -36.484375 L 5.71875 -36.484375 C 5.101562 -36.484375 4.796875 -36.785156 4.796875 -37.390625 Z M 4.796875 -37.390625 "/></g></g></g><g fill="#000000" fill-opacity="0.5608"><g transform="translate(344.006692, 174.184513)"><g><path d="M 20.109375 -5.765625 L 21.171875 -5.765625 C 21.773438 -5.765625 22.078125 -6.066406 22.078125 -6.671875 L 22.078125 -29.8125 C 22.078125 -30.414062 21.773438 -30.71875 21.171875 -30.71875 L 20.109375 -30.71875 C 19.503906 -30.71875 19.203125 -30.414062 19.203125 -29.8125 L 19.203125 -28.75 C 19.203125 -28.144531 18.894531 -27.84375 18.28125 -27.84375 L 17.234375 -27.84375 C 16.617188 -27.84375 16.3125 -27.535156 16.3125 -26.921875 L 16.3125 -3.796875 C 16.3125 -3.179688 16.617188 -2.875 17.234375 -2.875 L 18.28125 -2.875 C 18.894531 -2.875 19.203125 -3.179688 19.203125 -3.796875 L 19.203125 -4.84375 C 19.203125 -5.457031 19.503906 -5.765625 20.109375 -5.765625 Z M 3.359375 11.09375 L 3.359375 -32.6875 C 3.359375 -33.289062 3.660156 -33.59375 4.265625 -33.59375 L 28.375 -33.59375 C 28.976562 -33.59375 29.28125 -33.289062 29.28125 -32.6875 L 29.28125 -31.625 C 29.28125 -31.019531 29.582031 -30.71875 30.1875 -30.71875 L 31.25 -30.71875 C 31.851562 -30.71875 32.15625 -30.414062 32.15625 -29.8125 L 32.15625 -28.75 C 32.15625 -28.144531 32.460938 -27.84375 33.078125 -27.84375 L 34.125 -27.84375 C 34.738281 -27.84375 35.046875 -27.535156 35.046875 -26.921875 L 35.046875 -6.671875 C 35.046875 -6.066406 34.738281 -5.765625 34.125 -5.765625 L 33.078125 -5.765625 C 32.460938 -5.765625 32.15625 -5.457031 32.15625 -4.84375 L 32.15625 -3.796875 C 32.15625 -3.179688 31.851562 -2.875 31.25 -2.875 L 30.1875 -2.875 C 29.582031 -2.875 29.28125 -2.570312 29.28125 -1.96875 L 29.28125 -0.90625 C 29.28125 -0.300781 28.976562 0 28.375 0 L 17.234375 0 C 16.617188 0 16.3125 0.300781 16.3125 0.90625 L 16.3125 11.09375 C 16.3125 11.695312 16.007812 12 15.40625 12 L 4.265625 12 C 3.660156 12 3.359375 11.695312 3.359375 11.09375 Z M 3.359375 11.09375 "/></g></g></g><g fill="#000000" fill-opacity="0.5608"><g transform="translate(382.406629, 174.184513)"><g/></g><g transform="translate(394.406628, 174.184513)"><g><path d="M 17.234375 -2.875 L 18.28125 -2.875 C 18.894531 -2.875 19.203125 -3.179688 19.203125 -3.796875 L 19.203125 -4.84375 C 19.203125 -5.457031 19.503906 -5.765625 20.109375 -5.765625 L 21.171875 -5.765625 C 21.773438 -5.765625 22.078125 -6.066406 22.078125 -6.671875 L 22.078125 -29.71875 C 22.078125 -30.320312 21.773438 -30.625 21.171875 -30.625 L 20.109375 -30.625 C 19.503906 -30.625 19.203125 -30.320312 19.203125 -29.71875 L 19.203125 -28.65625 C 19.203125 -28.050781 18.894531 -27.75 18.28125 -27.75 L 17.234375 -27.75 C 16.617188 -27.75 16.3125 -27.441406 16.3125 -26.828125 L 16.3125 -3.796875 C 16.3125 -3.179688 16.617188 -2.875 17.234375 -2.875 Z M 6.234375 -0.90625 L 6.234375 -1.96875 C 6.234375 -2.570312 5.929688 -2.875 5.328125 -2.875 L 4.265625 -2.875 C 4.015625 -2.875 3.890625 -2.875 3.890625 -2.875 C 3.890625 -2.875 4.015625 -2.875 4.265625 -2.875 L 5.328125 -2.875 C 5.585938 -2.875 5.71875 -2.875 5.71875 -2.875 C 5.71875 -2.875 5.585938 -2.875 5.328125 -2.875 L 4.265625 -2.875 C 3.660156 -2.875 3.359375 -3.179688 3.359375 -3.796875 L 3.359375 -26.921875 C 3.359375 -27.535156 3.660156 -27.84375 4.265625 -27.84375 L 5.328125 -27.84375 C 5.929688 -27.84375 6.234375 -28.144531 6.234375 -28.75 L 6.234375 -29.8125 C 6.234375 -30.414062 6.539062 -30.71875 7.15625 -30.71875 L 8.203125 -30.71875 C 8.816406 -30.71875 9.125 -31.019531 9.125 -31.625 L 9.125 -32.6875 C 9.125 -33.289062 9.425781 -33.59375 10.03125 -33.59375 L 31.296875 -33.59375 C 31.898438 -33.59375 32.203125 -33.289062 32.203125 -32.6875 L 32.203125 -31.625 C 32.203125 -31.019531 32.507812 -30.71875 33.125 -30.71875 L 34.125 -30.71875 C 34.738281 -30.71875 35.046875 -30.414062 35.046875 -29.8125 L 35.046875 5.328125 C 35.046875 5.929688 34.738281 6.234375 34.125 6.234375 L 33.078125 6.234375 C 32.460938 6.234375 32.15625 6.539062 32.15625 7.15625 L 32.15625 8.203125 C 32.15625 8.816406 31.851562 9.125 31.25 9.125 L 30.1875 9.125 C 29.582031 9.125 29.28125 9.425781 29.28125 10.03125 L 29.28125 11.09375 C 29.28125 11.695312 28.976562 12 28.375 12 L 7.15625 12 C 6.539062 12 6.234375 11.695312 6.234375 11.09375 L 6.234375 10.03125 C 6.234375 9.425781 5.929688 9.125 5.328125 9.125 L 4.265625 9.125 C 4.015625 9.125 3.890625 9.125 3.890625 9.125 C 3.890625 9.125 4.015625 9.125 4.265625 9.125 L 5.328125 9.125 C 5.585938 9.125 5.71875 9.125 5.71875 9.125 C 5.71875 9.125 5.585938 9.125 5.328125 9.125 L 4.265625 9.125 C 3.660156 9.125 3.359375 8.816406 3.359375 8.203125 L 3.359375 4.265625 C 3.359375 3.660156 3.660156 3.359375 4.265625 3.359375 L 15.40625 3.359375 C 16.007812 3.359375 16.3125 3.660156 16.3125 4.265625 L 16.3125 5.046875 C 16.3125 5.648438 16.617188 5.953125 17.234375 5.953125 L 17.8125 5.953125 C 18.414062 5.953125 18.71875 6.253906 18.71875 6.859375 L 18.71875 8.203125 C 18.71875 8.816406 19.019531 9.125 19.625 9.125 L 22.609375 9.125 C 23.210938 9.125 23.515625 8.816406 23.515625 8.203125 L 23.515625 -1.96875 C 23.515625 -2.570312 23.210938 -2.875 22.609375 -2.875 L 21.546875 -2.875 C 20.941406 -2.875 20.640625 -2.570312 20.640625 -1.96875 L 20.640625 -0.90625 C 20.640625 -0.300781 20.335938 0 19.734375 0 L 7.15625 0 C 6.539062 0 6.234375 -0.300781 6.234375 -0.90625 Z M 6.234375 -0.90625 "/></g></g></g><g fill="#000000" fill-opacity="0.5608"><g transform="translate(432.806589, 174.184513)"><g><path d="M 3.359375 -0.90625 L 3.359375 -32.6875 C 3.359375 -33.289062 3.660156 -33.59375 4.265625 -33.59375 L 15.40625 -33.59375 C 16.007812 -33.59375 16.3125 -33.289062 16.3125 -32.6875 L 16.3125 -0.90625 C 16.3125 -0.300781 16.007812 0 15.40625 0 L 4.265625 0 C 3.660156 0 3.359375 -0.300781 3.359375 -0.90625 Z M 4.796875 -37.390625 L 4.796875 -37.484375 C 4.796875 -38.097656 4.460938 -38.40625 3.796875 -38.40625 C 3.179688 -38.40625 2.875 -38.707031 2.875 -39.3125 L 2.875 -43.734375 C 2.875 -44.335938 3.210938 -44.640625 3.890625 -44.640625 C 4.492188 -44.640625 4.796875 -44.972656 4.796875 -45.640625 C 4.796875 -46.253906 5.101562 -46.5625 5.71875 -46.5625 L 13.96875 -46.5625 C 14.570312 -46.5625 14.875 -46.222656 14.875 -45.546875 C 14.875 -44.941406 15.210938 -44.640625 15.890625 -44.640625 C 16.492188 -44.640625 16.796875 -44.335938 16.796875 -43.734375 L 16.796875 -39.3125 C 16.796875 -38.707031 16.460938 -38.40625 15.796875 -38.40625 C 15.179688 -38.40625 14.875 -38.066406 14.875 -37.390625 C 14.875 -36.785156 14.570312 -36.484375 13.96875 -36.484375 L 5.71875 -36.484375 C 5.101562 -36.484375 4.796875 -36.785156 4.796875 -37.390625 Z M 4.796875 -37.390625 "/></g></g></g><g fill="#000000" fill-opacity="0.5608"><g transform="translate(452.48658, 174.184513)"><g><path d="M 3.359375 -0.90625 L 3.359375 -32.6875 C 3.359375 -33.289062 3.660156 -33.59375 4.265625 -33.59375 L 11.09375 -33.59375 C 11.695312 -33.59375 12 -33.289062 12 -32.6875 L 12 -28.75 C 12 -28.144531 12.300781 -27.84375 12.90625 -27.84375 L 13.96875 -27.84375 C 14.570312 -27.84375 14.875 -28.144531 14.875 -28.75 L 14.875 -29.8125 C 14.875 -30.414062 15.179688 -30.71875 15.796875 -30.71875 L 16.84375 -30.71875 C 17.457031 -30.71875 17.765625 -31.019531 17.765625 -31.625 L 17.765625 -32.6875 C 17.765625 -33.289062 18.066406 -33.59375 18.671875 -33.59375 L 26.921875 -33.59375 C 27.535156 -33.59375 27.84375 -33.289062 27.84375 -32.6875 L 27.84375 -31.625 C 27.84375 -31.019531 28.144531 -30.71875 28.75 -30.71875 L 29.8125 -30.71875 C 30.0625 -30.71875 30.1875 -30.71875 30.1875 -30.71875 C 30.1875 -30.71875 30.0625 -30.71875 29.8125 -30.71875 L 28.75 -30.71875 C 28.5 -30.71875 28.375 -30.71875 28.375 -30.71875 C 28.375 -30.71875 28.5 -30.71875 28.75 -30.71875 L 29.8125 -30.71875 C 30.414062 -30.71875 30.71875 -30.414062 30.71875 -29.8125 L 30.71875 -23.1875 C 30.71875 -22.570312 30.414062 -22.265625 29.8125 -22.265625 L 20.109375 -22.265625 C 19.503906 -22.265625 19.203125 -22.570312 19.203125 -23.1875 L 19.203125 -26.921875 C 19.203125 -27.535156 18.894531 -27.84375 18.28125 -27.84375 L 17.234375 -27.84375 C 16.617188 -27.84375 16.3125 -27.535156 16.3125 -26.921875 L 16.3125 -0.90625 C 16.3125 -0.300781 16.007812 0 15.40625 0 L 4.265625 0 C 3.660156 0 3.359375 -0.300781 3.359375 -0.90625 Z M 3.359375 -0.90625 "/></g></g></g><g fill="#000000" fill-opacity="0.5608"><g transform="translate(484.166524, 174.184513)"><g><path d="M 3.359375 -0.90625 L 3.359375 -45.453125 C 3.359375 -46.066406 3.660156 -46.375 4.265625 -46.375 L 15.40625 -46.375 C 16.007812 -46.375 16.3125 -46.066406 16.3125 -45.453125 L 16.3125 -0.90625 C 16.3125 -0.300781 16.007812 0 15.40625 0 L 4.265625 0 C 3.660156 0 3.359375 -0.300781 3.359375 -0.90625 Z M 3.359375 -0.90625 "/></g></g></g><g fill="#ffec45" fill-opacity="1"><g transform="translate(2.636728, 172.019518)"><g><path d="M 2.40625 -0.90625 L 2.40625 -8.6875 C 2.40625 -9.289062 2.707031 -9.59375 3.3125 -9.59375 L 4.375 -9.59375 C 4.976562 -9.59375 5.28125 -9.898438 5.28125 -10.515625 L 5.28125 -11.5625 C 5.28125 -12.175781 5.582031 -12.484375 6.1875 -12.484375 L 7.25 -12.484375 C 7.851562 -12.484375 8.15625 -12.785156 8.15625 -13.390625 L 8.15625 -14.453125 C 8.15625 -15.054688 8.460938 -15.359375 9.078125 -15.359375 L 13.015625 -15.359375 C 13.617188 -15.359375 13.921875 -15.660156 13.921875 -16.265625 L 13.921875 -17.328125 C 13.921875 -17.929688 13.617188 -18.234375 13.015625 -18.234375 L 9.078125 -18.234375 C 8.460938 -18.234375 8.15625 -18.539062 8.15625 -19.15625 L 8.15625 -20.203125 C 8.15625 -20.816406 7.851562 -21.125 7.25 -21.125 L 6.1875 -21.125 C 5.582031 -21.125 5.28125 -21.425781 5.28125 -22.03125 L 5.28125 -23.09375 C 5.28125 -23.695312 4.976562 -24 4.375 -24 L 3.3125 -24 C 2.707031 -24 2.40625 -24.300781 2.40625 -24.90625 L 2.40625 -32.6875 C 2.40625 -33.289062 2.707031 -33.59375 3.3125 -33.59375 L 14.453125 -33.59375 C 15.054688 -33.59375 15.359375 -33.289062 15.359375 -32.6875 L 15.359375 -22.03125 C 15.359375 -21.425781 15.660156 -21.125 16.265625 -21.125 L 17.328125 -21.125 C 17.929688 -21.125 18.234375 -20.816406 18.234375 -20.203125 L 18.234375 -19.15625 C 18.234375 -18.539062 18.539062 -18.234375 19.15625 -18.234375 L 20.203125 -18.234375 C 20.816406 -18.234375 21.125 -18.539062 21.125 -19.15625 L 21.125 -20.203125 C 21.125 -20.816406 21.425781 -21.125 22.03125 -21.125 L 23.09375 -21.125 C 23.695312 -21.125 24 -21.425781 24 -22.03125 L 24 -32.6875 C 24 -33.289062 24.300781 -33.59375 24.90625 -33.59375 L 36.046875 -33.59375 C 36.648438 -33.59375 36.953125 -33.289062 36.953125 -32.6875 L 36.953125 -24.90625 C 36.953125 -24.300781 36.648438 -24 36.046875 -24 L 34.984375 -24 C 34.378906 -24 34.078125 -23.695312 34.078125 -23.09375 L 34.078125 -22.03125 C 34.078125 -21.425781 33.773438 -21.125 33.171875 -21.125 L 32.109375 -21.125 C 31.503906 -21.125 31.203125 -20.816406 31.203125 -20.203125 L 31.203125 -19.15625 C 31.203125 -18.539062 30.894531 -18.234375 30.28125 -18.234375 L 26.359375 -18.234375 C 25.742188 -18.234375 25.4375 -17.929688 25.4375 -17.328125 L 25.4375 -16.265625 C 25.4375 -15.660156 25.742188 -15.359375 26.359375 -15.359375 L 30.28125 -15.359375 C 30.894531 -15.359375 31.203125 -15.054688 31.203125 -14.453125 L 31.203125 -13.390625 C 31.203125 -12.785156 31.503906 -12.484375 32.109375 -12.484375 L 33.171875 -12.484375 C 33.773438 -12.484375 34.078125 -12.175781 34.078125 -11.5625 L 34.078125 -10.515625 C 34.078125 -9.898438 34.378906 -9.59375 34.984375 -9.59375 L 36.046875 -9.59375 C 36.648438 -9.59375 36.953125 -9.289062 36.953125 -8.6875 L 36.953125 -0.90625 C 36.953125 -0.300781 36.648438 0 36.046875 0 L 24.90625 0 C 24.300781 0 24 -0.300781 24 -0.90625 L 24 -11.5625 C 24 -12.175781 23.695312 -12.484375 23.09375 -12.484375 L 22.03125 -12.484375 C 21.425781 -12.484375 21.125 -12.785156 21.125 -13.390625 L 21.125 -14.453125 C 21.125 -15.054688 20.816406 -15.359375 20.203125 -15.359375 L 19.15625 -15.359375 C 18.539062 -15.359375 18.234375 -15.054688 18.234375 -14.453125 L 18.234375 -13.390625 C 18.234375 -12.785156 17.929688 -12.484375 17.328125 -12.484375 L 16.265625 -12.484375 C 15.660156 -12.484375 15.359375 -12.175781 15.359375 -11.5625 L 15.359375 -0.90625 C 15.359375 -0.300781 15.054688 0 14.453125 0 L 3.3125 0 C 2.707031 0 2.40625 -0.300781 2.40625 -0.90625 Z M 2.40625 -0.90625 "/></g></g></g><g fill="#ffec45" fill-opacity="1"><g transform="translate(41.996653, 172.019518)"><g><path d="M 9.125 -0.90625 L 9.125 -1.96875 C 9.125 -2.570312 8.816406 -2.875 8.203125 -2.875 L 7.15625 -2.875 C 6.539062 -2.875 6.234375 -3.179688 6.234375 -3.796875 L 6.234375 -4.84375 C 6.234375 -5.457031 5.929688 -5.765625 5.328125 -5.765625 L 4.265625 -5.765625 C 3.660156 -5.765625 3.359375 -6.066406 3.359375 -6.671875 L 3.359375 -26.921875 C 3.359375 -27.535156 3.660156 -27.84375 4.265625 -27.84375 L 5.328125 -27.84375 C 5.929688 -27.84375 6.234375 -28.144531 6.234375 -28.75 L 6.234375 -29.8125 C 6.234375 -30.414062 6.539062 -30.71875 7.15625 -30.71875 L 8.203125 -30.71875 C 8.816406 -30.71875 9.125 -31.019531 9.125 -31.625 L 9.125 -32.6875 C 9.125 -33.289062 9.425781 -33.59375 10.03125 -33.59375 L 28.375 -33.59375 C 28.976562 -33.59375 29.28125 -33.289062 29.28125 -32.6875 L 29.28125 -31.625 C 29.28125 -31.019531 29.582031 -30.71875 30.1875 -30.71875 L 31.25 -30.71875 C 31.851562 -30.71875 32.15625 -30.414062 32.15625 -29.8125 L 32.15625 -28.75 C 32.15625 -28.144531 32.460938 -27.84375 33.078125 -27.84375 L 34.125 -27.84375 C 34.738281 -27.84375 35.046875 -27.535156 35.046875 -26.921875 L 35.046875 -6.671875 C 35.046875 -6.066406 34.738281 -5.765625 34.125 -5.765625 L 33.078125 -5.765625 C 32.460938 -5.765625 32.15625 -5.457031 32.15625 -4.84375 L 32.15625 -3.796875 C 32.15625 -3.179688 31.851562 -2.875 31.25 -2.875 L 30.1875 -2.875 C 29.582031 -2.875 29.28125 -2.570312 29.28125 -1.96875 L 29.28125 -0.90625 C 29.28125 -0.300781 28.976562 0 28.375 0 L 10.03125 0 C 9.425781 0 9.125 -0.300781 9.125 -0.90625 Z M 20.109375 -5.765625 L 21.171875 -5.765625 C 21.773438 -5.765625 22.078125 -6.066406 22.078125 -6.671875 L 22.078125 -29.8125 C 22.078125 -30.414062 21.773438 -30.71875 21.171875 -30.71875 L 20.109375 -30.71875 C 19.503906 -30.71875 19.203125 -30.414062 19.203125 -29.8125 L 19.203125 -28.75 C 19.203125 -28.144531 18.894531 -27.84375 18.28125 -27.84375 L 17.234375 -27.84375 C 16.617188 -27.84375 16.3125 -27.535156 16.3125 -26.921875 L 16.3125 -3.796875 C 16.3125 -3.179688 16.617188 -2.875 17.234375 -2.875 L 18.28125 -2.875 C 18.894531 -2.875 19.203125 -3.179688 19.203125 -3.796875 L 19.203125 -4.84375 C 19.203125 -5.457031 19.503906 -5.765625 20.109375 -5.765625 Z M 20.109375 -5.765625 "/></g></g></g><g fill="#ffec45" fill-opacity="1"><g transform="translate(80.396591, 172.019518)"><g><path d="M 2.40625 -0.90625 L 2.40625 -8.6875 C 2.40625 -9.289062 2.707031 -9.59375 3.3125 -9.59375 L 4.375 -9.59375 C 4.976562 -9.59375 5.28125 -9.898438 5.28125 -10.515625 L 5.28125 -11.5625 C 5.28125 -12.175781 5.582031 -12.484375 6.1875 -12.484375 L 7.25 -12.484375 C 7.851562 -12.484375 8.15625 -12.785156 8.15625 -13.390625 L 8.15625 -14.453125 C 8.15625 -15.054688 8.460938 -15.359375 9.078125 -15.359375 L 13.015625 -15.359375 C 13.617188 -15.359375 13.921875 -15.660156 13.921875 -16.265625 L 13.921875 -17.328125 C 13.921875 -17.929688 13.617188 -18.234375 13.015625 -18.234375 L 9.078125 -18.234375 C 8.460938 -18.234375 8.15625 -18.539062 8.15625 -19.15625 L 8.15625 -20.203125 C 8.15625 -20.816406 7.851562 -21.125 7.25 -21.125 L 6.1875 -21.125 C 5.582031 -21.125 5.28125 -21.425781 5.28125 -22.03125 L 5.28125 -23.09375 C 5.28125 -23.695312 4.976562 -24 4.375 -24 L 3.3125 -24 C 2.707031 -24 2.40625 -24.300781 2.40625 -24.90625 L 2.40625 -32.6875 C 2.40625 -33.289062 2.707031 -33.59375 3.3125 -33.59375 L 14.453125 -33.59375 C 15.054688 -33.59375 15.359375 -33.289062 15.359375 -32.6875 L 15.359375 -22.03125 C 15.359375 -21.425781 15.660156 -21.125 16.265625 -21.125 L 17.328125 -21.125 C 17.929688 -21.125 18.234375 -20.816406 18.234375 -20.203125 L 18.234375 -19.15625 C 18.234375 -18.539062 18.539062 -18.234375 19.15625 -18.234375 L 20.203125 -18.234375 C 20.816406 -18.234375 21.125 -18.539062 21.125 -19.15625 L 21.125 -20.203125 C 21.125 -20.816406 21.425781 -21.125 22.03125 -21.125 L 23.09375 -21.125 C 23.695312 -21.125 24 -21.425781 24 -22.03125 L 24 -32.6875 C 24 -33.289062 24.300781 -33.59375 24.90625 -33.59375 L 36.046875 -33.59375 C 36.648438 -33.59375 36.953125 -33.289062 36.953125 -32.6875 L 36.953125 -24.90625 C 36.953125 -24.300781 36.648438 -24 36.046875 -24 L 34.984375 -24 C 34.378906 -24 34.078125 -23.695312 34.078125 -23.09375 L 34.078125 -22.03125 C 34.078125 -21.425781 33.773438 -21.125 33.171875 -21.125 L 32.109375 -21.125 C 31.503906 -21.125 31.203125 -20.816406 31.203125 -20.203125 L 31.203125 -19.15625 C 31.203125 -18.539062 30.894531 -18.234375 30.28125 -18.234375 L 26.359375 -18.234375 C 25.742188 -18.234375 25.4375 -17.929688 25.4375 -17.328125 L 25.4375 -16.265625 C 25.4375 -15.660156 25.742188 -15.359375 26.359375 -15.359375 L 30.28125 -15.359375 C 30.894531 -15.359375 31.203125 -15.054688 31.203125 -14.453125 L 31.203125 -13.390625 C 31.203125 -12.785156 31.503906 -12.484375 32.109375 -12.484375 L 33.171875 -12.484375 C 33.773438 -12.484375 34.078125 -12.175781 34.078125 -11.5625 L 34.078125 -10.515625 C 34.078125 -9.898438 34.378906 -9.59375 34.984375 -9.59375 L 36.046875 -9.59375 C 36.648438 -9.59375 36.953125 -9.289062 36.953125 -8.6875 L 36.953125 -0.90625 C 36.953125 -0.300781 36.648438 0 36.046875 0 L 24.90625 0 C 24.300781 0 24 -0.300781 24 -0.90625 L 24 -11.5625 C 24 -12.175781 23.695312 -12.484375 23.09375 -12.484375 L 22.03125 -12.484375 C 21.425781 -12.484375 21.125 -12.785156 21.125 -13.390625 L 21.125 -14.453125 C 21.125 -15.054688 20.816406 -15.359375 20.203125 -15.359375 L 19.15625 -15.359375 C 18.539062 -15.359375 18.234375 -15.054688 18.234375 -14.453125 L 18.234375 -13.390625 C 18.234375 -12.785156 17.929688 -12.484375 17.328125 -12.484375 L 16.265625 -12.484375 C 15.660156 -12.484375 15.359375 -12.175781 15.359375 -11.5625 L 15.359375 -0.90625 C 15.359375 -0.300781 15.054688 0 14.453125 0 L 3.3125 0 C 2.707031 0 2.40625 -0.300781 2.40625 -0.90625 Z M 2.40625 -0.90625 "/></g></g></g><g fill="#ffec45" fill-opacity="1"><g transform="translate(119.756515, 172.019518)"><g><path d="M 9.125 -0.90625 L 9.125 -1.96875 C 9.125 -2.570312 8.816406 -2.875 8.203125 -2.875 L 7.15625 -2.875 C 6.539062 -2.875 6.234375 -3.179688 6.234375 -3.796875 L 6.234375 -4.84375 C 6.234375 -5.457031 5.929688 -5.765625 5.328125 -5.765625 L 4.265625 -5.765625 C 3.660156 -5.765625 3.359375 -6.066406 3.359375 -6.671875 L 3.359375 -26.921875 C 3.359375 -27.535156 3.660156 -27.84375 4.265625 -27.84375 L 5.328125 -27.84375 C 5.929688 -27.84375 6.234375 -28.144531 6.234375 -28.75 L 6.234375 -29.8125 C 6.234375 -30.414062 6.539062 -30.71875 7.15625 -30.71875 L 8.203125 -30.71875 C 8.816406 -30.71875 9.125 -31.019531 9.125 -31.625 L 9.125 -32.6875 C 9.125 -33.289062 9.425781 -33.59375 10.03125 -33.59375 L 28.375 -33.59375 C 28.976562 -33.59375 29.28125 -33.289062 29.28125 -32.6875 L 29.28125 -31.625 C 29.28125 -31.019531 29.582031 -30.71875 30.1875 -30.71875 L 31.25 -30.71875 C 31.851562 -30.71875 32.15625 -30.414062 32.15625 -29.8125 L 32.15625 -28.75 C 32.15625 -28.144531 32.460938 -27.84375 33.078125 -27.84375 L 34.125 -27.84375 C 34.738281 -27.84375 35.046875 -27.535156 35.046875 -26.921875 L 35.046875 -6.671875 C 35.046875 -6.066406 34.738281 -5.765625 34.125 -5.765625 L 33.078125 -5.765625 C 32.460938 -5.765625 32.15625 -5.457031 32.15625 -4.84375 L 32.15625 -3.796875 C 32.15625 -3.179688 31.851562 -2.875 31.25 -2.875 L 30.1875 -2.875 C 29.582031 -2.875 29.28125 -2.570312 29.28125 -1.96875 L 29.28125 -0.90625 C 29.28125 -0.300781 28.976562 0 28.375 0 L 10.03125 0 C 9.425781 0 9.125 -0.300781 9.125 -0.90625 Z M 20.109375 -5.765625 L 21.171875 -5.765625 C 21.773438 -5.765625 22.078125 -6.066406 22.078125 -6.671875 L 22.078125 -29.8125 C 22.078125 -30.414062 21.773438 -30.71875 21.171875 -30.71875 L 20.109375 -30.71875 C 19.503906 -30.71875 19.203125 -30.414062 19.203125 -29.8125 L 19.203125 -28.75 C 19.203125 -28.144531 18.894531 -27.84375 18.28125 -27.84375 L 17.234375 -27.84375 C 16.617188 -27.84375 16.3125 -27.535156 16.3125 -26.921875 L 16.3125 -3.796875 C 16.3125 -3.179688 16.617188 -2.875 17.234375 -2.875 L 18.28125 -2.875 C 18.894531 -2.875 19.203125 -3.179688 19.203125 -3.796875 L 19.203125 -4.84375 C 19.203125 -5.457031 19.503906 -5.765625 20.109375 -5.765625 Z M 20.109375 -5.765625 "/></g></g></g><g fill="#ffec45" fill-opacity="1"><g transform="translate(158.156453, 172.019518)"><g/></g></g><g fill="#ffec45" fill-opacity="1"><g transform="translate(170.156429, 172.019518)"><g><path d="M 17.234375 -2.875 L 18.28125 -2.875 C 18.894531 -2.875 19.203125 -3.179688 19.203125 -3.796875 L 19.203125 -4.84375 C 19.203125 -5.457031 19.503906 -5.765625 20.109375 -5.765625 L 21.171875 -5.765625 C 21.773438 -5.765625 22.078125 -6.066406 22.078125 -6.671875 L 22.078125 -29.71875 C 22.078125 -30.320312 21.773438 -30.625 21.171875 -30.625 L 20.109375 -30.625 C 19.503906 -30.625 19.203125 -30.320312 19.203125 -29.71875 L 19.203125 -28.65625 C 19.203125 -28.050781 18.894531 -27.75 18.28125 -27.75 L 17.234375 -27.75 C 16.617188 -27.75 16.3125 -27.441406 16.3125 -26.828125 L 16.3125 -3.796875 C 16.3125 -3.179688 16.617188 -2.875 17.234375 -2.875 Z M 6.234375 -0.90625 L 6.234375 -1.96875 C 6.234375 -2.570312 5.929688 -2.875 5.328125 -2.875 L 4.265625 -2.875 C 4.015625 -2.875 3.890625 -2.875 3.890625 -2.875 C 3.890625 -2.875 4.015625 -2.875 4.265625 -2.875 L 5.328125 -2.875 C 5.585938 -2.875 5.71875 -2.875 5.71875 -2.875 C 5.71875 -2.875 5.585938 -2.875 5.328125 -2.875 L 4.265625 -2.875 C 3.660156 -2.875 3.359375 -3.179688 3.359375 -3.796875 L 3.359375 -26.921875 C 3.359375 -27.535156 3.660156 -27.84375 4.265625 -27.84375 L 5.328125 -27.84375 C 5.929688 -27.84375 6.234375 -28.144531 6.234375 -28.75 L 6.234375 -29.8125 C 6.234375 -30.414062 6.539062 -30.71875 7.15625 -30.71875 L 8.203125 -30.71875 C 8.816406 -30.71875 9.125 -31.019531 9.125 -31.625 L 9.125 -32.6875 C 9.125 -33.289062 9.425781 -33.59375 10.03125 -33.59375 L 31.296875 -33.59375 C 31.898438 -33.59375 32.203125 -33.289062 32.203125 -32.6875 L 32.203125 -31.625 C 32.203125 -31.019531 32.507812 -30.71875 33.125 -30.71875 L 34.125 -30.71875 C 34.738281 -30.71875 35.046875 -30.414062 35.046875 -29.8125 L 35.046875 5.328125 C 35.046875 5.929688 34.738281 6.234375 34.125 6.234375 L 33.078125 6.234375 C 32.460938 6.234375 32.15625 6.539062 32.15625 7.15625 L 32.15625 8.203125 C 32.15625 8.816406 31.851562 9.125 31.25 9.125 L 30.1875 9.125 C 29.582031 9.125 29.28125 9.425781 29.28125 10.03125 L 29.28125 11.09375 C 29.28125 11.695312 28.976562 12 28.375 12 L 7.15625 12 C 6.539062 12 6.234375 11.695312 6.234375 11.09375 L 6.234375 10.03125 C 6.234375 9.425781 5.929688 9.125 5.328125 9.125 L 4.265625 9.125 C 4.015625 9.125 3.890625 9.125 3.890625 9.125 C 3.890625 9.125 4.015625 9.125 4.265625 9.125 L 5.328125 9.125 C 5.585938 9.125 5.71875 9.125 5.71875 9.125 C 5.71875 9.125 5.585938 9.125 5.328125 9.125 L 4.265625 9.125 C 3.660156 9.125 3.359375 8.816406 3.359375 8.203125 L 3.359375 4.265625 C 3.359375 3.660156 3.660156 3.359375 4.265625 3.359375 L 15.40625 3.359375 C 16.007812 3.359375 16.3125 3.660156 16.3125 4.265625 L 16.3125 5.046875 C 16.3125 5.648438 16.617188 5.953125 17.234375 5.953125 L 17.8125 5.953125 C 18.414062 5.953125 18.71875 6.253906 18.71875 6.859375 L 18.71875 8.203125 C 18.71875 8.816406 19.019531 9.125 19.625 9.125 L 22.609375 9.125 C 23.210938 9.125 23.515625 8.816406 23.515625 8.203125 L 23.515625 -1.96875 C 23.515625 -2.570312 23.210938 -2.875 22.609375 -2.875 L 21.546875 -2.875 C 20.941406 -2.875 20.640625 -2.570312 20.640625 -1.96875 L 20.640625 -0.90625 C 20.640625 -0.300781 20.335938 0 19.734375 0 L 7.15625 0 C 6.539062 0 6.234375 -0.300781 6.234375 -0.90625 Z M 6.234375 -0.90625 "/></g></g></g><g fill="#ffec45" fill-opacity="1"><g transform="translate(208.556367, 172.019518)"><g><path d="M 9.125 -0.90625 L 9.125 -1.96875 C 9.125 -2.570312 8.816406 -2.875 8.203125 -2.875 L 7.15625 -2.875 C 6.539062 -2.875 6.234375 -3.179688 6.234375 -3.796875 L 6.234375 -4.84375 C 6.234375 -5.457031 5.929688 -5.765625 5.328125 -5.765625 L 4.265625 -5.765625 C 3.660156 -5.765625 3.359375 -6.066406 3.359375 -6.671875 L 3.359375 -26.921875 C 3.359375 -27.535156 3.660156 -27.84375 4.265625 -27.84375 L 5.328125 -27.84375 C 5.929688 -27.84375 6.234375 -28.144531 6.234375 -28.75 L 6.234375 -29.8125 C 6.234375 -30.414062 6.539062 -30.71875 7.15625 -30.71875 L 8.203125 -30.71875 C 8.816406 -30.71875 9.125 -31.019531 9.125 -31.625 L 9.125 -32.6875 C 9.125 -33.289062 9.425781 -33.59375 10.03125 -33.59375 L 28.375 -33.59375 C 28.976562 -33.59375 29.28125 -33.289062 29.28125 -32.6875 L 29.28125 -31.625 C 29.28125 -31.019531 29.582031 -30.71875 30.1875 -30.71875 L 31.25 -30.71875 C 31.851562 -30.71875 32.15625 -30.414062 32.15625 -29.8125 L 32.15625 -28.75 C 32.15625 -28.144531 32.460938 -27.84375 33.078125 -27.84375 L 34.125 -27.84375 C 34.738281 -27.84375 35.046875 -27.535156 35.046875 -26.921875 L 35.046875 -6.671875 C 35.046875 -6.066406 34.738281 -5.765625 34.125 -5.765625 L 33.078125 -5.765625 C 32.460938 -5.765625 32.15625 -5.457031 32.15625 -4.84375 L 32.15625 -3.796875 C 32.15625 -3.179688 31.851562 -2.875 31.25 -2.875 L 30.1875 -2.875 C 29.582031 -2.875 29.28125 -2.570312 29.28125 -1.96875 L 29.28125 -0.90625 C 29.28125 -0.300781 28.976562 0 28.375 0 L 10.03125 0 C 9.425781 0 9.125 -0.300781 9.125 -0.90625 Z M 20.109375 -5.765625 L 21.171875 -5.765625 C 21.773438 -5.765625 22.078125 -6.066406 22.078125 -6.671875 L 22.078125 -29.8125 C 22.078125 -30.414062 21.773438 -30.71875 21.171875 -30.71875 L 20.109375 -30.71875 C 19.503906 -30.71875 19.203125 -30.414062 19.203125 -29.8125 L 19.203125 -28.75 C 19.203125 -28.144531 18.894531 -27.84375 18.28125 -27.84375 L 17.234375 -27.84375 C 16.617188 -27.84375 16.3125 -27.535156 16.3125 -26.921875 L 16.3125 -3.796875 C 16.3125 -3.179688 16.617188 -2.875 17.234375 -2.875 L 18.28125 -2.875 C 18.894531 -2.875 19.203125 -3.179688 19.203125 -3.796875 L 19.203125 -4.84375 C 19.203125 -5.457031 19.503906 -5.765625 20.109375 -5.765625 Z M 20.109375 -5.765625 "/></g></g></g><g fill="#ffec45" fill-opacity="1"><g transform="translate(246.956305, 172.019518)"><g><path d="M 5.765625 -0.90625 L 5.765625 -1.96875 C 5.765625 -2.570312 5.457031 -2.875 4.84375 -2.875 L 3.796875 -2.875 C 3.179688 -2.875 2.875 -3.179688 2.875 -3.796875 L 2.875 -12.046875 C 2.875 -12.648438 3.179688 -12.953125 3.796875 -12.953125 L 14.921875 -12.953125 C 15.535156 -12.953125 15.84375 -12.648438 15.84375 -12.046875 L 15.84375 -3.796875 C 15.84375 -3.179688 16.144531 -2.875 16.75 -2.875 L 17.8125 -2.875 C 18.414062 -2.875 18.71875 -3.179688 18.71875 -3.796875 L 18.71875 -4.84375 C 18.71875 -5.457031 19.019531 -5.765625 19.625 -5.765625 L 20.734375 -5.765625 C 21.335938 -5.765625 21.640625 -6.066406 21.640625 -6.671875 L 21.640625 -11.46875 C 21.640625 -12.082031 21.335938 -12.390625 20.734375 -12.390625 L 19.6875 -12.390625 C 19.070312 -12.390625 18.765625 -12.691406 18.765625 -13.296875 L 18.765625 -14.359375 C 18.765625 -14.960938 18.460938 -15.265625 17.859375 -15.265625 L 6.671875 -15.265625 C 6.066406 -15.265625 5.765625 -15.566406 5.765625 -16.171875 L 5.765625 -17.234375 C 5.765625 -17.835938 5.457031 -18.140625 4.84375 -18.140625 L 3.796875 -18.140625 C 3.179688 -18.140625 2.875 -18.445312 2.875 -19.0625 L 2.875 -29.8125 C 2.875 -30.414062 3.179688 -30.71875 3.796875 -30.71875 L 4.515625 -30.71875 C 5.117188 -30.71875 5.421875 -31.019531 5.421875 -31.625 L 5.421875 -32.6875 C 5.421875 -33.289062 5.726562 -33.59375 6.34375 -33.59375 L 30.28125 -33.59375 C 30.894531 -33.59375 31.203125 -33.289062 31.203125 -32.6875 L 31.203125 -31.625 C 31.203125 -31.019531 31.503906 -30.71875 32.109375 -30.71875 L 33.171875 -30.71875 C 33.773438 -30.71875 34.078125 -30.414062 34.078125 -29.8125 L 34.078125 -21.546875 C 34.078125 -20.941406 33.773438 -20.640625 33.171875 -20.640625 L 25.390625 -20.640625 C 24.785156 -20.640625 24.484375 -20.941406 24.484375 -21.546875 L 24.484375 -22.609375 C 24.484375 -23.210938 24.175781 -23.515625 23.5625 -23.515625 L 22.515625 -23.515625 C 21.898438 -23.515625 21.59375 -23.820312 21.59375 -24.4375 L 21.59375 -29.8125 C 21.59375 -30.414062 21.289062 -30.71875 20.6875 -30.71875 L 19.625 -30.71875 C 19.019531 -30.71875 18.71875 -30.414062 18.71875 -29.8125 L 18.71875 -28.75 C 18.71875 -28.144531 18.414062 -27.84375 17.8125 -27.84375 L 16.75 -27.84375 C 16.144531 -27.84375 15.84375 -27.535156 15.84375 -26.921875 L 15.84375 -21.9375 C 15.84375 -21.332031 16.144531 -21.03125 16.75 -21.03125 L 17.8125 -21.03125 C 18.414062 -21.03125 18.71875 -20.722656 18.71875 -20.109375 L 18.71875 -19.0625 C 18.71875 -18.445312 19.019531 -18.140625 19.625 -18.140625 L 30.34375 -18.140625 C 30.945312 -18.140625 31.25 -17.835938 31.25 -17.234375 L 31.25 -16.171875 C 31.25 -15.566406 31.550781 -15.265625 32.15625 -15.265625 L 33.21875 -15.265625 C 33.820312 -15.265625 34.125 -14.960938 34.125 -14.359375 L 34.125 -3.796875 C 34.125 -3.179688 33.820312 -2.875 33.21875 -2.875 L 32.15625 -2.875 C 31.550781 -2.875 31.25 -2.570312 31.25 -1.96875 L 31.25 -0.90625 C 31.25 -0.300781 30.945312 0 30.34375 0 L 6.671875 0 C 6.066406 0 5.765625 -0.300781 5.765625 -0.90625 Z M 5.765625 -0.90625 "/></g></g></g><g fill="#ffec45" fill-opacity="1"><g transform="translate(284.396243, 172.019518)"><g><path d="M 5.765625 -0.90625 L 5.765625 -1.96875 C 5.765625 -2.570312 5.457031 -2.875 4.84375 -2.875 L 3.796875 -2.875 C 3.179688 -2.875 2.875 -3.179688 2.875 -3.796875 L 2.875 -12.046875 C 2.875 -12.648438 3.179688 -12.953125 3.796875 -12.953125 L 14.921875 -12.953125 C 15.535156 -12.953125 15.84375 -12.648438 15.84375 -12.046875 L 15.84375 -3.796875 C 15.84375 -3.179688 16.144531 -2.875 16.75 -2.875 L 17.8125 -2.875 C 18.414062 -2.875 18.71875 -3.179688 18.71875 -3.796875 L 18.71875 -4.84375 C 18.71875 -5.457031 19.019531 -5.765625 19.625 -5.765625 L 20.734375 -5.765625 C 21.335938 -5.765625 21.640625 -6.066406 21.640625 -6.671875 L 21.640625 -11.46875 C 21.640625 -12.082031 21.335938 -12.390625 20.734375 -12.390625 L 19.6875 -12.390625 C 19.070312 -12.390625 18.765625 -12.691406 18.765625 -13.296875 L 18.765625 -14.359375 C 18.765625 -14.960938 18.460938 -15.265625 17.859375 -15.265625 L 6.671875 -15.265625 C 6.066406 -15.265625 5.765625 -15.566406 5.765625 -16.171875 L 5.765625 -17.234375 C 5.765625 -17.835938 5.457031 -18.140625 4.84375 -18.140625 L 3.796875 -18.140625 C 3.179688 -18.140625 2.875 -18.445312 2.875 -19.0625 L 2.875 -29.8125 C 2.875 -30.414062 3.179688 -30.71875 3.796875 -30.71875 L 4.515625 -30.71875 C 5.117188 -30.71875 5.421875 -31.019531 5.421875 -31.625 L 5.421875 -32.6875 C 5.421875 -33.289062 5.726562 -33.59375 6.34375 -33.59375 L 30.28125 -33.59375 C 30.894531 -33.59375 31.203125 -33.289062 31.203125 -32.6875 L 31.203125 -31.625 C 31.203125 -31.019531 31.503906 -30.71875 32.109375 -30.71875 L 33.171875 -30.71875 C 33.773438 -30.71875 34.078125 -30.414062 34.078125 -29.8125 L 34.078125 -21.546875 C 34.078125 -20.941406 33.773438 -20.640625 33.171875 -20.640625 L 25.390625 -20.640625 C 24.785156 -20.640625 24.484375 -20.941406 24.484375 -21.546875 L 24.484375 -22.609375 C 24.484375 -23.210938 24.175781 -23.515625 23.5625 -23.515625 L 22.515625 -23.515625 C 21.898438 -23.515625 21.59375 -23.820312 21.59375 -24.4375 L 21.59375 -29.8125 C 21.59375 -30.414062 21.289062 -30.71875 20.6875 -30.71875 L 19.625 -30.71875 C 19.019531 -30.71875 18.71875 -30.414062 18.71875 -29.8125 L 18.71875 -28.75 C 18.71875 -28.144531 18.414062 -27.84375 17.8125 -27.84375 L 16.75 -27.84375 C 16.144531 -27.84375 15.84375 -27.535156 15.84375 -26.921875 L 15.84375 -21.9375 C 15.84375 -21.332031 16.144531 -21.03125 16.75 -21.03125 L 17.8125 -21.03125 C 18.414062 -21.03125 18.71875 -20.722656 18.71875 -20.109375 L 18.71875 -19.0625 C 18.71875 -18.445312 19.019531 -18.140625 19.625 -18.140625 L 30.34375 -18.140625 C 30.945312 -18.140625 31.25 -17.835938 31.25 -17.234375 L 31.25 -16.171875 C 31.25 -15.566406 31.550781 -15.265625 32.15625 -15.265625 L 33.21875 -15.265625 C 33.820312 -15.265625 34.125 -14.960938 34.125 -14.359375 L 34.125 -3.796875 C 34.125 -3.179688 33.820312 -2.875 33.21875 -2.875 L 32.15625 -2.875 C 31.550781 -2.875 31.25 -2.570312 31.25 -1.96875 L 31.25 -0.90625 C 31.25 -0.300781 30.945312 0 30.34375 0 L 6.671875 0 C 6.066406 0 5.765625 -0.300781 5.765625 -0.90625 Z M 5.765625 -0.90625 "/></g></g></g><g fill="#ffec45" fill-opacity="1"><g transform="translate(321.836182, 172.019518)"><g><path d="M 3.359375 -0.90625 L 3.359375 -32.6875 C 3.359375 -33.289062 3.660156 -33.59375 4.265625 -33.59375 L 15.40625 -33.59375 C 16.007812 -33.59375 16.3125 -33.289062 16.3125 -32.6875 L 16.3125 -0.90625 C 16.3125 -0.300781 16.007812 0 15.40625 0 L 4.265625 0 C 3.660156 0 3.359375 -0.300781 3.359375 -0.90625 Z M 4.796875 -37.390625 L 4.796875 -37.484375 C 4.796875 -38.097656 4.460938 -38.40625 3.796875 -38.40625 C 3.179688 -38.40625 2.875 -38.707031 2.875 -39.3125 L 2.875 -43.734375 C 2.875 -44.335938 3.210938 -44.640625 3.890625 -44.640625 C 4.492188 -44.640625 4.796875 -44.972656 4.796875 -45.640625 C 4.796875 -46.253906 5.101562 -46.5625 5.71875 -46.5625 L 13.96875 -46.5625 C 14.570312 -46.5625 14.875 -46.222656 14.875 -45.546875 C 14.875 -44.941406 15.210938 -44.640625 15.890625 -44.640625 C 16.492188 -44.640625 16.796875 -44.335938 16.796875 -43.734375 L 16.796875 -39.3125 C 16.796875 -38.707031 16.460938 -38.40625 15.796875 -38.40625 C 15.179688 -38.40625 14.875 -38.066406 14.875 -37.390625 C 14.875 -36.785156 14.570312 -36.484375 13.96875 -36.484375 L 5.71875 -36.484375 C 5.101562 -36.484375 4.796875 -36.785156 4.796875 -37.390625 Z M 4.796875 -37.390625 "/></g></g></g><g fill="#ffec45" fill-opacity="1"><g transform="translate(341.51615, 172.019518)"><g><path d="M 20.109375 -5.765625 L 21.171875 -5.765625 C 21.773438 -5.765625 22.078125 -6.066406 22.078125 -6.671875 L 22.078125 -29.8125 C 22.078125 -30.414062 21.773438 -30.71875 21.171875 -30.71875 L 20.109375 -30.71875 C 19.503906 -30.71875 19.203125 -30.414062 19.203125 -29.8125 L 19.203125 -28.75 C 19.203125 -28.144531 18.894531 -27.84375 18.28125 -27.84375 L 17.234375 -27.84375 C 16.617188 -27.84375 16.3125 -27.535156 16.3125 -26.921875 L 16.3125 -3.796875 C 16.3125 -3.179688 16.617188 -2.875 17.234375 -2.875 L 18.28125 -2.875 C 18.894531 -2.875 19.203125 -3.179688 19.203125 -3.796875 L 19.203125 -4.84375 C 19.203125 -5.457031 19.503906 -5.765625 20.109375 -5.765625 Z M 3.359375 11.09375 L 3.359375 -32.6875 C 3.359375 -33.289062 3.660156 -33.59375 4.265625 -33.59375 L 28.375 -33.59375 C 28.976562 -33.59375 29.28125 -33.289062 29.28125 -32.6875 L 29.28125 -31.625 C 29.28125 -31.019531 29.582031 -30.71875 30.1875 -30.71875 L 31.25 -30.71875 C 31.851562 -30.71875 32.15625 -30.414062 32.15625 -29.8125 L 32.15625 -28.75 C 32.15625 -28.144531 32.460938 -27.84375 33.078125 -27.84375 L 34.125 -27.84375 C 34.738281 -27.84375 35.046875 -27.535156 35.046875 -26.921875 L 35.046875 -6.671875 C 35.046875 -6.066406 34.738281 -5.765625 34.125 -5.765625 L 33.078125 -5.765625 C 32.460938 -5.765625 32.15625 -5.457031 32.15625 -4.84375 L 32.15625 -3.796875 C 32.15625 -3.179688 31.851562 -2.875 31.25 -2.875 L 30.1875 -2.875 C 29.582031 -2.875 29.28125 -2.570312 29.28125 -1.96875 L 29.28125 -0.90625 C 29.28125 -0.300781 28.976562 0 28.375 0 L 17.234375 0 C 16.617188 0 16.3125 0.300781 16.3125 0.90625 L 16.3125 11.09375 C 16.3125 11.695312 16.007812 12 15.40625 12 L 4.265625 12 C 3.660156 12 3.359375 11.695312 3.359375 11.09375 Z M 3.359375 11.09375 "/></g></g></g><g fill="#ffec45" fill-opacity="1"><g transform="translate(379.916088, 172.019518)"><g/></g><g transform="translate(391.916087, 172.019518)"><g><path d="M 17.234375 -2.875 L 18.28125 -2.875 C 18.894531 -2.875 19.203125 -3.179688 19.203125 -3.796875 L 19.203125 -4.84375 C 19.203125 -5.457031 19.503906 -5.765625 20.109375 -5.765625 L 21.171875 -5.765625 C 21.773438 -5.765625 22.078125 -6.066406 22.078125 -6.671875 L 22.078125 -29.71875 C 22.078125 -30.320312 21.773438 -30.625 21.171875 -30.625 L 20.109375 -30.625 C 19.503906 -30.625 19.203125 -30.320312 19.203125 -29.71875 L 19.203125 -28.65625 C 19.203125 -28.050781 18.894531 -27.75 18.28125 -27.75 L 17.234375 -27.75 C 16.617188 -27.75 16.3125 -27.441406 16.3125 -26.828125 L 16.3125 -3.796875 C 16.3125 -3.179688 16.617188 -2.875 17.234375 -2.875 Z M 6.234375 -0.90625 L 6.234375 -1.96875 C 6.234375 -2.570312 5.929688 -2.875 5.328125 -2.875 L 4.265625 -2.875 C 4.015625 -2.875 3.890625 -2.875 3.890625 -2.875 C 3.890625 -2.875 4.015625 -2.875 4.265625 -2.875 L 5.328125 -2.875 C 5.585938 -2.875 5.71875 -2.875 5.71875 -2.875 C 5.71875 -2.875 5.585938 -2.875 5.328125 -2.875 L 4.265625 -2.875 C 3.660156 -2.875 3.359375 -3.179688 3.359375 -3.796875 L 3.359375 -26.921875 C 3.359375 -27.535156 3.660156 -27.84375 4.265625 -27.84375 L 5.328125 -27.84375 C 5.929688 -27.84375 6.234375 -28.144531 6.234375 -28.75 L 6.234375 -29.8125 C 6.234375 -30.414062 6.539062 -30.71875 7.15625 -30.71875 L 8.203125 -30.71875 C 8.816406 -30.71875 9.125 -31.019531 9.125 -31.625 L 9.125 -32.6875 C 9.125 -33.289062 9.425781 -33.59375 10.03125 -33.59375 L 31.296875 -33.59375 C 31.898438 -33.59375 32.203125 -33.289062 32.203125 -32.6875 L 32.203125 -31.625 C 32.203125 -31.019531 32.507812 -30.71875 33.125 -30.71875 L 34.125 -30.71875 C 34.738281 -30.71875 35.046875 -30.414062 35.046875 -29.8125 L 35.046875 5.328125 C 35.046875 5.929688 34.738281 6.234375 34.125 6.234375 L 33.078125 6.234375 C 32.460938 6.234375 32.15625 6.539062 32.15625 7.15625 L 32.15625 8.203125 C 32.15625 8.816406 31.851562 9.125 31.25 9.125 L 30.1875 9.125 C 29.582031 9.125 29.28125 9.425781 29.28125 10.03125 L 29.28125 11.09375 C 29.28125 11.695312 28.976562 12 28.375 12 L 7.15625 12 C 6.539062 12 6.234375 11.695312 6.234375 11.09375 L 6.234375 10.03125 C 6.234375 9.425781 5.929688 9.125 5.328125 9.125 L 4.265625 9.125 C 4.015625 9.125 3.890625 9.125 3.890625 9.125 C 3.890625 9.125 4.015625 9.125 4.265625 9.125 L 5.328125 9.125 C 5.585938 9.125 5.71875 9.125 5.71875 9.125 C 5.71875 9.125 5.585938 9.125 5.328125 9.125 L 4.265625 9.125 C 3.660156 9.125 3.359375 8.816406 3.359375 8.203125 L 3.359375 4.265625 C 3.359375 3.660156 3.660156 3.359375 4.265625 3.359375 L 15.40625 3.359375 C 16.007812 3.359375 16.3125 3.660156 16.3125 4.265625 L 16.3125 5.046875 C 16.3125 5.648438 16.617188 5.953125 17.234375 5.953125 L 17.8125 5.953125 C 18.414062 5.953125 18.71875 6.253906 18.71875 6.859375 L 18.71875 8.203125 C 18.71875 8.816406 19.019531 9.125 19.625 9.125 L 22.609375 9.125 C 23.210938 9.125 23.515625 8.816406 23.515625 8.203125 L 23.515625 -1.96875 C 23.515625 -2.570312 23.210938 -2.875 22.609375 -2.875 L 21.546875 -2.875 C 20.941406 -2.875 20.640625 -2.570312 20.640625 -1.96875 L 20.640625 -0.90625 C 20.640625 -0.300781 20.335938 0 19.734375 0 L 7.15625 0 C 6.539062 0 6.234375 -0.300781 6.234375 -0.90625 Z M 6.234375 -0.90625 "/></g></g></g><g fill="#ffec45" fill-opacity="1"><g transform="translate(430.316047, 172.019518)"><g><path d="M 3.359375 -0.90625 L 3.359375 -32.6875 C 3.359375 -33.289062 3.660156 -33.59375 4.265625 -33.59375 L 15.40625 -33.59375 C 16.007812 -33.59375 16.3125 -33.289062 16.3125 -32.6875 L 16.3125 -0.90625 C 16.3125 -0.300781 16.007812 0 15.40625 0 L 4.265625 0 C 3.660156 0 3.359375 -0.300781 3.359375 -0.90625 Z M 4.796875 -37.390625 L 4.796875 -37.484375 C 4.796875 -38.097656 4.460938 -38.40625 3.796875 -38.40625 C 3.179688 -38.40625 2.875 -38.707031 2.875 -39.3125 L 2.875 -43.734375 C 2.875 -44.335938 3.210938 -44.640625 3.890625 -44.640625 C 4.492188 -44.640625 4.796875 -44.972656 4.796875 -45.640625 C 4.796875 -46.253906 5.101562 -46.5625 5.71875 -46.5625 L 13.96875 -46.5625 C 14.570312 -46.5625 14.875 -46.222656 14.875 -45.546875 C 14.875 -44.941406 15.210938 -44.640625 15.890625 -44.640625 C 16.492188 -44.640625 16.796875 -44.335938 16.796875 -43.734375 L 16.796875 -39.3125 C 16.796875 -38.707031 16.460938 -38.40625 15.796875 -38.40625 C 15.179688 -38.40625 14.875 -38.066406 14.875 -37.390625 C 14.875 -36.785156 14.570312 -36.484375 13.96875 -36.484375 L 5.71875 -36.484375 C 5.101562 -36.484375 4.796875 -36.785156 4.796875 -37.390625 Z M 4.796875 -37.390625 "/></g></g></g><g fill="#ffec45" fill-opacity="1"><g transform="translate(449.996038, 172.019518)"><g><path d="M 3.359375 -0.90625 L 3.359375 -32.6875 C 3.359375 -33.289062 3.660156 -33.59375 4.265625 -33.59375 L 11.09375 -33.59375 C 11.695312 -33.59375 12 -33.289062 12 -32.6875 L 12 -28.75 C 12 -28.144531 12.300781 -27.84375 12.90625 -27.84375 L 13.96875 -27.84375 C 14.570312 -27.84375 14.875 -28.144531 14.875 -28.75 L 14.875 -29.8125 C 14.875 -30.414062 15.179688 -30.71875 15.796875 -30.71875 L 16.84375 -30.71875 C 17.457031 -30.71875 17.765625 -31.019531 17.765625 -31.625 L 17.765625 -32.6875 C 17.765625 -33.289062 18.066406 -33.59375 18.671875 -33.59375 L 26.921875 -33.59375 C 27.535156 -33.59375 27.84375 -33.289062 27.84375 -32.6875 L 27.84375 -31.625 C 27.84375 -31.019531 28.144531 -30.71875 28.75 -30.71875 L 29.8125 -30.71875 C 30.0625 -30.71875 30.1875 -30.71875 30.1875 -30.71875 C 30.1875 -30.71875 30.0625 -30.71875 29.8125 -30.71875 L 28.75 -30.71875 C 28.5 -30.71875 28.375 -30.71875 28.375 -30.71875 C 28.375 -30.71875 28.5 -30.71875 28.75 -30.71875 L 29.8125 -30.71875 C 30.414062 -30.71875 30.71875 -30.414062 30.71875 -29.8125 L 30.71875 -23.1875 C 30.71875 -22.570312 30.414062 -22.265625 29.8125 -22.265625 L 20.109375 -22.265625 C 19.503906 -22.265625 19.203125 -22.570312 19.203125 -23.1875 L 19.203125 -26.921875 C 19.203125 -27.535156 18.894531 -27.84375 18.28125 -27.84375 L 17.234375 -27.84375 C 16.617188 -27.84375 16.3125 -27.535156 16.3125 -26.921875 L 16.3125 -0.90625 C 16.3125 -0.300781 16.007812 0 15.40625 0 L 4.265625 0 C 3.660156 0 3.359375 -0.300781 3.359375 -0.90625 Z M 3.359375 -0.90625 "/></g></g></g><g fill="#ffec45" fill-opacity="1"><g transform="translate(481.675983, 172.019518)"><g><path d="M 3.359375 -0.90625 L 3.359375 -45.453125 C 3.359375 -46.066406 3.660156 -46.375 4.265625 -46.375 L 15.40625 -46.375 C 16.007812 -46.375 16.3125 -46.066406 16.3125 -45.453125 L 16.3125 -0.90625 C 16.3125 -0.300781 16.007812 0 15.40625 0 L 4.265625 0 C 3.660156 0 3.359375 -0.300781 3.359375 -0.90625 Z M 3.359375 -0.90625 "/></g></g></g></svg>