<svg xmlns="http://www.w3.org/2000/svg" xmlns:xlink="http://www.w3.org/1999/xlink" width="672" zoomAndPan="magnify" viewBox="0 0 504 359.999987" height="480" preserveAspectRatio="xMidYMid meet" version="1.0"><defs><g/></defs><g fill="#000000" fill-opacity="0.5608"><g transform="translate(36.963422, 210.677811)"><g><path d="M 28.71875 -4.796875 L 30.484375 -4.796875 C 31.492188 -4.796875 32 -5.300781 32 -6.3125 L 32 -8.078125 C 32 -9.085938 32.503906 -9.59375 33.515625 -9.59375 L 35.28125 -9.59375 C 36.289062 -9.59375 36.796875 -10.101562 36.796875 -11.125 L 36.796875 -49.515625 C 36.796875 -50.535156 36.289062 -51.046875 35.28125 -51.046875 L 33.515625 -51.046875 C 32.503906 -51.046875 32 -50.535156 32 -49.515625 L 32 -47.765625 C 32 -46.742188 31.492188 -46.234375 30.484375 -46.234375 L 28.71875 -46.234375 C 27.707031 -46.234375 27.203125 -45.726562 27.203125 -44.71875 L 27.203125 -6.3125 C 27.203125 -5.300781 27.707031 -4.796875 28.71875 -4.796875 Z M 10.40625 -1.515625 L 10.40625 -3.28125 C 10.40625 -4.289062 9.894531 -4.796875 8.875 -4.796875 L 7.125 -4.796875 C 6.695312 -4.796875 6.484375 -4.796875 6.484375 -4.796875 C 6.484375 -4.796875 6.695312 -4.796875 7.125 -4.796875 L 8.875 -4.796875 C 9.300781 -4.796875 9.515625 -4.796875 9.515625 -4.796875 C 9.515625 -4.796875 9.300781 -4.796875 8.875 -4.796875 L 7.125 -4.796875 C 6.101562 -4.796875 5.59375 -5.300781 5.59375 -6.3125 L 5.59375 -44.875 C 5.59375 -45.894531 6.101562 -46.40625 7.125 -46.40625 L 8.875 -46.40625 C 9.894531 -46.40625 10.40625 -46.910156 10.40625 -47.921875 L 10.40625 -49.6875 C 10.40625 -50.695312 10.910156 -51.203125 11.921875 -51.203125 L 13.6875 -51.203125 C 14.695312 -51.203125 15.203125 -51.707031 15.203125 -52.71875 L 15.203125 -54.484375 C 15.203125 -55.492188 15.707031 -56 16.71875 -56 L 52.15625 -56 C 53.175781 -56 53.6875 -55.492188 53.6875 -54.484375 L 53.6875 -52.71875 C 53.6875 -51.707031 54.191406 -51.203125 55.203125 -51.203125 L 56.875 -51.203125 C 57.894531 -51.203125 58.40625 -50.695312 58.40625 -49.6875 L 58.40625 8.875 C 58.40625 9.894531 57.894531 10.40625 56.875 10.40625 L 55.125 10.40625 C 54.101562 10.40625 53.59375 10.910156 53.59375 11.921875 L 53.59375 13.6875 C 53.59375 14.695312 53.085938 15.203125 52.078125 15.203125 L 50.3125 15.203125 C 49.300781 15.203125 48.796875 15.707031 48.796875 16.71875 L 48.796875 18.484375 C 48.796875 19.492188 48.289062 20 47.28125 20 L 11.921875 20 C 10.910156 20 10.40625 19.492188 10.40625 18.484375 L 10.40625 16.71875 C 10.40625 15.707031 9.894531 15.203125 8.875 15.203125 L 7.125 15.203125 C 6.695312 15.203125 6.484375 15.203125 6.484375 15.203125 C 6.484375 15.203125 6.695312 15.203125 7.125 15.203125 L 8.875 15.203125 C 9.300781 15.203125 9.515625 15.203125 9.515625 15.203125 C 9.515625 15.203125 9.300781 15.203125 8.875 15.203125 L 7.125 15.203125 C 6.101562 15.203125 5.59375 14.695312 5.59375 13.6875 L 5.59375 7.125 C 5.59375 6.101562 6.101562 5.59375 7.125 5.59375 L 25.6875 5.59375 C 26.695312 5.59375 27.203125 6.101562 27.203125 7.125 L 27.203125 8.40625 C 27.203125 9.414062 27.707031 9.921875 28.71875 9.921875 L 29.6875 9.921875 C 30.695312 9.921875 31.203125 10.425781 31.203125 11.4375 L 31.203125 13.6875 C 31.203125 14.695312 31.707031 15.203125 32.71875 15.203125 L 37.6875 15.203125 C 38.695312 15.203125 39.203125 14.695312 39.203125 13.6875 L 39.203125 -3.28125 C 39.203125 -4.289062 38.695312 -4.796875 37.6875 -4.796875 L 35.921875 -4.796875 C 34.910156 -4.796875 34.40625 -4.289062 34.40625 -3.28125 L 34.40625 -1.515625 C 34.40625 -0.503906 33.894531 0 32.875 0 L 11.921875 0 C 10.910156 0 10.40625 -0.503906 10.40625 -1.515625 Z M 10.40625 -1.515625 "/></g></g></g><g fill="#000000" fill-opacity="0.5608"><g transform="translate(100.95721, 210.677811)"><g><path d="M 5.59375 -1.515625 L 5.59375 -54.484375 C 5.59375 -55.492188 6.101562 -56 7.125 -56 L 25.6875 -56 C 26.695312 -56 27.203125 -55.492188 27.203125 -54.484375 L 27.203125 -1.515625 C 27.203125 -0.503906 26.695312 0 25.6875 0 L 7.125 0 C 6.101562 0 5.59375 -0.503906 5.59375 -1.515625 Z M 8 -62.3125 L 8 -62.484375 C 8 -63.492188 7.4375 -64 6.3125 -64 C 5.300781 -64 4.796875 -64.503906 4.796875 -65.515625 L 4.796875 -72.875 C 4.796875 -73.894531 5.359375 -74.40625 6.484375 -74.40625 C 7.492188 -74.40625 8 -74.960938 8 -76.078125 C 8 -77.085938 8.503906 -77.59375 9.515625 -77.59375 L 23.28125 -77.59375 C 24.289062 -77.59375 24.796875 -77.035156 24.796875 -75.921875 C 24.796875 -74.910156 25.359375 -74.40625 26.484375 -74.40625 C 27.492188 -74.40625 28 -73.894531 28 -72.875 L 28 -65.515625 C 28 -64.503906 27.4375 -64 26.3125 -64 C 25.300781 -64 24.796875 -63.4375 24.796875 -62.3125 C 24.796875 -61.300781 24.289062 -60.796875 23.28125 -60.796875 L 9.515625 -60.796875 C 8.503906 -60.796875 8 -61.300781 8 -62.3125 Z M 8 -62.3125 "/></g></g></g><g fill="#000000" fill-opacity="0.5608"><g transform="translate(133.754029, 210.677811)"><g><path d="M 5.59375 -1.515625 L 5.59375 -54.484375 C 5.59375 -55.492188 6.101562 -56 7.125 -56 L 18.484375 -56 C 19.492188 -56 20 -55.492188 20 -54.484375 L 20 -47.921875 C 20 -46.910156 20.503906 -46.40625 21.515625 -46.40625 L 23.28125 -46.40625 C 24.289062 -46.40625 24.796875 -46.910156 24.796875 -47.921875 L 24.796875 -49.6875 C 24.796875 -50.695312 25.300781 -51.203125 26.3125 -51.203125 L 28.078125 -51.203125 C 29.085938 -51.203125 29.59375 -51.707031 29.59375 -52.71875 L 29.59375 -54.484375 C 29.59375 -55.492188 30.101562 -56 31.125 -56 L 44.875 -56 C 45.894531 -56 46.40625 -55.492188 46.40625 -54.484375 L 46.40625 -52.71875 C 46.40625 -51.707031 46.910156 -51.203125 47.921875 -51.203125 L 49.6875 -51.203125 C 50.101562 -51.203125 50.3125 -51.203125 50.3125 -51.203125 C 50.3125 -51.203125 50.101562 -51.203125 49.6875 -51.203125 L 47.921875 -51.203125 C 47.492188 -51.203125 47.28125 -51.203125 47.28125 -51.203125 C 47.28125 -51.203125 47.492188 -51.203125 47.921875 -51.203125 L 49.6875 -51.203125 C 50.695312 -51.203125 51.203125 -50.695312 51.203125 -49.6875 L 51.203125 -38.640625 C 51.203125 -37.628906 50.695312 -37.125 49.6875 -37.125 L 33.515625 -37.125 C 32.503906 -37.125 32 -37.628906 32 -38.640625 L 32 -44.875 C 32 -45.894531 31.492188 -46.40625 30.484375 -46.40625 L 28.71875 -46.40625 C 27.707031 -46.40625 27.203125 -45.894531 27.203125 -44.875 L 27.203125 -1.515625 C 27.203125 -0.503906 26.695312 0 25.6875 0 L 7.125 0 C 6.101562 0 5.59375 -0.503906 5.59375 -1.515625 Z M 5.59375 -1.515625 "/></g></g></g><g fill="#000000" fill-opacity="0.5608"><g transform="translate(186.548905, 210.677811)"><g><path d="M 5.59375 -1.515625 L 5.59375 -75.765625 C 5.59375 -76.773438 6.101562 -77.28125 7.125 -77.28125 L 25.6875 -77.28125 C 26.695312 -77.28125 27.203125 -76.773438 27.203125 -75.765625 L 27.203125 -1.515625 C 27.203125 -0.503906 26.695312 0 25.6875 0 L 7.125 0 C 6.101562 0 5.59375 -0.503906 5.59375 -1.515625 Z M 5.59375 -1.515625 "/></g></g></g><g fill="#000000" fill-opacity="0.5608"><g transform="translate(219.345723, 210.677811)"><g><path d="M 10.40625 -1.515625 L 10.40625 -3.28125 C 10.40625 -4.289062 9.894531 -4.796875 8.875 -4.796875 L 7.125 -4.796875 C 6.695312 -4.796875 6.484375 -4.796875 6.484375 -4.796875 C 6.484375 -4.796875 6.695312 -4.796875 7.125 -4.796875 L 8.875 -4.796875 C 9.300781 -4.796875 9.515625 -4.796875 9.515625 -4.796875 C 9.515625 -4.796875 9.300781 -4.796875 8.875 -4.796875 L 7.125 -4.796875 C 6.101562 -4.796875 5.59375 -5.300781 5.59375 -6.3125 L 5.59375 -54.484375 C 5.59375 -55.492188 6.101562 -56 7.125 -56 L 25.6875 -56 C 26.695312 -56 27.203125 -55.492188 27.203125 -54.484375 L 27.203125 -6.3125 C 27.203125 -5.300781 27.707031 -4.796875 28.71875 -4.796875 L 30.484375 -4.796875 C 31.492188 -4.796875 32 -5.300781 32 -6.3125 L 32 -8.078125 C 32 -9.085938 32.503906 -9.59375 33.515625 -9.59375 L 35.28125 -9.59375 C 36.289062 -9.59375 36.796875 -10.101562 36.796875 -11.125 L 36.796875 -54.484375 C 36.796875 -55.492188 37.300781 -56 38.3125 -56 L 56.875 -56 C 57.894531 -56 58.40625 -55.492188 58.40625 -54.484375 L 58.40625 8.875 C 58.40625 9.894531 57.894531 10.40625 56.875 10.40625 L 55.125 10.40625 C 54.101562 10.40625 53.59375 10.910156 53.59375 11.921875 L 53.59375 13.6875 C 53.59375 14.695312 53.085938 15.203125 52.078125 15.203125 L 50.3125 15.203125 C 49.300781 15.203125 48.796875 15.707031 48.796875 16.71875 L 48.796875 18.484375 C 48.796875 19.492188 48.289062 20 47.28125 20 L 11.921875 20 C 10.910156 20 10.40625 19.492188 10.40625 18.484375 L 10.40625 16.71875 C 10.40625 15.707031 9.894531 15.203125 8.875 15.203125 L 7.125 15.203125 C 6.695312 15.203125 6.484375 15.203125 6.484375 15.203125 C 6.484375 15.203125 6.695312 15.203125 7.125 15.203125 L 8.875 15.203125 C 9.300781 15.203125 9.515625 15.203125 9.515625 15.203125 C 9.515625 15.203125 9.300781 15.203125 8.875 15.203125 L 7.125 15.203125 C 6.101562 15.203125 5.59375 14.695312 5.59375 13.6875 L 5.59375 7.125 C 5.59375 6.101562 6.101562 5.59375 7.125 5.59375 L 25.6875 5.59375 C 26.695312 5.59375 27.203125 6.101562 27.203125 7.125 L 27.203125 8.40625 C 27.203125 9.414062 27.707031 9.921875 28.71875 9.921875 L 29.6875 9.921875 C 30.695312 9.921875 31.203125 10.425781 31.203125 11.4375 L 31.203125 13.6875 C 31.203125 14.695312 31.707031 15.203125 32.71875 15.203125 L 37.6875 15.203125 C 38.695312 15.203125 39.203125 14.695312 39.203125 13.6875 L 39.203125 -3.28125 C 39.203125 -4.289062 38.695312 -4.796875 37.6875 -4.796875 L 35.921875 -4.796875 C 34.910156 -4.796875 34.40625 -4.289062 34.40625 -3.28125 L 34.40625 -1.515625 C 34.40625 -0.503906 33.894531 0 32.875 0 L 11.921875 0 C 10.910156 0 10.40625 -0.503906 10.40625 -1.515625 Z M 10.40625 -1.515625 "/></g></g></g><g fill="#000000" fill-opacity="0.5608"><g transform="translate(283.3395, 210.677811)"><g><path d="M 33.515625 -9.59375 L 35.28125 -9.59375 C 36.289062 -9.59375 36.796875 -10.101562 36.796875 -11.125 L 36.796875 -49.6875 C 36.796875 -50.695312 36.289062 -51.203125 35.28125 -51.203125 L 33.515625 -51.203125 C 32.503906 -51.203125 32 -50.695312 32 -49.6875 L 32 -47.921875 C 32 -46.910156 31.492188 -46.40625 30.484375 -46.40625 L 28.71875 -46.40625 C 27.707031 -46.40625 27.203125 -45.894531 27.203125 -44.875 L 27.203125 -6.3125 C 27.203125 -5.300781 27.707031 -4.796875 28.71875 -4.796875 L 30.484375 -4.796875 C 31.492188 -4.796875 32 -5.300781 32 -6.3125 L 32 -8.078125 C 32 -9.085938 32.503906 -9.59375 33.515625 -9.59375 Z M 5.59375 18.484375 L 5.59375 -54.484375 C 5.59375 -55.492188 6.101562 -56 7.125 -56 L 47.28125 -56 C 48.289062 -56 48.796875 -55.492188 48.796875 -54.484375 L 48.796875 -52.71875 C 48.796875 -51.707031 49.300781 -51.203125 50.3125 -51.203125 L 52.078125 -51.203125 C 53.085938 -51.203125 53.59375 -50.695312 53.59375 -49.6875 L 53.59375 -47.921875 C 53.59375 -46.910156 54.101562 -46.40625 55.125 -46.40625 L 56.875 -46.40625 C 57.894531 -46.40625 58.40625 -45.894531 58.40625 -44.875 L 58.40625 -11.125 C 58.40625 -10.101562 57.894531 -9.59375 56.875 -9.59375 L 55.125 -9.59375 C 54.101562 -9.59375 53.59375 -9.085938 53.59375 -8.078125 L 53.59375 -6.3125 C 53.59375 -5.300781 53.085938 -4.796875 52.078125 -4.796875 L 50.3125 -4.796875 C 49.300781 -4.796875 48.796875 -4.289062 48.796875 -3.28125 L 48.796875 -1.515625 C 48.796875 -0.503906 48.289062 0 47.28125 0 L 28.71875 0 C 27.707031 0 27.203125 0.503906 27.203125 1.515625 L 27.203125 18.484375 C 27.203125 19.492188 26.695312 20 25.6875 20 L 7.125 20 C 6.101562 20 5.59375 19.492188 5.59375 18.484375 Z M 5.59375 18.484375 "/></g></g></g><g fill="#000000" fill-opacity="0.5608"><g transform="translate(347.3333, 210.677811)"><g><path d="M 15.203125 -1.515625 L 15.203125 -3.28125 C 15.203125 -4.289062 14.695312 -4.796875 13.6875 -4.796875 L 11.921875 -4.796875 C 10.910156 -4.796875 10.40625 -5.300781 10.40625 -6.3125 L 10.40625 -8.078125 C 10.40625 -9.085938 9.894531 -9.59375 8.875 -9.59375 L 7.125 -9.59375 C 6.101562 -9.59375 5.59375 -10.101562 5.59375 -11.125 L 5.59375 -44.875 C 5.59375 -45.894531 6.101562 -46.40625 7.125 -46.40625 L 8.875 -46.40625 C 9.894531 -46.40625 10.40625 -46.910156 10.40625 -47.921875 L 10.40625 -49.6875 C 10.40625 -50.695312 10.910156 -51.203125 11.921875 -51.203125 L 13.6875 -51.203125 C 14.695312 -51.203125 15.203125 -51.707031 15.203125 -52.71875 L 15.203125 -54.484375 C 15.203125 -55.492188 15.707031 -56 16.71875 -56 L 47.28125 -56 C 48.289062 -56 48.796875 -55.492188 48.796875 -54.484375 L 48.796875 -52.71875 C 48.796875 -51.707031 49.300781 -51.203125 50.3125 -51.203125 L 52.078125 -51.203125 C 53.085938 -51.203125 53.59375 -50.695312 53.59375 -49.6875 L 53.59375 -47.921875 C 53.59375 -46.910156 54.101562 -46.40625 55.125 -46.40625 L 56.875 -46.40625 C 57.894531 -46.40625 58.40625 -45.894531 58.40625 -44.875 L 58.40625 -11.125 C 58.40625 -10.101562 57.894531 -9.59375 56.875 -9.59375 L 55.125 -9.59375 C 54.101562 -9.59375 53.59375 -9.085938 53.59375 -8.078125 L 53.59375 -6.3125 C 53.59375 -5.300781 53.085938 -4.796875 52.078125 -4.796875 L 50.3125 -4.796875 C 49.300781 -4.796875 48.796875 -4.289062 48.796875 -3.28125 L 48.796875 -1.515625 C 48.796875 -0.503906 48.289062 0 47.28125 0 L 16.71875 0 C 15.707031 0 15.203125 -0.503906 15.203125 -1.515625 Z M 33.515625 -9.59375 L 35.28125 -9.59375 C 36.289062 -9.59375 36.796875 -10.101562 36.796875 -11.125 L 36.796875 -49.6875 C 36.796875 -50.695312 36.289062 -51.203125 35.28125 -51.203125 L 33.515625 -51.203125 C 32.503906 -51.203125 32 -50.695312 32 -49.6875 L 32 -47.921875 C 32 -46.910156 31.492188 -46.40625 30.484375 -46.40625 L 28.71875 -46.40625 C 27.707031 -46.40625 27.203125 -45.894531 27.203125 -44.875 L 27.203125 -6.3125 C 27.203125 -5.300781 27.707031 -4.796875 28.71875 -4.796875 L 30.484375 -4.796875 C 31.492188 -4.796875 32 -5.300781 32 -6.3125 L 32 -8.078125 C 32 -9.085938 32.503906 -9.59375 33.515625 -9.59375 Z M 33.515625 -9.59375 "/></g></g></g><g fill="#000000" fill-opacity="0.5608"><g transform="translate(411.3271, 210.677811)"><g><path d="M 33.515625 -9.59375 L 35.28125 -9.59375 C 36.289062 -9.59375 36.796875 -10.101562 36.796875 -11.125 L 36.796875 -49.6875 C 36.796875 -50.695312 36.289062 -51.203125 35.28125 -51.203125 L 33.515625 -51.203125 C 32.503906 -51.203125 32 -50.695312 32 -49.6875 L 32 -47.921875 C 32 -46.910156 31.492188 -46.40625 30.484375 -46.40625 L 28.71875 -46.40625 C 27.707031 -46.40625 27.203125 -45.894531 27.203125 -44.875 L 27.203125 -6.3125 C 27.203125 -5.300781 27.707031 -4.796875 28.71875 -4.796875 L 30.484375 -4.796875 C 31.492188 -4.796875 32 -5.300781 32 -6.3125 L 32 -8.078125 C 32 -9.085938 32.503906 -9.59375 33.515625 -9.59375 Z M 5.59375 18.484375 L 5.59375 -54.484375 C 5.59375 -55.492188 6.101562 -56 7.125 -56 L 47.28125 -56 C 48.289062 -56 48.796875 -55.492188 48.796875 -54.484375 L 48.796875 -52.71875 C 48.796875 -51.707031 49.300781 -51.203125 50.3125 -51.203125 L 52.078125 -51.203125 C 53.085938 -51.203125 53.59375 -50.695312 53.59375 -49.6875 L 53.59375 -47.921875 C 53.59375 -46.910156 54.101562 -46.40625 55.125 -46.40625 L 56.875 -46.40625 C 57.894531 -46.40625 58.40625 -45.894531 58.40625 -44.875 L 58.40625 -11.125 C 58.40625 -10.101562 57.894531 -9.59375 56.875 -9.59375 L 55.125 -9.59375 C 54.101562 -9.59375 53.59375 -9.085938 53.59375 -8.078125 L 53.59375 -6.3125 C 53.59375 -5.300781 53.085938 -4.796875 52.078125 -4.796875 L 50.3125 -4.796875 C 49.300781 -4.796875 48.796875 -4.289062 48.796875 -3.28125 L 48.796875 -1.515625 C 48.796875 -0.503906 48.289062 0 47.28125 0 L 28.71875 0 C 27.707031 0 27.203125 0.503906 27.203125 1.515625 L 27.203125 18.484375 C 27.203125 19.492188 26.695312 20 25.6875 20 L 7.125 20 C 6.101562 20 5.59375 19.492188 5.59375 18.484375 Z M 5.59375 18.484375 "/></g></g></g><g fill="#ffec45" fill-opacity="1"><g transform="translate(32.812507, 207.069476)"><g><path d="M 28.71875 -4.796875 L 30.484375 -4.796875 C 31.492188 -4.796875 32 -5.300781 32 -6.3125 L 32 -8.078125 C 32 -9.085938 32.503906 -9.59375 33.515625 -9.59375 L 35.28125 -9.59375 C 36.289062 -9.59375 36.796875 -10.101562 36.796875 -11.125 L 36.796875 -49.515625 C 36.796875 -50.535156 36.289062 -51.046875 35.28125 -51.046875 L 33.515625 -51.046875 C 32.503906 -51.046875 32 -50.535156 32 -49.515625 L 32 -47.765625 C 32 -46.742188 31.492188 -46.234375 30.484375 -46.234375 L 28.71875 -46.234375 C 27.707031 -46.234375 27.203125 -45.726562 27.203125 -44.71875 L 27.203125 -6.3125 C 27.203125 -5.300781 27.707031 -4.796875 28.71875 -4.796875 Z M 10.40625 -1.515625 L 10.40625 -3.28125 C 10.40625 -4.289062 9.894531 -4.796875 8.875 -4.796875 L 7.125 -4.796875 C 6.695312 -4.796875 6.484375 -4.796875 6.484375 -4.796875 C 6.484375 -4.796875 6.695312 -4.796875 7.125 -4.796875 L 8.875 -4.796875 C 9.300781 -4.796875 9.515625 -4.796875 9.515625 -4.796875 C 9.515625 -4.796875 9.300781 -4.796875 8.875 -4.796875 L 7.125 -4.796875 C 6.101562 -4.796875 5.59375 -5.300781 5.59375 -6.3125 L 5.59375 -44.875 C 5.59375 -45.894531 6.101562 -46.40625 7.125 -46.40625 L 8.875 -46.40625 C 9.894531 -46.40625 10.40625 -46.910156 10.40625 -47.921875 L 10.40625 -49.6875 C 10.40625 -50.695312 10.910156 -51.203125 11.921875 -51.203125 L 13.6875 -51.203125 C 14.695312 -51.203125 15.203125 -51.707031 15.203125 -52.71875 L 15.203125 -54.484375 C 15.203125 -55.492188 15.707031 -56 16.71875 -56 L 52.15625 -56 C 53.175781 -56 53.6875 -55.492188 53.6875 -54.484375 L 53.6875 -52.71875 C 53.6875 -51.707031 54.191406 -51.203125 55.203125 -51.203125 L 56.875 -51.203125 C 57.894531 -51.203125 58.40625 -50.695312 58.40625 -49.6875 L 58.40625 8.875 C 58.40625 9.894531 57.894531 10.40625 56.875 10.40625 L 55.125 10.40625 C 54.101562 10.40625 53.59375 10.910156 53.59375 11.921875 L 53.59375 13.6875 C 53.59375 14.695312 53.085938 15.203125 52.078125 15.203125 L 50.3125 15.203125 C 49.300781 15.203125 48.796875 15.707031 48.796875 16.71875 L 48.796875 18.484375 C 48.796875 19.492188 48.289062 20 47.28125 20 L 11.921875 20 C 10.910156 20 10.40625 19.492188 10.40625 18.484375 L 10.40625 16.71875 C 10.40625 15.707031 9.894531 15.203125 8.875 15.203125 L 7.125 15.203125 C 6.695312 15.203125 6.484375 15.203125 6.484375 15.203125 C 6.484375 15.203125 6.695312 15.203125 7.125 15.203125 L 8.875 15.203125 C 9.300781 15.203125 9.515625 15.203125 9.515625 15.203125 C 9.515625 15.203125 9.300781 15.203125 8.875 15.203125 L 7.125 15.203125 C 6.101562 15.203125 5.59375 14.695312 5.59375 13.6875 L 5.59375 7.125 C 5.59375 6.101562 6.101562 5.59375 7.125 5.59375 L 25.6875 5.59375 C 26.695312 5.59375 27.203125 6.101562 27.203125 7.125 L 27.203125 8.40625 C 27.203125 9.414062 27.707031 9.921875 28.71875 9.921875 L 29.6875 9.921875 C 30.695312 9.921875 31.203125 10.425781 31.203125 11.4375 L 31.203125 13.6875 C 31.203125 14.695312 31.707031 15.203125 32.71875 15.203125 L 37.6875 15.203125 C 38.695312 15.203125 39.203125 14.695312 39.203125 13.6875 L 39.203125 -3.28125 C 39.203125 -4.289062 38.695312 -4.796875 37.6875 -4.796875 L 35.921875 -4.796875 C 34.910156 -4.796875 34.40625 -4.289062 34.40625 -3.28125 L 34.40625 -1.515625 C 34.40625 -0.503906 33.894531 0 32.875 0 L 11.921875 0 C 10.910156 0 10.40625 -0.503906 10.40625 -1.515625 Z M 10.40625 -1.515625 "/></g></g></g><g fill="#ffec45" fill-opacity="1"><g transform="translate(96.806295, 207.069476)"><g><path d="M 5.59375 -1.515625 L 5.59375 -54.484375 C 5.59375 -55.492188 6.101562 -56 7.125 -56 L 25.6875 -56 C 26.695312 -56 27.203125 -55.492188 27.203125 -54.484375 L 27.203125 -1.515625 C 27.203125 -0.503906 26.695312 0 25.6875 0 L 7.125 0 C 6.101562 0 5.59375 -0.503906 5.59375 -1.515625 Z M 8 -62.3125 L 8 -62.484375 C 8 -63.492188 7.4375 -64 6.3125 -64 C 5.300781 -64 4.796875 -64.503906 4.796875 -65.515625 L 4.796875 -72.875 C 4.796875 -73.894531 5.359375 -74.40625 6.484375 -74.40625 C 7.492188 -74.40625 8 -74.960938 8 -76.078125 C 8 -77.085938 8.503906 -77.59375 9.515625 -77.59375 L 23.28125 -77.59375 C 24.289062 -77.59375 24.796875 -77.035156 24.796875 -75.921875 C 24.796875 -74.910156 25.359375 -74.40625 26.484375 -74.40625 C 27.492188 -74.40625 28 -73.894531 28 -72.875 L 28 -65.515625 C 28 -64.503906 27.4375 -64 26.3125 -64 C 25.300781 -64 24.796875 -63.4375 24.796875 -62.3125 C 24.796875 -61.300781 24.289062 -60.796875 23.28125 -60.796875 L 9.515625 -60.796875 C 8.503906 -60.796875 8 -61.300781 8 -62.3125 Z M 8 -62.3125 "/></g></g></g><g fill="#ffec45" fill-opacity="1"><g transform="translate(129.603114, 207.069476)"><g><path d="M 5.59375 -1.515625 L 5.59375 -54.484375 C 5.59375 -55.492188 6.101562 -56 7.125 -56 L 18.484375 -56 C 19.492188 -56 20 -55.492188 20 -54.484375 L 20 -47.921875 C 20 -46.910156 20.503906 -46.40625 21.515625 -46.40625 L 23.28125 -46.40625 C 24.289062 -46.40625 24.796875 -46.910156 24.796875 -47.921875 L 24.796875 -49.6875 C 24.796875 -50.695312 25.300781 -51.203125 26.3125 -51.203125 L 28.078125 -51.203125 C 29.085938 -51.203125 29.59375 -51.707031 29.59375 -52.71875 L 29.59375 -54.484375 C 29.59375 -55.492188 30.101562 -56 31.125 -56 L 44.875 -56 C 45.894531 -56 46.40625 -55.492188 46.40625 -54.484375 L 46.40625 -52.71875 C 46.40625 -51.707031 46.910156 -51.203125 47.921875 -51.203125 L 49.6875 -51.203125 C 50.101562 -51.203125 50.3125 -51.203125 50.3125 -51.203125 C 50.3125 -51.203125 50.101562 -51.203125 49.6875 -51.203125 L 47.921875 -51.203125 C 47.492188 -51.203125 47.28125 -51.203125 47.28125 -51.203125 C 47.28125 -51.203125 47.492188 -51.203125 47.921875 -51.203125 L 49.6875 -51.203125 C 50.695312 -51.203125 51.203125 -50.695312 51.203125 -49.6875 L 51.203125 -38.640625 C 51.203125 -37.628906 50.695312 -37.125 49.6875 -37.125 L 33.515625 -37.125 C 32.503906 -37.125 32 -37.628906 32 -38.640625 L 32 -44.875 C 32 -45.894531 31.492188 -46.40625 30.484375 -46.40625 L 28.71875 -46.40625 C 27.707031 -46.40625 27.203125 -45.894531 27.203125 -44.875 L 27.203125 -1.515625 C 27.203125 -0.503906 26.695312 0 25.6875 0 L 7.125 0 C 6.101562 0 5.59375 -0.503906 5.59375 -1.515625 Z M 5.59375 -1.515625 "/></g></g></g><g fill="#ffec45" fill-opacity="1"><g transform="translate(182.397989, 207.069476)"><g><path d="M 5.59375 -1.515625 L 5.59375 -75.765625 C 5.59375 -76.773438 6.101562 -77.28125 7.125 -77.28125 L 25.6875 -77.28125 C 26.695312 -77.28125 27.203125 -76.773438 27.203125 -75.765625 L 27.203125 -1.515625 C 27.203125 -0.503906 26.695312 0 25.6875 0 L 7.125 0 C 6.101562 0 5.59375 -0.503906 5.59375 -1.515625 Z M 5.59375 -1.515625 "/></g></g></g><g fill="#ffec45" fill-opacity="1"><g transform="translate(215.194808, 207.069476)"><g><path d="M 10.40625 -1.515625 L 10.40625 -3.28125 C 10.40625 -4.289062 9.894531 -4.796875 8.875 -4.796875 L 7.125 -4.796875 C 6.695312 -4.796875 6.484375 -4.796875 6.484375 -4.796875 C 6.484375 -4.796875 6.695312 -4.796875 7.125 -4.796875 L 8.875 -4.796875 C 9.300781 -4.796875 9.515625 -4.796875 9.515625 -4.796875 C 9.515625 -4.796875 9.300781 -4.796875 8.875 -4.796875 L 7.125 -4.796875 C 6.101562 -4.796875 5.59375 -5.300781 5.59375 -6.3125 L 5.59375 -54.484375 C 5.59375 -55.492188 6.101562 -56 7.125 -56 L 25.6875 -56 C 26.695312 -56 27.203125 -55.492188 27.203125 -54.484375 L 27.203125 -6.3125 C 27.203125 -5.300781 27.707031 -4.796875 28.71875 -4.796875 L 30.484375 -4.796875 C 31.492188 -4.796875 32 -5.300781 32 -6.3125 L 32 -8.078125 C 32 -9.085938 32.503906 -9.59375 33.515625 -9.59375 L 35.28125 -9.59375 C 36.289062 -9.59375 36.796875 -10.101562 36.796875 -11.125 L 36.796875 -54.484375 C 36.796875 -55.492188 37.300781 -56 38.3125 -56 L 56.875 -56 C 57.894531 -56 58.40625 -55.492188 58.40625 -54.484375 L 58.40625 8.875 C 58.40625 9.894531 57.894531 10.40625 56.875 10.40625 L 55.125 10.40625 C 54.101562 10.40625 53.59375 10.910156 53.59375 11.921875 L 53.59375 13.6875 C 53.59375 14.695312 53.085938 15.203125 52.078125 15.203125 L 50.3125 15.203125 C 49.300781 15.203125 48.796875 15.707031 48.796875 16.71875 L 48.796875 18.484375 C 48.796875 19.492188 48.289062 20 47.28125 20 L 11.921875 20 C 10.910156 20 10.40625 19.492188 10.40625 18.484375 L 10.40625 16.71875 C 10.40625 15.707031 9.894531 15.203125 8.875 15.203125 L 7.125 15.203125 C 6.695312 15.203125 6.484375 15.203125 6.484375 15.203125 C 6.484375 15.203125 6.695312 15.203125 7.125 15.203125 L 8.875 15.203125 C 9.300781 15.203125 9.515625 15.203125 9.515625 15.203125 C 9.515625 15.203125 9.300781 15.203125 8.875 15.203125 L 7.125 15.203125 C 6.101562 15.203125 5.59375 14.695312 5.59375 13.6875 L 5.59375 7.125 C 5.59375 6.101562 6.101562 5.59375 7.125 5.59375 L 25.6875 5.59375 C 26.695312 5.59375 27.203125 6.101562 27.203125 7.125 L 27.203125 8.40625 C 27.203125 9.414062 27.707031 9.921875 28.71875 9.921875 L 29.6875 9.921875 C 30.695312 9.921875 31.203125 10.425781 31.203125 11.4375 L 31.203125 13.6875 C 31.203125 14.695312 31.707031 15.203125 32.71875 15.203125 L 37.6875 15.203125 C 38.695312 15.203125 39.203125 14.695312 39.203125 13.6875 L 39.203125 -3.28125 C 39.203125 -4.289062 38.695312 -4.796875 37.6875 -4.796875 L 35.921875 -4.796875 C 34.910156 -4.796875 34.40625 -4.289062 34.40625 -3.28125 L 34.40625 -1.515625 C 34.40625 -0.503906 33.894531 0 32.875 0 L 11.921875 0 C 10.910156 0 10.40625 -0.503906 10.40625 -1.515625 Z M 10.40625 -1.515625 "/></g></g></g><g fill="#ffec45" fill-opacity="1"><g transform="translate(279.188585, 207.069476)"><g><path d="M 33.515625 -9.59375 L 35.28125 -9.59375 C 36.289062 -9.59375 36.796875 -10.101562 36.796875 -11.125 L 36.796875 -49.6875 C 36.796875 -50.695312 36.289062 -51.203125 35.28125 -51.203125 L 33.515625 -51.203125 C 32.503906 -51.203125 32 -50.695312 32 -49.6875 L 32 -47.921875 C 32 -46.910156 31.492188 -46.40625 30.484375 -46.40625 L 28.71875 -46.40625 C 27.707031 -46.40625 27.203125 -45.894531 27.203125 -44.875 L 27.203125 -6.3125 C 27.203125 -5.300781 27.707031 -4.796875 28.71875 -4.796875 L 30.484375 -4.796875 C 31.492188 -4.796875 32 -5.300781 32 -6.3125 L 32 -8.078125 C 32 -9.085938 32.503906 -9.59375 33.515625 -9.59375 Z M 5.59375 18.484375 L 5.59375 -54.484375 C 5.59375 -55.492188 6.101562 -56 7.125 -56 L 47.28125 -56 C 48.289062 -56 48.796875 -55.492188 48.796875 -54.484375 L 48.796875 -52.71875 C 48.796875 -51.707031 49.300781 -51.203125 50.3125 -51.203125 L 52.078125 -51.203125 C 53.085938 -51.203125 53.59375 -50.695312 53.59375 -49.6875 L 53.59375 -47.921875 C 53.59375 -46.910156 54.101562 -46.40625 55.125 -46.40625 L 56.875 -46.40625 C 57.894531 -46.40625 58.40625 -45.894531 58.40625 -44.875 L 58.40625 -11.125 C 58.40625 -10.101562 57.894531 -9.59375 56.875 -9.59375 L 55.125 -9.59375 C 54.101562 -9.59375 53.59375 -9.085938 53.59375 -8.078125 L 53.59375 -6.3125 C 53.59375 -5.300781 53.085938 -4.796875 52.078125 -4.796875 L 50.3125 -4.796875 C 49.300781 -4.796875 48.796875 -4.289062 48.796875 -3.28125 L 48.796875 -1.515625 C 48.796875 -0.503906 48.289062 0 47.28125 0 L 28.71875 0 C 27.707031 0 27.203125 0.503906 27.203125 1.515625 L 27.203125 18.484375 C 27.203125 19.492188 26.695312 20 25.6875 20 L 7.125 20 C 6.101562 20 5.59375 19.492188 5.59375 18.484375 Z M 5.59375 18.484375 "/></g></g></g><g fill="#ffec45" fill-opacity="1"><g transform="translate(343.182385, 207.069476)"><g><path d="M 15.203125 -1.515625 L 15.203125 -3.28125 C 15.203125 -4.289062 14.695312 -4.796875 13.6875 -4.796875 L 11.921875 -4.796875 C 10.910156 -4.796875 10.40625 -5.300781 10.40625 -6.3125 L 10.40625 -8.078125 C 10.40625 -9.085938 9.894531 -9.59375 8.875 -9.59375 L 7.125 -9.59375 C 6.101562 -9.59375 5.59375 -10.101562 5.59375 -11.125 L 5.59375 -44.875 C 5.59375 -45.894531 6.101562 -46.40625 7.125 -46.40625 L 8.875 -46.40625 C 9.894531 -46.40625 10.40625 -46.910156 10.40625 -47.921875 L 10.40625 -49.6875 C 10.40625 -50.695312 10.910156 -51.203125 11.921875 -51.203125 L 13.6875 -51.203125 C 14.695312 -51.203125 15.203125 -51.707031 15.203125 -52.71875 L 15.203125 -54.484375 C 15.203125 -55.492188 15.707031 -56 16.71875 -56 L 47.28125 -56 C 48.289062 -56 48.796875 -55.492188 48.796875 -54.484375 L 48.796875 -52.71875 C 48.796875 -51.707031 49.300781 -51.203125 50.3125 -51.203125 L 52.078125 -51.203125 C 53.085938 -51.203125 53.59375 -50.695312 53.59375 -49.6875 L 53.59375 -47.921875 C 53.59375 -46.910156 54.101562 -46.40625 55.125 -46.40625 L 56.875 -46.40625 C 57.894531 -46.40625 58.40625 -45.894531 58.40625 -44.875 L 58.40625 -11.125 C 58.40625 -10.101562 57.894531 -9.59375 56.875 -9.59375 L 55.125 -9.59375 C 54.101562 -9.59375 53.59375 -9.085938 53.59375 -8.078125 L 53.59375 -6.3125 C 53.59375 -5.300781 53.085938 -4.796875 52.078125 -4.796875 L 50.3125 -4.796875 C 49.300781 -4.796875 48.796875 -4.289062 48.796875 -3.28125 L 48.796875 -1.515625 C 48.796875 -0.503906 48.289062 0 47.28125 0 L 16.71875 0 C 15.707031 0 15.203125 -0.503906 15.203125 -1.515625 Z M 33.515625 -9.59375 L 35.28125 -9.59375 C 36.289062 -9.59375 36.796875 -10.101562 36.796875 -11.125 L 36.796875 -49.6875 C 36.796875 -50.695312 36.289062 -51.203125 35.28125 -51.203125 L 33.515625 -51.203125 C 32.503906 -51.203125 32 -50.695312 32 -49.6875 L 32 -47.921875 C 32 -46.910156 31.492188 -46.40625 30.484375 -46.40625 L 28.71875 -46.40625 C 27.707031 -46.40625 27.203125 -45.894531 27.203125 -44.875 L 27.203125 -6.3125 C 27.203125 -5.300781 27.707031 -4.796875 28.71875 -4.796875 L 30.484375 -4.796875 C 31.492188 -4.796875 32 -5.300781 32 -6.3125 L 32 -8.078125 C 32 -9.085938 32.503906 -9.59375 33.515625 -9.59375 Z M 33.515625 -9.59375 "/></g></g></g><g fill="#ffec45" fill-opacity="1"><g transform="translate(407.176185, 207.069476)"><g><path d="M 33.515625 -9.59375 L 35.28125 -9.59375 C 36.289062 -9.59375 36.796875 -10.101562 36.796875 -11.125 L 36.796875 -49.6875 C 36.796875 -50.695312 36.289062 -51.203125 35.28125 -51.203125 L 33.515625 -51.203125 C 32.503906 -51.203125 32 -50.695312 32 -49.6875 L 32 -47.921875 C 32 -46.910156 31.492188 -46.40625 30.484375 -46.40625 L 28.71875 -46.40625 C 27.707031 -46.40625 27.203125 -45.894531 27.203125 -44.875 L 27.203125 -6.3125 C 27.203125 -5.300781 27.707031 -4.796875 28.71875 -4.796875 L 30.484375 -4.796875 C 31.492188 -4.796875 32 -5.300781 32 -6.3125 L 32 -8.078125 C 32 -9.085938 32.503906 -9.59375 33.515625 -9.59375 Z M 5.59375 18.484375 L 5.59375 -54.484375 C 5.59375 -55.492188 6.101562 -56 7.125 -56 L 47.28125 -56 C 48.289062 -56 48.796875 -55.492188 48.796875 -54.484375 L 48.796875 -52.71875 C 48.796875 -51.707031 49.300781 -51.203125 50.3125 -51.203125 L 52.078125 -51.203125 C 53.085938 -51.203125 53.59375 -50.695312 53.59375 -49.6875 L 53.59375 -47.921875 C 53.59375 -46.910156 54.101562 -46.40625 55.125 -46.40625 L 56.875 -46.40625 C 57.894531 -46.40625 58.40625 -45.894531 58.40625 -44.875 L 58.40625 -11.125 C 58.40625 -10.101562 57.894531 -9.59375 56.875 -9.59375 L 55.125 -9.59375 C 54.101562 -9.59375 53.59375 -9.085938 53.59375 -8.078125 L 53.59375 -6.3125 C 53.59375 -5.300781 53.085938 -4.796875 52.078125 -4.796875 L 50.3125 -4.796875 C 49.300781 -4.796875 48.796875 -4.289062 48.796875 -3.28125 L 48.796875 -1.515625 C 48.796875 -0.503906 48.289062 0 47.28125 0 L 28.71875 0 C 27.707031 0 27.203125 0.503906 27.203125 1.515625 L 27.203125 18.484375 C 27.203125 19.492188 26.695312 20 25.6875 20 L 7.125 20 C 6.101562 20 5.59375 19.492188 5.59375 18.484375 Z M 5.59375 18.484375 "/></g></g></g></svg>