<svg xmlns="http://www.w3.org/2000/svg" xmlns:xlink="http://www.w3.org/1999/xlink" width="672" zoomAndPan="magnify" viewBox="0 0 504 359.999987" height="480" preserveAspectRatio="xMidYMid meet" version="1.0"><defs><g/></defs><g fill="#000000" fill-opacity="0.5608"><g transform="translate(16.263164, 201.367009)"><g><path d="M 5.046875 -1.375 L 5.046875 -66.03125 C 5.046875 -66.9375 5.5 -67.390625 6.40625 -67.390625 L 42.546875 -67.390625 C 43.460938 -67.390625 43.921875 -66.9375 43.921875 -66.03125 L 43.921875 -64.4375 C 43.921875 -63.53125 44.375 -63.078125 45.28125 -63.078125 L 46.875 -63.078125 C 47.78125 -63.078125 48.234375 -62.617188 48.234375 -61.703125 L 48.234375 -60.125 C 48.234375 -59.207031 48.691406 -58.75 49.609375 -58.75 L 51.1875 -58.75 C 52.101562 -58.75 52.5625 -58.296875 52.5625 -57.390625 L 52.5625 -10.015625 C 52.5625 -9.097656 52.101562 -8.640625 51.1875 -8.640625 L 49.609375 -8.640625 C 48.691406 -8.640625 48.234375 -8.179688 48.234375 -7.265625 L 48.234375 -5.6875 C 48.234375 -4.769531 47.78125 -4.3125 46.875 -4.3125 L 45.28125 -4.3125 C 44.375 -4.3125 43.921875 -3.859375 43.921875 -2.953125 L 43.921875 -1.375 C 43.921875 -0.457031 43.460938 0 42.546875 0 L 6.40625 0 C 5.5 0 5.046875 -0.457031 5.046875 -1.375 Z M 24.484375 -61.703125 L 24.484375 -5.6875 C 24.484375 -4.769531 24.9375 -4.3125 25.84375 -4.3125 L 27.4375 -4.3125 C 28.34375 -4.3125 28.796875 -4.769531 28.796875 -5.6875 L 28.796875 -7.265625 C 28.796875 -8.179688 29.253906 -8.640625 30.171875 -8.640625 L 31.75 -8.640625 C 32.664062 -8.640625 33.125 -9.097656 33.125 -10.015625 L 33.125 -57.390625 C 33.125 -58.296875 32.664062 -58.75 31.75 -58.75 L 30.171875 -58.75 C 29.253906 -58.75 28.796875 -59.207031 28.796875 -60.125 L 28.796875 -61.703125 C 28.796875 -62.617188 28.34375 -63.078125 27.4375 -63.078125 L 25.84375 -63.078125 C 24.9375 -63.078125 24.484375 -62.617188 24.484375 -61.703125 Z M 24.484375 -61.703125 "/></g></g></g><g fill="#000000" fill-opacity="0.5608"><g transform="translate(73.86314, 201.367009)"><g><path d="M 5.046875 -1.375 L 5.046875 -66.03125 C 5.046875 -66.9375 5.5 -67.390625 6.40625 -67.390625 L 23.109375 -67.390625 C 24.023438 -67.390625 24.484375 -66.9375 24.484375 -66.03125 L 24.484375 -1.375 C 24.484375 -0.457031 24.023438 0 23.109375 0 L 6.40625 0 C 5.5 0 5.046875 -0.457031 5.046875 -1.375 Z M 5.046875 -1.375 "/></g></g></g><g fill="#000000" fill-opacity="0.5608"><g transform="translate(103.383126, 201.367009)"><g><path d="M 9.359375 -1.375 L 9.359375 -2.953125 C 9.359375 -3.859375 8.898438 -4.3125 7.984375 -4.3125 L 6.40625 -4.3125 C 5.5 -4.3125 5.046875 -4.769531 5.046875 -5.6875 L 5.046875 -66.03125 C 5.046875 -66.9375 5.5 -67.390625 6.40625 -67.390625 L 23.109375 -67.390625 C 24.023438 -67.390625 24.484375 -66.9375 24.484375 -66.03125 L 24.484375 -5.6875 C 24.484375 -4.769531 24.9375 -4.3125 25.84375 -4.3125 L 27.9375 -4.3125 C 28.84375 -4.3125 29.296875 -4.769531 29.296875 -5.6875 L 29.296875 -7.265625 C 29.296875 -8.179688 29.753906 -8.640625 30.671875 -8.640625 L 32.25 -8.640625 C 33.164062 -8.640625 33.625 -9.097656 33.625 -10.015625 L 33.625 -66.03125 C 33.625 -66.9375 34.078125 -67.390625 34.984375 -67.390625 L 51.703125 -67.390625 C 52.609375 -67.390625 53.0625 -66.9375 53.0625 -66.03125 L 53.0625 -18.640625 C 53.0625 -17.734375 52.609375 -17.28125 51.703125 -17.28125 L 49.3125 -17.28125 C 48.40625 -17.28125 47.953125 -16.820312 47.953125 -15.90625 L 47.953125 -14.328125 C 47.953125 -13.410156 47.492188 -12.953125 46.578125 -12.953125 L 45 -12.953125 C 44.082031 -12.953125 43.625 -12.5 43.625 -11.59375 L 43.625 -10.015625 C 43.625 -9.097656 43.171875 -8.640625 42.265625 -8.640625 L 40.6875 -8.640625 C 39.769531 -8.640625 39.3125 -8.179688 39.3125 -7.265625 L 39.3125 -5.6875 C 39.3125 -4.769531 38.851562 -4.3125 37.9375 -4.3125 L 37.21875 -4.3125 C 36.3125 -4.3125 35.859375 -3.859375 35.859375 -2.953125 L 35.859375 -1.375 C 35.859375 -0.457031 35.398438 0 34.484375 0 L 10.734375 0 C 9.816406 0 9.359375 -0.457031 9.359375 -1.375 Z M 9.359375 -1.375 "/></g></g></g><g fill="#000000" fill-opacity="0.5608"><g transform="translate(160.767094, 201.367009)"><g><path d="M 5.046875 -1.375 L 5.046875 -48.75 C 5.046875 -49.65625 5.5 -50.109375 6.40625 -50.109375 L 8.78125 -50.109375 C 9.695312 -50.109375 10.15625 -50.566406 10.15625 -51.484375 L 10.15625 -53.0625 C 10.15625 -53.976562 10.609375 -54.4375 11.515625 -54.4375 L 13.109375 -54.4375 C 14.015625 -54.4375 14.46875 -54.890625 14.46875 -55.796875 L 14.46875 -57.390625 C 14.46875 -58.296875 14.925781 -58.75 15.84375 -58.75 L 17.421875 -58.75 C 18.335938 -58.75 18.796875 -59.207031 18.796875 -60.125 L 18.796875 -61.703125 C 18.796875 -62.617188 19.25 -63.078125 20.15625 -63.078125 L 20.875 -63.078125 C 21.789062 -63.078125 22.25 -63.53125 22.25 -64.4375 L 22.25 -66.03125 C 22.25 -66.9375 22.703125 -67.390625 23.609375 -67.390625 L 46.875 -67.390625 C 47.78125 -67.390625 48.234375 -66.9375 48.234375 -66.03125 L 48.234375 -64.4375 C 48.234375 -63.53125 48.691406 -63.078125 49.609375 -63.078125 L 51.1875 -63.078125 C 52.101562 -63.078125 52.5625 -62.617188 52.5625 -61.703125 L 52.5625 -1.375 C 52.5625 -0.457031 52.101562 0 51.1875 0 L 34.484375 0 C 33.578125 0 33.125 -0.457031 33.125 -1.375 L 33.125 -24.265625 C 33.125 -25.171875 32.664062 -25.625 31.75 -25.625 L 30.171875 -25.625 C 29.253906 -25.625 28.796875 -25.171875 28.796875 -24.265625 L 28.796875 -22.6875 C 28.796875 -21.769531 28.34375 -21.3125 27.4375 -21.3125 L 25.84375 -21.3125 C 24.9375 -21.3125 24.484375 -20.851562 24.484375 -19.9375 L 24.484375 -1.375 C 24.484375 -0.457031 24.023438 0 23.109375 0 L 6.40625 0 C 5.5 0 5.046875 -0.457031 5.046875 -1.375 Z M 25.84375 -29.515625 L 27.4375 -29.515625 C 28.34375 -29.515625 28.796875 -29.972656 28.796875 -30.890625 L 28.796875 -32.46875 C 28.796875 -33.382812 29.253906 -33.84375 30.171875 -33.84375 L 31.75 -33.84375 C 32.664062 -33.84375 33.125 -34.296875 33.125 -35.203125 L 33.125 -61.703125 C 33.125 -62.617188 32.664062 -63.078125 31.75 -63.078125 L 30.171875 -63.078125 C 29.253906 -63.078125 28.796875 -62.617188 28.796875 -61.703125 L 28.796875 -60.125 C 28.796875 -59.207031 28.34375 -58.75 27.4375 -58.75 L 25.84375 -58.75 C 24.9375 -58.75 24.484375 -58.296875 24.484375 -57.390625 L 24.484375 -30.890625 C 24.484375 -29.972656 24.9375 -29.515625 25.84375 -29.515625 Z M 25.84375 -29.515625 "/></g></g></g><g fill="#000000" fill-opacity="0.5608"><g transform="translate(218.367069, 201.367009)"><g/></g></g><g fill="#000000" fill-opacity="0.5608"><g transform="translate(236.367044, 201.367009)"><g><path d="M 5.046875 -1.375 L 5.046875 -66.03125 C 5.046875 -66.9375 5.5 -67.390625 6.40625 -67.390625 L 42.546875 -67.390625 C 43.460938 -67.390625 43.921875 -66.9375 43.921875 -66.03125 L 43.921875 -64.4375 C 43.921875 -63.53125 44.375 -63.078125 45.28125 -63.078125 L 46.875 -63.078125 C 47.78125 -63.078125 48.234375 -62.617188 48.234375 -61.703125 L 48.234375 -60.125 C 48.234375 -59.207031 48.691406 -58.75 49.609375 -58.75 L 51.1875 -58.75 C 52.101562 -58.75 52.5625 -58.296875 52.5625 -57.390625 L 52.5625 -10.015625 C 52.5625 -9.097656 52.101562 -8.640625 51.1875 -8.640625 L 49.609375 -8.640625 C 48.691406 -8.640625 48.234375 -8.179688 48.234375 -7.265625 L 48.234375 -5.6875 C 48.234375 -4.769531 47.78125 -4.3125 46.875 -4.3125 L 45.28125 -4.3125 C 44.375 -4.3125 43.921875 -3.859375 43.921875 -2.953125 L 43.921875 -1.375 C 43.921875 -0.457031 43.460938 0 42.546875 0 L 6.40625 0 C 5.5 0 5.046875 -0.457031 5.046875 -1.375 Z M 24.484375 -61.703125 L 24.484375 -5.6875 C 24.484375 -4.769531 24.9375 -4.3125 25.84375 -4.3125 L 27.4375 -4.3125 C 28.34375 -4.3125 28.796875 -4.769531 28.796875 -5.6875 L 28.796875 -7.265625 C 28.796875 -8.179688 29.253906 -8.640625 30.171875 -8.640625 L 31.75 -8.640625 C 32.664062 -8.640625 33.125 -9.097656 33.125 -10.015625 L 33.125 -57.390625 C 33.125 -58.296875 32.664062 -58.75 31.75 -58.75 L 30.171875 -58.75 C 29.253906 -58.75 28.796875 -59.207031 28.796875 -60.125 L 28.796875 -61.703125 C 28.796875 -62.617188 28.34375 -63.078125 27.4375 -63.078125 L 25.84375 -63.078125 C 24.9375 -63.078125 24.484375 -62.617188 24.484375 -61.703125 Z M 24.484375 -61.703125 "/></g></g></g><g fill="#000000" fill-opacity="0.5608"><g transform="translate(293.967031, 201.367009)"><g><path d="M 13.6875 -1.375 L 13.6875 -2.953125 C 13.6875 -3.859375 13.226562 -4.3125 12.3125 -4.3125 L 10.734375 -4.3125 C 9.816406 -4.3125 9.359375 -4.769531 9.359375 -5.6875 L 9.359375 -7.265625 C 9.359375 -8.179688 8.898438 -8.640625 7.984375 -8.640625 L 6.40625 -8.640625 C 5.5 -8.640625 5.046875 -9.097656 5.046875 -10.015625 L 5.046875 -57.390625 C 5.046875 -58.296875 5.5 -58.75 6.40625 -58.75 L 7.984375 -58.75 C 8.898438 -58.75 9.359375 -59.207031 9.359375 -60.125 L 9.359375 -61.703125 C 9.359375 -62.617188 9.816406 -63.078125 10.734375 -63.078125 L 12.3125 -63.078125 C 13.226562 -63.078125 13.6875 -63.53125 13.6875 -64.4375 L 13.6875 -66.03125 C 13.6875 -66.9375 14.140625 -67.390625 15.046875 -67.390625 L 42.546875 -67.390625 C 43.460938 -67.390625 43.921875 -66.9375 43.921875 -66.03125 L 43.921875 -64.4375 C 43.921875 -63.53125 44.375 -63.078125 45.28125 -63.078125 L 46.875 -63.078125 C 47.78125 -63.078125 48.234375 -62.617188 48.234375 -61.703125 L 48.234375 -60.125 C 48.234375 -59.207031 48.691406 -58.75 49.609375 -58.75 L 51.1875 -58.75 C 52.101562 -58.75 52.5625 -58.296875 52.5625 -57.390625 L 52.5625 -10.015625 C 52.5625 -9.097656 52.101562 -8.640625 51.1875 -8.640625 L 49.609375 -8.640625 C 48.691406 -8.640625 48.234375 -8.179688 48.234375 -7.265625 L 48.234375 -5.6875 C 48.234375 -4.769531 47.78125 -4.3125 46.875 -4.3125 L 45.28125 -4.3125 C 44.375 -4.3125 43.921875 -3.859375 43.921875 -2.953125 L 43.921875 -1.375 C 43.921875 -0.457031 43.460938 0 42.546875 0 L 15.046875 0 C 14.140625 0 13.6875 -0.457031 13.6875 -1.375 Z M 24.484375 -61.703125 L 24.484375 -5.6875 C 24.484375 -4.769531 24.9375 -4.3125 25.84375 -4.3125 L 27.4375 -4.3125 C 28.34375 -4.3125 28.796875 -4.769531 28.796875 -5.6875 L 28.796875 -7.265625 C 28.796875 -8.179688 29.253906 -8.640625 30.171875 -8.640625 L 31.75 -8.640625 C 32.664062 -8.640625 33.125 -9.097656 33.125 -10.015625 L 33.125 -57.390625 C 33.125 -58.296875 32.664062 -58.75 31.75 -58.75 L 30.171875 -58.75 C 29.253906 -58.75 28.796875 -59.207031 28.796875 -60.125 L 28.796875 -61.703125 C 28.796875 -62.617188 28.34375 -63.078125 27.4375 -63.078125 L 25.84375 -63.078125 C 24.9375 -63.078125 24.484375 -62.617188 24.484375 -61.703125 Z M 24.484375 -61.703125 "/></g></g></g><g fill="#000000" fill-opacity="0.5608"><g transform="translate(351.567017, 201.367009)"><g><path d="M 9.359375 -1.375 L 9.359375 -2.953125 C 9.359375 -3.859375 8.898438 -4.3125 7.984375 -4.3125 L 6.40625 -4.3125 C 5.5 -4.3125 5.046875 -4.769531 5.046875 -5.6875 L 5.046875 -66.03125 C 5.046875 -66.9375 5.5 -67.390625 6.40625 -67.390625 L 23.109375 -67.390625 C 24.023438 -67.390625 24.484375 -66.9375 24.484375 -66.03125 L 24.484375 -5.6875 C 24.484375 -4.769531 24.9375 -4.3125 25.84375 -4.3125 L 27.9375 -4.3125 C 28.84375 -4.3125 29.296875 -4.769531 29.296875 -5.6875 L 29.296875 -7.265625 C 29.296875 -8.179688 29.753906 -8.640625 30.671875 -8.640625 L 32.25 -8.640625 C 33.164062 -8.640625 33.625 -9.097656 33.625 -10.015625 L 33.625 -66.03125 C 33.625 -66.9375 34.078125 -67.390625 34.984375 -67.390625 L 51.703125 -67.390625 C 52.609375 -67.390625 53.0625 -66.9375 53.0625 -66.03125 L 53.0625 -5.6875 C 53.0625 -4.769531 53.519531 -4.3125 54.4375 -4.3125 L 56.515625 -4.3125 C 57.429688 -4.3125 57.890625 -4.769531 57.890625 -5.6875 L 57.890625 -7.265625 C 57.890625 -8.179688 58.34375 -8.640625 59.25 -8.640625 L 60.84375 -8.640625 C 61.75 -8.640625 62.203125 -9.097656 62.203125 -10.015625 L 62.203125 -66.03125 C 62.203125 -66.9375 62.660156 -67.390625 63.578125 -67.390625 L 80.28125 -67.390625 C 81.1875 -67.390625 81.640625 -66.9375 81.640625 -66.03125 L 81.640625 -18.640625 C 81.640625 -17.734375 81.1875 -17.28125 80.28125 -17.28125 L 78.703125 -17.28125 C 77.785156 -17.28125 77.328125 -16.820312 77.328125 -15.90625 L 77.328125 -14.328125 C 77.328125 -13.410156 76.867188 -12.953125 75.953125 -12.953125 L 72.21875 -12.953125 C 71.300781 -12.953125 70.84375 -12.5 70.84375 -11.59375 L 70.84375 -10.015625 C 70.84375 -9.097656 70.390625 -8.640625 69.484375 -8.640625 L 67.890625 -8.640625 C 66.984375 -8.640625 66.53125 -8.179688 66.53125 -7.265625 L 66.53125 -5.6875 C 66.53125 -4.769531 66.070312 -4.3125 65.15625 -4.3125 L 64.4375 -4.3125 C 63.53125 -4.3125 63.078125 -3.859375 63.078125 -2.953125 L 63.078125 -1.375 C 63.078125 -0.457031 62.617188 0 61.703125 0 L 47.953125 0 C 47.035156 0 46.578125 -0.457031 46.578125 -1.375 L 46.578125 -2.953125 C 46.578125 -3.859375 46.125 -4.3125 45.21875 -4.3125 L 43.625 -4.3125 C 42.71875 -4.3125 42.265625 -4.769531 42.265625 -5.6875 L 42.265625 -7.265625 C 42.265625 -8.179688 41.804688 -8.640625 40.890625 -8.640625 L 39.3125 -8.640625 C 38.394531 -8.640625 37.9375 -8.179688 37.9375 -7.265625 L 37.9375 -5.6875 C 37.9375 -4.769531 37.484375 -4.3125 36.578125 -4.3125 L 34.984375 -4.3125 C 34.078125 -4.3125 33.625 -3.859375 33.625 -2.953125 L 33.625 -1.375 C 33.625 -0.457031 33.164062 0 32.25 0 L 10.734375 0 C 9.816406 0 9.359375 -0.457031 9.359375 -1.375 Z M 9.359375 -1.375 "/></g></g></g><g fill="#000000" fill-opacity="0.5608"><g transform="translate(437.534982, 201.367009)"><g><path d="M 5.046875 -1.375 L 5.046875 -66.03125 C 5.046875 -66.9375 5.5 -67.390625 6.40625 -67.390625 L 10.21875 -67.390625 C 11.132812 -67.390625 11.59375 -66.9375 11.59375 -66.03125 L 11.59375 -64.4375 C 11.59375 -63.53125 12.046875 -63.078125 12.953125 -63.078125 L 14.546875 -63.078125 C 15.453125 -63.078125 15.90625 -62.617188 15.90625 -61.703125 L 15.90625 -60.125 C 15.90625 -59.207031 16.363281 -58.75 17.28125 -58.75 L 18.859375 -58.75 C 19.773438 -58.75 20.234375 -58.296875 20.234375 -57.390625 L 20.234375 -55.796875 C 20.234375 -54.890625 20.6875 -54.4375 21.59375 -54.4375 L 23.1875 -54.4375 C 24.09375 -54.4375 24.546875 -53.976562 24.546875 -53.0625 L 24.546875 -51.484375 C 24.546875 -50.566406 25.003906 -50.109375 25.921875 -50.109375 L 27.5 -50.109375 C 28.414062 -50.109375 28.875 -49.65625 28.875 -48.75 L 28.875 -47.15625 C 28.875 -46.25 29.328125 -45.796875 30.234375 -45.796875 L 31.828125 -45.796875 C 32.734375 -45.796875 33.1875 -45.335938 33.1875 -44.421875 L 33.1875 -42.84375 C 33.1875 -41.925781 33.644531 -41.46875 34.5625 -41.46875 L 36.140625 -41.46875 C 37.054688 -41.46875 37.515625 -41.015625 37.515625 -40.109375 L 37.515625 -38.515625 C 37.515625 -37.609375 37.96875 -37.15625 38.875 -37.15625 L 40.46875 -37.15625 C 41.375 -37.15625 41.828125 -37.609375 41.828125 -38.515625 L 41.828125 -40.109375 C 41.828125 -41.015625 41.375 -41.46875 40.46875 -41.46875 L 38.875 -41.46875 C 37.96875 -41.46875 37.515625 -41.925781 37.515625 -42.84375 L 37.515625 -44.421875 C 37.515625 -45.335938 37.054688 -45.796875 36.140625 -45.796875 L 34.5625 -45.796875 C 33.644531 -45.796875 33.1875 -46.25 33.1875 -47.15625 L 33.1875 -66.03125 C 33.1875 -66.9375 33.644531 -67.390625 34.5625 -67.390625 L 51.265625 -67.390625 C 52.171875 -67.390625 52.625 -66.9375 52.625 -66.03125 L 52.625 -1.375 C 52.625 -0.457031 52.171875 0 51.265625 0 L 34.5625 0 C 33.644531 0 33.1875 -0.457031 33.1875 -1.375 L 33.1875 -35.78125 C 33.1875 -36.695312 32.734375 -37.15625 31.828125 -37.15625 L 30.234375 -37.15625 C 29.328125 -37.15625 28.875 -37.609375 28.875 -38.515625 L 28.875 -40.109375 C 28.875 -41.015625 28.414062 -41.46875 27.5 -41.46875 L 25.84375 -41.46875 C 24.9375 -41.46875 24.484375 -41.015625 24.484375 -40.109375 L 24.484375 -1.375 C 24.484375 -0.457031 24.023438 0 23.109375 0 L 6.40625 0 C 5.5 0 5.046875 -0.457031 5.046875 -1.375 Z M 5.046875 -1.375 "/></g></g></g><g fill="#ffec45" fill-opacity="1"><g transform="translate(12.527352, 198.119516)"><g><path d="M 5.046875 -1.375 L 5.046875 -66.03125 C 5.046875 -66.9375 5.5 -67.390625 6.40625 -67.390625 L 42.546875 -67.390625 C 43.460938 -67.390625 43.921875 -66.9375 43.921875 -66.03125 L 43.921875 -64.4375 C 43.921875 -63.53125 44.375 -63.078125 45.28125 -63.078125 L 46.875 -63.078125 C 47.78125 -63.078125 48.234375 -62.617188 48.234375 -61.703125 L 48.234375 -60.125 C 48.234375 -59.207031 48.691406 -58.75 49.609375 -58.75 L 51.1875 -58.75 C 52.101562 -58.75 52.5625 -58.296875 52.5625 -57.390625 L 52.5625 -10.015625 C 52.5625 -9.097656 52.101562 -8.640625 51.1875 -8.640625 L 49.609375 -8.640625 C 48.691406 -8.640625 48.234375 -8.179688 48.234375 -7.265625 L 48.234375 -5.6875 C 48.234375 -4.769531 47.78125 -4.3125 46.875 -4.3125 L 45.28125 -4.3125 C 44.375 -4.3125 43.921875 -3.859375 43.921875 -2.953125 L 43.921875 -1.375 C 43.921875 -0.457031 43.460938 0 42.546875 0 L 6.40625 0 C 5.5 0 5.046875 -0.457031 5.046875 -1.375 Z M 24.484375 -61.703125 L 24.484375 -5.6875 C 24.484375 -4.769531 24.9375 -4.3125 25.84375 -4.3125 L 27.4375 -4.3125 C 28.34375 -4.3125 28.796875 -4.769531 28.796875 -5.6875 L 28.796875 -7.265625 C 28.796875 -8.179688 29.253906 -8.640625 30.171875 -8.640625 L 31.75 -8.640625 C 32.664062 -8.640625 33.125 -9.097656 33.125 -10.015625 L 33.125 -57.390625 C 33.125 -58.296875 32.664062 -58.75 31.75 -58.75 L 30.171875 -58.75 C 29.253906 -58.75 28.796875 -59.207031 28.796875 -60.125 L 28.796875 -61.703125 C 28.796875 -62.617188 28.34375 -63.078125 27.4375 -63.078125 L 25.84375 -63.078125 C 24.9375 -63.078125 24.484375 -62.617188 24.484375 -61.703125 Z M 24.484375 -61.703125 "/></g></g></g><g fill="#ffec45" fill-opacity="1"><g transform="translate(70.127327, 198.119516)"><g><path d="M 5.046875 -1.375 L 5.046875 -66.03125 C 5.046875 -66.9375 5.5 -67.390625 6.40625 -67.390625 L 23.109375 -67.390625 C 24.023438 -67.390625 24.484375 -66.9375 24.484375 -66.03125 L 24.484375 -1.375 C 24.484375 -0.457031 24.023438 0 23.109375 0 L 6.40625 0 C 5.5 0 5.046875 -0.457031 5.046875 -1.375 Z M 5.046875 -1.375 "/></g></g></g><g fill="#ffec45" fill-opacity="1"><g transform="translate(99.647314, 198.119516)"><g><path d="M 9.359375 -1.375 L 9.359375 -2.953125 C 9.359375 -3.859375 8.898438 -4.3125 7.984375 -4.3125 L 6.40625 -4.3125 C 5.5 -4.3125 5.046875 -4.769531 5.046875 -5.6875 L 5.046875 -66.03125 C 5.046875 -66.9375 5.5 -67.390625 6.40625 -67.390625 L 23.109375 -67.390625 C 24.023438 -67.390625 24.484375 -66.9375 24.484375 -66.03125 L 24.484375 -5.6875 C 24.484375 -4.769531 24.9375 -4.3125 25.84375 -4.3125 L 27.9375 -4.3125 C 28.84375 -4.3125 29.296875 -4.769531 29.296875 -5.6875 L 29.296875 -7.265625 C 29.296875 -8.179688 29.753906 -8.640625 30.671875 -8.640625 L 32.25 -8.640625 C 33.164062 -8.640625 33.625 -9.097656 33.625 -10.015625 L 33.625 -66.03125 C 33.625 -66.9375 34.078125 -67.390625 34.984375 -67.390625 L 51.703125 -67.390625 C 52.609375 -67.390625 53.0625 -66.9375 53.0625 -66.03125 L 53.0625 -18.640625 C 53.0625 -17.734375 52.609375 -17.28125 51.703125 -17.28125 L 49.3125 -17.28125 C 48.40625 -17.28125 47.953125 -16.820312 47.953125 -15.90625 L 47.953125 -14.328125 C 47.953125 -13.410156 47.492188 -12.953125 46.578125 -12.953125 L 45 -12.953125 C 44.082031 -12.953125 43.625 -12.5 43.625 -11.59375 L 43.625 -10.015625 C 43.625 -9.097656 43.171875 -8.640625 42.265625 -8.640625 L 40.6875 -8.640625 C 39.769531 -8.640625 39.3125 -8.179688 39.3125 -7.265625 L 39.3125 -5.6875 C 39.3125 -4.769531 38.851562 -4.3125 37.9375 -4.3125 L 37.21875 -4.3125 C 36.3125 -4.3125 35.859375 -3.859375 35.859375 -2.953125 L 35.859375 -1.375 C 35.859375 -0.457031 35.398438 0 34.484375 0 L 10.734375 0 C 9.816406 0 9.359375 -0.457031 9.359375 -1.375 Z M 9.359375 -1.375 "/></g></g></g><g fill="#ffec45" fill-opacity="1"><g transform="translate(157.031281, 198.119516)"><g><path d="M 5.046875 -1.375 L 5.046875 -48.75 C 5.046875 -49.65625 5.5 -50.109375 6.40625 -50.109375 L 8.78125 -50.109375 C 9.695312 -50.109375 10.15625 -50.566406 10.15625 -51.484375 L 10.15625 -53.0625 C 10.15625 -53.976562 10.609375 -54.4375 11.515625 -54.4375 L 13.109375 -54.4375 C 14.015625 -54.4375 14.46875 -54.890625 14.46875 -55.796875 L 14.46875 -57.390625 C 14.46875 -58.296875 14.925781 -58.75 15.84375 -58.75 L 17.421875 -58.75 C 18.335938 -58.75 18.796875 -59.207031 18.796875 -60.125 L 18.796875 -61.703125 C 18.796875 -62.617188 19.25 -63.078125 20.15625 -63.078125 L 20.875 -63.078125 C 21.789062 -63.078125 22.25 -63.53125 22.25 -64.4375 L 22.25 -66.03125 C 22.25 -66.9375 22.703125 -67.390625 23.609375 -67.390625 L 46.875 -67.390625 C 47.78125 -67.390625 48.234375 -66.9375 48.234375 -66.03125 L 48.234375 -64.4375 C 48.234375 -63.53125 48.691406 -63.078125 49.609375 -63.078125 L 51.1875 -63.078125 C 52.101562 -63.078125 52.5625 -62.617188 52.5625 -61.703125 L 52.5625 -1.375 C 52.5625 -0.457031 52.101562 0 51.1875 0 L 34.484375 0 C 33.578125 0 33.125 -0.457031 33.125 -1.375 L 33.125 -24.265625 C 33.125 -25.171875 32.664062 -25.625 31.75 -25.625 L 30.171875 -25.625 C 29.253906 -25.625 28.796875 -25.171875 28.796875 -24.265625 L 28.796875 -22.6875 C 28.796875 -21.769531 28.34375 -21.3125 27.4375 -21.3125 L 25.84375 -21.3125 C 24.9375 -21.3125 24.484375 -20.851562 24.484375 -19.9375 L 24.484375 -1.375 C 24.484375 -0.457031 24.023438 0 23.109375 0 L 6.40625 0 C 5.5 0 5.046875 -0.457031 5.046875 -1.375 Z M 25.84375 -29.515625 L 27.4375 -29.515625 C 28.34375 -29.515625 28.796875 -29.972656 28.796875 -30.890625 L 28.796875 -32.46875 C 28.796875 -33.382812 29.253906 -33.84375 30.171875 -33.84375 L 31.75 -33.84375 C 32.664062 -33.84375 33.125 -34.296875 33.125 -35.203125 L 33.125 -61.703125 C 33.125 -62.617188 32.664062 -63.078125 31.75 -63.078125 L 30.171875 -63.078125 C 29.253906 -63.078125 28.796875 -62.617188 28.796875 -61.703125 L 28.796875 -60.125 C 28.796875 -59.207031 28.34375 -58.75 27.4375 -58.75 L 25.84375 -58.75 C 24.9375 -58.75 24.484375 -58.296875 24.484375 -57.390625 L 24.484375 -30.890625 C 24.484375 -29.972656 24.9375 -29.515625 25.84375 -29.515625 Z M 25.84375 -29.515625 "/></g></g></g><g fill="#ffec45" fill-opacity="1"><g transform="translate(214.631257, 198.119516)"><g/></g></g><g fill="#ffec45" fill-opacity="1"><g transform="translate(232.631232, 198.119516)"><g><path d="M 5.046875 -1.375 L 5.046875 -66.03125 C 5.046875 -66.9375 5.5 -67.390625 6.40625 -67.390625 L 42.546875 -67.390625 C 43.460938 -67.390625 43.921875 -66.9375 43.921875 -66.03125 L 43.921875 -64.4375 C 43.921875 -63.53125 44.375 -63.078125 45.28125 -63.078125 L 46.875 -63.078125 C 47.78125 -63.078125 48.234375 -62.617188 48.234375 -61.703125 L 48.234375 -60.125 C 48.234375 -59.207031 48.691406 -58.75 49.609375 -58.75 L 51.1875 -58.75 C 52.101562 -58.75 52.5625 -58.296875 52.5625 -57.390625 L 52.5625 -10.015625 C 52.5625 -9.097656 52.101562 -8.640625 51.1875 -8.640625 L 49.609375 -8.640625 C 48.691406 -8.640625 48.234375 -8.179688 48.234375 -7.265625 L 48.234375 -5.6875 C 48.234375 -4.769531 47.78125 -4.3125 46.875 -4.3125 L 45.28125 -4.3125 C 44.375 -4.3125 43.921875 -3.859375 43.921875 -2.953125 L 43.921875 -1.375 C 43.921875 -0.457031 43.460938 0 42.546875 0 L 6.40625 0 C 5.5 0 5.046875 -0.457031 5.046875 -1.375 Z M 24.484375 -61.703125 L 24.484375 -5.6875 C 24.484375 -4.769531 24.9375 -4.3125 25.84375 -4.3125 L 27.4375 -4.3125 C 28.34375 -4.3125 28.796875 -4.769531 28.796875 -5.6875 L 28.796875 -7.265625 C 28.796875 -8.179688 29.253906 -8.640625 30.171875 -8.640625 L 31.75 -8.640625 C 32.664062 -8.640625 33.125 -9.097656 33.125 -10.015625 L 33.125 -57.390625 C 33.125 -58.296875 32.664062 -58.75 31.75 -58.75 L 30.171875 -58.75 C 29.253906 -58.75 28.796875 -59.207031 28.796875 -60.125 L 28.796875 -61.703125 C 28.796875 -62.617188 28.34375 -63.078125 27.4375 -63.078125 L 25.84375 -63.078125 C 24.9375 -63.078125 24.484375 -62.617188 24.484375 -61.703125 Z M 24.484375 -61.703125 "/></g></g></g><g fill="#ffec45" fill-opacity="1"><g transform="translate(290.231218, 198.119516)"><g><path d="M 13.6875 -1.375 L 13.6875 -2.953125 C 13.6875 -3.859375 13.226562 -4.3125 12.3125 -4.3125 L 10.734375 -4.3125 C 9.816406 -4.3125 9.359375 -4.769531 9.359375 -5.6875 L 9.359375 -7.265625 C 9.359375 -8.179688 8.898438 -8.640625 7.984375 -8.640625 L 6.40625 -8.640625 C 5.5 -8.640625 5.046875 -9.097656 5.046875 -10.015625 L 5.046875 -57.390625 C 5.046875 -58.296875 5.5 -58.75 6.40625 -58.75 L 7.984375 -58.75 C 8.898438 -58.75 9.359375 -59.207031 9.359375 -60.125 L 9.359375 -61.703125 C 9.359375 -62.617188 9.816406 -63.078125 10.734375 -63.078125 L 12.3125 -63.078125 C 13.226562 -63.078125 13.6875 -63.53125 13.6875 -64.4375 L 13.6875 -66.03125 C 13.6875 -66.9375 14.140625 -67.390625 15.046875 -67.390625 L 42.546875 -67.390625 C 43.460938 -67.390625 43.921875 -66.9375 43.921875 -66.03125 L 43.921875 -64.4375 C 43.921875 -63.53125 44.375 -63.078125 45.28125 -63.078125 L 46.875 -63.078125 C 47.78125 -63.078125 48.234375 -62.617188 48.234375 -61.703125 L 48.234375 -60.125 C 48.234375 -59.207031 48.691406 -58.75 49.609375 -58.75 L 51.1875 -58.75 C 52.101562 -58.75 52.5625 -58.296875 52.5625 -57.390625 L 52.5625 -10.015625 C 52.5625 -9.097656 52.101562 -8.640625 51.1875 -8.640625 L 49.609375 -8.640625 C 48.691406 -8.640625 48.234375 -8.179688 48.234375 -7.265625 L 48.234375 -5.6875 C 48.234375 -4.769531 47.78125 -4.3125 46.875 -4.3125 L 45.28125 -4.3125 C 44.375 -4.3125 43.921875 -3.859375 43.921875 -2.953125 L 43.921875 -1.375 C 43.921875 -0.457031 43.460938 0 42.546875 0 L 15.046875 0 C 14.140625 0 13.6875 -0.457031 13.6875 -1.375 Z M 24.484375 -61.703125 L 24.484375 -5.6875 C 24.484375 -4.769531 24.9375 -4.3125 25.84375 -4.3125 L 27.4375 -4.3125 C 28.34375 -4.3125 28.796875 -4.769531 28.796875 -5.6875 L 28.796875 -7.265625 C 28.796875 -8.179688 29.253906 -8.640625 30.171875 -8.640625 L 31.75 -8.640625 C 32.664062 -8.640625 33.125 -9.097656 33.125 -10.015625 L 33.125 -57.390625 C 33.125 -58.296875 32.664062 -58.75 31.75 -58.75 L 30.171875 -58.75 C 29.253906 -58.75 28.796875 -59.207031 28.796875 -60.125 L 28.796875 -61.703125 C 28.796875 -62.617188 28.34375 -63.078125 27.4375 -63.078125 L 25.84375 -63.078125 C 24.9375 -63.078125 24.484375 -62.617188 24.484375 -61.703125 Z M 24.484375 -61.703125 "/></g></g></g><g fill="#ffec45" fill-opacity="1"><g transform="translate(347.831205, 198.119516)"><g><path d="M 9.359375 -1.375 L 9.359375 -2.953125 C 9.359375 -3.859375 8.898438 -4.3125 7.984375 -4.3125 L 6.40625 -4.3125 C 5.5 -4.3125 5.046875 -4.769531 5.046875 -5.6875 L 5.046875 -66.03125 C 5.046875 -66.9375 5.5 -67.390625 6.40625 -67.390625 L 23.109375 -67.390625 C 24.023438 -67.390625 24.484375 -66.9375 24.484375 -66.03125 L 24.484375 -5.6875 C 24.484375 -4.769531 24.9375 -4.3125 25.84375 -4.3125 L 27.9375 -4.3125 C 28.84375 -4.3125 29.296875 -4.769531 29.296875 -5.6875 L 29.296875 -7.265625 C 29.296875 -8.179688 29.753906 -8.640625 30.671875 -8.640625 L 32.25 -8.640625 C 33.164062 -8.640625 33.625 -9.097656 33.625 -10.015625 L 33.625 -66.03125 C 33.625 -66.9375 34.078125 -67.390625 34.984375 -67.390625 L 51.703125 -67.390625 C 52.609375 -67.390625 53.0625 -66.9375 53.0625 -66.03125 L 53.0625 -5.6875 C 53.0625 -4.769531 53.519531 -4.3125 54.4375 -4.3125 L 56.515625 -4.3125 C 57.429688 -4.3125 57.890625 -4.769531 57.890625 -5.6875 L 57.890625 -7.265625 C 57.890625 -8.179688 58.34375 -8.640625 59.25 -8.640625 L 60.84375 -8.640625 C 61.75 -8.640625 62.203125 -9.097656 62.203125 -10.015625 L 62.203125 -66.03125 C 62.203125 -66.9375 62.660156 -67.390625 63.578125 -67.390625 L 80.28125 -67.390625 C 81.1875 -67.390625 81.640625 -66.9375 81.640625 -66.03125 L 81.640625 -18.640625 C 81.640625 -17.734375 81.1875 -17.28125 80.28125 -17.28125 L 78.703125 -17.28125 C 77.785156 -17.28125 77.328125 -16.820312 77.328125 -15.90625 L 77.328125 -14.328125 C 77.328125 -13.410156 76.867188 -12.953125 75.953125 -12.953125 L 72.21875 -12.953125 C 71.300781 -12.953125 70.84375 -12.5 70.84375 -11.59375 L 70.84375 -10.015625 C 70.84375 -9.097656 70.390625 -8.640625 69.484375 -8.640625 L 67.890625 -8.640625 C 66.984375 -8.640625 66.53125 -8.179688 66.53125 -7.265625 L 66.53125 -5.6875 C 66.53125 -4.769531 66.070312 -4.3125 65.15625 -4.3125 L 64.4375 -4.3125 C 63.53125 -4.3125 63.078125 -3.859375 63.078125 -2.953125 L 63.078125 -1.375 C 63.078125 -0.457031 62.617188 0 61.703125 0 L 47.953125 0 C 47.035156 0 46.578125 -0.457031 46.578125 -1.375 L 46.578125 -2.953125 C 46.578125 -3.859375 46.125 -4.3125 45.21875 -4.3125 L 43.625 -4.3125 C 42.71875 -4.3125 42.265625 -4.769531 42.265625 -5.6875 L 42.265625 -7.265625 C 42.265625 -8.179688 41.804688 -8.640625 40.890625 -8.640625 L 39.3125 -8.640625 C 38.394531 -8.640625 37.9375 -8.179688 37.9375 -7.265625 L 37.9375 -5.6875 C 37.9375 -4.769531 37.484375 -4.3125 36.578125 -4.3125 L 34.984375 -4.3125 C 34.078125 -4.3125 33.625 -3.859375 33.625 -2.953125 L 33.625 -1.375 C 33.625 -0.457031 33.164062 0 32.25 0 L 10.734375 0 C 9.816406 0 9.359375 -0.457031 9.359375 -1.375 Z M 9.359375 -1.375 "/></g></g></g><g fill="#ffec45" fill-opacity="1"><g transform="translate(433.79917, 198.119516)"><g><path d="M 5.046875 -1.375 L 5.046875 -66.03125 C 5.046875 -66.9375 5.5 -67.390625 6.40625 -67.390625 L 10.21875 -67.390625 C 11.132812 -67.390625 11.59375 -66.9375 11.59375 -66.03125 L 11.59375 -64.4375 C 11.59375 -63.53125 12.046875 -63.078125 12.953125 -63.078125 L 14.546875 -63.078125 C 15.453125 -63.078125 15.90625 -62.617188 15.90625 -61.703125 L 15.90625 -60.125 C 15.90625 -59.207031 16.363281 -58.75 17.28125 -58.75 L 18.859375 -58.75 C 19.773438 -58.75 20.234375 -58.296875 20.234375 -57.390625 L 20.234375 -55.796875 C 20.234375 -54.890625 20.6875 -54.4375 21.59375 -54.4375 L 23.1875 -54.4375 C 24.09375 -54.4375 24.546875 -53.976562 24.546875 -53.0625 L 24.546875 -51.484375 C 24.546875 -50.566406 25.003906 -50.109375 25.921875 -50.109375 L 27.5 -50.109375 C 28.414062 -50.109375 28.875 -49.65625 28.875 -48.75 L 28.875 -47.15625 C 28.875 -46.25 29.328125 -45.796875 30.234375 -45.796875 L 31.828125 -45.796875 C 32.734375 -45.796875 33.1875 -45.335938 33.1875 -44.421875 L 33.1875 -42.84375 C 33.1875 -41.925781 33.644531 -41.46875 34.5625 -41.46875 L 36.140625 -41.46875 C 37.054688 -41.46875 37.515625 -41.015625 37.515625 -40.109375 L 37.515625 -38.515625 C 37.515625 -37.609375 37.96875 -37.15625 38.875 -37.15625 L 40.46875 -37.15625 C 41.375 -37.15625 41.828125 -37.609375 41.828125 -38.515625 L 41.828125 -40.109375 C 41.828125 -41.015625 41.375 -41.46875 40.46875 -41.46875 L 38.875 -41.46875 C 37.96875 -41.46875 37.515625 -41.925781 37.515625 -42.84375 L 37.515625 -44.421875 C 37.515625 -45.335938 37.054688 -45.796875 36.140625 -45.796875 L 34.5625 -45.796875 C 33.644531 -45.796875 33.1875 -46.25 33.1875 -47.15625 L 33.1875 -66.03125 C 33.1875 -66.9375 33.644531 -67.390625 34.5625 -67.390625 L 51.265625 -67.390625 C 52.171875 -67.390625 52.625 -66.9375 52.625 -66.03125 L 52.625 -1.375 C 52.625 -0.457031 52.171875 0 51.265625 0 L 34.5625 0 C 33.644531 0 33.1875 -0.457031 33.1875 -1.375 L 33.1875 -35.78125 C 33.1875 -36.695312 32.734375 -37.15625 31.828125 -37.15625 L 30.234375 -37.15625 C 29.328125 -37.15625 28.875 -37.609375 28.875 -38.515625 L 28.875 -40.109375 C 28.875 -41.015625 28.414062 -41.46875 27.5 -41.46875 L 25.84375 -41.46875 C 24.9375 -41.46875 24.484375 -41.015625 24.484375 -40.109375 L 24.484375 -1.375 C 24.484375 -0.457031 24.023438 0 23.109375 0 L 6.40625 0 C 5.5 0 5.046875 -0.457031 5.046875 -1.375 Z M 5.046875 -1.375 "/></g></g></g></svg>