<svg xmlns="http://www.w3.org/2000/svg" xmlns:xlink="http://www.w3.org/1999/xlink" width="672" zoomAndPan="magnify" viewBox="0 0 504 359.999987" height="480" preserveAspectRatio="xMidYMid meet" version="1.0"><defs><g/></defs><g fill="#000000" fill-opacity="0.5608"><g transform="translate(32.157406, 160.652119)"><g><path d="M 19.78125 -15 L 15.9375 -15 C 15.34375 -15 15.046875 -14.695312 15.046875 -14.09375 L 15.046875 -3.71875 C 15.046875 -3.113281 15.34375 -2.8125 15.9375 -2.8125 L 16.96875 -2.8125 C 17.5625 -2.8125 17.859375 -3.113281 17.859375 -3.71875 L 17.859375 -4.75 C 17.859375 -5.34375 18.15625 -5.640625 18.75 -5.640625 L 19.78125 -5.640625 C 20.382812 -5.640625 20.6875 -5.9375 20.6875 -6.53125 L 20.6875 -14.09375 C 20.6875 -14.695312 20.382812 -15 19.78125 -15 Z M 5.171875 -0.890625 L 5.171875 -1.921875 C 5.171875 -2.515625 4.875 -2.8125 4.28125 -2.8125 L 3.25 -2.8125 C 2.644531 -2.8125 2.34375 -3.113281 2.34375 -3.71875 L 2.34375 -14.09375 C 2.34375 -14.695312 2.644531 -15 3.25 -15 L 4.28125 -15 C 4.875 -15 5.171875 -15.296875 5.171875 -15.890625 L 5.171875 -16.921875 C 5.171875 -17.515625 5.46875 -17.8125 6.0625 -17.8125 L 16.96875 -17.8125 C 17.5625 -17.8125 17.859375 -18.109375 17.859375 -18.703125 L 17.859375 -19.734375 C 17.859375 -20.335938 18.15625 -20.640625 18.75 -20.640625 L 21.203125 -20.640625 C 21.796875 -20.640625 22.09375 -20.9375 22.09375 -21.53125 L 22.09375 -29.1875 C 22.09375 -29.78125 21.796875 -30.078125 21.203125 -30.078125 L 18.75 -30.078125 C 18.15625 -30.078125 17.859375 -29.78125 17.859375 -29.1875 L 17.859375 -25.328125 C 17.859375 -24.734375 17.5625 -24.4375 16.96875 -24.4375 L 15.9375 -24.4375 C 15.34375 -24.4375 15.046875 -24.140625 15.046875 -23.546875 L 15.046875 -21.109375 C 15.046875 -20.503906 14.742188 -20.203125 14.140625 -20.203125 L 4.65625 -20.203125 C 4.0625 -20.203125 3.765625 -20.503906 3.765625 -21.109375 L 3.765625 -29.1875 C 3.765625 -29.78125 4.0625 -30.078125 4.65625 -30.078125 L 6.390625 -30.078125 C 6.984375 -30.078125 7.28125 -30.375 7.28125 -30.96875 L 7.28125 -32 C 7.28125 -32.601562 7.578125 -32.90625 8.171875 -32.90625 L 29.65625 -32.90625 C 30.25 -32.90625 30.546875 -32.601562 30.546875 -32 L 30.546875 -30.96875 C 30.546875 -30.375 30.84375 -30.078125 31.4375 -30.078125 L 32.484375 -30.078125 C 33.078125 -30.078125 33.375 -29.78125 33.375 -29.1875 L 33.375 -0.890625 C 33.375 -0.296875 33.078125 0 32.484375 0 L 24.390625 0 C 23.796875 0 23.5 -0.296875 23.5 -0.890625 L 23.5 -1.921875 C 23.5 -2.515625 23.203125 -2.8125 22.609375 -2.8125 L 21.578125 -2.8125 C 20.984375 -2.8125 20.6875 -2.515625 20.6875 -1.921875 L 20.6875 -0.890625 C 20.6875 -0.296875 20.382812 0 19.78125 0 L 6.0625 0 C 5.46875 0 5.171875 -0.296875 5.171875 -0.890625 Z M 5.171875 -0.890625 "/></g></g></g><g fill="#000000" fill-opacity="0.5608"><g transform="translate(68.811261, 160.652119)"><g><path d="M 3.296875 -0.890625 L 3.296875 -32 C 3.296875 -32.601562 3.59375 -32.90625 4.1875 -32.90625 L 10.859375 -32.90625 C 11.453125 -32.90625 11.75 -32.601562 11.75 -32 L 11.75 -28.15625 C 11.75 -27.5625 12.046875 -27.265625 12.640625 -27.265625 L 13.671875 -27.265625 C 14.265625 -27.265625 14.5625 -27.5625 14.5625 -28.15625 L 14.5625 -29.1875 C 14.5625 -29.78125 14.863281 -30.078125 15.46875 -30.078125 L 16.5 -30.078125 C 17.09375 -30.078125 17.390625 -30.375 17.390625 -30.96875 L 17.390625 -32 C 17.390625 -32.601562 17.6875 -32.90625 18.28125 -32.90625 L 26.359375 -32.90625 C 26.960938 -32.90625 27.265625 -32.601562 27.265625 -32 L 27.265625 -30.96875 C 27.265625 -30.375 27.5625 -30.078125 28.15625 -30.078125 L 29.1875 -30.078125 C 29.4375 -30.078125 29.5625 -30.078125 29.5625 -30.078125 C 29.5625 -30.078125 29.4375 -30.078125 29.1875 -30.078125 L 28.15625 -30.078125 C 27.90625 -30.078125 27.78125 -30.078125 27.78125 -30.078125 C 27.78125 -30.078125 27.90625 -30.078125 28.15625 -30.078125 L 29.1875 -30.078125 C 29.78125 -30.078125 30.078125 -29.78125 30.078125 -29.1875 L 30.078125 -22.703125 C 30.078125 -22.109375 29.78125 -21.8125 29.1875 -21.8125 L 19.6875 -21.8125 C 19.09375 -21.8125 18.796875 -22.109375 18.796875 -22.703125 L 18.796875 -26.359375 C 18.796875 -26.960938 18.5 -27.265625 17.90625 -27.265625 L 16.875 -27.265625 C 16.28125 -27.265625 15.984375 -26.960938 15.984375 -26.359375 L 15.984375 -0.890625 C 15.984375 -0.296875 15.6875 0 15.09375 0 L 4.1875 0 C 3.59375 0 3.296875 -0.296875 3.296875 -0.890625 Z M 3.296875 -0.890625 "/></g></g></g><g fill="#000000" fill-opacity="0.5608"><g transform="translate(99.826063, 160.652119)"><g><path d="M 8.9375 -0.890625 L 8.9375 -1.921875 C 8.9375 -2.515625 8.632812 -2.8125 8.03125 -2.8125 L 7 -2.8125 C 6.40625 -2.8125 6.109375 -3.113281 6.109375 -3.71875 L 6.109375 -4.75 C 6.109375 -5.34375 5.8125 -5.640625 5.21875 -5.640625 L 4.1875 -5.640625 C 3.59375 -5.640625 3.296875 -5.9375 3.296875 -6.53125 L 3.296875 -26.359375 C 3.296875 -26.960938 3.59375 -27.265625 4.1875 -27.265625 L 5.21875 -27.265625 C 5.8125 -27.265625 6.109375 -27.5625 6.109375 -28.15625 L 6.109375 -29.1875 C 6.109375 -29.78125 6.40625 -30.078125 7 -30.078125 L 8.03125 -30.078125 C 8.632812 -30.078125 8.9375 -30.375 8.9375 -30.96875 L 8.9375 -32 C 8.9375 -32.601562 9.234375 -32.90625 9.828125 -32.90625 L 27.78125 -32.90625 C 28.375 -32.90625 28.671875 -32.601562 28.671875 -32 L 28.671875 -30.96875 C 28.671875 -30.375 28.96875 -30.078125 29.5625 -30.078125 L 30.59375 -30.078125 C 31.1875 -30.078125 31.484375 -29.78125 31.484375 -29.1875 L 31.484375 -28.15625 C 31.484375 -27.5625 31.785156 -27.265625 32.390625 -27.265625 L 33.421875 -27.265625 C 34.015625 -27.265625 34.3125 -26.960938 34.3125 -26.359375 L 34.3125 -18.75 C 34.3125 -18.15625 34.015625 -17.859375 33.421875 -17.859375 L 32.390625 -17.859375 C 31.785156 -17.859375 31.484375 -17.5625 31.484375 -16.96875 L 31.484375 -15.9375 C 31.484375 -15.34375 31.1875 -15.046875 30.59375 -15.046875 L 16.875 -15.046875 C 16.28125 -15.046875 15.984375 -14.742188 15.984375 -14.140625 L 15.984375 -3.71875 C 15.984375 -3.113281 16.28125 -2.8125 16.875 -2.8125 L 17.90625 -2.8125 C 18.5 -2.8125 18.796875 -3.113281 18.796875 -3.71875 L 18.796875 -4.75 C 18.796875 -5.34375 19.09375 -5.640625 19.6875 -5.640625 L 20.734375 -5.640625 C 21.328125 -5.640625 21.625 -5.9375 21.625 -6.53125 L 21.625 -9.78125 C 21.625 -10.375 21.921875 -10.671875 22.515625 -10.671875 L 33.421875 -10.671875 C 34.015625 -10.671875 34.3125 -10.375 34.3125 -9.78125 L 34.3125 -6.53125 C 34.3125 -5.9375 34.015625 -5.640625 33.421875 -5.640625 L 32.390625 -5.640625 C 31.785156 -5.640625 31.484375 -5.34375 31.484375 -4.75 L 31.484375 -3.71875 C 31.484375 -3.113281 31.1875 -2.8125 30.59375 -2.8125 L 29.5625 -2.8125 C 28.96875 -2.8125 28.671875 -2.515625 28.671875 -1.921875 L 28.671875 -0.890625 C 28.671875 -0.296875 28.375 0 27.78125 0 L 9.828125 0 C 9.234375 0 8.9375 -0.296875 8.9375 -0.890625 Z M 16.875 -17.859375 L 20.734375 -17.859375 C 21.328125 -17.859375 21.625 -18.15625 21.625 -18.75 L 21.625 -29.1875 C 21.625 -29.78125 21.328125 -30.078125 20.734375 -30.078125 L 19.6875 -30.078125 C 19.09375 -30.078125 18.796875 -29.78125 18.796875 -29.1875 L 18.796875 -28.15625 C 18.796875 -27.5625 18.5 -27.265625 17.90625 -27.265625 L 16.875 -27.265625 C 16.28125 -27.265625 15.984375 -26.960938 15.984375 -26.359375 L 15.984375 -18.75 C 15.984375 -18.15625 16.28125 -17.859375 16.875 -17.859375 Z M 16.875 -17.859375 "/></g></g></g><g fill="#000000" fill-opacity="0.5608"><g transform="translate(136.479919, 160.652119)"><g/></g></g><g fill="#000000" fill-opacity="0.5608"><g transform="translate(148.227953, 160.652119)"><g><path d="M 6.109375 -0.890625 L 6.109375 -1.921875 C 6.109375 -2.515625 5.8125 -2.8125 5.21875 -2.8125 L 4.1875 -2.8125 C 3.9375 -2.8125 3.8125 -2.8125 3.8125 -2.8125 C 3.8125 -2.8125 3.9375 -2.8125 4.1875 -2.8125 L 5.21875 -2.8125 C 5.46875 -2.8125 5.59375 -2.8125 5.59375 -2.8125 C 5.59375 -2.8125 5.46875 -2.8125 5.21875 -2.8125 L 4.1875 -2.8125 C 3.59375 -2.8125 3.296875 -3.113281 3.296875 -3.71875 L 3.296875 -32 C 3.296875 -32.601562 3.59375 -32.90625 4.1875 -32.90625 L 15.09375 -32.90625 C 15.6875 -32.90625 15.984375 -32.601562 15.984375 -32 L 15.984375 -3.71875 C 15.984375 -3.113281 16.28125 -2.8125 16.875 -2.8125 L 17.90625 -2.8125 C 18.5 -2.8125 18.796875 -3.113281 18.796875 -3.71875 L 18.796875 -4.75 C 18.796875 -5.34375 19.09375 -5.640625 19.6875 -5.640625 L 20.734375 -5.640625 C 21.328125 -5.640625 21.625 -5.9375 21.625 -6.53125 L 21.625 -32 C 21.625 -32.601562 21.921875 -32.90625 22.515625 -32.90625 L 33.421875 -32.90625 C 34.015625 -32.90625 34.3125 -32.601562 34.3125 -32 L 34.3125 5.21875 C 34.3125 5.8125 34.015625 6.109375 33.421875 6.109375 L 32.390625 6.109375 C 31.785156 6.109375 31.484375 6.40625 31.484375 7 L 31.484375 8.03125 C 31.484375 8.632812 31.1875 8.9375 30.59375 8.9375 L 29.5625 8.9375 C 28.96875 8.9375 28.671875 9.234375 28.671875 9.828125 L 28.671875 10.859375 C 28.671875 11.453125 28.375 11.75 27.78125 11.75 L 7 11.75 C 6.40625 11.75 6.109375 11.453125 6.109375 10.859375 L 6.109375 9.828125 C 6.109375 9.234375 5.8125 8.9375 5.21875 8.9375 L 4.1875 8.9375 C 3.9375 8.9375 3.8125 8.9375 3.8125 8.9375 C 3.8125 8.9375 3.9375 8.9375 4.1875 8.9375 L 5.21875 8.9375 C 5.46875 8.9375 5.59375 8.9375 5.59375 8.9375 C 5.59375 8.9375 5.46875 8.9375 5.21875 8.9375 L 4.1875 8.9375 C 3.59375 8.9375 3.296875 8.632812 3.296875 8.03125 L 3.296875 4.1875 C 3.296875 3.59375 3.59375 3.296875 4.1875 3.296875 L 15.09375 3.296875 C 15.6875 3.296875 15.984375 3.59375 15.984375 4.1875 L 15.984375 4.9375 C 15.984375 5.53125 16.28125 5.828125 16.875 5.828125 L 17.4375 5.828125 C 18.03125 5.828125 18.328125 6.125 18.328125 6.71875 L 18.328125 8.03125 C 18.328125 8.632812 18.625 8.9375 19.21875 8.9375 L 22.140625 8.9375 C 22.734375 8.9375 23.03125 8.632812 23.03125 8.03125 L 23.03125 -1.921875 C 23.03125 -2.515625 22.734375 -2.8125 22.140625 -2.8125 L 21.109375 -2.8125 C 20.503906 -2.8125 20.203125 -2.515625 20.203125 -1.921875 L 20.203125 -0.890625 C 20.203125 -0.296875 19.90625 0 19.3125 0 L 7 0 C 6.40625 0 6.109375 -0.296875 6.109375 -0.890625 Z M 6.109375 -0.890625 "/></g></g></g><g fill="#000000" fill-opacity="0.5608"><g transform="translate(185.821655, 160.652119)"><g><path d="M 8.9375 -0.890625 L 8.9375 -1.921875 C 8.9375 -2.515625 8.632812 -2.8125 8.03125 -2.8125 L 7 -2.8125 C 6.40625 -2.8125 6.109375 -3.113281 6.109375 -3.71875 L 6.109375 -4.75 C 6.109375 -5.34375 5.8125 -5.640625 5.21875 -5.640625 L 4.1875 -5.640625 C 3.59375 -5.640625 3.296875 -5.9375 3.296875 -6.53125 L 3.296875 -26.359375 C 3.296875 -26.960938 3.59375 -27.265625 4.1875 -27.265625 L 5.21875 -27.265625 C 5.8125 -27.265625 6.109375 -27.5625 6.109375 -28.15625 L 6.109375 -29.1875 C 6.109375 -29.78125 6.40625 -30.078125 7 -30.078125 L 8.03125 -30.078125 C 8.632812 -30.078125 8.9375 -30.375 8.9375 -30.96875 L 8.9375 -32 C 8.9375 -32.601562 9.234375 -32.90625 9.828125 -32.90625 L 27.78125 -32.90625 C 28.375 -32.90625 28.671875 -32.601562 28.671875 -32 L 28.671875 -30.96875 C 28.671875 -30.375 28.96875 -30.078125 29.5625 -30.078125 L 30.59375 -30.078125 C 31.1875 -30.078125 31.484375 -29.78125 31.484375 -29.1875 L 31.484375 -28.15625 C 31.484375 -27.5625 31.785156 -27.265625 32.390625 -27.265625 L 33.421875 -27.265625 C 34.015625 -27.265625 34.3125 -26.960938 34.3125 -26.359375 L 34.3125 -6.53125 C 34.3125 -5.9375 34.015625 -5.640625 33.421875 -5.640625 L 32.390625 -5.640625 C 31.785156 -5.640625 31.484375 -5.34375 31.484375 -4.75 L 31.484375 -3.71875 C 31.484375 -3.113281 31.1875 -2.8125 30.59375 -2.8125 L 29.5625 -2.8125 C 28.96875 -2.8125 28.671875 -2.515625 28.671875 -1.921875 L 28.671875 -0.890625 C 28.671875 -0.296875 28.375 0 27.78125 0 L 9.828125 0 C 9.234375 0 8.9375 -0.296875 8.9375 -0.890625 Z M 19.6875 -5.640625 L 20.734375 -5.640625 C 21.328125 -5.640625 21.625 -5.9375 21.625 -6.53125 L 21.625 -29.1875 C 21.625 -29.78125 21.328125 -30.078125 20.734375 -30.078125 L 19.6875 -30.078125 C 19.09375 -30.078125 18.796875 -29.78125 18.796875 -29.1875 L 18.796875 -28.15625 C 18.796875 -27.5625 18.5 -27.265625 17.90625 -27.265625 L 16.875 -27.265625 C 16.28125 -27.265625 15.984375 -26.960938 15.984375 -26.359375 L 15.984375 -3.71875 C 15.984375 -3.113281 16.28125 -2.8125 16.875 -2.8125 L 17.90625 -2.8125 C 18.5 -2.8125 18.796875 -3.113281 18.796875 -3.71875 L 18.796875 -4.75 C 18.796875 -5.34375 19.09375 -5.640625 19.6875 -5.640625 Z M 19.6875 -5.640625 "/></g></g></g><g fill="#000000" fill-opacity="0.5608"><g transform="translate(223.415356, 160.652119)"><g><path d="M 8.9375 -0.84375 L 8.9375 -1.875 C 8.9375 -2.46875 8.632812 -2.765625 8.03125 -2.765625 L 7 -2.765625 C 6.40625 -2.765625 6.109375 -3.066406 6.109375 -3.671875 L 6.109375 -4.703125 C 6.109375 -5.296875 5.8125 -5.59375 5.21875 -5.59375 L 4.1875 -5.59375 C 3.59375 -5.59375 3.296875 -5.890625 3.296875 -6.484375 L 3.296875 -31.953125 C 3.296875 -32.554688 3.59375 -32.859375 4.1875 -32.859375 L 15.09375 -32.859375 C 15.6875 -32.859375 15.984375 -32.554688 15.984375 -31.953125 L 15.984375 -3.671875 C 15.984375 -3.066406 16.28125 -2.765625 16.875 -2.765625 L 17.90625 -2.765625 C 18.5 -2.765625 18.796875 -3.066406 18.796875 -3.671875 L 18.796875 -4.703125 C 18.796875 -5.296875 19.09375 -5.59375 19.6875 -5.59375 L 20.734375 -5.59375 C 21.328125 -5.59375 21.625 -5.890625 21.625 -6.484375 L 21.625 -31.953125 C 21.625 -32.554688 21.921875 -32.859375 22.515625 -32.859375 L 33.421875 -32.859375 C 34.015625 -32.859375 34.3125 -32.554688 34.3125 -31.953125 L 34.3125 -6.484375 C 34.3125 -5.890625 34.015625 -5.59375 33.421875 -5.59375 L 32.390625 -5.59375 C 31.785156 -5.59375 31.484375 -5.296875 31.484375 -4.703125 L 31.484375 -3.671875 C 31.484375 -3.066406 31.1875 -2.765625 30.59375 -2.765625 L 29.5625 -2.765625 C 28.96875 -2.765625 28.671875 -2.46875 28.671875 -1.875 L 28.671875 -0.84375 C 28.671875 -0.25 28.375 0.046875 27.78125 0.046875 L 9.828125 0.046875 C 9.234375 0.046875 8.9375 -0.25 8.9375 -0.84375 Z M 8.9375 -0.84375 "/></g></g></g><g fill="#000000" fill-opacity="0.5608"><g transform="translate(261.009057, 160.652119)"><g/></g></g><g fill="#000000" fill-opacity="0.5608"><g transform="translate(272.757103, 160.652119)"><g><path d="M 19.78125 -15 L 15.9375 -15 C 15.34375 -15 15.046875 -14.695312 15.046875 -14.09375 L 15.046875 -3.71875 C 15.046875 -3.113281 15.34375 -2.8125 15.9375 -2.8125 L 16.96875 -2.8125 C 17.5625 -2.8125 17.859375 -3.113281 17.859375 -3.71875 L 17.859375 -4.75 C 17.859375 -5.34375 18.15625 -5.640625 18.75 -5.640625 L 19.78125 -5.640625 C 20.382812 -5.640625 20.6875 -5.9375 20.6875 -6.53125 L 20.6875 -14.09375 C 20.6875 -14.695312 20.382812 -15 19.78125 -15 Z M 5.171875 -0.890625 L 5.171875 -1.921875 C 5.171875 -2.515625 4.875 -2.8125 4.28125 -2.8125 L 3.25 -2.8125 C 2.644531 -2.8125 2.34375 -3.113281 2.34375 -3.71875 L 2.34375 -14.09375 C 2.34375 -14.695312 2.644531 -15 3.25 -15 L 4.28125 -15 C 4.875 -15 5.171875 -15.296875 5.171875 -15.890625 L 5.171875 -16.921875 C 5.171875 -17.515625 5.46875 -17.8125 6.0625 -17.8125 L 16.96875 -17.8125 C 17.5625 -17.8125 17.859375 -18.109375 17.859375 -18.703125 L 17.859375 -19.734375 C 17.859375 -20.335938 18.15625 -20.640625 18.75 -20.640625 L 21.203125 -20.640625 C 21.796875 -20.640625 22.09375 -20.9375 22.09375 -21.53125 L 22.09375 -29.1875 C 22.09375 -29.78125 21.796875 -30.078125 21.203125 -30.078125 L 18.75 -30.078125 C 18.15625 -30.078125 17.859375 -29.78125 17.859375 -29.1875 L 17.859375 -25.328125 C 17.859375 -24.734375 17.5625 -24.4375 16.96875 -24.4375 L 15.9375 -24.4375 C 15.34375 -24.4375 15.046875 -24.140625 15.046875 -23.546875 L 15.046875 -21.109375 C 15.046875 -20.503906 14.742188 -20.203125 14.140625 -20.203125 L 4.65625 -20.203125 C 4.0625 -20.203125 3.765625 -20.503906 3.765625 -21.109375 L 3.765625 -29.1875 C 3.765625 -29.78125 4.0625 -30.078125 4.65625 -30.078125 L 6.390625 -30.078125 C 6.984375 -30.078125 7.28125 -30.375 7.28125 -30.96875 L 7.28125 -32 C 7.28125 -32.601562 7.578125 -32.90625 8.171875 -32.90625 L 29.65625 -32.90625 C 30.25 -32.90625 30.546875 -32.601562 30.546875 -32 L 30.546875 -30.96875 C 30.546875 -30.375 30.84375 -30.078125 31.4375 -30.078125 L 32.484375 -30.078125 C 33.078125 -30.078125 33.375 -29.78125 33.375 -29.1875 L 33.375 -0.890625 C 33.375 -0.296875 33.078125 0 32.484375 0 L 24.390625 0 C 23.796875 0 23.5 -0.296875 23.5 -0.890625 L 23.5 -1.921875 C 23.5 -2.515625 23.203125 -2.8125 22.609375 -2.8125 L 21.578125 -2.8125 C 20.984375 -2.8125 20.6875 -2.515625 20.6875 -1.921875 L 20.6875 -0.890625 C 20.6875 -0.296875 20.382812 0 19.78125 0 L 6.0625 0 C 5.46875 0 5.171875 -0.296875 5.171875 -0.890625 Z M 5.171875 -0.890625 "/></g></g></g><g fill="#000000" fill-opacity="0.5608"><g transform="translate(309.41097, 160.652119)"><g/></g></g><g fill="#000000" fill-opacity="0.5608"><g transform="translate(321.159016, 160.652119)"><g><path d="M 3.296875 -0.890625 L 3.296875 -44.515625 C 3.296875 -45.109375 3.59375 -45.40625 4.1875 -45.40625 L 15.09375 -45.40625 C 15.6875 -45.40625 15.984375 -45.109375 15.984375 -44.515625 L 15.984375 -0.890625 C 15.984375 -0.296875 15.6875 0 15.09375 0 L 4.1875 0 C 3.59375 0 3.296875 -0.296875 3.296875 -0.890625 Z M 3.296875 -0.890625 "/></g></g></g><g fill="#000000" fill-opacity="0.5608"><g transform="translate(340.425784, 160.652119)"><g><path d="M 3.296875 -0.890625 L 3.296875 -32 C 3.296875 -32.601562 3.59375 -32.90625 4.1875 -32.90625 L 15.09375 -32.90625 C 15.6875 -32.90625 15.984375 -32.601562 15.984375 -32 L 15.984375 -0.890625 C 15.984375 -0.296875 15.6875 0 15.09375 0 L 4.1875 0 C 3.59375 0 3.296875 -0.296875 3.296875 -0.890625 Z M 4.703125 -36.609375 L 4.703125 -36.703125 C 4.703125 -37.296875 4.375 -37.59375 3.71875 -37.59375 C 3.113281 -37.59375 2.8125 -37.894531 2.8125 -38.5 L 2.8125 -42.8125 C 2.8125 -43.40625 3.144531 -43.703125 3.8125 -43.703125 C 4.40625 -43.703125 4.703125 -44.035156 4.703125 -44.703125 C 4.703125 -45.296875 5 -45.59375 5.59375 -45.59375 L 13.671875 -45.59375 C 14.265625 -45.59375 14.5625 -45.265625 14.5625 -44.609375 C 14.5625 -44.003906 14.894531 -43.703125 15.5625 -43.703125 C 16.15625 -43.703125 16.453125 -43.40625 16.453125 -42.8125 L 16.453125 -38.5 C 16.453125 -37.894531 16.125 -37.59375 15.46875 -37.59375 C 14.863281 -37.59375 14.5625 -37.265625 14.5625 -36.609375 C 14.5625 -36.015625 14.265625 -35.71875 13.671875 -35.71875 L 5.59375 -35.71875 C 5 -35.71875 4.703125 -36.015625 4.703125 -36.609375 Z M 4.703125 -36.609375 "/></g></g></g><g fill="#000000" fill-opacity="0.5608"><g transform="translate(359.692552, 160.652119)"><g><path d="M 7.984375 -0.890625 L 7.984375 -1.921875 C 7.984375 -2.515625 7.6875 -2.8125 7.09375 -2.8125 L 6.0625 -2.8125 C 5.46875 -2.8125 5.171875 -3.113281 5.171875 -3.71875 L 5.171875 -29.234375 C 5.171875 -29.828125 4.875 -30.125 4.28125 -30.125 L 2.765625 -30.125 C 2.171875 -30.125 1.875 -30.421875 1.875 -31.015625 L 1.875 -32 C 1.875 -32.601562 2.171875 -32.90625 2.765625 -32.90625 L 4.28125 -32.90625 C 4.875 -32.90625 5.171875 -33.203125 5.171875 -33.796875 L 5.171875 -40.328125 C 5.171875 -40.921875 5.46875 -41.21875 6.0625 -41.21875 L 16.96875 -41.21875 C 17.5625 -41.21875 17.859375 -40.921875 17.859375 -40.328125 L 17.859375 -33.796875 C 17.859375 -33.203125 18.15625 -32.90625 18.75 -32.90625 L 23.5 -32.90625 C 24.09375 -32.90625 24.390625 -32.601562 24.390625 -32 L 24.390625 -31.015625 C 24.390625 -30.421875 24.09375 -30.125 23.5 -30.125 L 18.75 -30.125 C 18.15625 -30.125 17.859375 -29.828125 17.859375 -29.234375 L 17.859375 -3.71875 C 17.859375 -3.113281 18.15625 -2.8125 18.75 -2.8125 L 19.78125 -2.8125 C 20.382812 -2.8125 20.6875 -3.113281 20.6875 -3.71875 L 20.6875 -8.5 C 20.6875 -9.101562 20.984375 -9.40625 21.578125 -9.40625 L 29.1875 -9.40625 C 29.78125 -9.40625 30.078125 -9.101562 30.078125 -8.5 L 30.078125 -3.71875 C 30.078125 -3.113281 29.78125 -2.8125 29.1875 -2.8125 L 26.75 -2.8125 C 26.144531 -2.8125 25.84375 -2.515625 25.84375 -1.921875 L 25.84375 -0.890625 C 25.84375 -0.296875 25.546875 0 24.953125 0 L 8.890625 0 C 8.285156 0 7.984375 -0.296875 7.984375 -0.890625 Z M 7.984375 -0.890625 "/></g></g></g><g fill="#000000" fill-opacity="0.5608"><g transform="translate(390.237425, 160.652119)"><g><path d="M 7.984375 -0.890625 L 7.984375 -1.921875 C 7.984375 -2.515625 7.6875 -2.8125 7.09375 -2.8125 L 6.0625 -2.8125 C 5.46875 -2.8125 5.171875 -3.113281 5.171875 -3.71875 L 5.171875 -29.234375 C 5.171875 -29.828125 4.875 -30.125 4.28125 -30.125 L 2.765625 -30.125 C 2.171875 -30.125 1.875 -30.421875 1.875 -31.015625 L 1.875 -32 C 1.875 -32.601562 2.171875 -32.90625 2.765625 -32.90625 L 4.28125 -32.90625 C 4.875 -32.90625 5.171875 -33.203125 5.171875 -33.796875 L 5.171875 -40.328125 C 5.171875 -40.921875 5.46875 -41.21875 6.0625 -41.21875 L 16.96875 -41.21875 C 17.5625 -41.21875 17.859375 -40.921875 17.859375 -40.328125 L 17.859375 -33.796875 C 17.859375 -33.203125 18.15625 -32.90625 18.75 -32.90625 L 23.5 -32.90625 C 24.09375 -32.90625 24.390625 -32.601562 24.390625 -32 L 24.390625 -31.015625 C 24.390625 -30.421875 24.09375 -30.125 23.5 -30.125 L 18.75 -30.125 C 18.15625 -30.125 17.859375 -29.828125 17.859375 -29.234375 L 17.859375 -3.71875 C 17.859375 -3.113281 18.15625 -2.8125 18.75 -2.8125 L 19.78125 -2.8125 C 20.382812 -2.8125 20.6875 -3.113281 20.6875 -3.71875 L 20.6875 -8.5 C 20.6875 -9.101562 20.984375 -9.40625 21.578125 -9.40625 L 29.1875 -9.40625 C 29.78125 -9.40625 30.078125 -9.101562 30.078125 -8.5 L 30.078125 -3.71875 C 30.078125 -3.113281 29.78125 -2.8125 29.1875 -2.8125 L 26.75 -2.8125 C 26.144531 -2.8125 25.84375 -2.515625 25.84375 -1.921875 L 25.84375 -0.890625 C 25.84375 -0.296875 25.546875 0 24.953125 0 L 8.890625 0 C 8.285156 0 7.984375 -0.296875 7.984375 -0.890625 Z M 7.984375 -0.890625 "/></g></g></g><g fill="#000000" fill-opacity="0.5608"><g transform="translate(420.782298, 160.652119)"><g><path d="M 3.296875 -0.890625 L 3.296875 -44.515625 C 3.296875 -45.109375 3.59375 -45.40625 4.1875 -45.40625 L 15.09375 -45.40625 C 15.6875 -45.40625 15.984375 -45.109375 15.984375 -44.515625 L 15.984375 -0.890625 C 15.984375 -0.296875 15.6875 0 15.09375 0 L 4.1875 0 C 3.59375 0 3.296875 -0.296875 3.296875 -0.890625 Z M 3.296875 -0.890625 "/></g></g></g><g fill="#000000" fill-opacity="0.5608"><g transform="translate(440.049066, 160.652119)"><g><path d="M 8.9375 -0.890625 L 8.9375 -1.921875 C 8.9375 -2.515625 8.632812 -2.8125 8.03125 -2.8125 L 7 -2.8125 C 6.40625 -2.8125 6.109375 -3.113281 6.109375 -3.71875 L 6.109375 -4.75 C 6.109375 -5.34375 5.8125 -5.640625 5.21875 -5.640625 L 4.1875 -5.640625 C 3.59375 -5.640625 3.296875 -5.9375 3.296875 -6.53125 L 3.296875 -26.359375 C 3.296875 -26.960938 3.59375 -27.265625 4.1875 -27.265625 L 5.21875 -27.265625 C 5.8125 -27.265625 6.109375 -27.5625 6.109375 -28.15625 L 6.109375 -29.1875 C 6.109375 -29.78125 6.40625 -30.078125 7 -30.078125 L 8.03125 -30.078125 C 8.632812 -30.078125 8.9375 -30.375 8.9375 -30.96875 L 8.9375 -32 C 8.9375 -32.601562 9.234375 -32.90625 9.828125 -32.90625 L 27.78125 -32.90625 C 28.375 -32.90625 28.671875 -32.601562 28.671875 -32 L 28.671875 -30.96875 C 28.671875 -30.375 28.96875 -30.078125 29.5625 -30.078125 L 30.59375 -30.078125 C 31.1875 -30.078125 31.484375 -29.78125 31.484375 -29.1875 L 31.484375 -28.15625 C 31.484375 -27.5625 31.785156 -27.265625 32.390625 -27.265625 L 33.421875 -27.265625 C 34.015625 -27.265625 34.3125 -26.960938 34.3125 -26.359375 L 34.3125 -18.75 C 34.3125 -18.15625 34.015625 -17.859375 33.421875 -17.859375 L 32.390625 -17.859375 C 31.785156 -17.859375 31.484375 -17.5625 31.484375 -16.96875 L 31.484375 -15.9375 C 31.484375 -15.34375 31.1875 -15.046875 30.59375 -15.046875 L 16.875 -15.046875 C 16.28125 -15.046875 15.984375 -14.742188 15.984375 -14.140625 L 15.984375 -3.71875 C 15.984375 -3.113281 16.28125 -2.8125 16.875 -2.8125 L 17.90625 -2.8125 C 18.5 -2.8125 18.796875 -3.113281 18.796875 -3.71875 L 18.796875 -4.75 C 18.796875 -5.34375 19.09375 -5.640625 19.6875 -5.640625 L 20.734375 -5.640625 C 21.328125 -5.640625 21.625 -5.9375 21.625 -6.53125 L 21.625 -9.78125 C 21.625 -10.375 21.921875 -10.671875 22.515625 -10.671875 L 33.421875 -10.671875 C 34.015625 -10.671875 34.3125 -10.375 34.3125 -9.78125 L 34.3125 -6.53125 C 34.3125 -5.9375 34.015625 -5.640625 33.421875 -5.640625 L 32.390625 -5.640625 C 31.785156 -5.640625 31.484375 -5.34375 31.484375 -4.75 L 31.484375 -3.71875 C 31.484375 -3.113281 31.1875 -2.8125 30.59375 -2.8125 L 29.5625 -2.8125 C 28.96875 -2.8125 28.671875 -2.515625 28.671875 -1.921875 L 28.671875 -0.890625 C 28.671875 -0.296875 28.375 0 27.78125 0 L 9.828125 0 C 9.234375 0 8.9375 -0.296875 8.9375 -0.890625 Z M 16.875 -17.859375 L 20.734375 -17.859375 C 21.328125 -17.859375 21.625 -18.15625 21.625 -18.75 L 21.625 -29.1875 C 21.625 -29.78125 21.328125 -30.078125 20.734375 -30.078125 L 19.6875 -30.078125 C 19.09375 -30.078125 18.796875 -29.78125 18.796875 -29.1875 L 18.796875 -28.15625 C 18.796875 -27.5625 18.5 -27.265625 17.90625 -27.265625 L 16.875 -27.265625 C 16.28125 -27.265625 15.984375 -26.960938 15.984375 -26.359375 L 15.984375 -18.75 C 15.984375 -18.15625 16.28125 -17.859375 16.875 -17.859375 Z M 16.875 -17.859375 "/></g></g></g><g fill="#ffec45" fill-opacity="1"><g transform="translate(29.718757, 158.532235)"><g><path d="M 19.78125 -15 L 15.9375 -15 C 15.34375 -15 15.046875 -14.695312 15.046875 -14.09375 L 15.046875 -3.71875 C 15.046875 -3.113281 15.34375 -2.8125 15.9375 -2.8125 L 16.96875 -2.8125 C 17.5625 -2.8125 17.859375 -3.113281 17.859375 -3.71875 L 17.859375 -4.75 C 17.859375 -5.34375 18.15625 -5.640625 18.75 -5.640625 L 19.78125 -5.640625 C 20.382812 -5.640625 20.6875 -5.9375 20.6875 -6.53125 L 20.6875 -14.09375 C 20.6875 -14.695312 20.382812 -15 19.78125 -15 Z M 5.171875 -0.890625 L 5.171875 -1.921875 C 5.171875 -2.515625 4.875 -2.8125 4.28125 -2.8125 L 3.25 -2.8125 C 2.644531 -2.8125 2.34375 -3.113281 2.34375 -3.71875 L 2.34375 -14.09375 C 2.34375 -14.695312 2.644531 -15 3.25 -15 L 4.28125 -15 C 4.875 -15 5.171875 -15.296875 5.171875 -15.890625 L 5.171875 -16.921875 C 5.171875 -17.515625 5.46875 -17.8125 6.0625 -17.8125 L 16.96875 -17.8125 C 17.5625 -17.8125 17.859375 -18.109375 17.859375 -18.703125 L 17.859375 -19.734375 C 17.859375 -20.335938 18.15625 -20.640625 18.75 -20.640625 L 21.203125 -20.640625 C 21.796875 -20.640625 22.09375 -20.9375 22.09375 -21.53125 L 22.09375 -29.1875 C 22.09375 -29.78125 21.796875 -30.078125 21.203125 -30.078125 L 18.75 -30.078125 C 18.15625 -30.078125 17.859375 -29.78125 17.859375 -29.1875 L 17.859375 -25.328125 C 17.859375 -24.734375 17.5625 -24.4375 16.96875 -24.4375 L 15.9375 -24.4375 C 15.34375 -24.4375 15.046875 -24.140625 15.046875 -23.546875 L 15.046875 -21.109375 C 15.046875 -20.503906 14.742188 -20.203125 14.140625 -20.203125 L 4.65625 -20.203125 C 4.0625 -20.203125 3.765625 -20.503906 3.765625 -21.109375 L 3.765625 -29.1875 C 3.765625 -29.78125 4.0625 -30.078125 4.65625 -30.078125 L 6.390625 -30.078125 C 6.984375 -30.078125 7.28125 -30.375 7.28125 -30.96875 L 7.28125 -32 C 7.28125 -32.601562 7.578125 -32.90625 8.171875 -32.90625 L 29.65625 -32.90625 C 30.25 -32.90625 30.546875 -32.601562 30.546875 -32 L 30.546875 -30.96875 C 30.546875 -30.375 30.84375 -30.078125 31.4375 -30.078125 L 32.484375 -30.078125 C 33.078125 -30.078125 33.375 -29.78125 33.375 -29.1875 L 33.375 -0.890625 C 33.375 -0.296875 33.078125 0 32.484375 0 L 24.390625 0 C 23.796875 0 23.5 -0.296875 23.5 -0.890625 L 23.5 -1.921875 C 23.5 -2.515625 23.203125 -2.8125 22.609375 -2.8125 L 21.578125 -2.8125 C 20.984375 -2.8125 20.6875 -2.515625 20.6875 -1.921875 L 20.6875 -0.890625 C 20.6875 -0.296875 20.382812 0 19.78125 0 L 6.0625 0 C 5.46875 0 5.171875 -0.296875 5.171875 -0.890625 Z M 5.171875 -0.890625 "/></g></g></g><g fill="#ffec45" fill-opacity="1"><g transform="translate(66.372612, 158.532235)"><g><path d="M 3.296875 -0.890625 L 3.296875 -32 C 3.296875 -32.601562 3.59375 -32.90625 4.1875 -32.90625 L 10.859375 -32.90625 C 11.453125 -32.90625 11.75 -32.601562 11.75 -32 L 11.75 -28.15625 C 11.75 -27.5625 12.046875 -27.265625 12.640625 -27.265625 L 13.671875 -27.265625 C 14.265625 -27.265625 14.5625 -27.5625 14.5625 -28.15625 L 14.5625 -29.1875 C 14.5625 -29.78125 14.863281 -30.078125 15.46875 -30.078125 L 16.5 -30.078125 C 17.09375 -30.078125 17.390625 -30.375 17.390625 -30.96875 L 17.390625 -32 C 17.390625 -32.601562 17.6875 -32.90625 18.28125 -32.90625 L 26.359375 -32.90625 C 26.960938 -32.90625 27.265625 -32.601562 27.265625 -32 L 27.265625 -30.96875 C 27.265625 -30.375 27.5625 -30.078125 28.15625 -30.078125 L 29.1875 -30.078125 C 29.4375 -30.078125 29.5625 -30.078125 29.5625 -30.078125 C 29.5625 -30.078125 29.4375 -30.078125 29.1875 -30.078125 L 28.15625 -30.078125 C 27.90625 -30.078125 27.78125 -30.078125 27.78125 -30.078125 C 27.78125 -30.078125 27.90625 -30.078125 28.15625 -30.078125 L 29.1875 -30.078125 C 29.78125 -30.078125 30.078125 -29.78125 30.078125 -29.1875 L 30.078125 -22.703125 C 30.078125 -22.109375 29.78125 -21.8125 29.1875 -21.8125 L 19.6875 -21.8125 C 19.09375 -21.8125 18.796875 -22.109375 18.796875 -22.703125 L 18.796875 -26.359375 C 18.796875 -26.960938 18.5 -27.265625 17.90625 -27.265625 L 16.875 -27.265625 C 16.28125 -27.265625 15.984375 -26.960938 15.984375 -26.359375 L 15.984375 -0.890625 C 15.984375 -0.296875 15.6875 0 15.09375 0 L 4.1875 0 C 3.59375 0 3.296875 -0.296875 3.296875 -0.890625 Z M 3.296875 -0.890625 "/></g></g></g><g fill="#ffec45" fill-opacity="1"><g transform="translate(97.387415, 158.532235)"><g><path d="M 8.9375 -0.890625 L 8.9375 -1.921875 C 8.9375 -2.515625 8.632812 -2.8125 8.03125 -2.8125 L 7 -2.8125 C 6.40625 -2.8125 6.109375 -3.113281 6.109375 -3.71875 L 6.109375 -4.75 C 6.109375 -5.34375 5.8125 -5.640625 5.21875 -5.640625 L 4.1875 -5.640625 C 3.59375 -5.640625 3.296875 -5.9375 3.296875 -6.53125 L 3.296875 -26.359375 C 3.296875 -26.960938 3.59375 -27.265625 4.1875 -27.265625 L 5.21875 -27.265625 C 5.8125 -27.265625 6.109375 -27.5625 6.109375 -28.15625 L 6.109375 -29.1875 C 6.109375 -29.78125 6.40625 -30.078125 7 -30.078125 L 8.03125 -30.078125 C 8.632812 -30.078125 8.9375 -30.375 8.9375 -30.96875 L 8.9375 -32 C 8.9375 -32.601562 9.234375 -32.90625 9.828125 -32.90625 L 27.78125 -32.90625 C 28.375 -32.90625 28.671875 -32.601562 28.671875 -32 L 28.671875 -30.96875 C 28.671875 -30.375 28.96875 -30.078125 29.5625 -30.078125 L 30.59375 -30.078125 C 31.1875 -30.078125 31.484375 -29.78125 31.484375 -29.1875 L 31.484375 -28.15625 C 31.484375 -27.5625 31.785156 -27.265625 32.390625 -27.265625 L 33.421875 -27.265625 C 34.015625 -27.265625 34.3125 -26.960938 34.3125 -26.359375 L 34.3125 -18.75 C 34.3125 -18.15625 34.015625 -17.859375 33.421875 -17.859375 L 32.390625 -17.859375 C 31.785156 -17.859375 31.484375 -17.5625 31.484375 -16.96875 L 31.484375 -15.9375 C 31.484375 -15.34375 31.1875 -15.046875 30.59375 -15.046875 L 16.875 -15.046875 C 16.28125 -15.046875 15.984375 -14.742188 15.984375 -14.140625 L 15.984375 -3.71875 C 15.984375 -3.113281 16.28125 -2.8125 16.875 -2.8125 L 17.90625 -2.8125 C 18.5 -2.8125 18.796875 -3.113281 18.796875 -3.71875 L 18.796875 -4.75 C 18.796875 -5.34375 19.09375 -5.640625 19.6875 -5.640625 L 20.734375 -5.640625 C 21.328125 -5.640625 21.625 -5.9375 21.625 -6.53125 L 21.625 -9.78125 C 21.625 -10.375 21.921875 -10.671875 22.515625 -10.671875 L 33.421875 -10.671875 C 34.015625 -10.671875 34.3125 -10.375 34.3125 -9.78125 L 34.3125 -6.53125 C 34.3125 -5.9375 34.015625 -5.640625 33.421875 -5.640625 L 32.390625 -5.640625 C 31.785156 -5.640625 31.484375 -5.34375 31.484375 -4.75 L 31.484375 -3.71875 C 31.484375 -3.113281 31.1875 -2.8125 30.59375 -2.8125 L 29.5625 -2.8125 C 28.96875 -2.8125 28.671875 -2.515625 28.671875 -1.921875 L 28.671875 -0.890625 C 28.671875 -0.296875 28.375 0 27.78125 0 L 9.828125 0 C 9.234375 0 8.9375 -0.296875 8.9375 -0.890625 Z M 16.875 -17.859375 L 20.734375 -17.859375 C 21.328125 -17.859375 21.625 -18.15625 21.625 -18.75 L 21.625 -29.1875 C 21.625 -29.78125 21.328125 -30.078125 20.734375 -30.078125 L 19.6875 -30.078125 C 19.09375 -30.078125 18.796875 -29.78125 18.796875 -29.1875 L 18.796875 -28.15625 C 18.796875 -27.5625 18.5 -27.265625 17.90625 -27.265625 L 16.875 -27.265625 C 16.28125 -27.265625 15.984375 -26.960938 15.984375 -26.359375 L 15.984375 -18.75 C 15.984375 -18.15625 16.28125 -17.859375 16.875 -17.859375 Z M 16.875 -17.859375 "/></g></g></g><g fill="#ffec45" fill-opacity="1"><g transform="translate(134.04127, 158.532235)"><g/></g></g><g fill="#ffec45" fill-opacity="1"><g transform="translate(145.789305, 158.532235)"><g><path d="M 6.109375 -0.890625 L 6.109375 -1.921875 C 6.109375 -2.515625 5.8125 -2.8125 5.21875 -2.8125 L 4.1875 -2.8125 C 3.9375 -2.8125 3.8125 -2.8125 3.8125 -2.8125 C 3.8125 -2.8125 3.9375 -2.8125 4.1875 -2.8125 L 5.21875 -2.8125 C 5.46875 -2.8125 5.59375 -2.8125 5.59375 -2.8125 C 5.59375 -2.8125 5.46875 -2.8125 5.21875 -2.8125 L 4.1875 -2.8125 C 3.59375 -2.8125 3.296875 -3.113281 3.296875 -3.71875 L 3.296875 -32 C 3.296875 -32.601562 3.59375 -32.90625 4.1875 -32.90625 L 15.09375 -32.90625 C 15.6875 -32.90625 15.984375 -32.601562 15.984375 -32 L 15.984375 -3.71875 C 15.984375 -3.113281 16.28125 -2.8125 16.875 -2.8125 L 17.90625 -2.8125 C 18.5 -2.8125 18.796875 -3.113281 18.796875 -3.71875 L 18.796875 -4.75 C 18.796875 -5.34375 19.09375 -5.640625 19.6875 -5.640625 L 20.734375 -5.640625 C 21.328125 -5.640625 21.625 -5.9375 21.625 -6.53125 L 21.625 -32 C 21.625 -32.601562 21.921875 -32.90625 22.515625 -32.90625 L 33.421875 -32.90625 C 34.015625 -32.90625 34.3125 -32.601562 34.3125 -32 L 34.3125 5.21875 C 34.3125 5.8125 34.015625 6.109375 33.421875 6.109375 L 32.390625 6.109375 C 31.785156 6.109375 31.484375 6.40625 31.484375 7 L 31.484375 8.03125 C 31.484375 8.632812 31.1875 8.9375 30.59375 8.9375 L 29.5625 8.9375 C 28.96875 8.9375 28.671875 9.234375 28.671875 9.828125 L 28.671875 10.859375 C 28.671875 11.453125 28.375 11.75 27.78125 11.75 L 7 11.75 C 6.40625 11.75 6.109375 11.453125 6.109375 10.859375 L 6.109375 9.828125 C 6.109375 9.234375 5.8125 8.9375 5.21875 8.9375 L 4.1875 8.9375 C 3.9375 8.9375 3.8125 8.9375 3.8125 8.9375 C 3.8125 8.9375 3.9375 8.9375 4.1875 8.9375 L 5.21875 8.9375 C 5.46875 8.9375 5.59375 8.9375 5.59375 8.9375 C 5.59375 8.9375 5.46875 8.9375 5.21875 8.9375 L 4.1875 8.9375 C 3.59375 8.9375 3.296875 8.632812 3.296875 8.03125 L 3.296875 4.1875 C 3.296875 3.59375 3.59375 3.296875 4.1875 3.296875 L 15.09375 3.296875 C 15.6875 3.296875 15.984375 3.59375 15.984375 4.1875 L 15.984375 4.9375 C 15.984375 5.53125 16.28125 5.828125 16.875 5.828125 L 17.4375 5.828125 C 18.03125 5.828125 18.328125 6.125 18.328125 6.71875 L 18.328125 8.03125 C 18.328125 8.632812 18.625 8.9375 19.21875 8.9375 L 22.140625 8.9375 C 22.734375 8.9375 23.03125 8.632812 23.03125 8.03125 L 23.03125 -1.921875 C 23.03125 -2.515625 22.734375 -2.8125 22.140625 -2.8125 L 21.109375 -2.8125 C 20.503906 -2.8125 20.203125 -2.515625 20.203125 -1.921875 L 20.203125 -0.890625 C 20.203125 -0.296875 19.90625 0 19.3125 0 L 7 0 C 6.40625 0 6.109375 -0.296875 6.109375 -0.890625 Z M 6.109375 -0.890625 "/></g></g></g><g fill="#ffec45" fill-opacity="1"><g transform="translate(183.383006, 158.532235)"><g><path d="M 8.9375 -0.890625 L 8.9375 -1.921875 C 8.9375 -2.515625 8.632812 -2.8125 8.03125 -2.8125 L 7 -2.8125 C 6.40625 -2.8125 6.109375 -3.113281 6.109375 -3.71875 L 6.109375 -4.75 C 6.109375 -5.34375 5.8125 -5.640625 5.21875 -5.640625 L 4.1875 -5.640625 C 3.59375 -5.640625 3.296875 -5.9375 3.296875 -6.53125 L 3.296875 -26.359375 C 3.296875 -26.960938 3.59375 -27.265625 4.1875 -27.265625 L 5.21875 -27.265625 C 5.8125 -27.265625 6.109375 -27.5625 6.109375 -28.15625 L 6.109375 -29.1875 C 6.109375 -29.78125 6.40625 -30.078125 7 -30.078125 L 8.03125 -30.078125 C 8.632812 -30.078125 8.9375 -30.375 8.9375 -30.96875 L 8.9375 -32 C 8.9375 -32.601562 9.234375 -32.90625 9.828125 -32.90625 L 27.78125 -32.90625 C 28.375 -32.90625 28.671875 -32.601562 28.671875 -32 L 28.671875 -30.96875 C 28.671875 -30.375 28.96875 -30.078125 29.5625 -30.078125 L 30.59375 -30.078125 C 31.1875 -30.078125 31.484375 -29.78125 31.484375 -29.1875 L 31.484375 -28.15625 C 31.484375 -27.5625 31.785156 -27.265625 32.390625 -27.265625 L 33.421875 -27.265625 C 34.015625 -27.265625 34.3125 -26.960938 34.3125 -26.359375 L 34.3125 -6.53125 C 34.3125 -5.9375 34.015625 -5.640625 33.421875 -5.640625 L 32.390625 -5.640625 C 31.785156 -5.640625 31.484375 -5.34375 31.484375 -4.75 L 31.484375 -3.71875 C 31.484375 -3.113281 31.1875 -2.8125 30.59375 -2.8125 L 29.5625 -2.8125 C 28.96875 -2.8125 28.671875 -2.515625 28.671875 -1.921875 L 28.671875 -0.890625 C 28.671875 -0.296875 28.375 0 27.78125 0 L 9.828125 0 C 9.234375 0 8.9375 -0.296875 8.9375 -0.890625 Z M 19.6875 -5.640625 L 20.734375 -5.640625 C 21.328125 -5.640625 21.625 -5.9375 21.625 -6.53125 L 21.625 -29.1875 C 21.625 -29.78125 21.328125 -30.078125 20.734375 -30.078125 L 19.6875 -30.078125 C 19.09375 -30.078125 18.796875 -29.78125 18.796875 -29.1875 L 18.796875 -28.15625 C 18.796875 -27.5625 18.5 -27.265625 17.90625 -27.265625 L 16.875 -27.265625 C 16.28125 -27.265625 15.984375 -26.960938 15.984375 -26.359375 L 15.984375 -3.71875 C 15.984375 -3.113281 16.28125 -2.8125 16.875 -2.8125 L 17.90625 -2.8125 C 18.5 -2.8125 18.796875 -3.113281 18.796875 -3.71875 L 18.796875 -4.75 C 18.796875 -5.34375 19.09375 -5.640625 19.6875 -5.640625 Z M 19.6875 -5.640625 "/></g></g></g><g fill="#ffec45" fill-opacity="1"><g transform="translate(220.976707, 158.532235)"><g><path d="M 8.9375 -0.84375 L 8.9375 -1.875 C 8.9375 -2.46875 8.632812 -2.765625 8.03125 -2.765625 L 7 -2.765625 C 6.40625 -2.765625 6.109375 -3.066406 6.109375 -3.671875 L 6.109375 -4.703125 C 6.109375 -5.296875 5.8125 -5.59375 5.21875 -5.59375 L 4.1875 -5.59375 C 3.59375 -5.59375 3.296875 -5.890625 3.296875 -6.484375 L 3.296875 -31.953125 C 3.296875 -32.554688 3.59375 -32.859375 4.1875 -32.859375 L 15.09375 -32.859375 C 15.6875 -32.859375 15.984375 -32.554688 15.984375 -31.953125 L 15.984375 -3.671875 C 15.984375 -3.066406 16.28125 -2.765625 16.875 -2.765625 L 17.90625 -2.765625 C 18.5 -2.765625 18.796875 -3.066406 18.796875 -3.671875 L 18.796875 -4.703125 C 18.796875 -5.296875 19.09375 -5.59375 19.6875 -5.59375 L 20.734375 -5.59375 C 21.328125 -5.59375 21.625 -5.890625 21.625 -6.484375 L 21.625 -31.953125 C 21.625 -32.554688 21.921875 -32.859375 22.515625 -32.859375 L 33.421875 -32.859375 C 34.015625 -32.859375 34.3125 -32.554688 34.3125 -31.953125 L 34.3125 -6.484375 C 34.3125 -5.890625 34.015625 -5.59375 33.421875 -5.59375 L 32.390625 -5.59375 C 31.785156 -5.59375 31.484375 -5.296875 31.484375 -4.703125 L 31.484375 -3.671875 C 31.484375 -3.066406 31.1875 -2.765625 30.59375 -2.765625 L 29.5625 -2.765625 C 28.96875 -2.765625 28.671875 -2.46875 28.671875 -1.875 L 28.671875 -0.84375 C 28.671875 -0.25 28.375 0.046875 27.78125 0.046875 L 9.828125 0.046875 C 9.234375 0.046875 8.9375 -0.25 8.9375 -0.84375 Z M 8.9375 -0.84375 "/></g></g></g><g fill="#ffec45" fill-opacity="1"><g transform="translate(258.570408, 158.532235)"><g/></g></g><g fill="#ffec45" fill-opacity="1"><g transform="translate(270.318454, 158.532235)"><g><path d="M 19.78125 -15 L 15.9375 -15 C 15.34375 -15 15.046875 -14.695312 15.046875 -14.09375 L 15.046875 -3.71875 C 15.046875 -3.113281 15.34375 -2.8125 15.9375 -2.8125 L 16.96875 -2.8125 C 17.5625 -2.8125 17.859375 -3.113281 17.859375 -3.71875 L 17.859375 -4.75 C 17.859375 -5.34375 18.15625 -5.640625 18.75 -5.640625 L 19.78125 -5.640625 C 20.382812 -5.640625 20.6875 -5.9375 20.6875 -6.53125 L 20.6875 -14.09375 C 20.6875 -14.695312 20.382812 -15 19.78125 -15 Z M 5.171875 -0.890625 L 5.171875 -1.921875 C 5.171875 -2.515625 4.875 -2.8125 4.28125 -2.8125 L 3.25 -2.8125 C 2.644531 -2.8125 2.34375 -3.113281 2.34375 -3.71875 L 2.34375 -14.09375 C 2.34375 -14.695312 2.644531 -15 3.25 -15 L 4.28125 -15 C 4.875 -15 5.171875 -15.296875 5.171875 -15.890625 L 5.171875 -16.921875 C 5.171875 -17.515625 5.46875 -17.8125 6.0625 -17.8125 L 16.96875 -17.8125 C 17.5625 -17.8125 17.859375 -18.109375 17.859375 -18.703125 L 17.859375 -19.734375 C 17.859375 -20.335938 18.15625 -20.640625 18.75 -20.640625 L 21.203125 -20.640625 C 21.796875 -20.640625 22.09375 -20.9375 22.09375 -21.53125 L 22.09375 -29.1875 C 22.09375 -29.78125 21.796875 -30.078125 21.203125 -30.078125 L 18.75 -30.078125 C 18.15625 -30.078125 17.859375 -29.78125 17.859375 -29.1875 L 17.859375 -25.328125 C 17.859375 -24.734375 17.5625 -24.4375 16.96875 -24.4375 L 15.9375 -24.4375 C 15.34375 -24.4375 15.046875 -24.140625 15.046875 -23.546875 L 15.046875 -21.109375 C 15.046875 -20.503906 14.742188 -20.203125 14.140625 -20.203125 L 4.65625 -20.203125 C 4.0625 -20.203125 3.765625 -20.503906 3.765625 -21.109375 L 3.765625 -29.1875 C 3.765625 -29.78125 4.0625 -30.078125 4.65625 -30.078125 L 6.390625 -30.078125 C 6.984375 -30.078125 7.28125 -30.375 7.28125 -30.96875 L 7.28125 -32 C 7.28125 -32.601562 7.578125 -32.90625 8.171875 -32.90625 L 29.65625 -32.90625 C 30.25 -32.90625 30.546875 -32.601562 30.546875 -32 L 30.546875 -30.96875 C 30.546875 -30.375 30.84375 -30.078125 31.4375 -30.078125 L 32.484375 -30.078125 C 33.078125 -30.078125 33.375 -29.78125 33.375 -29.1875 L 33.375 -0.890625 C 33.375 -0.296875 33.078125 0 32.484375 0 L 24.390625 0 C 23.796875 0 23.5 -0.296875 23.5 -0.890625 L 23.5 -1.921875 C 23.5 -2.515625 23.203125 -2.8125 22.609375 -2.8125 L 21.578125 -2.8125 C 20.984375 -2.8125 20.6875 -2.515625 20.6875 -1.921875 L 20.6875 -0.890625 C 20.6875 -0.296875 20.382812 0 19.78125 0 L 6.0625 0 C 5.46875 0 5.171875 -0.296875 5.171875 -0.890625 Z M 5.171875 -0.890625 "/></g></g></g><g fill="#ffec45" fill-opacity="1"><g transform="translate(306.972321, 158.532235)"><g/></g></g><g fill="#ffec45" fill-opacity="1"><g transform="translate(318.720367, 158.532235)"><g><path d="M 3.296875 -0.890625 L 3.296875 -44.515625 C 3.296875 -45.109375 3.59375 -45.40625 4.1875 -45.40625 L 15.09375 -45.40625 C 15.6875 -45.40625 15.984375 -45.109375 15.984375 -44.515625 L 15.984375 -0.890625 C 15.984375 -0.296875 15.6875 0 15.09375 0 L 4.1875 0 C 3.59375 0 3.296875 -0.296875 3.296875 -0.890625 Z M 3.296875 -0.890625 "/></g></g></g><g fill="#ffec45" fill-opacity="1"><g transform="translate(337.987135, 158.532235)"><g><path d="M 3.296875 -0.890625 L 3.296875 -32 C 3.296875 -32.601562 3.59375 -32.90625 4.1875 -32.90625 L 15.09375 -32.90625 C 15.6875 -32.90625 15.984375 -32.601562 15.984375 -32 L 15.984375 -0.890625 C 15.984375 -0.296875 15.6875 0 15.09375 0 L 4.1875 0 C 3.59375 0 3.296875 -0.296875 3.296875 -0.890625 Z M 4.703125 -36.609375 L 4.703125 -36.703125 C 4.703125 -37.296875 4.375 -37.59375 3.71875 -37.59375 C 3.113281 -37.59375 2.8125 -37.894531 2.8125 -38.5 L 2.8125 -42.8125 C 2.8125 -43.40625 3.144531 -43.703125 3.8125 -43.703125 C 4.40625 -43.703125 4.703125 -44.035156 4.703125 -44.703125 C 4.703125 -45.296875 5 -45.59375 5.59375 -45.59375 L 13.671875 -45.59375 C 14.265625 -45.59375 14.5625 -45.265625 14.5625 -44.609375 C 14.5625 -44.003906 14.894531 -43.703125 15.5625 -43.703125 C 16.15625 -43.703125 16.453125 -43.40625 16.453125 -42.8125 L 16.453125 -38.5 C 16.453125 -37.894531 16.125 -37.59375 15.46875 -37.59375 C 14.863281 -37.59375 14.5625 -37.265625 14.5625 -36.609375 C 14.5625 -36.015625 14.265625 -35.71875 13.671875 -35.71875 L 5.59375 -35.71875 C 5 -35.71875 4.703125 -36.015625 4.703125 -36.609375 Z M 4.703125 -36.609375 "/></g></g></g><g fill="#ffec45" fill-opacity="1"><g transform="translate(357.253903, 158.532235)"><g><path d="M 7.984375 -0.890625 L 7.984375 -1.921875 C 7.984375 -2.515625 7.6875 -2.8125 7.09375 -2.8125 L 6.0625 -2.8125 C 5.46875 -2.8125 5.171875 -3.113281 5.171875 -3.71875 L 5.171875 -29.234375 C 5.171875 -29.828125 4.875 -30.125 4.28125 -30.125 L 2.765625 -30.125 C 2.171875 -30.125 1.875 -30.421875 1.875 -31.015625 L 1.875 -32 C 1.875 -32.601562 2.171875 -32.90625 2.765625 -32.90625 L 4.28125 -32.90625 C 4.875 -32.90625 5.171875 -33.203125 5.171875 -33.796875 L 5.171875 -40.328125 C 5.171875 -40.921875 5.46875 -41.21875 6.0625 -41.21875 L 16.96875 -41.21875 C 17.5625 -41.21875 17.859375 -40.921875 17.859375 -40.328125 L 17.859375 -33.796875 C 17.859375 -33.203125 18.15625 -32.90625 18.75 -32.90625 L 23.5 -32.90625 C 24.09375 -32.90625 24.390625 -32.601562 24.390625 -32 L 24.390625 -31.015625 C 24.390625 -30.421875 24.09375 -30.125 23.5 -30.125 L 18.75 -30.125 C 18.15625 -30.125 17.859375 -29.828125 17.859375 -29.234375 L 17.859375 -3.71875 C 17.859375 -3.113281 18.15625 -2.8125 18.75 -2.8125 L 19.78125 -2.8125 C 20.382812 -2.8125 20.6875 -3.113281 20.6875 -3.71875 L 20.6875 -8.5 C 20.6875 -9.101562 20.984375 -9.40625 21.578125 -9.40625 L 29.1875 -9.40625 C 29.78125 -9.40625 30.078125 -9.101562 30.078125 -8.5 L 30.078125 -3.71875 C 30.078125 -3.113281 29.78125 -2.8125 29.1875 -2.8125 L 26.75 -2.8125 C 26.144531 -2.8125 25.84375 -2.515625 25.84375 -1.921875 L 25.84375 -0.890625 C 25.84375 -0.296875 25.546875 0 24.953125 0 L 8.890625 0 C 8.285156 0 7.984375 -0.296875 7.984375 -0.890625 Z M 7.984375 -0.890625 "/></g></g></g><g fill="#ffec45" fill-opacity="1"><g transform="translate(387.798776, 158.532235)"><g><path d="M 7.984375 -0.890625 L 7.984375 -1.921875 C 7.984375 -2.515625 7.6875 -2.8125 7.09375 -2.8125 L 6.0625 -2.8125 C 5.46875 -2.8125 5.171875 -3.113281 5.171875 -3.71875 L 5.171875 -29.234375 C 5.171875 -29.828125 4.875 -30.125 4.28125 -30.125 L 2.765625 -30.125 C 2.171875 -30.125 1.875 -30.421875 1.875 -31.015625 L 1.875 -32 C 1.875 -32.601562 2.171875 -32.90625 2.765625 -32.90625 L 4.28125 -32.90625 C 4.875 -32.90625 5.171875 -33.203125 5.171875 -33.796875 L 5.171875 -40.328125 C 5.171875 -40.921875 5.46875 -41.21875 6.0625 -41.21875 L 16.96875 -41.21875 C 17.5625 -41.21875 17.859375 -40.921875 17.859375 -40.328125 L 17.859375 -33.796875 C 17.859375 -33.203125 18.15625 -32.90625 18.75 -32.90625 L 23.5 -32.90625 C 24.09375 -32.90625 24.390625 -32.601562 24.390625 -32 L 24.390625 -31.015625 C 24.390625 -30.421875 24.09375 -30.125 23.5 -30.125 L 18.75 -30.125 C 18.15625 -30.125 17.859375 -29.828125 17.859375 -29.234375 L 17.859375 -3.71875 C 17.859375 -3.113281 18.15625 -2.8125 18.75 -2.8125 L 19.78125 -2.8125 C 20.382812 -2.8125 20.6875 -3.113281 20.6875 -3.71875 L 20.6875 -8.5 C 20.6875 -9.101562 20.984375 -9.40625 21.578125 -9.40625 L 29.1875 -9.40625 C 29.78125 -9.40625 30.078125 -9.101562 30.078125 -8.5 L 30.078125 -3.71875 C 30.078125 -3.113281 29.78125 -2.8125 29.1875 -2.8125 L 26.75 -2.8125 C 26.144531 -2.8125 25.84375 -2.515625 25.84375 -1.921875 L 25.84375 -0.890625 C 25.84375 -0.296875 25.546875 0 24.953125 0 L 8.890625 0 C 8.285156 0 7.984375 -0.296875 7.984375 -0.890625 Z M 7.984375 -0.890625 "/></g></g></g><g fill="#ffec45" fill-opacity="1"><g transform="translate(418.34365, 158.532235)"><g><path d="M 3.296875 -0.890625 L 3.296875 -44.515625 C 3.296875 -45.109375 3.59375 -45.40625 4.1875 -45.40625 L 15.09375 -45.40625 C 15.6875 -45.40625 15.984375 -45.109375 15.984375 -44.515625 L 15.984375 -0.890625 C 15.984375 -0.296875 15.6875 0 15.09375 0 L 4.1875 0 C 3.59375 0 3.296875 -0.296875 3.296875 -0.890625 Z M 3.296875 -0.890625 "/></g></g></g><g fill="#ffec45" fill-opacity="1"><g transform="translate(437.610418, 158.532235)"><g><path d="M 8.9375 -0.890625 L 8.9375 -1.921875 C 8.9375 -2.515625 8.632812 -2.8125 8.03125 -2.8125 L 7 -2.8125 C 6.40625 -2.8125 6.109375 -3.113281 6.109375 -3.71875 L 6.109375 -4.75 C 6.109375 -5.34375 5.8125 -5.640625 5.21875 -5.640625 L 4.1875 -5.640625 C 3.59375 -5.640625 3.296875 -5.9375 3.296875 -6.53125 L 3.296875 -26.359375 C 3.296875 -26.960938 3.59375 -27.265625 4.1875 -27.265625 L 5.21875 -27.265625 C 5.8125 -27.265625 6.109375 -27.5625 6.109375 -28.15625 L 6.109375 -29.1875 C 6.109375 -29.78125 6.40625 -30.078125 7 -30.078125 L 8.03125 -30.078125 C 8.632812 -30.078125 8.9375 -30.375 8.9375 -30.96875 L 8.9375 -32 C 8.9375 -32.601562 9.234375 -32.90625 9.828125 -32.90625 L 27.78125 -32.90625 C 28.375 -32.90625 28.671875 -32.601562 28.671875 -32 L 28.671875 -30.96875 C 28.671875 -30.375 28.96875 -30.078125 29.5625 -30.078125 L 30.59375 -30.078125 C 31.1875 -30.078125 31.484375 -29.78125 31.484375 -29.1875 L 31.484375 -28.15625 C 31.484375 -27.5625 31.785156 -27.265625 32.390625 -27.265625 L 33.421875 -27.265625 C 34.015625 -27.265625 34.3125 -26.960938 34.3125 -26.359375 L 34.3125 -18.75 C 34.3125 -18.15625 34.015625 -17.859375 33.421875 -17.859375 L 32.390625 -17.859375 C 31.785156 -17.859375 31.484375 -17.5625 31.484375 -16.96875 L 31.484375 -15.9375 C 31.484375 -15.34375 31.1875 -15.046875 30.59375 -15.046875 L 16.875 -15.046875 C 16.28125 -15.046875 15.984375 -14.742188 15.984375 -14.140625 L 15.984375 -3.71875 C 15.984375 -3.113281 16.28125 -2.8125 16.875 -2.8125 L 17.90625 -2.8125 C 18.5 -2.8125 18.796875 -3.113281 18.796875 -3.71875 L 18.796875 -4.75 C 18.796875 -5.34375 19.09375 -5.640625 19.6875 -5.640625 L 20.734375 -5.640625 C 21.328125 -5.640625 21.625 -5.9375 21.625 -6.53125 L 21.625 -9.78125 C 21.625 -10.375 21.921875 -10.671875 22.515625 -10.671875 L 33.421875 -10.671875 C 34.015625 -10.671875 34.3125 -10.375 34.3125 -9.78125 L 34.3125 -6.53125 C 34.3125 -5.9375 34.015625 -5.640625 33.421875 -5.640625 L 32.390625 -5.640625 C 31.785156 -5.640625 31.484375 -5.34375 31.484375 -4.75 L 31.484375 -3.71875 C 31.484375 -3.113281 31.1875 -2.8125 30.59375 -2.8125 L 29.5625 -2.8125 C 28.96875 -2.8125 28.671875 -2.515625 28.671875 -1.921875 L 28.671875 -0.890625 C 28.671875 -0.296875 28.375 0 27.78125 0 L 9.828125 0 C 9.234375 0 8.9375 -0.296875 8.9375 -0.890625 Z M 16.875 -17.859375 L 20.734375 -17.859375 C 21.328125 -17.859375 21.625 -18.15625 21.625 -18.75 L 21.625 -29.1875 C 21.625 -29.78125 21.328125 -30.078125 20.734375 -30.078125 L 19.6875 -30.078125 C 19.09375 -30.078125 18.796875 -29.78125 18.796875 -29.1875 L 18.796875 -28.15625 C 18.796875 -27.5625 18.5 -27.265625 17.90625 -27.265625 L 16.875 -27.265625 C 16.28125 -27.265625 15.984375 -26.960938 15.984375 -26.359375 L 15.984375 -18.75 C 15.984375 -18.15625 16.28125 -17.859375 16.875 -17.859375 Z M 16.875 -17.859375 "/></g></g></g><g fill="#000000" fill-opacity="0.5608"><g transform="translate(104.016775, 225.902113)"><g><path d="M 3.296875 -0.890625 L 3.296875 -32 C 3.296875 -32.601562 3.59375 -32.90625 4.1875 -32.90625 L 10.859375 -32.90625 C 11.453125 -32.90625 11.75 -32.601562 11.75 -32 L 11.75 -28.15625 C 11.75 -27.5625 12.046875 -27.265625 12.640625 -27.265625 L 13.671875 -27.265625 C 14.265625 -27.265625 14.5625 -27.5625 14.5625 -28.15625 L 14.5625 -29.1875 C 14.5625 -29.78125 14.863281 -30.078125 15.46875 -30.078125 L 16.5 -30.078125 C 17.09375 -30.078125 17.390625 -30.375 17.390625 -30.96875 L 17.390625 -32 C 17.390625 -32.601562 17.6875 -32.90625 18.28125 -32.90625 L 30.59375 -32.90625 C 31.1875 -32.90625 31.484375 -32.601562 31.484375 -32 L 31.484375 -30.96875 C 31.484375 -30.375 31.785156 -30.078125 32.390625 -30.078125 L 34.828125 -30.078125 C 35.421875 -30.078125 35.71875 -30.375 35.71875 -30.96875 L 35.71875 -32 C 35.71875 -32.601562 36.015625 -32.90625 36.609375 -32.90625 L 48.921875 -32.90625 C 49.515625 -32.90625 49.8125 -32.601562 49.8125 -32 L 49.8125 -30.96875 C 49.8125 -30.375 50.113281 -30.078125 50.71875 -30.078125 L 51.75 -30.078125 C 52.34375 -30.078125 52.640625 -29.78125 52.640625 -29.1875 L 52.640625 -0.890625 C 52.640625 -0.296875 52.34375 0 51.75 0 L 40.84375 0 C 40.25 0 39.953125 -0.296875 39.953125 -0.890625 L 39.953125 -29.1875 C 39.953125 -29.78125 39.65625 -30.078125 39.0625 -30.078125 L 38.015625 -30.078125 C 37.421875 -30.078125 37.125 -29.78125 37.125 -29.1875 L 37.125 -28.15625 C 37.125 -27.5625 36.828125 -27.265625 36.234375 -27.265625 L 35.203125 -27.265625 C 34.609375 -27.265625 34.3125 -26.960938 34.3125 -26.359375 L 34.3125 -0.890625 C 34.3125 -0.296875 34.015625 0 33.421875 0 L 22.515625 0 C 21.921875 0 21.625 -0.296875 21.625 -0.890625 L 21.625 -29.1875 C 21.625 -29.78125 21.328125 -30.078125 20.734375 -30.078125 L 19.6875 -30.078125 C 19.09375 -30.078125 18.796875 -29.78125 18.796875 -29.1875 L 18.796875 -28.15625 C 18.796875 -27.5625 18.5 -27.265625 17.90625 -27.265625 L 16.875 -27.265625 C 16.28125 -27.265625 15.984375 -26.960938 15.984375 -26.359375 L 15.984375 -0.890625 C 15.984375 -0.296875 15.6875 0 15.09375 0 L 4.1875 0 C 3.59375 0 3.296875 -0.296875 3.296875 -0.890625 Z M 3.296875 -0.890625 "/></g></g></g><g fill="#000000" fill-opacity="0.5608"><g transform="translate(159.937398, 225.902113)"><g><path d="M 8.9375 -0.890625 L 8.9375 -1.921875 C 8.9375 -2.515625 8.632812 -2.8125 8.03125 -2.8125 L 7 -2.8125 C 6.40625 -2.8125 6.109375 -3.113281 6.109375 -3.71875 L 6.109375 -4.75 C 6.109375 -5.34375 5.8125 -5.640625 5.21875 -5.640625 L 4.1875 -5.640625 C 3.59375 -5.640625 3.296875 -5.9375 3.296875 -6.53125 L 3.296875 -26.359375 C 3.296875 -26.960938 3.59375 -27.265625 4.1875 -27.265625 L 5.21875 -27.265625 C 5.8125 -27.265625 6.109375 -27.5625 6.109375 -28.15625 L 6.109375 -29.1875 C 6.109375 -29.78125 6.40625 -30.078125 7 -30.078125 L 8.03125 -30.078125 C 8.632812 -30.078125 8.9375 -30.375 8.9375 -30.96875 L 8.9375 -32 C 8.9375 -32.601562 9.234375 -32.90625 9.828125 -32.90625 L 27.78125 -32.90625 C 28.375 -32.90625 28.671875 -32.601562 28.671875 -32 L 28.671875 -30.96875 C 28.671875 -30.375 28.96875 -30.078125 29.5625 -30.078125 L 30.59375 -30.078125 C 31.1875 -30.078125 31.484375 -29.78125 31.484375 -29.1875 L 31.484375 -28.15625 C 31.484375 -27.5625 31.785156 -27.265625 32.390625 -27.265625 L 33.421875 -27.265625 C 34.015625 -27.265625 34.3125 -26.960938 34.3125 -26.359375 L 34.3125 -6.53125 C 34.3125 -5.9375 34.015625 -5.640625 33.421875 -5.640625 L 32.390625 -5.640625 C 31.785156 -5.640625 31.484375 -5.34375 31.484375 -4.75 L 31.484375 -3.71875 C 31.484375 -3.113281 31.1875 -2.8125 30.59375 -2.8125 L 29.5625 -2.8125 C 28.96875 -2.8125 28.671875 -2.515625 28.671875 -1.921875 L 28.671875 -0.890625 C 28.671875 -0.296875 28.375 0 27.78125 0 L 9.828125 0 C 9.234375 0 8.9375 -0.296875 8.9375 -0.890625 Z M 19.6875 -5.640625 L 20.734375 -5.640625 C 21.328125 -5.640625 21.625 -5.9375 21.625 -6.53125 L 21.625 -29.1875 C 21.625 -29.78125 21.328125 -30.078125 20.734375 -30.078125 L 19.6875 -30.078125 C 19.09375 -30.078125 18.796875 -29.78125 18.796875 -29.1875 L 18.796875 -28.15625 C 18.796875 -27.5625 18.5 -27.265625 17.90625 -27.265625 L 16.875 -27.265625 C 16.28125 -27.265625 15.984375 -26.960938 15.984375 -26.359375 L 15.984375 -3.71875 C 15.984375 -3.113281 16.28125 -2.8125 16.875 -2.8125 L 17.90625 -2.8125 C 18.5 -2.8125 18.796875 -3.113281 18.796875 -3.71875 L 18.796875 -4.75 C 18.796875 -5.34375 19.09375 -5.640625 19.6875 -5.640625 Z M 19.6875 -5.640625 "/></g></g></g><g fill="#000000" fill-opacity="0.5608"><g transform="translate(197.5311, 225.902113)"><g><path d="M 3.296875 -0.890625 L 3.296875 -32 C 3.296875 -32.601562 3.59375 -32.90625 4.1875 -32.90625 L 10.859375 -32.90625 C 11.453125 -32.90625 11.75 -32.601562 11.75 -32 L 11.75 -28.15625 C 11.75 -27.5625 12.046875 -27.265625 12.640625 -27.265625 L 13.671875 -27.265625 C 14.265625 -27.265625 14.5625 -27.5625 14.5625 -28.15625 L 14.5625 -29.1875 C 14.5625 -29.78125 14.863281 -30.078125 15.46875 -30.078125 L 16.5 -30.078125 C 17.09375 -30.078125 17.390625 -30.375 17.390625 -30.96875 L 17.390625 -32 C 17.390625 -32.601562 17.6875 -32.90625 18.28125 -32.90625 L 30.59375 -32.90625 C 31.1875 -32.90625 31.484375 -32.601562 31.484375 -32 L 31.484375 -30.96875 C 31.484375 -30.375 31.785156 -30.078125 32.390625 -30.078125 L 33.421875 -30.078125 C 33.671875 -30.078125 33.796875 -30.078125 33.796875 -30.078125 C 33.796875 -30.078125 33.671875 -30.078125 33.421875 -30.078125 L 32.390625 -30.078125 C 32.128906 -30.078125 32 -30.078125 32 -30.078125 C 32 -30.078125 32.128906 -30.078125 32.390625 -30.078125 L 33.421875 -30.078125 C 34.015625 -30.078125 34.3125 -29.78125 34.3125 -29.1875 L 34.3125 -0.890625 C 34.3125 -0.296875 34.015625 0 33.421875 0 L 22.515625 0 C 21.921875 0 21.625 -0.296875 21.625 -0.890625 L 21.625 -29.1875 C 21.625 -29.78125 21.328125 -30.078125 20.734375 -30.078125 L 19.6875 -30.078125 C 19.09375 -30.078125 18.796875 -29.78125 18.796875 -29.1875 L 18.796875 -28.15625 C 18.796875 -27.5625 18.5 -27.265625 17.90625 -27.265625 L 16.875 -27.265625 C 16.28125 -27.265625 15.984375 -26.960938 15.984375 -26.359375 L 15.984375 -0.890625 C 15.984375 -0.296875 15.6875 0 15.09375 0 L 4.1875 0 C 3.59375 0 3.296875 -0.296875 3.296875 -0.890625 Z M 3.296875 -0.890625 "/></g></g></g><g fill="#000000" fill-opacity="0.5608"><g transform="translate(235.124801, 225.902113)"><g><path d="M 5.640625 -0.890625 L 5.640625 -1.921875 C 5.640625 -2.515625 5.34375 -2.8125 4.75 -2.8125 L 3.71875 -2.8125 C 3.113281 -2.8125 2.8125 -3.113281 2.8125 -3.71875 L 2.8125 -11.796875 C 2.8125 -12.390625 3.113281 -12.6875 3.71875 -12.6875 L 14.609375 -12.6875 C 15.210938 -12.6875 15.515625 -12.390625 15.515625 -11.796875 L 15.515625 -3.71875 C 15.515625 -3.113281 15.8125 -2.8125 16.40625 -2.8125 L 17.4375 -2.8125 C 18.03125 -2.8125 18.328125 -3.113281 18.328125 -3.71875 L 18.328125 -4.75 C 18.328125 -5.34375 18.625 -5.640625 19.21875 -5.640625 L 20.296875 -5.640625 C 20.898438 -5.640625 21.203125 -5.9375 21.203125 -6.53125 L 21.203125 -11.234375 C 21.203125 -11.828125 20.898438 -12.125 20.296875 -12.125 L 19.265625 -12.125 C 18.671875 -12.125 18.375 -12.421875 18.375 -13.015625 L 18.375 -14.046875 C 18.375 -14.648438 18.078125 -14.953125 17.484375 -14.953125 L 6.53125 -14.953125 C 5.9375 -14.953125 5.640625 -15.25 5.640625 -15.84375 L 5.640625 -16.875 C 5.640625 -17.46875 5.34375 -17.765625 4.75 -17.765625 L 3.71875 -17.765625 C 3.113281 -17.765625 2.8125 -18.0625 2.8125 -18.65625 L 2.8125 -29.1875 C 2.8125 -29.78125 3.113281 -30.078125 3.71875 -30.078125 L 4.421875 -30.078125 C 5.015625 -30.078125 5.3125 -30.375 5.3125 -30.96875 L 5.3125 -32 C 5.3125 -32.601562 5.609375 -32.90625 6.203125 -32.90625 L 29.65625 -32.90625 C 30.25 -32.90625 30.546875 -32.601562 30.546875 -32 L 30.546875 -30.96875 C 30.546875 -30.375 30.84375 -30.078125 31.4375 -30.078125 L 32.484375 -30.078125 C 33.078125 -30.078125 33.375 -29.78125 33.375 -29.1875 L 33.375 -21.109375 C 33.375 -20.503906 33.078125 -20.203125 32.484375 -20.203125 L 24.859375 -20.203125 C 24.265625 -20.203125 23.96875 -20.503906 23.96875 -21.109375 L 23.96875 -22.140625 C 23.96875 -22.734375 23.671875 -23.03125 23.078125 -23.03125 L 22.046875 -23.03125 C 21.453125 -23.03125 21.15625 -23.328125 21.15625 -23.921875 L 21.15625 -29.1875 C 21.15625 -29.78125 20.851562 -30.078125 20.25 -30.078125 L 19.21875 -30.078125 C 18.625 -30.078125 18.328125 -29.78125 18.328125 -29.1875 L 18.328125 -28.15625 C 18.328125 -27.5625 18.03125 -27.265625 17.4375 -27.265625 L 16.40625 -27.265625 C 15.8125 -27.265625 15.515625 -26.960938 15.515625 -26.359375 L 15.515625 -21.484375 C 15.515625 -20.890625 15.8125 -20.59375 16.40625 -20.59375 L 17.4375 -20.59375 C 18.03125 -20.59375 18.328125 -20.289062 18.328125 -19.6875 L 18.328125 -18.65625 C 18.328125 -18.0625 18.625 -17.765625 19.21875 -17.765625 L 29.703125 -17.765625 C 30.296875 -17.765625 30.59375 -17.46875 30.59375 -16.875 L 30.59375 -15.84375 C 30.59375 -15.25 30.890625 -14.953125 31.484375 -14.953125 L 32.53125 -14.953125 C 33.125 -14.953125 33.421875 -14.648438 33.421875 -14.046875 L 33.421875 -3.71875 C 33.421875 -3.113281 33.125 -2.8125 32.53125 -2.8125 L 31.484375 -2.8125 C 30.890625 -2.8125 30.59375 -2.515625 30.59375 -1.921875 L 30.59375 -0.890625 C 30.59375 -0.296875 30.296875 0 29.703125 0 L 6.53125 0 C 5.9375 0 5.640625 -0.296875 5.640625 -0.890625 Z M 5.640625 -0.890625 "/></g></g></g><g fill="#000000" fill-opacity="0.5608"><g transform="translate(271.778656, 225.902113)"><g><path d="M 7.984375 -0.890625 L 7.984375 -1.921875 C 7.984375 -2.515625 7.6875 -2.8125 7.09375 -2.8125 L 6.0625 -2.8125 C 5.46875 -2.8125 5.171875 -3.113281 5.171875 -3.71875 L 5.171875 -29.234375 C 5.171875 -29.828125 4.875 -30.125 4.28125 -30.125 L 2.765625 -30.125 C 2.171875 -30.125 1.875 -30.421875 1.875 -31.015625 L 1.875 -32 C 1.875 -32.601562 2.171875 -32.90625 2.765625 -32.90625 L 4.28125 -32.90625 C 4.875 -32.90625 5.171875 -33.203125 5.171875 -33.796875 L 5.171875 -40.328125 C 5.171875 -40.921875 5.46875 -41.21875 6.0625 -41.21875 L 16.96875 -41.21875 C 17.5625 -41.21875 17.859375 -40.921875 17.859375 -40.328125 L 17.859375 -33.796875 C 17.859375 -33.203125 18.15625 -32.90625 18.75 -32.90625 L 23.5 -32.90625 C 24.09375 -32.90625 24.390625 -32.601562 24.390625 -32 L 24.390625 -31.015625 C 24.390625 -30.421875 24.09375 -30.125 23.5 -30.125 L 18.75 -30.125 C 18.15625 -30.125 17.859375 -29.828125 17.859375 -29.234375 L 17.859375 -3.71875 C 17.859375 -3.113281 18.15625 -2.8125 18.75 -2.8125 L 19.78125 -2.8125 C 20.382812 -2.8125 20.6875 -3.113281 20.6875 -3.71875 L 20.6875 -8.5 C 20.6875 -9.101562 20.984375 -9.40625 21.578125 -9.40625 L 29.1875 -9.40625 C 29.78125 -9.40625 30.078125 -9.101562 30.078125 -8.5 L 30.078125 -3.71875 C 30.078125 -3.113281 29.78125 -2.8125 29.1875 -2.8125 L 26.75 -2.8125 C 26.144531 -2.8125 25.84375 -2.515625 25.84375 -1.921875 L 25.84375 -0.890625 C 25.84375 -0.296875 25.546875 0 24.953125 0 L 8.890625 0 C 8.285156 0 7.984375 -0.296875 7.984375 -0.890625 Z M 7.984375 -0.890625 "/></g></g></g><g fill="#000000" fill-opacity="0.5608"><g transform="translate(302.32353, 225.902113)"><g><path d="M 8.9375 -0.890625 L 8.9375 -1.921875 C 8.9375 -2.515625 8.632812 -2.8125 8.03125 -2.8125 L 7 -2.8125 C 6.40625 -2.8125 6.109375 -3.113281 6.109375 -3.71875 L 6.109375 -4.75 C 6.109375 -5.34375 5.8125 -5.640625 5.21875 -5.640625 L 4.1875 -5.640625 C 3.59375 -5.640625 3.296875 -5.9375 3.296875 -6.53125 L 3.296875 -26.359375 C 3.296875 -26.960938 3.59375 -27.265625 4.1875 -27.265625 L 5.21875 -27.265625 C 5.8125 -27.265625 6.109375 -27.5625 6.109375 -28.15625 L 6.109375 -29.1875 C 6.109375 -29.78125 6.40625 -30.078125 7 -30.078125 L 8.03125 -30.078125 C 8.632812 -30.078125 8.9375 -30.375 8.9375 -30.96875 L 8.9375 -32 C 8.9375 -32.601562 9.234375 -32.90625 9.828125 -32.90625 L 27.78125 -32.90625 C 28.375 -32.90625 28.671875 -32.601562 28.671875 -32 L 28.671875 -30.96875 C 28.671875 -30.375 28.96875 -30.078125 29.5625 -30.078125 L 30.59375 -30.078125 C 31.1875 -30.078125 31.484375 -29.78125 31.484375 -29.1875 L 31.484375 -28.15625 C 31.484375 -27.5625 31.785156 -27.265625 32.390625 -27.265625 L 33.421875 -27.265625 C 34.015625 -27.265625 34.3125 -26.960938 34.3125 -26.359375 L 34.3125 -18.75 C 34.3125 -18.15625 34.015625 -17.859375 33.421875 -17.859375 L 32.390625 -17.859375 C 31.785156 -17.859375 31.484375 -17.5625 31.484375 -16.96875 L 31.484375 -15.9375 C 31.484375 -15.34375 31.1875 -15.046875 30.59375 -15.046875 L 16.875 -15.046875 C 16.28125 -15.046875 15.984375 -14.742188 15.984375 -14.140625 L 15.984375 -3.71875 C 15.984375 -3.113281 16.28125 -2.8125 16.875 -2.8125 L 17.90625 -2.8125 C 18.5 -2.8125 18.796875 -3.113281 18.796875 -3.71875 L 18.796875 -4.75 C 18.796875 -5.34375 19.09375 -5.640625 19.6875 -5.640625 L 20.734375 -5.640625 C 21.328125 -5.640625 21.625 -5.9375 21.625 -6.53125 L 21.625 -9.78125 C 21.625 -10.375 21.921875 -10.671875 22.515625 -10.671875 L 33.421875 -10.671875 C 34.015625 -10.671875 34.3125 -10.375 34.3125 -9.78125 L 34.3125 -6.53125 C 34.3125 -5.9375 34.015625 -5.640625 33.421875 -5.640625 L 32.390625 -5.640625 C 31.785156 -5.640625 31.484375 -5.34375 31.484375 -4.75 L 31.484375 -3.71875 C 31.484375 -3.113281 31.1875 -2.8125 30.59375 -2.8125 L 29.5625 -2.8125 C 28.96875 -2.8125 28.671875 -2.515625 28.671875 -1.921875 L 28.671875 -0.890625 C 28.671875 -0.296875 28.375 0 27.78125 0 L 9.828125 0 C 9.234375 0 8.9375 -0.296875 8.9375 -0.890625 Z M 16.875 -17.859375 L 20.734375 -17.859375 C 21.328125 -17.859375 21.625 -18.15625 21.625 -18.75 L 21.625 -29.1875 C 21.625 -29.78125 21.328125 -30.078125 20.734375 -30.078125 L 19.6875 -30.078125 C 19.09375 -30.078125 18.796875 -29.78125 18.796875 -29.1875 L 18.796875 -28.15625 C 18.796875 -27.5625 18.5 -27.265625 17.90625 -27.265625 L 16.875 -27.265625 C 16.28125 -27.265625 15.984375 -26.960938 15.984375 -26.359375 L 15.984375 -18.75 C 15.984375 -18.15625 16.28125 -17.859375 16.875 -17.859375 Z M 16.875 -17.859375 "/></g></g></g><g fill="#000000" fill-opacity="0.5608"><g transform="translate(338.977374, 225.902113)"><g><path d="M 3.296875 -0.890625 L 3.296875 -32 C 3.296875 -32.601562 3.59375 -32.90625 4.1875 -32.90625 L 10.859375 -32.90625 C 11.453125 -32.90625 11.75 -32.601562 11.75 -32 L 11.75 -28.15625 C 11.75 -27.5625 12.046875 -27.265625 12.640625 -27.265625 L 13.671875 -27.265625 C 14.265625 -27.265625 14.5625 -27.5625 14.5625 -28.15625 L 14.5625 -29.1875 C 14.5625 -29.78125 14.863281 -30.078125 15.46875 -30.078125 L 16.5 -30.078125 C 17.09375 -30.078125 17.390625 -30.375 17.390625 -30.96875 L 17.390625 -32 C 17.390625 -32.601562 17.6875 -32.90625 18.28125 -32.90625 L 26.359375 -32.90625 C 26.960938 -32.90625 27.265625 -32.601562 27.265625 -32 L 27.265625 -30.96875 C 27.265625 -30.375 27.5625 -30.078125 28.15625 -30.078125 L 29.1875 -30.078125 C 29.4375 -30.078125 29.5625 -30.078125 29.5625 -30.078125 C 29.5625 -30.078125 29.4375 -30.078125 29.1875 -30.078125 L 28.15625 -30.078125 C 27.90625 -30.078125 27.78125 -30.078125 27.78125 -30.078125 C 27.78125 -30.078125 27.90625 -30.078125 28.15625 -30.078125 L 29.1875 -30.078125 C 29.78125 -30.078125 30.078125 -29.78125 30.078125 -29.1875 L 30.078125 -22.703125 C 30.078125 -22.109375 29.78125 -21.8125 29.1875 -21.8125 L 19.6875 -21.8125 C 19.09375 -21.8125 18.796875 -22.109375 18.796875 -22.703125 L 18.796875 -26.359375 C 18.796875 -26.960938 18.5 -27.265625 17.90625 -27.265625 L 16.875 -27.265625 C 16.28125 -27.265625 15.984375 -26.960938 15.984375 -26.359375 L 15.984375 -0.890625 C 15.984375 -0.296875 15.6875 0 15.09375 0 L 4.1875 0 C 3.59375 0 3.296875 -0.296875 3.296875 -0.890625 Z M 3.296875 -0.890625 "/></g></g></g><g fill="#000000" fill-opacity="0.5608"><g transform="translate(369.992187, 225.902113)"><g><path d="M 10.71875 -43.984375 L 27.21875 -43.984375 C 27.8125 -43.984375 28.109375 -43.671875 28.109375 -43.046875 L 28.109375 -42.109375 C 28.109375 -41.484375 28.40625 -41.171875 29 -41.171875 L 30.03125 -41.171875 C 30.625 -41.171875 30.921875 -40.875 30.921875 -40.28125 L 30.921875 -39.25 C 30.921875 -38.65625 31.21875 -38.359375 31.8125 -38.359375 L 32.53125 -38.359375 C 33.125 -38.359375 33.421875 -38.054688 33.421875 -37.453125 L 33.421875 -26.265625 C 33.421875 -25.671875 33.125 -25.375 32.53125 -25.375 L 31.484375 -25.375 C 30.890625 -25.375 30.59375 -25.078125 30.59375 -24.484375 L 30.59375 -23.453125 C 30.59375 -22.859375 30.296875 -22.5625 29.703125 -22.5625 L 28.671875 -22.5625 C 28.078125 -22.5625 27.78125 -22.265625 27.78125 -21.671875 L 27.78125 -20.640625 C 27.78125 -20.035156 27.484375 -19.734375 26.890625 -19.734375 L 19.640625 -19.734375 C 19.046875 -19.734375 18.75 -19.4375 18.75 -18.84375 L 18.75 -16.6875 C 18.75 -15.90625 18.359375 -15.515625 17.578125 -15.515625 L 11.703125 -15.515625 C 10.921875 -15.515625 10.53125 -15.90625 10.53125 -16.6875 L 10.53125 -18.84375 C 10.53125 -19.4375 10.828125 -19.734375 11.421875 -19.734375 L 15.140625 -19.734375 C 15.734375 -19.734375 16.03125 -20.035156 16.03125 -20.640625 L 16.03125 -24.484375 C 16.03125 -25.078125 16.328125 -25.375 16.921875 -25.375 L 19.828125 -25.375 C 20.429688 -25.375 20.734375 -25.671875 20.734375 -26.265625 L 20.734375 -37.453125 C 20.734375 -38.054688 20.429688 -38.359375 19.828125 -38.359375 L 18.796875 -38.359375 C 18.203125 -38.359375 17.90625 -38.65625 17.90625 -39.25 L 17.90625 -40.28125 C 17.90625 -40.875 17.609375 -41.171875 17.015625 -41.171875 L 15.046875 -41.171875 C 14.441406 -41.171875 14.140625 -40.875 14.140625 -40.28125 L 14.140625 -32.1875 C 14.140625 -31.59375 13.84375 -31.296875 13.25 -31.296875 L 12.21875 -31.296875 C 11.625 -31.296875 11.328125 -31 11.328125 -30.40625 L 11.328125 -29.375 C 11.328125 -28.78125 11.03125 -28.484375 10.4375 -28.484375 L 2.34375 -28.484375 C 1.75 -28.484375 1.453125 -28.78125 1.453125 -29.375 L 1.453125 -37.453125 C 1.453125 -38.054688 1.75 -38.359375 2.34375 -38.359375 L 4.09375 -38.359375 C 4.6875 -38.359375 4.984375 -38.671875 4.984375 -39.296875 L 4.984375 -40.234375 C 4.984375 -40.859375 5.28125 -41.171875 5.875 -41.171875 L 8.9375 -41.171875 C 9.53125 -41.171875 9.828125 -41.484375 9.828125 -42.109375 L 9.828125 -43.046875 C 9.828125 -43.671875 10.125 -43.984375 10.71875 -43.984375 Z M 10.8125 -0.890625 L 10.8125 -0.984375 C 10.8125 -1.578125 10.484375 -1.875 9.828125 -1.875 C 9.234375 -1.875 8.9375 -2.171875 8.9375 -2.765625 L 8.9375 -9.96875 C 8.9375 -10.53125 9.265625 -10.8125 9.921875 -10.8125 C 10.515625 -10.8125 10.8125 -11.15625 10.8125 -11.84375 C 10.8125 -12.40625 11.109375 -12.6875 11.703125 -12.6875 L 18.84375 -12.6875 C 19.4375 -12.6875 19.734375 -12.375 19.734375 -11.75 C 19.734375 -11.125 20.066406 -10.8125 20.734375 -10.8125 C 21.328125 -10.8125 21.625 -10.53125 21.625 -9.96875 L 21.625 -2.765625 C 21.625 -2.171875 21.296875 -1.875 20.640625 -1.875 C 20.035156 -1.875 19.734375 -1.546875 19.734375 -0.890625 C 19.734375 -0.296875 19.4375 0 18.84375 0 L 11.703125 0 C 11.109375 0 10.8125 -0.296875 10.8125 -0.890625 Z M 10.8125 -0.890625 "/></g></g></g><g fill="#ffec45" fill-opacity="1"><g transform="translate(101.578126, 223.78223)"><g><path d="M 3.296875 -0.890625 L 3.296875 -32 C 3.296875 -32.601562 3.59375 -32.90625 4.1875 -32.90625 L 10.859375 -32.90625 C 11.453125 -32.90625 11.75 -32.601562 11.75 -32 L 11.75 -28.15625 C 11.75 -27.5625 12.046875 -27.265625 12.640625 -27.265625 L 13.671875 -27.265625 C 14.265625 -27.265625 14.5625 -27.5625 14.5625 -28.15625 L 14.5625 -29.1875 C 14.5625 -29.78125 14.863281 -30.078125 15.46875 -30.078125 L 16.5 -30.078125 C 17.09375 -30.078125 17.390625 -30.375 17.390625 -30.96875 L 17.390625 -32 C 17.390625 -32.601562 17.6875 -32.90625 18.28125 -32.90625 L 30.59375 -32.90625 C 31.1875 -32.90625 31.484375 -32.601562 31.484375 -32 L 31.484375 -30.96875 C 31.484375 -30.375 31.785156 -30.078125 32.390625 -30.078125 L 34.828125 -30.078125 C 35.421875 -30.078125 35.71875 -30.375 35.71875 -30.96875 L 35.71875 -32 C 35.71875 -32.601562 36.015625 -32.90625 36.609375 -32.90625 L 48.921875 -32.90625 C 49.515625 -32.90625 49.8125 -32.601562 49.8125 -32 L 49.8125 -30.96875 C 49.8125 -30.375 50.113281 -30.078125 50.71875 -30.078125 L 51.75 -30.078125 C 52.34375 -30.078125 52.640625 -29.78125 52.640625 -29.1875 L 52.640625 -0.890625 C 52.640625 -0.296875 52.34375 0 51.75 0 L 40.84375 0 C 40.25 0 39.953125 -0.296875 39.953125 -0.890625 L 39.953125 -29.1875 C 39.953125 -29.78125 39.65625 -30.078125 39.0625 -30.078125 L 38.015625 -30.078125 C 37.421875 -30.078125 37.125 -29.78125 37.125 -29.1875 L 37.125 -28.15625 C 37.125 -27.5625 36.828125 -27.265625 36.234375 -27.265625 L 35.203125 -27.265625 C 34.609375 -27.265625 34.3125 -26.960938 34.3125 -26.359375 L 34.3125 -0.890625 C 34.3125 -0.296875 34.015625 0 33.421875 0 L 22.515625 0 C 21.921875 0 21.625 -0.296875 21.625 -0.890625 L 21.625 -29.1875 C 21.625 -29.78125 21.328125 -30.078125 20.734375 -30.078125 L 19.6875 -30.078125 C 19.09375 -30.078125 18.796875 -29.78125 18.796875 -29.1875 L 18.796875 -28.15625 C 18.796875 -27.5625 18.5 -27.265625 17.90625 -27.265625 L 16.875 -27.265625 C 16.28125 -27.265625 15.984375 -26.960938 15.984375 -26.359375 L 15.984375 -0.890625 C 15.984375 -0.296875 15.6875 0 15.09375 0 L 4.1875 0 C 3.59375 0 3.296875 -0.296875 3.296875 -0.890625 Z M 3.296875 -0.890625 "/></g></g></g><g fill="#ffec45" fill-opacity="1"><g transform="translate(157.49875, 223.78223)"><g><path d="M 8.9375 -0.890625 L 8.9375 -1.921875 C 8.9375 -2.515625 8.632812 -2.8125 8.03125 -2.8125 L 7 -2.8125 C 6.40625 -2.8125 6.109375 -3.113281 6.109375 -3.71875 L 6.109375 -4.75 C 6.109375 -5.34375 5.8125 -5.640625 5.21875 -5.640625 L 4.1875 -5.640625 C 3.59375 -5.640625 3.296875 -5.9375 3.296875 -6.53125 L 3.296875 -26.359375 C 3.296875 -26.960938 3.59375 -27.265625 4.1875 -27.265625 L 5.21875 -27.265625 C 5.8125 -27.265625 6.109375 -27.5625 6.109375 -28.15625 L 6.109375 -29.1875 C 6.109375 -29.78125 6.40625 -30.078125 7 -30.078125 L 8.03125 -30.078125 C 8.632812 -30.078125 8.9375 -30.375 8.9375 -30.96875 L 8.9375 -32 C 8.9375 -32.601562 9.234375 -32.90625 9.828125 -32.90625 L 27.78125 -32.90625 C 28.375 -32.90625 28.671875 -32.601562 28.671875 -32 L 28.671875 -30.96875 C 28.671875 -30.375 28.96875 -30.078125 29.5625 -30.078125 L 30.59375 -30.078125 C 31.1875 -30.078125 31.484375 -29.78125 31.484375 -29.1875 L 31.484375 -28.15625 C 31.484375 -27.5625 31.785156 -27.265625 32.390625 -27.265625 L 33.421875 -27.265625 C 34.015625 -27.265625 34.3125 -26.960938 34.3125 -26.359375 L 34.3125 -6.53125 C 34.3125 -5.9375 34.015625 -5.640625 33.421875 -5.640625 L 32.390625 -5.640625 C 31.785156 -5.640625 31.484375 -5.34375 31.484375 -4.75 L 31.484375 -3.71875 C 31.484375 -3.113281 31.1875 -2.8125 30.59375 -2.8125 L 29.5625 -2.8125 C 28.96875 -2.8125 28.671875 -2.515625 28.671875 -1.921875 L 28.671875 -0.890625 C 28.671875 -0.296875 28.375 0 27.78125 0 L 9.828125 0 C 9.234375 0 8.9375 -0.296875 8.9375 -0.890625 Z M 19.6875 -5.640625 L 20.734375 -5.640625 C 21.328125 -5.640625 21.625 -5.9375 21.625 -6.53125 L 21.625 -29.1875 C 21.625 -29.78125 21.328125 -30.078125 20.734375 -30.078125 L 19.6875 -30.078125 C 19.09375 -30.078125 18.796875 -29.78125 18.796875 -29.1875 L 18.796875 -28.15625 C 18.796875 -27.5625 18.5 -27.265625 17.90625 -27.265625 L 16.875 -27.265625 C 16.28125 -27.265625 15.984375 -26.960938 15.984375 -26.359375 L 15.984375 -3.71875 C 15.984375 -3.113281 16.28125 -2.8125 16.875 -2.8125 L 17.90625 -2.8125 C 18.5 -2.8125 18.796875 -3.113281 18.796875 -3.71875 L 18.796875 -4.75 C 18.796875 -5.34375 19.09375 -5.640625 19.6875 -5.640625 Z M 19.6875 -5.640625 "/></g></g></g><g fill="#ffec45" fill-opacity="1"><g transform="translate(195.092451, 223.78223)"><g><path d="M 3.296875 -0.890625 L 3.296875 -32 C 3.296875 -32.601562 3.59375 -32.90625 4.1875 -32.90625 L 10.859375 -32.90625 C 11.453125 -32.90625 11.75 -32.601562 11.75 -32 L 11.75 -28.15625 C 11.75 -27.5625 12.046875 -27.265625 12.640625 -27.265625 L 13.671875 -27.265625 C 14.265625 -27.265625 14.5625 -27.5625 14.5625 -28.15625 L 14.5625 -29.1875 C 14.5625 -29.78125 14.863281 -30.078125 15.46875 -30.078125 L 16.5 -30.078125 C 17.09375 -30.078125 17.390625 -30.375 17.390625 -30.96875 L 17.390625 -32 C 17.390625 -32.601562 17.6875 -32.90625 18.28125 -32.90625 L 30.59375 -32.90625 C 31.1875 -32.90625 31.484375 -32.601562 31.484375 -32 L 31.484375 -30.96875 C 31.484375 -30.375 31.785156 -30.078125 32.390625 -30.078125 L 33.421875 -30.078125 C 33.671875 -30.078125 33.796875 -30.078125 33.796875 -30.078125 C 33.796875 -30.078125 33.671875 -30.078125 33.421875 -30.078125 L 32.390625 -30.078125 C 32.128906 -30.078125 32 -30.078125 32 -30.078125 C 32 -30.078125 32.128906 -30.078125 32.390625 -30.078125 L 33.421875 -30.078125 C 34.015625 -30.078125 34.3125 -29.78125 34.3125 -29.1875 L 34.3125 -0.890625 C 34.3125 -0.296875 34.015625 0 33.421875 0 L 22.515625 0 C 21.921875 0 21.625 -0.296875 21.625 -0.890625 L 21.625 -29.1875 C 21.625 -29.78125 21.328125 -30.078125 20.734375 -30.078125 L 19.6875 -30.078125 C 19.09375 -30.078125 18.796875 -29.78125 18.796875 -29.1875 L 18.796875 -28.15625 C 18.796875 -27.5625 18.5 -27.265625 17.90625 -27.265625 L 16.875 -27.265625 C 16.28125 -27.265625 15.984375 -26.960938 15.984375 -26.359375 L 15.984375 -0.890625 C 15.984375 -0.296875 15.6875 0 15.09375 0 L 4.1875 0 C 3.59375 0 3.296875 -0.296875 3.296875 -0.890625 Z M 3.296875 -0.890625 "/></g></g></g><g fill="#ffec45" fill-opacity="1"><g transform="translate(232.686152, 223.78223)"><g><path d="M 5.640625 -0.890625 L 5.640625 -1.921875 C 5.640625 -2.515625 5.34375 -2.8125 4.75 -2.8125 L 3.71875 -2.8125 C 3.113281 -2.8125 2.8125 -3.113281 2.8125 -3.71875 L 2.8125 -11.796875 C 2.8125 -12.390625 3.113281 -12.6875 3.71875 -12.6875 L 14.609375 -12.6875 C 15.210938 -12.6875 15.515625 -12.390625 15.515625 -11.796875 L 15.515625 -3.71875 C 15.515625 -3.113281 15.8125 -2.8125 16.40625 -2.8125 L 17.4375 -2.8125 C 18.03125 -2.8125 18.328125 -3.113281 18.328125 -3.71875 L 18.328125 -4.75 C 18.328125 -5.34375 18.625 -5.640625 19.21875 -5.640625 L 20.296875 -5.640625 C 20.898438 -5.640625 21.203125 -5.9375 21.203125 -6.53125 L 21.203125 -11.234375 C 21.203125 -11.828125 20.898438 -12.125 20.296875 -12.125 L 19.265625 -12.125 C 18.671875 -12.125 18.375 -12.421875 18.375 -13.015625 L 18.375 -14.046875 C 18.375 -14.648438 18.078125 -14.953125 17.484375 -14.953125 L 6.53125 -14.953125 C 5.9375 -14.953125 5.640625 -15.25 5.640625 -15.84375 L 5.640625 -16.875 C 5.640625 -17.46875 5.34375 -17.765625 4.75 -17.765625 L 3.71875 -17.765625 C 3.113281 -17.765625 2.8125 -18.0625 2.8125 -18.65625 L 2.8125 -29.1875 C 2.8125 -29.78125 3.113281 -30.078125 3.71875 -30.078125 L 4.421875 -30.078125 C 5.015625 -30.078125 5.3125 -30.375 5.3125 -30.96875 L 5.3125 -32 C 5.3125 -32.601562 5.609375 -32.90625 6.203125 -32.90625 L 29.65625 -32.90625 C 30.25 -32.90625 30.546875 -32.601562 30.546875 -32 L 30.546875 -30.96875 C 30.546875 -30.375 30.84375 -30.078125 31.4375 -30.078125 L 32.484375 -30.078125 C 33.078125 -30.078125 33.375 -29.78125 33.375 -29.1875 L 33.375 -21.109375 C 33.375 -20.503906 33.078125 -20.203125 32.484375 -20.203125 L 24.859375 -20.203125 C 24.265625 -20.203125 23.96875 -20.503906 23.96875 -21.109375 L 23.96875 -22.140625 C 23.96875 -22.734375 23.671875 -23.03125 23.078125 -23.03125 L 22.046875 -23.03125 C 21.453125 -23.03125 21.15625 -23.328125 21.15625 -23.921875 L 21.15625 -29.1875 C 21.15625 -29.78125 20.851562 -30.078125 20.25 -30.078125 L 19.21875 -30.078125 C 18.625 -30.078125 18.328125 -29.78125 18.328125 -29.1875 L 18.328125 -28.15625 C 18.328125 -27.5625 18.03125 -27.265625 17.4375 -27.265625 L 16.40625 -27.265625 C 15.8125 -27.265625 15.515625 -26.960938 15.515625 -26.359375 L 15.515625 -21.484375 C 15.515625 -20.890625 15.8125 -20.59375 16.40625 -20.59375 L 17.4375 -20.59375 C 18.03125 -20.59375 18.328125 -20.289062 18.328125 -19.6875 L 18.328125 -18.65625 C 18.328125 -18.0625 18.625 -17.765625 19.21875 -17.765625 L 29.703125 -17.765625 C 30.296875 -17.765625 30.59375 -17.46875 30.59375 -16.875 L 30.59375 -15.84375 C 30.59375 -15.25 30.890625 -14.953125 31.484375 -14.953125 L 32.53125 -14.953125 C 33.125 -14.953125 33.421875 -14.648438 33.421875 -14.046875 L 33.421875 -3.71875 C 33.421875 -3.113281 33.125 -2.8125 32.53125 -2.8125 L 31.484375 -2.8125 C 30.890625 -2.8125 30.59375 -2.515625 30.59375 -1.921875 L 30.59375 -0.890625 C 30.59375 -0.296875 30.296875 0 29.703125 0 L 6.53125 0 C 5.9375 0 5.640625 -0.296875 5.640625 -0.890625 Z M 5.640625 -0.890625 "/></g></g></g><g fill="#ffec45" fill-opacity="1"><g transform="translate(269.340008, 223.78223)"><g><path d="M 7.984375 -0.890625 L 7.984375 -1.921875 C 7.984375 -2.515625 7.6875 -2.8125 7.09375 -2.8125 L 6.0625 -2.8125 C 5.46875 -2.8125 5.171875 -3.113281 5.171875 -3.71875 L 5.171875 -29.234375 C 5.171875 -29.828125 4.875 -30.125 4.28125 -30.125 L 2.765625 -30.125 C 2.171875 -30.125 1.875 -30.421875 1.875 -31.015625 L 1.875 -32 C 1.875 -32.601562 2.171875 -32.90625 2.765625 -32.90625 L 4.28125 -32.90625 C 4.875 -32.90625 5.171875 -33.203125 5.171875 -33.796875 L 5.171875 -40.328125 C 5.171875 -40.921875 5.46875 -41.21875 6.0625 -41.21875 L 16.96875 -41.21875 C 17.5625 -41.21875 17.859375 -40.921875 17.859375 -40.328125 L 17.859375 -33.796875 C 17.859375 -33.203125 18.15625 -32.90625 18.75 -32.90625 L 23.5 -32.90625 C 24.09375 -32.90625 24.390625 -32.601562 24.390625 -32 L 24.390625 -31.015625 C 24.390625 -30.421875 24.09375 -30.125 23.5 -30.125 L 18.75 -30.125 C 18.15625 -30.125 17.859375 -29.828125 17.859375 -29.234375 L 17.859375 -3.71875 C 17.859375 -3.113281 18.15625 -2.8125 18.75 -2.8125 L 19.78125 -2.8125 C 20.382812 -2.8125 20.6875 -3.113281 20.6875 -3.71875 L 20.6875 -8.5 C 20.6875 -9.101562 20.984375 -9.40625 21.578125 -9.40625 L 29.1875 -9.40625 C 29.78125 -9.40625 30.078125 -9.101562 30.078125 -8.5 L 30.078125 -3.71875 C 30.078125 -3.113281 29.78125 -2.8125 29.1875 -2.8125 L 26.75 -2.8125 C 26.144531 -2.8125 25.84375 -2.515625 25.84375 -1.921875 L 25.84375 -0.890625 C 25.84375 -0.296875 25.546875 0 24.953125 0 L 8.890625 0 C 8.285156 0 7.984375 -0.296875 7.984375 -0.890625 Z M 7.984375 -0.890625 "/></g></g></g><g fill="#ffec45" fill-opacity="1"><g transform="translate(299.884881, 223.78223)"><g><path d="M 8.9375 -0.890625 L 8.9375 -1.921875 C 8.9375 -2.515625 8.632812 -2.8125 8.03125 -2.8125 L 7 -2.8125 C 6.40625 -2.8125 6.109375 -3.113281 6.109375 -3.71875 L 6.109375 -4.75 C 6.109375 -5.34375 5.8125 -5.640625 5.21875 -5.640625 L 4.1875 -5.640625 C 3.59375 -5.640625 3.296875 -5.9375 3.296875 -6.53125 L 3.296875 -26.359375 C 3.296875 -26.960938 3.59375 -27.265625 4.1875 -27.265625 L 5.21875 -27.265625 C 5.8125 -27.265625 6.109375 -27.5625 6.109375 -28.15625 L 6.109375 -29.1875 C 6.109375 -29.78125 6.40625 -30.078125 7 -30.078125 L 8.03125 -30.078125 C 8.632812 -30.078125 8.9375 -30.375 8.9375 -30.96875 L 8.9375 -32 C 8.9375 -32.601562 9.234375 -32.90625 9.828125 -32.90625 L 27.78125 -32.90625 C 28.375 -32.90625 28.671875 -32.601562 28.671875 -32 L 28.671875 -30.96875 C 28.671875 -30.375 28.96875 -30.078125 29.5625 -30.078125 L 30.59375 -30.078125 C 31.1875 -30.078125 31.484375 -29.78125 31.484375 -29.1875 L 31.484375 -28.15625 C 31.484375 -27.5625 31.785156 -27.265625 32.390625 -27.265625 L 33.421875 -27.265625 C 34.015625 -27.265625 34.3125 -26.960938 34.3125 -26.359375 L 34.3125 -18.75 C 34.3125 -18.15625 34.015625 -17.859375 33.421875 -17.859375 L 32.390625 -17.859375 C 31.785156 -17.859375 31.484375 -17.5625 31.484375 -16.96875 L 31.484375 -15.9375 C 31.484375 -15.34375 31.1875 -15.046875 30.59375 -15.046875 L 16.875 -15.046875 C 16.28125 -15.046875 15.984375 -14.742188 15.984375 -14.140625 L 15.984375 -3.71875 C 15.984375 -3.113281 16.28125 -2.8125 16.875 -2.8125 L 17.90625 -2.8125 C 18.5 -2.8125 18.796875 -3.113281 18.796875 -3.71875 L 18.796875 -4.75 C 18.796875 -5.34375 19.09375 -5.640625 19.6875 -5.640625 L 20.734375 -5.640625 C 21.328125 -5.640625 21.625 -5.9375 21.625 -6.53125 L 21.625 -9.78125 C 21.625 -10.375 21.921875 -10.671875 22.515625 -10.671875 L 33.421875 -10.671875 C 34.015625 -10.671875 34.3125 -10.375 34.3125 -9.78125 L 34.3125 -6.53125 C 34.3125 -5.9375 34.015625 -5.640625 33.421875 -5.640625 L 32.390625 -5.640625 C 31.785156 -5.640625 31.484375 -5.34375 31.484375 -4.75 L 31.484375 -3.71875 C 31.484375 -3.113281 31.1875 -2.8125 30.59375 -2.8125 L 29.5625 -2.8125 C 28.96875 -2.8125 28.671875 -2.515625 28.671875 -1.921875 L 28.671875 -0.890625 C 28.671875 -0.296875 28.375 0 27.78125 0 L 9.828125 0 C 9.234375 0 8.9375 -0.296875 8.9375 -0.890625 Z M 16.875 -17.859375 L 20.734375 -17.859375 C 21.328125 -17.859375 21.625 -18.15625 21.625 -18.75 L 21.625 -29.1875 C 21.625 -29.78125 21.328125 -30.078125 20.734375 -30.078125 L 19.6875 -30.078125 C 19.09375 -30.078125 18.796875 -29.78125 18.796875 -29.1875 L 18.796875 -28.15625 C 18.796875 -27.5625 18.5 -27.265625 17.90625 -27.265625 L 16.875 -27.265625 C 16.28125 -27.265625 15.984375 -26.960938 15.984375 -26.359375 L 15.984375 -18.75 C 15.984375 -18.15625 16.28125 -17.859375 16.875 -17.859375 Z M 16.875 -17.859375 "/></g></g></g><g fill="#ffec45" fill-opacity="1"><g transform="translate(336.538725, 223.78223)"><g><path d="M 3.296875 -0.890625 L 3.296875 -32 C 3.296875 -32.601562 3.59375 -32.90625 4.1875 -32.90625 L 10.859375 -32.90625 C 11.453125 -32.90625 11.75 -32.601562 11.75 -32 L 11.75 -28.15625 C 11.75 -27.5625 12.046875 -27.265625 12.640625 -27.265625 L 13.671875 -27.265625 C 14.265625 -27.265625 14.5625 -27.5625 14.5625 -28.15625 L 14.5625 -29.1875 C 14.5625 -29.78125 14.863281 -30.078125 15.46875 -30.078125 L 16.5 -30.078125 C 17.09375 -30.078125 17.390625 -30.375 17.390625 -30.96875 L 17.390625 -32 C 17.390625 -32.601562 17.6875 -32.90625 18.28125 -32.90625 L 26.359375 -32.90625 C 26.960938 -32.90625 27.265625 -32.601562 27.265625 -32 L 27.265625 -30.96875 C 27.265625 -30.375 27.5625 -30.078125 28.15625 -30.078125 L 29.1875 -30.078125 C 29.4375 -30.078125 29.5625 -30.078125 29.5625 -30.078125 C 29.5625 -30.078125 29.4375 -30.078125 29.1875 -30.078125 L 28.15625 -30.078125 C 27.90625 -30.078125 27.78125 -30.078125 27.78125 -30.078125 C 27.78125 -30.078125 27.90625 -30.078125 28.15625 -30.078125 L 29.1875 -30.078125 C 29.78125 -30.078125 30.078125 -29.78125 30.078125 -29.1875 L 30.078125 -22.703125 C 30.078125 -22.109375 29.78125 -21.8125 29.1875 -21.8125 L 19.6875 -21.8125 C 19.09375 -21.8125 18.796875 -22.109375 18.796875 -22.703125 L 18.796875 -26.359375 C 18.796875 -26.960938 18.5 -27.265625 17.90625 -27.265625 L 16.875 -27.265625 C 16.28125 -27.265625 15.984375 -26.960938 15.984375 -26.359375 L 15.984375 -0.890625 C 15.984375 -0.296875 15.6875 0 15.09375 0 L 4.1875 0 C 3.59375 0 3.296875 -0.296875 3.296875 -0.890625 Z M 3.296875 -0.890625 "/></g></g></g><g fill="#ffec45" fill-opacity="1"><g transform="translate(367.553539, 223.78223)"><g><path d="M 10.71875 -43.984375 L 27.21875 -43.984375 C 27.8125 -43.984375 28.109375 -43.671875 28.109375 -43.046875 L 28.109375 -42.109375 C 28.109375 -41.484375 28.40625 -41.171875 29 -41.171875 L 30.03125 -41.171875 C 30.625 -41.171875 30.921875 -40.875 30.921875 -40.28125 L 30.921875 -39.25 C 30.921875 -38.65625 31.21875 -38.359375 31.8125 -38.359375 L 32.53125 -38.359375 C 33.125 -38.359375 33.421875 -38.054688 33.421875 -37.453125 L 33.421875 -26.265625 C 33.421875 -25.671875 33.125 -25.375 32.53125 -25.375 L 31.484375 -25.375 C 30.890625 -25.375 30.59375 -25.078125 30.59375 -24.484375 L 30.59375 -23.453125 C 30.59375 -22.859375 30.296875 -22.5625 29.703125 -22.5625 L 28.671875 -22.5625 C 28.078125 -22.5625 27.78125 -22.265625 27.78125 -21.671875 L 27.78125 -20.640625 C 27.78125 -20.035156 27.484375 -19.734375 26.890625 -19.734375 L 19.640625 -19.734375 C 19.046875 -19.734375 18.75 -19.4375 18.75 -18.84375 L 18.75 -16.6875 C 18.75 -15.90625 18.359375 -15.515625 17.578125 -15.515625 L 11.703125 -15.515625 C 10.921875 -15.515625 10.53125 -15.90625 10.53125 -16.6875 L 10.53125 -18.84375 C 10.53125 -19.4375 10.828125 -19.734375 11.421875 -19.734375 L 15.140625 -19.734375 C 15.734375 -19.734375 16.03125 -20.035156 16.03125 -20.640625 L 16.03125 -24.484375 C 16.03125 -25.078125 16.328125 -25.375 16.921875 -25.375 L 19.828125 -25.375 C 20.429688 -25.375 20.734375 -25.671875 20.734375 -26.265625 L 20.734375 -37.453125 C 20.734375 -38.054688 20.429688 -38.359375 19.828125 -38.359375 L 18.796875 -38.359375 C 18.203125 -38.359375 17.90625 -38.65625 17.90625 -39.25 L 17.90625 -40.28125 C 17.90625 -40.875 17.609375 -41.171875 17.015625 -41.171875 L 15.046875 -41.171875 C 14.441406 -41.171875 14.140625 -40.875 14.140625 -40.28125 L 14.140625 -32.1875 C 14.140625 -31.59375 13.84375 -31.296875 13.25 -31.296875 L 12.21875 -31.296875 C 11.625 -31.296875 11.328125 -31 11.328125 -30.40625 L 11.328125 -29.375 C 11.328125 -28.78125 11.03125 -28.484375 10.4375 -28.484375 L 2.34375 -28.484375 C 1.75 -28.484375 1.453125 -28.78125 1.453125 -29.375 L 1.453125 -37.453125 C 1.453125 -38.054688 1.75 -38.359375 2.34375 -38.359375 L 4.09375 -38.359375 C 4.6875 -38.359375 4.984375 -38.671875 4.984375 -39.296875 L 4.984375 -40.234375 C 4.984375 -40.859375 5.28125 -41.171875 5.875 -41.171875 L 8.9375 -41.171875 C 9.53125 -41.171875 9.828125 -41.484375 9.828125 -42.109375 L 9.828125 -43.046875 C 9.828125 -43.671875 10.125 -43.984375 10.71875 -43.984375 Z M 10.8125 -0.890625 L 10.8125 -0.984375 C 10.8125 -1.578125 10.484375 -1.875 9.828125 -1.875 C 9.234375 -1.875 8.9375 -2.171875 8.9375 -2.765625 L 8.9375 -9.96875 C 8.9375 -10.53125 9.265625 -10.8125 9.921875 -10.8125 C 10.515625 -10.8125 10.8125 -11.15625 10.8125 -11.84375 C 10.8125 -12.40625 11.109375 -12.6875 11.703125 -12.6875 L 18.84375 -12.6875 C 19.4375 -12.6875 19.734375 -12.375 19.734375 -11.75 C 19.734375 -11.125 20.066406 -10.8125 20.734375 -10.8125 C 21.328125 -10.8125 21.625 -10.53125 21.625 -9.96875 L 21.625 -2.765625 C 21.625 -2.171875 21.296875 -1.875 20.640625 -1.875 C 20.035156 -1.875 19.734375 -1.546875 19.734375 -0.890625 C 19.734375 -0.296875 19.4375 0 18.84375 0 L 11.703125 0 C 11.109375 0 10.8125 -0.296875 10.8125 -0.890625 Z M 10.8125 -0.890625 "/></g></g></g></svg>