<svg xmlns="http://www.w3.org/2000/svg" xmlns:xlink="http://www.w3.org/1999/xlink" width="672" zoomAndPan="magnify" viewBox="0 0 504 359.999987" height="480" preserveAspectRatio="xMidYMid meet" version="1.0"><defs><g/></defs><g fill="#000000" fill-opacity="0.5608"><g transform="translate(20.314768, 174.184498)"><g><path d="M 6.234375 -0.90625 L 6.234375 -1.96875 C 6.234375 -2.570312 5.929688 -2.875 5.328125 -2.875 L 4.265625 -2.875 C 3.660156 -2.875 3.359375 -3.179688 3.359375 -3.796875 L 3.359375 -32.6875 C 3.359375 -33.289062 3.660156 -33.59375 4.265625 -33.59375 L 15.40625 -33.59375 C 16.007812 -33.59375 16.3125 -33.289062 16.3125 -32.6875 L 16.3125 -3.796875 C 16.3125 -3.179688 16.617188 -2.875 17.234375 -2.875 L 18.625 -2.875 C 19.226562 -2.875 19.53125 -3.179688 19.53125 -3.796875 L 19.53125 -4.84375 C 19.53125 -5.457031 19.835938 -5.765625 20.453125 -5.765625 L 21.5 -5.765625 C 22.113281 -5.765625 22.421875 -6.066406 22.421875 -6.671875 L 22.421875 -32.6875 C 22.421875 -33.289062 22.722656 -33.59375 23.328125 -33.59375 L 34.46875 -33.59375 C 35.070312 -33.59375 35.375 -33.289062 35.375 -32.6875 L 35.375 -3.796875 C 35.375 -3.179688 35.675781 -2.875 36.28125 -2.875 L 37.6875 -2.875 C 38.289062 -2.875 38.59375 -3.179688 38.59375 -3.796875 L 38.59375 -4.84375 C 38.59375 -5.457031 38.894531 -5.765625 39.5 -5.765625 L 40.5625 -5.765625 C 41.164062 -5.765625 41.46875 -6.066406 41.46875 -6.671875 L 41.46875 -32.6875 C 41.46875 -33.289062 41.773438 -33.59375 42.390625 -33.59375 L 53.515625 -33.59375 C 54.128906 -33.59375 54.4375 -33.289062 54.4375 -32.6875 L 54.4375 -12.4375 C 54.4375 -11.820312 54.128906 -11.515625 53.515625 -11.515625 L 52.46875 -11.515625 C 51.851562 -11.515625 51.546875 -11.210938 51.546875 -10.609375 L 51.546875 -9.546875 C 51.546875 -8.941406 51.242188 -8.640625 50.640625 -8.640625 L 48.140625 -8.640625 C 47.535156 -8.640625 47.234375 -8.335938 47.234375 -7.734375 L 47.234375 -6.671875 C 47.234375 -6.066406 46.925781 -5.765625 46.3125 -5.765625 L 45.265625 -5.765625 C 44.660156 -5.765625 44.359375 -5.457031 44.359375 -4.84375 L 44.359375 -3.796875 C 44.359375 -3.179688 44.050781 -2.875 43.4375 -2.875 L 42.953125 -2.875 C 42.347656 -2.875 42.046875 -2.570312 42.046875 -1.96875 L 42.046875 -0.90625 C 42.046875 -0.300781 41.742188 0 41.140625 0 L 31.96875 0 C 31.363281 0 31.0625 -0.300781 31.0625 -0.90625 L 31.0625 -1.96875 C 31.0625 -2.570312 30.753906 -2.875 30.140625 -2.875 L 29.09375 -2.875 C 28.476562 -2.875 28.171875 -3.179688 28.171875 -3.796875 L 28.171875 -4.84375 C 28.171875 -5.457031 27.867188 -5.765625 27.265625 -5.765625 L 26.203125 -5.765625 C 25.597656 -5.765625 25.296875 -5.457031 25.296875 -4.84375 L 25.296875 -3.796875 C 25.296875 -3.179688 24.992188 -2.875 24.390625 -2.875 L 23.328125 -2.875 C 22.722656 -2.875 22.421875 -2.570312 22.421875 -1.96875 L 22.421875 -0.90625 C 22.421875 -0.300781 22.113281 0 21.5 0 L 7.15625 0 C 6.539062 0 6.234375 -0.300781 6.234375 -0.90625 Z M 6.234375 -0.90625 "/></g></g></g><g fill="#000000" fill-opacity="0.5608"><g transform="translate(77.626661, 174.184498)"><g><path d="M 9.125 -0.90625 L 9.125 -1.96875 C 9.125 -2.570312 8.816406 -2.875 8.203125 -2.875 L 7.15625 -2.875 C 6.539062 -2.875 6.234375 -3.179688 6.234375 -3.796875 L 6.234375 -4.84375 C 6.234375 -5.457031 5.929688 -5.765625 5.328125 -5.765625 L 4.265625 -5.765625 C 3.660156 -5.765625 3.359375 -6.066406 3.359375 -6.671875 L 3.359375 -26.921875 C 3.359375 -27.535156 3.660156 -27.84375 4.265625 -27.84375 L 5.328125 -27.84375 C 5.929688 -27.84375 6.234375 -28.144531 6.234375 -28.75 L 6.234375 -29.8125 C 6.234375 -30.414062 6.539062 -30.71875 7.15625 -30.71875 L 8.203125 -30.71875 C 8.816406 -30.71875 9.125 -31.019531 9.125 -31.625 L 9.125 -32.6875 C 9.125 -33.289062 9.425781 -33.59375 10.03125 -33.59375 L 28.375 -33.59375 C 28.976562 -33.59375 29.28125 -33.289062 29.28125 -32.6875 L 29.28125 -31.625 C 29.28125 -31.019531 29.582031 -30.71875 30.1875 -30.71875 L 31.25 -30.71875 C 31.851562 -30.71875 32.15625 -30.414062 32.15625 -29.8125 L 32.15625 -28.75 C 32.15625 -28.144531 32.460938 -27.84375 33.078125 -27.84375 L 34.125 -27.84375 C 34.738281 -27.84375 35.046875 -27.535156 35.046875 -26.921875 L 35.046875 -6.671875 C 35.046875 -6.066406 34.738281 -5.765625 34.125 -5.765625 L 33.078125 -5.765625 C 32.460938 -5.765625 32.15625 -5.457031 32.15625 -4.84375 L 32.15625 -3.796875 C 32.15625 -3.179688 31.851562 -2.875 31.25 -2.875 L 30.1875 -2.875 C 29.582031 -2.875 29.28125 -2.570312 29.28125 -1.96875 L 29.28125 -0.90625 C 29.28125 -0.300781 28.976562 0 28.375 0 L 10.03125 0 C 9.425781 0 9.125 -0.300781 9.125 -0.90625 Z M 20.109375 -5.765625 L 21.171875 -5.765625 C 21.773438 -5.765625 22.078125 -6.066406 22.078125 -6.671875 L 22.078125 -29.8125 C 22.078125 -30.414062 21.773438 -30.71875 21.171875 -30.71875 L 20.109375 -30.71875 C 19.503906 -30.71875 19.203125 -30.414062 19.203125 -29.8125 L 19.203125 -28.75 C 19.203125 -28.144531 18.894531 -27.84375 18.28125 -27.84375 L 17.234375 -27.84375 C 16.617188 -27.84375 16.3125 -27.535156 16.3125 -26.921875 L 16.3125 -3.796875 C 16.3125 -3.179688 16.617188 -2.875 17.234375 -2.875 L 18.28125 -2.875 C 18.894531 -2.875 19.203125 -3.179688 19.203125 -3.796875 L 19.203125 -4.84375 C 19.203125 -5.457031 19.503906 -5.765625 20.109375 -5.765625 Z M 20.109375 -5.765625 "/></g></g></g><g fill="#000000" fill-opacity="0.5608"><g transform="translate(116.026599, 174.184498)"><g><path d="M 3.359375 -0.90625 L 3.359375 -32.6875 C 3.359375 -33.289062 3.660156 -33.59375 4.265625 -33.59375 L 11.09375 -33.59375 C 11.695312 -33.59375 12 -33.289062 12 -32.6875 L 12 -28.75 C 12 -28.144531 12.300781 -27.84375 12.90625 -27.84375 L 13.96875 -27.84375 C 14.570312 -27.84375 14.875 -28.144531 14.875 -28.75 L 14.875 -29.8125 C 14.875 -30.414062 15.179688 -30.71875 15.796875 -30.71875 L 16.84375 -30.71875 C 17.457031 -30.71875 17.765625 -31.019531 17.765625 -31.625 L 17.765625 -32.6875 C 17.765625 -33.289062 18.066406 -33.59375 18.671875 -33.59375 L 31.25 -33.59375 C 31.851562 -33.59375 32.15625 -33.289062 32.15625 -32.6875 L 32.15625 -31.625 C 32.15625 -31.019531 32.460938 -30.71875 33.078125 -30.71875 L 35.5625 -30.71875 C 36.175781 -30.71875 36.484375 -31.019531 36.484375 -31.625 L 36.484375 -32.6875 C 36.484375 -33.289062 36.785156 -33.59375 37.390625 -33.59375 L 49.96875 -33.59375 C 50.570312 -33.59375 50.875 -33.289062 50.875 -32.6875 L 50.875 -31.625 C 50.875 -31.019531 51.179688 -30.71875 51.796875 -30.71875 L 52.84375 -30.71875 C 53.457031 -30.71875 53.765625 -30.414062 53.765625 -29.8125 L 53.765625 -0.90625 C 53.765625 -0.300781 53.457031 0 52.84375 0 L 41.71875 0 C 41.101562 0 40.796875 -0.300781 40.796875 -0.90625 L 40.796875 -29.8125 C 40.796875 -30.414062 40.492188 -30.71875 39.890625 -30.71875 L 38.828125 -30.71875 C 38.222656 -30.71875 37.921875 -30.414062 37.921875 -29.8125 L 37.921875 -28.75 C 37.921875 -28.144531 37.617188 -27.84375 37.015625 -27.84375 L 35.953125 -27.84375 C 35.347656 -27.84375 35.046875 -27.535156 35.046875 -26.921875 L 35.046875 -0.90625 C 35.046875 -0.300781 34.738281 0 34.125 0 L 22.984375 0 C 22.378906 0 22.078125 -0.300781 22.078125 -0.90625 L 22.078125 -29.8125 C 22.078125 -30.414062 21.773438 -30.71875 21.171875 -30.71875 L 20.109375 -30.71875 C 19.503906 -30.71875 19.203125 -30.414062 19.203125 -29.8125 L 19.203125 -28.75 C 19.203125 -28.144531 18.894531 -27.84375 18.28125 -27.84375 L 17.234375 -27.84375 C 16.617188 -27.84375 16.3125 -27.535156 16.3125 -26.921875 L 16.3125 -0.90625 C 16.3125 -0.300781 16.007812 0 15.40625 0 L 4.265625 0 C 3.660156 0 3.359375 -0.300781 3.359375 -0.90625 Z M 3.359375 -0.90625 "/></g></g></g><g fill="#000000" fill-opacity="0.5608"><g transform="translate(173.146494, 174.184498)"><g><path d="M 9.125 -0.90625 L 9.125 -1.96875 C 9.125 -2.570312 8.816406 -2.875 8.203125 -2.875 L 7.15625 -2.875 C 6.539062 -2.875 6.234375 -3.179688 6.234375 -3.796875 L 6.234375 -4.84375 C 6.234375 -5.457031 5.929688 -5.765625 5.328125 -5.765625 L 4.265625 -5.765625 C 3.660156 -5.765625 3.359375 -6.066406 3.359375 -6.671875 L 3.359375 -26.921875 C 3.359375 -27.535156 3.660156 -27.84375 4.265625 -27.84375 L 5.328125 -27.84375 C 5.929688 -27.84375 6.234375 -28.144531 6.234375 -28.75 L 6.234375 -29.8125 C 6.234375 -30.414062 6.539062 -30.71875 7.15625 -30.71875 L 8.203125 -30.71875 C 8.816406 -30.71875 9.125 -31.019531 9.125 -31.625 L 9.125 -32.6875 C 9.125 -33.289062 9.425781 -33.59375 10.03125 -33.59375 L 28.375 -33.59375 C 28.976562 -33.59375 29.28125 -33.289062 29.28125 -32.6875 L 29.28125 -31.625 C 29.28125 -31.019531 29.582031 -30.71875 30.1875 -30.71875 L 31.25 -30.71875 C 31.851562 -30.71875 32.15625 -30.414062 32.15625 -29.8125 L 32.15625 -28.75 C 32.15625 -28.144531 32.460938 -27.84375 33.078125 -27.84375 L 34.125 -27.84375 C 34.738281 -27.84375 35.046875 -27.535156 35.046875 -26.921875 L 35.046875 -19.15625 C 35.046875 -18.539062 34.738281 -18.234375 34.125 -18.234375 L 33.078125 -18.234375 C 32.460938 -18.234375 32.15625 -17.929688 32.15625 -17.328125 L 32.15625 -16.265625 C 32.15625 -15.660156 31.851562 -15.359375 31.25 -15.359375 L 17.234375 -15.359375 C 16.617188 -15.359375 16.3125 -15.054688 16.3125 -14.453125 L 16.3125 -3.796875 C 16.3125 -3.179688 16.617188 -2.875 17.234375 -2.875 L 18.28125 -2.875 C 18.894531 -2.875 19.203125 -3.179688 19.203125 -3.796875 L 19.203125 -4.84375 C 19.203125 -5.457031 19.503906 -5.765625 20.109375 -5.765625 L 21.171875 -5.765625 C 21.773438 -5.765625 22.078125 -6.066406 22.078125 -6.671875 L 22.078125 -9.984375 C 22.078125 -10.585938 22.378906 -10.890625 22.984375 -10.890625 L 34.125 -10.890625 C 34.738281 -10.890625 35.046875 -10.585938 35.046875 -9.984375 L 35.046875 -6.671875 C 35.046875 -6.066406 34.738281 -5.765625 34.125 -5.765625 L 33.078125 -5.765625 C 32.460938 -5.765625 32.15625 -5.457031 32.15625 -4.84375 L 32.15625 -3.796875 C 32.15625 -3.179688 31.851562 -2.875 31.25 -2.875 L 30.1875 -2.875 C 29.582031 -2.875 29.28125 -2.570312 29.28125 -1.96875 L 29.28125 -0.90625 C 29.28125 -0.300781 28.976562 0 28.375 0 L 10.03125 0 C 9.425781 0 9.125 -0.300781 9.125 -0.90625 Z M 17.234375 -18.234375 L 21.171875 -18.234375 C 21.773438 -18.234375 22.078125 -18.539062 22.078125 -19.15625 L 22.078125 -29.8125 C 22.078125 -30.414062 21.773438 -30.71875 21.171875 -30.71875 L 20.109375 -30.71875 C 19.503906 -30.71875 19.203125 -30.414062 19.203125 -29.8125 L 19.203125 -28.75 C 19.203125 -28.144531 18.894531 -27.84375 18.28125 -27.84375 L 17.234375 -27.84375 C 16.617188 -27.84375 16.3125 -27.535156 16.3125 -26.921875 L 16.3125 -19.15625 C 16.3125 -18.539062 16.617188 -18.234375 17.234375 -18.234375 Z M 17.234375 -18.234375 "/></g></g></g><g fill="#000000" fill-opacity="0.5608"><g transform="translate(210.586432, 174.184498)"><g><path d="M 3.359375 -0.90625 L 3.359375 -32.6875 C 3.359375 -33.289062 3.660156 -33.59375 4.265625 -33.59375 L 11.09375 -33.59375 C 11.695312 -33.59375 12 -33.289062 12 -32.6875 L 12 -28.75 C 12 -28.144531 12.300781 -27.84375 12.90625 -27.84375 L 13.96875 -27.84375 C 14.570312 -27.84375 14.875 -28.144531 14.875 -28.75 L 14.875 -29.8125 C 14.875 -30.414062 15.179688 -30.71875 15.796875 -30.71875 L 16.84375 -30.71875 C 17.457031 -30.71875 17.765625 -31.019531 17.765625 -31.625 L 17.765625 -32.6875 C 17.765625 -33.289062 18.066406 -33.59375 18.671875 -33.59375 L 31.25 -33.59375 C 31.851562 -33.59375 32.15625 -33.289062 32.15625 -32.6875 L 32.15625 -31.625 C 32.15625 -31.019531 32.460938 -30.71875 33.078125 -30.71875 L 34.125 -30.71875 C 34.382812 -30.71875 34.515625 -30.71875 34.515625 -30.71875 C 34.515625 -30.71875 34.382812 -30.71875 34.125 -30.71875 L 33.078125 -30.71875 C 32.816406 -30.71875 32.6875 -30.71875 32.6875 -30.71875 C 32.6875 -30.71875 32.816406 -30.71875 33.078125 -30.71875 L 34.125 -30.71875 C 34.738281 -30.71875 35.046875 -30.414062 35.046875 -29.8125 L 35.046875 -0.90625 C 35.046875 -0.300781 34.738281 0 34.125 0 L 22.984375 0 C 22.378906 0 22.078125 -0.300781 22.078125 -0.90625 L 22.078125 -29.8125 C 22.078125 -30.414062 21.773438 -30.71875 21.171875 -30.71875 L 20.109375 -30.71875 C 19.503906 -30.71875 19.203125 -30.414062 19.203125 -29.8125 L 19.203125 -28.75 C 19.203125 -28.144531 18.894531 -27.84375 18.28125 -27.84375 L 17.234375 -27.84375 C 16.617188 -27.84375 16.3125 -27.535156 16.3125 -26.921875 L 16.3125 -0.90625 C 16.3125 -0.300781 16.007812 0 15.40625 0 L 4.265625 0 C 3.660156 0 3.359375 -0.300781 3.359375 -0.90625 Z M 3.359375 -0.90625 "/></g></g></g><g fill="#000000" fill-opacity="0.5608"><g transform="translate(248.986381, 174.184498)"><g/></g></g><g fill="#000000" fill-opacity="0.5608"><g transform="translate(260.986357, 174.184498)"><g><path d="M 3.359375 -0.90625 L 3.359375 -32.6875 C 3.359375 -33.289062 3.660156 -33.59375 4.265625 -33.59375 L 15.40625 -33.59375 C 16.007812 -33.59375 16.3125 -33.289062 16.3125 -32.6875 L 16.3125 -0.90625 C 16.3125 -0.300781 16.007812 0 15.40625 0 L 4.265625 0 C 3.660156 0 3.359375 -0.300781 3.359375 -0.90625 Z M 4.796875 -37.390625 L 4.796875 -37.484375 C 4.796875 -38.097656 4.460938 -38.40625 3.796875 -38.40625 C 3.179688 -38.40625 2.875 -38.707031 2.875 -39.3125 L 2.875 -43.734375 C 2.875 -44.335938 3.210938 -44.640625 3.890625 -44.640625 C 4.492188 -44.640625 4.796875 -44.972656 4.796875 -45.640625 C 4.796875 -46.253906 5.101562 -46.5625 5.71875 -46.5625 L 13.96875 -46.5625 C 14.570312 -46.5625 14.875 -46.222656 14.875 -45.546875 C 14.875 -44.941406 15.210938 -44.640625 15.890625 -44.640625 C 16.492188 -44.640625 16.796875 -44.335938 16.796875 -43.734375 L 16.796875 -39.3125 C 16.796875 -38.707031 16.460938 -38.40625 15.796875 -38.40625 C 15.179688 -38.40625 14.875 -38.066406 14.875 -37.390625 C 14.875 -36.785156 14.570312 -36.484375 13.96875 -36.484375 L 5.71875 -36.484375 C 5.101562 -36.484375 4.796875 -36.785156 4.796875 -37.390625 Z M 4.796875 -37.390625 "/></g></g></g><g fill="#000000" fill-opacity="0.5608"><g transform="translate(280.666326, 174.184498)"><g><path d="M 3.359375 -0.90625 L 3.359375 -32.6875 C 3.359375 -33.289062 3.660156 -33.59375 4.265625 -33.59375 L 11.09375 -33.59375 C 11.695312 -33.59375 12 -33.289062 12 -32.6875 L 12 -28.75 C 12 -28.144531 12.300781 -27.84375 12.90625 -27.84375 L 13.96875 -27.84375 C 14.570312 -27.84375 14.875 -28.144531 14.875 -28.75 L 14.875 -29.8125 C 14.875 -30.414062 15.179688 -30.71875 15.796875 -30.71875 L 16.84375 -30.71875 C 17.457031 -30.71875 17.765625 -31.019531 17.765625 -31.625 L 17.765625 -32.6875 C 17.765625 -33.289062 18.066406 -33.59375 18.671875 -33.59375 L 31.25 -33.59375 C 31.851562 -33.59375 32.15625 -33.289062 32.15625 -32.6875 L 32.15625 -31.625 C 32.15625 -31.019531 32.460938 -30.71875 33.078125 -30.71875 L 34.125 -30.71875 C 34.382812 -30.71875 34.515625 -30.71875 34.515625 -30.71875 C 34.515625 -30.71875 34.382812 -30.71875 34.125 -30.71875 L 33.078125 -30.71875 C 32.816406 -30.71875 32.6875 -30.71875 32.6875 -30.71875 C 32.6875 -30.71875 32.816406 -30.71875 33.078125 -30.71875 L 34.125 -30.71875 C 34.738281 -30.71875 35.046875 -30.414062 35.046875 -29.8125 L 35.046875 -0.90625 C 35.046875 -0.300781 34.738281 0 34.125 0 L 22.984375 0 C 22.378906 0 22.078125 -0.300781 22.078125 -0.90625 L 22.078125 -29.8125 C 22.078125 -30.414062 21.773438 -30.71875 21.171875 -30.71875 L 20.109375 -30.71875 C 19.503906 -30.71875 19.203125 -30.414062 19.203125 -29.8125 L 19.203125 -28.75 C 19.203125 -28.144531 18.894531 -27.84375 18.28125 -27.84375 L 17.234375 -27.84375 C 16.617188 -27.84375 16.3125 -27.535156 16.3125 -26.921875 L 16.3125 -0.90625 C 16.3125 -0.300781 16.007812 0 15.40625 0 L 4.265625 0 C 3.660156 0 3.359375 -0.300781 3.359375 -0.90625 Z M 3.359375 -0.90625 "/></g></g></g><g fill="#000000" fill-opacity="0.5608"><g transform="translate(319.066263, 174.184498)"><g/></g></g><g fill="#000000" fill-opacity="0.5608"><g transform="translate(331.06624, 174.184498)"><g><path d="M 5.046875 -0.90625 L 5.046875 -1.96875 C 5.046875 -2.570312 4.738281 -2.875 4.125 -2.875 L 3.078125 -2.875 C 2.460938 -2.875 2.15625 -3.179688 2.15625 -3.796875 L 2.15625 -12.046875 C 2.15625 -12.648438 2.460938 -12.953125 3.078125 -12.953125 L 14.203125 -12.953125 C 14.816406 -12.953125 15.125 -12.648438 15.125 -12.046875 L 15.125 -3.796875 C 15.125 -3.179688 15.425781 -2.875 16.03125 -2.875 L 17.09375 -2.875 C 17.695312 -2.875 18 -3.179688 18 -3.796875 L 18 -4.84375 C 18 -5.457031 18.300781 -5.765625 18.90625 -5.765625 L 20.5 -5.765625 C 21.101562 -5.765625 21.40625 -6.066406 21.40625 -6.671875 L 21.40625 -18.09375 C 21.40625 -18.707031 21.101562 -19.015625 20.5 -19.015625 L 19.4375 -19.015625 C 18.832031 -19.015625 18.53125 -19.316406 18.53125 -19.921875 L 18.53125 -20.96875 C 18.53125 -21.582031 18.222656 -21.890625 17.609375 -21.890625 L 9.359375 -21.890625 C 8.753906 -21.890625 8.453125 -22.191406 8.453125 -22.796875 L 8.453125 -23.859375 C 8.453125 -24.460938 8.144531 -24.765625 7.53125 -24.765625 L 6.484375 -24.765625 C 5.867188 -24.765625 5.5625 -25.070312 5.5625 -25.6875 L 5.5625 -26.6875 C 5.5625 -27.320312 5.242188 -27.640625 4.609375 -27.640625 L 3.640625 -27.640625 C 3.003906 -27.640625 2.6875 -27.960938 2.6875 -28.609375 L 2.6875 -38.203125 C 2.6875 -38.847656 3.003906 -39.171875 3.640625 -39.171875 L 4.609375 -39.171875 C 5.242188 -39.171875 5.5625 -39.488281 5.5625 -40.125 L 5.5625 -41.140625 C 5.5625 -41.742188 5.867188 -42.046875 6.484375 -42.046875 L 7.53125 -42.046875 C 8.144531 -42.046875 8.453125 -42.347656 8.453125 -42.953125 L 8.453125 -44.015625 C 8.453125 -44.617188 8.753906 -44.921875 9.359375 -44.921875 L 27.21875 -44.921875 C 27.820312 -44.921875 28.125 -44.617188 28.125 -44.015625 L 28.125 -42.953125 C 28.125 -42.347656 28.429688 -42.046875 29.046875 -42.046875 L 32.5 -42.046875 C 33.101562 -42.046875 33.40625 -41.742188 33.40625 -41.140625 L 33.40625 -32.875 C 33.40625 -32.269531 33.101562 -31.96875 32.5 -31.96875 L 25.203125 -31.96875 C 24.585938 -31.96875 24.28125 -32.269531 24.28125 -32.875 L 24.28125 -33.9375 C 24.28125 -34.539062 23.976562 -34.84375 23.375 -34.84375 L 22.3125 -34.84375 C 21.707031 -34.84375 21.40625 -35.148438 21.40625 -35.765625 L 21.40625 -41.140625 C 21.40625 -41.742188 21.101562 -42.046875 20.5 -42.046875 L 19.4375 -42.046875 C 18.832031 -42.046875 18.53125 -41.742188 18.53125 -41.140625 L 18.53125 -40.078125 C 18.53125 -39.472656 18.222656 -39.171875 17.609375 -39.171875 L 16.5625 -39.171875 C 15.945312 -39.171875 15.640625 -38.863281 15.640625 -38.25 L 15.640625 -28.5625 C 15.640625 -27.945312 15.945312 -27.640625 16.5625 -27.640625 L 18.09375 -27.640625 C 18.707031 -27.640625 19.015625 -27.335938 19.015625 -26.734375 L 19.015625 -25.6875 C 19.015625 -25.070312 19.316406 -24.765625 19.921875 -24.765625 L 27.703125 -24.765625 C 28.304688 -24.765625 28.609375 -24.460938 28.609375 -23.859375 L 28.609375 -22.796875 C 28.609375 -22.191406 28.910156 -21.890625 29.515625 -21.890625 L 30.578125 -21.890625 C 31.179688 -21.890625 31.484375 -21.582031 31.484375 -20.96875 L 31.484375 -19.96875 C 31.484375 -19.332031 31.804688 -19.015625 32.453125 -19.015625 L 33.40625 -19.015625 C 34.050781 -19.015625 34.375 -18.691406 34.375 -18.046875 L 34.375 -6.71875 C 34.375 -6.082031 34.050781 -5.765625 33.40625 -5.765625 L 32.453125 -5.765625 C 31.804688 -5.765625 31.484375 -5.441406 31.484375 -4.796875 L 31.484375 -3.796875 C 31.484375 -3.179688 31.179688 -2.875 30.578125 -2.875 L 29.515625 -2.875 C 28.910156 -2.875 28.609375 -2.570312 28.609375 -1.96875 L 28.609375 -0.90625 C 28.609375 -0.300781 28.320312 0 27.75 0 L 5.90625 0 C 5.332031 0 5.046875 -0.300781 5.046875 -0.90625 Z M 5.046875 -0.90625 "/></g></g></g><g fill="#000000" fill-opacity="0.5608"><g transform="translate(368.074186, 174.184498)"><g><path d="M 13.015625 -0.90625 L 13.015625 -41.1875 C 13.015625 -41.789062 12.707031 -42.09375 12.09375 -42.09375 L 10.984375 -42.09375 C 10.378906 -42.09375 10.078125 -41.789062 10.078125 -41.1875 L 10.078125 -35.765625 C 10.078125 -35.148438 9.773438 -34.84375 9.171875 -34.84375 L 8.109375 -34.84375 C 7.503906 -34.84375 7.203125 -34.539062 7.203125 -33.9375 L 7.203125 -32.875 C 7.203125 -32.269531 6.894531 -31.96875 6.28125 -31.96875 L 2.359375 -31.96875 C 1.742188 -31.96875 1.4375 -32.269531 1.4375 -32.875 L 1.4375 -44.015625 C 1.4375 -44.617188 1.742188 -44.921875 2.359375 -44.921875 L 36.625 -44.921875 C 37.226562 -44.921875 37.53125 -44.617188 37.53125 -44.015625 L 37.53125 -32.875 C 37.53125 -32.269531 37.226562 -31.96875 36.625 -31.96875 L 32.6875 -31.96875 C 32.082031 -31.96875 31.78125 -32.269531 31.78125 -32.875 L 31.78125 -33.9375 C 31.78125 -34.539062 31.472656 -34.84375 30.859375 -34.84375 L 29.8125 -34.84375 C 29.195312 -34.84375 28.890625 -35.148438 28.890625 -35.765625 L 28.890625 -41.1875 C 28.890625 -41.789062 28.585938 -42.09375 27.984375 -42.09375 L 26.875 -42.09375 C 26.269531 -42.09375 25.96875 -41.789062 25.96875 -41.1875 L 25.96875 -0.90625 C 25.96875 -0.300781 25.664062 0 25.0625 0 L 13.921875 0 C 13.316406 0 13.015625 -0.300781 13.015625 -0.90625 Z M 13.015625 -0.90625 "/></g></g></g><g fill="#000000" fill-opacity="0.5608"><g transform="translate(407.050105, 174.184498)"><g><path d="M 3.359375 -0.90625 L 3.359375 -44.015625 C 3.359375 -44.617188 3.660156 -44.921875 4.265625 -44.921875 L 31.25 -44.921875 C 31.851562 -44.921875 32.15625 -44.617188 32.15625 -44.015625 L 32.15625 -32.875 C 32.15625 -32.269531 31.851562 -31.96875 31.25 -31.96875 L 22.984375 -31.96875 C 22.378906 -31.96875 22.078125 -32.269531 22.078125 -32.875 L 22.078125 -33.9375 C 22.078125 -34.539062 21.773438 -34.84375 21.171875 -34.84375 L 20.109375 -34.84375 C 19.503906 -34.84375 19.203125 -35.148438 19.203125 -35.765625 L 19.203125 -41.140625 C 19.203125 -41.742188 18.894531 -42.046875 18.28125 -42.046875 L 17.234375 -42.046875 C 16.617188 -42.046875 16.3125 -41.742188 16.3125 -41.140625 L 16.3125 -26.25 C 16.3125 -25.644531 16.617188 -25.34375 17.234375 -25.34375 L 26.546875 -25.34375 C 27.148438 -25.34375 27.453125 -25.039062 27.453125 -24.4375 L 27.453125 -20.5 C 27.453125 -19.882812 27.148438 -19.578125 26.546875 -19.578125 L 17.234375 -19.578125 C 16.617188 -19.578125 16.3125 -19.273438 16.3125 -18.671875 L 16.3125 -3.796875 C 16.3125 -3.179688 16.617188 -2.875 17.234375 -2.875 L 18.28125 -2.875 C 18.894531 -2.875 19.203125 -3.179688 19.203125 -3.796875 L 19.203125 -9.171875 C 19.203125 -9.773438 19.503906 -10.078125 20.109375 -10.078125 L 21.171875 -10.078125 C 21.773438 -10.078125 22.078125 -10.378906 22.078125 -10.984375 L 22.078125 -12.046875 C 22.078125 -12.648438 22.378906 -12.953125 22.984375 -12.953125 L 31.25 -12.953125 C 31.851562 -12.953125 32.15625 -12.648438 32.15625 -12.046875 L 32.15625 -0.90625 C 32.15625 -0.300781 31.851562 0 31.25 0 L 4.265625 0 C 3.660156 0 3.359375 -0.300781 3.359375 -0.90625 Z M 3.359375 -0.90625 "/></g></g></g><g fill="#000000" fill-opacity="0.5608"><g transform="translate(441.610024, 174.184498)"><g><path d="M 3.359375 -0.90625 L 3.359375 -44.015625 C 3.359375 -44.617188 3.660156 -44.921875 4.265625 -44.921875 L 6.765625 -44.921875 C 7.378906 -44.921875 7.6875 -44.617188 7.6875 -44.015625 L 7.6875 -42.953125 C 7.6875 -42.347656 7.988281 -42.046875 8.59375 -42.046875 L 9.640625 -42.046875 C 10.253906 -42.046875 10.5625 -41.742188 10.5625 -41.140625 L 10.5625 -40.078125 C 10.5625 -39.472656 10.863281 -39.171875 11.46875 -39.171875 L 12.53125 -39.171875 C 13.132812 -39.171875 13.4375 -38.863281 13.4375 -38.25 L 13.4375 -37.203125 C 13.4375 -36.585938 13.742188 -36.28125 14.359375 -36.28125 L 15.40625 -36.28125 C 16.007812 -36.28125 16.3125 -35.976562 16.3125 -35.375 L 16.3125 -34.3125 C 16.3125 -33.707031 16.617188 -33.40625 17.234375 -33.40625 L 18.28125 -33.40625 C 18.894531 -33.40625 19.203125 -33.101562 19.203125 -32.5 L 19.203125 -31.4375 C 19.203125 -30.832031 19.503906 -30.53125 20.109375 -30.53125 L 21.171875 -30.53125 C 21.773438 -30.53125 22.078125 -30.222656 22.078125 -29.609375 L 22.078125 -28.5625 C 22.078125 -27.945312 22.378906 -27.640625 22.984375 -27.640625 L 24.046875 -27.640625 C 24.648438 -27.640625 24.953125 -27.945312 24.953125 -28.5625 L 24.953125 -29.609375 C 24.953125 -30.222656 25.257812 -30.53125 25.875 -30.53125 L 26.921875 -30.53125 C 27.535156 -30.53125 27.84375 -30.832031 27.84375 -31.4375 L 27.84375 -32.5 C 27.84375 -33.101562 28.144531 -33.40625 28.75 -33.40625 L 29.8125 -33.40625 C 30.414062 -33.40625 30.71875 -33.707031 30.71875 -34.3125 L 30.71875 -35.375 C 30.71875 -35.976562 31.019531 -36.28125 31.625 -36.28125 L 32.6875 -36.28125 C 33.289062 -36.28125 33.59375 -36.585938 33.59375 -37.203125 L 33.59375 -38.25 C 33.59375 -38.863281 33.898438 -39.171875 34.515625 -39.171875 L 35.5625 -39.171875 C 36.175781 -39.171875 36.484375 -39.472656 36.484375 -40.078125 L 36.484375 -41.140625 C 36.484375 -41.742188 36.785156 -42.046875 37.390625 -42.046875 L 38.5 -42.046875 C 39.101562 -42.046875 39.40625 -42.347656 39.40625 -42.953125 L 39.40625 -44.015625 C 39.40625 -44.617188 39.707031 -44.921875 40.3125 -44.921875 L 42.765625 -44.921875 C 43.378906 -44.921875 43.6875 -44.617188 43.6875 -44.015625 L 43.6875 -0.90625 C 43.6875 -0.300781 43.378906 0 42.765625 0 L 31.625 0 C 31.019531 0 30.71875 -0.300781 30.71875 -0.90625 L 30.71875 -26.734375 C 30.71875 -27.335938 30.414062 -27.640625 29.8125 -27.640625 L 28.75 -27.640625 C 28.144531 -27.640625 27.84375 -27.335938 27.84375 -26.734375 L 27.84375 -25.6875 C 27.84375 -25.070312 27.535156 -24.765625 26.921875 -24.765625 L 25.875 -24.765625 C 25.257812 -24.765625 24.953125 -24.460938 24.953125 -23.859375 L 24.953125 -22.796875 C 24.953125 -22.191406 24.648438 -21.890625 24.046875 -21.890625 L 22.984375 -21.890625 C 22.378906 -21.890625 22.078125 -22.191406 22.078125 -22.796875 L 22.078125 -23.859375 C 22.078125 -24.460938 21.773438 -24.765625 21.171875 -24.765625 L 20.109375 -24.765625 C 19.503906 -24.765625 19.203125 -25.070312 19.203125 -25.6875 L 19.203125 -26.734375 C 19.203125 -27.335938 18.894531 -27.640625 18.28125 -27.640625 L 17.234375 -27.640625 C 16.617188 -27.640625 16.3125 -27.335938 16.3125 -26.734375 L 16.3125 -0.90625 C 16.3125 -0.300781 16.007812 0 15.40625 0 L 4.265625 0 C 3.660156 0 3.359375 -0.300781 3.359375 -0.90625 Z M 3.359375 -0.90625 "/></g></g></g><g fill="#ffec45" fill-opacity="1"><g transform="translate(17.824227, 172.019504)"><g><path d="M 6.234375 -0.90625 L 6.234375 -1.96875 C 6.234375 -2.570312 5.929688 -2.875 5.328125 -2.875 L 4.265625 -2.875 C 3.660156 -2.875 3.359375 -3.179688 3.359375 -3.796875 L 3.359375 -32.6875 C 3.359375 -33.289062 3.660156 -33.59375 4.265625 -33.59375 L 15.40625 -33.59375 C 16.007812 -33.59375 16.3125 -33.289062 16.3125 -32.6875 L 16.3125 -3.796875 C 16.3125 -3.179688 16.617188 -2.875 17.234375 -2.875 L 18.625 -2.875 C 19.226562 -2.875 19.53125 -3.179688 19.53125 -3.796875 L 19.53125 -4.84375 C 19.53125 -5.457031 19.835938 -5.765625 20.453125 -5.765625 L 21.5 -5.765625 C 22.113281 -5.765625 22.421875 -6.066406 22.421875 -6.671875 L 22.421875 -32.6875 C 22.421875 -33.289062 22.722656 -33.59375 23.328125 -33.59375 L 34.46875 -33.59375 C 35.070312 -33.59375 35.375 -33.289062 35.375 -32.6875 L 35.375 -3.796875 C 35.375 -3.179688 35.675781 -2.875 36.28125 -2.875 L 37.6875 -2.875 C 38.289062 -2.875 38.59375 -3.179688 38.59375 -3.796875 L 38.59375 -4.84375 C 38.59375 -5.457031 38.894531 -5.765625 39.5 -5.765625 L 40.5625 -5.765625 C 41.164062 -5.765625 41.46875 -6.066406 41.46875 -6.671875 L 41.46875 -32.6875 C 41.46875 -33.289062 41.773438 -33.59375 42.390625 -33.59375 L 53.515625 -33.59375 C 54.128906 -33.59375 54.4375 -33.289062 54.4375 -32.6875 L 54.4375 -12.4375 C 54.4375 -11.820312 54.128906 -11.515625 53.515625 -11.515625 L 52.46875 -11.515625 C 51.851562 -11.515625 51.546875 -11.210938 51.546875 -10.609375 L 51.546875 -9.546875 C 51.546875 -8.941406 51.242188 -8.640625 50.640625 -8.640625 L 48.140625 -8.640625 C 47.535156 -8.640625 47.234375 -8.335938 47.234375 -7.734375 L 47.234375 -6.671875 C 47.234375 -6.066406 46.925781 -5.765625 46.3125 -5.765625 L 45.265625 -5.765625 C 44.660156 -5.765625 44.359375 -5.457031 44.359375 -4.84375 L 44.359375 -3.796875 C 44.359375 -3.179688 44.050781 -2.875 43.4375 -2.875 L 42.953125 -2.875 C 42.347656 -2.875 42.046875 -2.570312 42.046875 -1.96875 L 42.046875 -0.90625 C 42.046875 -0.300781 41.742188 0 41.140625 0 L 31.96875 0 C 31.363281 0 31.0625 -0.300781 31.0625 -0.90625 L 31.0625 -1.96875 C 31.0625 -2.570312 30.753906 -2.875 30.140625 -2.875 L 29.09375 -2.875 C 28.476562 -2.875 28.171875 -3.179688 28.171875 -3.796875 L 28.171875 -4.84375 C 28.171875 -5.457031 27.867188 -5.765625 27.265625 -5.765625 L 26.203125 -5.765625 C 25.597656 -5.765625 25.296875 -5.457031 25.296875 -4.84375 L 25.296875 -3.796875 C 25.296875 -3.179688 24.992188 -2.875 24.390625 -2.875 L 23.328125 -2.875 C 22.722656 -2.875 22.421875 -2.570312 22.421875 -1.96875 L 22.421875 -0.90625 C 22.421875 -0.300781 22.113281 0 21.5 0 L 7.15625 0 C 6.539062 0 6.234375 -0.300781 6.234375 -0.90625 Z M 6.234375 -0.90625 "/></g></g></g><g fill="#ffec45" fill-opacity="1"><g transform="translate(75.136119, 172.019504)"><g><path d="M 9.125 -0.90625 L 9.125 -1.96875 C 9.125 -2.570312 8.816406 -2.875 8.203125 -2.875 L 7.15625 -2.875 C 6.539062 -2.875 6.234375 -3.179688 6.234375 -3.796875 L 6.234375 -4.84375 C 6.234375 -5.457031 5.929688 -5.765625 5.328125 -5.765625 L 4.265625 -5.765625 C 3.660156 -5.765625 3.359375 -6.066406 3.359375 -6.671875 L 3.359375 -26.921875 C 3.359375 -27.535156 3.660156 -27.84375 4.265625 -27.84375 L 5.328125 -27.84375 C 5.929688 -27.84375 6.234375 -28.144531 6.234375 -28.75 L 6.234375 -29.8125 C 6.234375 -30.414062 6.539062 -30.71875 7.15625 -30.71875 L 8.203125 -30.71875 C 8.816406 -30.71875 9.125 -31.019531 9.125 -31.625 L 9.125 -32.6875 C 9.125 -33.289062 9.425781 -33.59375 10.03125 -33.59375 L 28.375 -33.59375 C 28.976562 -33.59375 29.28125 -33.289062 29.28125 -32.6875 L 29.28125 -31.625 C 29.28125 -31.019531 29.582031 -30.71875 30.1875 -30.71875 L 31.25 -30.71875 C 31.851562 -30.71875 32.15625 -30.414062 32.15625 -29.8125 L 32.15625 -28.75 C 32.15625 -28.144531 32.460938 -27.84375 33.078125 -27.84375 L 34.125 -27.84375 C 34.738281 -27.84375 35.046875 -27.535156 35.046875 -26.921875 L 35.046875 -6.671875 C 35.046875 -6.066406 34.738281 -5.765625 34.125 -5.765625 L 33.078125 -5.765625 C 32.460938 -5.765625 32.15625 -5.457031 32.15625 -4.84375 L 32.15625 -3.796875 C 32.15625 -3.179688 31.851562 -2.875 31.25 -2.875 L 30.1875 -2.875 C 29.582031 -2.875 29.28125 -2.570312 29.28125 -1.96875 L 29.28125 -0.90625 C 29.28125 -0.300781 28.976562 0 28.375 0 L 10.03125 0 C 9.425781 0 9.125 -0.300781 9.125 -0.90625 Z M 20.109375 -5.765625 L 21.171875 -5.765625 C 21.773438 -5.765625 22.078125 -6.066406 22.078125 -6.671875 L 22.078125 -29.8125 C 22.078125 -30.414062 21.773438 -30.71875 21.171875 -30.71875 L 20.109375 -30.71875 C 19.503906 -30.71875 19.203125 -30.414062 19.203125 -29.8125 L 19.203125 -28.75 C 19.203125 -28.144531 18.894531 -27.84375 18.28125 -27.84375 L 17.234375 -27.84375 C 16.617188 -27.84375 16.3125 -27.535156 16.3125 -26.921875 L 16.3125 -3.796875 C 16.3125 -3.179688 16.617188 -2.875 17.234375 -2.875 L 18.28125 -2.875 C 18.894531 -2.875 19.203125 -3.179688 19.203125 -3.796875 L 19.203125 -4.84375 C 19.203125 -5.457031 19.503906 -5.765625 20.109375 -5.765625 Z M 20.109375 -5.765625 "/></g></g></g><g fill="#ffec45" fill-opacity="1"><g transform="translate(113.536057, 172.019504)"><g><path d="M 3.359375 -0.90625 L 3.359375 -32.6875 C 3.359375 -33.289062 3.660156 -33.59375 4.265625 -33.59375 L 11.09375 -33.59375 C 11.695312 -33.59375 12 -33.289062 12 -32.6875 L 12 -28.75 C 12 -28.144531 12.300781 -27.84375 12.90625 -27.84375 L 13.96875 -27.84375 C 14.570312 -27.84375 14.875 -28.144531 14.875 -28.75 L 14.875 -29.8125 C 14.875 -30.414062 15.179688 -30.71875 15.796875 -30.71875 L 16.84375 -30.71875 C 17.457031 -30.71875 17.765625 -31.019531 17.765625 -31.625 L 17.765625 -32.6875 C 17.765625 -33.289062 18.066406 -33.59375 18.671875 -33.59375 L 31.25 -33.59375 C 31.851562 -33.59375 32.15625 -33.289062 32.15625 -32.6875 L 32.15625 -31.625 C 32.15625 -31.019531 32.460938 -30.71875 33.078125 -30.71875 L 35.5625 -30.71875 C 36.175781 -30.71875 36.484375 -31.019531 36.484375 -31.625 L 36.484375 -32.6875 C 36.484375 -33.289062 36.785156 -33.59375 37.390625 -33.59375 L 49.96875 -33.59375 C 50.570312 -33.59375 50.875 -33.289062 50.875 -32.6875 L 50.875 -31.625 C 50.875 -31.019531 51.179688 -30.71875 51.796875 -30.71875 L 52.84375 -30.71875 C 53.457031 -30.71875 53.765625 -30.414062 53.765625 -29.8125 L 53.765625 -0.90625 C 53.765625 -0.300781 53.457031 0 52.84375 0 L 41.71875 0 C 41.101562 0 40.796875 -0.300781 40.796875 -0.90625 L 40.796875 -29.8125 C 40.796875 -30.414062 40.492188 -30.71875 39.890625 -30.71875 L 38.828125 -30.71875 C 38.222656 -30.71875 37.921875 -30.414062 37.921875 -29.8125 L 37.921875 -28.75 C 37.921875 -28.144531 37.617188 -27.84375 37.015625 -27.84375 L 35.953125 -27.84375 C 35.347656 -27.84375 35.046875 -27.535156 35.046875 -26.921875 L 35.046875 -0.90625 C 35.046875 -0.300781 34.738281 0 34.125 0 L 22.984375 0 C 22.378906 0 22.078125 -0.300781 22.078125 -0.90625 L 22.078125 -29.8125 C 22.078125 -30.414062 21.773438 -30.71875 21.171875 -30.71875 L 20.109375 -30.71875 C 19.503906 -30.71875 19.203125 -30.414062 19.203125 -29.8125 L 19.203125 -28.75 C 19.203125 -28.144531 18.894531 -27.84375 18.28125 -27.84375 L 17.234375 -27.84375 C 16.617188 -27.84375 16.3125 -27.535156 16.3125 -26.921875 L 16.3125 -0.90625 C 16.3125 -0.300781 16.007812 0 15.40625 0 L 4.265625 0 C 3.660156 0 3.359375 -0.300781 3.359375 -0.90625 Z M 3.359375 -0.90625 "/></g></g></g><g fill="#ffec45" fill-opacity="1"><g transform="translate(170.655952, 172.019504)"><g><path d="M 9.125 -0.90625 L 9.125 -1.96875 C 9.125 -2.570312 8.816406 -2.875 8.203125 -2.875 L 7.15625 -2.875 C 6.539062 -2.875 6.234375 -3.179688 6.234375 -3.796875 L 6.234375 -4.84375 C 6.234375 -5.457031 5.929688 -5.765625 5.328125 -5.765625 L 4.265625 -5.765625 C 3.660156 -5.765625 3.359375 -6.066406 3.359375 -6.671875 L 3.359375 -26.921875 C 3.359375 -27.535156 3.660156 -27.84375 4.265625 -27.84375 L 5.328125 -27.84375 C 5.929688 -27.84375 6.234375 -28.144531 6.234375 -28.75 L 6.234375 -29.8125 C 6.234375 -30.414062 6.539062 -30.71875 7.15625 -30.71875 L 8.203125 -30.71875 C 8.816406 -30.71875 9.125 -31.019531 9.125 -31.625 L 9.125 -32.6875 C 9.125 -33.289062 9.425781 -33.59375 10.03125 -33.59375 L 28.375 -33.59375 C 28.976562 -33.59375 29.28125 -33.289062 29.28125 -32.6875 L 29.28125 -31.625 C 29.28125 -31.019531 29.582031 -30.71875 30.1875 -30.71875 L 31.25 -30.71875 C 31.851562 -30.71875 32.15625 -30.414062 32.15625 -29.8125 L 32.15625 -28.75 C 32.15625 -28.144531 32.460938 -27.84375 33.078125 -27.84375 L 34.125 -27.84375 C 34.738281 -27.84375 35.046875 -27.535156 35.046875 -26.921875 L 35.046875 -19.15625 C 35.046875 -18.539062 34.738281 -18.234375 34.125 -18.234375 L 33.078125 -18.234375 C 32.460938 -18.234375 32.15625 -17.929688 32.15625 -17.328125 L 32.15625 -16.265625 C 32.15625 -15.660156 31.851562 -15.359375 31.25 -15.359375 L 17.234375 -15.359375 C 16.617188 -15.359375 16.3125 -15.054688 16.3125 -14.453125 L 16.3125 -3.796875 C 16.3125 -3.179688 16.617188 -2.875 17.234375 -2.875 L 18.28125 -2.875 C 18.894531 -2.875 19.203125 -3.179688 19.203125 -3.796875 L 19.203125 -4.84375 C 19.203125 -5.457031 19.503906 -5.765625 20.109375 -5.765625 L 21.171875 -5.765625 C 21.773438 -5.765625 22.078125 -6.066406 22.078125 -6.671875 L 22.078125 -9.984375 C 22.078125 -10.585938 22.378906 -10.890625 22.984375 -10.890625 L 34.125 -10.890625 C 34.738281 -10.890625 35.046875 -10.585938 35.046875 -9.984375 L 35.046875 -6.671875 C 35.046875 -6.066406 34.738281 -5.765625 34.125 -5.765625 L 33.078125 -5.765625 C 32.460938 -5.765625 32.15625 -5.457031 32.15625 -4.84375 L 32.15625 -3.796875 C 32.15625 -3.179688 31.851562 -2.875 31.25 -2.875 L 30.1875 -2.875 C 29.582031 -2.875 29.28125 -2.570312 29.28125 -1.96875 L 29.28125 -0.90625 C 29.28125 -0.300781 28.976562 0 28.375 0 L 10.03125 0 C 9.425781 0 9.125 -0.300781 9.125 -0.90625 Z M 17.234375 -18.234375 L 21.171875 -18.234375 C 21.773438 -18.234375 22.078125 -18.539062 22.078125 -19.15625 L 22.078125 -29.8125 C 22.078125 -30.414062 21.773438 -30.71875 21.171875 -30.71875 L 20.109375 -30.71875 C 19.503906 -30.71875 19.203125 -30.414062 19.203125 -29.8125 L 19.203125 -28.75 C 19.203125 -28.144531 18.894531 -27.84375 18.28125 -27.84375 L 17.234375 -27.84375 C 16.617188 -27.84375 16.3125 -27.535156 16.3125 -26.921875 L 16.3125 -19.15625 C 16.3125 -18.539062 16.617188 -18.234375 17.234375 -18.234375 Z M 17.234375 -18.234375 "/></g></g></g><g fill="#ffec45" fill-opacity="1"><g transform="translate(208.095891, 172.019504)"><g><path d="M 3.359375 -0.90625 L 3.359375 -32.6875 C 3.359375 -33.289062 3.660156 -33.59375 4.265625 -33.59375 L 11.09375 -33.59375 C 11.695312 -33.59375 12 -33.289062 12 -32.6875 L 12 -28.75 C 12 -28.144531 12.300781 -27.84375 12.90625 -27.84375 L 13.96875 -27.84375 C 14.570312 -27.84375 14.875 -28.144531 14.875 -28.75 L 14.875 -29.8125 C 14.875 -30.414062 15.179688 -30.71875 15.796875 -30.71875 L 16.84375 -30.71875 C 17.457031 -30.71875 17.765625 -31.019531 17.765625 -31.625 L 17.765625 -32.6875 C 17.765625 -33.289062 18.066406 -33.59375 18.671875 -33.59375 L 31.25 -33.59375 C 31.851562 -33.59375 32.15625 -33.289062 32.15625 -32.6875 L 32.15625 -31.625 C 32.15625 -31.019531 32.460938 -30.71875 33.078125 -30.71875 L 34.125 -30.71875 C 34.382812 -30.71875 34.515625 -30.71875 34.515625 -30.71875 C 34.515625 -30.71875 34.382812 -30.71875 34.125 -30.71875 L 33.078125 -30.71875 C 32.816406 -30.71875 32.6875 -30.71875 32.6875 -30.71875 C 32.6875 -30.71875 32.816406 -30.71875 33.078125 -30.71875 L 34.125 -30.71875 C 34.738281 -30.71875 35.046875 -30.414062 35.046875 -29.8125 L 35.046875 -0.90625 C 35.046875 -0.300781 34.738281 0 34.125 0 L 22.984375 0 C 22.378906 0 22.078125 -0.300781 22.078125 -0.90625 L 22.078125 -29.8125 C 22.078125 -30.414062 21.773438 -30.71875 21.171875 -30.71875 L 20.109375 -30.71875 C 19.503906 -30.71875 19.203125 -30.414062 19.203125 -29.8125 L 19.203125 -28.75 C 19.203125 -28.144531 18.894531 -27.84375 18.28125 -27.84375 L 17.234375 -27.84375 C 16.617188 -27.84375 16.3125 -27.535156 16.3125 -26.921875 L 16.3125 -0.90625 C 16.3125 -0.300781 16.007812 0 15.40625 0 L 4.265625 0 C 3.660156 0 3.359375 -0.300781 3.359375 -0.90625 Z M 3.359375 -0.90625 "/></g></g></g><g fill="#ffec45" fill-opacity="1"><g transform="translate(246.49584, 172.019504)"><g/></g></g><g fill="#ffec45" fill-opacity="1"><g transform="translate(258.495816, 172.019504)"><g><path d="M 3.359375 -0.90625 L 3.359375 -32.6875 C 3.359375 -33.289062 3.660156 -33.59375 4.265625 -33.59375 L 15.40625 -33.59375 C 16.007812 -33.59375 16.3125 -33.289062 16.3125 -32.6875 L 16.3125 -0.90625 C 16.3125 -0.300781 16.007812 0 15.40625 0 L 4.265625 0 C 3.660156 0 3.359375 -0.300781 3.359375 -0.90625 Z M 4.796875 -37.390625 L 4.796875 -37.484375 C 4.796875 -38.097656 4.460938 -38.40625 3.796875 -38.40625 C 3.179688 -38.40625 2.875 -38.707031 2.875 -39.3125 L 2.875 -43.734375 C 2.875 -44.335938 3.210938 -44.640625 3.890625 -44.640625 C 4.492188 -44.640625 4.796875 -44.972656 4.796875 -45.640625 C 4.796875 -46.253906 5.101562 -46.5625 5.71875 -46.5625 L 13.96875 -46.5625 C 14.570312 -46.5625 14.875 -46.222656 14.875 -45.546875 C 14.875 -44.941406 15.210938 -44.640625 15.890625 -44.640625 C 16.492188 -44.640625 16.796875 -44.335938 16.796875 -43.734375 L 16.796875 -39.3125 C 16.796875 -38.707031 16.460938 -38.40625 15.796875 -38.40625 C 15.179688 -38.40625 14.875 -38.066406 14.875 -37.390625 C 14.875 -36.785156 14.570312 -36.484375 13.96875 -36.484375 L 5.71875 -36.484375 C 5.101562 -36.484375 4.796875 -36.785156 4.796875 -37.390625 Z M 4.796875 -37.390625 "/></g></g></g><g fill="#ffec45" fill-opacity="1"><g transform="translate(278.175784, 172.019504)"><g><path d="M 3.359375 -0.90625 L 3.359375 -32.6875 C 3.359375 -33.289062 3.660156 -33.59375 4.265625 -33.59375 L 11.09375 -33.59375 C 11.695312 -33.59375 12 -33.289062 12 -32.6875 L 12 -28.75 C 12 -28.144531 12.300781 -27.84375 12.90625 -27.84375 L 13.96875 -27.84375 C 14.570312 -27.84375 14.875 -28.144531 14.875 -28.75 L 14.875 -29.8125 C 14.875 -30.414062 15.179688 -30.71875 15.796875 -30.71875 L 16.84375 -30.71875 C 17.457031 -30.71875 17.765625 -31.019531 17.765625 -31.625 L 17.765625 -32.6875 C 17.765625 -33.289062 18.066406 -33.59375 18.671875 -33.59375 L 31.25 -33.59375 C 31.851562 -33.59375 32.15625 -33.289062 32.15625 -32.6875 L 32.15625 -31.625 C 32.15625 -31.019531 32.460938 -30.71875 33.078125 -30.71875 L 34.125 -30.71875 C 34.382812 -30.71875 34.515625 -30.71875 34.515625 -30.71875 C 34.515625 -30.71875 34.382812 -30.71875 34.125 -30.71875 L 33.078125 -30.71875 C 32.816406 -30.71875 32.6875 -30.71875 32.6875 -30.71875 C 32.6875 -30.71875 32.816406 -30.71875 33.078125 -30.71875 L 34.125 -30.71875 C 34.738281 -30.71875 35.046875 -30.414062 35.046875 -29.8125 L 35.046875 -0.90625 C 35.046875 -0.300781 34.738281 0 34.125 0 L 22.984375 0 C 22.378906 0 22.078125 -0.300781 22.078125 -0.90625 L 22.078125 -29.8125 C 22.078125 -30.414062 21.773438 -30.71875 21.171875 -30.71875 L 20.109375 -30.71875 C 19.503906 -30.71875 19.203125 -30.414062 19.203125 -29.8125 L 19.203125 -28.75 C 19.203125 -28.144531 18.894531 -27.84375 18.28125 -27.84375 L 17.234375 -27.84375 C 16.617188 -27.84375 16.3125 -27.535156 16.3125 -26.921875 L 16.3125 -0.90625 C 16.3125 -0.300781 16.007812 0 15.40625 0 L 4.265625 0 C 3.660156 0 3.359375 -0.300781 3.359375 -0.90625 Z M 3.359375 -0.90625 "/></g></g></g><g fill="#ffec45" fill-opacity="1"><g transform="translate(316.575722, 172.019504)"><g/></g></g><g fill="#ffec45" fill-opacity="1"><g transform="translate(328.575698, 172.019504)"><g><path d="M 5.046875 -0.90625 L 5.046875 -1.96875 C 5.046875 -2.570312 4.738281 -2.875 4.125 -2.875 L 3.078125 -2.875 C 2.460938 -2.875 2.15625 -3.179688 2.15625 -3.796875 L 2.15625 -12.046875 C 2.15625 -12.648438 2.460938 -12.953125 3.078125 -12.953125 L 14.203125 -12.953125 C 14.816406 -12.953125 15.125 -12.648438 15.125 -12.046875 L 15.125 -3.796875 C 15.125 -3.179688 15.425781 -2.875 16.03125 -2.875 L 17.09375 -2.875 C 17.695312 -2.875 18 -3.179688 18 -3.796875 L 18 -4.84375 C 18 -5.457031 18.300781 -5.765625 18.90625 -5.765625 L 20.5 -5.765625 C 21.101562 -5.765625 21.40625 -6.066406 21.40625 -6.671875 L 21.40625 -18.09375 C 21.40625 -18.707031 21.101562 -19.015625 20.5 -19.015625 L 19.4375 -19.015625 C 18.832031 -19.015625 18.53125 -19.316406 18.53125 -19.921875 L 18.53125 -20.96875 C 18.53125 -21.582031 18.222656 -21.890625 17.609375 -21.890625 L 9.359375 -21.890625 C 8.753906 -21.890625 8.453125 -22.191406 8.453125 -22.796875 L 8.453125 -23.859375 C 8.453125 -24.460938 8.144531 -24.765625 7.53125 -24.765625 L 6.484375 -24.765625 C 5.867188 -24.765625 5.5625 -25.070312 5.5625 -25.6875 L 5.5625 -26.6875 C 5.5625 -27.320312 5.242188 -27.640625 4.609375 -27.640625 L 3.640625 -27.640625 C 3.003906 -27.640625 2.6875 -27.960938 2.6875 -28.609375 L 2.6875 -38.203125 C 2.6875 -38.847656 3.003906 -39.171875 3.640625 -39.171875 L 4.609375 -39.171875 C 5.242188 -39.171875 5.5625 -39.488281 5.5625 -40.125 L 5.5625 -41.140625 C 5.5625 -41.742188 5.867188 -42.046875 6.484375 -42.046875 L 7.53125 -42.046875 C 8.144531 -42.046875 8.453125 -42.347656 8.453125 -42.953125 L 8.453125 -44.015625 C 8.453125 -44.617188 8.753906 -44.921875 9.359375 -44.921875 L 27.21875 -44.921875 C 27.820312 -44.921875 28.125 -44.617188 28.125 -44.015625 L 28.125 -42.953125 C 28.125 -42.347656 28.429688 -42.046875 29.046875 -42.046875 L 32.5 -42.046875 C 33.101562 -42.046875 33.40625 -41.742188 33.40625 -41.140625 L 33.40625 -32.875 C 33.40625 -32.269531 33.101562 -31.96875 32.5 -31.96875 L 25.203125 -31.96875 C 24.585938 -31.96875 24.28125 -32.269531 24.28125 -32.875 L 24.28125 -33.9375 C 24.28125 -34.539062 23.976562 -34.84375 23.375 -34.84375 L 22.3125 -34.84375 C 21.707031 -34.84375 21.40625 -35.148438 21.40625 -35.765625 L 21.40625 -41.140625 C 21.40625 -41.742188 21.101562 -42.046875 20.5 -42.046875 L 19.4375 -42.046875 C 18.832031 -42.046875 18.53125 -41.742188 18.53125 -41.140625 L 18.53125 -40.078125 C 18.53125 -39.472656 18.222656 -39.171875 17.609375 -39.171875 L 16.5625 -39.171875 C 15.945312 -39.171875 15.640625 -38.863281 15.640625 -38.25 L 15.640625 -28.5625 C 15.640625 -27.945312 15.945312 -27.640625 16.5625 -27.640625 L 18.09375 -27.640625 C 18.707031 -27.640625 19.015625 -27.335938 19.015625 -26.734375 L 19.015625 -25.6875 C 19.015625 -25.070312 19.316406 -24.765625 19.921875 -24.765625 L 27.703125 -24.765625 C 28.304688 -24.765625 28.609375 -24.460938 28.609375 -23.859375 L 28.609375 -22.796875 C 28.609375 -22.191406 28.910156 -21.890625 29.515625 -21.890625 L 30.578125 -21.890625 C 31.179688 -21.890625 31.484375 -21.582031 31.484375 -20.96875 L 31.484375 -19.96875 C 31.484375 -19.332031 31.804688 -19.015625 32.453125 -19.015625 L 33.40625 -19.015625 C 34.050781 -19.015625 34.375 -18.691406 34.375 -18.046875 L 34.375 -6.71875 C 34.375 -6.082031 34.050781 -5.765625 33.40625 -5.765625 L 32.453125 -5.765625 C 31.804688 -5.765625 31.484375 -5.441406 31.484375 -4.796875 L 31.484375 -3.796875 C 31.484375 -3.179688 31.179688 -2.875 30.578125 -2.875 L 29.515625 -2.875 C 28.910156 -2.875 28.609375 -2.570312 28.609375 -1.96875 L 28.609375 -0.90625 C 28.609375 -0.300781 28.320312 0 27.75 0 L 5.90625 0 C 5.332031 0 5.046875 -0.300781 5.046875 -0.90625 Z M 5.046875 -0.90625 "/></g></g></g><g fill="#ffec45" fill-opacity="1"><g transform="translate(365.583645, 172.019504)"><g><path d="M 13.015625 -0.90625 L 13.015625 -41.1875 C 13.015625 -41.789062 12.707031 -42.09375 12.09375 -42.09375 L 10.984375 -42.09375 C 10.378906 -42.09375 10.078125 -41.789062 10.078125 -41.1875 L 10.078125 -35.765625 C 10.078125 -35.148438 9.773438 -34.84375 9.171875 -34.84375 L 8.109375 -34.84375 C 7.503906 -34.84375 7.203125 -34.539062 7.203125 -33.9375 L 7.203125 -32.875 C 7.203125 -32.269531 6.894531 -31.96875 6.28125 -31.96875 L 2.359375 -31.96875 C 1.742188 -31.96875 1.4375 -32.269531 1.4375 -32.875 L 1.4375 -44.015625 C 1.4375 -44.617188 1.742188 -44.921875 2.359375 -44.921875 L 36.625 -44.921875 C 37.226562 -44.921875 37.53125 -44.617188 37.53125 -44.015625 L 37.53125 -32.875 C 37.53125 -32.269531 37.226562 -31.96875 36.625 -31.96875 L 32.6875 -31.96875 C 32.082031 -31.96875 31.78125 -32.269531 31.78125 -32.875 L 31.78125 -33.9375 C 31.78125 -34.539062 31.472656 -34.84375 30.859375 -34.84375 L 29.8125 -34.84375 C 29.195312 -34.84375 28.890625 -35.148438 28.890625 -35.765625 L 28.890625 -41.1875 C 28.890625 -41.789062 28.585938 -42.09375 27.984375 -42.09375 L 26.875 -42.09375 C 26.269531 -42.09375 25.96875 -41.789062 25.96875 -41.1875 L 25.96875 -0.90625 C 25.96875 -0.300781 25.664062 0 25.0625 0 L 13.921875 0 C 13.316406 0 13.015625 -0.300781 13.015625 -0.90625 Z M 13.015625 -0.90625 "/></g></g></g><g fill="#ffec45" fill-opacity="1"><g transform="translate(404.559564, 172.019504)"><g><path d="M 3.359375 -0.90625 L 3.359375 -44.015625 C 3.359375 -44.617188 3.660156 -44.921875 4.265625 -44.921875 L 31.25 -44.921875 C 31.851562 -44.921875 32.15625 -44.617188 32.15625 -44.015625 L 32.15625 -32.875 C 32.15625 -32.269531 31.851562 -31.96875 31.25 -31.96875 L 22.984375 -31.96875 C 22.378906 -31.96875 22.078125 -32.269531 22.078125 -32.875 L 22.078125 -33.9375 C 22.078125 -34.539062 21.773438 -34.84375 21.171875 -34.84375 L 20.109375 -34.84375 C 19.503906 -34.84375 19.203125 -35.148438 19.203125 -35.765625 L 19.203125 -41.140625 C 19.203125 -41.742188 18.894531 -42.046875 18.28125 -42.046875 L 17.234375 -42.046875 C 16.617188 -42.046875 16.3125 -41.742188 16.3125 -41.140625 L 16.3125 -26.25 C 16.3125 -25.644531 16.617188 -25.34375 17.234375 -25.34375 L 26.546875 -25.34375 C 27.148438 -25.34375 27.453125 -25.039062 27.453125 -24.4375 L 27.453125 -20.5 C 27.453125 -19.882812 27.148438 -19.578125 26.546875 -19.578125 L 17.234375 -19.578125 C 16.617188 -19.578125 16.3125 -19.273438 16.3125 -18.671875 L 16.3125 -3.796875 C 16.3125 -3.179688 16.617188 -2.875 17.234375 -2.875 L 18.28125 -2.875 C 18.894531 -2.875 19.203125 -3.179688 19.203125 -3.796875 L 19.203125 -9.171875 C 19.203125 -9.773438 19.503906 -10.078125 20.109375 -10.078125 L 21.171875 -10.078125 C 21.773438 -10.078125 22.078125 -10.378906 22.078125 -10.984375 L 22.078125 -12.046875 C 22.078125 -12.648438 22.378906 -12.953125 22.984375 -12.953125 L 31.25 -12.953125 C 31.851562 -12.953125 32.15625 -12.648438 32.15625 -12.046875 L 32.15625 -0.90625 C 32.15625 -0.300781 31.851562 0 31.25 0 L 4.265625 0 C 3.660156 0 3.359375 -0.300781 3.359375 -0.90625 Z M 3.359375 -0.90625 "/></g></g></g><g fill="#ffec45" fill-opacity="1"><g transform="translate(439.119482, 172.019504)"><g><path d="M 3.359375 -0.90625 L 3.359375 -44.015625 C 3.359375 -44.617188 3.660156 -44.921875 4.265625 -44.921875 L 6.765625 -44.921875 C 7.378906 -44.921875 7.6875 -44.617188 7.6875 -44.015625 L 7.6875 -42.953125 C 7.6875 -42.347656 7.988281 -42.046875 8.59375 -42.046875 L 9.640625 -42.046875 C 10.253906 -42.046875 10.5625 -41.742188 10.5625 -41.140625 L 10.5625 -40.078125 C 10.5625 -39.472656 10.863281 -39.171875 11.46875 -39.171875 L 12.53125 -39.171875 C 13.132812 -39.171875 13.4375 -38.863281 13.4375 -38.25 L 13.4375 -37.203125 C 13.4375 -36.585938 13.742188 -36.28125 14.359375 -36.28125 L 15.40625 -36.28125 C 16.007812 -36.28125 16.3125 -35.976562 16.3125 -35.375 L 16.3125 -34.3125 C 16.3125 -33.707031 16.617188 -33.40625 17.234375 -33.40625 L 18.28125 -33.40625 C 18.894531 -33.40625 19.203125 -33.101562 19.203125 -32.5 L 19.203125 -31.4375 C 19.203125 -30.832031 19.503906 -30.53125 20.109375 -30.53125 L 21.171875 -30.53125 C 21.773438 -30.53125 22.078125 -30.222656 22.078125 -29.609375 L 22.078125 -28.5625 C 22.078125 -27.945312 22.378906 -27.640625 22.984375 -27.640625 L 24.046875 -27.640625 C 24.648438 -27.640625 24.953125 -27.945312 24.953125 -28.5625 L 24.953125 -29.609375 C 24.953125 -30.222656 25.257812 -30.53125 25.875 -30.53125 L 26.921875 -30.53125 C 27.535156 -30.53125 27.84375 -30.832031 27.84375 -31.4375 L 27.84375 -32.5 C 27.84375 -33.101562 28.144531 -33.40625 28.75 -33.40625 L 29.8125 -33.40625 C 30.414062 -33.40625 30.71875 -33.707031 30.71875 -34.3125 L 30.71875 -35.375 C 30.71875 -35.976562 31.019531 -36.28125 31.625 -36.28125 L 32.6875 -36.28125 C 33.289062 -36.28125 33.59375 -36.585938 33.59375 -37.203125 L 33.59375 -38.25 C 33.59375 -38.863281 33.898438 -39.171875 34.515625 -39.171875 L 35.5625 -39.171875 C 36.175781 -39.171875 36.484375 -39.472656 36.484375 -40.078125 L 36.484375 -41.140625 C 36.484375 -41.742188 36.785156 -42.046875 37.390625 -42.046875 L 38.5 -42.046875 C 39.101562 -42.046875 39.40625 -42.347656 39.40625 -42.953125 L 39.40625 -44.015625 C 39.40625 -44.617188 39.707031 -44.921875 40.3125 -44.921875 L 42.765625 -44.921875 C 43.378906 -44.921875 43.6875 -44.617188 43.6875 -44.015625 L 43.6875 -0.90625 C 43.6875 -0.300781 43.378906 0 42.765625 0 L 31.625 0 C 31.019531 0 30.71875 -0.300781 30.71875 -0.90625 L 30.71875 -26.734375 C 30.71875 -27.335938 30.414062 -27.640625 29.8125 -27.640625 L 28.75 -27.640625 C 28.144531 -27.640625 27.84375 -27.335938 27.84375 -26.734375 L 27.84375 -25.6875 C 27.84375 -25.070312 27.535156 -24.765625 26.921875 -24.765625 L 25.875 -24.765625 C 25.257812 -24.765625 24.953125 -24.460938 24.953125 -23.859375 L 24.953125 -22.796875 C 24.953125 -22.191406 24.648438 -21.890625 24.046875 -21.890625 L 22.984375 -21.890625 C 22.378906 -21.890625 22.078125 -22.191406 22.078125 -22.796875 L 22.078125 -23.859375 C 22.078125 -24.460938 21.773438 -24.765625 21.171875 -24.765625 L 20.109375 -24.765625 C 19.503906 -24.765625 19.203125 -25.070312 19.203125 -25.6875 L 19.203125 -26.734375 C 19.203125 -27.335938 18.894531 -27.640625 18.28125 -27.640625 L 17.234375 -27.640625 C 16.617188 -27.640625 16.3125 -27.335938 16.3125 -26.734375 L 16.3125 -0.90625 C 16.3125 -0.300781 16.007812 0 15.40625 0 L 4.265625 0 C 3.660156 0 3.359375 -0.300781 3.359375 -0.90625 Z M 3.359375 -0.90625 "/></g></g></g></svg>